<svg xmlns="http://www.w3.org/2000/svg" width="93" height="92" viewBox="0 0 93 92">
  <g id="Group_2913" data-name="Group 2913" transform="translate(-357 -1499)">
    <g id="Group_54" data-name="Group 54" transform="translate(189 -71)">
      <circle id="Ellipse_2" data-name="Ellipse 2" cx="37" cy="37" r="37" transform="translate(187 1570)" fill="#fbe551"/>
    </g>
    <g id="Layer_1" transform="translate(356 1524)">
      <path id="Path_12762" data-name="Path 12762" d="M66.7,12.873,58.434,9.566,55.128,1.3,50.8,5.627A33.068,33.068,0,1,0,62.373,17.2Zm-10.38-1.189L61.8,13.878l-3.385,3.384-5.484-2.2L50.739,9.581,54.123,6.2ZM64.25,34A30.261,30.261,0,1,1,48.8,7.625L47.511,8.919l2.75,6.876L48.53,17.526a22.043,22.043,0,1,0,1.946,1.943l1.731-1.731,6.876,2.75,1.294-1.294A30.164,30.164,0,0,1,64.25,34Zm-22,0a8.276,8.276,0,1,1-3.477-6.717L34.7,31.352A2.795,2.795,0,1,0,36.648,33.3l4.069-4.069A8.2,8.2,0,0,1,42.25,34Zm-1.515-8.679a11.036,11.036,0,1,0,1.944,1.944l5.853-5.853a19.344,19.344,0,1,1-1.946-1.943Z"/>
    </g>
  </g>
</svg>
