<svg xmlns="http://www.w3.org/2000/svg" width="93" height="96.48" viewBox="0 0 93 96.48">
  <g id="Group_2914" data-name="Group 2914" transform="translate(-357 -1634)">
    <g id="Group_54" data-name="Group 54" transform="translate(189 64)">
      <circle id="Ellipse_2" data-name="Ellipse 2" cx="37" cy="37" r="37" transform="translate(187 1570)" fill="#fbe551"/>
    </g>
    <g id="_18661471221608672866" data-name="18661471221608672866" transform="translate(357 1666)">
      <path id="Path_12763" data-name="Path 12763" d="M37.412,2.175A2.449,2.449,0,0,1,40.065,0a2.445,2.445,0,0,1,2.653,2.175v9.517a2.449,2.449,0,0,1-2.653,2.175,2.445,2.445,0,0,1-2.653-2.175V2.175Zm11.66,28.454A16.853,16.853,0,1,1,42.6,31.907a16.882,16.882,0,0,1,6.472-1.278ZM47.8,40.479a1.478,1.478,0,0,1,.435-1.047h0a1.488,1.488,0,0,1,2.54,1.053V48.4L56.7,51.913l.048.032a1.445,1.445,0,0,1,.628.875,1.486,1.486,0,0,1-.15,1.106l-.011.016a.193.193,0,0,1-.038.054,1.462,1.462,0,0,1-.87.623,1.486,1.486,0,0,1-1.106-.15l-6.617-3.915a1.531,1.531,0,0,1-.564-.532,1.455,1.455,0,0,1-.22-.768h0l.005-8.776Zm11.139-2.8a13.85,13.85,0,1,0,3.034,4.527,13.939,13.939,0,0,0-3.034-4.527ZM7.224,30.806c-.15,0-.285-.661-.285-1.472s.118-1.466.285-1.466h7.24c.15,0,.285.661.285,1.466s-.118,1.472-.285,1.472Zm11.542,0c-.15,0-.285-.661-.285-1.472s.118-1.466.285-1.466H26c.15,0,.285.661.285,1.466s-.118,1.472-.285,1.472Zm11.542,0c-.15,0-.285-.661-.285-1.472s.118-1.466.285-1.466h7.24c.15,0,.285.655.285,1.461a21.864,21.864,0,0,0-2.089,1.477ZM7.24,39.227c-.15,0-.285-.661-.285-1.472s.118-1.472.285-1.472h7.24c.15,0,.285.661.285,1.472s-.118,1.472-.285,1.472Zm11.542,0c-.15,0-.285-.661-.285-1.472s.118-1.472.285-1.472h7.24c.15,0,.285.661.285,1.472s-.118,1.472-.285,1.472ZM7.256,47.654c-.15,0-.285-.661-.285-1.472s.118-1.472.285-1.472H14.5c.15,0,.285.661.285,1.472s-.118,1.472-.285,1.472Zm11.542,0c-.15,0-.285-.661-.285-1.472s.118-1.472.285-1.472h7.24c.15,0,.285.661.285,1.472s-.118,1.472-.285,1.472ZM13.582,2.175A2.449,2.449,0,0,1,16.235,0a2.445,2.445,0,0,1,2.653,2.175v9.517a2.452,2.452,0,0,1-2.653,2.175,2.445,2.445,0,0,1-2.653-2.175V2.175ZM2.922,20.806H53.449V9.85a1.322,1.322,0,0,0-.392-.945,1.35,1.35,0,0,0-.945-.392H47.267a1.472,1.472,0,0,1,0-2.943h4.844A4.291,4.291,0,0,1,56.4,9.855v17.4a22.137,22.137,0,0,0-2.981-.8V23.733H2.922V52.106a1.322,1.322,0,0,0,.392.945,1.35,1.35,0,0,0,.945.392H28.271a21.555,21.555,0,0,0,1.031,2.97H4.286a4.266,4.266,0,0,1-3.029-1.257A4.235,4.235,0,0,1,0,52.133V9.861A4.291,4.291,0,0,1,4.286,5.575H9.458a1.472,1.472,0,1,1,0,2.943H4.286a1.322,1.322,0,0,0-.945.392,1.35,1.35,0,0,0-.392.945V20.811H2.922ZM23.131,8.512a1.472,1.472,0,1,1,0-2.943h9.861a1.472,1.472,0,1,1,0,2.943Z"/>
    </g>
  </g>
</svg>
