<svg xmlns="http://www.w3.org/2000/svg" width="91.001" height="96.473" viewBox="0 0 91.001 96.473">
  <g id="Group_2915" data-name="Group 2915" transform="translate(-356.999 -1774)">
    <circle id="Ellipse_2" data-name="Ellipse 2" cx="37" cy="37" r="37" transform="translate(374 1774)" fill="#fbe551"/>
    <g id="_10412070331535699797" data-name="10412070331535699797" transform="translate(347.246 1792.525)">
      <path id="Path_12764" data-name="Path 12764" d="M30.229,42.441H22.25a1.225,1.225,0,0,0-1.226,1.226v7.979a1.226,1.226,0,0,0,1.226,1.226h7.979a1.226,1.226,0,0,0,1.226-1.226V43.667A1.226,1.226,0,0,0,30.229,42.441ZM29,50.42H23.476V44.893H29Z" transform="translate(-2.058 -6.751)"/>
      <path id="Path_12765" data-name="Path 12765" d="M53,42.441H45.018a1.225,1.225,0,0,0-1.226,1.226v7.979a1.226,1.226,0,0,0,1.226,1.226H53a1.227,1.227,0,0,0,1.226-1.226V43.667A1.227,1.227,0,0,0,53,42.441ZM51.771,50.42H46.244V44.893h5.527Z" transform="translate(-6.216 -6.751)"/>
      <path id="Path_12766" data-name="Path 12766" d="M75.063,42.441H67.084a1.226,1.226,0,0,0-1.226,1.226v7.979a1.227,1.227,0,0,0,1.226,1.226h7.979a1.227,1.227,0,0,0,1.226-1.226V43.667A1.227,1.227,0,0,0,75.063,42.441ZM73.837,50.42H68.31V44.893h5.527Z" transform="translate(-10.246 -6.751)"/>
      <path id="Path_12767" data-name="Path 12767" d="M30.229,64.677H22.25A1.226,1.226,0,0,0,21.024,65.9v7.979a1.226,1.226,0,0,0,1.226,1.226h7.979a1.226,1.226,0,0,0,1.226-1.226V65.9A1.226,1.226,0,0,0,30.229,64.677ZM29,72.656H23.476V67.129H29Z" transform="translate(-2.058 -10.812)"/>
      <path id="Path_12768" data-name="Path 12768" d="M53,64.677H45.018A1.226,1.226,0,0,0,43.792,65.9v7.979a1.226,1.226,0,0,0,1.226,1.226H53a1.227,1.227,0,0,0,1.226-1.226V65.9A1.227,1.227,0,0,0,53,64.677Zm-1.226,7.979H46.244V67.129h5.527Z" transform="translate(-6.216 -10.812)"/>
      <path id="Path_12769" data-name="Path 12769" d="M75.063,64.677H67.084A1.227,1.227,0,0,0,65.858,65.9v7.979a1.227,1.227,0,0,0,1.226,1.226h7.979a1.227,1.227,0,0,0,1.226-1.226V65.9A1.227,1.227,0,0,0,75.063,64.677Zm-1.226,7.979H68.31V67.129h5.527Z" transform="translate(-10.246 -10.812)"/>
      <path id="Path_12770" data-name="Path 12770" d="M74.528,11.948h-8.1c-.011,0-.02,0-.03,0V10.318a4.844,4.844,0,0,0-9.688,0v1.63H47.588v-1.63a4.844,4.844,0,1,0-9.688,0v1.63H28.775v-1.63a4.844,4.844,0,1,0-9.688,0v1.631H10.979a1.225,1.225,0,0,0-1.226,1.226V76.722a1.226,1.226,0,0,0,1.226,1.226H74.528a1.227,1.227,0,0,0,1.226-1.226V13.174A1.226,1.226,0,0,0,74.528,11.948Zm-15.363-1.63a2.392,2.392,0,1,1,4.783,0v6.765a2.392,2.392,0,1,1-4.783,0ZM42.744,7.926a2.394,2.394,0,0,1,2.392,2.392v6.765a2.392,2.392,0,1,1-4.783,0v-3.8c0-.038.011-.075.011-.115s-.008-.077-.011-.115v-2.74A2.394,2.394,0,0,1,42.744,7.926Zm-21.2,2.392a2.392,2.392,0,0,1,4.783,0v6.765a2.392,2.392,0,0,1-4.783,0ZM73.3,75.5h-61.1V14.4h6.882v2.685a4.844,4.844,0,1,0,9.688,0V14.4H37.9v2.683a4.844,4.844,0,1,0,9.688,0V14.4h9.124v2.683a4.844,4.844,0,0,0,9.688,0V14.4c.011,0,.02,0,.03,0H73.3Z" transform="translate(0 0)"/>
    </g>
  </g>
</svg>
