<svg id="Indoor_bike-bro" data-name="Indoor bike-bro" xmlns="http://www.w3.org/2000/svg" width="65.759" height="59.227" viewBox="0 0 65.759 59.227">
  <g id="freepik--background-simple--inject-12" transform="translate(6.369)">
    <path id="Path_12780" data-name="Path 12780" d="M113.751,49.351c-3.551-5.261-8.83-9.854-15-11.857a37.522,37.522,0,0,0-6.54-1.467C75.341,33.74,65.763,43.89,63.19,50.609c-1.472,3.844-.073,8.136,1.036,11.878.982,3.315,3.379,8.357,2.109,11.852-1.715,4.717-4.146,11.293,3.145,14.581S82.8,94.39,94.5,90.207,112.9,81.818,116.36,75.634C121.02,67.3,119.052,57.2,113.751,49.351Z" transform="translate(-62.554 -35.698)" fill="#fbe551"/>
    <path id="Path_12781" data-name="Path 12781" d="M113.751,49.351c-3.551-5.261-8.83-9.854-15-11.857a37.522,37.522,0,0,0-6.54-1.467C75.341,33.74,65.763,43.89,63.19,50.609c-1.472,3.844-.073,8.136,1.036,11.878.982,3.315,3.379,8.357,2.109,11.852-1.715,4.717-4.146,11.293,3.145,14.581S82.8,94.39,94.5,90.207,112.9,81.818,116.36,75.634C121.02,67.3,119.052,57.2,113.751,49.351Z" transform="translate(-62.554 -35.698)" fill="#fff" opacity="0.7"/>
  </g>
  <g id="freepik--Picture--inject-12" transform="translate(44.459 1.616)">
    <path id="Path_12782" data-name="Path 12782" d="M329,52.129V47h7.459" transform="translate(-329 -47)" fill="none" stroke="#263238" stroke-width="0.25"/>
    <path id="Path_12783" data-name="Path 12783" d="M337.008,47h3.142V59.723H329V52.907" transform="translate(-329 -47)" fill="none" stroke="#263238" stroke-width="0.25"/>
    <path id="Path_12784" data-name="Path 12784" d="M345.109,68.292H339.52V59h8.143v9.292h-1.911" transform="translate(-338.016 -57.285)" fill="none" stroke="#263238" stroke-width="0.25"/>
    <rect id="Rectangle_1685" data-name="Rectangle 1685" width="3.132" height="3.574" transform="translate(4.008 4.575)" fill="none" stroke="#263238" stroke-width="0.25"/>
  </g>
  <g id="freepik--Furniture--inject-12" transform="translate(2.962 19.715)">
    <rect id="Rectangle_1686" data-name="Rectangle 1686" width="0.41" height="1.105" transform="translate(6.058 15.839)" fill="none" stroke="#263238" stroke-width="0.25"/>
    <rect id="Rectangle_1687" data-name="Rectangle 1687" width="0.41" height="1.105" transform="translate(31.074 15.839)" fill="none" stroke="#263238" stroke-width="0.25"/>
    <rect id="Rectangle_1688" data-name="Rectangle 1688" width="27.343" height="15.814" transform="translate(5.271)" fill="none" stroke="#263238" stroke-width="0.25"/>
    <rect id="Rectangle_1689" data-name="Rectangle 1689" width="25.064" height="14.496" transform="translate(6.41 0.659)" fill="none" stroke="#263238" stroke-width="0.25"/>
    <rect id="Rectangle_1690" data-name="Rectangle 1690" width="34.726" height="21.066" transform="translate(1.139 17.946)" fill="none" stroke="#263238" stroke-width="0.25"/>
    <rect id="Rectangle_1691" data-name="Rectangle 1691" width="37.006" height="0.988" transform="translate(0 16.956)" fill="none" stroke="#263238" stroke-width="0.25"/>
    <rect id="Rectangle_1692" data-name="Rectangle 1692" width="16.252" height="5.71" transform="translate(2.02 18.723)" fill="none" stroke="#263238" stroke-width="0.25"/>
    <rect id="Rectangle_1693" data-name="Rectangle 1693" width="16.252" height="5.71" transform="translate(18.821 18.723)" fill="none" stroke="#263238" stroke-width="0.25"/>
    <rect id="Rectangle_1694" data-name="Rectangle 1694" width="2.965" height="0.659" transform="translate(8.499 20.808)" fill="none" stroke="#263238" stroke-width="0.25"/>
    <rect id="Rectangle_1695" data-name="Rectangle 1695" width="2.965" height="0.659" transform="translate(25.453 20.808)" fill="none" stroke="#263238" stroke-width="0.25"/>
    <rect id="Rectangle_1696" data-name="Rectangle 1696" width="16.252" height="5.71" transform="translate(2.02 25.64)" fill="none" stroke="#263238" stroke-width="0.25"/>
    <rect id="Rectangle_1697" data-name="Rectangle 1697" width="16.252" height="5.71" transform="translate(18.821 25.64)" fill="none" stroke="#263238" stroke-width="0.25"/>
    <rect id="Rectangle_1698" data-name="Rectangle 1698" width="2.965" height="0.659" transform="translate(8.499 27.727)" fill="none" stroke="#263238" stroke-width="0.25"/>
    <rect id="Rectangle_1699" data-name="Rectangle 1699" width="2.965" height="0.659" transform="translate(25.453 27.727)" fill="none" stroke="#263238" stroke-width="0.25"/>
    <rect id="Rectangle_1700" data-name="Rectangle 1700" width="16.252" height="5.71" transform="translate(2.02 32.559)" fill="none" stroke="#263238" stroke-width="0.25"/>
    <rect id="Rectangle_1701" data-name="Rectangle 1701" width="16.252" height="5.71" transform="translate(18.821 32.559)" fill="none" stroke="#263238" stroke-width="0.25"/>
    <rect id="Rectangle_1702" data-name="Rectangle 1702" width="2.965" height="0.659" transform="translate(8.499 34.645)" fill="none" stroke="#263238" stroke-width="0.25"/>
    <rect id="Rectangle_1703" data-name="Rectangle 1703" width="2.965" height="0.659" transform="translate(25.453 34.645)" fill="none" stroke="#263238" stroke-width="0.25"/>
  </g>
  <g id="freepik--Plant--inject-12" transform="translate(48.444 31.584)">
    <path id="Path_12785" data-name="Path 12785" d="M423.983,268.156s-1.893-1.051-2.033,1.331-.49,17.869-.49,17.869" transform="translate(-412.228 -266.312)" fill="none" stroke="#263238" stroke-linecap="round" stroke-linejoin="round" stroke-width="0.25"/>
    <path id="Path_12786" data-name="Path 12786" d="M418,280.32s1.542,3.431.842,17.45" transform="translate(-409.262 -276.935)" fill="none" stroke="#263238" stroke-linecap="round" stroke-linejoin="round" stroke-width="0.25"/>
    <path id="Path_12787" data-name="Path 12787" d="M395.512,260.138s-.723.465-1.135-.066.279-1.5-.33-1.92-1.658.219-1.658.219.809.239.782.679-.415.609-.467.416-.437-1.165-1.094-.761a1.625,1.625,0,0,0-.758,1.031s1.528-.163,1.621.413-.626-.1-1.258-.143-1.205.054-1.165.437a4.917,4.917,0,0,1-.06,1.009,1.884,1.884,0,0,1,1.229-.429c.693.041.668.483.037.446a1.728,1.728,0,0,0-1.174.563,5.167,5.167,0,0,0,1.307,1.471c.735.487,1,.312,1.079-.063s-.11-1.337.332-1.311-.732,1.667-.169,1.763,1.018-.066,1.167-.437l.143-.372a4.939,4.939,0,0,1-.112-1.335c.086-.375.189.011.286.46s.163,1.528.356,1.477a3.725,3.725,0,0,0,.955-1.144c.146-.306-.813-1.251-.8-1.44s.749.17.858.367a4.93,4.93,0,0,1,.226.456,1.32,1.32,0,0,0,.45-1.177C396.149,259.86,395.512,260.138,395.512,260.138Z" transform="translate(-385.257 -257.815)" fill="#fbe551"/>
    <path id="Path_12788" data-name="Path 12788" d="M395.512,260.138s-.723.465-1.135-.066.279-1.5-.33-1.92-1.658.219-1.658.219.809.239.782.679-.415.609-.467.416-.437-1.165-1.094-.761a1.625,1.625,0,0,0-.758,1.031s1.528-.163,1.621.413-.626-.1-1.258-.143-1.205.054-1.165.437a4.917,4.917,0,0,1-.06,1.009,1.884,1.884,0,0,1,1.229-.429c.693.041.668.483.037.446a1.728,1.728,0,0,0-1.174.563,5.167,5.167,0,0,0,1.307,1.471c.735.487,1,.312,1.079-.063s-.11-1.337.332-1.311-.732,1.667-.169,1.763,1.018-.066,1.167-.437l.143-.372a4.939,4.939,0,0,1-.112-1.335c.086-.375.189.011.286.46s.163,1.528.356,1.477a3.725,3.725,0,0,0,.955-1.144c.146-.306-.813-1.251-.8-1.44s.749.17.858.367a4.93,4.93,0,0,1,.226.456,1.32,1.32,0,0,0,.45-1.177C396.149,259.86,395.512,260.138,395.512,260.138Z" transform="translate(-385.257 -257.815)" fill="#263238" opacity="0.3"/>
    <path id="Path_12789" data-name="Path 12789" d="M403,276.95a9.133,9.133,0,0,1,1.75-1.75" transform="translate(-396.407 -272.547)" fill="none" stroke="#263238" stroke-linecap="round" stroke-linejoin="round" stroke-width="0.25"/>
    <path id="Path_12790" data-name="Path 12790" d="M399.13,289.89s.122-.169.317-.42" transform="translate(-393.09 -284.777)" fill="none" stroke="#263238" stroke-linecap="round" stroke-linejoin="round" stroke-width="0.25"/>
    <path id="Path_12791" data-name="Path 12791" d="M417.36,276.22a5.238,5.238,0,0,1,.831,2.011" transform="translate(-408.714 -273.421)" fill="none" stroke="#263238" stroke-linecap="round" stroke-linejoin="round" stroke-width="0.25"/>
    <path id="Path_12792" data-name="Path 12792" d="M411.8,280.3s.2-.116.123,1.144" transform="translate(-403.949 -276.918)" fill="none" stroke="#263238" stroke-linecap="round" stroke-linejoin="round" stroke-width="0.25"/>
    <path id="Path_12793" data-name="Path 12793" d="M415.38,265.725a1.019,1.019,0,0,0,.19-1.065" transform="translate(-407.017 -263.513)" fill="none" stroke="#263238" stroke-linecap="round" stroke-linejoin="round" stroke-width="0.25"/>
    <line id="Line_498" data-name="Line 498" x1="0.284" y1="0.523" transform="translate(7.537 2.29)" fill="none" stroke="#263238" stroke-linecap="round" stroke-linejoin="round" stroke-width="0.25"/>
    <path id="Path_12794" data-name="Path 12794" d="M398.537,275.775a3.844,3.844,0,0,0-1.477-.715" transform="translate(-391.316 -272.427)" fill="none" stroke="#263238" stroke-linecap="round" stroke-linejoin="round" stroke-width="0.25"/>
    <path id="Path_12795" data-name="Path 12795" d="M422.108,257.092s-.029,1.041-.841,1.092-1.315-1.3-2.144-.978-.911,1.81-.911,1.81.789-.648,1.214-.32.326.831.1.751-1.465-.356-1.508.572a1.97,1.97,0,0,0,.516,1.461s.879-1.641,1.518-1.342-.527.56-1,1.167-.766,1.245-.356,1.465a6.005,6.005,0,0,1,.971.748,2.28,2.28,0,0,1,.4-1.527c.513-.669.939-.339.472.267a2.084,2.084,0,0,0-.234,1.558,6.32,6.32,0,0,0,2.362-.306c.985-.4.989-.783.673-1.124s-1.414-.8-1.086-1.224,1.169,1.867,1.651,1.368.626-1.064.356-1.465l-.27-.4a5.99,5.99,0,0,1-1.414-.8c-.317-.342.143-.182.658.024s1.64.885,1.725.662a4.355,4.355,0,0,0-.5-1.737c-.213-.354-1.805-.039-1.987-.179s.682-.635.956-.616a6.113,6.113,0,0,1,.612.086s.024-.659-.872-1.252S422.108,257.092,422.108,257.092Z" transform="translate(-409.272 -256.639)" fill="#fbe551"/>
    <path id="Path_12796" data-name="Path 12796" d="M422.108,257.092s-.029,1.041-.841,1.092-1.315-1.3-2.144-.978-.911,1.81-.911,1.81.789-.648,1.214-.32.326.831.1.751-1.465-.356-1.508.572a1.97,1.97,0,0,0,.516,1.461s.879-1.641,1.518-1.342-.527.56-1,1.167-.766,1.245-.356,1.465a6.005,6.005,0,0,1,.971.748,2.28,2.28,0,0,1,.4-1.527c.513-.669.939-.339.472.267a2.084,2.084,0,0,0-.234,1.558,6.32,6.32,0,0,0,2.362-.306c.985-.4.989-.783.673-1.124s-1.414-.8-1.086-1.224,1.169,1.867,1.651,1.368.626-1.064.356-1.465l-.27-.4a5.99,5.99,0,0,1-1.414-.8c-.317-.342.143-.182.658.024s1.64.885,1.725.662a4.355,4.355,0,0,0-.5-1.737c-.213-.354-1.805-.039-1.987-.179s.682-.635.956-.616a6.113,6.113,0,0,1,.612.086s.024-.659-.872-1.252S422.108,257.092,422.108,257.092Z" transform="translate(-409.272 -256.639)" fill="#263238" opacity="0.2"/>
    <path id="Path_12797" data-name="Path 12797" d="M440.384,277.775a11.1,11.1,0,0,1-.559-2.945" transform="translate(-427.966 -272.229)" fill="none" stroke="#263238" stroke-linecap="round" stroke-linejoin="round" stroke-width="0.25"/>
    <path id="Path_12798" data-name="Path 12798" d="M444.876,299.025s-.087-.236-.206-.6" transform="translate(-432.12 -292.447)" fill="none" stroke="#263238" stroke-linecap="round" stroke-linejoin="round" stroke-width="0.25"/>
    <path id="Path_12799" data-name="Path 12799" d="M442.32,273.359a6.33,6.33,0,0,1,2.58.539" transform="translate(-430.106 -270.968)" fill="none" stroke="#263238" stroke-linecap="round" stroke-linejoin="round" stroke-width="0.25"/>
    <path id="Path_12800" data-name="Path 12800" d="M442.63,281.492s.02-.276,1.232.659" transform="translate(-430.371 -277.907)" fill="none" stroke="#263238" stroke-linecap="round" stroke-linejoin="round" stroke-width="0.25"/>
    <path id="Path_12801" data-name="Path 12801" d="M431.246,267.046a1.235,1.235,0,0,0-.936-.916" transform="translate(-419.813 -264.773)" fill="none" stroke="#263238" stroke-linecap="round" stroke-linejoin="round" stroke-width="0.25"/>
    <line id="Line_499" data-name="Line 499" x1="0.719" y1="0.071" transform="translate(10.948 3.154)" fill="none" stroke="#263238" stroke-linecap="round" stroke-linejoin="round" stroke-width="0.25"/>
    <path id="Path_12802" data-name="Path 12802" d="M429.007,286a4.742,4.742,0,0,0-1.727.988" transform="translate(-417.216 -281.803)" fill="none" stroke="#263238" stroke-linecap="round" stroke-linejoin="round" stroke-width="0.25"/>
    <path id="Path_12803" data-name="Path 12803" d="M385.67,308.27s4.136,2.733,4.066,13.315" transform="translate(-381.554 -300.889)" fill="none" stroke="#263238" stroke-linecap="round" stroke-linejoin="round" stroke-width="0.25"/>
    <path id="Path_12804" data-name="Path 12804" d="M391.191,300.31s-.133,1.2-1.074,1.179-1.4-1.628-2.384-1.331-1.224,2-1.224,2,.972-.673,1.43-.256.3.991.042.876-1.657-.549-1.794.525a2.287,2.287,0,0,0,.457,1.734s1.169-1.811,1.878-1.405-.662.6-1.258,1.251-1,1.365-.549,1.657a7.019,7.019,0,0,1,1.049.955,2.635,2.635,0,0,1,.609-1.723c.656-.722,1.114-.3.518.352a2.417,2.417,0,0,0-.417,1.777,7.314,7.314,0,0,0,2.753-.13c1.174-.369,1.217-.811.883-1.234s-1.555-1.056-1.144-1.515,1.174,2.266,1.776,1.735.823-1.168.549-1.657l-.273-.489a6.914,6.914,0,0,1-1.555-1.056c-.333-.425.179-.2.756.09s1.813,1.169,1.926.913a5.2,5.2,0,0,0-.41-2.051c-.209-.43-2.081-.216-2.277-.395s.846-.668,1.162-.619a6.63,6.63,0,0,1,.7.156,1.857,1.857,0,0,0-.888-1.527C391.451,299.355,391.191,300.31,391.191,300.31Z" transform="translate(-381.976 -293.651)" fill="#fbe551"/>
    <path id="Path_12805" data-name="Path 12805" d="M391.191,300.31s-.133,1.2-1.074,1.179-1.4-1.628-2.384-1.331-1.224,2-1.224,2,.972-.673,1.43-.256.3.991.042.876-1.657-.549-1.794.525a2.287,2.287,0,0,0,.457,1.734s1.169-1.811,1.878-1.405-.662.6-1.258,1.251-1,1.365-.549,1.657a7.019,7.019,0,0,1,1.049.955,2.635,2.635,0,0,1,.609-1.723c.656-.722,1.114-.3.518.352a2.417,2.417,0,0,0-.417,1.777,7.314,7.314,0,0,0,2.753-.13c1.174-.369,1.217-.811.883-1.234s-1.555-1.056-1.144-1.515,1.174,2.266,1.776,1.735.823-1.168.549-1.657l-.273-.489a6.914,6.914,0,0,1-1.555-1.056c-.333-.425.179-.2.756.09s1.813,1.169,1.926.913a5.2,5.2,0,0,0-.41-2.051c-.209-.43-2.081-.216-2.277-.395s.846-.668,1.162-.619a6.63,6.63,0,0,1,.7.156,1.857,1.857,0,0,0-.888-1.527C391.451,299.355,391.191,300.31,391.191,300.31Z" transform="translate(-381.976 -293.651)" fill="#263238" opacity="0.3"/>
    <path id="Path_12806" data-name="Path 12806" d="M412.252,323.3a12.815,12.815,0,0,1-.366-3.452" transform="translate(-404.002 -310.814)" fill="none" stroke="#263238" stroke-linecap="round" stroke-linejoin="round" stroke-width="0.25"/>
    <path id="Path_12807" data-name="Path 12807" d="M415.569,348.3s-.077-.286-.179-.715" transform="translate(-407.025 -334.588)" fill="none" stroke="#263238" stroke-linecap="round" stroke-linejoin="round" stroke-width="0.25"/>
    <path id="Path_12808" data-name="Path 12808" d="M415,318.43a7.346,7.346,0,0,1,2.928.866" transform="translate(-406.691 -309.597)" fill="none" stroke="#263238" stroke-linecap="round" stroke-linejoin="round" stroke-width="0.25"/>
    <path id="Path_12809" data-name="Path 12809" d="M414.61,327.883s.049-.316,1.359.876" transform="translate(-406.357 -317.666)" fill="none" stroke="#263238" stroke-linecap="round" stroke-linejoin="round" stroke-width="0.25"/>
    <path id="Path_12810" data-name="Path 12810" d="M402.821,310.144a1.43,1.43,0,0,0-1-1.144" transform="translate(-395.395 -301.515)" fill="none" stroke="#263238" stroke-linecap="round" stroke-linejoin="round" stroke-width="0.25"/>
    <line id="Line_500" data-name="Line 500" x1="0.823" y1="0.149" transform="translate(6.781 9.597)" fill="none" stroke="#263238" stroke-linecap="round" stroke-linejoin="round" stroke-width="0.25"/>
    <path id="Path_12811" data-name="Path 12811" d="M397.927,332.69a5.5,5.5,0,0,0-2.087.978" transform="translate(-390.27 -321.818)" fill="none" stroke="#263238" stroke-linecap="round" stroke-linejoin="round" stroke-width="0.25"/>
    <path id="Path_12812" data-name="Path 12812" d="M397,336.355a8.112,8.112,0,0,1,2.943,5.046l-.56-10.091" transform="translate(-391.264 -320.636)" fill="none" stroke="#263238" stroke-linecap="round" stroke-linejoin="round" stroke-width="0.25"/>
    <path id="Path_12813" data-name="Path 12813" d="M421.044,356.074c-3.5-.63-3.5,6.517-3.5,6.517" transform="translate(-408.868 -341.826)" fill="none" stroke="#263238" stroke-linecap="round" stroke-linejoin="round" stroke-width="0.25"/>
    <path id="Path_12814" data-name="Path 12814" d="M418.446,312.783S416.413,298,422.3,298" transform="translate(-409.354 -292.087)" fill="none" stroke="#263238" stroke-linecap="round" stroke-linejoin="round" stroke-width="0.25"/>
    <path id="Path_12815" data-name="Path 12815" d="M418.459,342.074c-.479-.538-1.5-.538-2.094.838s-.06,1.144-.06,1.144,1.144-.36,1.858-.6,1.675-.838,1.734-.479-.477.715-1.136.838-2.393.6-2.213.958.6,1.43.6,1.43a15.276,15.276,0,0,1,1.615-1.2c.778-.479,1.257-.3.838.24s-1.615,1.144-1.375,1.858,1.674,1.615,1.674,1.615a5.178,5.178,0,0,1,.6-1.976c.42-.476.419.06.3.9a9.847,9.847,0,0,0-.119,1.076l1.674.6a12.1,12.1,0,0,1,.9-1.2l.3-.3s-1.315-1.137-1.375-1.858.9,0,1.2.12.778.956.778.956.3-1.375.359-1.858l.06-.479a8.194,8.194,0,0,0-1.735-.479c-.479,0-.715.359-.715-.12a.822.822,0,0,1,1.016-.715,9.376,9.376,0,0,1,1.43.359s.359-.3.239-1.2-.419-.9-1.136-.658-1.2.778-1.735.778-.239-.658.12-.838,1.257-.539,1.437-.6-.958-.9-1.557-1.018-1.372.3-1.315.9C420.732,342.374,418.938,342.613,418.459,342.074Z" transform="translate(-407.619 -328.252)" fill="#fbe551"/>
    <path id="Path_12816" data-name="Path 12816" d="M459.65,396.43c.019.18.031.36.037.54" transform="translate(-444.958 -376.446)" fill="none" stroke="#263238" stroke-linecap="round" stroke-linejoin="round" stroke-width="0.25"/>
    <path id="Path_12817" data-name="Path 12817" d="M451.24,366.38a15.843,15.843,0,0,1,1.126,3.708" transform="translate(-437.751 -350.692)" fill="none" stroke="#263238" stroke-linecap="round" stroke-linejoin="round" stroke-width="0.25"/>
    <path id="Path_12818" data-name="Path 12818" d="M446.62,348.285c-.3-.638-.52-1.025-.52-1.025a1.771,1.771,0,0,0,.778-.715,2.01,2.01,0,0,1,.6-.715" transform="translate(-433.345 -333.08)" fill="none" stroke="#263238" stroke-linecap="round" stroke-linejoin="round" stroke-width="0.25"/>
    <path id="Path_12819" data-name="Path 12819" d="M431.45,365.647s2.154-.9,2.154-.715" transform="translate(-420.79 -349.431)" fill="none" stroke="#263238" stroke-linecap="round" stroke-linejoin="round" stroke-width="0.25"/>
    <path id="Path_12820" data-name="Path 12820" d="M454.89,359.257a4.824,4.824,0,0,1,1.8-.477" transform="translate(-440.879 -344.179)" fill="none" stroke="#263238" stroke-linecap="round" stroke-linejoin="round" stroke-width="0.25"/>
    <path id="Path_12821" data-name="Path 12821" d="M440.544,372.17a8.255,8.255,0,0,0-1.136,1.136,5.128,5.128,0,0,0-.838,1.377" transform="translate(-426.892 -355.654)" fill="none" stroke="#263238" stroke-linecap="round" stroke-linejoin="round" stroke-width="0.25"/>
    <path id="Path_12822" data-name="Path 12822" d="M457,373.2s1.257-.359,1.916.24" transform="translate(-442.687 -356.447)" fill="none" stroke="#263238" stroke-linecap="round" stroke-linejoin="round" stroke-width="0.25"/>
    <path id="Path_12823" data-name="Path 12823" d="M426.732,287.431c-.65-.385-1.371-.393-1.724-.8s.34-.612.715-.459,1.231.6,1.394.693.05-1.312-.252-1.843-1.128-.838-1.541-.4c-.871.913-2.227-.286-2.134-1s-.572-1.482-2-1.032-.9.7-.9.7,1.016.623,1.668,1.008,1.73.715,1.5,1-.858.109-1.378-.309-2.02-1.415-2.173-1.045-.693,1.394-.693,1.394a15.219,15.219,0,0,1,1.963.429c.872.274,1.049.753.369.791s-1.917-.475-2.3.176a4.971,4.971,0,0,0-.122,2.324,5.231,5.231,0,0,1,1.883-.842c.635,0,.23.355-.48.813a9.536,9.536,0,0,0-.892.616l.646,1.657a12.138,12.138,0,0,1,1.492-.107l.422.03s0-1.738.5-2.254.589.678.695.982a3.173,3.173,0,0,1-.213,1.215s1.235-.676,1.635-.945l.4-.269a8.246,8.246,0,0,0-.776-1.624c-.313-.362-.742-.307-.38-.62a.83.83,0,0,1,1.208.3,9.245,9.245,0,0,1,.67,1.319s.462.074,1.061-.6S427.384,287.818,426.732,287.431Zm-5.661,1.916c-.479-.24.658-.715.658-.715C422.148,288.569,421.55,289.585,421.071,289.346Zm.806-2.234c-.2-.1.407-.306.407-.306C423.173,286.976,422.081,287.215,421.878,287.112Z" transform="translate(-410.147 -278.76)" fill="#fbe551"/>
    <path id="Path_12824" data-name="Path 12824" d="M430.9,339.21c-.124.132-.253.26-.385.383" transform="translate(-419.993 -327.406)" fill="none" stroke="#263238" stroke-linecap="round" stroke-linejoin="round" stroke-width="0.25"/>
    <path id="Path_12825" data-name="Path 12825" d="M438.056,313.17A15.847,15.847,0,0,1,436,316.451" transform="translate(-424.689 -305.089)" fill="none" stroke="#263238" stroke-linecap="round" stroke-linejoin="round" stroke-width="0.25"/>
    <path id="Path_12826" data-name="Path 12826" d="M451.93,303.445c.286-.642.429-1.065.429-1.065a1.769,1.769,0,0,0,1.052.117,1.985,1.985,0,0,1,.935-.02" transform="translate(-438.342 -295.841)" fill="none" stroke="#263238" stroke-linecap="round" stroke-linejoin="round" stroke-width="0.25"/>
    <path id="Path_12827" data-name="Path 12827" d="M436.574,301.805c.136-.117-1.954-1.155-1.954-1.155" transform="translate(-423.506 -294.358)" fill="none" stroke="#263238" stroke-linecap="round" stroke-linejoin="round" stroke-width="0.25"/>
    <path id="Path_12828" data-name="Path 12828" d="M456,313.13a4.8,4.8,0,0,1,1.538,1.042" transform="translate(-441.83 -305.054)" fill="none" stroke="#263238" stroke-linecap="round" stroke-linejoin="round" stroke-width="0.25"/>
    <path id="Path_12829" data-name="Path 12829" d="M427.622,317.126a8.326,8.326,0,0,0-1.6-.113,5.166,5.166,0,0,0-1.588.269" transform="translate(-414.773 -308.38)" fill="none" stroke="#263238" stroke-linecap="round" stroke-linejoin="round" stroke-width="0.25"/>
    <path id="Path_12830" data-name="Path 12830" d="M448.51,322.39s1.095.715,1.075,1.6" transform="translate(-435.411 -312.991)" fill="none" stroke="#263238" stroke-linecap="round" stroke-linejoin="round" stroke-width="0.25"/>
    <path id="Path_12831" data-name="Path 12831" d="M370.656,351.259c-.525-.31-1.1-.316-1.388-.643s.274-.493.572-.369.991.479,1.122.556.04-1.055-.2-1.481-.908-.676-1.239-.327c-.7.736-1.793-.229-1.715-.8s-.462-1.194-1.614-.831-.722.563-.722.563.818.5,1.342.812,1.392.572,1.205.8-.688.089-1.108-.249-1.627-1.144-1.75-.839-.558,1.121-.558,1.121a12.22,12.22,0,0,1,1.58.35c.7.22.845.606.3.635s-1.544-.382-1.858.143a3.942,3.942,0,0,0-.1,1.87,4.168,4.168,0,0,1,1.515-.678c.515,0,.184.286-.387.655a7.686,7.686,0,0,0-.715.5l.52,1.334a9.539,9.539,0,0,1,1.2-.086l.339.023s0-1.4.4-1.814.473.545.557.791a2.569,2.569,0,0,1-.17.978s1-.545,1.315-.761l.323-.216a6.592,6.592,0,0,0-.625-1.308c-.253-.292-.6-.246-.306-.5a.665.665,0,0,1,.974.239,7.54,7.54,0,0,1,.539,1.062s.372.06.858-.486S371.18,351.569,370.656,351.259ZM366.1,352.8c-.386-.192.529-.572.529-.572C366.966,352.174,366.484,352.993,366.1,352.8Zm.648-1.8c-.163-.081.329-.246.329-.246C367.788,350.893,366.912,351.084,366.747,351Z" transform="translate(-363.366 -334.299)" fill="#fbe551"/>
    <path id="Path_12832" data-name="Path 12832" d="M374.079,392.92q-.15.162-.309.309" transform="translate(-371.355 -373.438)" fill="none" stroke="#263238" stroke-linecap="round" stroke-linejoin="round" stroke-width="0.25"/>
    <path id="Path_12833" data-name="Path 12833" d="M379.808,372a12.811,12.811,0,0,1-1.658,2.64" transform="translate(-375.109 -355.509)" fill="none" stroke="#263238" stroke-linecap="round" stroke-linejoin="round" stroke-width="0.25"/>
    <path id="Path_12834" data-name="Path 12834" d="M391,364.138c.232-.517.35-.858.35-.858a1.42,1.42,0,0,0,.846.094,1.606,1.606,0,0,1,.752-.016" transform="translate(-386.122 -348.035)" fill="none" stroke="#263238" stroke-linecap="round" stroke-linejoin="round" stroke-width="0.25"/>
    <path id="Path_12835" data-name="Path 12835" d="M377.06,361.89s1.683.835,1.573.929" transform="translate(-374.175 -346.844)" fill="none" stroke="#263238" stroke-linecap="round" stroke-linejoin="round" stroke-width="0.25"/>
    <path id="Path_12836" data-name="Path 12836" d="M394.26,371.93a3.881,3.881,0,0,1,1.238.839" transform="translate(-388.916 -355.449)" fill="none" stroke="#263238" stroke-linecap="round" stroke-linejoin="round" stroke-width="0.25"/>
    <path id="Path_12837" data-name="Path 12837" d="M371.455,375.147a6.6,6.6,0,0,0-1.287-.091,4.16,4.16,0,0,0-1.278.217" transform="translate(-367.173 -358.126)" fill="none" stroke="#263238" stroke-linecap="round" stroke-linejoin="round" stroke-width="0.25"/>
    <path id="Path_12838" data-name="Path 12838" d="M388.24,379.39s.882.572.865,1.287" transform="translate(-383.757 -361.842)" fill="none" stroke="#263238" stroke-linecap="round" stroke-linejoin="round" stroke-width="0.25"/>
    <path id="Path_12839" data-name="Path 12839" d="M362.03,294.758s-.658.479-1.076,0,.179-1.43-.419-1.794-1.555.3-1.555.3.775.184.775.6-.359.6-.419.417-.479-1.076-1.078-.658a1.542,1.542,0,0,0-.658,1.018s1.43-.24,1.555.3-.6-.06-1.2-.06-1.136.12-1.076.479a4.693,4.693,0,0,1,0,.956,1.779,1.779,0,0,1,1.136-.477c.658,0,.658.419.06.419a1.637,1.637,0,0,0-1.078.6,5.02,5.02,0,0,0,1.324,1.312c.715.415.958.239,1.018-.12s-.18-1.257.239-1.257-.6,1.615-.06,1.675.958-.12,1.078-.479l.119-.359a4.7,4.7,0,0,1-.179-1.257c.06-.359.179,0,.3.419s.239,1.437.419,1.377a3.551,3.551,0,0,0,.838-1.136c.123-.3-.838-1.144-.838-1.317s.715.12.838.3a4.542,4.542,0,0,1,.239.419,1.253,1.253,0,0,0,.359-1.137C362.632,294.455,362.03,294.758,362.03,294.758Z" transform="translate(-356.878 -287.678)" fill="#fbe551"/>
    <path id="Path_12840" data-name="Path 12840" d="M369.47,310.851a8.875,8.875,0,0,1,1.557-1.751" transform="translate(-367.67 -301.6)" fill="none" stroke="#263238" stroke-linecap="round" stroke-linejoin="round" stroke-width="0.25"/>
    <path id="Path_12841" data-name="Path 12841" d="M366.13,323.766s.106-.166.277-.416" transform="translate(-364.807 -313.813)" fill="none" stroke="#263238" stroke-linecap="round" stroke-linejoin="round" stroke-width="0.25"/>
    <path id="Path_12842" data-name="Path 12842" d="M382.46,309.94a4.993,4.993,0,0,1,.9,1.858" transform="translate(-378.803 -302.32)" fill="none" stroke="#263238" stroke-linecap="round" stroke-linejoin="round" stroke-width="0.25"/>
    <path id="Path_12843" data-name="Path 12843" d="M377.43,314.1s.18-.119.18,1.078" transform="translate(-374.492 -305.883)" fill="none" stroke="#263238" stroke-linecap="round" stroke-linejoin="round" stroke-width="0.25"/>
    <path id="Path_12844" data-name="Path 12844" d="M380.36,300.076a.962.962,0,0,0,.12-1.016" transform="translate(-377.003 -292.996)" fill="none" stroke="#263238" stroke-linecap="round" stroke-linejoin="round" stroke-width="0.25"/>
    <line id="Line_501" data-name="Line 501" x1="0.3" y1="0.479" transform="translate(2.579 7.201)" fill="none" stroke="#263238" stroke-linecap="round" stroke-linejoin="round" stroke-width="0.25"/>
    <path id="Path_12845" data-name="Path 12845" d="M364.68,310.538a3.725,3.725,0,0,0-1.43-.6" transform="translate(-362.339 -302.32)" fill="none" stroke="#263238" stroke-linecap="round" stroke-linejoin="round" stroke-width="0.25"/>
    <rect id="Rectangle_1704" data-name="Rectangle 1704" width="4.625" height="6.657" transform="translate(6.569 20.485)" fill="#263238" stroke="#263238" stroke-linecap="round" stroke-linejoin="round" stroke-width="0.25"/>
  </g>
  <g id="freepik--Character--inject-12" transform="translate(16.363 2.305)">
    <path id="Path_12846" data-name="Path 12846" d="M311.146,319.623l1.144,17.243h-.429L310.67,319.33Z" transform="translate(-285.194 -281.089)" fill="#263238" stroke="#263238" stroke-width="0.25"/>
    <path id="Path_12847" data-name="Path 12847" d="M206.719,210.5a34.7,34.7,0,0,1,3.527,3.335c1.524,1.715,2.81,4.384,2.477,4.717s-6.1,7.862-6.337,8.53.619,1.715,1.048,2.477,1.525,1.382,1.334,1.668a1.493,1.493,0,0,1-1.62.286,14.156,14.156,0,0,1-2.812-1.62c-.477-.333-1.381-.763-1.191-1.43a7.678,7.678,0,0,1,1.334-1.907s.668-2.953.763-3.811a11.379,11.379,0,0,1,1.238-3.527,5.324,5.324,0,0,0,.668-1s-3.049-.619-4.432-1.906A7.227,7.227,0,0,1,200,210.978c0-2.383,2.62-2.525,4.146-2.334A4.253,4.253,0,0,1,206.719,210.5Z" transform="translate(-190.345 -186.175)" fill="#263238" stroke="#263238" stroke-width="0.25"/>
    <path id="Path_12848" data-name="Path 12848" d="M225.8,325.273a6.433,6.433,0,0,1-2.31-.833c-.164.772-.31,1.414-.31,1.414a7.649,7.649,0,0,0-1.334,1.907c-.19.668.715,1.1,1.191,1.43a14.047,14.047,0,0,0,2.812,1.62,1.493,1.493,0,0,0,1.62-.286c.19-.286-.9-.9-1.334-1.668s-1.287-1.81-1.048-2.477A8.589,8.589,0,0,1,225.8,325.273Z" transform="translate(-209.045 -285.468)" fill="#fff" stroke="#263238" stroke-width="0.25"/>
    <path id="Path_12849" data-name="Path 12849" d="M226.134,338.335a7.305,7.305,0,0,1-1.081-2.11c-.173.029-.37.079-.4.157a1.555,1.555,0,0,1-.192.333l-1.43-1.215a6.167,6.167,0,0,0-1.191,1.74c-.19.666.715,1.1,1.191,1.43a14.045,14.045,0,0,0,2.812,1.62,1.493,1.493,0,0,0,1.62-.286C227.657,339.717,226.562,339.1,226.134,338.335Z" transform="translate(-209.045 -294.947)" fill="#fff" stroke="#263238" stroke-width="0.25"/>
    <path id="Path_12850" data-name="Path 12850" d="M193.391,81a5.474,5.474,0,0,1-2.366,1.144c-1.55.367-3.763,1.016-3.924,2.159s1.1,1.755.367,2.163-2.449,1.47-1.918,2.53,2.123,2.409,4.289.409,1.468-2.775,2.407-3.1.858-1.673.693-2.816a2.072,2.072,0,0,1,.738-1.836S194,81.12,193.391,81Z" transform="translate(-177.875 -76.829)" fill="#263238" stroke="#263238" stroke-width="0.25"/>
    <path id="Path_12851" data-name="Path 12851" d="M275.219,135.712s1.265-.653,1.633-.858a1.94,1.94,0,0,1,1.144.041l.326.122-1.347,1.8-2.395.2s-1.73.044-3.607-.079a10.909,10.909,0,0,1-5.254-2.273,15.881,15.881,0,0,1-1.069-2.457s.122-5.755.122-6.407V124.08a6.033,6.033,0,0,1,2,2.489A59.212,59.212,0,0,1,268,132.463a10.536,10.536,0,0,0,2.736,2.144A11.932,11.932,0,0,0,275.219,135.712Z" transform="translate(-245.753 -113.751)" fill="#fff" stroke="#263238" stroke-width="0.25"/>
    <path id="Path_12852" data-name="Path 12852" d="M151.665,286.661l-.535-1a16.467,16.467,0,0,0,7.528-8.72l-5.374-16.332,1.086-.357,5.488,16.681-.051.172A17.344,17.344,0,0,1,151.665,286.661Z" transform="translate(-148.461 -230.455)" fill="#ccc" stroke="#263238" stroke-width="0.25"/>
    <path id="Path_12853" data-name="Path 12853" d="M149.3,286.661l-.536-1a16.46,16.46,0,0,0,7.528-8.72l-5.372-16.332L152,260.25l5.488,16.681-.051.172A17.336,17.336,0,0,1,149.3,286.661Z" transform="translate(-146.43 -230.455)" fill="#ccc" stroke="#263238" stroke-width="0.25"/>
    <path id="Path_12854" data-name="Path 12854" d="M152.155,250.512s-2.931-.286-3.431.214a1.444,1.444,0,0,0,.357,2.073c.715.429,5.718,0,5.718,0s.429.214.429-.429-1-.715-1.5-1.215A2.263,2.263,0,0,0,152.155,250.512Z" transform="translate(-146.145 -222.039)" fill="#fec83e" stroke="#263238" stroke-width="0.25"/>
    <path id="Path_12855" data-name="Path 12855" d="M289.44,165.786a2.889,2.889,0,0,1-1.277-.179,1.693,1.693,0,0,1-.779-1.048,1.656,1.656,0,0,1,.343-1.267,12.891,12.891,0,0,1,2.43-1.99,15.964,15.964,0,0,0,2.416-1.953,27.964,27.964,0,0,0,.69-3.92.572.572,0,0,1,1.135.143,28.927,28.927,0,0,1-.775,4.233c-.214.509-1.016,1.129-2.793,2.43a16.87,16.87,0,0,0-2.163,1.715.623.623,0,0,0-.154.4c.014.079.094.17.239.273a22.408,22.408,0,0,0,4.432-.326,8.657,8.657,0,0,0,3.507-3.026,26.351,26.351,0,0,0,.981-5.787c.019-.186.033-.307.039-.349a.572.572,0,1,1,1.132.162c0,.037-.017.143-.033.306a28.643,28.643,0,0,1-1.072,6.13,9.557,9.557,0,0,1-4.247,3.665A26.933,26.933,0,0,1,289.44,165.786Zm-.642-1.131Zm-.086-.043" transform="translate(-265.218 -139.946)" fill="#263238" stroke="#263238" stroke-width="0.25"/>
    <path id="Path_12856" data-name="Path 12856" d="M352.69,200s-1.225,1.837-1.061,2,.53.081.693,0,1.061-1.144,1.021-1.633-.49-.286-.49-.286" transform="translate(-320.285 -178.817)" fill="#fff" stroke="#263238" stroke-width="0.25"/>
    <path id="Path_12857" data-name="Path 12857" d="M342.215,203.166l.9-.286a2.288,2.288,0,0,1,.613.326c.163.163.652.409.326.572s-.858-.2-.858-.2a3.332,3.332,0,0,1-.938.449,2.794,2.794,0,0,1-.816-.081" transform="translate(-311.565 -181.286)" fill="#fff" stroke="#263238" stroke-width="0.25"/>
    <ellipse id="Ellipse_123" data-name="Ellipse 123" cx="7.291" cy="7.291" rx="7.291" ry="7.291" transform="translate(18.614 39.767)" fill="#fff" stroke="#263238" stroke-width="0.25"/>
    <path id="Path_12858" data-name="Path 12858" d="M281.376,343.33a5.385,5.385,0,1,0,5.384,5.385,5.385,5.385,0,0,0-5.384-5.385Zm0,10.293a4.908,4.908,0,1,1,4.908-4.908A4.908,4.908,0,0,1,281.376,353.623Z" transform="translate(-255.472 -301.658)" fill="#fbe551" stroke="#263238" stroke-width="0.25"/>
    <rect id="Rectangle_1705" data-name="Rectangle 1705" width="0.475" height="1.561" transform="translate(19.571 36.346) rotate(-35.76)" fill="#fff" stroke="#263238" stroke-width="0.25"/>
    <rect id="Rectangle_1706" data-name="Rectangle 1706" width="1.52" height="1.076" transform="translate(18.785 36.143) rotate(-35.76)" fill="#fec83e" stroke="#263238" stroke-width="0.25"/>
    <path id="Path_12859" data-name="Path 12859" d="M230.646,304.006a34.15,34.15,0,0,1,4.313-3.67c2.364-1.623,5.968-4.01,6-4.034l-.868-1.3c-.036.024-3.651,2.419-6.025,4.048a38.865,38.865,0,0,0-5.269,4.589Z" transform="translate(-215.028 -260.237)" fill="#ccc" stroke="#263238" stroke-width="0.25"/>
    <path id="Path_12860" data-name="Path 12860" d="M227.5,302.8a34.157,34.157,0,0,1,4.313-3.67c2.364-1.623,5.968-4.01,6-4.034l-.868-1.311c-.036.024-3.651,2.419-6.025,4.048a38.869,38.869,0,0,0-5.269,4.589Z" transform="translate(-212.328 -259.2)" fill="#ccc" stroke="#263238" stroke-width="0.25"/>
    <path id="Path_12861" data-name="Path 12861" d="M200.07,357.577l-.207-3.236-13.438-2.746h0a4,4,0,1,0-.222,7.862h0Zm-11.046-3.632,5.082,1.081v1.342l-5.092.715a3.808,3.808,0,0,0,.01-3.145Z" transform="translate(-174.547 -308.662)" fill="#fbe551" stroke="#263238" stroke-width="0.25"/>
    <path id="Path_12862" data-name="Path 12862" d="M199.241,355.718l-.206-3.238L185.6,349.736h0a3.958,3.958,0,0,0-.869-.1,4,4,0,1,0,.646,7.953h0ZM188.2,352.086l5.082,1.081v1.342l-5.092.715a3.79,3.79,0,0,0,.01-3.145Z" transform="translate(-173.824 -307.066)" fill="#fec83e" stroke="#263238" stroke-width="0.25"/>
    <ellipse id="Ellipse_124" data-name="Ellipse 124" cx="1.43" cy="1.43" rx="1.43" ry="1.43" transform="translate(9.584 45.413)" fill="#263238" stroke="#263238" stroke-width="0.25"/>
    <path id="Path_12863" data-name="Path 12863" d="M161.012,375.316l-.1-.563-5.309.985-.342-1.448-1.884.44a.663.663,0,0,0-.49.8l.572,2.393a.663.663,0,0,0,.8.495l1.887-.44-.4-1.683Z" transform="translate(-149.947 -328.192)" fill="#263238" stroke="#263238" stroke-width="0.25"/>
    <path id="Path_12864" data-name="Path 12864" d="M166.672,128.99s.409-1.225.572-1.918,1.021-3.672,1.021-3.672.326-.081.775-.244a3.066,3.066,0,0,0,1.593-2.53c.041-1.387-.776-3.431-.776-4.612s-.286-1.8-1.061-2.163-3.591-1.47-3.591-1.47A6.69,6.69,0,0,0,161.7,113.9c-1.144,1.232-1.388,4.652-1.307,5.059a7.494,7.494,0,0,1-1.022,2.8c-.327.362-2.776,1.633-3.755,3.265a6.692,6.692,0,0,0-1.061,4.938c.326,1.837,1.837,3.8,1.958,4.326s1.552,4.362,2.327,5.055a13.978,13.978,0,0,0-2,3.288,44.1,44.1,0,0,1-2.04,5.415c-.367.489-1.428,1.59-1.633,1.876s.939,1.837,1.184,2.49a4,4,0,0,0,2.244,1.47c.367,0,.695-.246.613-.653s-.572-2.123-.776-2.9a1.6,1.6,0,0,1,.286-1.347,44.537,44.537,0,0,1,3.171-3.828,33.039,33.039,0,0,0,2.859-3.717,5.674,5.674,0,0,0,.745-2.9c.081-.735-.2-6.163-.244-6.29s-.123-.449-.123-.449l1.305-.695" transform="translate(-150.184 -103.723)" fill="#263238" stroke="#263238" stroke-width="0.25"/>
    <path id="Path_12865" data-name="Path 12865" d="M157.545,354.257a4.655,4.655,0,0,1-2.144-1.137,7.457,7.457,0,0,1-.572,1.252c-.367.49-1.43,1.593-1.633,1.877s.939,1.837,1.184,2.49a4,4,0,0,0,2.244,1.47c.367,0,.695-.246.613-.653s-.572-2.123-.776-2.9a1.6,1.6,0,0,1,.286-1.347C156.758,355.266,157.091,354.827,157.545,354.257Z" transform="translate(-150.211 -310.048)" fill="#fff" stroke="#263238" stroke-width="0.25"/>
    <path id="Path_12866" data-name="Path 12866" d="M157.207,370.226c-.083-.409-.572-2.123-.776-2.9a1.414,1.414,0,0,1,.057-.934c-.027-.19-.1-.465-.317-.525-.333-.1-1.144.572-1.144.572l-.669-.872c-.456.519-1.045,1.144-1.192,1.349-.2.286.939,1.837,1.184,2.49a4,4,0,0,0,2.244,1.47C156.961,370.879,157.289,370.635,157.207,370.226Z" transform="translate(-150.185 -320.719)" fill="#fff" stroke="#263238" stroke-width="0.25"/>
    <path id="Path_12867" data-name="Path 12867" d="M191.95,116.012c0-1.184-.286-1.8-1.061-2.163s-3.591-1.47-3.591-1.47a6.69,6.69,0,0,0-3.507,1.518c-1.144,1.232-1.388,4.652-1.307,5.059a7.494,7.494,0,0,1-1.022,2.8c-.227.254-1.474.941-2.543,1.883.938,1.179,3.357,3.873,6.206,4.354a9.4,9.4,0,0,0,4.031-.257c.07-.24.136-.479.182-.675.163-.693,1.021-3.672,1.021-3.672s.326-.081.775-.244a3.066,3.066,0,0,0,1.593-2.53C192.768,119.232,191.95,117.2,191.95,116.012Z" transform="translate(-172.278 -103.723)" fill="#fec83e" stroke="#263238" stroke-width="0.25"/>
    <path id="Path_12868" data-name="Path 12868" d="M208.82,193.41a3.263,3.263,0,0,0,.536.249" transform="translate(-197.904 -173.17)" fill="#fbe551" stroke="#263238" stroke-width="0.25"/>
    <path id="Path_12869" data-name="Path 12869" d="M199.72,181.16a2.732,2.732,0,0,0,.926,1.487" transform="translate(-190.105 -162.671)" fill="#fbe551" stroke="#263238" stroke-width="0.25"/>
    <path id="Path_12870" data-name="Path 12870" d="M205.15,162.89a1.92,1.92,0,0,0,.816.9" transform="translate(-194.759 -147.013)" fill="#fbe551" stroke="#263238" stroke-width="0.25"/>
    <path id="Path_12871" data-name="Path 12871" d="M304.592,213.609a.715.715,0,0,0-.984.232L302,216.451l.286,12.507a.7.7,0,0,0,.1.339l.9,16.87H304l-.818-16.537a.715.715,0,0,0,.532-.706l-.286-12.081,1.389-2.25A.715.715,0,0,0,304.592,213.609Z" transform="translate(-277.764 -190.389)" fill="#ccc" stroke="#263238" stroke-width="0.25"/>
    <path id="Path_12872" data-name="Path 12872" d="M141.476,437.73h-8.043a.7.7,0,0,0-.7.7v.552h9.355v-.645a.609.609,0,0,0-.609-.61Z" transform="translate(-132.691 -382.563)" fill="#ccc" stroke="#263238" stroke-width="0.25"/>
    <path id="Path_12873" data-name="Path 12873" d="M198.412,441.59H176.56l.477.7H199.02v-.1A.608.608,0,0,0,198.412,441.59Z" transform="translate(-170.256 -385.871)" fill="#ccc" stroke="#263238" stroke-width="0.25"/>
    <path id="Path_12874" data-name="Path 12874" d="M281.593,437.73h7.472a.609.609,0,0,1,.609.609v.646H280.89v-.552A.7.7,0,0,1,281.593,437.73Z" transform="translate(-259.671 -382.563)" fill="#ccc" stroke="#263238" stroke-width="0.25"/>
    <path id="Path_12875" data-name="Path 12875" d="M279.726,437.73h1.9a.609.609,0,0,1,.609.609v.646H279v-.532a.722.722,0,0,1,.726-.723Z" transform="translate(-258.052 -382.563)" fill="#263238" stroke="#263238" stroke-width="0.25"/>
    <path id="Path_12876" data-name="Path 12876" d="M133.183,437.73h1.9a.609.609,0,0,1,.609.609v.646H132.46v-.532a.722.722,0,0,1,.723-.723Z" transform="translate(-132.46 -382.563)" fill="#263238" stroke="#263238" stroke-width="0.25"/>
    <path id="Path_12877" data-name="Path 12877" d="M212.823,126.179a22.394,22.394,0,0,0-.816-4.289c-.653-2.121-1.021-3.631-2.163-3.55s-2.775,1.633-2.49,4.529a11.3,11.3,0,0,0,2.612,6.081c.816.9,3.551,2.163,4.939,2.653a17.09,17.09,0,0,0,3.468.815,1.56,1.56,0,0,0,.53-.081l1.591-.693s.449.326.409.49.407.326.49.163,1.1-.939,1.1-1.388-.775-1.184-1.1-1.265a12.956,12.956,0,0,0-2.612,1.43,29.579,29.579,0,0,1-4.2-2.693,16.419,16.419,0,0,1-1.754-2.2Z" transform="translate(-196.619 -108.829)" fill="#fff" stroke="#263238" stroke-width="0.25"/>
    <path id="Path_12878" data-name="Path 12878" d="M296.33,206.833s.735-.409,1.062-.041a2.573,2.573,0,0,1,.449,1.061" transform="translate(-272.904 -184.507)" fill="none" stroke="#263238" stroke-width="0.25"/>
    <path id="Path_12879" data-name="Path 12879" d="M300.62,203.566a1.169,1.169,0,0,1,.775,0c.286.163.49,1.1.49,1.1" transform="translate(-276.581 -181.811)" fill="none" stroke="#263238" stroke-width="0.25"/>
    <path id="Path_12880" data-name="Path 12880" d="M304,200.59s.735.2.9.53a2.467,2.467,0,0,1,.2.735" transform="translate(-279.478 -179.323)" fill="none" stroke="#263238" stroke-width="0.25"/>
    <path id="Path_12881" data-name="Path 12881" d="M242.538,64.226a14.832,14.832,0,0,1,.53,2,3.769,3.769,0,0,1-.244.858,5.956,5.956,0,0,0,.367.858s.449.612.081.816-.49.286-.49.286-.367,1.8-.775,1.958a6.4,6.4,0,0,1-1.43.2,7.364,7.364,0,0,0-.981,1.175c-.244.449.653,2.04-.163,3.224s-1.755,1.061-2.612-.326-.858-2.979-1.144-3.431a7.737,7.737,0,0,0-.449-.653s1.111-.4,1.309-1.261a5.6,5.6,0,0,0,0-3.061c-.366-1.184.53-1.633,2.447-2.367A6.2,6.2,0,0,1,242.538,64.226Z" transform="translate(-220.539 -62.333)" fill="#fff" stroke="#263238" stroke-width="0.25"/>
    <path id="Path_12882" data-name="Path 12882" d="M278.479,80.035s-.449-.619-.979.239" transform="translate(-256.766 -75.817)" fill="none" stroke="#263238" stroke-width="0.25"/>
    <path id="Path_12883" data-name="Path 12883" d="M281.206,85.526c0,.134-.063.244-.143.244s-.143-.11-.143-.244.063-.246.143-.246S281.206,85.4,281.206,85.526Z" transform="translate(-259.697 -80.497)" fill="#263238"/>
    <path id="Path_12884" data-name="Path 12884" d="M275.79,98.17a1.582,1.582,0,0,0,.938.449" transform="translate(-255.3 -91.544)" fill="none" stroke="#263238" stroke-width="0.25"/>
    <path id="Path_12885" data-name="Path 12885" d="M240.022,58.653s.612-.041.733-.449,1.1-1.755,1.225-1.674.693.286.858,0a1.276,1.276,0,0,0,.163-.572s1.878-.9,2.653-1.307.979-1.021.53-1.958-3.061-1.144-4.815-.49-1.634.971-1.96,2.154S239.49,58.2,240.022,58.653Z" transform="translate(-224.021 -51.823)" fill="#263238" stroke="#263238" stroke-width="0.25"/>
    <path id="Path_12886" data-name="Path 12886" d="M251.469,81.31s-.613-1.184-1.144-.693a1.279,1.279,0,0,0,.081,1.715,1.3,1.3,0,0,0,.735.081,1.766,1.766,0,0,0,.612,1.715" transform="translate(-233.224 -76.398)" fill="#fff" stroke="#263238" stroke-width="0.25"/>
  </g>
  <g id="freepik--Floor--inject-12" transform="translate(0 58.727)">
    <line id="Line_502" data-name="Line 502" x1="1.725" fill="#fbe551" stroke="#263238" stroke-width="1"/>
    <line id="Line_503" data-name="Line 503" x1="63.031" transform="translate(2.728)" fill="#fbe551" stroke="#263238" stroke-width="1"/>
  </g>
</svg>
