<svg id="Group_79" data-name="Group 79" xmlns="http://www.w3.org/2000/svg" xmlns:xlink="http://www.w3.org/1999/xlink" width="77.526" height="63.467" viewBox="0 0 77.526 63.467">
  <defs>
    <clipPath id="clip-path">
      <rect id="Rectangle_54" data-name="Rectangle 54" width="77.526" height="63.467" fill="none" stroke="#707070" stroke-width="0.25"/>
    </clipPath>
  </defs>
  <g id="Group_78" data-name="Group 78" clip-path="url(#clip-path)">
    <path id="Path_5139" data-name="Path 5139" d="M968.269,259.37s-2.81,8.214-4.1,9.773-5.821,3.862-5.86,4.068c-.094.489.281,1.253.7,1.255a11,11,0,0,0,5.971-2.491c1.5-1.434,3.863-9.625,3.863-9.625Z" transform="translate(-910.384 -246.403)" fill="#fff" stroke="#707070" stroke-width="0.25"/>
    <path id="Path_5140" data-name="Path 5140" d="M968.269,259.37s-2.81,8.214-4.1,9.773-5.821,3.862-5.86,4.068c-.094.489.281,1.253.7,1.255a11,11,0,0,0,5.971-2.491c1.5-1.434,3.863-9.625,3.863-9.625Z" transform="translate(-910.384 -246.403)" fill="none" stroke="#000" stroke-width="0.25"/>
    <path id="Path_5141" data-name="Path 5141" d="M21.477,104.017a6.45,6.45,0,0,0-.052-1.19,4.188,4.188,0,0,1-1.546,2.065.851.851,0,0,1-.324.036,4.761,4.761,0,0,1-.714-.234,9.227,9.227,0,0,0,1.353-1.379,6.741,6.741,0,0,1-1.831,1.15,7.326,7.326,0,0,1-2.55-2.5,6.69,6.69,0,0,0,4.118-3c-2.828,2.258-4.08,2.367-4.519,2.289l-.008-.017c4.254-1.127,5.433-6.1,6.868-7.841a2.262,2.262,0,0,1,3.178-.41,21.035,21.035,0,0,1-3.971,11.03" transform="translate(-14.633 -87.875)" stroke="#707070" stroke-width="0.25"/>
    <path id="Path_5142" data-name="Path 5142" d="M246.1,293.753s2.781,1.477,2.55,2.8a68.151,68.151,0,0,1-1.917,6.709l4.523-2.253.809.976s-5.492,5.484-7.427,4.224,1.463-12.456,1.463-12.456" transform="translate(-231.838 -279.067)" fill="#fff" stroke="#707070" stroke-width="0.25"/>
    <path id="Path_5143" data-name="Path 5143" d="M246.1,293.753s2.781,1.477,2.55,2.8a68.151,68.151,0,0,1-1.917,6.709l4.523-2.253.809.976s-5.492,5.484-7.427,4.224S246.1,293.753,246.1,293.753Z" transform="translate(-231.838 -279.067)" fill="none" stroke="#000" stroke-width="0.25"/>
    <path id="Path_5144" data-name="Path 5144" d="M177.345,92.518s-3.049-3.665-4.664-1.32a3.376,3.376,0,0,0-1.64,2.55c-.444,2.092.946,3.682,1.666,3.289.461-.252.81.555.81.555Z" transform="translate(-162.408 -85.894)" stroke="#707070" stroke-width="0.25"/>
    <path id="Path_5145" data-name="Path 5145" d="M207.78,227.943a3.216,3.216,0,0,1-1.973.36c-.8-.218-1.817-.487-1.806-.49.339-.067.929-1.3.922-3.308l.153.03,2.58.511s-.059.812-.06,1.577c0,.642.037,1.251.184,1.32" transform="translate(-193.802 -213.281)" fill="#fff" stroke="#707070" stroke-width="0.25"/>
    <path id="Path_5146" data-name="Path 5146" d="M207.78,227.943a3.216,3.216,0,0,1-1.973.36c-.8-.218-1.817-.487-1.806-.49.339-.067.929-1.3.922-3.308l.153.03,2.58.511s-.059.812-.06,1.577C207.594,227.265,207.633,227.874,207.78,227.943Z" transform="translate(-193.802 -213.281)" fill="none" stroke="#000" stroke-width="0.25"/>
    <path id="Path_5147" data-name="Path 5147" d="M228.1,225.62s-.059.812-.06,1.577a3.061,3.061,0,0,1-2.519-2.088Z" transform="translate(-214.241 -213.855)" fill="#fff" stroke="#707070" stroke-width="0.25"/>
    <path id="Path_5148" data-name="Path 5148" d="M228.1,225.62s-.059.812-.06,1.577a3.061,3.061,0,0,1-2.519-2.088Z" transform="translate(-214.241 -213.855)" fill="none" stroke="#000" stroke-width="0.25"/>
    <path id="Path_5149" data-name="Path 5149" d="M201.941,118.767a7.586,7.586,0,0,1-.938-2.217c-.13-.73.242-3.435,2.96-3.045a3.693,3.693,0,0,1,1.531.579c.59.4,1.442,1.259.49,3.619l-.247.8Z" transform="translate(-190.933 -107.793)" fill="#fec83e" stroke="#707070" stroke-width="0.25"/>
    <path id="Path_5150" data-name="Path 5150" d="M221.085,140.3s-3.416.056-3.418-2.071-.445-3.553,1.736-3.679,2.605.685,2.779,1.4-.208,4.285-1.1,4.355" transform="translate(-206.748 -127.807)" fill="#fff" stroke="#707070" stroke-width="0.25"/>
    <path id="Path_5151" data-name="Path 5151" d="M221.085,140.3s-3.416.056-3.418-2.071-.445-3.553,1.736-3.679,2.605.685,2.779,1.4S221.973,140.227,221.085,140.3Z" transform="translate(-206.748 -127.807)" fill="none" stroke="#000" stroke-width="0.25"/>
    <path id="Path_5152" data-name="Path 5152" d="M139.539,306.067c1.2-2.686,1.771-3.446,1.791-4.291a7.472,7.472,0,0,0-.062-1,13.887,13.887,0,0,0-.365-1.9h0l-.006-.022c-.015-.062-.047-.2-.087-.4-.327-1.62-1.2-7.282,1.933-8.467l.093-.008a32.56,32.56,0,0,1,3.972.171,15.538,15.538,0,0,1,1.009,1.668,10.849,10.849,0,0,1,1.323,4.1c.1,1.495-.408,2.534-.626,4.04a11.647,11.647,0,0,0,.6,5.463c1.773,5.671-10.232,2.129-9.571.645" transform="translate(-132.538 -275.466)" fill="#fff" stroke="#707070" stroke-width="0.25"/>
    <path id="Path_5153" data-name="Path 5153" d="M139.539,306.067c1.2-2.686,1.771-3.446,1.791-4.291a7.472,7.472,0,0,0-.062-1,13.887,13.887,0,0,0-.365-1.9h0l-.006-.022c-.015-.062-.047-.2-.087-.4-.327-1.62-1.2-7.282,1.933-8.467l.093-.008a32.56,32.56,0,0,1,3.972.171,15.538,15.538,0,0,1,1.009,1.668,10.849,10.849,0,0,1,1.323,4.1c.1,1.495-.408,2.534-.626,4.04a11.647,11.647,0,0,0,.6,5.463C150.883,311.092,138.877,307.551,139.539,306.067Z" transform="translate(-132.538 -275.466)" fill="none" stroke="#000" stroke-width="0.25"/>
    <path id="Path_5154" data-name="Path 5154" d="M201.212,123.948c-.527-.639-.926-.5-1.149-.308a.823.823,0,0,0-.275-.26,2.1,2.1,0,0,0-2.8.752,4.064,4.064,0,0,1-1.329,2.4,2.826,2.826,0,0,0,2.058.015,2.439,2.439,0,0,0,1.162-.8,7.97,7.97,0,0,1-1.371,1.674c1.714-.792,2.4-3.177,2.471-3.429a2.676,2.676,0,0,1,.745.993c.17.542.247,1.657.572,1.619,0,0,.7-1.7-.087-2.656" transform="translate(-185.88 -116.997)" stroke="#707070" stroke-width="0.25"/>
    <path id="Path_5155" data-name="Path 5155" d="M173.159,444.958s-4.547,1.3-7.247.814a13.888,13.888,0,0,0-.365-1.9h0l-.006-.022c-.015-.062-.047-.2-.087-.4a12.713,12.713,0,0,1,1.877-.865Z" transform="translate(-157.182 -420.466)" fill="#fff" stroke="#707070" stroke-width="0.25"/>
    <path id="Path_5156" data-name="Path 5156" d="M173.159,444.958s-4.547,1.3-7.247.814a13.888,13.888,0,0,0-.365-1.9h0l-.006-.022c-.015-.062-.047-.2-.087-.4a12.713,12.713,0,0,1,1.877-.865Z" transform="translate(-157.182 -420.466)" fill="none" stroke="#000" stroke-width="0.25"/>
    <path id="Path_5157" data-name="Path 5157" d="M220.433,298.731a15.544,15.544,0,0,0,4.066,1.3c1.333.034-2.99,1.11-4.066-1.3" transform="translate(-209.412 -283.796)" fill="#fff" stroke="#707070" stroke-width="0.25"/>
    <path id="Path_5158" data-name="Path 5158" d="M220.433,298.731a15.544,15.544,0,0,0,4.066,1.3C225.832,300.064,221.509,301.14,220.433,298.731Z" transform="translate(-209.412 -283.796)" fill="none" stroke="#000" stroke-width="0.25"/>
    <path id="Path_5159" data-name="Path 5159" d="M166.849,297.513c-.113.988-.436,1.852-.6,2.977a17.821,17.821,0,0,1-7.612-1.082h0l-.006-.022c-.143-.574-1.667-7.534,1.846-8.864a3.464,3.464,0,0,1,1.4.889,4.644,4.644,0,0,0,3.669.942,13.013,13.013,0,0,1,1.1,2.749,7.359,7.359,0,0,1,.225,1.348,5.883,5.883,0,0,1-.028,1.063" transform="translate(-150.275 -275.997)" fill="#fec83e" stroke="#707070" stroke-width="0.25"/>
    <path id="Path_5160" data-name="Path 5160" d="M279.594,293.211a2.7,2.7,0,0,1,1.057.137,12.6,12.6,0,0,1,1.623,1.9,9.765,9.765,0,0,0-1.76-.034s.585-.342-.92-2" transform="translate(-265.616 -278.549)" fill="#fec83e" stroke="#707070" stroke-width="0.25"/>
    <path id="Path_5161" data-name="Path 5161" d="M212.758,619.972l-1.208-.368s-5.794-6.675-4.493-13.683a.34.34,0,0,0-.02-.219v0c-.251-.5-1.329-2.657-2.448-5.338-.536-1.284-1.081-2.688-1.549-4.085-.277-.826-.526-1.649-.731-2.445l0-.018,0-.009a11.005,11.005,0,0,1-.416-4.977l6.2-1.495s.679,2.526,1.34,5.792c.925,4.575,1.923,10.6,1.388,13.171-.475,2.278,1.945,13.675,1.945,13.675" transform="translate(-191.654 -557.97)" fill="#fff" stroke="#707070" stroke-width="0.25"/>
    <path id="Path_5162" data-name="Path 5162" d="M212.758,619.972l-1.208-.368s-5.794-6.675-4.493-13.683a.34.34,0,0,0-.02-.219v0c-.251-.5-1.329-2.657-2.448-5.338-.536-1.284-1.081-2.688-1.549-4.085-.277-.826-.526-1.649-.731-2.445l0-.018,0-.009a11.005,11.005,0,0,1-.416-4.977l6.2-1.495s.679,2.526,1.34,5.792c.925,4.575,1.923,10.6,1.388,13.171C210.338,608.575,212.758,619.972,212.758,619.972Z" transform="translate(-191.654 -557.97)" fill="none" stroke="#000" stroke-width="0.25"/>
    <path id="Path_5163" data-name="Path 5163" d="M376.064,405.02a3.359,3.359,0,0,1,.7,1.371s.7-.686.746-.7a2.987,2.987,0,0,0,.929-.759,1.032,1.032,0,0,0,.09-1.324,1.617,1.617,0,0,0-1.5-.649,11.072,11.072,0,0,0-.444,1.606s-.037.113-.522.457" transform="translate(-357.263 -382.778)" stroke="#707070" stroke-width="0.25"/>
    <path id="Path_5164" data-name="Path 5164" d="M215.247,712.253c-.536-1.284-1.081-2.688-1.549-4.085-.277-.826-.526-1.649-.731-2.445l0-.018,0-.009.474-.052,4.8-.531s.031.362.072.964c.1,1.458-1.443,3.966-3.062,6.176" transform="translate(-202.313 -669.861)" fill="#fff" stroke="#707070" stroke-width="0.25"/>
    <path id="Path_5165" data-name="Path 5165" d="M215.247,712.253c-.536-1.284-1.081-2.688-1.549-4.085-.277-.826-.526-1.649-.731-2.445l0-.018,0-.009.474-.052,4.8-.531s.031.362.072.964C218.41,707.535,216.866,710.043,215.247,712.253Z" transform="translate(-202.313 -669.861)" fill="none" stroke="#000" stroke-width="0.25"/>
    <path id="Path_5166" data-name="Path 5166" d="M24.918,586.562,22.1,592.815l-.043-.022c-1.6,4.387-3.885,10.05-5.68,11.963-1.592,1.7-5.437,12.719-5.437,12.719l-1.034-.367s-1.3-9.328,3.462-14.63a.341.341,0,0,0,.1-.2v0c.041-.512.22-2.605.6-5.186.091-.626.194-1.281.31-1.949.168-.969.361-1.966.584-2.942l.011-.048c.009-.237.049-.636.1-1.152a21.211,21.211,0,0,1,.447-2.673c.008-.031.015-.062.023-.093a11.35,11.35,0,0,1,1.366-3.485,50.322,50.322,0,0,0,5.766,1.285,5.766,5.766,0,0,1,2.242.525" transform="translate(-9.26 -555.516)" fill="#fff" stroke="#707070" stroke-width="0.25"/>
    <path id="Path_5167" data-name="Path 5167" d="M24.918,586.562,22.1,592.815l-.043-.022c-1.6,4.387-3.885,10.05-5.68,11.963-1.592,1.7-5.437,12.719-5.437,12.719l-1.034-.367s-1.3-9.328,3.462-14.63a.341.341,0,0,0,.1-.2v0c.041-.512.22-2.605.6-5.186.091-.626.194-1.281.31-1.949.168-.969.361-1.966.584-2.942l.011-.048c.009-.237.049-.636.1-1.152a21.211,21.211,0,0,1,.447-2.673c.008-.031.015-.062.023-.093a11.35,11.35,0,0,1,1.366-3.485,50.322,50.322,0,0,0,5.766,1.285A5.766,5.766,0,0,1,24.918,586.562Z" transform="translate(-9.26 -555.516)" fill="none" stroke="#000" stroke-width="0.25"/>
    <path id="Path_5168" data-name="Path 5168" d="M211.038,605.038a4.2,4.2,0,0,1-1.775,1.06l-.011,0a15.47,15.47,0,0,1-3.132.857c-.782.114-1.358.087-1.422-.164-.5-1.964-1.516-4.831-1.2-6.055l6.386-.868s.494,1.9,1.154,5.165" transform="translate(-193.267 -569.883)" stroke="#707070" stroke-width="0.25"/>
    <path id="Path_5169" data-name="Path 5169" d="M103.3,659.207c-.187.047-3.567,3.865-7.189,4.432.091-.626.194-1.281.31-1.949.168-.969.361-1.966.584-2.942l.011-.048c.009-.237.049-.636.1-1.152,1.5-1.468,3.054-2.749,3.054-2.749Z" transform="translate(-91.309 -622.063)" fill="#fff" stroke="#707070" stroke-width="0.25"/>
    <path id="Path_5170" data-name="Path 5170" d="M103.3,659.207c-.187.047-3.567,3.865-7.189,4.432.091-.626.194-1.281.31-1.949.168-.969.361-1.966.584-2.942l.011-.048c.009-.237.049-.636.1-1.152,1.5-1.468,3.054-2.749,3.054-2.749Z" transform="translate(-91.309 -622.063)" fill="none" stroke="#000" stroke-width="0.25"/>
    <path id="Path_5171" data-name="Path 5171" d="M.585,1218.786H1.3c.241-.038.419-.108.666-.14a.666.666,0,0,1,.582.14l.007.007H5.613c.077-.11,0-.364-.069-.551a.435.435,0,0,0-.286-.261,3.293,3.293,0,0,1-1.547-.707c-.329-.3-1.589-1.093-1.589-1.093H2.115c-.028,0-.159.041-.732.525-.3.25-.8-.353-.8-.353a.718.718,0,0,0-.166.224.759.759,0,0,0-.066.469,3.041,3.041,0,0,1-.219,1.133c-.071.21-.131.358-.131.358s-.034.173.584.25" transform="translate(0 -1155.376)" stroke="#707070" stroke-width="0.25"/>
    <path id="Path_5172" data-name="Path 5172" d="M8.321,1216.576a2.278,2.278,0,0,0,.774.391c.324.042.931-.786.931-.786H10.02c-.028,0-.159.041-.732.525-.3.25-.8-.353-.8-.353a.718.718,0,0,0-.166.224" transform="translate(-7.905 -1155.376)" stroke="#707070" stroke-width="0.25"/>
    <path id="Path_5173" data-name="Path 5173" d="M.585,1256.759H1.3c.241-.038.419-.108.666-.14a.666.666,0,0,1,.582.14l.007.007H5.613c.077-.11,0-.364-.069-.551-.093-.083-.119.358-.17.428a13.613,13.613,0,0,1-2.633-.077,1.474,1.474,0,0,0-1.153-.141,2.778,2.778,0,0,1-1.456-.275c-.071.209-.131.358-.131.358s-.034.173.584.25" transform="translate(0 -1193.349)" stroke="#707070" stroke-width="0.25"/>
    <path id="Path_5174" data-name="Path 5174" d="M376.772,1218.786h.719c.241-.038.419-.108.666-.14a.666.666,0,0,1,.582.14l.007.007H381.8c.077-.11,0-.364-.069-.551a.434.434,0,0,0-.286-.261,3.293,3.293,0,0,1-1.547-.707c-.329-.3-1.589-1.093-1.589-1.093H378.3c-.028,0-.159.041-.732.525-.3.25-.8-.353-.8-.353a.718.718,0,0,0-.166.224.758.758,0,0,0-.066.469,3.042,3.042,0,0,1-.219,1.133c-.071.21-.131.358-.131.358s-.034.173.584.25" transform="translate(-357.38 -1155.376)" stroke="#707070" stroke-width="0.25"/>
    <path id="Path_5175" data-name="Path 5175" d="M384.507,1216.576a2.279,2.279,0,0,0,.774.391c.324.042.931-.786.931-.786h-.007c-.028,0-.159.041-.732.525-.3.25-.8-.353-.8-.353a.718.718,0,0,0-.166.224" transform="translate(-365.284 -1155.376)" stroke="#707070" stroke-width="0.25"/>
    <path id="Path_5176" data-name="Path 5176" d="M376.772,1256.759h.719c.241-.038.419-.108.666-.14a.666.666,0,0,1,.582.14l.007.007H381.8c.077-.11,0-.364-.069-.551-.093-.083-.119.358-.17.428a13.613,13.613,0,0,1-2.633-.077,1.474,1.474,0,0,0-1.153-.141,2.778,2.778,0,0,1-1.456-.275c-.071.209-.131.358-.131.358s-.034.173.584.25" transform="translate(-357.38 -1193.349)" stroke="#707070" stroke-width="0.25"/>
    <path id="Path_5177" data-name="Path 5177" d="M185.813,384.521c-5.388-.26-7.668-2.412-7.668-2.412h7.472a7.356,7.356,0,0,1,.225,1.348,5.883,5.883,0,0,1-.028,1.063" transform="translate(-169.239 -363.006)" fill="#fec83e" stroke="#707070" stroke-width="0.25"/>
    <path id="Path_5178" data-name="Path 5178" d="M185.147,312.744a32.412,32.412,0,0,1-7.483,1.5c-2.651.065-7.235.391-9.674-.416a1.535,1.535,0,0,1-.918-.608c-.846-1.614.547-3.284.547-3.284s.787.081,1.971.194c2.989.287,6.838,1.163,8.655,1.108,2.536-.077,4.852.1,7,.171Z" transform="translate(-158.461 -294.444)" fill="#fff" stroke="#707070" stroke-width="0.25"/>
    <path id="Path_5179" data-name="Path 5179" d="M185.147,312.744a32.412,32.412,0,0,1-7.483,1.5c-2.651.065-7.235.391-9.674-.416a1.535,1.535,0,0,1-.918-.608c-.846-1.614.547-3.284.547-3.284s.787.081,1.971.194c2.989.287,6.838,1.163,8.655,1.108,2.536-.077,4.852.1,7,.171Z" transform="translate(-158.461 -294.444)" fill="none" stroke="#000" stroke-width="0.25"/>
    <path id="Path_5180" data-name="Path 5180" d="M165.552,309.6a1.594,1.594,0,0,1-.954-.632,2.673,2.673,0,0,1,.63-3.41c.406-.315,1-.083,1.986.2a5.634,5.634,0,0,0-1.661,3.841" transform="translate(-156.03 -290.142)" fill="#fec83e" stroke="#707070" stroke-width="0.25"/>
    <path id="Path_5181" data-name="Path 5181" d="M518.131,322.483a3.346,3.346,0,0,1-.212,1.6s.737-.228.8-.225a18.58,18.58,0,0,0,2.073.064c.525-.058.8-.017.85-.965s.026-1.333-.154-1.341a8.876,8.876,0,0,0-2.631.829,2.408,2.408,0,0,1-.726.034" transform="translate(-492.026 -305.54)" stroke="#707070" stroke-width="0.25"/>
    <path id="Path_5182" data-name="Path 5182" d="M235.292,665.273l-.011,0a15.461,15.461,0,0,1-3.132.857c-.651-1.045-2.409-4.137-.32-3.966,2.511.205,3.463,3.1,3.463,3.1" transform="translate(-219.297 -629.056)" stroke="#707070" stroke-width="0.25"/>
    <path id="Path_5183" data-name="Path 5183" d="M116.136,584.747s-1.6,1.925-1.941,7.4a12.047,12.047,0,0,0,2.612.3c.461-.137,1.264-2.1,1.264-2.1s-.444,1.931-.017,2.289a13.039,13.039,0,0,0,3.126.683l3.212-7.141a79.113,79.113,0,0,1-8.256-1.435" transform="translate(-108.486 -555.513)" stroke="#707070" stroke-width="0.25"/>
    <path id="Path_5184" data-name="Path 5184" d="M151.992,557.263s3.78,2.05,6.471,1.461,2.547-.773,2.547-.773l-.463-1.6a6.543,6.543,0,0,1-3.262.733,15.364,15.364,0,0,1-4.562-1.339Z" transform="translate(-144.393 -527.961)" stroke="#707070" stroke-width="0.25"/>
    <path id="Path_5185" data-name="Path 5185" d="M644.461,143.672l-3.416,43.189-.023.285a3.981,3.981,0,0,1-4.27,3.644l-7.875-.623a3.981,3.981,0,0,1-3.644-4.27l3.439-43.474a3.981,3.981,0,0,1,4.27-3.644l3.615.286,4.26.337a3.98,3.98,0,0,1,3.644,4.27" transform="translate(-593.963 -131.829)" fill="#ffe551" stroke="#707070" stroke-width="0.25"/>
    <path id="Path_5186" data-name="Path 5186" d="M594.312,1065.354v6.4a1.928,1.928,0,0,1-1.922,1.923H575.281a1.928,1.928,0,0,1-1.922-1.923v-6.4a1.928,1.928,0,0,1,1.922-1.922h17.108a1.928,1.928,0,0,1,1.922,1.922" transform="translate(-544.694 -1010.265)" fill="#a68e15" stroke="#707070" stroke-width="0.25"/>
    <path id="Path_5187" data-name="Path 5187" d="M859.235,149.343l-3.416,43.189a11.487,11.487,0,0,1-4.521-1.866s2.534-31.571,3.252-38.643c.571-5.626-2.1-6.972-3.219-7.286l4.26.337a3.98,3.98,0,0,1,3.644,4.27" transform="translate(-808.737 -137.5)" fill="#a49115" stroke="#707070" stroke-width="0.25"/>
    <path id="Path_5188" data-name="Path 5188" d="M858.355,1065.354v6.4a1.928,1.928,0,0,1-1.922,1.923H854.4l-3.106-10.25h5.135a1.928,1.928,0,0,1,1.922,1.922" transform="translate(-808.737 -1010.265)" fill="#a68e15" stroke="#707070" stroke-width="0.25"/>
    <path id="Path_5189" data-name="Path 5189" d="M1112.419,1199.446s.331,2.687-.2,2.811c-.2.048-6.278-.013-6.278-.013s0-.726.995-.887,2.743-.753,3.039-2.071,2.441.16,2.441.16" transform="translate(-1050.652 -1138.808)" fill="#233862" stroke="#707070" stroke-width="0.25"/>
    <path id="Path_5190" data-name="Path 5190" d="M1115.2,620.658c0,2.292,2.648,14.392,2.648,14.392s2.671.48,3.825-.667c0,0-.251-11.224-.652-13.611a5.218,5.218,0,0,1,.3-2.064c.989-3.416,3.868-9.211,3.207-12.647-.828-4.307-6.678.333-6.678.333s-.256,1.156-.608,2.819c-.782,3.687-2.04,9.866-2.04,11.445" transform="translate(-1059.45 -574.021)" stroke="#707070" stroke-width="0.25"/>
    <path id="Path_5191" data-name="Path 5191" d="M1156,609.212l4.079,9.5c.989-3.416,3.868-9.211,3.207-12.647-.828-4.307-6.678.333-6.678.333s-.256,1.156-.608,2.819" transform="translate(-1098.206 -574.021)" stroke="#707070" stroke-width="0.25"/>
    <path id="Path_5192" data-name="Path 5192" d="M788.119,435.195a5.959,5.959,0,0,1-2.482-.573,3.967,3.967,0,0,0-3.007-.25c-.36.276-.3.44.139.69s1.916,1.42,3.128,1.307a9.077,9.077,0,0,1,2.649.265Z" transform="translate(-743.28 -412.475)" fill="#fff" stroke="#707070" stroke-width="0.25"/>
    <path id="Path_5193" data-name="Path 5193" d="M788.119,435.195a5.959,5.959,0,0,1-2.482-.573,3.967,3.967,0,0,0-3.007-.25c-.36.276-.3.44.139.69s1.916,1.42,3.128,1.307a9.077,9.077,0,0,1,2.649.265Z" transform="translate(-743.28 -412.475)" fill="none" stroke="#000" stroke-width="0.25"/>
    <path id="Path_5194" data-name="Path 5194" d="M1456.48,1155.551s1.1,1.022.887,1.748-1.21,1.21-1.345,2.1-.672,1.371-1.156,1.371h-2.308s-.356-.624.5-.813,1.185-1.231,1.131-2.2a17.343,17.343,0,0,1,.081-2.259l1.829-.43Z" transform="translate(-1379.869 -1097.32)" fill="#233862" stroke="#707070" stroke-width="0.25"/>
    <path id="Path_5195" data-name="Path 5195" d="M1166.053,537.171s6.939,13.382,10.812,20.32,5.083,8.874,5.083,8.874,2.219-.888,2.42-1.493c0,0-1.991-11.479-5.209-15.533-1.465-1.845-1.4-7.051-1.833-9.962a34.512,34.512,0,0,0-1.59-5.3Z" transform="translate(-1107.756 -507.376)" stroke="#707070" stroke-width="0.25"/>
    <path id="Path_5196" data-name="Path 5196" d="M1089.3,95.41a5.5,5.5,0,0,0-.983,1.748c2.408-.166,5.4-3.446,5.4-3.446a5.732,5.732,0,0,1-2.978-2.413q-.093-.146-.182-.3a7.016,7.016,0,0,1-.5-1.113l-.714,1.252-1.187,2.082a15.351,15.351,0,0,0,.821,1.629q.15.265.33.565" transform="translate(-1033.744 -85.389)" fill="#fff" stroke="#707070" stroke-width="0.25"/>
    <path id="Path_5197" data-name="Path 5197" d="M1089.3,95.41a5.5,5.5,0,0,0-.983,1.748c2.408-.166,5.4-3.446,5.4-3.446a5.732,5.732,0,0,1-2.978-2.413q-.093-.146-.182-.3a7.016,7.016,0,0,1-.5-1.113l-.714,1.252-1.187,2.082a15.351,15.351,0,0,0,.821,1.629Q1089.117,95.11,1089.3,95.41Z" transform="translate(-1033.744 -85.389)" fill="none" stroke="#000" stroke-width="0.25"/>
    <path id="Path_5198" data-name="Path 5198" d="M1076.545,161.7a32.255,32.255,0,0,0,.906,4.909c.186.762.391,1.552.606,2.349.349,1.292.712,2.592,1.087,3.815l.014.044c.027.124.069.256.107.377.325,1.08.637,2.08.908,2.929.52,1.624.523,2.528.938,2.711.834.368,4.116-.027,6.083-.88,1.662-.707,4.194-2.841,4.181-3.915-.015-1.245-1.686-4.993-2.793-9.369-1.366-5.346-4.4-9.614-6.924-10.495-.189-.061-.39.335-1.123,1.039a4.1,4.1,0,0,1-2.336,1.141l-.481.8a7.941,7.941,0,0,0-1.173,4.542" transform="translate(-1022.71 -146.463)" fill="#fec83e" stroke="#707070" stroke-width="0.25"/>
    <path id="Path_5199" data-name="Path 5199" d="M1094.95,304.956c.186.762.391,1.552.606,2.349.349,1.292.712,2.592,1.087,3.815l.014.044c.027.124.069.256.107.377.325,1.08.637,2.08.908,2.929,5.256-6.677,2.275-14.673,2.275-14.673Z" transform="translate(-1040.208 -284.809)" stroke="#707070" stroke-width="0.25"/>
    <path id="Path_5200" data-name="Path 5200" d="M886.6,216.963s-4.964,11.523-8.05,11.833c-1.523.153-7.9-.8-9.729-1.173,0,0-.431.136.075-1.291,0,0,7.063-.722,8.318-1.748,1.867-1.527,1.281-7.973,3.46-9.29s5.239-1.3,5.927,1.67" transform="translate(-825.217 -203.734)" fill="#fff" stroke="#707070" stroke-width="0.25"/>
    <path id="Path_5201" data-name="Path 5201" d="M886.6,216.963s-4.964,11.523-8.05,11.833c-1.523.153-7.9-.8-9.729-1.173,0,0-.431.136.075-1.291,0,0,7.063-.722,8.318-1.748,1.867-1.527,1.281-7.973,3.46-9.29S885.908,213.99,886.6,216.963Z" transform="translate(-825.217 -203.734)" fill="none" stroke="#000" stroke-width="0.25"/>
    <path id="Path_5202" data-name="Path 5202" d="M1088.146,113.972a15.338,15.338,0,0,0,.821,1.629,4.734,4.734,0,0,0,1.766-3.546c.012-.2.006-.324.006-.324l-.187.021-1.219.138Z" transform="translate(-1033.744 -106.145)" fill="#fff" stroke="#707070" stroke-width="0.25"/>
    <path id="Path_5203" data-name="Path 5203" d="M1088.146,113.972a15.338,15.338,0,0,0,.821,1.629,4.734,4.734,0,0,0,1.766-3.546c.012-.2.006-.324.006-.324l-.187.021-1.219.138Z" transform="translate(-1033.744 -106.145)" fill="none" stroke="#000" stroke-width="0.25"/>
    <path id="Path_5204" data-name="Path 5204" d="M1030.8,31.3s3.769-.8,3.234-3.142-.41-4.019-2.839-3.606-2.691,1.413-2.7,2.237,1.313,4.659,2.307,4.51" transform="translate(-977.074 -23.264)" fill="#fff" stroke="#707070" stroke-width="0.25"/>
    <path id="Path_5205" data-name="Path 5205" d="M1030.8,31.3s3.769-.8,3.234-3.142-.41-4.019-2.839-3.606-2.691,1.413-2.7,2.237S1029.807,31.446,1030.8,31.3Z" transform="translate(-977.074 -23.264)" fill="none" stroke="#000" stroke-width="0.25"/>
    <path id="Path_5206" data-name="Path 5206" d="M1018.347,5.054a3.934,3.934,0,0,0-4.644-2.14c-2.336.542-1.724-1.828-1.586-2.22,0,0,1.814-.341,3.691-.64,3.939-.629,2.749,4.409,2.539,5" transform="translate(-961.351 0)" stroke="#707070" stroke-width="0.25"/>
    <path id="Path_5207" data-name="Path 5207" d="M1063.846,206.9s4.539,1.467,5.277,3.033l3.5-6.806-2.566-2.96-3.9,1.067s-1.681,1.05-2.315,5.666" transform="translate(-1010.659 -190.158)" fill="#fec83e" stroke="#707070" stroke-width="0.25"/>
  </g>
</svg>
