<svg xmlns="http://www.w3.org/2000/svg" xmlns:xlink="http://www.w3.org/1999/xlink" width="701" height="701" viewBox="0 0 701 701">
  <defs>
    <clipPath id="clip-path">
      <rect id="Rectangle_16" data-name="Rectangle 16" width="701" height="701" fill="none"/>
    </clipPath>
  </defs>
  <g id="Group_19" data-name="Group 19" transform="translate(0 0)" opacity="0.31">
    <g id="Group_18" data-name="Group 18" transform="translate(0 0)" clip-path="url(#clip-path)">
      <path id="Path_11" data-name="Path 11" d="M350.5,0C156.925,0,0,156.925,0,350.5S156.925,701,350.5,701,701,544.075,701,350.5,544.075,0,350.5,0m0,602.081c-138.724,0-251.581-112.857-251.581-251.581S211.776,98.919,350.5,98.919,602.081,211.776,602.081,350.5,489.224,602.081,350.5,602.081" transform="translate(0 -0.002)" fill="#e8bc00"/>
      <path id="Path_12" data-name="Path 12" d="M161.458,21.259c-77.305,0-140.2,62.893-140.2,140.208s62.893,140.2,140.2,140.2,140.2-62.893,140.2-140.2S238.763,21.259,161.458,21.259m0,181.487a41.284,41.284,0,1,1,41.279-41.279,41.326,41.326,0,0,1-41.279,41.279" transform="translate(189.042 189.031)" fill="#e8bc00"/>
    </g>
  </g>
</svg>
