<svg id="Group_1781" data-name="Group 1781" xmlns="http://www.w3.org/2000/svg" xmlns:xlink="http://www.w3.org/1999/xlink" width="1131.167" height="907.07" viewBox="0 0 1131.167 907.07">
  <defs>
    <clipPath id="clip-path">
      <rect id="Rectangle_1139" data-name="Rectangle 1139" width="1131.167" height="907.07" fill="none"/>
    </clipPath>
  </defs>
  <g id="Group_1780" data-name="Group 1780" clip-path="url(#clip-path)">
    <path id="Path_9407" data-name="Path 9407" d="M1131.167,907.071l-.046-861.61C888.674-78.683,847.636,94.256,706.388,62.5,524.833,21.686,444.513,42.943,360.562,282.511S15.16,462.452.735,659.05q-.3,4.074-.484,8.071C-5.03,780.217,73.775,876.7,179.767,901.116a233.936,233.936,0,0,0,52.574,5.955Z" transform="translate(0 -0.001)" fill="#fae351"/>
    <path id="Path_9408" data-name="Path 9408" d="M140.415,262.565l-18.527-23.482s7.5-20.7,0-36.082-11.374-38.367-15.694-38.318-14.662,14.956-2.133,39c0,0-41.712-6.167-53.312-20.724s-17.873-31.585-24.072-23.9-15.323,37.089,11.483,66.6,54.814,28.053,54.814,28.053l30.271,42.617,29.042-23.161Z" transform="translate(50.705 397.936)" fill="#f7b472"/>
    <path id="Path_9409" data-name="Path 9409" d="M278.019,68.7S236.886,31.243,179,73.45c-52.941,38.6-67.837,112.834-47.876,170.375s16.429,97.381.579,164.353c-12.981,54.852,215.888,0,215.888,0s-17.308-57.7-15.055-94.3c3.183-51.748,36.707-84.764,15.009-171.24C326.679,59.48,278.019,68.7,278.019,68.7" transform="translate(310.505 135.162)" fill="#212c6c"/>
    <path id="Path_9410" data-name="Path 9410" d="M353.872,189.839l-41.8-47.551s-73.937,90.885-111.16,229.406c0,0-68.4-63.227-99.677-85.159,0,0-43.086,10.113-61.447,43.182,0,0,120.665,176.9,166.253,195.005s137.486-128.97,137.486-128.97Z" transform="translate(100.751 360.31)" fill="#fff"/>
    <path id="Path_9411" data-name="Path 9411" d="M212.47,183.647l24.45-41.359s65.008,71.461,113.968,217.273l7.421,129.991L213,502.324,175.749,349.105Z" transform="translate(445.042 360.31)" fill="#fff"/>
    <path id="Path_9412" data-name="Path 9412" d="M270.984,561.295C280.5,516.467,312,341.052,312,341.052l-8.414-186.719-83.05-17.785L137.49,154.333l-8.414,186.719s31.5,175.415,41.017,220.243Z" transform="translate(326.854 345.775)" fill="#e9efff"/>
    <path id="Path_9413" data-name="Path 9413" d="M178.826,573.306h89.525c4.6-53.111,23.875-298.79-3.281-404.472,0,0-42.878-22.133-100.436-37.029,0,0,20.134,269.815,14.193,441.5" transform="translate(416.893 333.764)" fill="#04c7f4"/>
    <path id="Path_9414" data-name="Path 9414" d="M213.3,573.306C207.363,401.62,227.5,131.8,227.5,131.8c-57.558,14.9-100.436,37.029-100.436,37.029-27.156,105.682-7.88,351.361-3.281,404.472Z" transform="translate(285.761 333.764)" fill="#04c7f4"/>
    <path id="Path_9415" data-name="Path 9415" d="M179.442,114.991l28.184,15.768,5.952,43.623s-2.649,25.365-34.136,41.338c-31.487-15.973-34.136-41.338-34.136-41.338l5.952-43.623Z" transform="translate(367.952 291.187)" fill="#dd9554"/>
    <path id="Path_9416" data-name="Path 9416" d="M208.959,158.54l-6.637-13.61s-2.01-67.6-32.285-81.1c0,0,41.843,6.651,44.51,94.714Z" transform="translate(430.578 161.624)" fill="#fae351"/>
    <path id="Path_9417" data-name="Path 9417" d="M132.889,158.54l6.637-13.61s2.01-67.6,32.285-81.1c0,0-41.843,6.651-44.51,94.714Z" transform="translate(322.359 161.624)" fill="#fae351"/>
    <path id="Path_9418" data-name="Path 9418" d="M240.76,123.326A36.956,36.956,0,1,1,203.8,86.368a36.958,36.958,0,0,1,36.958,36.958" transform="translate(422.502 218.706)" fill="#d8b509"/>
    <path id="Path_9419" data-name="Path 9419" d="M122.166,123.326a36.956,36.956,0,1,0,36.958-36.958,36.958,36.958,0,0,0-36.958,36.958" transform="translate(309.356 218.706)" fill="#d8b509"/>
    <path id="Path_9420" data-name="Path 9420" d="M190.337,165.26H177.38a4.316,4.316,0,0,1-4.316-4.316V89.881a4.316,4.316,0,0,1,4.316-4.316h12.956a4.316,4.316,0,0,1,4.316,4.316v71.062a4.316,4.316,0,0,1-4.316,4.316" transform="translate(438.243 216.673)" fill="#fae351"/>
    <path id="Path_9421" data-name="Path 9421" d="M135.079,165.26h12.956a4.316,4.316,0,0,0,4.316-4.316V89.881a4.316,4.316,0,0,0-4.316-4.316H135.079a4.316,4.316,0,0,0-4.316,4.316v71.062a4.316,4.316,0,0,0,4.316,4.316" transform="translate(331.126 216.673)" fill="#fae351"/>
    <path id="Path_9422" data-name="Path 9422" d="M207.592,63.548c41.133,0,73.754,37.046,73.4,101.45-.364,66.467-25.743,113.322-73.4,113.322S134.556,231.464,134.192,165c-.353-64.4,32.267-101.45,73.4-101.45" transform="translate(339.802 160.92)" fill="#f7b472"/>
    <path id="Path_9423" data-name="Path 9423" d="M194.888,189.115C208.6,188.9,248.95,221.6,248.95,221.6s4.136-47.025-.805-73.036c0,0-6.058-15.588-21.292-21.264,0,0-3.006,24.132-31.963,55.245-28.957-31.112-31.963-55.245-31.963-55.245-15.235,5.676-21.292,21.264-21.292,21.264-4.942,26.012-.805,73.036-.805,73.036s40.353-32.7,54.061-32.486" transform="translate(352.506 322.357)" fill="#fff"/>
    <path id="Path_9424" data-name="Path 9424" d="M143.691,139.589l-11.865,16.5s-2.964,27.107-.237,45.517c0,0,97.964-6.835,119.641-88.6,0,0,2.48,81.867,51.37,93.707,0,0,2.458-36.382-.279-47.784-3.9-16.259-24.012-53.454-24.012-53.454l-23.942-31.7L217.505,57.715,179.533,68.086l-6.619,16.3L153.179,103.32Z" transform="translate(330.299 146.149)" fill="#212c6c"/>
    <path id="Path_9425" data-name="Path 9425" d="M173.552,110.317H147.6s1.236,14.553,13.384,22.448a22.585,22.585,0,0,0,25.128,0c12.147-7.895,13.384-22.448,13.384-22.448Z" transform="translate(373.772 279.351)" fill="#fff"/>
    <path id="Path_9426" data-name="Path 9426" d="M147.6,110.317a31.11,31.11,0,0,0,1.328,5.966h49.243a31.11,31.11,0,0,0,1.328-5.966H147.6Z" transform="translate(373.772 279.351)" fill="#fff"/>
    <path id="Path_9427" data-name="Path 9427" d="M167.554,169.858a7.029,7.029,0,1,1-7.029-7.029,7.029,7.029,0,0,1,7.029,7.029" transform="translate(388.692 412.325)" fill="#fff"/>
    <path id="Path_9428" data-name="Path 9428" d="M167.554,199.339a7.029,7.029,0,1,1-7.029-7.029,7.029,7.029,0,0,1,7.029,7.029" transform="translate(388.692 486.979)" fill="#fff"/>
    <path id="Path_9429" data-name="Path 9429" d="M167.554,228.821a7.029,7.029,0,1,1-7.029-7.029,7.029,7.029,0,0,1,7.029,7.029" transform="translate(388.692 561.635)" fill="#fff"/>
    <path id="Path_9430" data-name="Path 9430" d="M361.991,187.726,281.914,411.795H152.7v19.9h455.81L695.7,187.726Z" transform="translate(386.687 475.37)"/>
    <path id="Path_9431" data-name="Path 9431" d="M525.721,431.7H192.008L279.2,187.726H612.912Z" transform="translate(486.214 475.371)" fill="#484848"/>
    <path id="Path_9432" data-name="Path 9432" d="M297.776,247.007c-3.885,19.1-17.633,34.577-30.709,34.577s-20.533-15.478-16.644-34.577,17.633-34.577,30.709-34.577,20.526,15.482,16.644,34.577" transform="translate(631.525 537.928)" fill="#fff"/>
    <path id="Path_9433" data-name="Path 9433" d="M381.824,195.913a88.681,88.681,0,1,1-88.681-88.681,88.679,88.679,0,0,1,88.681,88.681" transform="translate(517.751 271.539)" fill="#fae351"/>
    <path id="Path_9434" data-name="Path 9434" d="M341.427,179.046a65.152,65.152,0,1,1-65.152-65.153,65.152,65.152,0,0,1,65.152,65.153" transform="translate(534.615 288.407)" fill="#fff"/>
    <path id="Path_9435" data-name="Path 9435" d="M249.1,164.868,200.147,132.2l58.816-6.838Z" transform="translate(506.824 317.453)" fill="#fff"/>
    <path id="Path_9436" data-name="Path 9436" d="M219.833,178.723h68.773V124.69H219.833Zm63.358-50.91L254.22,155.95l-28.975-28.138Z" transform="translate(556.674 315.747)" fill="#fae351"/>
    <path id="Path_9437" data-name="Path 9437" d="M362.84,96.127A88.683,88.683,0,1,1,274.156,7.446,88.682,88.682,0,0,1,362.84,96.127" transform="translate(469.671 18.855)" fill="#fae351"/>
    <path id="Path_9438" data-name="Path 9438" d="M322.441,79.259a65.153,65.153,0,1,1-65.153-65.153,65.152,65.152,0,0,1,65.153,65.153" transform="translate(486.538 35.723)" fill="#fff"/>
    <path id="Path_9439" data-name="Path 9439" d="M219.218,37.109l-30.865,72.584L255.568,73.4Z" transform="translate(476.958 93.971)" fill="#fff"/>
    <path id="Path_9440" data-name="Path 9440" d="M207.382,74.922V25.566l39.484,24.676Z" transform="translate(525.144 64.74)" fill="#fae351"/>
    <path id="Path_9441" data-name="Path 9441" d="M224.03,179.341A88.683,88.683,0,1,1,135.349,90.66a88.682,88.682,0,0,1,88.681,88.681" transform="translate(118.168 229.575)" fill="#fae351"/>
    <path id="Path_9442" data-name="Path 9442" d="M183.632,162.474A65.153,65.153,0,1,1,118.48,97.321a65.152,65.152,0,0,1,65.152,65.152" transform="translate(135.038 246.442)" fill="#fff"/>
    <path id="Path_9443" data-name="Path 9443" d="M82.108,165.435,149.9,136.781,85.509,108.127Z" transform="translate(207.918 273.806)" fill="#fff"/>
    <path id="Path_9444" data-name="Path 9444" d="M63.875,124.378a18.889,18.889,0,0,1,6.439-14.168c1.593-1.526,3.85-4.3,6.294-3.953,2.589.293,4.451,3.151,5.754,5.115,2.2,3.479,5.818,8.53,2.466,12.427-1.554,1.84-4.037,2.812-5.489,4.783-1.466,2.049-.618,4.74.4,6.771a40.379,40.379,0,0,0,10.208,12.218c1.78,1.469,4.182,3.207,6.584,2.815,2.5-.417,4.475-3.168,6.316-4.723,4.719-3.811,9.919,1.406,13.377,4.514,1.657,1.469,3.539,3.4,3.44,5.736-.088,2.423-3.236,4.387-4.935,5.8a19.016,19.016,0,0,1-16.231,3.808c-6.231-1.342-11.515-5.051-16.234-9.255a74.519,74.519,0,0,1-12.423-14.68,39.446,39.446,0,0,1-4.1-7.969,40.976,40.976,0,0,1-1.861-9.237c.039-3.13.208,1.674,0,0" transform="translate(161.748 268.995)" fill="#fae351"/>
    <path id="Path_9445" data-name="Path 9445" d="M89.183,159.136v11.3a1.275,1.275,0,1,1-2.55,0v-11.3a1.275,1.275,0,0,1,2.55,0M87.908,179.1a1.275,1.275,0,0,0-1.275,1.275v11.3a1.275,1.275,0,1,0,2.55,0v-11.3a1.277,1.277,0,0,0-1.275-1.275m16.27-4.966h-11.3a1.275,1.275,0,1,0,0,2.55h11.3a1.275,1.275,0,0,0,0-2.55m-21.236,0H71.635a1.275,1.275,0,0,0,0,2.55H82.942a1.275,1.275,0,0,0,0-2.55" transform="translate(178.17 399.745)" fill="#fff"/>
    <path id="Path_9446" data-name="Path 9446" d="M331.084,116.431a29.988,29.988,0,0,0-.929-7.3l5.224-5.147-2.985-5.168-.427-.745L328.983,92.9l-7.057,1.95a30.02,30.02,0,0,0-12.663-7.312l-1.84-7.086H294.628l-1.84,7.086a29.984,29.984,0,0,0-12.663,7.312l-7.057-1.95-2.985,5.168-.427.745-2.985,5.168,5.224,5.147a29.155,29.155,0,0,0,0,14.6l-5.224,5.147,2.985,5.168.427.745,2.985,5.168,7.057-1.95a29.984,29.984,0,0,0,12.663,7.312l1.84,7.086h12.794l1.84-7.086a30.02,30.02,0,0,0,12.663-7.312l7.057,1.95,2.985-5.168.427-.745,2.985-5.168-5.224-5.147a29.988,29.988,0,0,0,.929-7.3m-30.06,15.115a15.115,15.115,0,1,1,15.115-15.115,15.116,15.116,0,0,1-15.115,15.115" transform="translate(675.277 203.733)" fill="#fff"/>
    <path id="Path_9447" data-name="Path 9447" d="M318.638,40.814v11.3a1.275,1.275,0,1,1-2.55,0v-11.3a1.275,1.275,0,1,1,2.55,0m-1.275,19.968a1.272,1.272,0,0,0-1.275,1.272v11.3a1.275,1.275,0,1,0,2.55,0v-11.3a1.274,1.274,0,0,0-1.275-1.272m16.27-4.97h-11.3a1.275,1.275,0,0,0,0,2.55h11.3a1.275,1.275,0,1,0,0-2.55m-21.236,0H301.09a1.275,1.275,0,0,0,0,2.55H312.4a1.275,1.275,0,0,0,0-2.55" transform="translate(759.217 100.123)" fill="#fff"/>
    <path id="Path_9448" data-name="Path 9448" d="M169.342,26.84v11.3a1.275,1.275,0,0,1-2.55,0V26.84a1.275,1.275,0,0,1,2.55,0M168.067,46.8a1.275,1.275,0,0,0-1.275,1.275v11.3a1.275,1.275,0,1,0,2.55,0V48.08a1.277,1.277,0,0,0-1.275-1.275m16.27-4.966h-11.3a1.275,1.275,0,1,0,0,2.55h11.3a1.275,1.275,0,1,0,0-2.55m-21.239,0h-11.3a1.275,1.275,0,1,0,0,2.55h11.3a1.275,1.275,0,0,0,0-2.55" transform="translate(381.153 64.737)" fill="#fff"/>
    <path id="Path_9449" data-name="Path 9449" d="M294.858,144.084v11.3a1.275,1.275,0,1,1-2.55,0v-11.3a1.275,1.275,0,0,1,2.55,0m-1.275,19.964a1.275,1.275,0,0,0-1.275,1.275v11.3a1.275,1.275,0,1,0,2.55,0v-11.3a1.277,1.277,0,0,0-1.275-1.275m16.27-4.966h-11.3a1.275,1.275,0,0,0,0,2.55h11.3a1.275,1.275,0,1,0,0-2.55m-21.239,0h-11.3a1.275,1.275,0,1,0,0,2.55h11.3a1.275,1.275,0,0,0,0-2.55" transform="translate(698.992 361.629)" fill="#fff"/>
    <path id="Path_9450" data-name="Path 9450" d="M222.328,90.257v11.3a1.275,1.275,0,0,1-2.55,0v-11.3a1.275,1.275,0,0,1,2.55,0m-1.275,19.964a1.275,1.275,0,0,0-1.275,1.275v11.3a1.275,1.275,0,0,0,2.55,0V111.5a1.277,1.277,0,0,0-1.275-1.275m16.27-4.966h-11.3a1.275,1.275,0,0,0,0,2.55h11.3a1.275,1.275,0,1,0,0-2.55m-21.239,0h-11.3a1.275,1.275,0,0,0,0,2.55h11.3a1.275,1.275,0,0,0,0-2.55" transform="translate(515.327 225.325)" fill="#fff"/>
    <path id="Path_9451" data-name="Path 9451" d="M72.153,238.659a19.505,19.505,0,0,0-.611-4.776l3.419-3.366-1.953-3.38-.279-.487-1.953-3.38-4.613,1.275a19.614,19.614,0,0,0-8.283-4.779l-1.2-4.634H48.311l-1.2,4.634a19.614,19.614,0,0,0-8.283,4.779l-4.613-1.275-1.953,3.38-.279.487-1.953,3.38,3.419,3.366a18.966,18.966,0,0,0,0,9.551L30.024,246.8l1.953,3.38.279.487,1.953,3.38,4.613-1.275a19.613,19.613,0,0,0,8.283,4.779l1.2,4.638h8.364l1.2-4.638a19.613,19.613,0,0,0,8.283-4.779l4.613,1.275,1.953-3.38.279-.487,1.953-3.38-3.419-3.363a19.549,19.549,0,0,0,.611-4.776m-19.661,9.883a9.885,9.885,0,1,1,9.883-9.883,9.885,9.885,0,0,1-9.883,9.883" transform="translate(76.029 544.767)" fill="#fff"/>
  </g>
</svg>
