<svg xmlns="http://www.w3.org/2000/svg" width="1376.147" height="1600.068" viewBox="0 0 1376.147 1600.068">
  <g id="Group_1543" data-name="Group 1543" transform="translate(-1082.215 32.871) rotate(-30)">
    <path id="Path_8603" data-name="Path 8603" d="M1142.64,511.257c36.693,158.594,22.7,323.44,9.241,483.937h26.093c21.88-262.693,38.6-563.03-150.3-773.81C943.412,127.342,826.539,78.01,705.181,51.782,560.04,20.253,408.785,8.838,260.519,2.722,173.679-.811,86.84-.811,0,2.179V28c202.762-7.2,406.2,2.718,606.518,32.48C731.953,79.1,861.057,110.626,960.943,193.117,1057.431,272.754,1114.781,391.258,1142.64,511.257Z" transform="matrix(0.695, -0.719, 0.719, 0.695, 375.916, 1513.325)" fill="#fbe551"/>
    <path id="Path_8604" data-name="Path 8604" d="M1142.64,511.257c36.693,158.594,22.7,323.44,9.241,483.937h26.093c21.88-262.693,38.6-563.03-150.3-773.81C943.412,127.342,826.539,78.01,705.181,51.782,560.04,20.253,408.785,8.838,260.519,2.722,173.679-.811,86.84-.811,0,2.179V28c202.762-7.2,406.2,2.718,606.518,32.48C731.953,79.1,861.057,110.626,960.943,193.117,1057.431,272.754,1114.781,391.258,1142.64,511.257Z" transform="matrix(0.695, -0.719, 0.719, 0.695, 380.794, 1625.061)" fill="#fbe551"/>
    <path id="Path_8605" data-name="Path 8605" d="M1142.64,511.257c36.693,158.594,22.7,323.44,9.241,483.937h26.093c21.88-262.693,38.6-563.03-150.3-773.81C943.412,127.342,826.539,78.01,705.181,51.782,560.04,20.253,408.785,8.838,260.519,2.722,173.679-.811,86.84-.811,0,2.179V28c202.762-7.2,406.2,2.718,606.518,32.48C731.953,79.1,861.057,110.626,960.943,193.117,1057.431,272.754,1114.781,391.258,1142.64,511.257Z" transform="matrix(0.695, -0.719, 0.719, 0.695, 380.025, 1751.045)" fill="#fbe551"/>
  </g>
</svg>
