<svg id="Group_1631" data-name="Group 1631" xmlns="http://www.w3.org/2000/svg" xmlns:xlink="http://www.w3.org/1999/xlink" width="1137.915" height="901.768" viewBox="0 0 1137.915 901.768">
  <defs>
    <clipPath id="clip-path">
      <rect id="Rectangle_1054" data-name="Rectangle 1054" width="1137.915" height="901.768" fill="none"/>
    </clipPath>
    <clipPath id="clip-path-2">
      <rect id="Rectangle_1016" data-name="Rectangle 1016" width="1137.915" height="901.768" rx="82" fill="none"/>
    </clipPath>
    <clipPath id="clip-path-3">
      <rect id="Rectangle_1020" data-name="Rectangle 1020" width="1032.915" height="901.768" fill="none"/>
    </clipPath>
    <clipPath id="clip-path-4">
      <rect id="Rectangle_1017" data-name="Rectangle 1017" width="44.755" height="21.635" fill="none"/>
    </clipPath>
    <clipPath id="clip-path-5">
      <rect id="Rectangle_1019" data-name="Rectangle 1019" width="138.921" height="93.265" fill="none"/>
    </clipPath>
    <clipPath id="clip-path-7">
      <rect id="Rectangle_1023" data-name="Rectangle 1023" width="120.519" height="47" fill="none"/>
    </clipPath>
    <clipPath id="clip-path-8">
      <rect id="Rectangle_1025" data-name="Rectangle 1025" width="735.121" height="2.947" fill="none"/>
    </clipPath>
    <clipPath id="clip-path-9">
      <rect id="Rectangle_1026" data-name="Rectangle 1026" width="351.538" height="253.469" fill="none"/>
    </clipPath>
    <clipPath id="clip-path-10">
      <rect id="Rectangle_1029" data-name="Rectangle 1029" width="262.66" height="14.712" fill="none"/>
    </clipPath>
    <clipPath id="clip-path-11">
      <rect id="Rectangle_1033" data-name="Rectangle 1033" width="259.286" height="5.37" fill="none"/>
    </clipPath>
    <clipPath id="clip-path-12">
      <rect id="Rectangle_1036" data-name="Rectangle 1036" width="2.104" height="2.104" fill="none"/>
    </clipPath>
    <clipPath id="clip-path-13">
      <rect id="Rectangle_1039" data-name="Rectangle 1039" width="76.365" height="76.365" fill="none"/>
    </clipPath>
    <clipPath id="clip-path-14">
      <rect id="Rectangle_1040" data-name="Rectangle 1040" width="51.528" height="51.53" fill="none"/>
    </clipPath>
    <clipPath id="clip-path-15">
      <rect id="Rectangle_1041" data-name="Rectangle 1041" width="43.539" height="47.424" fill="none"/>
    </clipPath>
    <clipPath id="clip-path-16">
      <rect id="Rectangle_1042" data-name="Rectangle 1042" width="43.469" height="85.53" fill="none"/>
    </clipPath>
    <clipPath id="clip-path-17">
      <rect id="Rectangle_1043" data-name="Rectangle 1043" width="28.66" height="21.787" fill="none"/>
    </clipPath>
    <clipPath id="clip-path-18">
      <rect id="Rectangle_1044" data-name="Rectangle 1044" width="185.741" height="14.712" fill="none"/>
    </clipPath>
    <clipPath id="clip-path-19">
      <rect id="Rectangle_1045" data-name="Rectangle 1045" width="255.668" height="14.712" fill="none"/>
    </clipPath>
    <clipPath id="clip-path-20">
      <rect id="Rectangle_1046" data-name="Rectangle 1046" width="82.822" height="30.559" fill="none"/>
    </clipPath>
    <clipPath id="clip-path-21">
      <rect id="Rectangle_1047" data-name="Rectangle 1047" width="22.655" height="36.118" fill="#1a134d"/>
    </clipPath>
    <clipPath id="clip-path-22">
      <rect id="Rectangle_1048" data-name="Rectangle 1048" width="39.334" height="28.925" fill="#1a134d"/>
    </clipPath>
    <clipPath id="clip-path-23">
      <rect id="Rectangle_1049" data-name="Rectangle 1049" width="58.726" height="78.087" fill="none"/>
    </clipPath>
    <clipPath id="clip-path-24">
      <rect id="Rectangle_1050" data-name="Rectangle 1050" width="27.578" height="39.765" fill="none"/>
    </clipPath>
    <clipPath id="clip-path-25">
      <rect id="Rectangle_1051" data-name="Rectangle 1051" width="60.572" height="47.031" fill="none"/>
    </clipPath>
    <clipPath id="clip-path-26">
      <rect id="Rectangle_1052" data-name="Rectangle 1052" width="25.665" height="23.52" fill="none"/>
    </clipPath>
  </defs>
  <g id="Group_1630" data-name="Group 1630" clip-path="url(#clip-path)">
    <g id="Group_1559" data-name="Group 1559" transform="translate(-33 2)">
      <g id="Group_1558" data-name="Group 1558" clip-path="url(#clip-path-2)">
        <path id="Path_8717" data-name="Path 8717" d="M1090.637,584.961C1019.872,649.2,1045.9,700.219,748.107,758.255,369.625,832.019,124.731,914.98,52,848.961c-70.765-64.236,118.466-176.256,64.679-436.408C81.954,244.6,48.133,87.442,120.864,21.421c68.46-62.143,241.624,29.759,337.9,39.037C564.289,70.627,566-33.039,918,60.459s357.715,48.9,357.715,124.5c0,108.608,66.977,191.2-17.626,268" transform="translate(0 0)" fill="#fbe551"/>
      </g>
    </g>
    <g id="Group_1567" data-name="Group 1567">
      <g id="Group_1566" data-name="Group 1566" clip-path="url(#clip-path-3)">
        <g id="Group_1562" data-name="Group 1562" transform="translate(716.625 131.824)" style="mix-blend-mode: multiply;isolation: isolate">
          <g id="Group_1561" data-name="Group 1561">
            <g id="Group_1560" data-name="Group 1560" clip-path="url(#clip-path-4)">
              <path id="Path_8718" data-name="Path 8718" d="M486.915,110.839c3.529-3.26,6.754-6.858,10.052-10.348,2.265-2.4,8.289-10.958,11.806-8.846,3.737,2.243,7.076,6.465,10.289,9.421,3.568,3.283,7.088,6.63,10.73,9.829.7.613,1.707-.373,1.027-1.026-4.366-4.2-8.907-8.233-13.371-12.33-2.308-2.119-4.561-4.393-6.985-6.38a5.972,5.972,0,0,0-2.85-1.681c-3.44-.436-6.639,4.937-8.553,6.985-4.263,4.558-8.729,9.006-12.675,13.845a.375.375,0,0,0,.531.531" transform="translate(-486.287 -89.453)" fill="#92bcf7"/>
            </g>
          </g>
        </g>
        <g id="Group_1565" data-name="Group 1565" transform="translate(673.166 154.667)" opacity="0.5" style="mix-blend-mode: multiply;isolation: isolate">
          <g id="Group_1564" data-name="Group 1564">
            <g id="Group_1563" data-name="Group 1563" clip-path="url(#clip-path-5)">
              <rect id="Rectangle_1018" data-name="Rectangle 1018" width="138.921" height="93.264" transform="translate(0 0.002)" fill="#92bcf7"/>
            </g>
          </g>
        </g>
      </g>
    </g>
    <rect id="Rectangle_1021" data-name="Rectangle 1021" width="138.921" height="93.264" transform="translate(666.828 149.025)" fill="#fff"/>
    <rect id="Rectangle_1022" data-name="Rectangle 1022" width="121.458" height="76.498" transform="translate(675.56 158.343)" fill="#fbe551"/>
    <g id="Group_1629" data-name="Group 1629">
      <g id="Group_1628" data-name="Group 1628" clip-path="url(#clip-path-3)">
        <g id="Group_1570" data-name="Group 1570" transform="translate(675.56 187.841)" style="mix-blend-mode: multiply;isolation: isolate">
          <g id="Group_1569" data-name="Group 1569">
            <g id="Group_1568" data-name="Group 1568" clip-path="url(#clip-path-7)">
              <path id="Path_8719" data-name="Path 8719" d="M578.94,174.465a237.487,237.487,0,0,1-23.932-30.176c-1.627-2.434-3.795-5.2-6.711-4.957-1.651.139-3.034,1.251-4.3,2.315l-19.566,16.4a2.467,2.467,0,0,1-4.291-.28,229.716,229.716,0,0,0-18.384-19.321c-4.371-4.215-8.984-12.318-16.316-10.795-3.842.8-6.82,4.116-9.378,6.861-3.036,3.258-6,6.58-9.131,9.748-2.8,2.829-5.666,5.59-8.506,8.378v21.824Z" transform="translate(-458.421 -127.465)" fill="#92bcf7"/>
            </g>
          </g>
        </g>
        <path id="Path_8720" data-name="Path 8720" d="M515.778,136.4a10.971,10.971,0,1,1-10.97-10.97,10.969,10.969,0,0,1,10.97,10.97" transform="translate(233.914 59.41)" fill="#ced9f2"/>
        <path id="Path_8721" data-name="Path 8721" d="M502.527,147.424h27.742s-2.059-1.484-2.23-1.537c.483.147.332-1.8.314-2.014a4.285,4.285,0,0,0-4.14-3.829c-1.841-.035-4.078,1.244-3.618,3.357a17.855,17.855,0,0,0-3.266-5.357,6.8,6.8,0,0,0-5.655-2.221,5.892,5.892,0,0,0-1.471.43c-2.934,1.261-6.164,6.366-3.638,9.289-1.233-1.428-7.038-4.464-7.01-.645.012,1.509,1.432,2.2,2.971,2.527" transform="translate(236.623 64.309)" fill="#fff"/>
        <path id="Path_8722" data-name="Path 8722" d="M549.769,120.855a16.924,16.924,0,0,0-2.155-2.765c-2.121-2.168-5.155-3.649-8.154-3.2a8.594,8.594,0,0,0-2.119.619c-4.231,1.82-8.886,9.179-5.245,13.393-1.78-2.059-10.148-6.436-10.106-.931.015,2.177,2.063,3.168,4.282,3.644h23.5Z" transform="translate(247.249 54.382)" fill="#fff"/>
        <path id="Path_8723" data-name="Path 8723" d="M458.421,136.2h29.224s-3.074-2.216-3.328-2.295c.722.218.494-2.682.469-3.008a6.4,6.4,0,0,0-6.181-5.716c-2.748-.052-6.086,1.857-5.4,5.013a26.65,26.65,0,0,0-4.875-8c-2.2-2.244-5.338-3.778-8.443-3.316a8.435,8.435,0,0,0-1.466.377Z" transform="translate(217.139 56.273)" fill="#fff"/>
        <g id="Group_1573" data-name="Group 1573" transform="translate(113.189 541.713)" style="mix-blend-mode: multiply;isolation: isolate">
          <g id="Group_1572" data-name="Group 1572">
            <g id="Group_1571" data-name="Group 1571" clip-path="url(#clip-path-8)">
              <rect id="Rectangle_1024" data-name="Rectangle 1024" width="735.122" height="2.947" transform="translate(-0.001)" fill="#92bcf7"/>
            </g>
          </g>
        </g>
        <g id="Group_1576" data-name="Group 1576" transform="translate(109.711 92.573)" style="mix-blend-mode: multiply;isolation: isolate">
          <g id="Group_1575" data-name="Group 1575">
            <g id="Group_1574" data-name="Group 1574" clip-path="url(#clip-path-9)">
              <path id="Path_8724" data-name="Path 8724" d="M74.447,62.818V77.5h108.6v224.1H74.447v14.682H425.986V62.818Zm335.93,238.787h-210.3V77.5h210.3Z" transform="translate(-74.447 -62.818)" fill="#92bcf7"/>
            </g>
          </g>
        </g>
        <rect id="Rectangle_1027" data-name="Rectangle 1027" width="108.599" height="224.105" transform="translate(109.71 107.255)" fill="#fff"/>
        <rect id="Rectangle_1028" data-name="Rectangle 1028" width="210.304" height="224.105" transform="translate(235.337 107.255)" fill="#fff"/>
        <g id="Group_1579" data-name="Group 1579" transform="translate(185.875 629.587)" opacity="0.5" style="mix-blend-mode: multiply;isolation: isolate">
          <g id="Group_1578" data-name="Group 1578">
            <g id="Group_1577" data-name="Group 1577" clip-path="url(#clip-path-10)">
              <path id="Path_8725" data-name="Path 8725" d="M381.435,441.937H133.487a7.356,7.356,0,1,1,0-14.712H381.435a7.356,7.356,0,0,1,0,14.712" transform="translate(-126.131 -427.225)" fill="#92bcf7"/>
            </g>
          </g>
        </g>
        <path id="Path_8726" data-name="Path 8726" d="M292.082,413.827h9.639v22.917h-4.339Z" transform="translate(138.35 196.016)" fill="#999"/>
        <rect id="Rectangle_1030" data-name="Rectangle 1030" width="238.18" height="13.786" transform="translate(200.444 608.769)" fill="#999"/>
        <path id="Path_8727" data-name="Path 8727" d="M283.8,413.827h9.639v22.917H289.1Z" transform="translate(134.425 196.016)" fill="#999"/>
        <path id="Path_8728" data-name="Path 8728" d="M142.276,413.827h-9.638v22.917h4.337Z" transform="translate(62.827 196.016)" fill="#999"/>
        <path id="Path_8729" data-name="Path 8729" d="M150.562,413.827h-9.639v22.917h4.337Z" transform="translate(66.75 196.016)" fill="#999"/>
        <rect id="Rectangle_1031" data-name="Rectangle 1031" width="259.286" height="116.822" transform="translate(187.702 501.078)" fill="#ececec"/>
        <g id="Group_1582" data-name="Group 1582" transform="translate(187.702 501.078)" opacity="0.51" style="mix-blend-mode: multiply;isolation: isolate">
          <g id="Group_1581" data-name="Group 1581">
            <g id="Group_1580" data-name="Group 1580" clip-path="url(#clip-path-11)">
              <rect id="Rectangle_1032" data-name="Rectangle 1032" width="259.286" height="5.371" fill="#868585"/>
            </g>
          </g>
        </g>
        <path id="Path_8730" data-name="Path 8730" d="M134.069,380.174H373.612v45.564H134.069Zm237.52,2.149H136.1v41.269H371.589Z" transform="translate(63.504 180.076)" fill="#ccc"/>
        <path id="Path_8731" data-name="Path 8731" d="M134.069,346.733H373.612v42.433H134.069Zm237.52,2.149H136.1v38.136H371.589Z" transform="translate(63.504 164.236)" fill="#ccc"/>
        <rect id="Rectangle_1034" data-name="Rectangle 1034" width="2.025" height="43.416" transform="translate(316.333 561.324)" fill="#ccc"/>
        <rect id="Rectangle_1035" data-name="Rectangle 1035" width="265.795" height="4.834" transform="translate(185.244 498.213)" fill="#999"/>
        <path id="Path_8732" data-name="Path 8732" d="M223.416,398.865a5.832,5.832,0,1,1,5.821,6.176,6.015,6.015,0,0,1-5.821-6.176m2.025,0a3.8,3.8,0,1,0,3.8-4.029,3.923,3.923,0,0,0-3.8,4.029" transform="translate(105.825 186.003)" fill="#ccc"/>
        <path id="Path_8733" data-name="Path 8733" d="M199.244,398.865a5.832,5.832,0,1,1,5.821,6.176,6.015,6.015,0,0,1-5.821-6.176m2.025,0a3.8,3.8,0,1,0,3.8-4.029,3.923,3.923,0,0,0-3.8,4.029" transform="translate(94.375 186.003)" fill="#ccc"/>
        <path id="Path_8734" data-name="Path 8734" d="M211.394,357.011a5.832,5.832,0,1,1,5.821,6.178,6.015,6.015,0,0,1-5.821-6.178m2.025,0a3.8,3.8,0,1,0,3.8-4.029,3.923,3.923,0,0,0-3.8,4.029" transform="translate(100.13 166.178)" fill="#ccc"/>
        <path id="Path_8735" data-name="Path 8735" d="M170.581,332a13.677,13.677,0,0,0-2.339.2,7.043,7.043,0,0,0,3.288.615H305.84a7.042,7.042,0,0,0,3.288-.615,13.66,13.66,0,0,0-2.337-.2Z" transform="translate(79.691 157.258)" fill="#a9acad"/>
        <path id="Path_8736" data-name="Path 8736" d="M282,332h-99.6l-.445.9c-.113.228.4.414,1.147.414h98.162c.746,0,1.263-.186,1.157-.414Z" transform="translate(86.182 157.258)" fill="#3f3c3a"/>
        <path id="Path_8737" data-name="Path 8737" d="M320.525,333.228c-.477-.681-2.65-1.226-4.86-1.226H179.455c-2.209,0-4.383.545-4.86,1.226l-24.909,1.655c-.74,1.055.825,5.87,3.5,5.87H341.932c2.679,0,4.243-4.814,3.5-5.87Z" transform="translate(70.814 157.258)" fill="#f1f2f2"/>
        <path id="Path_8738" data-name="Path 8738" d="M320.525,333.228c-.477-.681-2.65-1.226-4.86-1.226H179.455c-2.209,0-4.383.545-4.86,1.226l-24.909,1.655c-.74,1.055.825,1.923,3.5,1.923H341.932c2.679,0,4.243-.868,3.5-1.923Z" transform="translate(70.814 157.258)" fill="#d1d3d4"/>
        <path id="Path_8739" data-name="Path 8739" d="M171.535,361.867a3.642,3.642,0,0,1-3.638-3.637V277.525a7.642,7.642,0,0,1,7.676-7.588H301.911a7.642,7.642,0,0,1,7.676,7.588V358.23a3.641,3.641,0,0,1-3.639,3.637Z" transform="translate(79.527 127.86)" fill="#f1f2f2"/>
        <path id="Path_8740" data-name="Path 8740" d="M301.756,270.264H175.418a7.151,7.151,0,0,0-7.194,7.106v80.705a3.157,3.157,0,0,0,3.157,3.157H305.794a3.157,3.157,0,0,0,3.158-3.157V277.37a7.151,7.151,0,0,0-7.2-7.106" transform="translate(79.682 128.015)" fill="#d1d3d4"/>
        <g id="Group_1585" data-name="Group 1585" transform="translate(316.827 400.674)" opacity="0.6">
          <g id="Group_1584" data-name="Group 1584">
            <g id="Group_1583" data-name="Group 1583" clip-path="url(#clip-path-12)">
              <path id="Path_8741" data-name="Path 8741" d="M216.044,271.889a1.052,1.052,0,1,0,1.052,1.052,1.053,1.053,0,0,0-1.052-1.052" transform="translate(-214.992 -271.889)" fill="#231f20"/>
            </g>
          </g>
        </g>
        <rect id="Rectangle_1037" data-name="Rectangle 1037" width="129.255" height="82.443" transform="translate(253.642 405.115)" fill="#939598"/>
        <rect id="Rectangle_1038" data-name="Rectangle 1038" width="128.775" height="81.961" transform="translate(253.882 405.356)" fill="#041446"/>
        <g id="Group_1588" data-name="Group 1588" transform="translate(253.882 405.356)" style="mix-blend-mode: soft-light;isolation: isolate">
          <g id="Group_1587" data-name="Group 1587">
            <g id="Group_1586" data-name="Group 1586" clip-path="url(#clip-path-13)">
              <path id="Path_8742" data-name="Path 8742" d="M248.644,275.066H235.671l-63.393,63.393v12.973Z" transform="translate(-172.279 -275.066)" fill="#fff"/>
            </g>
          </g>
        </g>
        <g id="Group_1591" data-name="Group 1591" transform="translate(253.882 405.356)" style="mix-blend-mode: soft-light;isolation: isolate">
          <g id="Group_1590" data-name="Group 1590">
            <g id="Group_1589" data-name="Group 1589" clip-path="url(#clip-path-14)">
              <path id="Path_8743" data-name="Path 8743" d="M223.807,275.066H172.279v51.528l51.528-51.528" transform="translate(-172.279 -275.066)" fill="#fff"/>
            </g>
          </g>
        </g>
        <path id="Path_8744" data-name="Path 8744" d="M378.926,271.948a18.437,18.437,0,0,0,9.837.068c5.985-1.566,11.621-4.848,17.951-4.831,5.289.015,10.285,2.417,14.74,5.268a1.57,1.57,0,0,1,.808.9c.1.5-.177,1.435-.659,1.587a3.142,3.142,0,0,1-1.5-.031c-2.557-.472-5.148-2-7.7-2.7-1.78-.488-4.807-1.348-6.31.436a64.691,64.691,0,0,1,16.427,5.861c.79.416,1.673,1.012,1.687,1.905A1.8,1.8,0,0,1,422.369,282a5.735,5.735,0,0,1-2.545-.794A38.2,38.2,0,0,0,405,277.489a32.88,32.88,0,0,1,12.772,2.878,6.723,6.723,0,0,1,2.511,1.681c.648.783,1.149,1.142.669,2.038-.5.928-1.566.833-2.569.514a35.819,35.819,0,0,1-3.625-1.87c-3.556-1.53-5.864-1.192-9.735-1.127a24.867,24.867,0,0,1,6.786,1.129c1.12.337,4.664,2.921,4,3.951-.578.887-2.586-.05-3.572-.439-2.7-1.068-5.572-1.02-8.419-.953-3.621.085-9.392,3.195-12.989,3.553a19.612,19.612,0,0,1-8.275-1.01c-2.6-.862-16.68-1.12-19.383-1.416-5.573-.61-11.159-1.114-16.733-1.717-9.2-1-18.78-.85-27.139-4.873q-25.469-12.259-50.94-24.514c-10-4.813-17.124-14.523-20.394-24.954a42.9,42.9,0,0,1-1.7-7.8c-.442-3.758-.031-4.3,3.827-4.946,6.216-1.035,12.7.66,18.213,3.507,7.038,3.631,12.948,9.062,19.159,13.975,12.044,9.527,21.74,21.327,37.207,25.561,6.007,1.645,12.289,1.991,18.378,3.292,6.335,1.354,33.806,7.37,35.882,8" transform="translate(116.577 102.932)" fill="#ffb191"/>
        <path id="Path_8745" data-name="Path 8745" d="M378.926,271.948a18.437,18.437,0,0,0,9.837.068c5.985-1.566,11.621-4.848,17.951-4.831,5.289.015,10.285,2.417,14.74,5.268a1.57,1.57,0,0,1,.808.9c.1.5-.177,1.435-.659,1.587a3.142,3.142,0,0,1-1.5-.031c-2.557-.472-5.148-2-7.7-2.7-1.78-.488-4.807-1.348-6.31.436a64.691,64.691,0,0,1,16.427,5.861c.79.416,1.673,1.012,1.687,1.905A1.8,1.8,0,0,1,422.369,282a5.735,5.735,0,0,1-2.545-.794A38.2,38.2,0,0,0,405,277.489a32.88,32.88,0,0,1,12.772,2.878,6.723,6.723,0,0,1,2.511,1.681c.648.783,1.149,1.142.669,2.038-.5.928-1.566.833-2.569.514a35.819,35.819,0,0,1-3.625-1.87c-3.556-1.53-5.864-1.192-9.735-1.127a24.867,24.867,0,0,1,6.786,1.129c1.12.337,4.664,2.921,4,3.951-.578.887-2.586-.05-3.572-.439-2.7-1.068-5.572-1.02-8.419-.953-3.621.085-9.392,3.195-12.989,3.553a19.612,19.612,0,0,1-8.275-1.01c-2.6-.862-16.68-1.12-19.383-1.416-5.573-.61-11.159-1.114-16.733-1.717-9.2-1-18.78-.85-27.139-4.873q-25.469-12.259-50.94-24.514c-10-4.813-17.124-14.523-20.394-24.954a42.9,42.9,0,0,1-1.7-7.8c-.442-3.758-.031-4.3,3.827-4.946,6.216-1.035,12.7.66,18.213,3.507,7.038,3.631,12.948,9.062,19.159,13.975,12.044,9.527,21.74,21.327,37.207,25.561,6.007,1.645,12.289,1.991,18.378,3.292C349.378,265.3,376.849,271.319,378.926,271.948Z" transform="translate(116.577 102.932)" fill="none" stroke="#f07854" stroke-linecap="round" stroke-linejoin="round" stroke-width="0.917"/>
        <path id="Path_8746" data-name="Path 8746" d="M352.472,257.163a6.6,6.6,0,0,1-8.759,4.377" transform="translate(162.805 121.81)" fill="#ffb191"/>
        <path id="Path_8747" data-name="Path 8747" d="M352.635,257.162a1.556,1.556,0,0,1-.156.279c-.078.093-.169.1-.267.171a1.742,1.742,0,0,0-.281.349c-.231.273-.466.564-.719.824a9.928,9.928,0,0,1-1.8,1.645,5.755,5.755,0,0,1-2.454.836,8.529,8.529,0,0,1-2.756-.309c-.7-.156-1.223.868-.513,1.217a6.96,6.96,0,0,0,6.235-.474,6.4,6.4,0,0,0,2.1-1.878,4.475,4.475,0,0,0,.612-1.3,2.442,2.442,0,0,0,.1-.606c-.007-.136-.094-.23-.112-.367a2.148,2.148,0,0,1,.034-.376.01.01,0,0,0-.019-.006" transform="translate(162.634 121.806)" fill="#f07854"/>
        <path id="Path_8748" data-name="Path 8748" d="M343.073,259.048a32.356,32.356,0,0,0,12.819-10.114c.678-.9,2.415-3.4,3.494-3.08.622.183.357,1.671.467,2.309a7.714,7.714,0,0,1-.309,2.5,22.259,22.259,0,0,1-4.654,8.829" transform="translate(162.502 116.44)" fill="#ffb191"/>
        <path id="Path_8749" data-name="Path 8749" d="M343.082,259.278c1.126-.458,2.3-.725,3.4-1.254a22.464,22.464,0,0,0,3.19-1.888,29.848,29.848,0,0,0,5.587-5.108c1.132-1.329,2.153-3.342,3.711-4.219.108-.06.245-.057.088-.174.1.075.075.5.08.61.019.436.032.869.057,1.3a8.948,8.948,0,0,1-.573,3.092,21.4,21.4,0,0,1-1.754,4.067c-.721,1.288-1.77,2.43-2.378,3.767-.175.383.209.918.635.635a9.647,9.647,0,0,0,2.632-3.235,23.469,23.469,0,0,0,1.857-3.948,14.9,14.9,0,0,0,.924-3.756,9.113,9.113,0,0,0-.137-2.824,1.318,1.318,0,0,0-1.911-.837,6,6,0,0,0-2.16,1.933,48.057,48.057,0,0,1-5.19,5.877,45.468,45.468,0,0,1-3.958,3.171c-.634.457-1.281.9-1.929,1.332a18.213,18.213,0,0,1-2.185,1.424c-.016.009,0,.037.012.029" transform="translate(162.497 116.224)" fill="#f07854"/>
        <g id="Group_1594" data-name="Group 1594" transform="translate(362.694 321.074)" style="mix-blend-mode: multiply;isolation: isolate">
          <g id="Group_1593" data-name="Group 1593">
            <g id="Group_1592" data-name="Group 1592" clip-path="url(#clip-path-15)">
              <path id="Path_8750" data-name="Path 8750" d="M276.828,243.192a73.269,73.269,0,0,0-13.906-15.972c-4.592-3.814-9.888-6.581-15.148-9.347-1.7.6-1.846,1.617-1.518,4.42a42.9,42.9,0,0,0,1.7,7.8c3.272,10.431,10.4,20.142,20.4,24.954q10.65,5.128,21.3,10.251c-.094-.3-.195-.6-.289-.9a246.085,246.085,0,0,0-12.539-21.2" transform="translate(-246.117 -217.874)" fill="#e873ff"/>
            </g>
          </g>
        </g>
        <path id="Path_8751" data-name="Path 8751" d="M202.305,320.065c-1.818,4.188-3.837,8.668-2.949,13.147.859,4.324,4.387,7.757,8.422,9.532s8.543,2.122,12.949,2.177c11.3.14,22.56-1.494,33.644-3.712,4.1-.821,8.487-1.9,11.221-5.061,1.758-2.035,2.6-4.685,3.392-7.253l4.341-14.023,7.242-23.4a6.488,6.488,0,0,0,.43-2.7c-.208-1.634-1.592-2.835-2.909-3.826a75.308,75.308,0,0,0-41.935-14.772c-4.928-.2-14.48-1.111-18.744,1.985-2.5,1.818-2.42,5.7-2.944,8.444q-1.174,6.158-2.76,12.229a187.066,187.066,0,0,1-9.4,27.232" transform="translate(94.326 127.84)" fill="#ffb191"/>
        <path id="Path_8752" data-name="Path 8752" d="M202.305,320.065c-1.818,4.188-3.837,8.668-2.949,13.147.859,4.324,4.387,7.757,8.422,9.532s8.543,2.122,12.949,2.177c11.3.14,22.56-1.494,33.644-3.712,4.1-.821,8.487-1.9,11.221-5.061,1.758-2.035,2.6-4.685,3.392-7.253l4.341-14.023,7.242-23.4a6.488,6.488,0,0,0,.43-2.7c-.208-1.634-1.592-2.835-2.909-3.826a75.308,75.308,0,0,0-41.935-14.772c-4.928-.2-14.48-1.111-18.744,1.985-2.5,1.818-2.42,5.7-2.944,8.444q-1.174,6.158-2.76,12.229A187.066,187.066,0,0,1,202.305,320.065Z" transform="translate(94.326 127.84)" fill="none" stroke="#f07854" stroke-width="0.808"/>
        <path id="Path_8753" data-name="Path 8753" d="M215.314,250.307c-3.562,8.948-4.389,18.727-4.728,28.265-.2,5.582-.08,11.368-.728,16.915-.564,4.834-1.513,8.673,1.926,12.906,2.656,3.269,6.539,5.277,10.422,6.907a82.6,82.6,0,0,0,53.059,3.77,4.924,4.924,0,0,1,.729-.162,56.443,56.443,0,0,1,15.294-23.12c5.97-5.417,10.613-9.605,8.836-18.136-3.714-17.818-5.094-37.139-18.592-50.7-7.6-7.628-18.663-12.175-29.286-10.438a35.009,35.009,0,0,0-12.961,5.164c-3.189,2.019-7.032,3.162-9.9,5.581-6.988,5.9-10.774,14.754-14.075,23.047" transform="translate(99.137 102.381)" fill="#04c7f4"/>
        <path id="Path_8754" data-name="Path 8754" d="M215.129,288.647c4.562,4.76,13.534,4.389,19.547,3.333A31.936,31.936,0,0,0,250,285.091c10.811-9.3,7.95-23.254-.311-33.215-3.8-4.576-8.183-8.636-12.08-13.13-3.858-4.453-7.846-9.084-13.068-11.887-4.281,5.414-7.088,12.053-9.605,18.374-3.562,8.948-4.387,18.727-4.726,28.265-.053,1.471-.084,2.955-.112,4.446.915,3.908,2.346,7.9,5.033,10.7" transform="translate(99.515 107.456)" fill="#ffb191"/>
        <path id="Path_8755" data-name="Path 8755" d="M215.129,288.647c4.562,4.76,13.534,4.389,19.547,3.333A31.936,31.936,0,0,0,250,285.091c10.811-9.3,7.95-23.254-.311-33.215-3.8-4.576-8.183-8.636-12.08-13.13-3.858-4.453-7.846-9.084-13.068-11.887-4.281,5.414-7.088,12.053-9.605,18.374-3.562,8.948-4.387,18.727-4.726,28.265-.053,1.471-.084,2.955-.112,4.446C211.011,281.852,212.442,285.845,215.129,288.647Z" transform="translate(99.515 107.456)" fill="none" stroke="#f07854" stroke-width="0.808"/>
        <g id="Group_1597" data-name="Group 1597" transform="translate(321.612 383.056)" style="mix-blend-mode: multiply;isolation: isolate">
          <g id="Group_1596" data-name="Group 1596">
            <g id="Group_1595" data-name="Group 1595" clip-path="url(#clip-path-16)">
              <path id="Path_8756" data-name="Path 8756" d="M218.239,259.934c.759,8.933,3.565,17.372,6.08,25.994,2.626,9,5.405,17.892,8.914,26.6a223.516,223.516,0,0,0,16.548,32.939,14.741,14.741,0,0,0,7.215-4.21c1.869-2.163,2.741-4.981,3.51-7.467l1.2-3.88c-2.56-3.795-4.946-7.709-7.253-11.6-11.689-19.694-23.483-39.334-36.215-58.376" transform="translate(-218.239 -259.934)" fill="#e873ff"/>
            </g>
          </g>
        </g>
        <path id="Path_8757" data-name="Path 8757" d="M279.463,344.9c4.629-14.068,5.209-29.666,3.012-44.546a24.482,24.482,0,0,1-4.184,6.331c-9.47,10.385-25.456,12.877-38.113,14.225-9.2.98-38.314,2.5-39.079-11.688a103.593,103.593,0,0,0-5.526,35.677Z" transform="translate(92.613 142.266)" fill="#041446"/>
        <path id="Path_8758" data-name="Path 8758" d="M224.862,231.594a263.193,263.193,0,0,1,33.949,39.951c2.1,3.046,4.2,6.2,7.183,8.4,6.667,4.922,14.622,1.172,16.589-6.555,1.142-4.489.258-9.235-.959-13.7-2.983-10.935-8.222-21.642-16.994-28.819-2.465-2.016-5.323-3.918-6.4-6.916-.784-2.18-.51-4.7-1.656-6.714-1.261-2.212-3.874-3.207-6.293-4.008q-7.624-2.524-15.37-4.655a6.932,6.932,0,0,0-4.01-.276c-3.148,1.068-.753,7.9-1.012,10.6a24.308,24.308,0,0,1-5.025,12.7" transform="translate(106.51 98.567)" fill="#ffb191"/>
        <path id="Path_8759" data-name="Path 8759" d="M224.862,231.594a263.193,263.193,0,0,1,33.949,39.951c2.1,3.046,4.2,6.2,7.183,8.4,6.667,4.922,14.622,1.172,16.589-6.555,1.142-4.489.258-9.235-.959-13.7-2.983-10.935-8.222-21.642-16.994-28.819-2.465-2.016-5.323-3.918-6.4-6.916-.784-2.18-.51-4.7-1.656-6.714-1.261-2.212-3.874-3.207-6.293-4.008q-7.624-2.524-15.37-4.655a6.932,6.932,0,0,0-4.01-.276c-3.148,1.068-.753,7.9-1.012,10.6A24.308,24.308,0,0,1,224.862,231.594Z" transform="translate(106.51 98.567)" fill="none" stroke="#f07854" stroke-width="0.808"/>
        <g id="Group_1600" data-name="Group 1600" transform="translate(338.26 304.327)" style="mix-blend-mode: multiply;isolation: isolate">
          <g id="Group_1599" data-name="Group 1599">
            <g id="Group_1598" data-name="Group 1598" clip-path="url(#clip-path-17)">
              <path id="Path_8760" data-name="Path 8760" d="M236.932,218.155c5.463,5.125,13.428,10.363,21.264,10.134a11.212,11.212,0,0,1-2.572-3.924c-.934-2.6-.607-5.613-1.976-8.017-1.506-2.642-4.627-3.83-7.514-4.786q-8.236-2.728-16.6-5.052a29.924,29.924,0,0,0,7.4,11.645" transform="translate(-229.536 -206.51)" fill="#e873ff"/>
            </g>
          </g>
        </g>
        <path id="Path_8761" data-name="Path 8761" d="M250.393,263.235a245.607,245.607,0,0,0,30.623,69.087c2.881,4.476,7.27,7.482,10.946,11.173,4.6,4.614,8.51,10.124,12.831,15.012,9.832,11.123,17.223,17.624,27.179,28.529,3.254-2.169,8.615-.554,12.195-2.131a26.286,26.286,0,0,0,7.8-4.993,3.248,3.248,0,0,1,.8,4.025c-.625,1.356-1.276,2.488-4.075,4.294-1.254.811-1.357.292-1.892,1.686,1.515,3.388,7.622,7.812,9.07,8.459,1.913.853,3.7.88,5.746,1.167a6.289,6.289,0,0,1,2.827.856c.575.407,1.325,1.493.936,2.24-.421.81-1.978.99-2.757.84a24.431,24.431,0,0,0-5.164.245,11.343,11.343,0,0,1-2.586-1.307c-1.082-.746-2.178-1.248-3.434-2.185,6.107,3.944,6.1,3.759,11.024,4.366,1.312.161,2.723.365,3.6,1.427a1.2,1.2,0,0,1,0,1.844,2.4,2.4,0,0,1-2.216.587c-2.46-.184-6.13-.8-8.092-.548a19.632,19.632,0,0,1-7.507-4.088,33.3,33.3,0,0,0,5.044,3.335c1.621.819,5.1,1.3,7.619,2.04.694.2,1.483.491,1.727,1.173a1.6,1.6,0,0,1-1.13,1.875,4.656,4.656,0,0,1-2.406-.062c-1.556-.318-3.267-.087-4.875-.5-3.2-.824-5.781-2.5-8.939-4.321,1.587.915,2.485,1.991,3.992,3.034,1.655,1.141,4.481,1.241,5.478,2.3a1.9,1.9,0,0,1,.109,2.629c-.6.514-2-.5-2.784-.567-3.445-.32-6.777-2.788-9.508-4.839-2.334-1.755-11.422-6.8-14.268-8.813-9.334-8.982-23.3-18.2-33.3-26.193-9.859-7.883-19.889-15.8-27.555-25.94q-18.1-23.935-34.024-49.406c-5.389-8.617-10.534-17.373-15.574-26.2-4.627-8.1-4.646-18.727-3.444-27.842" transform="translate(101.24 116.297)" fill="#ffb191"/>
        <path id="Path_8762" data-name="Path 8762" d="M250.393,263.235a245.607,245.607,0,0,0,30.623,69.087c2.881,4.476,7.27,7.482,10.946,11.173,4.6,4.614,8.51,10.124,12.831,15.012,9.832,11.123,17.223,17.624,27.179,28.529,3.254-2.169,8.615-.554,12.195-2.131a26.286,26.286,0,0,0,7.8-4.993,3.248,3.248,0,0,1,.8,4.025c-.625,1.356-1.276,2.488-4.075,4.294-1.254.811-1.357.292-1.892,1.686,1.515,3.388,7.622,7.812,9.07,8.459,1.913.853,3.7.88,5.746,1.167a6.289,6.289,0,0,1,2.827.856c.575.407,1.325,1.493.936,2.24-.421.81-1.978.99-2.757.84a24.431,24.431,0,0,0-5.164.245,11.343,11.343,0,0,1-2.586-1.307c-1.082-.746-2.178-1.248-3.434-2.185,6.107,3.944,6.1,3.759,11.024,4.366,1.312.161,2.723.365,3.6,1.427a1.2,1.2,0,0,1,0,1.844,2.4,2.4,0,0,1-2.216.587c-2.46-.184-6.13-.8-8.092-.548a19.632,19.632,0,0,1-7.507-4.088,33.3,33.3,0,0,0,5.044,3.335c1.621.819,5.1,1.3,7.619,2.04.694.2,1.483.491,1.727,1.173a1.6,1.6,0,0,1-1.13,1.875,4.656,4.656,0,0,1-2.406-.062c-1.556-.318-3.267-.087-4.875-.5-3.2-.824-5.781-2.5-8.939-4.321,1.587.915,2.485,1.991,3.992,3.034,1.655,1.141,4.481,1.241,5.478,2.3a1.9,1.9,0,0,1,.109,2.629c-.6.514-2-.5-2.784-.567-3.445-.32-6.777-2.788-9.508-4.839-2.334-1.755-11.422-6.8-14.268-8.813-9.334-8.982-23.3-18.2-33.3-26.193-9.859-7.883-19.889-15.8-27.555-25.94q-18.1-23.935-34.024-49.406c-5.389-8.617-10.534-17.373-15.574-26.2-4.627-8.1-4.646-18.727-3.444-27.842" transform="translate(101.24 116.297)" fill="none" stroke="#f07854" stroke-linecap="round" stroke-linejoin="round" stroke-width="0.865"/>
        <path id="Path_8763" data-name="Path 8763" d="M272.06,234.365a8.205,8.205,0,0,1-4.772-4.259,9.639,9.639,0,0,1-.541-6.549c1.259-5.313,4.922-9.894,4.888-15.531a10.653,10.653,0,0,0-2.526-6.8c-1.35-1.653-3.092-3-4.31-4.756A4.971,4.971,0,0,1,263.783,194c-.087-1.347.588-2.642.967-3.9a12.229,12.229,0,0,0-.355-7.76c-2.174-5.849-7.479-10.137-12.5-13.537-1.269-.859-2.883,1.179-1.658,2.15,4.285,3.4,9.342,6.525,11.5,11.822a10.478,10.478,0,0,1,.134,7.7c-.815,2.412-1,4.7.43,6.923a34.323,34.323,0,0,0,4.424,4.8,8.474,8.474,0,0,1,2.6,6.595c-.3,5.646-4.294,10.311-4.959,15.9a10.012,10.012,0,0,0,1.7,6.969,7.878,7.878,0,0,0,2.554,2.417,8.439,8.439,0,0,0,3.351.872c.333.032.388-.488.078-.572" transform="translate(118.323 79.856)" fill="#041446"/>
        <path id="Path_8764" data-name="Path 8764" d="M272.666,187.006c.691,2.65,1.189,5.38,1.705,8.127a45.419,45.419,0,0,0,1.146,4.848,56.209,56.209,0,0,1,2.183,7.29c.41,2.547.084,5.293.186,7.884.23,5.87.393,11.794-.626,17.6-.688,3.917-1.177,5.047-5.074,6.363a38.3,38.3,0,0,1-10.258,1.544c-7.734.4-16.028.659-22.575-3.475-8-5.052-11.029-15.115-12.858-24.4-1.748-8.866-2.962-18.064-1.052-26.9s7.472-17.32,15.892-20.6c10.243-4,20.079,2.628,26.19,10.526a30.2,30.2,0,0,1,5.142,11.188" transform="translate(106.326 77.725)" fill="#ffb191"/>
        <path id="Path_8765" data-name="Path 8765" d="M272.666,187.006c.691,2.65,1.189,5.38,1.705,8.127a45.419,45.419,0,0,0,1.146,4.848,56.209,56.209,0,0,1,2.183,7.29c.41,2.547.084,5.293.186,7.884.23,5.87.393,11.794-.626,17.6-.688,3.917-1.177,5.047-5.074,6.363a38.3,38.3,0,0,1-10.258,1.544c-7.734.4-16.028.659-22.575-3.475-8-5.052-11.029-15.115-12.858-24.4-1.748-8.866-2.962-18.064-1.052-26.9s7.472-17.32,15.892-20.6c10.243-4,20.079,2.628,26.19,10.526A30.2,30.2,0,0,1,272.666,187.006Z" transform="translate(106.326 77.725)" fill="none" stroke="#f07854" stroke-width="0.964"/>
        <path id="Path_8766" data-name="Path 8766" d="M242.738,195.3c.834-.613,1.646-1.225,2.454-1.875s1.655-1.256,2.505-1.849q1.251-.873,2.582-1.624c.455-.256.927-.483,1.384-.737a15.561,15.561,0,0,0,1.351-.956.548.548,0,0,0-.42-1A9.411,9.411,0,0,0,251,187.7a14.2,14.2,0,0,0-1.4.743,31.718,31.718,0,0,0-2.791,1.782,24.9,24.9,0,0,0-2.505,2.066,13.647,13.647,0,0,0-2.094,2.48c-.208.314.218.765.533.533" transform="translate(114.698 88.692)" fill="#041446"/>
        <path id="Path_8767" data-name="Path 8767" d="M260.787,180.67q-.55.2-1.082.454c-.287.136-.653.264-.971.419a7.492,7.492,0,0,0-1.835,1.36,10.577,10.577,0,0,0-1.456,1.724,5.5,5.5,0,0,0-.519.911,3.225,3.225,0,0,0-.234.729,1.208,1.208,0,0,0,.125.709.6.6,0,0,0,.66.268,1.652,1.652,0,0,0,.967-.769c.038-.05.035-.046-.009.012l.08-.1c.077-.1.155-.192.227-.292.1-.143.2-.287.305-.429.171-.233-.116.14.063-.083.055-.069.109-.137.165-.2.1-.124.209-.243.312-.365.217-.256.439-.508.673-.749.469-.477.987-.9,1.472-1.359a6.178,6.178,0,0,1,.634-.567,9.722,9.722,0,0,1,.9-.542c.6-.329.192-1.373-.474-1.126" transform="translate(120.633 85.56)" fill="#041446"/>
        <path id="Path_8768" data-name="Path 8768" d="M253.675,209.351c2.025.951,4.478.072,6.374-.861a13.6,13.6,0,0,0,2.751-1.824,8.911,8.911,0,0,0,2.268-2.6c.516-1.015-.774-2.135-1.63-1.257-.706.724-1.307,1.524-2.072,2.194a13.034,13.034,0,0,1-2.39,1.648,15.292,15.292,0,0,1-2.623,1.079c-.477.155-.961.293-1.443.438a5.084,5.084,0,0,0-1.235.569.357.357,0,0,0,0,.612" transform="translate(120.075 95.915)" fill="#f07854"/>
        <path id="Path_8769" data-name="Path 8769" d="M249.872,197.913c-3.279-.632-2.3-5.73.983-5.1s2.3,5.73-.983,5.1" transform="translate(117.397 91.305)" fill="#041446"/>
        <path id="Path_8770" data-name="Path 8770" d="M258.413,192.042c-3.28-.632-2.3-5.73.981-5.1s2.3,5.73-.981,5.1" transform="translate(121.442 88.525)" fill="#041446"/>
        <path id="Path_8771" data-name="Path 8771" d="M253.9,187.494a18.224,18.224,0,0,0,8.658,9.813,5.893,5.893,0,0,1,2.309,1.55c2.259,3-1.222,5.479-2.772,7.169" transform="translate(120.263 88.81)" fill="#ffb191"/>
        <path id="Path_8772" data-name="Path 8772" d="M253.9,187.494a18.224,18.224,0,0,0,8.658,9.813,5.893,5.893,0,0,1,2.309,1.55c2.259,3-1.222,5.479-2.772,7.169" transform="translate(120.263 88.81)" fill="none" stroke="#f07854" stroke-linecap="round" stroke-width="1.211"/>
        <path id="Path_8773" data-name="Path 8773" d="M248.054,212.531c.249-.337.492-.678.709-1.035,1.705-2.821.9-6.1.812-9.241a22.107,22.107,0,0,0,15.961-19.007,24.821,24.821,0,0,0-.361-8.642c5.626,2.927,11.8,5.377,16.48,9.717-2.8-7.436-7.172-14.193-13.978-18.477a48.179,48.179,0,0,0-21.924-7.638c-7.545-.741-15.426.531-21.9,4.484-9.372,5.731-15.516,17.538-15.555,28.495-.006,1.4.01,2.806.056,4.207.433,13.111,7.1,23.055,8.375,35.825,1.223,12.282.243,21.448-5.2,32.27-5.659,11.244-6.332,24.419-5.8,36.772.688,15.91,3.078,32.213-1.373,47.5.566-1.932,4.546-4.07,5.738-6.13a72.7,72.7,0,0,0,3.843-9.075c2.439-6.122,3.958-12.647,3.115-19.25-1.475-11.561-2.694-24.719,3.043-35.545,4.6-8.68,12.447-14.946,17.933-22.989,2.075-3.042,4.835-6.819,6.2-10.243,1.97-4.959-.587-8.917-2.676-13.176-1.44-2.936-3.3-7.32-.833-10.177a1.946,1.946,0,0,1,1.07-.716,2.067,2.067,0,0,1,1.88,1.126,5.038,5.038,0,0,0,1.459,1.773c.675.38,1.783.055,1.78-.719-.7-2.682-1.387-5.641-.164-8.129a13.19,13.19,0,0,1,1.312-1.982" transform="translate(96.797 74.843)" fill="#041446"/>
        <path id="Path_8774" data-name="Path 8774" d="M241,211.474c1.536,5.081.245,11.131-2.141,15.762-2.539,4.928-6.4,8.911-10.3,12.775-3.969,3.929-8.073,7.749-11.356,12.293a37.715,37.715,0,0,0-6.288,14.667,52.244,52.244,0,0,0-.993,9.135,35.07,35.07,0,0,0,.165,4.417,10.108,10.108,0,0,0,1.065,4.464.782.782,0,0,0,1.41-.184,11.433,11.433,0,0,0,.327-3.966c0-1.366.013-2.734.029-4.1a48.669,48.669,0,0,1,.694-7.892,36.62,36.62,0,0,1,6.054-14.915c6.41-9.063,16.483-15.211,21.345-25.44a25.157,25.157,0,0,0,2.417-8.73,16.731,16.731,0,0,0-1.768-8.563c-.175-.37-.772-.109-.656.276" transform="translate(99.425 99.953)" fill="#041446"/>
        <path id="Path_8775" data-name="Path 8775" d="M209.93,178.569a29.186,29.186,0,0,0-2.635,20.6c.828,3.507,2.529,6.63,4.094,9.844,1.425,2.93,2.672,6.147,1.818,9.431-1.4,5.379-6.323,9.417-6.051,15.31.162,3.518,2.1,6.651,2.975,10,.669,2.583,1.169,5.491.152,8.015-.671,1.667-1.839,3.071-2.451,4.764a16.327,16.327,0,0,0-.688,5.908c.05,2.221.15,4.44.228,6.659a29.165,29.165,0,0,0,.654,7.133,1.241,1.241,0,0,0,2.374,0,25.084,25.084,0,0,0,.2-6.058c-.062-2.029-.149-4.058-.224-6.088a23.844,23.844,0,0,1,.112-5.248,16.265,16.265,0,0,1,2.034-4.452,12.569,12.569,0,0,0,1.306-7.735,27.619,27.619,0,0,0-1.136-5.246c-.566-1.683-1.285-3.311-1.839-5a9.837,9.837,0,0,1,.576-7.684c1.192-2.536,2.775-4.865,3.821-7.474a13.415,13.415,0,0,0,.318-9.207c-1.067-3.348-3.012-6.3-4.417-9.5a29.141,29.141,0,0,1,.175-23.151c.414-.931-.893-1.755-1.4-.818" transform="translate(97.808 84.386)" fill="#041446"/>
        <path id="Path_8776" data-name="Path 8776" d="M204.079,309.968c2.616-.791,3.977-3.3,4.586-5.83a19.068,19.068,0,0,0-.2-8.759c-.83-3.662-2.336-7.259-2.06-11.085.245-3.409,2.359-6.324,3.649-9.39a13.866,13.866,0,0,0,.71-9.138,50.64,50.64,0,0,0-3.468-8.334c-1.142-2.461-2.225-5.211-1.842-7.978.413-2.974,2.42-5.435,4.341-7.612a51.516,51.516,0,0,0,6.851-8.954,28.614,28.614,0,0,0,3.865-11.536c.109-1.757-2.557-2.043-3.017-.408-.48,1.705-.816,3.437-1.381,5.12a30.653,30.653,0,0,1-1.917,4.489,39.459,39.459,0,0,1-5.853,8.034,26.678,26.678,0,0,0-5.373,7.694,13.054,13.054,0,0,0-.09,8.8,67.864,67.864,0,0,0,3.577,8.033c1.116,2.4,2.085,5.049,1.7,7.735-.467,3.227-2.486,6.032-3.65,9.023a17.165,17.165,0,0,0-.251,10.615c.9,3.591,2.4,7.06,2.5,10.8a11.282,11.282,0,0,1-.626,4.369,10.7,10.7,0,0,1-2.486,3.569.448.448,0,0,0,.433.743" transform="translate(95.759 104.142)" fill="#041446"/>
        <path id="Path_8777" data-name="Path 8777" d="M233.409,198.178a11.2,11.2,0,0,0,7.617.687,14.792,14.792,0,0,0,7.025-4.117c4.168-4.349,5.436-10.795,4.677-16.6a31.246,31.246,0,0,0-1.238-5.5c-.27-.843-.572-1.677-.9-2.5a8.011,8.011,0,0,0-1.394-2.681c-1.017-1.065-2.39.093-2.228,1.3a7.521,7.521,0,0,0,.806,2.031q.444.968.827,1.96a33.084,33.084,0,0,1,1.329,4.277,22.106,22.106,0,0,1,.47,8.115c-.709,5.075-3.414,9.921-8.267,12.046a12.8,12.8,0,0,1-8.569.617c-.215-.066-.368.273-.156.37" transform="translate(110.51 79.124)" fill="#041446"/>
        <path id="Path_8778" data-name="Path 8778" d="M238.471,214.093a4,4,0,0,1-2.713,1.936,8.149,8.149,0,0,1-3.416-.1,17.758,17.758,0,0,1-12.588-10.351c-.825-1.972-1.174-4.52.348-6.021,1.315-1.3,3.456-1.216,5.236-.721a15.526,15.526,0,0,1,9.132,7.018" transform="translate(103.756 94.025)" fill="#ffb191"/>
        <path id="Path_8779" data-name="Path 8779" d="M238.471,214.093a4,4,0,0,1-2.713,1.936,8.149,8.149,0,0,1-3.416-.1,17.758,17.758,0,0,1-12.588-10.351c-.825-1.972-1.174-4.52.348-6.021,1.315-1.3,3.456-1.216,5.236-.721a15.526,15.526,0,0,1,9.132,7.018" transform="translate(103.756 94.025)" fill="none" stroke="#f07854" stroke-linecap="round" stroke-linejoin="round" stroke-width="1.06"/>
        <path id="Path_8780" data-name="Path 8780" d="M222.853,203.664a1.2,1.2,0,0,1,.286-1.736,1.936,1.936,0,0,1,1.913-.016,5.454,5.454,0,0,1,1.519,1.289q2.1,2.3,4.01,4.764a1.963,1.963,0,0,0,2.521,2.943" transform="translate(105.435 95.523)" fill="none" stroke="#f07854" stroke-linecap="round" stroke-linejoin="round" stroke-width="1.06"/>
        <g id="Group_1603" data-name="Group 1603" transform="translate(409.019 685.507)" opacity="0.5" style="mix-blend-mode: multiply;isolation: isolate">
          <g id="Group_1602" data-name="Group 1602">
            <g id="Group_1601" data-name="Group 1601" clip-path="url(#clip-path-18)">
              <path id="Path_8781" data-name="Path 8781" d="M455.936,479.883H284.907a7.356,7.356,0,0,1,0-14.712H455.936a7.356,7.356,0,0,1,0,14.712" transform="translate(-277.552 -465.171)" fill="#92bcf7"/>
            </g>
          </g>
        </g>
        <g id="Group_1606" data-name="Group 1606" transform="translate(528.995 657.995)" opacity="0.5" style="mix-blend-mode: multiply;isolation: isolate">
          <g id="Group_1605" data-name="Group 1605">
            <g id="Group_1604" data-name="Group 1604" clip-path="url(#clip-path-19)">
              <path id="Path_8782" data-name="Path 8782" d="M607.277,461.214H366.321a7.356,7.356,0,1,1,0-14.712H607.277a7.356,7.356,0,0,1,0,14.712" transform="translate(-358.965 -446.502)" fill="#92bcf7"/>
            </g>
          </g>
        </g>
        <path id="Path_8783" data-name="Path 8783" d="M274.331,443.594c0,53.845,44.674,62.6,98.519,62.6s96.469-8.757,96.469-62.6-43.65-49.26-97.495-49.26-97.493-4.585-97.493,49.26" transform="translate(129.941 186.737)" fill="#04c7f4"/>
        <path id="Path_8784" data-name="Path 8784" d="M317.9,404.211c1.335,2.994,4.451,4.826,7.741,5.457a17.071,17.071,0,0,0,6-.113,35.648,35.648,0,0,1,6.746.164l15.42.839c6.054.329,12.809.424,17.316-3.631,2.321-2.088,3.294-3.879,6.5-3.6,3.167.274,6.658.343,9.688-.737a9.169,9.169,0,0,0,4.579-3.5c.365-.562,2.02-3.7,1.67-4.256-.457-.722-5.5-.32-6.413-.343q-3.318-.091-6.637-.119c-9.625-.1-19.251.068-28.876.068-10.409,0-21.2-.948-31.575-.031-3.949.348-3.164,4.417-2.776,7.56a7.8,7.8,0,0,0,.617,2.241" transform="translate(150.13 186.629)" fill="#04c7f4"/>
        <path id="Path_8785" data-name="Path 8785" d="M475.475,301.314c-5.19-8.233-15.724-25.332-18.8-34.954-4.4-13.757,1.633-28.39,7.178-41.924.223-.928.445-1.855.673-2.762.51-2.026-17.8-6.864-19.561-7.48a85.736,85.736,0,0,0-22.574-4.6c-5.031-.335-9.8-.153-14.728-.939a35.319,35.319,0,0,0-15.739,1.577c-3.133,1-6.344,2.592-7.911,5.5a10.083,10.083,0,0,0-1.036,5.206c.075,2.019,2.129,5.055,2.869,6.982a165.564,165.564,0,0,1,9.129,35.82c1.214,8.444,1.589,17.668-2.471,25.455-.834,1.6-3.394,5.24-2.464,7.159a48.946,48.946,0,0,0,39.008,26.973,48.166,48.166,0,0,0,27.079-5.87c4.341-2.377,11.794-.4,15.232-3.979,5.046-5.255,7.754-6.4,4.116-12.17" transform="translate(181.399 98.682)" fill="#ff8c5e"/>
        <path id="Path_8786" data-name="Path 8786" d="M475.475,301.314c-5.19-8.233-15.724-25.332-18.8-34.954-4.4-13.757,1.633-28.39,7.178-41.924.223-.928.445-1.855.673-2.762.51-2.026-17.8-6.864-19.561-7.48a85.736,85.736,0,0,0-22.574-4.6c-5.031-.335-9.8-.153-14.728-.939a35.319,35.319,0,0,0-15.739,1.577c-3.133,1-6.344,2.592-7.911,5.5a10.083,10.083,0,0,0-1.036,5.206c.075,2.019,2.129,5.055,2.869,6.982a165.564,165.564,0,0,1,9.129,35.82c1.214,8.444,1.589,17.668-2.471,25.455-.834,1.6-3.394,5.24-2.464,7.159a48.946,48.946,0,0,0,39.008,26.973,48.166,48.166,0,0,0,27.079-5.87c4.341-2.377,11.794-.4,15.232-3.979C476.4,308.229,479.113,307.086,475.475,301.314Z" transform="translate(181.399 98.682)" fill="none" stroke="#ef714b" stroke-linecap="round" stroke-linejoin="round" stroke-width="0.851"/>
        <g id="Group_1609" data-name="Group 1609" transform="translate(563.739 306.39)" style="mix-blend-mode: multiply;isolation: isolate">
          <g id="Group_1608" data-name="Group 1608">
            <g id="Group_1607" data-name="Group 1607" clip-path="url(#clip-path-20)">
              <path id="Path_8787" data-name="Path 8787" d="M403.294,221.841a88.076,88.076,0,0,1,14.1,1.269,130.894,130.894,0,0,1,27.482,7.95q3.473,1.388,6.885,2.919a57.045,57.045,0,0,1,7.01,3.661c1.51-4.47,3.31-8.9,5.075-13.206.223-.928.445-1.855.673-2.762.51-2.026-17.8-6.863-19.561-7.48a85.785,85.785,0,0,0-22.572-4.6c-5.033-.333-9.8-.153-14.729-.939a35.3,35.3,0,0,0-15.739,1.578c-3.133,1-6.344,2.591-7.909,5.5a10.072,10.072,0,0,0-1.036,5.208c.059,1.6,1.023,2.989,1.783,4.336-.059-.106,3.948-1.444,4.247-1.531a50.735,50.735,0,0,1,14.286-1.907" transform="translate(-382.34 -207.709)" fill="#e873ff"/>
              <path id="Path_8788" data-name="Path 8788" d="M403.294,221.841a88.076,88.076,0,0,1,14.1,1.269,130.894,130.894,0,0,1,27.482,7.95q3.473,1.388,6.885,2.919a57.045,57.045,0,0,1,7.01,3.661c1.51-4.47,3.31-8.9,5.075-13.206.223-.928.445-1.855.673-2.762.51-2.026-17.8-6.863-19.561-7.48a85.785,85.785,0,0,0-22.572-4.6c-5.033-.333-9.8-.153-14.729-.939a35.3,35.3,0,0,0-15.739,1.578c-3.133,1-6.344,2.591-7.909,5.5a10.072,10.072,0,0,0-1.036,5.208c.059,1.6,1.023,2.989,1.783,4.336-.059-.106,3.948-1.444,4.247-1.531A50.735,50.735,0,0,1,403.294,221.841Z" transform="translate(-382.34 -207.709)" fill="none" stroke="#04c7f4" stroke-linecap="round" stroke-linejoin="round" stroke-width="0.851"/>
            </g>
          </g>
        </g>
        <path id="Path_8789" data-name="Path 8789" d="M401.918,259.635a2.42,2.42,0,0,1,.252.15c.028.018.055.038.083.057l.04.029c.074.055.055.04-.059-.046a1.249,1.249,0,0,0,.18.159c.083.08.153.175.236.253-.034-.046-.068-.091-.1-.136.056.071.112.143.167.215.034.038.071.072.1.111s.065.08.1.118c-.3-.323.013.019.063.081a1.509,1.509,0,0,0,.1.119c-.227-.236-.108-.141-.05-.062s.114.171.165.261.083.152.119.23.068.248-.032-.081c.015.049.037.1.053.146a4.74,4.74,0,0,1,.136.55c-.09-.419-.013-.071-.009.05,0,.085,0,.171,0,.255a.615.615,0,0,0-.013.152s.055-.326.019-.161c-.022.108-.052.214-.077.32l-.009.024c-.05.385-.056.419-.013.1-.012.049-.019.1-.028.15a1.144,1.144,0,0,0-.019.5c.007.049.013.1.021.147.034.1.029.046-.013-.156a1.194,1.194,0,0,0,.318.746.961.961,0,0,0,.7.27l.27-.037a.987.987,0,0,0,.262-.113l.018-.01q-.413.17.078-.035a1.422,1.422,0,0,0,.5-.541,2.534,2.534,0,0,0,.29-1.048,4.109,4.109,0,0,0-.679-2.678,3.078,3.078,0,0,0-1.443-1.229,2.81,2.81,0,0,0-1.555-.124.7.7,0,0,0-.165,1.266" transform="translate(190.218 122.355)" fill="#ef714b"/>
        <path id="Path_8790" data-name="Path 8790" d="M507.3,465.838c-.009.14-.016.281-.022.422-.081,1.879.23,4.058,1.827,5.049,1.279.793,3.045.653,4.492.734,4.5.255,9.144.9,13.711,1.157,4.019.225,9.576.9,12.755-2.162,3.594-3.459,3.641-9.022,4.147-13.642.722-6.592,1.521-13.179,1.947-19.8a76.107,76.107,0,0,0,.043-13.416,16.57,16.57,0,0,0-1.418-6.1c-.962-1.78-2.6-3.036-4.039-4.411a68.69,68.69,0,0,1-6.175-7.2,11.439,11.439,0,0,0-2.6-2.632c-1.892-1.226-3.32-1-4.324.777a17.719,17.719,0,0,1-4.322,5.47c-3.413,2.723-8.1,4.129-10.266,7.921-1.326,2.321-1.434,5.128-1.348,7.8a149.983,149.983,0,0,0,2,17.49,14.969,14.969,0,0,1,.055,6.166c-.554,2.017-1.911,3.7-3.009,5.481a23.657,23.657,0,0,0-3.447,10.889" transform="translate(240.277 190.922)" fill="#041446"/>
        <path id="Path_8791" data-name="Path 8791" d="M515.048,420.281c1.889,2.126,4.9,1.78,7.5,1.854a13.667,13.667,0,0,1,3.843.491c1,.292,2.007,1.113,3.037,1.281,4.842.793,6.1-1.431,6.721-4.713a9.35,9.35,0,0,0-1.145-6.611c-2.183-3.762-5.772-6.2-7.94-9.5a2.5,2.5,0,0,0-2.306,1.536,17.7,17.7,0,0,1-4.321,5.47c-2.066,1.649-4.592,2.819-6.749,4.322-.865,1.948.057,4.409,1.357,5.871" transform="translate(243.158 190.925)" fill="#fff"/>
        <path id="Path_8792" data-name="Path 8792" d="M546.191,420.122a16.556,16.556,0,0,0-1.418-6.094,10.337,10.337,0,0,0-1.879-2.392,24.969,24.969,0,0,1,.755,4.442,76.129,76.129,0,0,1-.044,13.418c-.424,6.62-1.225,13.207-1.945,19.8-.507,4.621-.554,10.183-4.148,13.642-3.177,3.058-8.736,2.387-12.753,2.162-4.567-.256-9.215-.9-13.712-1.155a14.041,14.041,0,0,1-3.752-.423,4.55,4.55,0,0,0,1.8,3.731c1.281.793,3.046.653,4.492.734,4.5.255,9.146.9,13.711,1.157,4.019.225,9.577.9,12.755-2.162,3.594-3.459,3.641-9.022,4.147-13.642.722-6.592,1.522-13.179,1.947-19.8a76.13,76.13,0,0,0,.044-13.418" transform="translate(240.288 194.979)" fill="#fff"/>
        <path id="Path_8793" data-name="Path 8793" d="M526.739,434.956a6.3,6.3,0,0,0,.862,1.095,10.206,10.206,0,0,0,6.718,3.046c3.322.085,6.742-2.18,7.382-5.439.5-2.521-.628-5.05-1.721-7.376-4.555-9.686-24.671-34.2-28.429-44.217a29.264,29.264,0,0,0-3.383-6.31,9.824,9.824,0,0,0-5.843-3.883,9.285,9.285,0,0,0-8.061,3.012,18.378,18.378,0,0,0-4.075,7.883c-1.544,5.513-3.384,15.764,1.5,19.974,5.062,4.362,25.335,23.5,30.483,27.758a25.543,25.543,0,0,1,3.6,3.04,15.066,15.066,0,0,1,.959,1.418" transform="translate(231.399 176.091)" fill="#ff8c5e"/>
        <path id="Path_8794" data-name="Path 8794" d="M526.739,434.956a6.3,6.3,0,0,0,.862,1.095,10.206,10.206,0,0,0,6.718,3.046c3.322.085,6.742-2.18,7.382-5.439.5-2.521-.628-5.05-1.721-7.376-4.555-9.686-24.671-34.2-28.429-44.217a29.264,29.264,0,0,0-3.383-6.31,9.824,9.824,0,0,0-5.843-3.883,9.285,9.285,0,0,0-8.061,3.012,18.378,18.378,0,0,0-4.075,7.883c-1.544,5.513-3.384,15.764,1.5,19.974,5.062,4.362,25.335,23.5,30.483,27.758a25.543,25.543,0,0,1,3.6,3.04A15.066,15.066,0,0,1,526.739,434.956Z" transform="translate(231.399 176.091)" fill="none" stroke="#ef714b" stroke-linecap="round" stroke-linejoin="round" stroke-width="1.033"/>
        <g id="Group_1612" data-name="Group 1612" transform="translate(719.157 547.08)" style="mix-blend-mode: multiply;isolation: isolate">
          <g id="Group_1611" data-name="Group 1611">
            <g id="Group_1610" data-name="Group 1610" clip-path="url(#clip-path-21)">
              <path id="Path_8795" data-name="Path 8795" d="M495.945,406.336c9.745-4.193,14.084-16.807,13.668-28.322a18.009,18.009,0,0,0-1.446-2.258,9.826,9.826,0,0,0-5.843-3.885,9.287,9.287,0,0,0-8.061,3.012,18.387,18.387,0,0,0-4.075,7.883c-1.544,5.513-3.384,15.765,1.5,19.976,1.406,1.211,2.832,2.4,4.252,3.594" transform="translate(-487.757 -370.989)" fill="#1a134d"/>
              <path id="Path_8796" data-name="Path 8796" d="M495.945,406.336c9.745-4.193,14.084-16.807,13.668-28.322a18.009,18.009,0,0,0-1.446-2.258,9.826,9.826,0,0,0-5.843-3.885,9.287,9.287,0,0,0-8.061,3.012,18.387,18.387,0,0,0-4.075,7.883c-1.544,5.513-3.384,15.765,1.5,19.976C493.1,403.953,494.526,405.14,495.945,406.336Z" transform="translate(-487.757 -370.989)" fill="#1a134d" stroke="#e873ff" stroke-linecap="round" stroke-linejoin="round" stroke-width="1.046"/>
            </g>
          </g>
        </g>
        <path id="Path_8797" data-name="Path 8797" d="M517.332,415.85c4.449-.6,9.37-1.105,13.067,1.44a9.385,9.385,0,0,1,3.528,10.266,36.422,36.422,0,0,1-16.123.318c-1.73-.357-4.206-.787-4.692-2.806a9.733,9.733,0,0,1,.028-2.141c-.013-1.068-.373-2.065-.424-3.12-.14-2.825,2.241-3.634,4.617-3.957" transform="translate(242.853 196.743)" fill="#041446"/>
        <path id="Path_8798" data-name="Path 8798" d="M514.059,424.9a36.06,36.06,0,0,1,15.6-.1" transform="translate(243.493 200.833)" fill="none" stroke="#fff" stroke-linecap="round" stroke-linejoin="round" stroke-width="1.525"/>
        <path id="Path_8799" data-name="Path 8799" d="M513.7,430.063a28.924,28.924,0,0,1,16-.043" transform="translate(243.321 203.162)" fill="none" stroke="#fff" stroke-linecap="round" stroke-linejoin="round" stroke-width="1.525"/>
        <path id="Path_8800" data-name="Path 8800" d="M513.405,434.284a29.763,29.763,0,0,1,16.237.965" transform="translate(243.183 205.374)" fill="none" stroke="#fff" stroke-linecap="round" stroke-linejoin="round" stroke-width="1.525"/>
        <path id="Path_8801" data-name="Path 8801" d="M346.616,411.588a11.033,11.033,0,0,0,6.774,6.539c11.646,3.6,10.19-10.684,10.8-17.341a227.153,227.153,0,0,1,7.317-39.481c2.675-9.731,6.327-19.859,6.528-30.724.071-3.756.332-10.047-1.4-13.471-2.1-4.135-8.636-6.431-12.628-7.34a25.19,25.19,0,0,0-13.3.582c-3.493,1.126-7.217,3-9.044,6.615a17.518,17.518,0,0,0-1.544,7.886c0,.722.025,1.443.066,2.16.233,4.082,5.405,82,6.431,84.575" transform="translate(161.103 146.43)" fill="#ff8c5e"/>
        <path id="Path_8802" data-name="Path 8802" d="M346.616,411.588a11.033,11.033,0,0,0,6.774,6.539c11.646,3.6,10.19-10.684,10.8-17.341a227.153,227.153,0,0,1,7.317-39.481c2.675-9.731,6.327-19.859,6.528-30.724.071-3.756.332-10.047-1.4-13.471-2.1-4.135-8.636-6.431-12.628-7.34a25.19,25.19,0,0,0-13.3.582c-3.493,1.126-7.217,3-9.044,6.615a17.518,17.518,0,0,0-1.544,7.886c0,.722.025,1.443.066,2.16C340.418,331.095,345.591,409.011,346.616,411.588Z" transform="translate(161.103 146.43)" fill="none" stroke="#ef714b" stroke-linecap="round" stroke-linejoin="round" stroke-width="0.935"/>
        <g id="Group_1615" data-name="Group 1615" transform="translate(500.547 454.884)" style="mix-blend-mode: multiply;isolation: isolate">
          <g id="Group_1614" data-name="Group 1614">
            <g id="Group_1613" data-name="Group 1613" clip-path="url(#clip-path-22)">
              <path id="Path_8803" data-name="Path 8803" d="M358.015,325.1c5.32,1.836,14.053,6.459,19.523,11.584a56.18,56.18,0,0,0,.489-6.108c.071-3.756.332-10.049-1.4-13.471-2.094-4.137-8.634-6.431-12.626-7.34a25.175,25.175,0,0,0-13.3.582c-3.493,1.126-7.216,3-9.044,6.615a17.017,17.017,0,0,0-1.53,7.457c5.08-2.362,13.633-.787,17.886.681" transform="translate(-339.439 -308.454)" fill="#1a134d"/>
              <path id="Path_8804" data-name="Path 8804" d="M358.015,325.1c5.32,1.836,14.053,6.459,19.523,11.584a56.18,56.18,0,0,0,.489-6.108c.071-3.756.332-10.049-1.4-13.471-2.094-4.137-8.634-6.431-12.626-7.34a25.175,25.175,0,0,0-13.3.582c-3.493,1.126-7.216,3-9.044,6.615a17.017,17.017,0,0,0-1.53,7.457C345.209,322.062,353.762,323.637,358.015,325.1Z" transform="translate(-339.439 -308.454)" fill="#1a134d" stroke="#e873ff" stroke-linecap="round" stroke-linejoin="round" stroke-width="0.936"/>
            </g>
          </g>
        </g>
        <path id="Path_8805" data-name="Path 8805" d="M376.966,375.551a31.763,31.763,0,0,1-.332,3.913c-.141,1.02-.684,1.4-1.7,1.438a4.766,4.766,0,0,1-3.089-1.41,31.437,31.437,0,0,0-2.965-2.446c-2.635-1.721-3.761-.393-6.01,1.2-2.7-2.826-5.943-5.876-9.818-5.59-3.519.261-4.977,2.874-7.069,5.329q-3.711,4.355-7.662,8.491a200.954,200.954,0,0,1-16.375,15.333,18.131,18.131,0,0,0-3.635,3.653,5.877,5.877,0,0,0-.948,4.935,5.726,5.726,0,0,0,3.6,3.394,16.647,16.647,0,0,0,5.015.749l26.955,1.245a50.858,50.858,0,0,0,8.08-.321c2.735-.318,2.849-2.29,4.689-4.007a5.2,5.2,0,0,1,3.618-1.208,24.674,24.674,0,0,1,3.861.532,10.1,10.1,0,0,0,6.251-.533c3.756-1.917,2.9-7.037,2.834-10.541q-.133-7.094-.264-14.186c-.044-2.415.7-6.624-.161-8.845-.591-1.524-3.414-2.311-4.87-1.123" transform="translate(150.223 176.505)" fill="#041446"/>
        <path id="Path_8806" data-name="Path 8806" d="M380.191,395.514a9.794,9.794,0,0,1-6.157.533,24.138,24.138,0,0,0-3.8-.532,5.085,5.085,0,0,0-3.563,1.208c-1.814,1.718-1.926,3.69-4.62,4.008a49.351,49.351,0,0,1-7.959.321l-26.551-1.247a16.217,16.217,0,0,1-4.938-.747,5.686,5.686,0,0,1-3.541-3.4,4.409,4.409,0,0,1-.119-.721c-.22.265-.438.532-.631.819a5.876,5.876,0,0,0-.946,4.935,5.727,5.727,0,0,0,3.594,3.394,16.661,16.661,0,0,0,5.015.749l26.955,1.245a50.87,50.87,0,0,0,8.082-.321c2.735-.318,2.849-2.29,4.689-4.007a5.2,5.2,0,0,1,3.618-1.208,24.674,24.674,0,0,1,3.861.532,10.1,10.1,0,0,0,6.251-.533c2.741-1.4,3.02-4.5,2.947-7.439a4.738,4.738,0,0,1-2.184,2.405" transform="translate(150.223 186.203)" fill="#fff"/>
        <path id="Path_8807" data-name="Path 8807" d="M327.872,385.248a28.267,28.267,0,0,1,12.424,2.283" transform="translate(155.302 182.466)" fill="none" stroke="#fff" stroke-linecap="round" stroke-linejoin="round" stroke-width="1.497"/>
        <path id="Path_8808" data-name="Path 8808" d="M330.4,382.221a22.464,22.464,0,0,1,11.717,1.6" transform="translate(156.5 180.954)" fill="none" stroke="#fff" stroke-linecap="round" stroke-linejoin="round" stroke-width="1.497"/>
        <path id="Path_8809" data-name="Path 8809" d="M333.676,379.243a21.243,21.243,0,0,1,11.658,2.224" transform="translate(158.051 179.579)" fill="none" stroke="#fff" stroke-linecap="round" stroke-linejoin="round" stroke-width="1.497"/>
        <path id="Path_8810" data-name="Path 8810" d="M336.565,376.038a32.5,32.5,0,0,1,12.553,2.594" transform="translate(159.42 178.111)" fill="none" stroke="#fff" stroke-linecap="round" stroke-linejoin="round" stroke-width="1.497"/>
        <path id="Path_8811" data-name="Path 8811" d="M562.178,406.248c-4.862-2.43-20.1-12.038-31.031-11.512-3.466-3.095-4.172-8.164-4.657-12.785-1.233-11.723-2.751-23.786-5.445-35.281-5.937-25.338-9.813-53.6-26.628-74.481,3.359,4.172-15.307,10.971-17.167,11.608a64.574,64.574,0,0,1-25.517,3.226,61.6,61.6,0,0,1-37.7-17.036c-1.886-1.817-4.349-6.245-6.639-7.23-2.822-1.211-9.429.417-12.544.567l-26.66,1.288c-10.988.529-19.554,3.942-23.262,15.07-1.724,5.176-2.126,10.686-2.517,16.128-1.052,14.676-1.628,28.642-2.657,43.32q-.23,3.267-.458,6.534c13.522-5.006,29.479,1.748,41.2,10.146-.032-9.838,5.069-27.356,5.317-37.22-.075-2.16.1-4.311.245-6.474a1.1,1.1,0,0,1,.681-.943,1.068,1.068,0,0,1,1.32.053c.737.641,1.465,1.3,2.2,1.944,14.159,9.461,35.151,9.648,51.55,9.831,3.706.041,14.7,15.574,16.319,18.282,15.068,25.247,22.473,42.9,37.032,71.132,3.3,6.406,7.052,13.251,13.595,16.275,5.086,2.351,11.16.651,16.537,2.222,8.345,2.437,32.114,21.023,38.669,25.652a34.191,34.191,0,0,0,15.32-25.916c.584-8.6-6.692-19.193-17.106-24.4" transform="translate(160.715 124.248)"/>
        <path id="Path_8812" data-name="Path 8812" d="M558.318,433.675c-10.945-7.131-39.975-28.045-53.478-25.343a1.139,1.139,0,0,1-1.381-1.382c.483-2.538,1.6-5.369,1.721-7.967.109-2.446-1.2-4.714-2.15-6.885a140.825,140.825,0,0,1-6.43-18.151c-3.877-13.661-6.393-14.919-9.253-27.658-3.02-13.447-5.565-26.883-8.036-40.439-1.639-8.991-5.335-19.057-6.643-28.141-4.182,2.129-8.135,2.436-11.781,3.213a59.506,59.506,0,0,1-16.823,1.177,60.888,60.888,0,0,1-26.877-8.731c-.769-.256-1.547-.466-2.327-.66-5.117,2.091-10.565,3.516-15.733,5.358-1.76.626-15.681,3.012-15.8,3.565q-1.569,7.144-3.137,14.289-2.023-9.344-4.047-18.688a32.781,32.781,0,0,1-1.46,19.853q-2.5-7.29-5.008-14.579c1.266,10.512.36,22.4-3.83,32.239-1.236,2.9-12.641,26.094-9.946,26.955,6.371,2.034,11.882,5.57,16.928,9.187-.024-6.99,1.684-14.013,2.981-20.844a208.323,208.323,0,0,0,3.275-22.251.739.739,0,0,1,.194-.538.73.73,0,0,1,.722.013c2.352.946,4.536,2.281,6.8,3.429,14.407,7.309,31.579,7.2,47.344,7.38,3.708.041,14.7,15.574,16.319,18.281,15.07,25.247,22.473,42.9,37.033,71.132,3.3,6.407,7.052,13.253,13.595,16.277,5.086,2.349,11.159.651,16.536,2.222,8.347,2.436,32.114,21.023,38.67,25.651a33.306,33.306,0,0,0,10.952-11.8c-2.947-2.106-5.906-4.2-8.93-6.166" transform="translate(168.384 129.173)" fill="#141414"/>
        <path id="Path_8813" data-name="Path 8813" d="M473.056,359.99c-3.151,1.558-6.035,3.525-9.131,5.183s-6.39,2.859-9.51,4.451c-1.848.943-.551,3.793,1.387,3.289a41.973,41.973,0,0,0,18.817-10.9,1.3,1.3,0,0,0-1.564-2.026" transform="translate(214.819 170.444)" fill="#1a134d"/>
        <path id="Path_8814" data-name="Path 8814" d="M479.012,360.257c-5.485,5.01-12.327,6.73-19.569,6.443-1.891-.075-2.381,3.034-.455,3.361,8.32,1.412,16.259-1.885,21.874-7.955a1.309,1.309,0,0,0-1.849-1.849" transform="translate(216.827 170.468)" fill="#1a134d"/>
        <path id="Path_8815" data-name="Path 8815" d="M440.881,158.374c6.437,13.764,11.87,29.207,8.064,43.917a16.2,16.2,0,0,1-3.12,6.636,7.673,7.673,0,0,1-6.514,2.837c-3.432-.43-5.749-3.63-7.511-6.606a132.78,132.78,0,0,1-18.406-68c.028-4.694.153-11.651,4.224-14.9,3.248-2.591,7.4-1.468,9.306,2.059,2.679,4.952,3.588,11.551,5.877,16.825,2.526,5.821,5.394,11.484,8.08,17.23" transform="translate(195.81 57.24)" fill="#181919"/>
        <path id="Path_8816" data-name="Path 8816" d="M390.7,186.255c-7.976,7.049-13.349,15.882-19.816,24.145L348.49,239.013c-3.05,3.9-8.746,10.637-7.063,16.094.729,2.368,3.093,5.072,4.344,7.259q2.58,4.514,5.4,8.888a199.8,199.8,0,0,0,25.962,32.394c2.933,2.964,6.188,5.961,10.273,6.8s9.084-1.468,9.63-5.6c.5-3.764-2.629-6.91-5.376-9.529a124.614,124.614,0,0,1-24.511-32.651c-1.08-2.081-2.093-4.193-3.064-6.328-1.259-2.769-1.379-3.174.354-5.7a255.977,255.977,0,0,1,38.445-43.8c3.951-3.616,8.045-7.152,11.191-11.486a35.2,35.2,0,0,0,6.614-21.082c-.052-3.12.253-3.643-2.392-3.139-9.655,1.839-20.334,8.718-27.591,15.132" transform="translate(161.578 80.976)" fill="#ff8c5e"/>
        <path id="Path_8817" data-name="Path 8817" d="M390.7,186.255c-7.976,7.049-13.349,15.882-19.816,24.145L348.49,239.013c-3.05,3.9-8.746,10.637-7.063,16.094.729,2.368,3.093,5.072,4.344,7.259q2.58,4.514,5.4,8.888a199.8,199.8,0,0,0,25.962,32.394c2.933,2.964,6.188,5.961,10.273,6.8s9.084-1.468,9.63-5.6c.5-3.764-2.629-6.91-5.376-9.529a124.614,124.614,0,0,1-24.511-32.651c-1.08-2.081-2.093-4.193-3.064-6.328-1.259-2.769-1.379-3.174.354-5.7a255.977,255.977,0,0,1,38.445-43.8c3.951-3.616,8.045-7.152,11.191-11.486a35.2,35.2,0,0,0,6.614-21.082c-.052-3.12.253-3.643-2.392-3.139C408.636,172.963,397.958,179.842,390.7,186.255Z" transform="translate(161.578 80.976)" fill="none" stroke="#ef714b" stroke-linecap="round" stroke-linejoin="round" stroke-width="0.851"/>
        <g id="Group_1618" data-name="Group 1618" transform="translate(524.107 256.15)" style="mix-blend-mode: multiply;isolation: isolate">
          <g id="Group_1617" data-name="Group 1617">
            <g id="Group_1616" data-name="Group 1616" clip-path="url(#clip-path-23)">
              <path id="Path_8818" data-name="Path 8818" d="M409.588,177.89c-7.9,6.8-15.64,13.4-22.553,21.272a207.331,207.331,0,0,0-21.853,30.313c-3.5,5.834-6.9,11.707-8.723,18.309a9.576,9.576,0,0,0-.34,1.765c-.038.451.2,1.129-.046,1.527.167-.27,1.051-1.67,1.279-2a256.04,256.04,0,0,1,38.445-43.8c3.951-3.616,8.045-7.152,11.193-11.486a34.266,34.266,0,0,0,6.555-19.544c-1.275,1.278-2.614,2.491-3.957,3.646" transform="translate(-355.447 -173.616)" fill="#e873ff"/>
              <path id="Path_8819" data-name="Path 8819" d="M409.588,177.89c-7.9,6.8-15.64,13.4-22.553,21.272a207.331,207.331,0,0,0-21.853,30.313c-3.5,5.834-6.9,11.707-8.723,18.309a9.576,9.576,0,0,0-.34,1.765c-.038.451.2,1.129-.046,1.527.167-.27,1.051-1.67,1.279-2a256.04,256.04,0,0,1,38.445-43.8c3.951-3.616,8.045-7.152,11.193-11.486a34.266,34.266,0,0,0,6.555-19.544C412.27,175.522,410.93,176.734,409.588,177.89Z" transform="translate(-355.447 -173.616)" fill="none" stroke="#e873ff" stroke-linecap="round" stroke-linejoin="round" stroke-width="0.851"/>
            </g>
          </g>
        </g>
        <path id="Path_8820" data-name="Path 8820" d="M380.485,257.606c5.153-.827,11.3-2.7,16.619-2.171,4.442.444,8.44,2.869,11.95,5.626a1.322,1.322,0,0,1,.6.821c.041.424-.265,1.191-.682,1.279a2.655,2.655,0,0,1-1.258-.147c-2.109-.6-4.16-2.1-6.244-2.891-1.456-.554-3.927-1.524-5.336-.147a54.536,54.536,0,0,1,13.318,6.26c.629.414,1.323.986,1.263,1.737a1.514,1.514,0,0,1-1.673,1.18,4.8,4.8,0,0,1-2.072-.874,32.244,32.244,0,0,0-12.147-4.33,27.73,27.73,0,0,1,10.492,3.457,5.656,5.656,0,0,1,1.972,1.617,2.232,2.232,0,0,1,.159,2.42,2.332,2.332,0,0,1-2.383.8,8.533,8.533,0,0,1-2.423-1.074,23.265,23.265,0,0,0-9.316-2.8l6.6,1.956c.946.28,2.059.743,2.2,1.718a1.824,1.824,0,0,1-1.581,1.839,5.9,5.9,0,0,1-2.633-.34,35.4,35.4,0,0,0-6.773-1.167,42.687,42.687,0,0,0-8.742.066c-3.518.48-5.372,1.6-8.269-1.186-2.337-2.247-6.24-4.9-8.575-7.149" transform="translate(173.154 120.947)" fill="#ff8c5e"/>
        <path id="Path_8821" data-name="Path 8821" d="M380.485,257.606c5.153-.827,11.3-2.7,16.619-2.171,4.442.444,8.44,2.869,11.95,5.626a1.322,1.322,0,0,1,.6.821c.041.424-.265,1.191-.682,1.279a2.655,2.655,0,0,1-1.258-.147c-2.109-.6-4.16-2.1-6.244-2.891-1.456-.554-3.927-1.524-5.336-.147a54.536,54.536,0,0,1,13.318,6.26c.629.414,1.323.986,1.263,1.737a1.514,1.514,0,0,1-1.673,1.18,4.8,4.8,0,0,1-2.072-.874,32.244,32.244,0,0,0-12.147-4.33,27.73,27.73,0,0,1,10.492,3.457,5.656,5.656,0,0,1,1.972,1.617,2.232,2.232,0,0,1,.159,2.42,2.332,2.332,0,0,1-2.383.8,8.533,8.533,0,0,1-2.423-1.074,23.265,23.265,0,0,0-9.316-2.8l6.6,1.956c.946.28,2.059.743,2.2,1.718a1.824,1.824,0,0,1-1.581,1.839,5.9,5.9,0,0,1-2.633-.34,35.4,35.4,0,0,0-6.773-1.167,42.687,42.687,0,0,0-8.742.066c-3.518.48-5.372,1.6-8.269-1.186-2.337-2.247-6.24-4.9-8.575-7.149" transform="translate(173.154 120.947)" fill="none" stroke="#ef714b" stroke-linecap="round" stroke-linejoin="round" stroke-width="0.902"/>
        <path id="Path_8822" data-name="Path 8822" d="M469.717,175.877c3.988,4.306,4.592,10.084,5.4,15.784a102.864,102.864,0,0,1-9.5,59.437c.426-.874-17.382-5.1-18.637-5.377-19.911-4.453-42.007-10.2-61.8-2.286-2.146-5.638-4.87-14.177-7.015-19.815-1.537-4.039-3.1-8.3-2.48-12.575.505-3.5,2.421-6.6,4.293-9.6,7.83-12.531,12.74-25.857,27.9-30.643,11.7-3.692,28.377-2.6,40.485-1.743,6.94.489,14.6.861,20.148,5.65a15.217,15.217,0,0,1,1.211,1.169" transform="translate(177.881 79.679)" fill="#fafafa"/>
        <path id="Path_8823" data-name="Path 8823" d="M468.355,174.811a15.217,15.217,0,0,0-1.211-1.169,18.484,18.484,0,0,0-5.42-3.176c-5.326,2.762-9.617,7.421-13.08,12.212-7.545,10.438-7.507,32.543-5.512,45.4a.93.93,0,0,1-1.124,1.124c-19.609-3.323-44.063-8.86-63.592-2.191,1.793,5.1,3.762,11.067,5.4,15.361,19.8-7.918,41.893-2.168,61.8,2.286,1.256.28,19.063,4.5,18.637,5.377a102.864,102.864,0,0,0,9.5-59.437c-.808-5.7-1.412-11.478-5.4-15.784" transform="translate(179.243 80.745)" fill="#dbdbdb"/>
        <path id="Path_8824" data-name="Path 8824" d="M408.222,160.718c.532,7.177,1.5,15.456-1.963,21.376-2.04,3.481-5.1,6.225-7.981,9.047-3.577,3.5-8.739,8.571-10.043,13.586-1.44,5.534,1.382,10.5,6.8,12.308a27.373,27.373,0,0,0,17.7-.831c11.763-4.956,20.522-16.247,29.131-25.24,2.137-2.233,5.677-4.4,7.355-6.853-7.43-1.453-12.659-7.7-14.578-14.824-1.729-6.41-.656-12.476-.46-18.947.09-2.927.753-10.22-1.8-11.956-1.568-1.068-3.7-.466-5.433.3-5.389,2.381-16.853,6.847-18.609,13.133a15.928,15.928,0,0,0-.355,4.646c.029,1.35.121,2.778.23,4.252" transform="translate(183.717 65.275)" fill="#ff8c5e"/>
        <path id="Path_8825" data-name="Path 8825" d="M408.222,160.718c.532,7.177,1.5,15.456-1.963,21.376-2.04,3.481-5.1,6.225-7.981,9.047-3.577,3.5-8.739,8.571-10.043,13.586-1.44,5.534,1.382,10.5,6.8,12.308a27.373,27.373,0,0,0,17.7-.831c11.763-4.956,20.522-16.247,29.131-25.24,2.137-2.233,5.677-4.4,7.355-6.853-7.43-1.453-12.659-7.7-14.578-14.824-1.729-6.41-.656-12.476-.46-18.947.09-2.927.753-10.22-1.8-11.956-1.568-1.068-3.7-.466-5.433.3-5.389,2.381-16.853,6.847-18.609,13.133a15.928,15.928,0,0,0-.355,4.646C408.022,157.816,408.113,159.244,408.222,160.718Z" transform="translate(183.717 65.275)" fill="none" stroke="#ef714b" stroke-linecap="round" stroke-linejoin="round" stroke-width="0.851"/>
        <path id="Path_8826" data-name="Path 8826" d="M405.6,178.967c-.46-1.9,1.939-2.1,3.223-2.141,1.679-.05,3.37.035,5.05.055s3.37.024,5.055.035a36.147,36.147,0,0,0,5.133-.093.978.978,0,0,0,0-1.873,43.511,43.511,0,0,0-6.216-.113q-3.249,0-6.5.029c-1.617.013-3.851-.276-5.227.8a3.324,3.324,0,0,0-1.22,3.493.364.364,0,0,0,.7-.193" transform="translate(191.723 82.788)" fill="#ef714b"/>
        <path id="Path_8827" data-name="Path 8827" d="M402.127,176.5a16.97,16.97,0,0,0-5.171-2.614,1.3,1.3,0,0,0-1.581.9,1.313,1.313,0,0,0,.9,1.581c.439.131.872.279,1.3.447a2.123,2.123,0,0,1,.317.128c-.308-.186.007,0,.09.041.2.085.392.175.585.27a16.507,16.507,0,0,1,2.318,1.382,1.234,1.234,0,0,0,1.814-1.394,1.437,1.437,0,0,0-.567-.738" transform="translate(187.259 82.339)" fill="#ef714b"/>
        <g id="Group_1621" data-name="Group 1621" transform="translate(591.066 202.455)" style="mix-blend-mode: multiply;isolation: isolate">
          <g id="Group_1620" data-name="Group 1620">
            <g id="Group_1619" data-name="Group 1619" clip-path="url(#clip-path-24)">
              <path id="Path_8828" data-name="Path 8828" d="M401.334,160.965l.128,1.677c.371,4.763.759,9.975-.22,14.505A35.341,35.341,0,0,0,418.2,165.78a48.383,48.383,0,0,0,10.464-21.247c-.119-2.734-.619-5.4-2.182-6.465-1.452-.99-3.429-.908-6.039.246l-1.458.635c-5.914,2.563-15.812,6.851-17.5,12.9a16.4,16.4,0,0,0-.376,4.828c.031,1.449.134,2.978.23,4.285" transform="translate(-401.085 -137.382)" fill="#e873ff"/>
            </g>
          </g>
        </g>
        <path id="Path_8829" data-name="Path 8829" d="M442.966,142.331c2.14-18.624-6.017-41.755-27.223-44.343-12.9-1.574-25.6,4.85-29.914,17.6-2.159,6.382-2.289,13.248-2.4,19.984-.1,6.565-.2,13.182,1,19.637a63.863,63.863,0,0,0,6,16.927c2.143,4.25,4.17,10.189,9.361,11.2,5.361,1.04,12.8-1.824,17.584-4.054a44.743,44.743,0,0,0,15.27-11.635c5.762-6.832,9.233-15.874,10.317-25.307" transform="translate(181.592 46.303)" fill="#ff8c5e"/>
        <path id="Path_8830" data-name="Path 8830" d="M442.966,142.331c2.14-18.624-6.017-41.755-27.223-44.343-12.9-1.574-25.6,4.85-29.914,17.6-2.159,6.382-2.289,13.248-2.4,19.984-.1,6.565-.2,13.182,1,19.637a63.863,63.863,0,0,0,6,16.927c2.143,4.25,4.17,10.189,9.361,11.2,5.361,1.04,12.8-1.824,17.584-4.054a44.743,44.743,0,0,0,15.27-11.635C438.411,160.806,441.881,151.764,442.966,142.331Z" transform="translate(181.592 46.303)" fill="none" stroke="#ef714b" stroke-linecap="round" stroke-linejoin="round" stroke-width="0.989"/>
        <path id="Path_8831" data-name="Path 8831" d="M414.751,126.129a4.57,4.57,0,0,1-.287,3.45,8.217,8.217,0,0,0-.9,3.41c.075,1.183,1.067,2.412,2.239,2.228a1.643,1.643,0,0,0,1.1-2.349" transform="translate(195.888 59.743)" fill="none" stroke="#fff" stroke-linecap="round" stroke-width="0.5"/>
        <g id="Group_1624" data-name="Group 1624" transform="translate(565.047 143.33)" style="mix-blend-mode: multiply;isolation: isolate">
          <g id="Group_1623" data-name="Group 1623">
            <g id="Group_1622" data-name="Group 1622" clip-path="url(#clip-path-25)">
              <path id="Path_8832" data-name="Path 8832" d="M399.43,110.424c8.584,2.691,17.168,8.656,23.414,14.405a64.972,64.972,0,0,1,13.987,19.464c3.233-1.917,5.268-5.212,7.171-8.443-.224-17.991-9.406-36.058-28.194-38.349-13.908-1.695-26.519,5.743-30.694,18.085a40.34,40.34,0,0,0-1.684,7.312c1.226-1.322,7.8-10.168,16-12.475" transform="translate(-383.429 -97.261)" fill="#e873ff"/>
            </g>
          </g>
        </g>
        <path id="Path_8833" data-name="Path 8833" d="M391.487,103.689a27.044,27.044,0,0,0-7.612,19.715,24.981,24.981,0,0,1,18.814-15.14,11.1,11.1,0,0,0,3.977-1.052c1.634-.97,2.486-2.846,3.037-4.663.423-1.4,1.905-5.438.579-6.567-1.239-1.057-5.117.227-6.5.594a27.008,27.008,0,0,0-12.3,7.113" transform="translate(181.82 45.27)" fill="#181919"/>
        <path id="Path_8834" data-name="Path 8834" d="M394.268,109.6c6.447.877,12.432,3.969,17.6,7.921,8.552,6.54,17.927,14.871,19.721,26.015.427,2.661.529,5.114,1.624,7.585.311.7,3.924,7.463,3.687,7.651,12.927-11.7,13.674-32.338,5.554-46.951-3.983-7.168-10.224-13.267-17.927-16.084a25.963,25.963,0,0,0-19.021.4c-2.023.875-4.246,1.715-5.637,3.47-2.284,2.877-3.82,6.782-5.6,9.994" transform="translate(186.752 44.587)" fill="#181919"/>
        <path id="Path_8835" data-name="Path 8835" d="M419.644,131.574a32.385,32.385,0,0,1,4.1-3.98c1.662-1.211,3.543-1.9,5.491-.911a4.269,4.269,0,0,1,2.19,3.656,10.883,10.883,0,0,1-.933,4.313,59.435,59.435,0,0,1-4.452,9.246c-1.18,2-2.933,5.94-6.119,6.049a4.063,4.063,0,0,1-2.955-1.2,1.335,1.335,0,0,1-.262-.339" transform="translate(197.381 59.782)" fill="#ff8c5e"/>
        <path id="Path_8836" data-name="Path 8836" d="M419.644,131.574a32.385,32.385,0,0,1,4.1-3.98c1.662-1.211,3.543-1.9,5.491-.911a4.269,4.269,0,0,1,2.19,3.656,10.883,10.883,0,0,1-.933,4.313,59.435,59.435,0,0,1-4.452,9.246c-1.18,2-2.933,5.94-6.119,6.049a4.063,4.063,0,0,1-2.955-1.2,1.335,1.335,0,0,1-.262-.339" transform="translate(197.381 59.782)" fill="none" stroke="#ef714b" stroke-linecap="round" stroke-linejoin="round" stroke-width="0.989"/>
        <path id="Path_8837" data-name="Path 8837" d="M425.229,135.072a3.984,3.984,0,0,0,.541-4,2.051,2.051,0,0,0-3.376-.171c-1.761,1.951-1.786,4.9-1.816,7.367a2.7,2.7,0,0,1,.964.768,2.089,2.089,0,0,1,.2,1.655c-.228,1.073-1.216,2.572-2.4,1.561" transform="translate(198.627 61.624)" fill="none" stroke="#ef714b" stroke-linecap="round" stroke-linejoin="round" stroke-width="0.989"/>
        <path id="Path_8845" data-name="Path 8845" d="M398.207,146.3a3.605,3.605,0,0,1-1.279-.915.806.806,0,0,0-.072-.069,4.7,4.7,0,0,1-.911-1.363.831.831,0,0,0-1.587,0,4.8,4.8,0,0,0-.242,1.145.476.476,0,0,0-.06.032c-.153-.411-.354-.819-.464-1.138a.7.7,0,0,0-1.36.184c-.025.629-.1,1.922-.9,2.122-.143.035-.156.276,0,.3a1.481,1.481,0,0,0,.511-.006.9.9,0,0,0,.28.451h0c.156.4.41.727.553,1.135a6.66,6.66,0,0,0,.464,1.32,1.708,1.708,0,0,0,1.836.852,2.907,2.907,0,0,0,2-3.568c-.006-.025-.031-.035-.04-.059a9.226,9.226,0,0,0,1.213.035.238.238,0,0,0,.063-.464" transform="translate(185.306 67.908)" fill="red"/>
        <path id="Path_8846" data-name="Path 8846" d="M390.949,145.562a28.091,28.091,0,0,1,3.985-.388,26.575,26.575,0,0,1,4,.125,5.016,5.016,0,0,1-7.986.262" transform="translate(185.179 68.755)" fill="red"/>
        <path id="Path_8847" data-name="Path 8847" d="M429.3,180.746a24.286,24.286,0,0,0-1.219,4.175c-2.955,14.885,5.643,30.157,18.156,37.96a17.68,17.68,0,0,0,8.1-13.089,68.6,68.6,0,0,0-.018-19.2c-.607-4.265-1.665-8.58-4.094-12.137s-6.449-6.257-10.755-6.16c-5.17.118-8.412,4-10.173,8.447" transform="translate(202.492 81.611)" fill="#ff8c5e"/>
        <path id="Path_8848" data-name="Path 8848" d="M429.3,180.746a24.286,24.286,0,0,0-1.219,4.175c-2.955,14.885,5.643,30.157,18.156,37.96a17.68,17.68,0,0,0,8.1-13.089,68.6,68.6,0,0,0-.018-19.2c-.607-4.265-1.665-8.58-4.094-12.137s-6.449-6.257-10.755-6.16C434.305,172.417,431.063,176.3,429.3,180.746Z" transform="translate(202.492 81.611)" fill="none" stroke="#ef714b" stroke-linecap="round" stroke-linejoin="round" stroke-width="0.851"/>
        <g id="Group_1627" data-name="Group 1627" transform="translate(630.866 281.6)" style="mix-blend-mode: multiply;isolation: isolate">
          <g id="Group_1626" data-name="Group 1626">
            <g id="Group_1625" data-name="Group 1625" clip-path="url(#clip-path-26)">
              <path id="Path_8849" data-name="Path 8849" d="M448.334,202.248c-3.484-1.188-7.206-1.2-10.6-2.751a22.909,22.909,0,0,1-9.219-7.983,40.806,40.806,0,0,0,17.239,22.266,17.646,17.646,0,0,0,7.172-9.079,16.658,16.658,0,0,0-4.595-2.452" transform="translate(-427.892 -190.886)" fill="#e8bc00"/>
              <path id="Path_8850" data-name="Path 8850" d="M448.334,202.248c-3.484-1.188-7.206-1.2-10.6-2.751a22.909,22.909,0,0,1-9.219-7.983,40.806,40.806,0,0,0,17.239,22.266,17.646,17.646,0,0,0,7.172-9.079A16.658,16.658,0,0,0,448.334,202.248Z" transform="translate(-427.892 -190.886)" fill="none"/>
            </g>
          </g>
        </g>
        <path id="Path_8851" data-name="Path 8851" d="M433.846,172.832a17.819,17.819,0,0,1,13.5.989c3.588,1.882,6.461,4.862,9.221,7.828,12.152,13.057,36.36,44.494,46.795,58.96,2.529,3.506,3.755,6.522,3.17,10.806-.716,5.24-4.4,9.919-7.237,14.259a189.276,189.276,0,0,1-42.633,45.519c-3.608,2.769-9.281,2.265-8.659-3.641.261-2.473,1.8-4.592,3.258-6.609a206.912,206.912,0,0,0,15.966-25.987c4.669-9.029,7.784-18.573,11.963-27.774-7.295-8.276-13.7-16.443-20.992-24.719-4.5-5.1-9.464-10.487-16.115-11.907" transform="translate(205.498 81.444)" fill="#ff8c5e"/>
        <path id="Path_8852" data-name="Path 8852" d="M433.846,172.832a17.819,17.819,0,0,1,13.5.989c3.588,1.882,6.461,4.862,9.221,7.828,12.152,13.057,36.36,44.494,46.795,58.96,2.529,3.506,3.755,6.522,3.17,10.806-.716,5.24-4.4,9.919-7.237,14.259a189.276,189.276,0,0,1-42.633,45.519c-3.608,2.769-9.281,2.265-8.659-3.641.261-2.473,1.8-4.592,3.258-6.609a206.912,206.912,0,0,0,15.966-25.987c4.669-9.029,7.784-18.573,11.963-27.774-7.295-8.276-13.7-16.443-20.992-24.719-4.5-5.1-9.464-10.487-16.115-11.907" transform="translate(205.498 81.444)" fill="none" stroke="#ef714b" stroke-linecap="round" stroke-linejoin="round" stroke-width="0.851"/>
        <path id="Path_8853" data-name="Path 8853" d="M456.759,261c-5.153-.827-15.493-3.871-20.807-3.341-4.442.444-8.44,2.869-11.95,5.626a1.324,1.324,0,0,0-.6.821c-.043.424.264,1.191.682,1.279a2.633,2.633,0,0,0,1.257-.147c2.109-.6,4.162-2.1,6.244-2.891,1.456-.554,3.927-1.524,5.336-.147a54.613,54.613,0,0,0-13.318,6.259c-.629.416-1.323.987-1.261,1.739a1.513,1.513,0,0,0,1.671,1.18,4.833,4.833,0,0,0,2.073-.874,32.266,32.266,0,0,1,12.146-4.331,27.758,27.758,0,0,0-10.492,3.459,5.67,5.67,0,0,0-1.972,1.617,2.232,2.232,0,0,0-.158,2.42,2.331,2.331,0,0,0,2.381.8,8.514,8.514,0,0,0,2.423-1.074,23.271,23.271,0,0,1,9.318-2.8l-6.606,1.956c-.946.28-2.057.743-2.2,1.718a1.822,1.822,0,0,0,1.581,1.839,5.89,5.89,0,0,0,2.632-.34,35.408,35.408,0,0,1,6.773-1.169,42.791,42.791,0,0,1,8.742.068c3.518.48,5.372,1.6,8.27-1.186,2.336-2.247,6.238-4.9,8.574-7.149" transform="translate(200.047 122.016)" fill="#ff8c5e"/>
        <path id="Path_8854" data-name="Path 8854" d="M456.759,261c-5.153-.827-15.493-3.871-20.807-3.341-4.442.444-8.44,2.869-11.95,5.626a1.324,1.324,0,0,0-.6.821c-.043.424.264,1.191.682,1.279a2.633,2.633,0,0,0,1.257-.147c2.109-.6,4.162-2.1,6.244-2.891,1.456-.554,3.927-1.524,5.336-.147a54.613,54.613,0,0,0-13.318,6.259c-.629.416-1.323.987-1.261,1.739a1.513,1.513,0,0,0,1.671,1.18,4.833,4.833,0,0,0,2.073-.874,32.266,32.266,0,0,1,12.146-4.331,27.758,27.758,0,0,0-10.492,3.459,5.67,5.67,0,0,0-1.972,1.617,2.232,2.232,0,0,0-.158,2.42,2.331,2.331,0,0,0,2.381.8,8.514,8.514,0,0,0,2.423-1.074,23.271,23.271,0,0,1,9.318-2.8l-6.606,1.956c-.946.28-2.057.743-2.2,1.718a1.822,1.822,0,0,0,1.581,1.839,5.89,5.89,0,0,0,2.632-.34,35.408,35.408,0,0,1,6.773-1.169,42.791,42.791,0,0,1,8.742.068c3.518.48,5.372,1.6,8.27-1.186,2.336-2.247,6.238-4.9,8.574-7.149" transform="translate(200.047 122.016)" fill="none" stroke="#ef714b" stroke-linecap="round" stroke-linejoin="round" stroke-width="0.902"/>
        <path id="Path_8855" data-name="Path 8855" d="M364.579,103.437c-.715,1.284.447,2.67,1.208,3.616.6.746,1.264,1.431,1.923,2.127.637.673,1.378,1.257,2.076,1.869a6.446,6.446,0,0,0,.871.69,4.693,4.693,0,0,0,.9.377c.414.143.825.289,1.247.41a1.1,1.1,0,0,0,1.345-1.345c-.121-.421-.267-.833-.41-1.247a4.692,4.692,0,0,0-.377-.9,6.547,6.547,0,0,0-.69-.872c-.645-.737-1.266-1.506-1.978-2.18s-1.388-1.312-2.135-1.914a7.177,7.177,0,0,0-1.515-1.03c-.8-.36-1.96-.51-2.465.4" transform="translate(172.583 48.672)" fill="#fff"/>
        <path id="Path_8856" data-name="Path 8856" d="M360.72,116.71a6.3,6.3,0,0,0,3.052.806,26.351,26.351,0,0,0,2.834.118c.9,0,1.827-.1,2.728-.171a7.381,7.381,0,0,0,2.965-1.082,1.1,1.1,0,0,0,0-1.888,7.558,7.558,0,0,0-2.86-1.074c-.927-.1-1.9-.175-2.832-.178a25.16,25.16,0,0,0-2.729.108,6.5,6.5,0,0,0-3.157.816,1.5,1.5,0,0,0,0,2.545" transform="translate(170.525 53.638)" fill="#fff"/>
        <path id="Path_8857" data-name="Path 8857" d="M365.4,129.519c1.284.715,2.67-.447,3.616-1.208.746-.6,1.43-1.264,2.127-1.923.673-.637,1.257-1.378,1.869-2.076a6.441,6.441,0,0,0,.69-.871,4.6,4.6,0,0,0,.376-.9c.144-.414.29-.825.411-1.247a1.1,1.1,0,0,0-1.345-1.345c-.422.121-.833.267-1.247.41a4.7,4.7,0,0,0-.9.377,6.547,6.547,0,0,0-.872.69c-.737.645-1.506,1.266-2.18,1.978s-1.312,1.388-1.914,2.135a7.176,7.176,0,0,0-1.03,1.515c-.36.8-.51,1.96.4,2.465" transform="translate(172.754 56.797)" fill="#fff"/>
      </g>
    </g>
  </g>
</svg>
