<svg id="Group_1556" data-name="Group 1556" xmlns="http://www.w3.org/2000/svg" xmlns:xlink="http://www.w3.org/1999/xlink" width="1711" height="759.503" viewBox="0 0 1711 759.503">
  <defs>
    <clipPath id="clip-path">
      <rect id="Rectangle_1013" data-name="Rectangle 1013" width="1711" height="759.503" fill="none"/>
    </clipPath>
    <clipPath id="clip-path-2">
      <rect id="Rectangle_1012" data-name="Rectangle 1012" width="1627.484" height="722.431" fill="none"/>
    </clipPath>
    <clipPath id="clip-path-3">
      <rect id="Rectangle_1010" data-name="Rectangle 1010" width="10.628" height="10.774" fill="none"/>
    </clipPath>
    <clipPath id="clip-path-4">
      <rect id="Rectangle_1011" data-name="Rectangle 1011" width="102.542" height="43.137" fill="none"/>
    </clipPath>
  </defs>
  <g id="Group_1555" data-name="Group 1555" clip-path="url(#clip-path)">
    <g id="Group_1554" data-name="Group 1554" transform="translate(11.909 37.072)">
      <g id="Group_1553" data-name="Group 1553" transform="translate(0 0)" clip-path="url(#clip-path-2)">
        <path id="Path_8649" data-name="Path 8649" d="M89.445,327.306c-1.109-6.462-4.068-12.428-6.567-18.488-2.268-5.495-4.2-11.348-3.984-17.247q-.127-.822-.256-1.641c-1.211-16.8-3.823-35.538-4.811-52.031L19.86,239.133c-4.614,4.988-5.326,12.5-4.322,19.213s3.456,13.168,4.276,19.912c1.2,9.86-1.142,19.871-.2,29.759a47.347,47.347,0,0,0,15.375,30.227,51.428,51.428,0,0,0,31.49,12.92c6.6.358,13.782-.776,18.419-5.479,4.6-4.667,5.656-11.916,4.547-18.378" transform="translate(23.625 371.206)" fill="#04c7f4"/>
        <path id="Path_8650" data-name="Path 8650" d="M111.1,187.508,25.659,201.767l-19.4,33.4.023,8.127s-.051,14.906,0,23.043S36.338,322.28,36.338,322.28l48.585,2.035s1.713-8.777,11.619-22.559c7.732-10.756,19.538-16.082,24.116-31.006s5.794-31.467,5.794-31.467Z" transform="translate(9.766 292.578)" fill="#ae7461"/>
        <path id="Path_8651" data-name="Path 8651" d="M21.883,286.792a24.81,24.81,0,0,1-1.989-3.748c-1.185-2.455-2.88-6.027-4.714-10.561A86.083,86.083,0,0,1,10.233,256a50.533,50.533,0,0,1,.394-21.082,37.092,37.092,0,0,1,10.728-18.1,55.944,55.944,0,0,1,14.271-9.647,79.419,79.419,0,0,1,10.764-4.286c1.3-.425,2.325-.7,3.021-.878a3.462,3.462,0,0,1,1.083-.207,30.059,30.059,0,0,1-3.93,1.582,101,101,0,0,0-10.51,4.644,57.485,57.485,0,0,0-13.831,9.688,36.455,36.455,0,0,0-10.285,17.538,50.561,50.561,0,0,0-.476,20.539,91.6,91.6,0,0,0,4.611,16.348c1.705,4.55,3.264,8.17,4.3,10.692a25.833,25.833,0,0,1,1.508,3.963" transform="translate(14.531 314.852)" fill="#6f4439"/>
        <path id="Path_8652" data-name="Path 8652" d="M16.4,240.336c.151.248,6.316,10.846,10.8,18.563A25.646,25.646,0,0,0,43.293,271c7.02,1.695,15.493,2.02,19.978-4.161l1.247-1.736A39.346,39.346,0,0,0,70.484,252.7c1.121-4.027,2.609-8.872,3.848-11.2,2.332-4.371,2.227-6.485,2.227-6.485-18.35,6.626-38.843,7.353-60.614,4.568" transform="translate(24.881 366.71)" fill="#fafafa"/>
        <path id="Path_8653" data-name="Path 8653" d="M19.86,238.381h5.292s-7.228,12.359-5.292,17.152,4.286,16.86,4.765,23.822-1.872,28,3.4,37.33,13.38,22.426,27.764,25.921,25.388-1.836,28.264-8.554-4.708-37.279-4.708-37.279l3.531,11.294c2.5,6.06,5.459,12.026,6.567,18.488s.056,13.708-4.547,18.378c-4.637,4.7-11.824,5.835-18.419,5.479a51.441,51.441,0,0,1-31.487-12.92,47.335,47.335,0,0,1-15.375-30.227c-.942-9.891,1.4-19.9.2-29.759-.822-6.744-3.275-13.194-4.278-19.912s-.292-14.228,4.322-19.213" transform="translate(23.625 371.958)" fill="#e0e0e0"/>
        <path id="Path_8654" data-name="Path 8654" d="M46.847,254.106c.1.12-.75,1.114-2.53,2.228A18.62,18.62,0,0,1,28.5,257.9c-1.964-.742-3-1.549-2.916-1.687.149-.387,4.778,2,10.869,1.331,6.1-.543,10.175-3.787,10.4-3.436" transform="translate(39.908 396.453)" fill="#263238"/>
        <path id="Path_8655" data-name="Path 8655" d="M47.887,258.411c.1.12-.75,1.114-2.53,2.228a18.622,18.622,0,0,1-15.82,1.564c-1.964-.743-3-1.549-2.916-1.687.149-.387,4.778,2,10.869,1.331,6.1-.543,10.175-3.787,10.4-3.436" transform="translate(41.531 403.171)" fill="#263238"/>
        <path id="Path_8656" data-name="Path 8656" d="M48.872,262.256c.11.113-.671,1.162-2.368,2.4a18.609,18.609,0,0,1-15.667,2.683c-2.012-.6-3.1-1.334-3.029-1.477.12-.4,4.906,1.654,10.935.558,6.048-.973,9.883-4.5,10.129-4.163" transform="translate(43.385 409.176)" fill="#263238"/>
        <path id="Path_8657" data-name="Path 8657" d="M44.343,266.547a3.2,3.2,0,0,1-.118-1.068,20.065,20.065,0,0,1,.174-3.07,24.077,24.077,0,0,1,4.2-10.472,21.139,21.139,0,0,1,5.669-5.553,3.939,3.939,0,0,1,2.391-.527,2.235,2.235,0,0,1,1.859,2,5.542,5.542,0,0,1-.417,2.471c-.256.735-.54,1.47-.86,2.2A32.418,32.418,0,0,1,51.9,260.96a22.693,22.693,0,0,1-3.907,3.651,7.03,7.03,0,0,1-5.566,1.293,27.306,27.306,0,0,1-5.108-2.023c-1.6-.735-3.175-1.477-4.706-2.248a57.347,57.347,0,0,1-8.5-5.105,7.632,7.632,0,0,1-1.8-1.744,3.423,3.423,0,0,1-.589-2.594,2.413,2.413,0,0,1,1.867-1.959,4.7,4.7,0,0,1,2.381.266,33.877,33.877,0,0,1,7.082,3.385,33.417,33.417,0,0,1,8.418,7.509,26.189,26.189,0,0,1,1.759,2.512c.358.6.525.929.486.955-.1.064-.911-1.157-2.65-3.129A36.129,36.129,0,0,0,32.55,254.7a34.1,34.1,0,0,0-6.926-3.131c-1.26-.451-2.583-.351-2.734.842-.238,1.178.725,2.256,1.961,3.113a58.266,58.266,0,0,0,8.354,4.924c1.516.75,3.08,1.482,4.678,2.21a27.207,27.207,0,0,0,4.813,1.92,5.671,5.671,0,0,0,4.539-1.08,21.714,21.714,0,0,0,3.669-3.413,31.739,31.739,0,0,0,5.19-8.055c.561-1.385,1.319-2.885,1.237-4.03-.064-1.178-1.421-1.26-2.55-.62a20.884,20.884,0,0,0-5.413,5.121,25.06,25.06,0,0,0-4.45,10c-.484,2.576-.453,4.053-.576,4.051" transform="translate(33.799 383.575)" fill="#263238"/>
        <path id="Path_8658" data-name="Path 8658" d="M117.441,170.28s33.546-15.426,62.345-23.076c15.424-4.1,29.488-5.966,36.3-2.035,19.538,11.263,31.41,24.451,34.048,44.9s3.738,235.45,3.738,235.45l-49.9,8.572-19.553-90.846s-13.268-27.444-14.586-54.7-1.093-31.595-1.093-31.595l-45.889,31.595L105.7,215.608Z" transform="translate(164.928 223.136)" fill="#ae7461"/>
        <path id="Path_8659" data-name="Path 8659" d="M149.755,291.441c-1.162-1.664-10.159-50.508-10.159-50.508l61.761-8.321,1.762,56.031Z" transform="translate(217.819 362.956)" fill="#fafafa"/>
        <path id="Path_8660" data-name="Path 8660" d="M206.875,251.05l.12,4.12s69.424,26.3,70.486,39.529L141,297.446l.937-46.178c20.48,9.138,41.739,9.788,64.938-.218" transform="translate(220.009 391.726)" fill="#04c7f4"/>
        <g id="Group_1549" data-name="Group 1549" transform="translate(372.193 657.21)" opacity="0.6">
          <g id="Group_1548" data-name="Group 1548">
            <g id="Group_1547" data-name="Group 1547" clip-path="url(#clip-path-3)">
              <path id="Path_8661" data-name="Path 8661" d="M149.234,256.947a5.672,5.672,0,0,0-3.725,6.539,5.355,5.355,0,0,0,6.35,3.812c2.64-.74,4.87-4.34,3.91-6.946s-4.65-4.583-7.036-3.221" transform="translate(-145.368 -256.687)" fill="#fff"/>
            </g>
          </g>
        </g>
        <path id="Path_8662" data-name="Path 8662" d="M174.456,253.164c-.008.678-3.336,1.052-6.57,3.3-3.3,2.156-4.926,5.123-5.546,4.867-.617-.118.3-4.186,4.263-6.831,3.94-2.683,7.986-1.956,7.853-1.331" transform="translate(253.033 394.111)" fill="#263238"/>
        <path id="Path_8663" data-name="Path 8663" d="M178.008,255.2c.166.653-2.7,1.864-4.906,4.773-2.289,2.842-2.8,5.95-3.464,5.935-.625.12-1.162-3.838,1.649-7.4,2.778-3.587,6.693-3.951,6.721-3.305" transform="translate(263.916 397.798)" fill="#263238"/>
        <path id="Path_8664" data-name="Path 8664" d="M176.435,268.96c-.6.159-1.6-3.208.041-6.949,1.61-3.756,4.724-5.282,5.018-4.724.387.55-1.6,2.581-2.9,5.674-1.37,3.06-1.5,5.92-2.163,6" transform="translate(273.967 401.284)" fill="#263238"/>
        <path id="Path_8665" data-name="Path 8665" d="M141.4,265.186a36.41,36.41,0,0,1-.517,6.516A10.011,10.011,0,0,0,144,280.681l77.435-1.687,57.28-1.408s2.35-5.525-5.123-11.337Z" transform="translate(219.613 413.783)" fill="#e0e0e0"/>
        <path id="Path_8666" data-name="Path 8666" d="M171.8,265.555c-.023.041-.323-.1-.883-.417a12.511,12.511,0,0,1-2.217-1.713,15.806,15.806,0,0,1-4.519-9.2,14.775,14.775,0,0,1,.812-7.187,4.454,4.454,0,0,1,3.065-3.047,4.165,4.165,0,0,1,4.051,2.187,27.658,27.658,0,0,1,1.718,18.657l-1.331-.184c.018-.361.038-.753.059-1.144a24.72,24.72,0,0,1,8.575-17.024,4.372,4.372,0,0,1,2.34-.837,2.719,2.719,0,0,1,2.286,1.191,4.748,4.748,0,0,1,.169,4.391,30.423,30.423,0,0,1-3.344,6.526,29.943,29.943,0,0,1-7.343,7.55,23.8,23.8,0,0,1-2.432,1.511c-.584.3-.9.435-.922.394-.056-.1,1.121-.8,3.034-2.325a32.377,32.377,0,0,0,6.862-7.658,30.267,30.267,0,0,0,3.083-6.365,3.656,3.656,0,0,0-.079-3.339c-.6-.922-1.874-.809-2.952-.01a23.908,23.908,0,0,0-7.927,16.094c-.018.371-.038.74-.056,1.08l-1.331-.184a26.991,26.991,0,0,0-1.462-17.674,2.991,2.991,0,0,0-2.806-1.672c-1.029.151-1.779,1.221-2.225,2.3a14.025,14.025,0,0,0-.9,6.657,15.911,15.911,0,0,0,3.953,8.946c1.613,1.731,2.8,2.379,2.727,2.491" transform="translate(255.972 380.652)" fill="#263238"/>
        <path id="Path_8667" data-name="Path 8667" d="M155.019,165.289c.179.148-2.281,3.177-5.733,8.418A116.217,116.217,0,0,0,131.6,218.995c-1.016,6.194-1.26,10.088-1.493,10.075a10.84,10.84,0,0,1-.069-2.75,72,72,0,0,1,.614-7.466,101.98,101.98,0,0,1,17.843-45.684,72.109,72.109,0,0,1,4.609-5.907,10.849,10.849,0,0,1,1.915-1.974" transform="translate(202.87 257.904)" fill="#6f4439"/>
        <path id="Path_8668" data-name="Path 8668" d="M302.943,299.625l-71.925,11.924s-75.518,25.931-98.6,18.678c0,0,13.677-69.4-40.52-62.918-69.9,8.362-75.868,60.6-75.868,60.6S2.563,311.919.4,285.986s5.093-54.292,5.093-54.292l7.259-18.645,199.28-33.459,98.822-31,33.855-3.951s-35.174,50.116-39.13,76.5-2.637,78.482-2.637,78.482" transform="translate(0 225.695)" fill="#141414"/>
        <path id="Path_8669" data-name="Path 8669" d="M65.31,185.829a14.586,14.586,0,0,1,1.2,2.991,34.007,34.007,0,0,1,1.114,3.613c.366,1.429.86,3.042,1.168,4.875a81.156,81.156,0,0,1,1.57,12.958,91.965,91.965,0,0,1-.868,15.971,92.257,92.257,0,0,1-3.851,15.526,81.4,81.4,0,0,1-5.3,11.931c-.832,1.662-1.777,3.06-2.545,4.317a33,33,0,0,1-2.123,3.129,14.615,14.615,0,0,1-2.025,2.507c-.22-.154,2.514-3.841,5.845-10.4a90.479,90.479,0,0,0,4.97-11.89,98.8,98.8,0,0,0,3.692-15.321,98.665,98.665,0,0,0,.96-15.731,90.387,90.387,0,0,0-1.265-12.822c-1.262-7.246-2.8-11.573-2.54-11.655" transform="translate(83.69 289.958)" fill="#141414"/>
        <path id="Path_8670" data-name="Path 8670" d="M93.13,187.509c.174.1-1.214,2.758-3.362,7.084s-5.011,10.354-7.809,17.165-4.99,13.114-6.5,17.7-2.389,7.453-2.583,7.4c-.166-.041.384-3,1.667-7.681a162.026,162.026,0,0,1,14.374-35.036c2.379-4.235,4.061-6.726,4.209-6.639" transform="translate(113.674 292.577)" fill="#263238"/>
        <path id="Path_8671" data-name="Path 8671" d="M126.348,182.533a8.1,8.1,0,0,1-.509,2.327c-.4,1.472-1.073,3.579-1.969,6.16a184.381,184.381,0,0,1-8.219,19.694,184.383,184.383,0,0,1-10.421,18.627c-1.477,2.3-2.722,4.125-3.631,5.354a8.2,8.2,0,0,1-1.516,1.836c-.172-.113,1.6-2.988,4.33-7.689s6.388-11.263,10.021-18.719,6.531-14.382,8.539-19.438,3.18-8.216,3.375-8.152" transform="translate(156.148 284.813)" fill="#263238"/>
        <path id="Path_8672" data-name="Path 8672" d="M68.828,77.212S37.456,90.457,26.3,122.525-9.25,278.681,3.995,314.237s155.459,39.737,155.459,39.737l29.28-2.791V307.265l-23.7-3.487S151.09,296.808,149,296.808s-74.593-25.1-74.593-25.1l3.487-12.548S98.108,229.187,98.8,215.591s-4.36-70.758-4.36-70.758Z" transform="translate(0.245 120.478)" fill="#fff5cc"/>
        <path id="Path_8673" data-name="Path 8673" d="M193.186,68.145,29.559,93.039,25.324,281.962l58.609,45.313,125.485-15.336L247.532,169.87s19.822-38.321,5.377-70.632c-4.66-10.426-18.77-28.294-30.248-30.589a83.106,83.106,0,0,0-29.475-.5" transform="translate(39.514 104.651)" fill="#fff5cc"/>
        <path id="Path_8674" data-name="Path 8674" d="M126.421,136.005c-15.173-10.067-33.241-14.911-45.492-28.379S70.823,87.8,66,71.83L39.8,84.691c3.231,26.512,16.437,41.659,38.313,56.981,7.458,5.223,15.828,9.425,24.83,10.787s18.708-.364,25.9-5.953a6.55,6.55,0,0,0,2.276-2.668c1.178-3.088-1.948-6-4.7-7.832" transform="translate(62.108 112.08)" fill="#fff5cc"/>
        <path id="Path_8675" data-name="Path 8675" d="M122.166,92.887a8.8,8.8,0,0,1-.182,2.478c-.2,1.582-.548,3.861-1.011,6.67-.927,5.617-2.35,13.355-4.117,21.863s-3.544,16.174-4.929,21.7c-.694,2.763-1.285,4.99-1.728,6.519a8.835,8.835,0,0,1-.822,2.348c-.184-.046.471-3.508,1.616-9.079,1.237-5.93,2.806-13.447,4.54-21.76,1.718-8.313,3.275-15.831,4.5-21.763,1.168-5.569,1.946-9,2.133-8.971" transform="translate(170.618 144.936)" fill="#263238"/>
        <path id="Path_8676" data-name="Path 8676" d="M86.839,90.9c-.182.207-2.535-2.883-7.981-5.361a36.384,36.384,0,0,0-10.006-2.791,70.327,70.327,0,0,0-12.825-.338c-4.575.22-8.956.584-12.968.65a60.344,60.344,0,0,1-10.654-.64,33.163,33.163,0,0,1-6.959-1.867A7.774,7.774,0,0,1,23.1,79.346c.084-.23,3.495,1.421,9.44,2.13a68.169,68.169,0,0,0,10.487.341c3.961-.133,8.321-.533,12.94-.755a65.717,65.717,0,0,1,13.065.456A34.662,34.662,0,0,1,79.273,84.68a23.358,23.358,0,0,1,5.907,4.163A7.267,7.267,0,0,1,86.839,90.9" transform="translate(36.04 123.774)" fill="#263238"/>
        <path id="Path_8677" data-name="Path 8677" d="M85.765,122.93a6.876,6.876,0,0,1-2.115-.574,45.511,45.511,0,0,1-5.492-2.317A65.729,65.729,0,0,1,49.99,93.26,45.914,45.914,0,0,1,47.4,87.9a6.778,6.778,0,0,1-.678-2.084c.213-.095,1.493,2.729,4.1,6.964A74.544,74.544,0,0,0,78.6,119.189c4.36,2.386,7.248,3.523,7.164,3.741" transform="translate(72.869 133.894)" fill="#263238"/>
        <path id="Path_8678" data-name="Path 8678" d="M94.553,76.854a6.558,6.558,0,0,1,.474,2.084,46.434,46.434,0,0,1,.517,5.794,67.056,67.056,0,0,1-9.624,36.723,45.69,45.69,0,0,1-3.29,4.793c-.853,1.075-1.36,1.641-1.434,1.585-.187-.133,1.567-2.6,3.894-6.857a79.05,79.05,0,0,0,6.985-17.533,79.169,79.169,0,0,0,2.512-18.7c.056-4.852-.261-7.863-.033-7.888" transform="translate(126.672 119.919)" fill="#263238"/>
        <path id="Path_8679" data-name="Path 8679" d="M56.367,210.5a4.913,4.913,0,0,1,.187-1.319c.218-1,.481-2.22.8-3.7.387-1.6.822-3.556,1.155-5.868.358-2.3.917-4.9,1.15-7.83.154-1.462.32-2.991.489-4.575s.172-3.259.274-4.98c.253-3.441.118-7.123.074-10.994a149.334,149.334,0,0,0-3.2-24.958,149.447,149.447,0,0,0-7.745-23.947c-1.613-3.523-3.062-6.91-4.762-9.914-.824-1.513-1.541-3.019-2.368-4.388s-1.631-2.673-2.4-3.93c-1.457-2.548-3.065-4.662-4.373-6.593-1.288-1.948-2.517-3.533-3.546-4.813-.922-1.2-1.682-2.2-2.3-3.008a4.905,4.905,0,0,1-.735-1.111c.036-.031.358.292.94.935.676.768,1.5,1.71,2.507,2.855a52.874,52.874,0,0,1,3.748,4.7c1.372,1.9,3.047,3.989,4.573,6.524q1.191,1.878,2.489,3.917c.853,1.367,1.6,2.87,2.455,4.386,1.756,3.006,3.257,6.406,4.918,9.947a143.751,143.751,0,0,1,7.917,24.147,143.209,143.209,0,0,1,3.131,25.214c.013,3.91.1,7.625-.2,11.094-.123,1.733-.164,3.413-.351,5.016q-.307,2.393-.584,4.6c-.3,2.942-.922,5.548-1.352,7.853a53.766,53.766,0,0,1-1.388,5.85c-.42,1.459-.766,2.665-1.05,3.651a4.865,4.865,0,0,1-.451,1.244" transform="translate(45.348 138.196)" fill="#263238"/>
        <path id="Path_8680" data-name="Path 8680" d="M33.088,163.652c-.346-.141,1.831-6.258,4.86-13.659s5.768-13.288,6.114-13.147S42.231,143.1,39.2,150.5s-5.766,13.288-6.112,13.147" transform="translate(51.573 213.523)" fill="#263238"/>
        <path id="Path_8681" data-name="Path 8681" d="M152.624,198.326a5.723,5.723,0,0,1-1.434-.087l-4.074-.507c-3.72-.53-8.777-1.247-14.942-2.123-12.771-1.946-30.087-4.586-49.22-7.5-1.1-.174-2.187-.343-3.2-.5l-.246-.038-.164-.189A154,154,0,0,0,43.32,156.82c-5.154-3.149-9.468-5.436-12.482-6.941-1.4-.7-2.545-1.27-3.469-1.731a5.334,5.334,0,0,1-1.18-.676,5.232,5.232,0,0,1,1.288.433c.819.338,2.051.8,3.582,1.511a130.587,130.587,0,0,1,12.743,6.6A146.652,146.652,0,0,1,80.368,186.5l-.407-.225,3.2.5c19.108,3.07,36.4,5.845,49.156,7.894,6.14,1.05,11.173,1.913,14.878,2.545l4.033.76a5.829,5.829,0,0,1,1.393.356" transform="translate(40.862 230.098)" fill="#263238"/>
        <path id="Path_8682" data-name="Path 8682" d="M156.567,125.29a4.585,4.585,0,0,1-.558,1.157c-.5.865-1.1,1.92-1.833,3.193a56.746,56.746,0,0,1-3.118,4.918c-1.3,1.864-2.686,4.061-4.5,6.275-1.741,2.274-3.674,4.744-5.953,7.228-2.163,2.586-4.744,5.1-7.407,7.791a151.979,151.979,0,0,1-19.126,15.5,151.844,151.844,0,0,1-21.558,11.906c-3.5,1.454-6.8,2.9-10,3.938-3.157,1.18-6.173,2.041-8.933,2.8-2.737.847-5.29,1.308-7.5,1.81a56.841,56.841,0,0,1-5.733,1.045c-1.454.2-2.655.364-3.646.5a4.629,4.629,0,0,1-1.283.085,4.752,4.752,0,0,1,1.242-.353c.975-.2,2.161-.448,3.595-.748,1.564-.287,3.474-.671,5.658-1.262,2.187-.571,4.708-1.093,7.407-1.995,2.724-.812,5.7-1.721,8.818-2.934,3.167-1.073,6.419-2.548,9.873-4.022a159.3,159.3,0,0,0,21.312-11.888,159.571,159.571,0,0,0,19.018-15.283c2.663-2.645,5.251-5.108,7.435-7.64,2.3-2.43,4.255-4.847,6.032-7.067,1.851-2.164,3.28-4.3,4.632-6.117,1.367-1.8,2.44-3.426,3.3-4.77.814-1.216,1.49-2.222,2.043-3.049a4.678,4.678,0,0,1,.794-1.019" transform="translate(86.464 195.494)" fill="#263238"/>
        <path id="Path_8683" data-name="Path 8683" d="M183.567,322.267a4.768,4.768,0,0,1-.96.3c-.643.166-1.6.4-2.87.661-2.532.53-6.3,1.206-11.181,1.787s-10.887,1.091-17.876,1.237c-3.495.049-7.225.095-11.2-.092-3.963-.2-8.137-.566-12.507-1.027-17.482-1.874-38.188-4.977-61-9.417-11.391-2.271-23.34-4.793-35.5-8.4-3.042-.9-6.081-1.915-9.1-3.106-2.944-1.211-6.173-2.555-8.49-5.075-4.806-4.732-7.53-11.286-8.657-17.951a47.88,47.88,0,0,1-.6-11l0,.087A341.128,341.128,0,0,1,9.3,198.717c3.879-21.663,8.767-40.792,13.025-56.745,4.278-15.954,7.935-28.758,10.421-37.6,1.239-4.363,2.207-7.773,2.886-10.17.328-1.106.586-1.977.781-2.632a5.176,5.176,0,0,1,.307-.883,4.749,4.749,0,0,1-.179.919c-.164.663-.379,1.546-.653,2.665L33.236,104.5c-2.376,8.954-5.789,21.8-10.011,37.7-4.138,15.977-8.92,35.1-12.717,56.722a344.449,344.449,0,0,0-5.533,71.29l0,.033-.005.056a46.872,46.872,0,0,0,.594,10.646c1.1,6.478,3.728,12.748,8.272,17.226,2.138,2.34,5.1,3.567,8.037,4.788,2.957,1.17,5.966,2.181,8.982,3.078,12.069,3.6,24,6.145,35.358,8.444,22.756,4.5,43.434,7.7,60.86,9.691a183.473,183.473,0,0,0,41.421.307c4.88-.5,8.646-1.088,11.189-1.531l2.891-.527a6.6,6.6,0,0,1,.991-.164" transform="translate(5.413 141.502)" fill="#fff"/>
        <path id="Path_8684" data-name="Path 8684" d="M179.238,320.443a5.134,5.134,0,0,1-.94.287c-.63.154-1.557.443-2.8.678a84.577,84.577,0,0,1-11.007,1.314c-9.614.591-23.573.3-40.7-1.27-17.126-1.59-37.455-4.258-59.784-8.61-11.15-2.23-22.851-4.714-34.657-8.639a38.747,38.747,0,0,1-8.654-3.971,30.77,30.77,0,0,1-6.47-7.22,52.58,52.58,0,0,1-6.992-18.266c-.317-1.628-.579-3.259-.745-4.908-.138-1.69-.082-3.28-.133-4.916-.01-3.246-.187-6.478-.059-9.676q.127-4.8.251-9.525.3-4.716.594-9.356c.978-12.354,2.553-24.208,4.473-35.425,3.971-22.411,8.979-42.294,13.442-58.891s8.313-29.966,10.917-39.217C37.264,98.271,38.281,94.7,39,92.19c.343-1.16.612-2.074.817-2.76a5.151,5.151,0,0,1,.323-.929,5.1,5.1,0,0,1-.189.965c-.172.694-.4,1.621-.689,2.8-.655,2.524-1.587,6.119-2.781,10.713-2.5,9.358-6.083,22.774-10.5,39.322-4.34,16.617-9.243,36.5-13.137,58.857-1.882,11.189-3.423,23.007-4.378,35.31q-.288,4.62-.581,9.317-.119,4.7-.241,9.484c-.125,3.185.054,6.388.064,9.617.049,1.6,0,3.264.128,4.821.161,1.6.417,3.2.727,4.785a51.356,51.356,0,0,0,6.793,17.789,29.728,29.728,0,0,0,6.137,6.882,38.155,38.155,0,0,0,8.3,3.792c11.662,3.9,23.353,6.414,34.46,8.667,22.267,4.409,42.553,7.174,59.636,8.882,17.085,1.692,31,2.125,40.584,1.695a96.687,96.687,0,0,0,10.986-1.052c1.247-.192,2.179-.438,2.819-.545a5.4,5.4,0,0,1,.973-.154" transform="translate(9.741 138.093)" fill="#fff"/>
        <path id="Path_8685" data-name="Path 8685" d="M233.629,176.514c6.181,5.881,17.771,23.45,19.92,31.71,3.364,12.912,5.771,31.48-4.547,40.507-16.732,14.64-106.659,30.676-106.659,30.676l-17.428-42.525,43.093-31.538-50.28-22.7L104.055,68.26s36.974,20.56,67.634,51.222c24.62,24.618,47.671,43.465,61.94,57.032" transform="translate(162.362 106.51)" fill="#fff5cc"/>
        <path id="Path_8686" data-name="Path 8686" d="M178.72,116.154c.01.218-3.024.44-7.86,1.162a109.147,109.147,0,0,0-36.037,11.977c-4.309,2.317-6.872,3.956-6.995,3.774-.051-.077.533-.566,1.641-1.39s2.765-1.941,4.88-3.216a89.534,89.534,0,0,1,36.39-12.1c2.455-.243,4.452-.353,5.832-.343a6.654,6.654,0,0,1,2.148.131" transform="translate(199.451 181.036)" fill="#263238"/>
        <path id="Path_8687" data-name="Path 8687" d="M234.029,129.512a4.473,4.473,0,0,1-.445,1.2,16.646,16.646,0,0,1-1.838,3.183,28.907,28.907,0,0,1-10.39,8.549c-5.049,2.719-11.565,4.775-18.734,6.872-7.177,2.143-15.083,4.437-23.4,6.77-16.647,4.665-31.8,8.582-42.8,11.271-5.5,1.347-9.965,2.389-13.058,3.075l-3.569.753a4.508,4.508,0,0,1-1.267.174,4.605,4.605,0,0,1,1.2-.438c.955-.271,2.112-.6,3.508-1l12.948-3.49c10.938-2.924,26.039-6.985,42.676-11.647,8.3-2.361,16.194-4.609,23.417-6.665,7.2-2.033,13.642-3.969,18.647-6.526a29.843,29.843,0,0,0,10.405-8.014c1.925-2.473,2.568-4.135,2.706-4.066" transform="translate(184.934 202.081)" fill="#fff"/>
        <path id="Path_8688" data-name="Path 8688" d="M234.475,126.683a4.667,4.667,0,0,1-.709,1.075,29.607,29.607,0,0,1-2.34,2.852,42.334,42.334,0,0,1-10.623,8.436c-4.988,2.916-11.475,5.208-18.639,7.54-7.166,2.307-14.981,5.116-23.317,7.656-16.647,5.187-31.966,9.018-43.116,11.468-5.574,1.239-10.111,2.115-13.247,2.7l-3.628.609a4.588,4.588,0,0,1-1.28.123,4.64,4.64,0,0,1,1.226-.392c.97-.23,2.148-.515,3.574-.858l13.137-3.113c11.079-2.686,26.323-6.652,42.932-11.829,8.313-2.532,16.125-5.3,23.335-7.55,7.184-2.266,13.611-4.432,18.56-7.187a45.373,45.373,0,0,0,10.7-7.968c2.251-2.235,3.318-3.654,3.431-3.561" transform="translate(183.457 197.663)" fill="#fff"/>
        <path id="Path_8689" data-name="Path 8689" d="M221.2,165.412a6.1,6.1,0,0,1-1.155-.935c-.827-.755-1.861-1.7-3.129-2.865l-11.463-10.569c-9.722-8.872-23.391-20.869-39.058-33.428-15.685-12.548-30.379-23.266-41.163-30.814-5.3-3.666-9.637-6.672-12.817-8.874-1.411-.983-2.56-1.787-3.48-2.427a6.118,6.118,0,0,1-1.162-.924,6.322,6.322,0,0,1,1.311.694c.955.586,2.153,1.319,3.618,2.217,3.136,1.936,7.607,4.844,13.073,8.526,10.935,7.356,25.752,17.974,41.465,30.548,15.7,12.582,29.3,24.718,38.864,33.781,4.788,4.529,8.6,8.257,11.178,10.894l2.952,3.047a6.1,6.1,0,0,1,.965,1.129" transform="translate(168.169 116.358)" fill="#fff"/>
        <path id="Path_8690" data-name="Path 8690" d="M79.993,212.1c-.563-1.82-2.051-11.665-2.051-11.665L90.7,179.554l27.754-21.914,47.871-22.882,15.365,37.489-22.278,10.917-11.668,25.783-9.215,11.97-1.805,27.736s-3.8,2.064-5.894-1.288-2.56-23.688-2.2-22.544-2.476,25.371-5.313,25.376-9.263-4.122-9.263-4.122l2.033-24.418s-3.856,29.308-6.176,28.54-7.033-2.811-7.125-8.365-1.444-38.3-1.444-38.3l-10.928,7.3s8.869,19.262,6.319,21.067-11.854-4-16.742-19.792" transform="translate(121.617 210.27)" fill="#ae7461"/>
        <path id="Path_8691" data-name="Path 8691" d="M138.213,75.926c-10.756-7.691-55.58-14.7-68.461-17.695-6.549-1.523-14.561-1.92-18.819,3.285-3.136,3.835-3.047,9.437-5.648,13.652-5.177,8.38-18.6,8.2-23.96,16.466-4.583,7.067-.586,17.057,6.181,22.07s15.434,6.447,23.665,8.234a212.377,212.377,0,0,1,45.357,15.385c3.3,1.552,7.32,3.162,10.364,1.16,2.059-1.352,2.888-3.925,3.449-6.324,5.034-21.507,9.44-40.7-4.675-57.695Z" transform="translate(30.209 89.296)" fill="#fff5cc"/>
        <g id="Group_1552" data-name="Group 1552" transform="translate(63.638 152.215)" opacity="0.3">
          <g id="Group_1551" data-name="Group 1551">
            <g id="Group_1550" data-name="Group 1550" clip-path="url(#clip-path-4)">
              <path id="Path_8692" data-name="Path 8692" d="M110.908,71.128c-6.775-1.4-34.04-6.237-41.485-10.213a11.529,11.529,0,0,0-7.771-1.244c-8.826,1.864-8.48,14.046-14.888,19.579-3.62,3.126-8.746,3.582-13.291,5.077-4.88,1.608-9.962,5.873-8.293,11.089A7.7,7.7,0,0,0,28.2,99.328c3.08,2.122,6.772,2.363,10.359,2.578,9.594.581,19.244,1.16,28.794.064,6.846-.786,17.177-5.873,21.976-10.823l-.005-10.126c62.68,4.665,31.334-7.876,21.584-9.893" transform="translate(-24.855 -59.453)"/>
            </g>
          </g>
        </g>
        <path id="Path_8693" data-name="Path 8693" d="M137.8,73.253a14.888,14.888,0,0,0,15.892-10.917,14.888,14.888,0,0,0-9.263-16.911,15.373,15.373,0,0,0,2.916-17.262,15.369,15.369,0,0,0-15.462-8.206,17.9,17.9,0,0,0-26.7-15.185A20.125,20.125,0,0,0,80.412,3.79a14.721,14.721,0,0,0-15.439,7.172,14.717,14.717,0,0,0,2.335,16.862" transform="translate(98.787 -0.001)" fill="#263238"/>
        <path id="Path_8694" data-name="Path 8694" d="M161.944,64.4A61,61,0,0,0,102.3,7.064L99.143,7C65.052,8.287,47.1,37.964,49.334,72.009l2.6,113.5,4.283,6.7c12.989,16.589,39.447,35.149,50.79,46.414,17.631-9.064,23.087-13.667,23.45-35.41l.4-23.727s32.839-4.419,33.914-37.14c.52-15.8-1.057-48.426-2.829-77.94" transform="translate(76.689 10.918)" fill="#ae7461"/>
        <path id="Path_8695" data-name="Path 8695" d="M107.145,82.533S86.22,83.362,64.518,69.1c0,0,9.6,23.76,42.323,21.484Z" transform="translate(100.671 107.822)" fill="#6f4439"/>
        <path id="Path_8696" data-name="Path 8696" d="M94.247,44.726a4.675,4.675,0,0,1-4.6,4.624,4.472,4.472,0,0,1-4.732-4.314,4.678,4.678,0,0,1,4.6-4.627,4.478,4.478,0,0,1,4.737,4.317" transform="translate(132.492 63.049)" fill="#263238"/>
        <path id="Path_8697" data-name="Path 8697" d="M101.58,38.723c-.591.6-4.079-2.1-9.11-2.187-5.021-.161-8.767,2.35-9.3,1.723-.261-.279.351-1.367,1.982-2.5a12.837,12.837,0,0,1,7.461-2.133,12.33,12.33,0,0,1,7.236,2.5c1.521,1.219,2.023,2.332,1.731,2.6" transform="translate(129.686 52.457)" fill="#263238"/>
        <path id="Path_8698" data-name="Path 8698" d="M76.63,44.4a4.673,4.673,0,0,1-4.6,4.621A4.469,4.469,0,0,1,67.3,44.708a4.678,4.678,0,0,1,4.6-4.627A4.473,4.473,0,0,1,76.63,44.4" transform="translate(105.004 62.537)" fill="#263238"/>
        <path id="Path_8699" data-name="Path 8699" d="M82.265,38.693c-.591.6-4.084-2.094-9.11-2.184-5.023-.161-8.767,2.35-9.3,1.721-.261-.277.346-1.365,1.984-2.5A12.815,12.815,0,0,1,73.3,33.592a12.323,12.323,0,0,1,7.236,2.5c1.518,1.219,2.023,2.332,1.733,2.6" transform="translate(99.543 52.41)" fill="#263238"/>
        <path id="Path_8700" data-name="Path 8700" d="M78.753,75.866c-.018-.287,3.121-.763,8.2-1.308,1.288-.1,2.509-.335,2.742-1.208.323-.919-.187-2.315-.778-3.825q-1.717-4.693-3.6-9.857c-4.99-14.031-8.572-25.557-8-25.755s5.069,11.02,10.057,25.05q1.8,5.189,3.436,9.914c.456,1.47,1.26,3.142.563,5.054a3.226,3.226,0,0,1-2.148,1.836,8.683,8.683,0,0,1-2.189.256c-5.1.172-8.267.128-8.28-.156" transform="translate(120.545 52.912)" fill="#263238"/>
        <path id="Path_8701" data-name="Path 8701" d="M85.69,30.316c-.525,1.357-5.533.607-11.447,1.2-5.93.471-10.723,2.1-11.481.86-.335-.6.52-1.864,2.471-3.149A20,20,0,0,1,82.7,27.658c2.148.917,3.218,2.012,2.99,2.658" transform="translate(97.82 41.103)" fill="#263238"/>
        <path id="Path_8702" data-name="Path 8702" d="M100.147,33.2c-.909,1.124-4.347-.133-8.513-.274-4.161-.287-7.712.609-8.5-.6-.346-.586.233-1.721,1.8-2.77a12.329,12.329,0,0,1,13.708.707c1.447,1.2,1.907,2.391,1.505,2.939" transform="translate(129.57 43.386)" fill="#263238"/>
        <path id="Path_8703" data-name="Path 8703" d="M163.848,51.692s-8.214-20.675-18-25.66c-11.847-6.037-17.267,6.992-28.6,3.569s-22.646-9.212-34.48-.635c-12.953,9.386-7.115,16.276-8.2,30.783-4.4,58.811-15.5,75.241-17.986,47.446-.274-3.047-8.657-5.635-9.642-18.5-1.278-16.678-1.5-36.9,2.453-48.639C52.726,30.165,58.546,23.4,68.88,16.026,85.2,4.384,107.275,4.581,122.235,6.4s43.505,19.658,41.613,45.3" transform="translate(71.945 8.543)" fill="#263238"/>
        <path id="Path_8704" data-name="Path 8704" d="M64.581,50.226a8.884,8.884,0,0,0-9.417-8.759c-6.114.456-12.978,3.782-12.835,16.4.256,22.39,22.682,17.515,22.713,16.873.023-.435-.271-15.15-.461-24.518" transform="translate(66.045 64.665)" fill="#ae7461"/>
        <path id="Path_8705" data-name="Path 8705" d="M55.41,61.947c-.1-.069-.387.279-1.042.589a3.907,3.907,0,0,1-2.916.092c-2.376-.842-4.409-4.573-4.565-8.608a12.881,12.881,0,0,1,1.029-5.6c.666-1.646,1.71-2.8,2.9-3.026a1.983,1.983,0,0,1,2.315,1.042c.307.622.172,1.07.289,1.109.064.056.476-.381.287-1.306a2.473,2.473,0,0,0-.9-1.39,2.93,2.93,0,0,0-2.163-.545c-1.723.138-3.259,1.744-4.033,3.515a13.227,13.227,0,0,0-1.283,6.258c.2,4.511,2.553,8.705,5.8,9.6a4.172,4.172,0,0,0,3.559-.632c.689-.561.8-1.063.722-1.1" transform="translate(70.71 69.095)" fill="#6f4439"/>
        <path id="Path_8706" data-name="Path 8706" d="M64.48,67.592c2.865,2.043,5.894,4.153,9.389,4.57s7.54-1.511,8.2-4.967c.3-1.552-.046-3.367,1-4.55,1.249-1.411,3.495-.914,5.366-.678a14.285,14.285,0,0,0,15.034-9.934c1.608,2.517,5.484,2.489,8.027.922s4.217-4.184,6.227-6.393,4.811-4.166,7.76-3.684c1.649.269,3.177,1.285,4.844,1.173,2.944-.2,4.45-3.613,4.954-6.521s.919-6.3,3.441-7.837c2.335-1.421,5.308-.51,8.006-.056s6.2-.11,6.949-2.74a5.32,5.32,0,0,0-.919-4.081,14.494,14.494,0,0,0-16.993-5.835,19.646,19.646,0,0,0-36.011-4.55,19.938,19.938,0,0,0-32.015,6.616,14.811,14.811,0,0,0-15.2,4.811A14.812,14.812,0,0,0,51.02,39.728c-4.068,2.215-7.594,6.142-7.773,10.771s4.24,9.338,8.733,8.211a8,8,0,0,0,13.677,8.265" transform="translate(67.473 3.954)" fill="#263238"/>
        <path id="Path_8707" data-name="Path 8707" d="M136.163,10.761a1.22,1.22,0,0,1-.013.41c-.036.269-.061.673-.166,1.193a14.112,14.112,0,0,1-1.715,4.278,16.01,16.01,0,0,1-5.07,5.187,14.924,14.924,0,0,1-9.22,2.427l.389-.489a8.093,8.093,0,0,1-.576,6.168,23.071,23.071,0,0,1-3.943,5.425,16.667,16.667,0,0,1-2.555,2.517,7.837,7.837,0,0,1-3.574,1.242,8.166,8.166,0,0,1-7.149-2.729l.84-.22a16.777,16.777,0,0,1-7.356,11.465,12.246,12.246,0,0,1-7.4,2.258,22.092,22.092,0,0,1-7.207-1.738l.6-.251a17.629,17.629,0,0,1-5.438,6.8,9.389,9.389,0,0,1-7.837,1.964,12.332,12.332,0,0,1-9.294-9.842l.5.246a11.539,11.539,0,0,1-7.712.973,12.533,12.533,0,0,1-5.313-2.5,10.8,10.8,0,0,1-2.445-2.786,5.209,5.209,0,0,1-.543-1.17,13.453,13.453,0,0,0,3.218,3.659,12.433,12.433,0,0,0,5.187,2.266,11.051,11.051,0,0,0,7.282-1.042l.422-.228.079.474a11.624,11.624,0,0,0,8.8,9.123,8.525,8.525,0,0,0,7.115-1.861,16.814,16.814,0,0,0,5.11-6.452l.187-.412.417.161a21.35,21.35,0,0,0,6.9,1.654,11.292,11.292,0,0,0,6.831-2.1,15.888,15.888,0,0,0,6.956-10.8l.161-1.055.678.835a7.271,7.271,0,0,0,6.314,2.407,6.931,6.931,0,0,0,3.167-1.075,16.062,16.062,0,0,0,2.409-2.358,22.516,22.516,0,0,0,3.853-5.19,7.34,7.34,0,0,0,.6-5.582l-.172-.538.561.049a14.394,14.394,0,0,0,8.833-2.187,15.947,15.947,0,0,0,5.034-4.906,17.311,17.311,0,0,0,2.248-5.658" transform="translate(68.609 16.789)" fill="#455a64"/>
        <path id="Path_8708" data-name="Path 8708" d="M91.518,57.87,80.752,54.186a7.851,7.851,0,0,0-4.437-.6c-2.673.7-3.815,4.02-3.382,6.747a10.544,10.544,0,0,0,10.38,8.59c4.906-.151,6.785-6.042,8.206-11.048" transform="translate(113.661 83.395)" fill="#6f4439"/>
        <path id="Path_8709" data-name="Path 8709" d="M86.619,69.543c.11.077-2.189,1.454-6.055.535a10.152,10.152,0,0,1-5.646-3.733,10.7,10.7,0,0,1-1.874-8.073,10.1,10.1,0,0,1,1.654-4.1,2.848,2.848,0,0,1,.958-.853,2.05,2.05,0,0,1,1.367-.164c.763.187,1.26.389,1.874.576q3.3,1.1,6.194,2.066c3.513,1.214,5.658,2.053,5.6,2.233s-2.3-.338-5.886-1.319l-6.281-1.79c-.563-.156-1.252-.389-1.744-.5-.443-.082-.648.064-1.022.538a9.105,9.105,0,0,0-1.385,3.531,9.756,9.756,0,0,0,1.552,7.12,9.6,9.6,0,0,0,4.9,3.544c3.449,1.08,5.756.131,5.789.384" transform="translate(113.749 82.865)" fill="#263238"/>
        <path id="Path_8710" data-name="Path 8710" d="M139.275,180.531c.5-4.376-2.143-8.695-5.82-11.117s-8.211-3.208-12.615-3.267a44.256,44.256,0,0,0-31.247,12.541l-1.948,5.118s11.936,8.936,13.3,9.051,24.093-3.349,24.093-3.349Z" transform="translate(136.759 259.242)" fill="#263238"/>
        <path id="Path_8711" data-name="Path 8711" d="M103.83,184.458a6.483,6.483,0,0,1,.151,1.08c.077.781.182,1.836.312,3.185.251,2.873.609,6.99,1.068,12.254.873,10.718,2.125,26.105,3.672,45.09,1.5,19.062,3.29,41.726,5.274,66.887.975,12.592,2,25.806,3.06,39.5.463,6.846.763,14.01-1.042,21.054a28.638,28.638,0,0,1-4.611,9.9c-2.266,2.888-5.5,5.472-9.532,5.7a8.33,8.33,0,0,1-5.507-1.823,13.085,13.085,0,0,1-3.449-4.5,26.847,26.847,0,0,1-1.884-5.154c-.443-1.746-1.05-3.449-1.352-5.215a91.715,91.715,0,0,1-2.023-20.967c.177-13.849,2.717-26.976,5.172-39.35,2.537-12.379,4.957-24.113,6.45-35.23,1.567-11.1,2.527-21.515,3.06-31.037a375.453,375.453,0,0,0-.248-45.159c-.343-5.326-.694-9.455-.965-12.254-.118-1.349-.213-2.4-.279-3.185a6.584,6.584,0,0,1-.051-1.091,6.392,6.392,0,0,1,.187,1.075c.1.776.238,1.828.415,3.172.358,2.791.794,6.918,1.219,12.244a352.457,352.457,0,0,1,.678,45.249c-.471,9.55-1.38,19.994-2.9,31.139-1.449,11.158-3.841,22.956-6.342,35.32-2.417,12.367-4.913,25.432-5.067,39.122a90.564,90.564,0,0,0,2.01,20.66c.3,1.738.9,3.408,1.331,5.123a25.559,25.559,0,0,0,1.8,4.934,11.739,11.739,0,0,0,3.075,4.038,6.959,6.959,0,0,0,4.616,1.531c3.382-.166,6.429-2.486,8.513-5.174a27.336,27.336,0,0,0,4.381-9.412c1.746-6.77,1.477-13.813,1.022-20.621-1.032-13.7-2.03-26.909-2.98-39.5-1.874-25.168-3.564-47.84-4.982-66.907-1.367-19-2.473-34.4-3.244-45.124-.351-5.274-.625-9.4-.814-12.274-.074-1.352-.133-2.412-.177-3.2a6.5,6.5,0,0,1-.015-1.091" transform="translate(137.247 287.34)" fill="#263238"/>
        <path id="Path_8712" data-name="Path 8712" d="M73.81,178.477s18.931-15.022,23-15.895,9.315,2.33,17.175,1.457a85.538,85.538,0,0,1,14.809-.292s2.363,7.568-3.456,10.48-14.845,4.25-14.845,4.25l-5.407,4.9,19.379,8.311h18.045l20.959-5.994s5.822,1.336,2.911,5.994-18.629,13.972-18.629,13.972.581,2.911-4.949,7.568c0,0-22.413,20.375-28.236,21.248a26.1,26.1,0,0,1-9.315,0L73.81,217.016Z" transform="translate(115.169 253.449)" fill="#ae7461"/>
        <path id="Path_8713" data-name="Path 8713" d="M74.08,178.711a3.529,3.529,0,0,1,.056.694c.015.517.033,1.17.056,1.984q.042,2.738.115,7.622c.049,6.693.123,16.276.215,28.238l-.228-.387c8.936,4.921,19.617,10.8,31.51,17.349l-.138-.054a23.914,23.914,0,0,0,5.968.3c1.024-.067,2.053-.179,3.085-.33a12,12,0,0,0,2.76-1.134,92.291,92.291,0,0,0,10.7-7.64c3.528-2.829,7.056-5.835,10.613-8.951,1.759-1.549,3.595-3.17,5.31-4.765a15.65,15.65,0,0,0,2.225-2.676,5.621,5.621,0,0,0,1.047-2.934l-.033-.494.346-.21c4.027-2.435,8.093-5.046,12.008-7.929a40.253,40.253,0,0,0,5.512-4.721,5.693,5.693,0,0,0,1.554-2.873,2.489,2.489,0,0,0-1.4-2.453,6.688,6.688,0,0,0-1.767-.755l.335-.008-20.959,5.984-.09.026h-.095l-18.045-.015H124.6l-.123-.054-19.364-8.339-.891-.384.717-.648q2.757-2.489,5.418-4.89l.131-.12.187-.031a60.154,60.154,0,0,0,13.624-3.669,9.4,9.4,0,0,0,2.722-1.657,6.48,6.48,0,0,0,1.564-2.6,11.055,11.055,0,0,0-.026-6.048l.463.369a86.609,86.609,0,0,0-13.071.079,32.131,32.131,0,0,1-11.837-.638c-7.486-3.152-12.576,2.676-16.875,5.2-4.268,3-7.515,5.448-9.74,7.09-1.057.783-1.895,1.4-2.53,1.872a5.811,5.811,0,0,1-.894.6,5.369,5.369,0,0,1,.8-.727c.609-.5,1.416-1.16,2.437-1.995,2.163-1.721,5.356-4.25,9.581-7.328,2.123-1.529,4.473-3.231,7.223-4.865a15.374,15.374,0,0,1,2.22-1.124,6.326,6.326,0,0,1,2.617-.392,32.927,32.927,0,0,1,5.338.837,31.314,31.314,0,0,0,11.578.512,86.423,86.423,0,0,1,13.242-.177l.369.023.095.346a12.1,12.1,0,0,1,.061,6.7,7.564,7.564,0,0,1-1.831,3.065,10.48,10.48,0,0,1-3.044,1.9,60.892,60.892,0,0,1-13.908,3.823l.317-.151q-2.65,2.416-5.395,4.913l-.172-1.029q9.336,3.99,19.39,8.283l-.256-.054,18.045-.015-.182.026q10.25-2.938,20.954-6l.177-.049.161.041a7.739,7.739,0,0,1,2.184.929,4.772,4.772,0,0,1,1.559,1.521,3.393,3.393,0,0,1,.466,2.222,6.922,6.922,0,0,1-1.89,3.625,41.323,41.323,0,0,1-5.717,4.906c-3.981,2.924-8.055,5.535-12.133,7.991l.312-.7a6.418,6.418,0,0,1-1.232,3.907,16.956,16.956,0,0,1-2.42,2.9c-1.823,1.685-3.579,3.226-5.377,4.8-3.577,3.119-7.125,6.124-10.684,8.956a92.381,92.381,0,0,1-10.9,7.717,12.821,12.821,0,0,1-3.165,1.257c-1.065.151-2.13.264-3.193.325a24.78,24.78,0,0,1-6.316-.364l-.067-.015-.074-.041c-11.842-6.634-22.48-12.594-31.382-17.579l-.228-.131,0-.256c.09-12.029.164-21.666.215-28.394q.069-4.843.113-7.566c.023-.8.041-1.434.056-1.938a2.619,2.619,0,0,1,.056-.64" transform="translate(114.9 253.215)" fill="#6f4439"/>
        <path id="Path_8714" data-name="Path 8714" d="M100.189,168.577c-.013.246-4.227.85-9.059,2.944a35.674,35.674,0,0,0-5.71,3.436c-1.431.993-2.366,1.57-2.486,1.424s.594-.973,1.892-2.171a21.758,21.758,0,0,1,5.763-3.93c5.029-2.189,9.635-2.212,9.6-1.7" transform="translate(129.388 262.614)" fill="#6f4439"/>
        <path id="Path_8715" data-name="Path 8715" d="M128.734,180.441c.013.187-2.437.515-6.411.891s-9.466.807-15.536,1.2c-6.058.3-11.586.97-15.667.2-4.125-.707-5.976-2.822-5.832-2.88.123-.2,2.064,1.513,5.976,1.933,3.853.5,9.358-.3,15.436-.609,6.073-.389,11.575-.668,15.562-.8s6.46-.123,6.473.064" transform="translate(133.067 280.611)" fill="#6f4439"/>
        <path id="Path_8716" data-name="Path 8716" d="M116.576,183.083c.136.348-6.263,3.152-14.287,6.26-3.943,1.585-7.845,2.96-10.833,2.655-2.98-.2-4.483-1.48-4.371-1.587.092-.2,1.659.694,4.394.632,2.745.046,6.314-1.352,10.321-2.962,8.024-3.108,14.64-5.346,14.776-5" transform="translate(135.875 285.618)" fill="#6f4439"/>
      </g>
    </g>
    <g id="Group_1557" data-name="Group 1557" transform="translate(-174.027)">
      <g id="Group_1545" data-name="Group 1545" clip-path="url(#clip-path)">
        <path id="Path_8610" data-name="Path 8610" d="M216.828,241.436c1.354-16.837,11.173-29.448,23.725-40.747s28.89-18.067,45.657-20.11c17.66-2.151,36.137.929,51.485,9.924s27.294,24.107,31.2,41.463c5.332,23.7-5.2,49.609-24.175,64.787s-45.181,19.951-68.941,14.877c-16.368-3.5-31.97-11.582-43.127-24.059s-17.545-29.488-15.825-46.136" transform="translate(366.345 304.379)" fill="#263238"/>
        <path id="Path_8611" data-name="Path 8611" d="M284.728,192.653c-6.775.791-13.434-1.873-20.218-2.6-14.934-1.6-29.437,7.074-38.465,19.076-8.4,11.165-11.133,26.713-10.089,43,.713,11.163,4.064,22.35,10.7,31.353a46.714,46.714,0,0,0,38.538,18.643l7.984-76.459c7.461-5.454,15.066-11.047,20.376-18.611a15.737,15.737,0,0,0,3.182-7.383c.245-2.7-.877-5.671-3.276-6.937-2.622-1.381-5.787-.425-8.729-.081" transform="translate(364.984 321.197)" fill="#263238"/>
        <path id="Path_8612" data-name="Path 8612" d="M223.97,259.16l29.983-60.909a12.4,12.4,0,0,1,14.616-8.231l139.112,36.147a44.631,44.631,0,0,1,23.965,15.741l6.361,8.151c14.5,18.581,5.478,46.473-17.421,52.039a15.858,15.858,0,0,1-4.024.554,30.075,30.075,0,0,1-3.3-.191,104.025,104.025,0,0,1-21.378-4.24c-12.565-2.525-17.7-3.62-17.588-3.588,0,0-10.019,25.5-45.673,23.628-17.733-.929-45.671-7.779-68.349-14.124-20.414-5.712-42.879-24.829-36.306-44.979" transform="translate(376.926 320.909)" fill="#ffbe9d"/>
        <path id="Path_8613" data-name="Path 8613" d="M250.407,235.13a4.524,4.524,0,0,0,5.373-3.314,4.33,4.33,0,0,0-3.017-5.41,4.525,4.525,0,0,0-5.373,3.311,4.326,4.326,0,0,0,3.017,5.413" transform="translate(418.242 382.807)" fill="#263238"/>
        <path id="Path_8614" data-name="Path 8614" d="M244.581,242.129c.695-.425-1.071-4.3-.046-9.063.956-4.764,4.148-7.736,3.677-8.377-.2-.31-1.365.03-2.8,1.314a12.413,12.413,0,0,0-3.655,6.554,11.9,11.9,0,0,0,.756,7.367c.81,1.7,1.747,2.42,2.065,2.2" transform="translate(408.55 379.934)" fill="#263238"/>
        <path id="Path_8615" data-name="Path 8615" d="M253.843,219.357a4.52,4.52,0,0,0,5.37-3.314,4.322,4.322,0,0,0-3.015-5.408,4.523,4.523,0,0,0-5.373,3.308,4.327,4.327,0,0,0,3.017,5.413" transform="translate(424.055 356.128)" fill="#263238"/>
        <path id="Path_8616" data-name="Path 8616" d="M248.375,225.4c.694-.428-1.071-4.309-.046-9.063.958-4.764,4.151-7.739,3.677-8.379-.2-.307-1.362.024-2.794,1.316a12.388,12.388,0,0,0-3.658,6.552,11.942,11.942,0,0,0,.756,7.367c.813,1.7,1.75,2.42,2.065,2.207" transform="translate(414.972 351.621)" fill="#263238"/>
        <path id="Path_8617" data-name="Path 8617" d="M283.057,229.7c-.264-.081-1.4,2.77-3.042,7.432-.385,1.19-.869,2.288-1.744,2.318-.939.1-2.14-.689-3.429-1.58q-4.046-2.653-8.487-5.566c-12.116-7.8-22.18-13.717-22.489-13.227s9.257,7.211,21.37,15.009q4.49,2.838,8.576,5.424c1.284.756,2.684,1.879,4.638,1.647a3.118,3.118,0,0,0,2.2-1.62,8.431,8.431,0,0,0,.727-2c1.287-4.77,1.946-7.758,1.68-7.833" transform="translate(412.544 370.564)" fill="#263238"/>
        <path id="Path_8618" data-name="Path 8618" d="M280.647,259.357a89.686,89.686,0,0,0-2.484-48.812s21.4,16.7,10.824,50.529Z" transform="translate(470.579 356.187)" fill="#eb996e"/>
        <path id="Path_8619" data-name="Path 8619" d="M264.1,231.758a8.767,8.767,0,0,1-1.548-8.366A7.989,7.989,0,0,1,266.6,218.6a5.07,5.07,0,0,1,5.752.829c1.532,1.672,1.378,4.444.248,6.576a18.451,18.451,0,0,1-4.926,5.311,5.349,5.349,0,0,1-1.7,1.058,1.622,1.622,0,0,1-1.768-.382" transform="translate(443.406 368.933)" fill="#eb996e"/>
        <path id="Path_8620" data-name="Path 8620" d="M246.334,226.91c1.219-.684-.231-5.036-.536-10.412-.417-5.37.436-9.908-.861-10.387-.616-.207-1.7.759-2.641,2.705a16.608,16.608,0,0,0-1.418,8.083,16.26,16.26,0,0,0,2.482,7.763c1.19,1.774,2.393,2.552,2.974,2.248" transform="translate(407.437 348.64)" fill="#263238"/>
        <path id="Path_8621" data-name="Path 8621" d="M237.181,239.259c1.257-.606.834-4.124,1.623-8.081.649-3.978,2.275-7.125,1.308-8.134-.476-.455-1.672-.159-3,1.082a11.927,11.927,0,0,0-2.363,13.066c.813,1.629,1.83,2.323,2.436,2.067" transform="translate(395.431 376.99)" fill="#263238"/>
        <path id="Path_8622" data-name="Path 8622" d="M275.741,185.633c-21.3,1.7-55.4,24.053-58.788,45.146l12.164,37.776a32.847,32.847,0,0,0,29.523-16.005c3.149-5.445,5.284-12.387,11.136-14.7,5.973-2.361,12.982,1.464,19.063-.611,8.425-2.88,11-15.507,19.757-17.1,3.825-.7,7.8,1.058,11.609.293,5.082-1.018,13.618-11.295,13.211-16.46s-8.592-7.087-12.519-9.661c-6.711-4.4-10.77-4.175-15.074-4.242-10.191-.164-19.922-5.249-30.083-4.439" transform="translate(367.027 313.894)" fill="#263238"/>
        <path id="Path_8623" data-name="Path 8623" d="M265.432,212.857c-2.565-.554-7.989-4.81-7.846-7.432.388-7,3.534-19.092,20.759-15.542,23.547,4.856,13.817,27.493,13.133,27.4-.533-.075-17.181-2.511-26.045-4.423" transform="translate(435.763 320.152)" fill="#ffbe9d"/>
        <path id="Path_8624" data-name="Path 8624" d="M278.593,204.237c-.054-.118.371-.353.832-.977a4.188,4.188,0,0,0,.694-3.055c-.4-2.676-3.916-5.585-8.137-6.573a13.837,13.837,0,0,0-6.11-.062c-1.871.363-3.305,1.227-3.785,2.436a2.129,2.129,0,0,0,.624,2.651c.595.452,1.1.4,1.109.533.046.078-.5.423-1.429.032a2.659,2.659,0,0,1-1.287-1.23,3.167,3.167,0,0,1-.132-2.393c.5-1.79,2.509-3.079,4.536-3.532a14.212,14.212,0,0,1,6.856-.067c4.713,1.128,8.651,4.471,8.934,8.081A4.487,4.487,0,0,1,279.9,203.7c-.732.608-1.284.624-1.311.533" transform="translate(441.207 324.161)" fill="#eb996e"/>
        <path id="Path_8625" data-name="Path 8625" d="M221.218,213.207c8.934,4.549,17.432,22.043,23.2,30.239,11.017,15.639,15.087,19.206,46.591,27.079-12.315,2.937-24.075,4.592-36.228,1.042s-23.294-11.19-29.954-21.957-8.455-24.7-3.612-36.4" transform="translate(369.602 360.69)" fill="#263238"/>
        <path id="Path_8626" data-name="Path 8626" d="M281.526,209.193c2.6-6.581.436-14.387-4.167-19.76s-11.281-8.589-18.1-10.455a61.586,61.586,0,0,0-54.144,11.394c-4.6,3.733-8.724,8.269-10.928,13.768s-2.266,12.067.843,17.109,9.712,8,15.292,6.005c-3.709,6.048-1.9,14.487,3.165,19.456s12.67,6.732,19.714,5.895,13.615-4.005,19.62-7.779c14.694-9.235,27.254-23.214,30.88-40.185Z" transform="translate(325.827 299.287)" fill="#263238"/>
        <path id="Path_8627" data-name="Path 8627" d="M242.6,187.327c.509.856-1.3,2.886-4.056,6.056-2.689,3.144-6.727,7.513-9.338,12.544-5.677,11.574-10.118,21.241-11.954,20.729-1.9-.5-.339-11.591,5.671-23.854a31.626,31.626,0,0,1,6.137-8.194,37.81,37.81,0,0,1,6.283-5.017c3.879-2.447,6.786-3.077,7.257-2.264" transform="translate(366.235 316.34)" fill="#04c7f4"/>
        <path id="Path_8628" data-name="Path 8628" d="M267.317,235.889c-.393.046-1.193-4.194-2.2-9.4s-1.828-9.443-1.446-9.548c.366-.1,1.817,4.013,2.824,9.284s1.2,9.626.824,9.666" transform="translate(445.899 367.001)" fill="#263238"/>
        <path id="Path_8629" data-name="Path 8629" d="M269.491,380.151a5.478,5.478,0,0,1-1.5-1.351,10.2,10.2,0,0,1-2.237-5.335,21.016,21.016,0,0,1,1.007-9.114c1.066-3.464,3.112-6.991,4.7-11.112a23.155,23.155,0,0,0,1.628-6.63,13.029,13.029,0,0,0-1.454-7.047c-2.358-4.56-7.1-7.814-11.381-11.922a22.171,22.171,0,0,1-5.5-7.461,17.574,17.574,0,0,1-.934-9.645c.926-6.476,3.973-12.7,3.564-19.335a18.066,18.066,0,0,0-3.227-9.05,36.758,36.758,0,0,0-6.53-7.017c-4.829-4.143-10.078-7.523-14.482-11.575a52.81,52.81,0,0,1-15.658-48.338,43.17,43.17,0,0,1,1.559-5.558,10.746,10.746,0,0,1,.74-1.871c.167.054-.861,2.641-1.76,7.529a53.141,53.141,0,0,0,.708,20.842A51.458,51.458,0,0,0,234.016,262.6c4.32,3.93,9.569,7.281,14.511,11.491a37.774,37.774,0,0,1,6.791,7.278,19.421,19.421,0,0,1,3.47,9.733c.4,7.165-2.735,13.426-3.6,19.631a16.281,16.281,0,0,0,.813,8.934,21,21,0,0,0,5.16,7.044c4.137,4.048,8.99,7.378,11.515,12.32a14.12,14.12,0,0,1,1.5,7.655,24.05,24.05,0,0,1-1.782,6.915c-1.69,4.186-3.79,7.674-4.883,10.99a20.9,20.9,0,0,0-1.209,8.8,10.35,10.35,0,0,0,1.914,5.227c.762,1.053,1.346,1.456,1.281,1.526" transform="translate(366.314 351.528)" fill="#263238"/>
        <path id="Path_8630" data-name="Path 8630" d="M294.419,191.889a15.052,15.052,0,0,1,.546,3.392,64.749,64.749,0,0,1,.4,9.365,29.68,29.68,0,0,1-3.373,13.564c-2.576,4.748-7.628,8.611-13.529,10.323a45.051,45.051,0,0,1-17.039,1.429c-5.225-.458-9.852-1.238-13.749-1.7a88.913,88.913,0,0,0-9.251-.716,22.446,22.446,0,0,1-3.421-.089,12.607,12.607,0,0,1,3.41-.458,64.681,64.681,0,0,1,9.367.275c3.938.336,8.587,1.015,13.744,1.4a45.369,45.369,0,0,0,16.525-1.48,21.6,21.6,0,0,0,12.821-9.626c2.557-4.4,3.214-9.12,3.5-12.971.4-7.8-.248-12.694.048-12.7" transform="translate(397.556 324.626)" fill="#263238"/>
        <path id="Path_8631" data-name="Path 8631" d="M207.822,219.566a5.136,5.136,0,0,1-.643-1.227c-.377-.824-.913-2.046-1.564-3.637a67.075,67.075,0,0,1-4.234-13.973c-1.031-6.016-.832-14.064,3.86-21.13a19.35,19.35,0,0,1,10.393-7.674,40.78,40.78,0,0,1,13.771-1.384c9.381.288,18.57,2.065,25.658,6.468,7.1,4.288,11.7,10.945,12.818,17.16a20.077,20.077,0,0,1-2.511,14.277,15.458,15.458,0,0,1-2.541,3.082,5.133,5.133,0,0,1-1.112.834,26.5,26.5,0,0,0,3.184-4.2,20.018,20.018,0,0,0,2.008-13.806c-1.19-5.879-5.65-12.175-12.519-16.247-6.845-4.17-15.768-5.884-25.036-6.169a39.946,39.946,0,0,0-13.3,1.292,18.121,18.121,0,0,0-9.747,7.1,25,25,0,0,0-3.987,10.406,33.017,33.017,0,0,0,.043,9.841,75.283,75.283,0,0,0,3.766,13.93c.528,1.491.961,2.721,1.316,3.725a5.074,5.074,0,0,1,.38,1.332" transform="translate(339.825 288.421)" fill="#263238"/>
        <path id="Path_8632" data-name="Path 8632" d="M233.035,194.691a10.651,10.651,0,0,1-.04,2.988,58.009,58.009,0,0,1-1.279,8.04,66.07,66.07,0,0,1-3.793,11.486c-1.809,4.11-4.2,8.9-8.826,11.992a10.53,10.53,0,0,1-7.785,1.585,11.683,11.683,0,0,1-6.3-3.882A14.044,14.044,0,0,1,202,220.976a17.049,17.049,0,0,1-.277-5.741A25.109,25.109,0,0,1,204.1,207.4a9.639,9.639,0,0,1,1.537-2.568,17.138,17.138,0,0,1-1.034,2.783,28.437,28.437,0,0,0-1.895,7.717,14.1,14.1,0,0,0,3.284,10.719,10.5,10.5,0,0,0,5.6,3.386,9.226,9.226,0,0,0,6.756-1.424c4.178-2.77,6.573-7.311,8.4-11.332a73.282,73.282,0,0,0,4.011-11.2c1.744-6.571,2.035-10.815,2.283-10.789" transform="translate(341.053 329.366)" fill="#263238"/>
        <path id="Path_8633" data-name="Path 8633" d="M414.538,247.79c0,.668-3.836,39.528-3.836,39.528s-7.671,4.611-7.671,4.891-27.854,2.116-27.854,2.116l-13.176,5-14.177,1.332-33.69,12.686s.331,3.16,4.5,3.16l31.181-.5,30.363-9.343-.668,9.841s9.007-.5,9.841,0,24.516-1.669,28.352-2.169,18.134-3.168,24.686-10.175,8.84-54.7,8.84-54.7Z" transform="translate(531.432 419.196)" fill="#ffbe9d"/>
        <path id="Path_8634" data-name="Path 8634" d="M285.978,218.085s71.883-32.4,111.817-25.45,79.18,21.4,113.039,18.694,85.08.28,85.08.28L580.287,337.116,453.536,351.875s-42.54,12.156-62.507,4.342-96.93-60.86-96.93-60.86Z" transform="translate(483.8 324.236)" fill="#04c7f4"/>
        <path id="Path_8635" data-name="Path 8635" d="M382,270.569c7.47.829,29.324-.022,29.324-.022L425,264.292l32.371,12.414-4.91,13.86a12.977,12.977,0,0,1-11.712,7.389H370.1s0-3.871,4.7-4.98,12.172-3.6,12.172-3.6l-40.112,8.576H334.969s-18.794,1.106-8.9-5.332c11.4-7.418,51.929-22.5,55.929-22.053" transform="translate(546.753 447.113)" fill="#ffbe9d"/>
        <path id="Path_8636" data-name="Path 8636" d="M289.849,244.883s2.605,46.013,61.641,46.882,139.774-28.651,139.774-28.651l-10.417,118.07,32.1,8.875s14-47.776,19.5-67.888c10.156-37.106,12.829-92.222,8.487-103.508s-46.206-17.187-77.46-18.926-119.806,0-119.806,0c-37.316,2.172-53.291,18.53-53.827,45.146" transform="translate(490.348 336.597)" fill="#ffbe9d"/>
        <path id="Path_8637" data-name="Path 8637" d="M423.473,249.539a16.915,16.915,0,0,1-.288,3.058c-.3,2.17-.705,5.012-1.2,8.5-1.155,7.486-2.732,17.725-4.581,29.717l-.057.353-.336.14-12.207,5.055-.127.051h-.135c-4.371.005-8.9.011-13.529.013-4.729,0-9.343-.008-13.8-.013a16.105,16.105,0,0,0-3.171.159c-1.015.234-2.057.482-3.066.807-2.03.619-4,1.319-5.925,2-7.674,2.8-14.514,5.569-20.255,7.884l-13.588,5.523-3.712,1.464a5.383,5.383,0,0,1-1.33.428,5.211,5.211,0,0,1,1.217-.686l3.61-1.707c3.147-1.451,7.725-3.5,13.421-5.938s12.5-5.3,20.193-8.183c1.93-.7,3.908-1.421,5.978-2.065,1.026-.339,2.1-.606,3.209-.864a17.608,17.608,0,0,1,3.432-.2c4.457,0,9.068-.008,13.792-.013,4.632.005,9.155.008,13.523.013l-.261.051c4.269-1.734,8.385-3.408,12.242-4.977l-.393.5c2.051-11.959,3.8-22.172,5.085-29.636.641-3.467,1.163-6.291,1.561-8.441a16.963,16.963,0,0,1,.7-2.993" transform="translate(551.787 422.154)" fill="#eb996e"/>
        <path id="Path_8638" data-name="Path 8638" d="M373.811,273.586c-.2.331-3.51-1.308-7.392-3.661s-6.864-4.53-6.665-4.861,3.51,1.308,7.394,3.661,6.864,4.53,6.662,4.861" transform="translate(608.595 448.346)" fill="#eb996e"/>
        <path id="Path_8639" data-name="Path 8639" d="M383.148,212.062c.1.229-1.973,1.125-4.84,3.246A32.726,32.726,0,0,0,365.3,238.89c-.264,3.558.086,5.79-.164,5.828-.129.035-.84-2.167-.826-5.871a30.031,30.031,0,0,1,13.434-24.355c3.125-1.984,5.367-2.56,5.408-2.431" transform="translate(616.31 358.724)" fill="#eb996e"/>
        <path id="Path_8640" data-name="Path 8640" d="M646.693,231.509c-1.639-.843-46.683-2.966-46.683-2.966l2.032,50.645,48.656.673Z" transform="translate(1015.059 386.635)" fill="#ffbe9d"/>
        <path id="Path_8641" data-name="Path 8641" d="M621.029,290.812l3.72-.4S656.9,349.661,668.931,349L654.718,225.871l-41.432,6.49c10.727,17.308,13.908,36.355,7.742,58.451" transform="translate(1037.52 382.114)" fill="#263238"/>
        <path id="Path_8642" data-name="Path 8642" d="M618.22,257.545c.608-.092.539-3.128,2.161-6.315,1.537-3.225,4.008-5.058,3.7-5.583-.18-.541-3.731.778-5.626,4.67-1.93,3.871-.783,7.424-.237,7.227" transform="translate(1044.447 415.375)" fill="#fff"/>
        <path id="Path_8643" data-name="Path 8643" d="M620.479,260.3c.608.07,1.346-2.654,3.693-5,2.28-2.409,5.012-3.246,4.918-3.844.03-.576-3.593-.579-6.457,2.388-2.888,2.939-2.737,6.506-2.153,6.452" transform="translate(1049.106 424.905)" fill="#fff"/>
        <path id="Path_8644" data-name="Path 8644" d="M632.71,256.923c.067-.563-3.082-1.044-6.247.886-3.182,1.909-4.175,4.9-3.637,5.093.541.28,2.126-1.752,4.751-3.3,2.587-1.607,5.141-2.075,5.133-2.681" transform="translate(1053.424 433.803)" fill="#fff"/>
        <path id="Path_8645" data-name="Path 8645" d="M625.268,227.377a32.793,32.793,0,0,0,5.8-1.262,9.1,9.1,0,0,1,8.463,1.712l7.946,69.878,5.733,51.706s-4.684,2.789-10.823-3.222Z" transform="translate(1057.789 381.857)" fill="#e0e0e0"/>
        <path id="Path_8646" data-name="Path 8646" d="M578.5,242.069s-32.379-43.248-83.406-50.19c-30.715-4.18-97.172,19.9-97.172,19.9l-2.606,125.788s77.266,4.342,111.126,8.684,171.9,2.6,197.942,0,68.586-10.42,68.586-10.42l196.206,6.945v-50.2s-95.5-27.93-138.907-34.874S578.5,242.069,578.5,242.069" transform="translate(668.771 323.785)"/>
        <path id="Path_8647" data-name="Path 8647" d="M968.472,256.162s-.5,0-1.483-.059c-1.031-.073-2.474-.178-4.339-.31-3.868-.31-9.478-.756-16.672-1.332-14.471-1.211-35.426-2.837-61.323-4.732-51.794-3.828-123.405-8.266-202.542-12.39-79.148-4-150.791-7.628-202.712-10.253-25.889-1.421-46.858-2.571-61.417-3.367-7.2-.439-12.818-.783-16.691-1.017q-2.794-.194-4.339-.3c-.977-.075-1.475-.151-1.475-.151s.5-.022,1.483.008l4.347.162,16.7.754c14.562.692,35.539,1.69,61.439,2.921,51.88,2.482,123.564,5.723,202.733,9.844,79.143,4.126,150.759,8.721,202.543,12.8,25.894,2.019,46.839,3.8,61.3,5.176,7.184.689,12.786,1.225,16.648,1.593,1.86.194,3.3.345,4.328.45.974.11,1.47.2,1.47.2" transform="translate(669.041 375.974)" fill="#fff"/>
        <path id="Path_8648" data-name="Path 8648" d="M968.632,253.5s-.5.005-1.483-.057c-1.031-.075-2.474-.178-4.339-.312-3.868-.31-9.478-.756-16.673-1.33-14.473-1.214-35.426-2.84-61.323-4.735-51.794-3.828-123.405-8.266-202.542-12.39-79.148-4-150.791-7.628-202.709-10.253-25.892-1.421-46.86-2.571-61.417-3.367-7.206-.439-12.821-.783-16.694-1.017-1.865-.129-3.308-.229-4.339-.3-.977-.075-1.475-.151-1.475-.151s.5-.022,1.483.008l4.347.162,16.7.754c14.562.692,35.539,1.69,61.439,2.923,51.881,2.479,123.564,5.72,202.734,9.841C761.487,237.4,833.1,242,884.887,246.079c25.895,2.019,46.839,3.8,61.3,5.176,7.184.689,12.786,1.225,16.648,1.594,1.86.194,3.3.345,4.328.45.974.11,1.469.2,1.469.2" transform="translate(669.314 371.47)" fill="#fff"/>
      </g>
    </g>
  </g>
</svg>
