<svg id="Group_1665" data-name="Group 1665" xmlns="http://www.w3.org/2000/svg" xmlns:xlink="http://www.w3.org/1999/xlink" width="552.506" height="448.956" viewBox="0 0 552.506 448.956">
  <defs>
    <clipPath id="clip-path">
      <rect id="Rectangle_1095" data-name="Rectangle 1095" width="552.506" height="448.956" fill="none"/>
    </clipPath>
  </defs>
  <g id="Group_1664" data-name="Group 1664" clip-path="url(#clip-path)">
    <path id="Path_9092" data-name="Path 9092" d="M417.579,158.08a10.407,10.407,0,0,0-10.4-10.39l-122.352.054a10.406,10.406,0,0,0-10.392,10.4l.021,48.9a10.407,10.407,0,0,0,10.4,10.39l122.353-.054a10.407,10.407,0,0,0,10.39-10.4Z" transform="translate(116.758 62.834)" fill="#406052"/>
    <path id="Path_9093" data-name="Path 9093" d="M275.03,217.434a10.407,10.407,0,0,1-10.4-10.392l-.021-48.9a10.4,10.4,0,0,1,10.39-10.4l122.353-.054a10.407,10.407,0,0,1,10.4,10.39l.021,48.9a10.407,10.407,0,0,1-10.392,10.4Z" transform="translate(112.577 62.835)" fill="#bdefdc"/>
    <path id="Path_9094" data-name="Path 9094" d="M396.345,212.87l-122.353.054A6.922,6.922,0,0,1,267.067,206l-.021-48.9a6.922,6.922,0,0,1,6.919-6.926l122.352-.054a6.922,6.922,0,0,1,6.926,6.919l.021,48.9a6.921,6.921,0,0,1-6.919,6.926" transform="translate(113.614 63.871)" fill="#8ed2bb"/>
    <path id="Path_9095" data-name="Path 9095" d="M375.993,150.126l-61.176.027.027,62.744,61.177-.027a6.922,6.922,0,0,0,6.919-6.926l-.021-48.9a6.923,6.923,0,0,0-6.926-6.919" transform="translate(133.938 63.871)" fill="#64a08a"/>
    <path id="Path_9096" data-name="Path 9096" d="M352.435,180.786a28.964,28.964,0,1,1-28.977-28.951,28.963,28.963,0,0,1,28.977,28.951" transform="translate(125.298 64.598)" fill="#bdefdc"/>
    <path id="Path_9097" data-name="Path 9097" d="M332.938,160.678h0a1.857,1.857,0,0,0-1.857-1.856l-24.191.01a1.857,1.857,0,0,0,0,3.715l6.561,0a8.725,8.725,0,0,1,8.169,5.226l-14.728.006a1.857,1.857,0,0,0,0,3.715l15.231-.007a8.5,8.5,0,0,1-8.667,7.189l-6.561,0a1.857,1.857,0,0,0,0,3.713h4.014L323,198.592a2.217,2.217,0,0,0,3.555-2.651l-10.114-13.557,14.646-.006a1.857,1.857,0,0,0,0-3.715l-6.5,0a12.442,12.442,0,0,0,2.979-7.184l3.517,0a1.857,1.857,0,1,0,0-3.713h-3.82a12.625,12.625,0,0,0-2.683-5.229l6.5,0a1.857,1.857,0,0,0,1.856-1.857" transform="translate(129.775 67.57)" fill="#406052"/>
    <path id="Path_9098" data-name="Path 9098" d="M287.473,150.16l-13.508.006a6.924,6.924,0,0,0-6.921,6.926l.007,13.586a20.9,20.9,0,0,0,20.421-20.518" transform="translate(113.614 63.885)" fill="#406052"/>
    <path id="Path_9099" data-name="Path 9099" d="M267.029,179.851l.006,13.508a6.924,6.924,0,0,0,6.926,6.921l13.586-.007a20.9,20.9,0,0,0-20.518-20.421" transform="translate(113.607 76.517)" fill="#406052"/>
    <path id="Path_9100" data-name="Path 9100" d="M348.278,200.271l13.508-.006a6.924,6.924,0,0,0,6.921-6.926l-.007-13.586a20.9,20.9,0,0,0-20.421,20.518" transform="translate(148.174 76.475)" fill="#406052"/>
    <path id="Path_9101" data-name="Path 9101" d="M368.748,170.554l-.006-13.508a6.924,6.924,0,0,0-6.926-6.921l-13.586.007a20.9,20.9,0,0,0,20.518,20.421" transform="translate(148.154 63.871)" fill="#406052"/>
    <path id="Path_9102" data-name="Path 9102" d="M203.715,158.08a10.407,10.407,0,0,0-10.4-10.39l-122.352.054a10.406,10.406,0,0,0-10.392,10.4l.021,48.9a10.407,10.407,0,0,0,10.4,10.39l122.353-.054a10.407,10.407,0,0,0,10.39-10.4Z" transform="translate(25.77 62.834)" fill="#406052"/>
    <path id="Path_9103" data-name="Path 9103" d="M61.167,217.434a10.407,10.407,0,0,1-10.4-10.392l-.021-48.9a10.4,10.4,0,0,1,10.39-10.4l122.353-.054a10.407,10.407,0,0,1,10.4,10.39l.021,48.9a10.407,10.407,0,0,1-10.391,10.4Z" transform="translate(21.59 62.835)" fill="#bdefdc"/>
    <path id="Path_9104" data-name="Path 9104" d="M182.481,212.87l-122.352.054A6.922,6.922,0,0,1,53.2,206l-.021-48.9A6.922,6.922,0,0,1,60.1,150.18l122.352-.054a6.922,6.922,0,0,1,6.926,6.919l.021,48.9a6.921,6.921,0,0,1-6.919,6.926" transform="translate(22.626 63.871)" fill="#8ed2bb"/>
    <path id="Path_9105" data-name="Path 9105" d="M162.129,150.126l-61.176.027.027,62.744,61.177-.027a6.922,6.922,0,0,0,6.919-6.926l-.021-48.9a6.924,6.924,0,0,0-6.926-6.919" transform="translate(42.95 63.871)" fill="#64a08a"/>
    <path id="Path_9106" data-name="Path 9106" d="M138.571,180.786a28.964,28.964,0,1,1-28.976-28.951,28.963,28.963,0,0,1,28.976,28.951" transform="translate(34.31 64.598)" fill="#bdefdc"/>
    <path id="Path_9107" data-name="Path 9107" d="M119.075,160.678h0a1.857,1.857,0,0,0-1.857-1.856l-24.191.01a1.857,1.857,0,0,0,0,3.715l6.561,0a8.726,8.726,0,0,1,8.169,5.226l-14.728.006a1.857,1.857,0,1,0,0,3.715l15.231-.007a8.5,8.5,0,0,1-8.667,7.189l-6.561,0a1.857,1.857,0,0,0,0,3.713H97.05l12.089,16.206a2.217,2.217,0,0,0,3.555-2.651l-10.114-13.557,14.646-.006a1.857,1.857,0,0,0,0-3.715l-6.5,0a12.442,12.442,0,0,0,2.979-7.184l3.517,0a1.857,1.857,0,1,0,0-3.713H113.4a12.625,12.625,0,0,0-2.683-5.229l6.5,0a1.857,1.857,0,0,0,1.856-1.857" transform="translate(38.788 67.57)" fill="#406052"/>
    <path id="Path_9108" data-name="Path 9108" d="M73.609,150.16l-13.508.006a6.924,6.924,0,0,0-6.921,6.926l.007,13.586A20.9,20.9,0,0,0,73.609,150.16" transform="translate(22.626 63.885)" fill="#406052"/>
    <path id="Path_9109" data-name="Path 9109" d="M53.165,179.851l.006,13.508a6.924,6.924,0,0,0,6.926,6.921l13.586-.007a20.9,20.9,0,0,0-20.518-20.421" transform="translate(22.619 76.517)" fill="#406052"/>
    <path id="Path_9110" data-name="Path 9110" d="M134.414,200.271l13.508-.006a6.924,6.924,0,0,0,6.921-6.926l-.007-13.586a20.9,20.9,0,0,0-20.421,20.518" transform="translate(57.186 76.475)" fill="#406052"/>
    <path id="Path_9111" data-name="Path 9111" d="M154.884,170.554l-.006-13.508a6.924,6.924,0,0,0-6.926-6.921l-13.586.007a20.9,20.9,0,0,0,20.518,20.421" transform="translate(57.166 63.871)" fill="#406052"/>
    <path id="Path_9112" data-name="Path 9112" d="M539.93,322.465H12.577a12.577,12.577,0,1,1,0-25.153H539.93a12.577,12.577,0,0,1,0,25.153" transform="translate(0 126.491)" fill="#747dba"/>
    <path id="Path_9113" data-name="Path 9113" d="M392.271,313.192H312.636a5.059,5.059,0,0,1-5.059-5.059V292.311a5.059,5.059,0,0,1,5.059-5.059h79.635a5.059,5.059,0,0,1,5.059,5.059v15.822a5.059,5.059,0,0,1-5.059,5.059" transform="translate(130.858 122.211)" fill="#996b20"/>
    <path id="Path_9114" data-name="Path 9114" d="M377.122,313.192H297.487a5.059,5.059,0,0,1-5.059-5.059V292.311a5.059,5.059,0,0,1,5.059-5.059h79.635a5.059,5.059,0,0,1,5.059,5.059v15.822a5.059,5.059,0,0,1-5.059,5.059" transform="translate(124.413 122.211)" fill="#dba32c"/>
    <path id="Path_9115" data-name="Path 9115" d="M333.931,313.192v-25.94H297.486a5.058,5.058,0,0,0-5.057,5.059v15.822a5.058,5.058,0,0,0,5.057,5.059Z" transform="translate(124.413 122.211)" fill="#edcb3a"/>
    <rect id="Rectangle_1069" data-name="Rectangle 1069" width="9.208" height="25.94" transform="translate(463.337 409.463)" fill="#edcb3a"/>
    <rect id="Rectangle_1070" data-name="Rectangle 1070" width="4.864" height="25.94" transform="translate(477.411 409.463)" fill="#edcb3a"/>
    <path id="Path_9116" data-name="Path 9116" d="M386.994,295.085H307.359a5.059,5.059,0,0,1-5.059-5.059V274.2a5.059,5.059,0,0,1,5.059-5.059h79.635a5.059,5.059,0,0,1,5.059,5.059v15.822a5.059,5.059,0,0,1-5.059,5.059" transform="translate(128.613 114.507)" fill="#996b20"/>
    <path id="Path_9117" data-name="Path 9117" d="M371.844,295.085H292.209a5.059,5.059,0,0,1-5.059-5.059V274.2a5.059,5.059,0,0,1,5.059-5.059h79.635A5.059,5.059,0,0,1,376.9,274.2v15.822a5.059,5.059,0,0,1-5.059,5.059" transform="translate(122.167 114.507)" fill="#dba32c"/>
    <path id="Path_9118" data-name="Path 9118" d="M328.654,295.085v-25.94H292.208a5.058,5.058,0,0,0-5.057,5.059v15.822a5.058,5.058,0,0,0,5.057,5.059Z" transform="translate(122.168 114.507)" fill="#edcb3a"/>
    <rect id="Rectangle_1071" data-name="Rectangle 1071" width="9.208" height="25.94" transform="translate(455.815 383.652)" fill="#edcb3a"/>
    <rect id="Rectangle_1072" data-name="Rectangle 1072" width="4.864" height="25.94" transform="translate(469.887 383.652)" fill="#edcb3a"/>
    <path id="Path_9119" data-name="Path 9119" d="M398.823,276.978H319.188a5.059,5.059,0,0,1-5.059-5.059V256.1a5.059,5.059,0,0,1,5.059-5.059h79.635a5.059,5.059,0,0,1,5.059,5.059v15.822a5.059,5.059,0,0,1-5.059,5.059" transform="translate(133.645 106.803)" fill="#996b20"/>
    <path id="Path_9120" data-name="Path 9120" d="M383.673,276.978H304.038a5.059,5.059,0,0,1-5.059-5.059V256.1a5.059,5.059,0,0,1,5.059-5.059h79.635a5.059,5.059,0,0,1,5.059,5.059v15.822a5.059,5.059,0,0,1-5.059,5.059" transform="translate(127.2 106.803)" fill="#dba32c"/>
    <path id="Path_9121" data-name="Path 9121" d="M340.483,276.978v-25.94H304.038a5.058,5.058,0,0,0-5.057,5.059v15.822a5.058,5.058,0,0,0,5.057,5.059Z" transform="translate(127.2 106.803)" fill="#edcb3a"/>
    <rect id="Rectangle_1073" data-name="Rectangle 1073" width="9.208" height="25.94" transform="translate(472.677 357.841)" fill="#edcb3a"/>
    <rect id="Rectangle_1074" data-name="Rectangle 1074" width="4.864" height="25.94" transform="translate(486.749 357.841)" fill="#edcb3a"/>
    <path id="Path_9122" data-name="Path 9122" d="M388.814,258.871H309.179a5.059,5.059,0,0,1-5.059-5.059V237.99a5.059,5.059,0,0,1,5.059-5.059h79.635a5.059,5.059,0,0,1,5.059,5.059v15.822a5.059,5.059,0,0,1-5.059,5.059" transform="translate(129.387 99.1)" fill="#996b20"/>
    <path id="Path_9123" data-name="Path 9123" d="M373.664,258.871H294.029a5.059,5.059,0,0,1-5.059-5.059V237.99a5.059,5.059,0,0,1,5.059-5.059h79.635a5.058,5.058,0,0,1,5.057,5.059v15.822a5.058,5.058,0,0,1-5.057,5.059" transform="translate(122.942 99.1)" fill="#dba32c"/>
    <path id="Path_9124" data-name="Path 9124" d="M330.474,258.871v-25.94H294.029a5.058,5.058,0,0,0-5.057,5.059v15.822a5.058,5.058,0,0,0,5.057,5.059Z" transform="translate(122.942 99.1)" fill="#edcb3a"/>
    <rect id="Rectangle_1075" data-name="Rectangle 1075" width="9.208" height="25.94" transform="translate(458.41 332.031)" fill="#edcb3a"/>
    <rect id="Rectangle_1076" data-name="Rectangle 1076" width="4.864" height="25.94" transform="translate(472.482 332.031)" fill="#edcb3a"/>
    <path id="Path_9125" data-name="Path 9125" d="M402.553,240.765H322.918a5.059,5.059,0,0,1-5.059-5.059V219.884a5.059,5.059,0,0,1,5.059-5.059h79.635a5.059,5.059,0,0,1,5.059,5.059v15.822a5.059,5.059,0,0,1-5.059,5.059" transform="translate(135.232 91.397)" fill="#996b20"/>
    <path id="Path_9126" data-name="Path 9126" d="M387.4,240.765H307.768a5.059,5.059,0,0,1-5.059-5.059V219.884a5.059,5.059,0,0,1,5.059-5.059H387.4a5.059,5.059,0,0,1,5.059,5.059v15.822a5.059,5.059,0,0,1-5.059,5.059" transform="translate(128.787 91.397)" fill="#dba32c"/>
    <path id="Path_9127" data-name="Path 9127" d="M344.213,240.765v-25.94H307.768a5.058,5.058,0,0,0-5.057,5.059v15.822a5.058,5.058,0,0,0,5.057,5.059Z" transform="translate(128.787 91.397)" fill="#edcb3a"/>
    <rect id="Rectangle_1077" data-name="Rectangle 1077" width="9.208" height="25.94" transform="translate(477.994 306.22)" fill="#edcb3a"/>
    <rect id="Rectangle_1078" data-name="Rectangle 1078" width="4.864" height="25.94" transform="translate(492.066 306.22)" fill="#edcb3a"/>
    <path id="Path_9128" data-name="Path 9128" d="M389.451,222.658H309.816a5.059,5.059,0,0,1-5.059-5.059V201.777a5.059,5.059,0,0,1,5.059-5.059h79.635a5.059,5.059,0,0,1,5.059,5.059V217.6a5.059,5.059,0,0,1-5.059,5.059" transform="translate(129.658 83.693)" fill="#996b20"/>
    <path id="Path_9129" data-name="Path 9129" d="M374.3,222.658H294.666a5.059,5.059,0,0,1-5.059-5.059V201.777a5.059,5.059,0,0,1,5.059-5.059H374.3a5.059,5.059,0,0,1,5.059,5.059V217.6a5.059,5.059,0,0,1-5.059,5.059" transform="translate(123.213 83.693)" fill="#dba32c"/>
    <path id="Path_9130" data-name="Path 9130" d="M331.111,222.658v-25.94H294.665a5.058,5.058,0,0,0-5.057,5.059V217.6a5.058,5.058,0,0,0,5.057,5.059Z" transform="translate(123.213 83.693)" fill="#edcb3a"/>
    <rect id="Rectangle_1079" data-name="Rectangle 1079" width="9.208" height="25.94" transform="translate(459.318 280.411)" fill="#edcb3a"/>
    <rect id="Rectangle_1080" data-name="Rectangle 1080" width="4.864" height="25.94" transform="translate(473.39 280.411)" fill="#edcb3a"/>
    <path id="Path_9131" data-name="Path 9131" d="M125.31,313.192H45.675a5.059,5.059,0,0,1-5.059-5.059V292.311a5.059,5.059,0,0,1,5.059-5.059H125.31a5.059,5.059,0,0,1,5.059,5.059v15.822a5.059,5.059,0,0,1-5.059,5.059" transform="translate(17.28 122.211)" fill="#996b20"/>
    <path id="Path_9132" data-name="Path 9132" d="M110.16,313.192H30.525a5.059,5.059,0,0,1-5.059-5.059V292.311a5.059,5.059,0,0,1,5.059-5.059H110.16a5.059,5.059,0,0,1,5.059,5.059v15.822a5.059,5.059,0,0,1-5.059,5.059" transform="translate(10.834 122.211)" fill="#dba32c"/>
    <path id="Path_9133" data-name="Path 9133" d="M66.97,313.192v-25.94H30.524a5.058,5.058,0,0,0-5.057,5.059v15.822a5.058,5.058,0,0,0,5.057,5.059Z" transform="translate(10.835 122.211)" fill="#edcb3a"/>
    <rect id="Rectangle_1081" data-name="Rectangle 1081" width="9.208" height="25.94" transform="translate(82.799 409.463)" fill="#edcb3a"/>
    <rect id="Rectangle_1082" data-name="Rectangle 1082" width="4.864" height="25.94" transform="translate(96.871 409.463)" fill="#edcb3a"/>
    <path id="Path_9134" data-name="Path 9134" d="M120.032,295.085H40.4a5.059,5.059,0,0,1-5.059-5.059V274.2a5.059,5.059,0,0,1,5.059-5.059h79.635a5.059,5.059,0,0,1,5.059,5.059v15.822a5.059,5.059,0,0,1-5.059,5.059" transform="translate(15.034 114.507)" fill="#996b20"/>
    <path id="Path_9135" data-name="Path 9135" d="M104.883,295.085H25.248a5.059,5.059,0,0,1-5.059-5.059V274.2a5.059,5.059,0,0,1,5.059-5.059h79.635a5.059,5.059,0,0,1,5.059,5.059v15.822a5.059,5.059,0,0,1-5.059,5.059" transform="translate(8.589 114.507)" fill="#dba32c"/>
    <path id="Path_9136" data-name="Path 9136" d="M61.692,295.085v-25.94H25.246a5.058,5.058,0,0,0-5.057,5.059v15.822a5.058,5.058,0,0,0,5.057,5.059Z" transform="translate(8.589 114.507)" fill="#edcb3a"/>
    <rect id="Rectangle_1083" data-name="Rectangle 1083" width="9.208" height="25.94" transform="translate(75.276 383.652)" fill="#edcb3a"/>
    <rect id="Rectangle_1084" data-name="Rectangle 1084" width="4.864" height="25.94" transform="translate(89.348 383.652)" fill="#edcb3a"/>
    <path id="Path_9137" data-name="Path 9137" d="M131.861,276.978H52.226a5.059,5.059,0,0,1-5.059-5.059V256.1a5.059,5.059,0,0,1,5.059-5.059h79.635a5.058,5.058,0,0,1,5.057,5.059v15.822a5.058,5.058,0,0,1-5.057,5.059" transform="translate(20.067 106.803)" fill="#996b20"/>
    <path id="Path_9138" data-name="Path 9138" d="M116.711,276.978H37.076a5.059,5.059,0,0,1-5.059-5.059V256.1a5.059,5.059,0,0,1,5.059-5.059h79.635a5.059,5.059,0,0,1,5.059,5.059v15.822a5.059,5.059,0,0,1-5.059,5.059" transform="translate(13.622 106.803)" fill="#dba32c"/>
    <path id="Path_9139" data-name="Path 9139" d="M73.521,276.978v-25.94H37.075a5.058,5.058,0,0,0-5.057,5.059v15.822a5.058,5.058,0,0,0,5.057,5.059Z" transform="translate(13.622 106.803)" fill="#edcb3a"/>
    <rect id="Rectangle_1085" data-name="Rectangle 1085" width="9.208" height="25.94" transform="translate(92.137 357.841)" fill="#edcb3a"/>
    <rect id="Rectangle_1086" data-name="Rectangle 1086" width="4.864" height="25.94" transform="translate(106.209 357.841)" fill="#edcb3a"/>
    <path id="Path_9140" data-name="Path 9140" d="M121.852,258.871H42.217a5.059,5.059,0,0,1-5.059-5.059V237.99a5.059,5.059,0,0,1,5.059-5.059h79.635a5.059,5.059,0,0,1,5.059,5.059v15.822a5.059,5.059,0,0,1-5.059,5.059" transform="translate(15.809 99.1)" fill="#996b20"/>
    <path id="Path_9141" data-name="Path 9141" d="M106.7,258.871H27.067a5.059,5.059,0,0,1-5.059-5.059V237.99a5.059,5.059,0,0,1,5.059-5.059H106.7a5.059,5.059,0,0,1,5.059,5.059v15.822a5.059,5.059,0,0,1-5.059,5.059" transform="translate(9.363 99.1)" fill="#dba32c"/>
    <path id="Path_9142" data-name="Path 9142" d="M63.513,258.871v-25.94H27.067a5.059,5.059,0,0,0-5.059,5.059v15.822a5.059,5.059,0,0,0,5.059,5.059Z" transform="translate(9.363 99.1)" fill="#edcb3a"/>
    <rect id="Rectangle_1087" data-name="Rectangle 1087" width="9.208" height="25.94" transform="translate(77.869 332.031)" fill="#edcb3a"/>
    <rect id="Rectangle_1088" data-name="Rectangle 1088" width="4.864" height="25.94" transform="translate(91.943 332.031)" fill="#edcb3a"/>
    <path id="Path_9143" data-name="Path 9143" d="M135.591,240.765H55.956a5.059,5.059,0,0,1-5.059-5.059V219.884a5.059,5.059,0,0,1,5.059-5.059h79.635a5.059,5.059,0,0,1,5.059,5.059v15.822a5.059,5.059,0,0,1-5.059,5.059" transform="translate(21.654 91.397)" fill="#996b20"/>
    <path id="Path_9144" data-name="Path 9144" d="M120.442,240.765H40.807a5.059,5.059,0,0,1-5.059-5.059V219.884a5.059,5.059,0,0,1,5.059-5.059h79.635a5.059,5.059,0,0,1,5.059,5.059v15.822a5.059,5.059,0,0,1-5.059,5.059" transform="translate(15.209 91.397)" fill="#dba32c"/>
    <path id="Path_9145" data-name="Path 9145" d="M77.252,240.765v-25.94H40.806a5.058,5.058,0,0,0-5.057,5.059v15.822a5.058,5.058,0,0,0,5.057,5.059Z" transform="translate(15.209 91.397)" fill="#edcb3a"/>
    <rect id="Rectangle_1089" data-name="Rectangle 1089" width="9.208" height="25.94" transform="translate(97.455 306.22)" fill="#edcb3a"/>
    <rect id="Rectangle_1090" data-name="Rectangle 1090" width="4.864" height="25.94" transform="translate(111.527 306.22)" fill="#edcb3a"/>
    <path id="Path_9146" data-name="Path 9146" d="M122.489,222.658H42.854a5.059,5.059,0,0,1-5.059-5.059V201.777a5.059,5.059,0,0,1,5.059-5.059h79.635a5.059,5.059,0,0,1,5.059,5.059V217.6a5.059,5.059,0,0,1-5.059,5.059" transform="translate(16.08 83.693)" fill="#996b20"/>
    <path id="Path_9147" data-name="Path 9147" d="M107.339,222.658H27.7a5.059,5.059,0,0,1-5.059-5.059V201.777a5.059,5.059,0,0,1,5.059-5.059h79.635a5.059,5.059,0,0,1,5.059,5.059V217.6a5.059,5.059,0,0,1-5.059,5.059" transform="translate(9.634 83.693)" fill="#dba32c"/>
    <path id="Path_9148" data-name="Path 9148" d="M64.149,222.658v-25.94H27.7a5.058,5.058,0,0,0-5.057,5.059V217.6a5.058,5.058,0,0,0,5.057,5.059Z" transform="translate(9.635 83.693)" fill="#edcb3a"/>
    <rect id="Rectangle_1091" data-name="Rectangle 1091" width="9.208" height="25.94" transform="translate(78.777 280.411)" fill="#edcb3a"/>
    <rect id="Rectangle_1092" data-name="Rectangle 1092" width="4.864" height="25.94" transform="translate(92.849 280.411)" fill="#edcb3a"/>
    <path id="Path_9149" data-name="Path 9149" d="M99.079,215.583a64.345,64.345,0,1,0,64.345,64.345,64.345,64.345,0,0,0-64.345-64.345" transform="translate(14.777 91.719)" fill="#996b20"/>
    <rect id="Rectangle_1093" data-name="Rectangle 1093" width="10.756" height="128.691" transform="translate(103.611 307.311)" fill="#996b20"/>
    <path id="Path_9150" data-name="Path 9150" d="M155.382,279.928a64.345,64.345,0,1,1-64.345-64.345,64.345,64.345,0,0,1,64.345,64.345" transform="translate(11.356 91.719)" fill="#dba32c"/>
    <path id="Path_9151" data-name="Path 9151" d="M86.057,227.291a47.656,47.656,0,1,0,47.656,47.656,47.656,47.656,0,0,0-47.656-47.656" transform="translate(16.338 96.7)" fill="#edcb3a"/>
    <path id="Path_9152" data-name="Path 9152" d="M41.383,274.947a47.647,47.647,0,0,1,46.166-47.618c-.5-.014-.994-.037-1.492-.037a47.656,47.656,0,1,0,0,95.311c.5,0,.995-.021,1.492-.037a47.647,47.647,0,0,1-46.166-47.618" transform="translate(16.337 96.7)" fill="#c18925"/>
    <path id="Path_9153" data-name="Path 9153" d="M100.933,242.464h0a2.968,2.968,0,0,0-2.971-2.968l-38.682.017a2.969,2.969,0,1,0,0,5.938l10.491,0A13.956,13.956,0,0,1,82.838,253.8l-23.553.01a2.97,2.97,0,0,0,0,5.94l24.357-.011c-.755,6.46-6.671,11.491-13.86,11.493l-10.491.006a2.969,2.969,0,1,0,0,5.938l6.417,0,19.332,25.913a3.546,3.546,0,1,0,5.685-4.241L74.559,277.172l23.42-.01a2.969,2.969,0,1,0,0-5.938l-10.39,0a19.917,19.917,0,0,0,4.762-11.491h5.622a2.97,2.97,0,1,0,0-5.94l-6.109,0a20.174,20.174,0,0,0-4.289-8.36l10.4,0a2.968,2.968,0,0,0,2.968-2.971" transform="translate(23.958 101.893)" fill="#aa7921"/>
    <path id="Path_9154" data-name="Path 9154" d="M324.589,99.468l28.389-41.535a26.1,26.1,0,0,0-21.544-40.822H162.689a26.1,26.1,0,0,0-21.544,40.822l28.693,41.979a26.091,26.091,0,0,1-5.194,35.053C115.255,174.731,69.73,240.128,69.73,301.871c0,97.674,79.181,127.146,176.857,127.146s176.857-29.471,176.857-127.146c0-61.963-44.209-127.612-93.642-167.336a26.09,26.09,0,0,1-5.213-35.067" transform="translate(29.666 7.28)" fill="#d0b170"/>
    <path id="Path_9155" data-name="Path 9155" d="M279.106,134.535a26.09,26.09,0,0,1-5.213-35.067l28.389-41.535a26.1,26.1,0,0,0-21.544-40.822H266.73a26.1,26.1,0,0,1,21.544,40.822L259.885,99.468a26.09,26.09,0,0,0,5.213,35.067c49.433,39.724,93.642,105.373,93.642,167.336,0,95.328-75.425,125.683-169.852,127.087q3.487.053,7,.058c97.676,0,176.857-29.471,176.857-127.146,0-61.963-44.209-127.612-93.642-167.336" transform="translate(80.362 7.28)" fill="#b79963"/>
    <path id="Path_9156" data-name="Path 9156" d="M288.514,141.815a26.09,26.09,0,0,1-5.213-35.067L311.69,65.213a26.1,26.1,0,0,0-21.544-40.822H271.1A28.839,28.839,0,0,1,247.955,13.21a32.993,32.993,0,0,0-52.807,0A28.841,28.841,0,0,1,172,24.391h-9.09a26.1,26.1,0,0,0-21.546,40.822l28.694,41.979a26.091,26.091,0,0,1-5.194,35.053c-49.389,39.766-94.913,105.162-94.913,166.906,0,97.674,59.884,127.146,157.559,127.146s154.642-29.471,154.642-127.146c0-61.963-44.209-127.612-93.642-167.336" transform="translate(29.762 0)" fill="#e8c585"/>
    <path id="Path_9157" data-name="Path 9157" d="M139.41,169.932c-16.739,22.365-36.537,35.833-44.222,30.081s-.345-28.545,16.393-50.908,36.538-35.833,44.223-30.083.345,28.545-16.394,50.91" transform="translate(39.2 50.073)" fill="#f9deb2"/>
    <path id="Path_9158" data-name="Path 9158" d="M136.507,35.632c-6.784,4.537-13.666,6.147-15.372,3.6s2.41-8.3,9.194-12.833S144,20.248,145.7,22.8s-2.41,8.3-9.194,12.833" transform="translate(51.373 9.184)" fill="#f9deb2"/>
    <path id="Path_9159" data-name="Path 9159" d="M265.062,107.544H145.478a7,7,0,0,1,0-14.008H265.062a7,7,0,0,1,0,14.008" transform="translate(58.914 39.795)" fill="#d0b170"/>
    <path id="Path_9160" data-name="Path 9160" d="M240.561,176.159V163.22H143.353v12.939h29.324c13.023,0,24.129,7.575,28.452,18.216H143.353v12.939h59.53c-1.652,14.071-14.542,25.025-30.205,25.025H143.353v12.939H163.8l44.413,59.585,19.249-.026-44.393-59.559h57.49V232.339h-29.1a43.377,43.377,0,0,0,10.387-25.025h18.718V194.375h-19.78a43.939,43.939,0,0,0-9.337-18.216Z" transform="translate(60.989 69.442)" fill="#554c3d"/>
    <path id="Path_9161" data-name="Path 9161" d="M305.253,215.583A64.345,64.345,0,1,0,369.6,279.928a64.345,64.345,0,0,0-64.345-64.345" transform="translate(102.494 91.719)" fill="#996b20"/>
    <rect id="Rectangle_1094" data-name="Rectangle 1094" width="10.756" height="128.691" transform="translate(397.502 307.311)" fill="#996b20"/>
    <path id="Path_9162" data-name="Path 9162" d="M361.556,279.928a64.345,64.345,0,1,1-64.345-64.345,64.345,64.345,0,0,1,64.345,64.345" transform="translate(99.073 91.719)" fill="#dba32c"/>
    <path id="Path_9163" data-name="Path 9163" d="M292.231,227.291a47.656,47.656,0,1,0,47.656,47.656,47.656,47.656,0,0,0-47.656-47.656" transform="translate(104.054 96.7)" fill="#edcb3a"/>
    <path id="Path_9164" data-name="Path 9164" d="M247.557,274.947a47.647,47.647,0,0,1,46.165-47.618c-.5-.014-.992-.037-1.491-.037a47.656,47.656,0,1,0,0,95.311c.5,0,.995-.021,1.491-.037a47.647,47.647,0,0,1-46.165-47.618" transform="translate(104.053 96.7)" fill="#c18925"/>
    <path id="Path_9165" data-name="Path 9165" d="M307.107,242.464h0a2.969,2.969,0,0,0-2.971-2.968l-38.682.017a2.969,2.969,0,0,0,0,5.938l10.491,0a13.953,13.953,0,0,1,13.063,8.356l-23.551.01a2.97,2.97,0,0,0,0,5.94l24.357-.011c-.755,6.46-6.671,11.491-13.861,11.493l-10.49.006a2.969,2.969,0,1,0,0,5.938l6.416,0,19.333,25.913a3.546,3.546,0,1,0,5.685-4.241l-16.172-21.677,23.419-.01a2.969,2.969,0,1,0,0-5.938l-10.392,0a19.909,19.909,0,0,0,4.764-11.491h5.622a2.97,2.97,0,0,0,0-5.94l-6.109,0a20.174,20.174,0,0,0-4.289-8.36l10.4,0a2.969,2.969,0,0,0,2.968-2.971" transform="translate(111.674 101.893)" fill="#aa7921"/>
    <path id="Path_9166" data-name="Path 9166" d="M265.551,106.294h-47.7a14.363,14.363,0,1,1,0-28.726h47.7a14.363,14.363,0,1,1,0,28.726" transform="translate(86.575 33.001)" fill="#494136"/>
    <path id="Path_9167" data-name="Path 9167" d="M249.722,106.294H217.855a14.363,14.363,0,0,1,0-28.726h31.867a14.363,14.363,0,0,1,0,28.726" transform="translate(86.575 33.001)" fill="#554c3d"/>
    <path id="Path_9168" data-name="Path 9168" d="M245.229,106.294h-100a14.363,14.363,0,0,1,0-28.726h100a14.363,14.363,0,1,1,0,28.726" transform="translate(55.677 33.001)" fill="#685d4e"/>
    <path id="Path_9169" data-name="Path 9169" d="M221.342,137.521,199.194,93.849a14.363,14.363,0,1,0-25.63,12.973l22.149,43.671a14.363,14.363,0,1,0,25.63-12.973" transform="translate(73.188 36.581)" fill="#554c3d"/>
    <path id="Path_9170" data-name="Path 9170" d="M218.2,137.521,196.054,93.849a14.363,14.363,0,1,0-25.63,12.973l22.149,43.671a14.363,14.363,0,1,0,25.63-12.973" transform="translate(71.852 36.581)" fill="#685d4e"/>
    <path id="Path_9171" data-name="Path 9171" d="M152.045,137.521l22.146-43.671a14.364,14.364,0,1,1,25.631,12.973l-22.149,43.671a14.362,14.362,0,1,1-25.628-12.973" transform="translate(64.032 36.581)" fill="#554c3d"/>
    <path id="Path_9172" data-name="Path 9172" d="M149.133,137.521l22.149-43.671a14.363,14.363,0,1,1,25.63,12.973l-22.149,43.671a14.363,14.363,0,1,1-25.63-12.973" transform="translate(62.793 36.581)" fill="#685d4e"/>
    <path id="Path_9173" data-name="Path 9173" d="M203.794,94.449a20.732,20.732,0,1,1-20.732-20.732,20.732,20.732,0,0,1,20.732,20.732" transform="translate(69.063 31.363)" fill="#776c5e"/>
    <path id="Path_9174" data-name="Path 9174" d="M188.28,81.873c0,3.088-3.933,5.589-8.784,5.589s-8.784-2.5-8.784-5.589,3.933-5.589,8.784-5.589,8.784,2.5,8.784,5.589" transform="translate(72.629 32.455)" fill="#877b6f"/>
    <path id="Path_9175" data-name="Path 9175" d="M183.063,101.384a20.729,20.729,0,0,1-20.234-16.26,20.731,20.731,0,1,0,40.47,0,20.731,20.731,0,0,1-20.236,16.26" transform="translate(69.063 36.216)" fill="#554c3d"/>
    <path id="Path_9176" data-name="Path 9176" d="M256.367,239.884a16.882,16.882,0,0,0-14.1-13.87,16.884,16.884,0,0,0,14.1-13.87,16.884,16.884,0,0,0,14.1,13.87,16.882,16.882,0,0,0-14.1,13.87" transform="translate(103.07 90.257)" fill="#fff"/>
    <path id="Path_9177" data-name="Path 9177" d="M346.537,232.605a16.882,16.882,0,0,0-14.1-13.87,16.884,16.884,0,0,0,14.1-13.87,16.884,16.884,0,0,0,14.1,13.87,16.882,16.882,0,0,0-14.1,13.87" transform="translate(141.432 87.16)" fill="#fff"/>
    <path id="Path_9178" data-name="Path 9178" d="M366.918,286.471a16.882,16.882,0,0,0-14.1-13.87,16.884,16.884,0,0,0,14.1-13.87,16.884,16.884,0,0,0,14.1,13.87,16.882,16.882,0,0,0-14.1,13.87" transform="translate(150.103 110.077)" fill="#fff"/>
    <path id="Path_9179" data-name="Path 9179" d="M56.646,239.7a16.882,16.882,0,0,0-14.1-13.87,16.884,16.884,0,0,0,14.1-13.87,16.884,16.884,0,0,0,14.1,13.87,16.882,16.882,0,0,0-14.1,13.87" transform="translate(18.099 90.179)" fill="#fff"/>
    <path id="Path_9180" data-name="Path 9180" d="M317.148,310.128a16.882,16.882,0,0,0-14.1-13.87,16.884,16.884,0,0,0,14.1-13.87,16.884,16.884,0,0,0,14.1,13.87,16.882,16.882,0,0,0-14.1,13.87" transform="translate(128.929 120.142)" fill="#fff"/>
    <path id="Path_9181" data-name="Path 9181" d="M223.727,269.114a10.407,10.407,0,0,0-10.4-10.39l-122.352.054a10.406,10.406,0,0,0-10.392,10.4l.021,48.9a10.407,10.407,0,0,0,10.4,10.39l122.353-.054a10.407,10.407,0,0,0,10.39-10.4Z" transform="translate(34.284 110.073)" fill="#406052"/>
    <path id="Path_9182" data-name="Path 9182" d="M81.179,328.468a10.407,10.407,0,0,1-10.4-10.392l-.021-48.9a10.4,10.4,0,0,1,10.39-10.4l122.353-.056a10.408,10.408,0,0,1,10.4,10.392l.021,48.9a10.407,10.407,0,0,1-10.391,10.4Z" transform="translate(30.104 110.073)" fill="#bdefdc"/>
    <path id="Path_9183" data-name="Path 9183" d="M202.493,323.9l-122.353.054a6.922,6.922,0,0,1-6.925-6.919l-.021-48.9a6.922,6.922,0,0,1,6.919-6.926l122.352-.054a6.922,6.922,0,0,1,6.926,6.919l.021,48.9a6.922,6.922,0,0,1-6.919,6.926" transform="translate(31.14 111.11)" fill="#8ed2bb"/>
    <path id="Path_9184" data-name="Path 9184" d="M182.142,261.16l-61.176.027.027,62.744,61.177-.027a6.922,6.922,0,0,0,6.919-6.925l-.021-48.9a6.924,6.924,0,0,0-6.926-6.919" transform="translate(51.465 111.11)" fill="#64a08a"/>
    <path id="Path_9185" data-name="Path 9185" d="M158.583,291.82a28.964,28.964,0,1,1-28.977-28.951,28.963,28.963,0,0,1,28.977,28.951" transform="translate(42.824 111.837)" fill="#bdefdc"/>
    <path id="Path_9186" data-name="Path 9186" d="M139.087,271.712h0a1.856,1.856,0,0,0-1.857-1.856l-24.191.01a1.857,1.857,0,0,0,0,3.715l6.561,0a8.726,8.726,0,0,1,8.169,5.226l-14.728.006a1.857,1.857,0,1,0,0,3.715l15.231-.007a8.5,8.5,0,0,1-8.667,7.189l-6.561,0a1.857,1.857,0,0,0,0,3.713h4.014l12.089,16.206a2.218,2.218,0,0,0,3.555-2.653l-10.114-13.556,14.646-.006a1.857,1.857,0,0,0,0-3.715l-6.5,0a12.442,12.442,0,0,0,2.979-7.184l3.517,0a1.857,1.857,0,1,0,0-3.713h-3.82a12.625,12.625,0,0,0-2.683-5.229l6.5,0a1.857,1.857,0,0,0,1.856-1.857" transform="translate(47.302 114.81)" fill="#406052"/>
    <path id="Path_9187" data-name="Path 9187" d="M93.621,261.194l-13.508.006a6.924,6.924,0,0,0-6.921,6.926l.007,13.586a20.9,20.9,0,0,0,20.421-20.518" transform="translate(31.14 111.124)" fill="#406052"/>
    <path id="Path_9188" data-name="Path 9188" d="M73.177,290.885l.006,13.508a6.924,6.924,0,0,0,6.926,6.921l13.586-.007a20.9,20.9,0,0,0-20.518-20.421" transform="translate(31.133 123.756)" fill="#406052"/>
    <path id="Path_9189" data-name="Path 9189" d="M154.426,311.3l13.508-.006a6.922,6.922,0,0,0,6.919-6.926l-.006-13.586A20.9,20.9,0,0,0,154.426,311.3" transform="translate(65.7 123.715)" fill="#406052"/>
    <path id="Path_9190" data-name="Path 9190" d="M174.9,281.588l-.006-13.508a6.923,6.923,0,0,0-6.926-6.921l-13.586.007A20.9,20.9,0,0,0,174.9,281.588" transform="translate(65.68 111.11)" fill="#406052"/>
  </g>
</svg>
