<svg xmlns="http://www.w3.org/2000/svg" width="908.247" height="629.298" viewBox="0 0 908.247 629.298">
  <path id="_68-shape" data-name="68-shape" d="M15.187,279.7c32.9-67.6,106.4-100.9,176.4-115.8,44.8-9.6,90.7-13.1,136-19.7,46.9-6.9,93.3-16.5,139.4-27.6,101.2-24.6,200.4-57,300.3-86.4,25-7.3,50-14.5,75.2-21.4,16.5-4.5,45.8-17,59.6-.5,16.7,19.9-5.1,85.3-10.9,109.7-12.1,51-27.8,101.4-43.9,151.3-31.6,98.1-68.2,194.5-106.6,290.1-10.9,27.2-24.9,54.7-54.4,65-35.4,12.5-75.2-1.7-109.6-10.8q-143.25-37.8-286.6-75.7c-76.8-20.3-169.2-32.3-233.2-82.9C1.987,411.4-15.812,343.4,15.187,279.7Z" transform="translate(-0.02 -0.021)" fill="#fff"/>
</svg>
