<svg xmlns="http://www.w3.org/2000/svg" width="1131.406" height="1149.539" viewBox="0 0 1131.406 1149.539">
  <path id="_69-shape" data-name="69-shape" d="M851.5,453.8C830,428,782.1,443,755,447.2q-71.7,11.1-143.4,22.1c-.2-47-.8-94.3-9.4-140.7-7.1-37.8-20.8-75.7-56.9-94.3-79.9-41-162.9,21.8-243.1,27.9q-7.35-64.35-14.7-128.6c-2.6-22.8-5.2-45.7-7.8-68.5-1.8-15.7-1.6-34.8-9.8-48.9-13.4-22.5-41.9-19-60.4-5.1-27.5,20.6-49.3,54.2-69.1,82A805.4,805.4,0,0,0,34,300.9C8.5,376-10.2,459.2,6.1,538.3,37.5,691.4,190.3,770,331,797.2c76.5,14.8,157.1,23.5,229.4-11.8,69-33.7,129.8-91,182.4-145.8a1002.558,1002.558,0,0,0,83.6-99.3C842.6,518.3,874.7,481.6,851.5,453.8Z" transform="translate(1131.394 405.063) rotate(120)" fill="#fff"/>
</svg>
