<svg xmlns="http://www.w3.org/2000/svg" width="1169.894" height="1031.531" viewBox="0 0 1169.894 1031.531">
  <g id="_91-lines" data-name="91-lines" transform="matrix(0.407, -0.914, 0.914, 0.407, 0.005, 636.902)">
    <path id="Path_8268" data-name="Path 8268" d="M22.1,970.1C13.3,826.4,6.3,682.3,16.5,538.5c5.7-80.4,16.7-160.7,36.3-238.9C71,227,98.4,153.8,149.2,97.3,194,47.4,256.8,11,325.2,11.2c69.1.2,134,35.9,181.3,84.5,51.4,52.9,82.4,122.1,103.7,191.8,22,72.2,36.5,147.2,48.3,221.7a2209.054,2209.054,0,0,1,24.2,461h11.5a2219.841,2219.841,0,0,0-18.6-424.1c-11.5-81.6-26.5-163.4-48.8-242.8-19.5-69-46.8-137.3-92.3-193.4C493.1,58.9,435.1,18,370.2,4.5,306.6-8.7,242.4,7.8,190,45.4,67,133.6,33.6,299.2,15,440-8.3,615.8-.2,793.5,10.7,970.1Z" fill="#fbe551"/>
    <path id="Path_8269" data-name="Path 8269" d="M89.7,970.1c-1.8-120.9-2.2-241.9,7.2-362.6,5.6-71.2,14.6-142.1,28.8-212.1,12.5-61.5,27.9-124.4,60.4-178.8,31.1-52.1,80.7-95.8,141.8-107.2,63.7-11.9,121.8,19.7,159.3,70.2,39.6,53.2,55.9,120.4,71.3,183.8a1752.555,1752.555,0,0,1,37.3,208.4,1775.1,1775.1,0,0,1,1.4,398.4h11.4a1783.5,1783.5,0,0,0,1.8-369.6,1781.561,1781.561,0,0,0-35-215.5c-15.2-67-30.9-138.4-68.4-197-29.4-45.9-75-84.4-130.6-91.5-54.5-7-108.9,16.2-149.3,51.8-46.3,40.9-73.5,99-91.1,157.2C115.5,373,103.9,443.4,95.1,513.1,75.8,664.6,76,817.6,78.2,970.1Z" fill="#fbe551"/>
    <path id="Path_8270" data-name="Path 8270" d="M194.3,970.1c-26.2-197-15.8-401.2,36.4-592.9,10.4-38.1,26.4-83.7,62.8-104.4,47.7-27.2,99.7,7.5,124.3,49.1,25.5,43.2,36.1,96.6,47.2,145a1427.768,1427.768,0,0,1,27.6,161.6A1445.729,1445.729,0,0,1,490,970.1h11.4a1462.212,1462.212,0,0,0,4.2-327.3,1449.809,1449.809,0,0,0-27.9-172c-11.6-51.7-22.7-108.6-50-154.8-21.2-35.8-59-66.9-102.8-64.3-37.6,2.2-65.2,29.6-82.1,61.3-23.3,43.8-32.4,95.4-42.2,143.5A1553.42,1553.42,0,0,0,183,970.1h11.3Z" fill="#fbe551"/>
  </g>
</svg>
