<svg xmlns="http://www.w3.org/2000/svg" width="2436.045" height="2475.089" viewBox="0 0 2436.045 2475.089">
  <path id="_69-shape" data-name="69-shape" d="M1833.39,977.091c-46.292-55.55-149.426-23.254-207.776-14.211q-154.378,23.9-308.757,47.584c-.431-101.2-1.722-203.039-20.239-302.943-15.287-81.388-44.785-162.991-122.512-203.039C1002.072,416.2,823.364,551.42,650.684,564.554Q634.859,426,619.033,287.664c-5.6-49.091-11.2-98.4-16.794-147.488-3.876-33.8-3.445-74.928-21.1-105.287C552.287-13.557,490.923-6.021,451.091,23.907c-59.211,44.354-106.149,116.7-148.78,176.555A1734.117,1734.117,0,0,0,73.219,647.88c-54.9,161.7-95.168,340.838-60.072,511.149,67.608,329.642,396.6,498.877,699.547,557.441,164.713,31.866,338.254,50.6,493.924-25.407,148.565-72.56,279.474-195.933,392.728-313.924a2158.623,2158.623,0,0,0,180-213.8C1814.227,1115.967,1883.342,1036.947,1833.39,977.091Z" transform="translate(2436.033 872.139) rotate(120)" fill="#fbe551"/>
</svg>
