<svg xmlns="http://www.w3.org/2000/svg" width="637" height="387.051" viewBox="0 0 637 387.051">
  <path id="_71-shape" data-name="71-shape" d="M611.181,138.468C580.625,80.164,525.932,28.28,458,22.128c-36.373-3.276-72.478,6.352-108.25,11.567-35.637,5.215-67.531.735-101.5-10.5C216.762,12.834,184.668-.337,150.97,0,120.28.264,90.928,13.035,71.137,36.7c-1.07,1.27-2.073,2.608-3.076,3.878-41.12,21.864-66.528,69.4-68,117.61C-1.81,219.839,31.153,277.073,80.23,312.844a185.055,185.055,0,0,0,80.5,33.431c33.9,5.148,67.464-1.137,100.694-7.823,34.434-6.954,70.272-14.509,104.706-3.343,30.89,10.029,57.3,30.422,87.322,42.658,59.775,24.4,122.959-1.4,158.262-53.423C649.627,268.582,641.068,195.635,611.181,138.468Z" transform="translate(0.013 0.009)" fill="#fff5cc"/>
</svg>
