<svg id="Group_211" data-name="Group 211" xmlns="http://www.w3.org/2000/svg" xmlns:xlink="http://www.w3.org/1999/xlink" width="109.5" height="143.063" viewBox="0 0 109.5 143.063">
  <defs>
    <clipPath id="clip-path">
      <rect id="Rectangle_142" data-name="Rectangle 142" width="109.5" height="143.063" fill="none"/>
    </clipPath>
  </defs>
  <g id="Group_210" data-name="Group 210" clip-path="url(#clip-path)">
    <path id="Path_5730" data-name="Path 5730" d="M41.762,32.709A3.007,3.007,0,0,0,44.6,29.092a20.871,20.871,0,0,0-2.685-6.385c-3.121-5.455.51-16.518-6.313-21.452A8.469,8.469,0,0,0,30.627,0a8.471,8.471,0,0,0-4.974,1.255c-6.823,4.934-3.192,16-6.312,21.452a20.87,20.87,0,0,0-2.685,6.385,3.007,3.007,0,0,0,2.836,3.618Z" transform="translate(-8.592 0)"/>
    <path id="Path_5731" data-name="Path 5731" d="M22.382,155.04s4.188,22.181,3.689,24.241a34.315,34.315,0,0,0-1.826,7.487c-.521,4.385,1.565,10.273,2.311,14.977A109.491,109.491,0,0,1,27.9,213.915a4.548,4.548,0,0,0,1.836.982,1.93,1.93,0,0,0,1.979-.754s.566-15.411.956-25.111c.072-1.8-.726-7.782-.6-8.8a186.076,186.076,0,0,0,.3-26.306c-.447-3.349-9.986,1.116-9.986,1.116" transform="translate(-11.585 -79.026)" fill="#fff"/>
    <path id="Path_5732" data-name="Path 5732" d="M22.382,155.04s4.188,22.181,3.689,24.241a34.315,34.315,0,0,0-1.826,7.487c-.521,4.385,1.565,10.273,2.311,14.977A109.491,109.491,0,0,1,27.9,213.915a4.548,4.548,0,0,0,1.836.982,1.93,1.93,0,0,0,1.979-.754s.566-15.411.956-25.111c.072-1.8-.726-7.782-.6-8.8a186.076,186.076,0,0,0,.3-26.306C31.92,150.574,22.382,155.04,22.382,155.04Z" transform="translate(-11.585 -79.026)" fill="none" stroke="#231f20" stroke-miterlimit="10" stroke-width="0.483"/>
    <path id="Path_5733" data-name="Path 5733" d="M26.137,162.308a35.215,35.215,0,0,0,6.557.928c-.019-4.263-.14-7.92-.326-9.312-.447-3.349-9.986,1.116-9.986,1.116s.487,2.627,1.108,6.149a11.326,11.326,0,0,0,2.648,1.119" transform="translate(-11.585 -79.026)" fill="#fff"/>
    <path id="Path_5734" data-name="Path 5734" d="M26.137,162.308a35.215,35.215,0,0,0,6.557.928c-.019-4.263-.14-7.92-.326-9.312-.447-3.349-9.986,1.116-9.986,1.116s.487,2.627,1.108,6.149A11.326,11.326,0,0,0,26.137,162.308Z" transform="translate(-11.585 -79.026)" fill="none" stroke="#231f20" stroke-miterlimit="10" stroke-width="0.483"/>
    <path id="Path_5735" data-name="Path 5735" d="M57.3,155.04s-4.13,22.492-3.689,24.241a33.5,33.5,0,0,1,1.826,7.487c.521,4.385-1.565,10.273-2.311,14.977a109.608,109.608,0,0,0-1.341,12.169,2.838,2.838,0,0,1-1.592,1.37,2.632,2.632,0,0,1-2.241-1.142c0-.012-.606-16.473-.918-25.187-.073-2.046.718-7.6.577-8.727a186.076,186.076,0,0,1-.3-26.306c.447-3.349,9.986,1.116,9.986,1.116" transform="translate(-24.319 -79.026)" fill="#fff"/>
    <path id="Path_5736" data-name="Path 5736" d="M57.3,155.04s-4.13,22.492-3.689,24.241a33.5,33.5,0,0,1,1.826,7.487c.521,4.385-1.565,10.273-2.311,14.977a109.608,109.608,0,0,0-1.341,12.169,2.838,2.838,0,0,1-1.592,1.37,2.632,2.632,0,0,1-2.241-1.142c0-.012-.606-16.473-.918-25.187-.073-2.046.718-7.6.577-8.727a186.076,186.076,0,0,1-.3-26.306C47.76,150.574,57.3,155.04,57.3,155.04Z" transform="translate(-24.319 -79.026)" fill="none" stroke="#231f20" stroke-miterlimit="10" stroke-width="0.483"/>
    <path id="Path_5737" data-name="Path 5737" d="M48.6,215.25c-.159-3.4-.831-15.541-.739-24.134a79.024,79.024,0,0,1,.88-10.13c-.015-4.332-1.1-7.756-.576-13.6a39.121,39.121,0,0,0-.671-13.235,1.339,1.339,0,0,0-.184.536,186.149,186.149,0,0,0,.3,26.306c.141,1.126-.651,6.681-.577,8.727.312,8.715.918,25.176.918,25.187a2.431,2.431,0,0,0,.7.687,1.669,1.669,0,0,1-.053-.342" transform="translate(-24.319 -79.788)" fill="#fff"/>
    <path id="Path_5738" data-name="Path 5738" d="M48.6,215.25c-.159-3.4-.831-15.541-.739-24.134a79.024,79.024,0,0,1,.88-10.13c-.015-4.332-1.1-7.756-.576-13.6a39.121,39.121,0,0,0-.671-13.235,1.339,1.339,0,0,0-.184.536,186.149,186.149,0,0,0,.3,26.306c.141,1.126-.651,6.681-.577,8.727.312,8.715.918,25.176.918,25.187a2.431,2.431,0,0,0,.7.687A1.669,1.669,0,0,1,48.6,215.25Z" transform="translate(-24.319 -79.788)" fill="none" stroke="#231f20" stroke-miterlimit="10" stroke-width="0.483"/>
    <path id="Path_5739" data-name="Path 5739" d="M40.258,215.25c.159-3.4.83-15.541.739-24.134a78.924,78.924,0,0,0-.88-10.13c.015-4.332,1.1-7.756.576-13.6a39.121,39.121,0,0,1,.671-13.235,1.332,1.332,0,0,1,.184.536,186.076,186.076,0,0,1-.3,26.306c-.141,1.126.651,6.681.577,8.727-.312,8.715-.918,25.176-.918,25.187a2.431,2.431,0,0,1-.7.687,1.7,1.7,0,0,0,.053-.342" transform="translate(-20.765 -79.788)" fill="#fff"/>
    <path id="Path_5740" data-name="Path 5740" d="M40.258,215.25c.159-3.4.83-15.541.739-24.134a78.924,78.924,0,0,0-.88-10.13c.015-4.332,1.1-7.756.576-13.6a39.121,39.121,0,0,1,.671-13.235,1.332,1.332,0,0,1,.184.536,186.076,186.076,0,0,1-.3,26.306c-.141,1.126.651,6.681.577,8.727-.312,8.715-.918,25.176-.918,25.187a2.431,2.431,0,0,1-.7.687A1.7,1.7,0,0,0,40.258,215.25Z" transform="translate(-20.765 -79.788)" fill="none" stroke="#231f20" stroke-miterlimit="10" stroke-width="0.483"/>
    <path id="Path_5741" data-name="Path 5741" d="M56.186,161.24c.626-3.548,1.116-6.2,1.116-6.2s-9.538-4.466-9.986-1.116c-.187,1.4-.308,5.08-.327,9.367,3.261-.066,6.126-1.405,9.2-2.051" transform="translate(-24.322 -79.026)" fill="#fff"/>
    <path id="Path_5742" data-name="Path 5742" d="M56.186,161.24c.626-3.548,1.116-6.2,1.116-6.2s-9.538-4.466-9.986-1.116c-.187,1.4-.308,5.08-.327,9.367C50.251,163.225,53.116,161.885,56.186,161.24Z" transform="translate(-24.322 -79.026)" fill="none" stroke="#231f20" stroke-miterlimit="10" stroke-width="0.483"/>
    <path id="Path_5743" data-name="Path 5743" d="M23.3,279.3s-6.438,3.306-9.083,5.658c-2.45,2.179,1.881,3.53,6.851,1.507a20.9,20.9,0,0,1,2.913-.949,23.858,23.858,0,0,0,3.664-1.1c1.439-.735-.517-4.729-.517-4.729s-1.414,1.493-3.828-.384" transform="translate(-6.995 -144.565)" fill="#fbe551"/>
    <path id="Path_5744" data-name="Path 5744" d="M24.369,284.838c-2.028.508-4.079,1.053-6.11,1.523a3.54,3.54,0,0,1-3.1-.627c-.343.259-.663.513-.936.755-2.45,2.179,1.881,3.53,6.851,1.507a20.849,20.849,0,0,1,2.913-.949,23.9,23.9,0,0,0,3.664-1.1c.965-.493.4-2.447-.071-3.684a5.177,5.177,0,0,1-3.207,2.577" transform="translate(-6.995 -146.099)"/>
    <path id="Path_5745" data-name="Path 5745" d="M51.716,279.3s6.438,3.306,9.083,5.658c2.45,2.179-1.881,3.53-6.851,1.507a20.885,20.885,0,0,0-2.913-.949,23.866,23.866,0,0,1-3.664-1.1c-1.439-.735.517-4.729.517-4.729s1.414,1.493,3.828-.384" transform="translate(-24.246 -144.565)" fill="#fbe551"/>
    <path id="Path_5746" data-name="Path 5746" d="M60.8,286.772c-.242-.215-.523-.439-.821-.667-.7,1.634-4.342.517-5.8.049-4.673-1.495-5.1-1.525-6.829-3.349-.447,1.234-.874,2.962.027,3.422a23.9,23.9,0,0,0,3.664,1.1,20.789,20.789,0,0,1,2.913.949c4.97,2.023,9.3.672,6.851-1.507" transform="translate(-24.246 -146.38)"/>
    <path id="Path_5747" data-name="Path 5747" d="M43.77,113.025l-7.2.538,0,.007,0-.007-7.2-.538s.447,3.289-1.006,5.383c0,0,4.632,3.409,8.209,3.349h.006c3.577.06,8.209-3.349,8.209-3.349-1.453-2.093-1.006-5.383-1.006-5.383" transform="translate(-14.675 -58.502)" fill="#fff"/>
    <path id="Path_5748" data-name="Path 5748" d="M43.77,113.025l-7.2.538,0,.007,0-.007-7.2-.538s.447,3.289-1.006,5.383c0,0,4.632,3.409,8.209,3.349h.006c3.577.06,8.209-3.349,8.209-3.349C43.323,116.314,43.77,113.025,43.77,113.025Z" transform="translate(-14.675 -58.502)" fill="none" stroke="#231f20" stroke-miterlimit="10" stroke-width="0.483"/>
    <path id="Path_5749" data-name="Path 5749" d="M41.422,123.651a24.706,24.706,0,0,0-4.9-6.933,6.156,6.156,0,0,1-1.151.931,8.853,8.853,0,0,1-9.729,0,6.155,6.155,0,0,1-1.151-.931,24.706,24.706,0,0,0-4.9,6.933c-1.817,4.023-3.084,13.834-2.929,16.09,0,0,7.895,2.6,13.5,1.7,0,0-.086-6.661.346-6.959.432.3.346,6.959.346,6.959,5.6.894,13.495-1.7,13.495-1.7.155-2.256-1.111-12.067-2.929-16.09" transform="translate(-8.621 -60.413)"/>
    <path id="Path_5750" data-name="Path 5750" d="M42.9,143.763a3.52,3.52,0,0,0,1-.72,7.323,7.323,0,0,0,1.238-1.749,9.091,9.091,0,0,1-3.295.718c-1.856-.017-3.293-.218-4.477-1.276a6.112,6.112,0,0,0,2.234,2.672c-.218,1.532-1.054,3.988-1.167,5.333a40.548,40.548,0,0,1-.716,5.312,17.387,17.387,0,0,0,3.164-.178s-.083-6.515.334-6.938h.012c.417.423.334,6.938.334,6.938a17.389,17.389,0,0,0,3.164.178,40.712,40.712,0,0,1-.716-5.312c-.1-1.245-.831-3.442-1.112-4.978" transform="translate(-19.344 -72.845)"/>
    <path id="Path_5751" data-name="Path 5751" d="M41.422,123.651a24.706,24.706,0,0,0-4.9-6.933,6.156,6.156,0,0,1-1.151.931,8.9,8.9,0,0,1-9.729,0,6.155,6.155,0,0,1-1.151-.931,24.706,24.706,0,0,0-4.9,6.933c-1.817,4.023-3.084,13.834-2.929,16.09,0,0,1.322.434,3.266.887a26.623,26.623,0,0,1-.017-10.159c.81-4.107,2.162-5.873,5.887-7.014a9.032,9.032,0,0,0,1.019-.386,9.01,9.01,0,0,1,7.37,0,9,9,0,0,0,1.019.386c3.725,1.141,5.077,2.907,5.887,7.014a26.623,26.623,0,0,1-.017,10.159c1.945-.452,3.266-.887,3.266-.887.155-2.256-1.111-12.067-2.929-16.09" transform="translate(-8.621 -60.413)"/>
    <path id="Path_5752" data-name="Path 5752" d="M40.37,36.779l-2.7.259-2.7-.259s2.825,7.167-3.775,7.355c-.158,0-.536.215-.706.211,0,0,.475,9.478,7.182,9.478s7.243-9.561,7.243-9.561c-.151,0-.574-.124-.717-.127-6.663-.153-3.824-7.356-3.824-7.356" transform="translate(-15.78 -19.037)" fill="#fff"/>
    <path id="Path_5753" data-name="Path 5753" d="M40.37,36.779l-2.7.259-2.7-.259s2.825,7.167-3.775,7.355c-.158,0-.536.215-.706.211,0,0,.475,9.478,7.182,9.478s7.243-9.561,7.243-9.561c-.151,0-.574-.124-.717-.127C37.531,43.982,40.37,36.779,40.37,36.779Z" transform="translate(-15.78 -19.037)" fill="none" stroke="#231f20" stroke-miterlimit="10" stroke-width="0.483"/>
    <path id="Path_5754" data-name="Path 5754" d="M39.083,42.818c.909.6,2.275,1.078,4.9.5a12.277,12.277,0,0,0,1.217-.436c-1.954-2.1-.382-6.1-.382-6.1l-2.7.259-2.7-.259s1.541,3.923-.334,6.039" transform="translate(-20.229 -19.037)" fill="#fff"/>
    <path id="Path_5755" data-name="Path 5755" d="M39.083,42.818c.909.6,2.275,1.078,4.9.5a12.277,12.277,0,0,0,1.217-.436c-1.954-2.1-.382-6.1-.382-6.1l-2.7.259-2.7-.259S40.958,40.7,39.083,42.818Z" transform="translate(-20.229 -19.037)" fill="none" stroke="#231f20" stroke-miterlimit="10" stroke-width="0.483"/>
    <path id="Path_5756" data-name="Path 5756" d="M15.483,52.028s-1.945.382-3.529.659c-1.186.208-2.147.992-4.257,4.6S.994,71.684.3,74.583s4.657,5.186,8.986,10.363a20.489,20.489,0,0,0,1.877,2.247c.791.745,1.535.12,2.183-.123a1.779,1.779,0,0,1,1.565.092c.423.48,1.076,1.191,1.3,1.191.656,0-.012-1.1-.55-1.728a2.843,2.843,0,0,0-1.278-.783,4.786,4.786,0,0,1,1.506.667c.677.639.946,1.768,1.366,1.684.543-.109-.02-2.126-.617-2.6a6.281,6.281,0,0,0-1.68-.845,3.834,3.834,0,0,1,1.855.8c.518.59.8,2.025,1.448,1.92.474-.077.086-2.028-.7-2.775a8.284,8.284,0,0,0-1.526-1.067,7.141,7.141,0,0,1,1.522.937c.427.426,1.149,2.121,1.565,1.8.3-.235.137-1.615-.819-2.551-1.267-1.241-1.766-1.537-2.384-1.46-.9.112-3.029,1.62-3.484,1.434A83.764,83.764,0,0,1,5.423,75.64c-.328-.694,4.725-10.1,5.974-12.748.2-.423.111-.437.306-.012a11.164,11.164,0,0,1,.6,3.18s5.367-10.055,3.175-14.032" transform="translate(-0.125 -26.93)" fill="#fff"/>
    <path id="Path_5757" data-name="Path 5757" d="M15.483,52.028s-1.945.382-3.529.659c-1.186.208-2.147.992-4.257,4.6S.994,71.684.3,74.583s4.657,5.186,8.986,10.363a20.489,20.489,0,0,0,1.877,2.247c.791.745,1.535.12,2.183-.123a1.779,1.779,0,0,1,1.565.092c.423.48,1.076,1.191,1.3,1.191.656,0-.012-1.1-.55-1.728a2.843,2.843,0,0,0-1.278-.783,4.786,4.786,0,0,1,1.506.667c.677.639.946,1.768,1.366,1.684.543-.109-.02-2.126-.617-2.6a6.281,6.281,0,0,0-1.68-.845,3.834,3.834,0,0,1,1.855.8c.518.59.8,2.025,1.448,1.92.474-.077.086-2.028-.7-2.775a8.284,8.284,0,0,0-1.526-1.067,7.141,7.141,0,0,1,1.522.937c.427.426,1.149,2.121,1.565,1.8.3-.235.137-1.615-.819-2.551-1.267-1.241-1.766-1.537-2.384-1.46-.9.112-3.029,1.62-3.484,1.434A83.764,83.764,0,0,1,5.423,75.64c-.328-.694,4.725-10.1,5.974-12.748.2-.423.111-.437.306-.012a11.164,11.164,0,0,1,.6,3.18S17.675,56.006,15.483,52.028Z" transform="translate(-0.125 -26.93)" fill="none" stroke="#231f20" stroke-miterlimit="10" stroke-width="0.483"/>
    <path id="Path_5758" data-name="Path 5758" d="M54.959,52.028a22.843,22.843,0,0,1,3.434.659c1.157.347,2.146.992,4.256,4.6s6.7,14.4,7.394,17.3-4.657,5.186-8.986,10.363a20.489,20.489,0,0,1-1.877,2.247c-.791.745-1.535.12-2.183-.123a1.779,1.779,0,0,0-1.565.092c-.423.48-1.076,1.191-1.3,1.191-.656,0,.012-1.1.55-1.728a2.843,2.843,0,0,1,1.278-.783,4.791,4.791,0,0,0-1.506.667c-.677.639-.946,1.768-1.366,1.684-.543-.109.02-2.126.617-2.6a6.288,6.288,0,0,1,1.68-.845,3.831,3.831,0,0,0-1.854.8c-.519.59-.8,2.025-1.449,1.92-.474-.077-.086-2.028.7-2.775a8.3,8.3,0,0,1,1.526-1.067,7.141,7.141,0,0,0-1.522.937c-.427.426-1.149,2.121-1.565,1.8-.3-.235-.137-1.615.819-2.551,1.267-1.241,1.767-1.537,2.384-1.46.9.112,3.028,1.62,3.483,1.434a83.7,83.7,0,0,0,7.012-8.147c.328-.694-4.725-10.1-5.974-12.748-.2-.423-.111-.437-.305-.012a11.153,11.153,0,0,0-.605,3.18s-5.271-10.055-3.079-14.032" transform="translate(-26.443 -26.93)" fill="#fff"/>
    <path id="Path_5759" data-name="Path 5759" d="M54.959,52.028a22.843,22.843,0,0,1,3.434.659c1.157.347,2.146.992,4.256,4.6s6.7,14.4,7.394,17.3-4.657,5.186-8.986,10.363a20.489,20.489,0,0,1-1.877,2.247c-.791.745-1.535.12-2.183-.123a1.779,1.779,0,0,0-1.565.092c-.423.48-1.076,1.191-1.3,1.191-.656,0,.012-1.1.55-1.728a2.843,2.843,0,0,1,1.278-.783,4.791,4.791,0,0,0-1.506.667c-.677.639-.946,1.768-1.366,1.684-.543-.109.02-2.126.617-2.6a6.288,6.288,0,0,1,1.68-.845,3.831,3.831,0,0,0-1.854.8c-.519.59-.8,2.025-1.449,1.92-.474-.077-.086-2.028.7-2.775a8.3,8.3,0,0,1,1.526-1.067,7.141,7.141,0,0,0-1.522.937c-.427.426-1.149,2.121-1.565,1.8-.3-.235-.137-1.615.819-2.551,1.267-1.241,1.767-1.537,2.384-1.46.9.112,3.028,1.62,3.483,1.434a83.7,83.7,0,0,0,7.012-8.147c.328-.694-4.725-10.1-5.974-12.748-.2-.423-.111-.437-.305-.012a11.153,11.153,0,0,0-.605,3.18S52.767,56.006,54.959,52.028Z" transform="translate(-26.443 -26.93)" fill="none" stroke="#231f20" stroke-miterlimit="10" stroke-width="0.483"/>
    <path id="Path_5760" data-name="Path 5760" d="M41.066,51.546,38.9,51.107c.069,7.305-4.242,7.023-4.242,7.023s-4.312.283-4.242-7.023l-2.169.439s-.638,11.632-3.58,13.195c0,0,2.339,12.138,2.784,16.235a39.5,39.5,0,0,0,7.207.758,39.5,39.5,0,0,0,7.207-.758c.445-4.1,2.784-16.235,2.784-16.235-2.942-1.562-3.58-13.195-3.58-13.195" transform="translate(-12.766 -26.453)" fill="#fbe551"/>
    <path id="Path_5761" data-name="Path 5761" d="M24.761,79.239c-.033.02-.064.046-.1.064l.018.094c.027-.052.053-.1.079-.158" transform="translate(-12.766 -41.014)" fill="#addef1"/>
    <path id="Path_5762" data-name="Path 5762" d="M65.963,79.4l.018-.095c-.033-.018-.065-.043-.1-.064.026.055.053.106.08.158" transform="translate(-34.101 -41.014)" fill="#addef1"/>
    <path id="Path_5763" data-name="Path 5763" d="M40.145,59.057s4.851.313,4.875-7.822l-.632-.128c.069,7.305-4.242,7.023-4.242,7.023s-4.311.283-4.242-7.023l-.632.128c.023,8.135,4.875,7.822,4.875,7.822" transform="translate(-18.256 -26.453)" fill="#fbe551"/>
    <path id="Path_5764" data-name="Path 5764" d="M42.811,73.539s.447,4.227-1.425,5.073c-.875.4-3.93.139-5.206-.138a7.359,7.359,0,0,0-3.142,0c-1.248.273-4.249.517-5.114.126-1.869-.844-1.427-5.064-1.427-5.064a5.049,5.049,0,0,1-1.832,2.813S27,88.49,27.448,92.587c0,0,.782.165,1.981.342-.5-2.361-.639-4.9-.954-7.169-.213-1.526-.38-4.039,1.408-4.643a57.787,57.787,0,0,1,9.544.008c1.788.6,1.621,3.117,1.408,4.644-.315,2.265-.454,4.808-.954,7.168,1.2-.176,1.981-.341,1.981-.341.445-4.1,2.784-16.235,2.784-16.235a5.063,5.063,0,0,1-1.835-2.822" transform="translate(-12.766 -38.064)" fill="#fbe551"/>
    <path id="Path_5765" data-name="Path 5765" d="M45.013,12.293c-.09-.577-5.525-2.981-5.525-2.981s-5.436,2.4-5.526,2.981a67.438,67.438,0,0,0,.48,8.127c.274,1.341,2.2,5.324,5.046,5.324s4.771-3.983,5.045-5.324a67.338,67.338,0,0,0,.48-8.127" transform="translate(-17.57 -4.82)" fill="#fff"/>
    <path id="Path_5766" data-name="Path 5766" d="M45.013,12.293c-.09-.577-5.525-2.981-5.525-2.981s-5.436,2.4-5.526,2.981a67.438,67.438,0,0,0,.48,8.127c.274,1.341,2.2,5.324,5.046,5.324s4.771-3.983,5.045-5.324A67.338,67.338,0,0,0,45.013,12.293Z" transform="translate(-17.57 -4.82)" fill="none" stroke="#231f20" stroke-miterlimit="10" stroke-width="0.483"/>
    <path id="Path_5767" data-name="Path 5767" d="M47.529,5.492s.045,6.408,5.583,7.083c0,0,1.785-6.665-5.583-7.083" transform="translate(-24.601 -2.843)"/>
    <path id="Path_5771" data-name="Path 5771" d="M51.431,26.095a.243.243,0,1,1-.237-.3.273.273,0,0,1,.237.3" transform="translate(-26.375 -13.353)" fill="#fff"/>
    <path id="Path_5776" data-name="Path 5776" d="M32.478,4.043c-2.09,1.72-3.664,4.061-2.479,7.3,1.41-.438,2.268-1.251,4.2-3.838a10.479,10.479,0,0,1-1.261,2.915c5.731-1.671,7.315-5.851,7.645-6.978-3.28-1.2-5.962-1.158-8.1.6" transform="translate(-15.317 -1.354)"/>
    <path id="Path_5778" data-name="Path 5778" d="M45.479,37.012c.152.295.01.554-.337.453a3.62,3.62,0,0,1-.742-.432,1.332,1.332,0,0,0-.956-.12c-.46.095-.862.356-1.331.418-.127.017-.3-.02-.306-.149a.234.234,0,0,1,.033-.109,2.626,2.626,0,0,1,1.9-1.287,2.112,2.112,0,0,1,1.743,1.226" transform="translate(-21.64 -18.523)"/>
    <path id="Path_5779" data-name="Path 5779" d="M168.735,33.065a3.177,3.177,0,0,0,3.374-3.618,19.318,19.318,0,0,0-3.194-6.385c-3.712-5.455.607-16.518-7.509-21.452a14.581,14.581,0,0,0-11.835,0c-8.117,4.934-3.8,16-7.51,21.452a19.319,19.319,0,0,0-3.193,6.385,3.177,3.177,0,0,0,3.374,3.618Z" transform="translate(-71.844 -0.184)"/>
    <path id="Path_5780" data-name="Path 5780" d="M145.68,155.4s4.983,22.181,4.388,24.241a29.987,29.987,0,0,0-2.172,7.487c-.62,4.385,1.862,10.273,2.749,14.978a92.786,92.786,0,0,1,1.595,12.169,5.741,5.741,0,0,0,2.184.982,2.525,2.525,0,0,0,2.356-.754s.673-15.411,1.137-25.111c.086-1.8-.863-7.782-.711-8.8.975-6.539.887-22.957.355-26.306s-11.88,1.116-11.88,1.116" transform="translate(-75.404 -79.211)" fill="#fff"/>
    <path id="Path_5781" data-name="Path 5781" d="M145.68,155.4s4.983,22.181,4.388,24.241a29.987,29.987,0,0,0-2.172,7.487c-.62,4.385,1.862,10.273,2.749,14.978a92.786,92.786,0,0,1,1.595,12.169,5.741,5.741,0,0,0,2.184.982,2.525,2.525,0,0,0,2.356-.754s.673-15.411,1.137-25.111c.086-1.8-.863-7.782-.711-8.8.975-6.539.887-22.957.355-26.306S145.68,155.4,145.68,155.4Z" transform="translate(-75.404 -79.211)" fill="none" stroke="#231f20" stroke-miterlimit="10" stroke-width="0.527"/>
    <path id="Path_5782" data-name="Path 5782" d="M150.147,162.664a49.387,49.387,0,0,0,7.8.928,86.383,86.383,0,0,0-.388-9.312c-.532-3.349-11.88,1.116-11.88,1.116s.578,2.627,1.317,6.149a14.954,14.954,0,0,0,3.15,1.119" transform="translate(-75.404 -79.211)" fill="#fff"/>
    <path id="Path_5783" data-name="Path 5783" d="M150.147,162.664a49.387,49.387,0,0,0,7.8.928,86.383,86.383,0,0,0-.388-9.312c-.532-3.349-11.88,1.116-11.88,1.116s.578,2.627,1.317,6.149A14.954,14.954,0,0,0,150.147,162.664Z" transform="translate(-75.404 -79.211)" fill="none" stroke="#231f20" stroke-miterlimit="10" stroke-width="0.527"/>
    <path id="Path_5784" data-name="Path 5784" d="M187.219,155.4s-4.914,22.492-4.388,24.241A29.277,29.277,0,0,1,185,187.124c.62,4.385-1.862,10.273-2.749,14.978a92.863,92.863,0,0,0-1.595,12.169,3.218,3.218,0,0,1-1.895,1.37A3.347,3.347,0,0,1,176.1,214.5c0-.012-.721-16.473-1.092-25.187-.087-2.046.854-7.6.686-8.727-.975-6.539-.886-22.957-.355-26.306s11.88,1.116,11.88,1.116" transform="translate(-90.553 -79.211)" fill="#fff"/>
    <path id="Path_5785" data-name="Path 5785" d="M187.219,155.4s-4.914,22.492-4.388,24.241A29.277,29.277,0,0,1,185,187.124c.62,4.385-1.862,10.273-2.749,14.978a92.863,92.863,0,0,0-1.595,12.169,3.218,3.218,0,0,1-1.895,1.37A3.347,3.347,0,0,1,176.1,214.5c0-.012-.721-16.473-1.092-25.187-.087-2.046.854-7.6.686-8.727-.975-6.539-.886-22.957-.355-26.306S187.219,155.4,187.219,155.4Z" transform="translate(-90.553 -79.211)" fill="none" stroke="#231f20" stroke-miterlimit="10" stroke-width="0.527"/>
    <path id="Path_5786" data-name="Path 5786" d="M176.873,215.606c-.189-3.4-.988-15.541-.879-24.134a66.817,66.817,0,0,1,1.047-10.13c-.019-4.332-1.3-7.756-.685-13.6a33.029,33.029,0,0,0-.8-13.235,1.2,1.2,0,0,0-.219.536c-.532,3.349-.621,19.767.355,26.306.168,1.126-.774,6.681-.687,8.727.371,8.715,1.092,25.176,1.092,25.188a2.732,2.732,0,0,0,.837.687,1.422,1.422,0,0,1-.063-.343" transform="translate(-90.553 -79.972)" fill="#fff"/>
    <path id="Path_5787" data-name="Path 5787" d="M176.873,215.606c-.189-3.4-.988-15.541-.879-24.134a66.817,66.817,0,0,1,1.047-10.13c-.019-4.332-1.3-7.756-.685-13.6a33.029,33.029,0,0,0-.8-13.235,1.2,1.2,0,0,0-.219.536c-.532,3.349-.621,19.767.355,26.306.168,1.126-.774,6.681-.687,8.727.371,8.715,1.092,25.176,1.092,25.188a2.732,2.732,0,0,0,.837.687A1.422,1.422,0,0,1,176.873,215.606Z" transform="translate(-90.553 -79.972)" fill="none" stroke="#231f20" stroke-miterlimit="10" stroke-width="0.527"/>
    <path id="Path_5788" data-name="Path 5788" d="M166.946,215.606c.19-3.4.988-15.541.879-24.134a66.743,66.743,0,0,0-1.047-10.13c.019-4.332,1.3-7.756.685-13.6a33.029,33.029,0,0,1,.8-13.235,1.2,1.2,0,0,1,.219.536c.532,3.349.621,19.767-.355,26.306-.168,1.126.774,6.681.687,8.727-.371,8.715-1.092,25.176-1.092,25.188a2.732,2.732,0,0,1-.837.687,1.422,1.422,0,0,0,.063-.343" transform="translate(-86.325 -79.972)" fill="#fff"/>
    <path id="Path_5789" data-name="Path 5789" d="M166.946,215.606c.19-3.4.988-15.541.879-24.134a66.743,66.743,0,0,0-1.047-10.13c.019-4.332,1.3-7.756.685-13.6a33.029,33.029,0,0,1,.8-13.235,1.2,1.2,0,0,1,.219.536c.532,3.349.621,19.767-.355,26.306-.168,1.126.774,6.681.687,8.727-.371,8.715-1.092,25.176-1.092,25.188a2.732,2.732,0,0,1-.837.687A1.422,1.422,0,0,0,166.946,215.606Z" transform="translate(-86.325 -79.972)" fill="none" stroke="#231f20" stroke-miterlimit="10" stroke-width="0.527"/>
    <path id="Path_5790" data-name="Path 5790" d="M185.894,161.6c.744-3.548,1.328-6.2,1.328-6.2s-11.348-4.466-11.88-1.116a86.957,86.957,0,0,0-.389,9.367c3.879-.066,7.289-1.405,10.94-2.051" transform="translate(-90.557 -79.211)" fill="#fff"/>
    <path id="Path_5791" data-name="Path 5791" d="M185.894,161.6c.744-3.548,1.328-6.2,1.328-6.2s-11.348-4.466-11.88-1.116a86.957,86.957,0,0,0-.389,9.367C178.833,163.581,182.243,162.241,185.894,161.6Z" transform="translate(-90.557 -79.211)" fill="none" stroke="#231f20" stroke-miterlimit="10" stroke-width="0.527"/>
    <path id="Path_5792" data-name="Path 5792" d="M146.773,279.654s-7.659,3.306-10.806,5.658c-2.915,2.179,2.237,3.53,8.15,1.507a28.347,28.347,0,0,1,3.466-.949,32.5,32.5,0,0,0,4.359-1.1c1.712-.735-.615-4.729-.615-4.729s-1.683,1.493-4.554-.384" transform="translate(-69.942 -144.749)" fill="#fbe551"/>
    <path id="Path_5793" data-name="Path 5793" d="M148.043,285.194c-2.413.508-4.852,1.053-7.269,1.523a4.851,4.851,0,0,1-3.692-.627c-.408.259-.79.513-1.114.755-2.915,2.179,2.237,3.53,8.15,1.507a28.231,28.231,0,0,1,3.466-.949,32.573,32.573,0,0,0,4.359-1.1c1.148-.493.48-2.447-.084-3.684a6.07,6.07,0,0,1-3.815,2.577" transform="translate(-69.943 -146.283)"/>
    <path id="Path_5794" data-name="Path 5794" d="M180.577,279.654s7.659,3.306,10.806,5.658c2.915,2.179-2.237,3.53-8.15,1.507a28.347,28.347,0,0,0-3.466-.949,32.5,32.5,0,0,1-4.359-1.1c-1.712-.735.615-4.729.615-4.729s1.683,1.493,4.554-.384" transform="translate(-90.466 -144.749)" fill="#fbe551"/>
    <path id="Path_5795" data-name="Path 5795" d="M191.382,287.127c-.288-.215-.623-.439-.976-.667-.83,1.634-5.166.517-6.906.049-5.56-1.495-6.065-1.525-8.125-3.349-.531,1.234-1.039,2.962.032,3.422a32.575,32.575,0,0,0,4.359,1.1,28.19,28.19,0,0,1,3.466.949c5.912,2.023,11.065.672,8.15-1.507" transform="translate(-90.466 -146.564)"/>
    <path id="Path_5796" data-name="Path 5796" d="M171.124,113.381l-8.57.538,0,.007,0-.007-8.57-.538s.532,3.289-1.2,5.383c0,0,5.511,3.409,9.767,3.349h.007c4.256.06,9.767-3.349,9.767-3.349-1.729-2.093-1.2-5.383-1.2-5.383" transform="translate(-79.079 -58.686)" fill="#fff"/>
    <path id="Path_5797" data-name="Path 5797" d="M171.124,113.381l-8.57.538,0,.007,0-.007-8.57-.538s.532,3.289-1.2,5.383c0,0,5.511,3.409,9.767,3.349h.007c4.256.06,9.767-3.349,9.767-3.349C170.592,116.67,171.124,113.381,171.124,113.381Z" transform="translate(-79.079 -58.686)" fill="none" stroke="#231f20" stroke-miterlimit="10" stroke-width="0.527"/>
    <path id="Path_5798" data-name="Path 5798" d="M168.331,124.007a25.512,25.512,0,0,0-5.826-6.933,7.248,7.248,0,0,1-1.369.931,12.228,12.228,0,0,1-11.575,0,7.228,7.228,0,0,1-1.369-.931,25.519,25.519,0,0,0-5.826,6.933c-2.162,4.023-3.669,13.834-3.484,16.09,0,0,9.392,2.6,16.055,1.7,0,0-.1-6.661.411-6.959.514.3.412,6.959.412,6.959,6.662.894,16.054-1.7,16.054-1.7.185-2.256-1.322-12.067-3.484-16.09" transform="translate(-71.878 -60.598)"/>
    <path id="Path_5799" data-name="Path 5799" d="M170.091,144.119a4.261,4.261,0,0,0,1.195-.72,7.465,7.465,0,0,0,1.472-1.749,12.584,12.584,0,0,1-3.919.718c-2.208-.017-3.918-.218-5.327-1.276a6.509,6.509,0,0,0,2.658,2.672c-.259,1.532-1.254,3.987-1.389,5.333a34.581,34.581,0,0,1-.852,5.312,24.563,24.563,0,0,0,3.764-.178s-.1-6.515.4-6.938h.014c.5.423.4,6.938.4,6.938a24.56,24.56,0,0,0,3.764.178,34.581,34.581,0,0,1-.852-5.312c-.124-1.245-.988-3.442-1.323-4.978" transform="translate(-84.635 -73.029)"/>
    <path id="Path_5800" data-name="Path 5800" d="M168.331,124.007a25.512,25.512,0,0,0-5.826-6.933,7.248,7.248,0,0,1-1.369.931,12.3,12.3,0,0,1-11.575,0,7.228,7.228,0,0,1-1.369-.931,25.519,25.519,0,0,0-5.826,6.933c-2.162,4.023-3.669,13.834-3.484,16.09,0,0,1.573.434,3.886.887a22.46,22.46,0,0,1-.02-10.159c.964-4.107,2.572-5.873,7-7.014a12.106,12.106,0,0,0,1.213-.386,12.588,12.588,0,0,1,8.768,0,12.1,12.1,0,0,0,1.212.386c4.432,1.141,6.041,2.907,7,7.014a22.46,22.46,0,0,1-.02,10.159c2.314-.452,3.886-.887,3.886-.887.185-2.256-1.322-12.067-3.484-16.09" transform="translate(-71.878 -60.598)"/>
    <path id="Path_5801" data-name="Path 5801" d="M167.079,37.134l-3.214.259-3.214-.259s3.361,7.167-4.491,7.355c-.189,0-.638.215-.84.211,0,0,.565,9.479,8.544,9.479s8.617-9.562,8.617-9.562c-.18,0-.683-.124-.853-.127-7.928-.153-4.55-7.356-4.55-7.356" transform="translate(-80.394 -19.221)" fill="#fff"/>
    <path id="Path_5802" data-name="Path 5802" d="M167.079,37.134l-3.214.259-3.214-.259s3.361,7.167-4.491,7.355c-.189,0-.638.215-.84.211,0,0,.565,9.479,8.544,9.479s8.617-9.562,8.617-9.562c-.18,0-.683-.124-.853-.127C163.7,44.337,167.079,37.134,167.079,37.134Z" transform="translate(-80.394 -19.221)" fill="none" stroke="#231f20" stroke-miterlimit="10" stroke-width="0.527"/>
    <path id="Path_5803" data-name="Path 5803" d="M165.548,43.173c1.081.6,2.707,1.078,5.831.5.16-.03,1.294-.36,1.448-.436-2.325-2.1-.454-6.1-.454-6.1l-3.214.259-3.214-.259s1.833,3.923-.4,6.039" transform="translate(-85.688 -19.221)" fill="#fff"/>
    <path id="Path_5804" data-name="Path 5804" d="M165.548,43.173c1.081.6,2.707,1.078,5.831.5.16-.03,1.294-.36,1.448-.436-2.325-2.1-.454-6.1-.454-6.1l-3.214.259-3.214-.259S167.778,41.057,165.548,43.173Z" transform="translate(-85.688 -19.221)" fill="none" stroke="#231f20" stroke-miterlimit="10" stroke-width="0.527"/>
    <path id="Path_5805" data-name="Path 5805" d="M137.471,52.384s-2.314.382-4.2.659c-1.411.208-2.553.992-5.064,4.6s-7.975,14.4-8.8,17.3,5.54,5.186,10.69,10.363a21.716,21.716,0,0,0,2.234,2.247c.941.745,1.826.12,2.6-.123a2.473,2.473,0,0,1,1.862.092c.5.48,1.281,1.191,1.544,1.191.78,0-.014-1.1-.655-1.728a3.512,3.512,0,0,0-1.521-.783,6.306,6.306,0,0,1,1.791.667c.806.639,1.126,1.768,1.626,1.684.646-.109-.025-2.126-.735-2.6a8.156,8.156,0,0,0-2-.845,5.07,5.07,0,0,1,2.206.8c.617.59.952,2.025,1.723,1.92.564-.077.1-2.028-.833-2.775a10.081,10.081,0,0,0-1.815-1.067,8.949,8.949,0,0,1,1.811.937c.508.426,1.367,2.121,1.862,1.8.361-.235.163-1.615-.974-2.551-1.507-1.241-2.1-1.537-2.836-1.46-1.075.112-3.6,1.62-4.144,1.434A89.873,89.873,0,0,1,125.5,76c-.39-.694,5.621-10.1,7.107-12.748.237-.423.133-.437.364-.012a9.581,9.581,0,0,1,.72,3.18s6.385-10.055,3.777-14.032" transform="translate(-61.77 -27.114)" fill="#fff"/>
    <path id="Path_5806" data-name="Path 5806" d="M137.471,52.384s-2.314.382-4.2.659c-1.411.208-2.553.992-5.064,4.6s-7.975,14.4-8.8,17.3,5.54,5.186,10.69,10.363a21.716,21.716,0,0,0,2.234,2.247c.941.745,1.826.12,2.6-.123a2.473,2.473,0,0,1,1.862.092c.5.48,1.281,1.191,1.544,1.191.78,0-.014-1.1-.655-1.728a3.512,3.512,0,0,0-1.521-.783,6.306,6.306,0,0,1,1.791.667c.806.639,1.126,1.768,1.626,1.684.646-.109-.025-2.126-.735-2.6a8.156,8.156,0,0,0-2-.845,5.07,5.07,0,0,1,2.206.8c.617.59.952,2.025,1.723,1.92.564-.077.1-2.028-.833-2.775a10.081,10.081,0,0,0-1.815-1.067,8.949,8.949,0,0,1,1.811.937c.508.426,1.367,2.121,1.862,1.8.361-.235.163-1.615-.974-2.551-1.507-1.241-2.1-1.537-2.836-1.46-1.075.112-3.6,1.62-4.144,1.434A89.873,89.873,0,0,1,125.5,76c-.39-.694,5.621-10.1,7.107-12.748.237-.423.133-.437.364-.012a9.581,9.581,0,0,1,.72,3.18S140.079,56.362,137.471,52.384Z" transform="translate(-61.77 -27.114)" fill="none" stroke="#231f20" stroke-miterlimit="10" stroke-width="0.527"/>
    <path id="Path_5807" data-name="Path 5807" d="M184.435,52.384a31.863,31.863,0,0,1,4.085.659c1.376.347,2.553.992,5.064,4.6s7.975,14.4,8.8,17.3-5.54,5.186-10.69,10.363a21.745,21.745,0,0,1-2.233,2.247c-.942.745-1.827.12-2.6-.123a2.474,2.474,0,0,0-1.863.092c-.5.48-1.28,1.191-1.543,1.191-.78,0,.014-1.1.655-1.728a3.512,3.512,0,0,1,1.521-.783,6.313,6.313,0,0,0-1.792.667c-.805.639-1.125,1.768-1.625,1.684-.646-.109.024-2.126.735-2.6a8.156,8.156,0,0,1,2-.845,5.069,5.069,0,0,0-2.206.8c-.617.59-.952,2.025-1.723,1.92-.564-.077-.1-2.028.833-2.775a10.1,10.1,0,0,1,1.815-1.067,8.949,8.949,0,0,0-1.811.937c-.508.426-1.367,2.121-1.862,1.8-.361-.235-.164-1.615.974-2.551,1.507-1.241,2.1-1.537,2.836-1.46,1.075.112,3.6,1.62,4.144,1.434A89.821,89.821,0,0,0,196.289,76c.39-.694-5.621-10.1-7.107-12.748-.237-.423-.133-.437-.364-.012a9.6,9.6,0,0,0-.72,3.18s-6.271-10.055-3.663-14.032" transform="translate(-93.08 -27.114)" fill="#fff"/>
    <path id="Path_5808" data-name="Path 5808" d="M184.435,52.384a31.863,31.863,0,0,1,4.085.659c1.376.347,2.553.992,5.064,4.6s7.975,14.4,8.8,17.3-5.54,5.186-10.69,10.363a21.745,21.745,0,0,1-2.233,2.247c-.942.745-1.827.12-2.6-.123a2.474,2.474,0,0,0-1.863.092c-.5.48-1.28,1.191-1.543,1.191-.78,0,.014-1.1.655-1.728a3.512,3.512,0,0,1,1.521-.783,6.313,6.313,0,0,0-1.792.667c-.805.639-1.125,1.768-1.625,1.684-.646-.109.024-2.126.735-2.6a8.156,8.156,0,0,1,2-.845,5.069,5.069,0,0,0-2.206.8c-.617.59-.952,2.025-1.723,1.92-.564-.077-.1-2.028.833-2.775a10.1,10.1,0,0,1,1.815-1.067,8.949,8.949,0,0,0-1.811.937c-.508.426-1.367,2.121-1.862,1.8-.361-.235-.164-1.615.974-2.551,1.507-1.241,2.1-1.537,2.836-1.46,1.075.112,3.6,1.62,4.144,1.434A89.821,89.821,0,0,0,196.289,76c.39-.694-5.621-10.1-7.107-12.748-.237-.423-.133-.437-.364-.012a9.6,9.6,0,0,0-.72,3.18S181.827,56.362,184.435,52.384Z" transform="translate(-93.08 -27.114)" fill="none" stroke="#231f20" stroke-miterlimit="10" stroke-width="0.527"/>
    <path id="Path_5809" data-name="Path 5809" d="M167.907,51.9l-2.58-.439c.082,7.305-5.047,7.023-5.047,7.023s-5.129.283-5.047-7.023l-2.58.439s-.759,11.632-4.259,13.195c0,0,2.783,12.138,3.313,16.235a48.874,48.874,0,0,0,17.147,0c.53-4.1,3.312-16.235,3.312-16.235-3.5-1.562-4.259-13.195-4.259-13.195" transform="translate(-76.809 -26.637)" fill="#fbe551"/>
    <path id="Path_5810" data-name="Path 5810" d="M148.511,79.594c-.04.02-.076.046-.116.064l.021.094c.032-.053.063-.1.095-.158" transform="translate(-76.81 -41.198)" fill="#addef1"/>
    <path id="Path_5811" data-name="Path 5811" d="M197.527,79.752l.022-.095c-.04-.018-.077-.043-.116-.064.031.055.063.106.095.158" transform="translate(-102.191 -41.198)" fill="#addef1"/>
    <path id="Path_5812" data-name="Path 5812" d="M166.81,59.413s5.772.313,5.8-7.822l-.753-.128c.082,7.305-5.047,7.023-5.047,7.023s-5.129.283-5.047-7.023l-.753.128c.027,8.135,5.8,7.822,5.8,7.822" transform="translate(-83.34 -26.637)" fill="#fbe551"/>
    <path id="Path_5813" data-name="Path 5813" d="M169.983,73.895s.532,4.227-1.695,5.073c-1.041.4-4.676.139-6.194-.138a10.381,10.381,0,0,0-3.739,0c-1.485.273-5.056.517-6.084.126-2.223-.844-1.7-5.064-1.7-5.064a5.109,5.109,0,0,1-2.179,2.813s2.783,12.138,3.312,16.235c0,0,.931.165,2.357.342-.595-2.361-.76-4.9-1.136-7.169-.253-1.526-.451-4.039,1.676-4.644a81.816,81.816,0,0,1,11.354.009c2.127.6,1.929,3.117,1.676,4.644-.376,2.265-.541,4.808-1.136,7.168,1.426-.176,2.357-.341,2.357-.341.529-4.1,3.312-16.235,3.312-16.235a5.12,5.12,0,0,1-2.183-2.822" transform="translate(-76.809 -38.248)" fill="#fbe551"/>
    <path id="Path_5814" data-name="Path 5814" d="M172.6,12.649c-.107-.577-6.574-2.981-6.574-2.981s-6.467,2.4-6.574,2.981a56.683,56.683,0,0,0,.571,8.127c.327,1.341,2.617,5.324,6,5.324s5.676-3.983,6-5.324a56.682,56.682,0,0,0,.571-8.127" transform="translate(-82.524 -5.004)" fill="#fff"/>
    <path id="Path_5815" data-name="Path 5815" d="M172.6,12.649c-.107-.577-6.574-2.981-6.574-2.981s-6.467,2.4-6.574,2.981a56.683,56.683,0,0,0,.571,8.127c.327,1.341,2.617,5.324,6,5.324s5.676-3.983,6-5.324A56.682,56.682,0,0,0,172.6,12.649Z" transform="translate(-82.524 -5.004)" fill="none" stroke="#231f20" stroke-miterlimit="10" stroke-width="0.527"/>
    <path id="Path_5816" data-name="Path 5816" d="M175.6,5.847s.054,6.408,6.642,7.083c0,0,2.124-6.665-6.642-7.083" transform="translate(-90.889 -3.026)"/>
    <path id="Path_5820" data-name="Path 5820" d="M180.238,26.45a.282.282,0,1,1-.282-.3.29.29,0,0,1,.282.3" transform="translate(-93 -13.536)" fill="#fff"/>
    <path id="Path_5822" data-name="Path 5822" d="M172.193,35.626a443.674,443.674,0,0,0-2.925,0c-.281.181-1.076-.133-1.076-.133a5.73,5.73,0,0,0,.821.919,2.525,2.525,0,0,0,3.437,0,5.728,5.728,0,0,0,.821-.919s-.795.314-1.076.133" transform="translate(-87.057 -18.317)"/>
    <path id="Path_5827" data-name="Path 5827" d="M157.691,4.4c-2.486,1.72-4.358,4.061-2.949,7.3,1.677-.438,2.7-1.251,5-3.838a9.621,9.621,0,0,1-1.5,2.915c6.818-1.671,8.7-5.851,9.094-6.978-3.9-1.2-7.093-1.158-9.641.6" transform="translate(-79.844 -1.539)"/>
  </g>
</svg>
