<svg id="Group_2622" data-name="Group 2622" xmlns="http://www.w3.org/2000/svg" xmlns:xlink="http://www.w3.org/1999/xlink" width="156.27" height="140.824" viewBox="0 0 156.27 140.824">
  <defs>
    <clipPath id="clip-path">
      <rect id="Rectangle_752" data-name="Rectangle 752" width="156.269" height="140.824" fill="none"/>
    </clipPath>
    <clipPath id="clip-path-5">
      <rect id="Rectangle_745" data-name="Rectangle 745" width="18.706" height="32.809" fill="none"/>
    </clipPath>
    <clipPath id="clip-path-6">
      <rect id="Rectangle_746" data-name="Rectangle 746" width="34.459" height="21.437" fill="none"/>
    </clipPath>
    <clipPath id="clip-path-7">
      <rect id="Rectangle_747" data-name="Rectangle 747" width="39.999" height="25.015" fill="none"/>
    </clipPath>
    <clipPath id="clip-path-10">
      <rect id="Rectangle_750" data-name="Rectangle 750" width="11.187" height="10.118" fill="none"/>
    </clipPath>
  </defs>
  <g id="Group_1020" data-name="Group 1020" clip-path="url(#clip-path)">
    <g id="Group_1012" data-name="Group 1012">
      <g id="Group_1011" data-name="Group 1011" clip-path="url(#clip-path)">
        <path id="Path_7280" data-name="Path 7280" d="M106.876,130.594c-2.855-.6-5.607,2.463-10.676,4.291-9.444,3.406-13.915,6.951-18.622,11.36s-6.195,3.415-7.8,6.307,1.778,4.579,2.989,9.064c2.041,7.559,5.031,12.814,8.368,16.236,5.891,6.041,4.5,9.647,7.445,9.935,3.142.306,3.21-2.411,8.35-3.788,12.161-3.257,17.391-6.77,23.654-14.158,2.446-2.886,5.1-2.331,5.938-5.283.419-1.477-1.681-2.525-3.14-7.463-2.424-8.206-6.857-16.139-11.546-20.521-2.047-1.913-2.053-5.367-4.957-5.981" transform="translate(-45.676 -85.958)" fill="#ffe864"/>
        <path id="Path_7281" data-name="Path 7281" d="M106.876,130.594c-2.855-.6-5.607,2.463-10.676,4.291-9.444,3.406-13.915,6.951-18.622,11.36s-6.195,3.415-7.8,6.307,1.778,4.579,2.989,9.064c2.041,7.559,5.031,12.814,8.368,16.236,5.891,6.041,4.5,9.647,7.445,9.935,3.142.306,3.21-2.411,8.35-3.788,12.161-3.257,17.391-6.77,23.654-14.158,2.446-2.886,5.1-2.331,5.938-5.283.419-1.477-1.681-2.525-3.14-7.463-2.424-8.206-6.857-16.139-11.546-20.521-2.047-1.913-2.053-5.367-4.957-5.981" transform="translate(-45.676 -85.958)"/>
        <path id="Path_7282" data-name="Path 7282" d="M106.876,130.594c-2.855-.6-5.607,2.463-10.676,4.291-9.444,3.406-13.915,6.951-18.622,11.36s-6.195,3.415-7.8,6.307,1.778,4.579,2.989,9.064c2.041,7.559,5.031,12.814,8.368,16.236,5.891,6.041,4.5,9.647,7.445,9.935,3.142.306,3.21-2.411,8.35-3.788,12.161-3.257,17.391-6.77,23.654-14.158,2.446-2.886,5.1-2.331,5.938-5.283.419-1.477-1.681-2.525-3.14-7.463-2.424-8.206-6.857-16.139-11.546-20.521C109.786,134.662,109.781,131.207,106.876,130.594Z" transform="translate(-45.676 -85.958)" fill="none" stroke="#fff" stroke-miterlimit="10" stroke-width="0.5"/>
        <g id="Group_1004" data-name="Group 1004" transform="translate(25.81 67.634)" opacity="0.2">
          <g id="Group_1003" data-name="Group 1003">
            <g id="Group_1002" data-name="Group 1002" clip-path="url(#clip-path-5)">
              <path id="Path_7283" data-name="Path 7283" d="M76.513,202.466c2.084,3.763,1.376,7.212,5.743,14.188,4.194,6.7,7.529,8.816,8.686,11.745.96,2.431,2.5,3.687,3.187,1.041s-.584-10.572-4.769-17.691c-4.82-8.2-8.108-11.494-10.425-12.874-3.633-2.162-4.06.632-2.422,3.59" transform="translate(-75.6 -198.109)"/>
            </g>
          </g>
        </g>
        <g id="Group_1007" data-name="Group 1007" transform="translate(46.123 79.287)" opacity="0.2">
          <g id="Group_1006" data-name="Group 1006">
            <g id="Group_1005" data-name="Group 1005" clip-path="url(#clip-path-6)">
              <path id="Path_7284" data-name="Path 7284" d="M140.747,248.05c-3.341.76-3.791,3.6-5.649,5.627a12.816,12.816,0,0,1,5.131-2.683,55.126,55.126,0,0,0,13.055-4.954c-4.358,1.72-10.112,1.459-12.537,2.01m21.771-12.586c-2.2,1.62-2.356,4.91-5.1,7.8a45.431,45.431,0,0,0,6.465-6.43c2.233-2.635,4.636-2.409,5.675-4.6-2.009,2.043-4.4,1.274-7.039,3.224" transform="translate(-135.098 -232.239)"/>
            </g>
          </g>
        </g>
        <g id="Group_1010" data-name="Group 1010" transform="translate(35.166 51.144)" opacity="0.3">
          <g id="Group_1009" data-name="Group 1009">
            <g id="Group_1008" data-name="Group 1008" clip-path="url(#clip-path-7)">
              <path id="Path_7285" data-name="Path 7285" d="M124.265,149.807A33.584,33.584,0,0,0,104.7,157.9a5.493,5.493,0,0,0-1.692,3.848,5.376,5.376,0,0,0,2.3,4.652,9.878,9.878,0,0,0,5.587,1.317c3.606-.068,5.8-.768,10.408-.337a10.607,10.607,0,0,1,4.711,1.757c2.132,1.509,3.67,3.119,5.54,4.4,2.576,1.764,7.507,1.626,9.378.122,2-1.607,2.7-4.27,1.457-7.843-2.759-7.935-8.636-16.015-18.12-16.008" transform="translate(-103.005 -149.807)" fill="#ffe864"/>
            </g>
          </g>
        </g>
      </g>
    </g>
    <g id="Group_1014" data-name="Group 1014">
      <g id="Group_1013" data-name="Group 1013" clip-path="url(#clip-path)">
        <path id="Path_7286" data-name="Path 7286" d="M282.95,333.272c-2.623,1.583-6.036-.19-7.608-2.466a11.489,11.489,0,0,1-2.216-7.538c.03-3.879,1.63-5.654,1.751-7.538.215-3.355.23-5.875,2.8-6.236s5.278,23.777,5.278,23.777" transform="translate(-179.88 -203.831)" fill="#333"/>
        <path id="Path_7287" data-name="Path 7287" d="M254.347,202.466c8.889-1.607,27.294-4,32.255-2.569s7.193,4.7,6.55,8.926-2.737,8.133-7.784,14.269-14.443,17.561-15.917,20.555-1.806,8.35-1.349,12.335-.978,4.825-3.28,4.872-7.193-3.133-7.791-8.607,1.379-5.238,1.817-9.353-.381-4.418,1.43-5.867,3.9-.811,5.845-4.211S270.2,221.9,270.2,221.9l-18.773,2.5s-5.932-2.536-4.488-7.8,7.406-14.13,7.406-14.13" transform="translate(-162.486 -131.364)" fill="#fff"/>
        <path id="Path_7288" data-name="Path 7288" d="M254.347,202.466c8.889-1.607,27.294-4,32.255-2.569s7.193,4.7,6.55,8.926-2.737,8.133-7.784,14.269-14.443,17.561-15.917,20.555-1.806,8.35-1.349,12.335-.978,4.825-3.28,4.872-7.193-3.133-7.791-8.607,1.379-5.238,1.817-9.353-.381-4.418,1.43-5.867,3.9-.811,5.845-4.211S270.2,221.9,270.2,221.9l-18.773,2.5s-5.932-2.536-4.488-7.8S254.347,202.466,254.347,202.466Z" transform="translate(-162.486 -131.364)" fill="none" stroke="#000" stroke-miterlimit="10" stroke-width="0.5"/>
        <path id="Path_7289" data-name="Path 7289" d="M276.053,342.5c1.677-1.319,10.466,1.156,11.1,4.137l-.092-4.839a9.544,9.544,0,0,0-10.4-3.641,4.192,4.192,0,0,0-.609,4.343" transform="translate(-181.586 -222.487)" fill="#333"/>
        <path id="Path_7290" data-name="Path 7290" d="M256.435,221.011c1.278,2.961.411,8.145-.9,10.555a54.025,54.025,0,0,0,8.856,3.311c3.49.762,5.218-.062,7-2.835s3.208-6.893,9.219-8.564c-5.128,2.749-6.829,8.514-8.112,12.615l-18.773,2.5s-4.855-.5-3.175-7.557,5.892-10.021,5.892-10.021" transform="translate(-164.775 -145.558)" fill="#eaeaea"/>
        <path id="Path_7291" data-name="Path 7291" d="M286.48,288.353c-1.528-.158-2.782-.3-3.807-.42.071-2.222-.159-2.654,1.288-3.811,1.811-1.448,3.9-.811,5.845-4.211a54.289,54.289,0,0,0,3.485-8.946,8.991,8.991,0,0,1,5.537,2.933,35.846,35.846,0,0,1,3.126,4.988c-4.032,5.012-7.915,10.019-8.819,11.854a17.137,17.137,0,0,0-1.37,5.567,17.917,17.917,0,0,1-5.284-7.955" transform="translate(-186.168 -178.457)" fill="#eaeaea"/>
        <path id="Path_7292" data-name="Path 7292" d="M385.466,390.1c.723,1.051.677,3.032-1.737,4.711a16.193,16.193,0,0,1-10.359,2.413c-3.386-.551-4.92-2.071-7.018-3.355-1.971-1.206-2.672-.882-4.113-1.461s-1.358-2.9-1.358-2.9Z" transform="translate(-237.676 -256.531)" fill="#333"/>
        <path id="Path_7293" data-name="Path 7293" d="M166.348,217.228c0,3.969,2.032,17.611,16.971,21.223a264.284,264.284,0,0,0,27.078,5.058,28.852,28.852,0,0,0,7.218,8.342c5.295,4.411,10.73,8.282,12.51,10.3,2.316,2.624,1.442,4.167,2.523,5.74a3.668,3.668,0,0,0,2.128,1.71,15.277,15.277,0,0,1,4.744,1.715c4.372,2.825,8.085,3.21,12.183,1.96,1.818-.554,5.78-3.086,5.667-4.646-.193-2.644-1.907-2.216-4.707-2.788a40.5,40.5,0,0,1-9.263-3.233c-2.98-1.476-6.142-5.865-8.942-10.188s-7.733-12.552-10.505-16.747-3.813-5.192-8.584-7.069c-5.785-2.276-18.529-7.18-18.529-7.18s2.256-6.777,4.579-15.587c-16.657-1.881-34.342-3.811-35.07,11.394" transform="translate(-109.557 -134.732)" fill="#fff"/>
        <path id="Path_7294" data-name="Path 7294" d="M166.348,217.228c0,3.969,2.032,17.611,16.971,21.223a264.284,264.284,0,0,0,27.078,5.058,28.852,28.852,0,0,0,7.218,8.342c5.295,4.411,10.73,8.282,12.51,10.3,2.316,2.624,1.442,4.167,2.523,5.74a3.668,3.668,0,0,0,2.128,1.71,15.277,15.277,0,0,1,4.744,1.715c4.372,2.825,8.085,3.21,12.183,1.96,1.818-.554,5.78-3.086,5.667-4.646-.193-2.644-1.907-2.216-4.707-2.788a40.5,40.5,0,0,1-9.263-3.233c-2.98-1.476-6.142-5.865-8.942-10.188s-7.733-12.552-10.505-16.747-3.813-5.192-8.584-7.069c-5.785-2.276-18.529-7.18-18.529-7.18s2.256-6.777,4.579-15.587C184.761,203.953,167.075,202.023,166.348,217.228Z" transform="translate(-109.557 -134.732)" fill="none" stroke="#000" stroke-miterlimit="10" stroke-width="0.5"/>
        <path id="Path_7295" data-name="Path 7295" d="M393.754,391c-.36-2.119,1.86-8.679,7-8.542a11.43,11.43,0,0,0-4.163-1.029c-4.28.677-6.45,4.891-6.572,8.366.726.805,3.73,1.2,3.73,1.2" transform="translate(-256.87 -251.207)" fill="#333"/>
        <path id="Path_7296" data-name="Path 7296" d="M200.69,205.373l8.761-1.5s-3.87,2.51-3.513,9.518a29.794,29.794,0,0,0,3.513,12.358l-.589.137-5.844-2.262s-2.492.758-5.92,5.078-3.4,11.99-3.4,11.99-11.78-2-16.666-4.4-12.7-6.373-11.7-22.263Z" transform="translate(-108.83 -134.271)" fill="#ffe864"/>
        <path id="Path_7297" data-name="Path 7297" d="M267.991,236.007c-2.4-.63-8.856-3.311-8.856-3.311s2.388-3.685,1.487-9.97c-.383,4.829-2.118,9.009-4.962,10.651l12.75,4.925.589-.137Z" transform="translate(-168.378 -146.687)" fill="#d8b60f"/>
        <path id="Path_7298" data-name="Path 7298" d="M169.127,85.789l-.189.074a11.617,11.617,0,0,1-6.611.232c-.278-.062-.562-.121-.834-.206-.18-.056-.327-.168-.5-.23-.417-.149-.858-.2-1.274-.371a6.765,6.765,0,0,1-2.175-1.426,6.645,6.645,0,0,1-2.072-4.637c0-.518.12-1.132.6-1.333a3.3,3.3,0,0,0-2.409.577,3.328,3.328,0,0,1,.5-1.92,1.892,1.892,0,0,1,1.708-.868A5.708,5.708,0,0,1,155.919,71a3.253,3.253,0,0,1,4.09-1.532,7.372,7.372,0,0,1,.465-3.434,4.759,4.759,0,0,1,4.915-2.283A9.9,9.9,0,0,1,170.44,66.4a12.4,12.4,0,0,1,3.144,3.825,17.993,17.993,0,0,1,1.208,3.224l.032.134a11.125,11.125,0,0,1-.127,5.467,11.392,11.392,0,0,1-2.673,4.805,8.119,8.119,0,0,1-2.9,1.931" transform="translate(-101.199 -41.953)"/>
        <path id="Path_7299" data-name="Path 7299" d="M248.924,133.251c.113-.2-.708-4.585-.934-6.014-.377-2.383-.671-3.656-.671-3.656l-6.474-16.288-1.169-5.749s3.6-.24,5.448.545c2.386,1.015,3.2,2.487,5.076,6.326a168.036,168.036,0,0,1,6.161,15.809c.421,1.8.283,2.9-.263,5.687-.422,2.155-.829,4.275-1.439,6.626Z" transform="translate(-157.851 -66.855)" fill="#fff"/>
        <path id="Path_7300" data-name="Path 7300" d="M248.924,133.251c.113-.2-.708-4.585-.934-6.014-.377-2.383-.671-3.656-.671-3.656l-6.474-16.288-1.169-5.749s3.6-.24,5.448.545c2.386,1.015,3.2,2.487,5.076,6.326a168.036,168.036,0,0,1,6.161,15.809c.421,1.8.283,2.9-.263,5.687-.422,2.155-.829,4.275-1.439,6.626Z" transform="translate(-157.851 -66.855)" fill="none" stroke="#000" stroke-miterlimit="10" stroke-width="0.5"/>
        <path id="Path_7301" data-name="Path 7301" d="M262.651,167.05c1.168-1.837,4.748-2.413,7.211-1.531-3.159-2.52-6.881-.583-7.544-.217.074.355.191.942.333,1.749" transform="translate(-172.763 -108.172)" fill="#eaeaea"/>
        <path id="Path_7302" data-name="Path 7302" d="M164.861,118.516c0-6.4,2.364-10.777,3.648-14.36l7.018-1.462s5.579-.758,8.941-.92,5.329-.162,5.329-.162c2.269,2.409,9.2,8.665,11,13.395a9.313,9.313,0,0,1-2.421,10.383c-.116,3.307-.055,6.16-.055,6.16a20.432,20.432,0,0,1,1.984,6.33c-.554,3.76-13.745,16.393-36.368,10.3a60.574,60.574,0,0,1,1.713-15.234c.44-1.958-.792-8.031-.792-14.427" transform="translate(-107.971 -66.921)" fill="#ffe864"/>
        <path id="Path_7303" data-name="Path 7303" d="M210.54,169.914a9.493,9.493,0,0,1-8.334,2.741,7.6,7.6,0,0,1-6.767-5.422,6.85,6.85,0,0,0,6.511,7.012,8.22,8.22,0,0,0,8.59-4.331" transform="translate(-128.715 -110.139)" fill="#d8b60f"/>
        <path id="Path_7304" data-name="Path 7304" d="M186.906,14.595c-3.234.844-4.986,4.629-4.212,9.692s5.245,10.836,5.245,10.836l20.019-9.56a8.21,8.21,0,0,0,2.009-7.452c-.985-4.64-4.57-7.945-9.984-8.718s-11.46.07-13.077,5.2" transform="translate(-120.202 -6.022)"/>
        <path id="Path_7305" data-name="Path 7305" d="M205.149,29.638c1.737,1.048,3.114,5.887,2.373,14.068-.428,4.726-1.66,6.9-3.782,8.011a8.924,8.924,0,0,1-5.553.589l-.064,3.141s8.212,8.568,1.028,9.08C191.65,65.06,187.505,56,187.505,56l.31-11.513a2.877,2.877,0,0,1-4.405-.406c-1.9-2.43-1.471-5.328.221-6.394,1.752-1.1,3.756-.052,4.528,1.929,1.821.76,4.24-1.127,4.13-8.173,2.237-1.861,5.181.664,7.943.334,2.081-.249,2.773-3.285,4.918-2.135" transform="translate(-119.973 -19.349)" fill="#fff"/>
        <path id="Path_7306" data-name="Path 7306" d="M205.149,29.638c1.737,1.048,3.114,5.887,2.373,14.068-.428,4.726-1.66,6.9-3.782,8.011a8.924,8.924,0,0,1-5.553.589l-.064,3.141s8.212,8.568,1.028,9.08C191.65,65.06,187.505,56,187.505,56l.31-11.513a2.877,2.877,0,0,1-4.405-.406c-1.9-2.43-1.471-5.328.221-6.394,1.752-1.1,3.756-.052,4.528,1.929,1.821.76,4.24-1.127,4.13-8.173,2.237-1.861,5.181.664,7.943.334C202.312,31.524,203,28.489,205.149,29.638Z" transform="translate(-119.973 -19.349)" fill="none" stroke="#000" stroke-miterlimit="10" stroke-width="0.5"/>
        <path id="Path_7313" data-name="Path 7313" d="M227.352,44.5a.765.765,0,0,0-.439-.275.861.861,0,0,0-.271-.019.736.736,0,0,0-.13.024c-.045.012-.069.022-.081.07a.086.086,0,0,0,.033.086.166.166,0,0,0,.094.023c.046,0,.093.007.139.013a.929.929,0,0,1,.217.044.448.448,0,0,1,.08.039l.035.024c-.02-.016.018.017.018.017l.03.027c.009.009.008.008,0,0l.015.018a.266.266,0,0,1,.039.067c-.007-.018,0,.012,0,.018s.006.024.009.036,0,.028,0,.031,0,.033,0,.05v.017c0-.008,0-.007,0,0s0,.028-.007.042c-.006.033-.014.066-.023.1-.018.068-.029.1-.052.168a.22.22,0,0,0-.013.056c0,.015.005.039,0,.049,0,.041-.018.077-.019.121s.049.136.111.111a.489.489,0,0,0,.117-.078.452.452,0,0,0,.093-.077c.016-.021.033-.044.048-.066a.5.5,0,0,0,.048-.116.52.52,0,0,0,.029-.111.68.68,0,0,0-.129-.5" transform="translate(-149.125 -29.112)" fill="#fff"/>
        <path id="Path_7315" data-name="Path 7315" d="M228.046,76.078c-.557.354-.823-.313-1.766-.707-.923-.386-1.637-.005-1.674-.685-.03-.566.854-1.554,2.445-1.009,1.361.466,1.491,2.085.995,2.4" transform="translate(-147.925 -48.419)" fill="#d8b60f"/>
        <path id="Path_7316" data-name="Path 7316" d="M225.38,73.994A1.2,1.2,0,0,0,224.606,75c.036.679.75.3,1.674.685a4.588,4.588,0,0,1,.959.585,2.706,2.706,0,0,0-1.858-2.275" transform="translate(-147.925 -48.732)" fill="#d8b60f"/>
        <path id="Path_7317" data-name="Path 7317" d="M188.767,68.15a.962.962,0,1,0,1.089-.809.956.956,0,0,0-1.089.809" transform="translate(-124.315 -44.344)" fill="#d8b60f"/>
        <path id="Path_7318" data-name="Path 7318" d="M211.024,85.351c-5.635-1.222-8.8-3.513-9.37-5.8,0,0,.354,2.984,1.936,4.3,2.217,1.848,7.4,3.051,7.4,3.051Z" transform="translate(-132.809 -52.395)" fill="#fff"/>
        <path id="Path_7319" data-name="Path 7319" d="M211.024,85.351c-5.635-1.222-8.8-3.513-9.37-5.8,0,0,.354,2.984,1.936,4.3,2.217,1.848,7.4,3.051,7.4,3.051Z" transform="translate(-132.809 -52.395)" fill="none" stroke="#000" stroke-miterlimit="10" stroke-width="0.5"/>
        <path id="Path_7324" data-name="Path 7324" d="M209.317,200.628c2.52.828,4.47,1.231,5.563.353a15.814,15.814,0,0,1,2.786-1.735,8.6,8.6,0,0,1,2.708-.85,10.1,10.1,0,0,1,2.174-.315c.239.057,1.246.58,2.611,1.049.655.225.751,1.636-.619,2.016a6.986,6.986,0,0,1-2.687.163s.732,1.251,1.477,1.3a16.24,16.24,0,0,0,4.212-.911c1.742-.541,2.583-.731,3.124.118.149.213-1.526,1.731-1.526,1.731a4.988,4.988,0,0,1-.169,2.548c-.456,1.482-3.462,4.12-5.484,5.075a11.328,11.328,0,0,1-4.813,1.13c-1.4.072-3.716-.85-5.5-1.5a41.93,41.93,0,0,0-5.724-1.448Z" transform="translate(-136.629 -130.448)" fill="#fff"/>
        <path id="Path_7325" data-name="Path 7325" d="M209.317,200.628c2.52.828,4.47,1.231,5.563.353a15.814,15.814,0,0,1,2.786-1.735,8.6,8.6,0,0,1,2.708-.85,10.1,10.1,0,0,1,2.174-.315c.239.057,1.246.58,2.611,1.049.655.225.751,1.636-.619,2.016a6.986,6.986,0,0,1-2.687.163s.732,1.251,1.477,1.3a16.24,16.24,0,0,0,4.212-.911c1.742-.541,2.583-.731,3.124.118.149.213-1.526,1.731-1.526,1.731a4.988,4.988,0,0,1-.169,2.548c-.456,1.482-3.462,4.12-5.484,5.075a11.328,11.328,0,0,1-4.813,1.13c-1.4.072-3.716-.85-5.5-1.5a41.93,41.93,0,0,0-5.724-1.448Z" transform="translate(-136.629 -130.448)" fill="none" stroke="#000" stroke-miterlimit="10" stroke-width="0.5"/>
        <path id="Path_7326" data-name="Path 7326" d="M250.4,213.906a2.144,2.144,0,0,0-1-1.345l-2.593-.088a6.662,6.662,0,0,1-2.937,1.925,19.336,19.336,0,0,0-3.263,1.395,2.122,2.122,0,0,0-.658.574,2.083,2.083,0,0,0-.287,1.151,1.014,1.014,0,0,0,.1.55,1.067,1.067,0,0,0,.884.377,9.241,9.241,0,0,0,2.5-.171c-.685.986-2.227,1.191-2.713,2.288a2.3,2.3,0,0,0-.125,1.205,10.95,10.95,0,0,0,4.391-1.106c2.022-.955,5.028-3.593,5.484-5.075a5.712,5.712,0,0,0,.255-1.508c-.014-.057-.025-.115-.042-.171" transform="translate(-157.838 -139.935)" fill="#eaeaea"/>
        <path id="Path_7327" data-name="Path 7327" d="M263.1,187.986h0a8.157,8.157,0,0,1-.129,1.154,2.6,2.6,0,0,1-.554,1.171l0,0a3.727,3.727,0,0,1,2.931-.761c-.25-.3-1.165-.293-1.612-.293s-.671-.609-.64-1.274" transform="translate(-172.828 -123.807)" fill="#eaeaea"/>
        <path id="Path_7328" data-name="Path 7328" d="M259.916,198.232a1.7,1.7,0,0,0-.536-.473,1.512,1.512,0,0,0-.533-.183c-.051-.008-.115-.027-.158.01a.1.1,0,0,0,.016.136.424.424,0,0,0,.168.044,1.494,1.494,0,0,1,.151.032,1.731,1.731,0,0,1,.33.124,1.522,1.522,0,0,1,.5.4c.059.073.1-.034.064-.089" transform="translate(-170.358 -130.116)" fill="#eaeaea"/>
        <path id="Path_7329" data-name="Path 7329" d="M258.906,199.612a1.6,1.6,0,0,0-.393-.253,1.542,1.542,0,0,0-.208-.071c-.056-.015-.171-.052-.2.02a.081.081,0,0,0,.013.084.416.416,0,0,0,.22.079,1.364,1.364,0,0,1,.189.06,1.335,1.335,0,0,1,.339.185c.064.05.087-.068.043-.1" transform="translate(-169.982 -131.236)" fill="#eaeaea"/>
        <path id="Path_7330" data-name="Path 7330" d="M257.214,220.9c-.047-.035-.061.069-.033.095a1.394,1.394,0,0,1,.271,1.17.137.137,0,0,0,.063.131.06.06,0,0,0,.092-.044,1.475,1.475,0,0,0-.393-1.352" transform="translate(-169.37 -145.481)" fill="#eaeaea"/>
        <path id="Path_7331" data-name="Path 7331" d="M256.8,223.206a1.24,1.24,0,0,0-.024-.251.79.79,0,0,0-.229-.453c-.026-.02-.062-.038-.09-.01a.1.1,0,0,0-.008.108c.02.043.033.067.049.1.007.015.013.031.018.047l0,.006.007.025a.731.731,0,0,1,.024.179c0,.067.006.133.006.2,0,.034,0,.069,0,.1a.308.308,0,0,0,.085.186.071.071,0,0,0,.075.02c.1-.039.087-.173.087-.262" transform="translate(-168.891 -146.524)" fill="#eaeaea"/>
        <path id="Path_7332" data-name="Path 7332" d="M254.113,234.708a1.017,1.017,0,0,0-.4-.463c-.024-.012-.03.037-.021.049a2.775,2.775,0,0,1,.288.473,1.5,1.5,0,0,1,.113.526.146.146,0,0,0,.1.119.069.069,0,0,0,.09-.067,1.526,1.526,0,0,0-.167-.637" transform="translate(-167.077 -154.273)" fill="#eaeaea"/>
        <path id="Path_7333" data-name="Path 7333" d="M253.853,236.555q-.013-.039-.028-.078a1.1,1.1,0,0,0-.066-.135,1.137,1.137,0,0,0-.15-.208c-.02-.023-.06-.041-.08-.006a.1.1,0,0,0,.013.112.873.873,0,0,1,.062.091l.029.051.006.013v0l.011.023c.015.034.029.069.042.1l0,.013c0-.014-.005-.016,0,0l.009.027a.426.426,0,0,0,.015.046.15.15,0,0,0,.052.063.055.055,0,0,0,.029.013.038.038,0,0,0,.028-.009l.015,0,.011-.016a.1.1,0,0,0,.008-.042.137.137,0,0,0-.008-.049" transform="translate(-166.967 -155.501)" fill="#eaeaea"/>
        <path id="Path_7334" data-name="Path 7334" d="M260.341,229.146a1.5,1.5,0,0,0-.458-.559.049.049,0,0,0-.078.021.115.115,0,0,0,.025.113,3.115,3.115,0,0,1,.372.519,2.861,2.861,0,0,1,.214.6c.016.064.115.094.116.006a1.488,1.488,0,0,0-.192-.7" transform="translate(-171.104 -150.54)" fill="#eaeaea"/>
        <path id="Path_7335" data-name="Path 7335" d="M260.308,231.514a.984.984,0,0,0-.2-.273c-.025-.024-.064-.04-.086,0a.109.109,0,0,0,.018.118.664.664,0,0,1,.126.209,1.15,1.15,0,0,1,.037.13c0,.02,0-.01,0,.011l.005.033c0,.027.009.054.015.081a.321.321,0,0,0,.017.072c.016.032.052.087.095.066.011-.005.017-.016.026-.023a.038.038,0,0,0,.015-.027.216.216,0,0,0,0-.029.4.4,0,0,0,0-.084.834.834,0,0,0-.083-.281" transform="translate(-171.247 -152.279)" fill="#eaeaea"/>
        <path id="Path_7336" data-name="Path 7336" d="M259.191,239.356a1.21,1.21,0,0,0-.03-.155,1.136,1.136,0,0,0-.145-.323.838.838,0,0,0-.446-.386c-.055-.014-.04.083-.015.1a1.351,1.351,0,0,1,.354.39,1.08,1.08,0,0,1,.089.239.813.813,0,0,1,.019.107c0,.023,0,.045.007.068a.215.215,0,0,0,.054.114c.013.016.04.034.061.024.052-.025.06-.055.059-.107a.679.679,0,0,0-.006-.074" transform="translate(-170.269 -157.07)" fill="#eaeaea"/>
        <path id="Path_7337" data-name="Path 7337" d="M270.116,238.48c0-.045-.01-.089-.016-.134a1.066,1.066,0,0,0-.2-.5.45.45,0,0,0-.208-.175c-.083-.027-.072.1-.038.137a1.848,1.848,0,0,1,.128.148.622.622,0,0,1,.077.156,2.025,2.025,0,0,1,.068.242,1.67,1.67,0,0,0,.058.262c.025.063.121.1.14.014a.475.475,0,0,0,0-.144" transform="translate(-177.575 -156.524)" fill="#eaeaea"/>
        <path id="Path_7338" data-name="Path 7338" d="M258.845,203.534a5.173,5.173,0,0,0,.7,1.2l1.241-1.359-.84.756.014-.821a6.553,6.553,0,0,0,1.672-1.99,8.824,8.824,0,0,1-2.786,2.214" transform="translate(-170.475 -132.589)" fill="#eaeaea"/>
        <path id="Path_7339" data-name="Path 7339" d="M257.275,222.57a12.822,12.822,0,0,0,1.23-.765,3.5,3.5,0,0,1,.656-.338,6.481,6.481,0,0,1,.693-.244,6.723,6.723,0,0,1-.619.392c-.213.115-.415.236-.618.369a3.366,3.366,0,0,1-1.343.585" transform="translate(-169.441 -145.698)" fill="#eaeaea"/>
        <path id="Path_7340" data-name="Path 7340" d="M253.52,231.368c.438-.28.849-.593,1.259-.908s.819-.635,1.218-.959.705-.741,1.1-1.085a4.448,4.448,0,0,1,1.342-.806,6.186,6.186,0,0,0-1.229.925c-.366.36-.671.776-1.081,1.131-.418.316-.825.634-1.257.926a8.258,8.258,0,0,1-1.355.776" transform="translate(-166.968 -149.904)" fill="#eaeaea"/>
        <path id="Path_7341" data-name="Path 7341" d="M260.252,234.687a4.178,4.178,0,0,0,.468-.424c.152-.148.307-.293.469-.431.326-.277.658-.527.962-.814a7.167,7.167,0,0,0,.842-.915l.365-.516a1.622,1.622,0,0,1,.442-.46,1.867,1.867,0,0,0-.354.515c-.1.184-.2.372-.316.554a5.258,5.258,0,0,1-.835.978,10.632,10.632,0,0,1-1,.787,8.2,8.2,0,0,1-1.04.726" transform="translate(-171.402 -152.221)" fill="#eaeaea"/>
        <path id="Path_7342" data-name="Path 7342" d="M266.66,234.6l-.071.612-.693.211a7.675,7.675,0,0,0,.764-.823" transform="translate(-175.119 -154.508)" fill="#eaeaea"/>
        <path id="Path_7343" data-name="Path 7343" d="M246.817,197.987a19.124,19.124,0,0,1-1.68,1.412c-.29.224-.592.433-.877.658a1.459,1.459,0,0,0-.625.829.61.61,0,0,0,.185.46,2.431,2.431,0,0,0,.414.338,1.513,1.513,0,0,0,1,.26,6.09,6.09,0,0,0,2.047-.673l.073-.035.032.075a4.939,4.939,0,0,0,.691,1.176l.042.051-.041.052-.6.754,0,0,0,0a10.851,10.851,0,0,1-1.287,1.131,12.535,12.535,0,0,1-1.467.882c-.5.262-1.016.512-1.533.746a4.06,4.06,0,0,0-1.377.892.968.968,0,0,0-.246.707c.012.269.061.556.282.578a3.275,3.275,0,0,0,.805-.072,7.672,7.672,0,0,0,.824-.157c1.095-.268,2.183-.59,3.265-.917l.415-.126-.276.334a10.694,10.694,0,0,1-.99,1.082c-.377.312-.725.629-1.09.951s-.73.633-1.107.939a5.862,5.862,0,0,0-1.046.951,1.99,1.99,0,0,0-.508,1.225.921.921,0,0,0,.217.574.48.48,0,0,0,.545.033c.419-.171.813-.476,1.25-.7s.859-.444,1.3-.652l.611-.289-.484.471-.713.694-.356.347a1.757,1.757,0,0,0-.3.364,1.26,1.26,0,0,0-.21.871c.072.26.268.621.523.617a1.808,1.808,0,0,0,.831-.4c.27-.187.534-.387.8-.582.532-.408,1.156-.685,1.638-1.108l.123.118a4.7,4.7,0,0,0-.418.578,1.657,1.657,0,0,0-.255.636.436.436,0,0,0,.011.152,1.448,1.448,0,0,0,.058.161.9.9,0,0,0,.185.277.456.456,0,0,0,.574.1c.394-.243.754-.591,1.144-.879a5.508,5.508,0,0,1,.61-.412,6.5,6.5,0,0,0,.631-.357c.4-.261.772-.583,1.161-.87a2.392,2.392,0,0,0,.621-1.267c.26-.938.657-1.829.9-2.77-.228.945-.61,1.845-.852,2.784-.064.234-.123.47-.209.7a1.4,1.4,0,0,1-.409.613c-.386.3-.745.623-1.152.9a6.477,6.477,0,0,1-.629.373,5.4,5.4,0,0,0-.588.414c-.386.294-.727.631-1.157.9a.592.592,0,0,1-.4.074.671.671,0,0,1-.355-.193,1.061,1.061,0,0,1-.22-.323,1.677,1.677,0,0,1-.067-.181.585.585,0,0,1-.018-.209,1.794,1.794,0,0,1,.272-.709,4.853,4.853,0,0,1,.43-.6l.123.118c-.518.457-1.128.727-1.646,1.132-.266.2-.529.4-.8.59-.138.1-.275.188-.426.274a1.074,1.074,0,0,1-.518.163.62.62,0,0,1-.487-.29,1.379,1.379,0,0,1-.232-.484,1.461,1.461,0,0,1,.23-1.023,1.981,1.981,0,0,1,.326-.408l.354-.349.708-.7.127.183c-.431.207-.86.427-1.282.655s-.8.516-1.271.716a1.082,1.082,0,0,1-.4.086.59.59,0,0,1-.411-.168,1.156,1.156,0,0,1-.3-.744,2.237,2.237,0,0,1,.556-1.4,6.1,6.1,0,0,1,1.08-1c.371-.3.732-.62,1.094-.937s.727-.643,1.1-.942a10.5,10.5,0,0,0,.967-1.044l.14.208c-1.089.321-2.178.635-3.287.9a8.013,8.013,0,0,1-.846.155,3.284,3.284,0,0,1-.883.065.5.5,0,0,1-.385-.34,1.493,1.493,0,0,1-.073-.453,1.191,1.191,0,0,1,.3-.855,4.229,4.229,0,0,1,1.457-.939c.518-.23,1.026-.475,1.529-.731a12.449,12.449,0,0,0,1.45-.858,10.715,10.715,0,0,0,1.272-1.1l-.005.006.6-.75v.1a5.088,5.088,0,0,1-.707-1.223l.105.04a5.986,5.986,0,0,1-2.106.666,1.634,1.634,0,0,1-1.073-.3,2.526,2.526,0,0,1-.427-.364.7.7,0,0,1-.2-.534.93.93,0,0,1,.258-.5,3.088,3.088,0,0,1,.413-.37c.294-.222.6-.423.892-.641a19.08,19.08,0,0,0,1.707-1.377" transform="translate(-158.948 -130.394)" fill="#eaeaea"/>
        <path id="Path_7344" data-name="Path 7344" d="M256.884,184.369l-7.378-4.2a30.277,30.277,0,0,1-.2,3.823,2.046,2.046,0,0,1-1.223,1.633h.009a3.3,3.3,0,0,0-1.059.627,22.142,22.142,0,0,1-2.259,1.806c-.725.518-1.378,1.065-.657,1.7a1.807,1.807,0,0,0,1.858.434,8.25,8.25,0,0,0,1.559-.59,5.18,5.18,0,0,0,.7,1.2l-.6.752a10.58,10.58,0,0,1-1.467,1.247,18.507,18.507,0,0,1-2.307,1.25c-.807.385-2.21.885-2.189,1.867s.457.769,1.358.656,3.97-1.044,3.97-1.044a10.172,10.172,0,0,1-1.09,1.158c-.426.339-1.494,1.342-2.413,2.051s-1.532,1.708-1.15,2.48,1.193.037,1.962-.38,1.408-.717,1.408-.717-.742.73-1.1,1.075a1.421,1.421,0,0,0-.429,1.507c.254.5.512.656,1.11.289s1.216-.911,1.849-1.281a5.733,5.733,0,0,0,.925-.64s-.815.948-.674,1.442.516.777.886.6,1.239-1.053,1.91-1.391a10.162,10.162,0,0,0,1.583-1.117c.427-.317.5-.639.745-1.5s.5-1.641.808-2.551c.359-1.072.723-2.086,1.1-3.25a33.517,33.517,0,0,0,1.338-4,44.088,44.088,0,0,0,1.115-4.941" transform="translate(-159.163 -118.66)" fill="#fff"/>
        <path id="Path_7345" data-name="Path 7345" d="M256.884,184.369l-7.378-4.2a30.277,30.277,0,0,1-.2,3.823,2.046,2.046,0,0,1-1.223,1.633h.009a3.3,3.3,0,0,0-1.059.627,22.142,22.142,0,0,1-2.259,1.806c-.725.518-1.378,1.065-.657,1.7a1.807,1.807,0,0,0,1.858.434,8.25,8.25,0,0,0,1.559-.59,5.18,5.18,0,0,0,.7,1.2l-.6.752a10.58,10.58,0,0,1-1.467,1.247,18.507,18.507,0,0,1-2.307,1.25c-.807.385-2.21.885-2.189,1.867s.457.769,1.358.656,3.97-1.044,3.97-1.044a10.172,10.172,0,0,1-1.09,1.158c-.426.339-1.494,1.342-2.413,2.051s-1.532,1.708-1.15,2.48,1.193.037,1.962-.38,1.408-.717,1.408-.717-.742.73-1.1,1.075a1.421,1.421,0,0,0-.429,1.507c.254.5.512.656,1.11.289s1.216-.911,1.849-1.281a5.733,5.733,0,0,0,.925-.64s-.815.948-.674,1.442.516.777.886.6,1.239-1.053,1.91-1.391a10.162,10.162,0,0,0,1.583-1.117c.427-.317.5-.639.745-1.5s.5-1.641.808-2.551c.359-1.072.723-2.086,1.1-3.25a33.517,33.517,0,0,0,1.338-4A44.088,44.088,0,0,0,256.884,184.369Z" transform="translate(-159.163 -118.66)" fill="none" stroke="#000" stroke-miterlimit="10" stroke-width="0.5"/>
        <path id="Path_7346" data-name="Path 7346" d="M154.621,107.683c-4.754.835-8.077,2.292-9.993,8.039s-4.378,18.695-4.927,21.7c-.946,5.193.409,6.032,4.419,7.846,2.692,1.217,11.71,3.492,18.522,4.552l1.863-8.724c-6.777-2.562-12.546-4.983-12.546-4.983l2.868-12.591s3.427-10.162-.207-15.842" transform="translate(-91.817 -70.92)" fill="#fff"/>
        <path id="Path_7347" data-name="Path 7347" d="M154.621,107.683c-4.754.835-8.077,2.292-9.993,8.039s-4.378,18.695-4.927,21.7c-.946,5.193.409,6.032,4.419,7.846,2.692,1.217,11.71,3.492,18.522,4.552l1.863-8.724c-6.777-2.562-12.546-4.983-12.546-4.983l2.868-12.591S158.254,113.363,154.621,107.683Z" transform="translate(-91.817 -70.92)" fill="none" stroke="#000" stroke-miterlimit="10" stroke-width="0.5"/>
        <path id="Path_7348" data-name="Path 7348" d="M160.311,187.167a9.661,9.661,0,0,0-8.217,1.082c1.685-2.919,6.406-3.514,8.6-2.748Z" transform="translate(-100.169 -121.97)" fill="#eaeaea"/>
      </g>
    </g>
    <g id="Group_1019" data-name="Group 1019">
      <g id="Group_1018" data-name="Group 1018" clip-path="url(#clip-path)">
        <path id="Path_7349" data-name="Path 7349" d="M157.112,12.18l-1.873.486a.658.658,0,0,1-.8-.379L150.866,1.644a.556.556,0,0,1,.434-.7l3.544-.921a.544.544,0,0,1,.713.366l2.071,11.1a.644.644,0,0,1-.517.686" transform="translate(-99.343 0)" fill="#ffe864"/>
        <path id="Path_7350" data-name="Path 7350" d="M165.687,44.262a1.974,1.974,0,1,1,1.414-2.407,1.961,1.961,0,0,1-1.414,2.407" transform="translate(-107.492 -26.59)" fill="#ffe864"/>
        <path id="Path_7351" data-name="Path 7351" d="M133.712,44.576l-.918,1.074a.48.48,0,0,1-.634.106l-6.588-4.877a.406.406,0,0,1-.032-.6l1.736-2.032a.4.4,0,0,1,.58-.079l5.879,5.781a.47.47,0,0,1-.023.626" transform="translate(-82.604 -25.076)" fill="#ffe864"/>
        <path id="Path_7352" data-name="Path 7352" d="M152.271,61.633a1.44,1.44,0,1,1-.159-2.031,1.432,1.432,0,0,1,.159,2.031" transform="translate(-98.614 -39.024)" fill="#ffe864"/>
        <g id="Group_1017" data-name="Group 1017" transform="translate(42.82 12.998)" opacity="0.3">
          <g id="Group_1016" data-name="Group 1016">
            <g id="Group_1015" data-name="Group 1015" clip-path="url(#clip-path-10)">
              <path id="Path_7353" data-name="Path 7353" d="M133.712,44.576l-.918,1.074a.48.48,0,0,1-.634.106l-6.588-4.877a.406.406,0,0,1-.032-.6l1.736-2.032a.4.4,0,0,1,.58-.079l5.879,5.781a.47.47,0,0,1-.023.626" transform="translate(-125.424 -38.075)" fill="#fff"/>
              <path id="Path_7354" data-name="Path 7354" d="M152.271,61.633a1.44,1.44,0,1,1-.159-2.031,1.432,1.432,0,0,1,.159,2.031" transform="translate(-141.434 -52.023)" fill="#fff"/>
            </g>
          </g>
        </g>
      </g>
    </g>
    <path id="Path_7355" data-name="Path 7355" d="M307.06,139.069l3.753-2.348-2.372-1.763,7.828-4.336-3.67-1.8,8.394-5.228-4.868,4.919,4.349,1.82-9.209,4.764,2.5,2.183Z" transform="translate(-202.23 -81.4)" fill="#ffe864"/>
    <path id="Path_7356" data-name="Path 7356" d="M298.985,134.427l2.371-2.6-1.449-.93,2.044-2.786-2.186-.583.512-3.4-1.253,3.715,1.543.546-2.223,2.8,1.7,1.05Z" transform="translate(-196.49 -81.754)" fill="#ffe864"/>
    <path id="Path_7357" data-name="Path 7357" d="M306.349,175.4l5.028,3.4,1.589-2.716,4.334,1.985,1.5-3.329,6.581,1.21-7.734-3.065-1.943,3.1-3.6-1.626-1.28,2.583Z" transform="translate(-201.762 -113.863)" fill="#ffe864"/>
    <path id="Path_7358" data-name="Path 7358" d="M90.577,109.261l-3.937-2.022-.3,2.94-7.731-4.507.333,4.073-8.787-4.537,6.717,1.666-.662-4.668,8.806,5.474.595-3.267Z" transform="translate(-46.202 -67.312)" fill="#fbe551"/>
    <path id="Path_7359" data-name="Path 7359" d="M109.908,134.91l-3.445-.708-.058,1.721-3.439-.33.617,2.176-3.181,1.3,3.833-.824-.321-1.606,3.546.475.032-2Z" transform="translate(-66.124 -88.385)" fill="#fbe551"/>
    <path id="Path_7360" data-name="Path 7360" d="M114.033,82.006l-1.058-5.979-3.056.75-1.592-4.493L104.9,73.527l-3.713-5.567,3.184,7.686,3.579-.764,1.337,3.715,2.746-.879Z" transform="translate(-66.639 -44.758)" fill="#fbe551"/>
  </g>
</svg>
