<svg id="Group_1164" data-name="Group 1164" xmlns="http://www.w3.org/2000/svg" xmlns:xlink="http://www.w3.org/1999/xlink" width="157.607" height="139.535" viewBox="0 0 157.607 139.535">
  <defs>
    <clipPath id="clip-path">
      <rect id="Rectangle_847" data-name="Rectangle 847" width="157.608" height="139.535" fill="none"/>
    </clipPath>
    <clipPath id="clip-path-3">
      <rect id="Rectangle_803" data-name="Rectangle 803" width="157.342" height="139.273" fill="none"/>
    </clipPath>
  </defs>
  <g id="Group_1186" data-name="Group 1186" clip-path="url(#clip-path)">
    <g id="Group_1168" data-name="Group 1168">
      <g id="Group_1167" data-name="Group 1167" clip-path="url(#clip-path)">
        <path id="Path_7623" data-name="Path 7623" d="M57.3,138.34c35.943,6.627,71.711-23.266,88.164-51.927,10.934-19.046,15.29-41.4,8.909-59.589C149.7,13.5,137.944.582,120.458.015,100.971-.616,85.283,18.459,65.266,18.072c-19.987-.386-43.649,7.821-55.11,22.7S-3.641,82.76,6.1,103.8a59.969,59.969,0,0,0,28.18,28.509c7.027,3.427,14.621,4.4,22.58,5.944l.44.083" transform="translate(0 0)" fill="#ffe551"/>
        <g id="Group_1166" data-name="Group 1166" opacity="0.8">
          <g id="Group_1165" data-name="Group 1165">
            <g id="Group_1164-2" data-name="Group 1164" clip-path="url(#clip-path-3)">
              <path id="Path_7624" data-name="Path 7624" d="M57.3,138.34c35.943,6.627,71.711-23.266,88.164-51.927,10.934-19.046,15.29-41.4,8.909-59.589C149.7,13.5,137.944.582,120.458.015,100.971-.616,85.283,18.459,65.266,18.072c-19.987-.386-43.649,7.821-55.11,22.7S-3.641,82.76,6.1,103.8a59.969,59.969,0,0,0,28.18,28.509c7.027,3.427,14.621,4.4,22.58,5.944l.44.083" transform="translate(0 0)" fill="#fff"/>
            </g>
          </g>
        </g>
      </g>
    </g>
    <g id="Group_1179" data-name="Group 1179">
      <g id="Group_1178" data-name="Group 1178" clip-path="url(#clip-path)">
        <path id="Path_7637" data-name="Path 7637" d="M314.2,221.869H279.986V186.947h36.626v32.514a2.409,2.409,0,0,1-2.409,2.409" transform="translate(-186.957 -124.832)" fill="#fff"/>
        <path id="Path_7638" data-name="Path 7638" d="M314.2,221.869H279.986V186.947h36.626v32.514A2.409,2.409,0,0,1,314.2,221.869Z" transform="translate(-186.957 -124.832)" fill="none" stroke="#000" stroke-linecap="round" stroke-linejoin="round" stroke-width="1"/>
        <path id="Path_7639" data-name="Path 7639" d="M350.89,210.586a2.026,2.026,0,1,1-2.021-2.161,2.095,2.095,0,0,1,2.021,2.161" transform="translate(-231.603 -139.173)" fill="#8a8a8a"/>
        <path id="Path_7640" data-name="Path 7640" d="M350.89,210.586a2.026,2.026,0,1,1-2.021-2.161A2.095,2.095,0,0,1,350.89,210.586Z" transform="translate(-231.603 -139.173)" fill="none" stroke="#000" stroke-linecap="round" stroke-linejoin="round" stroke-width="1"/>
        <path id="Path_7641" data-name="Path 7641" d="M350.624,212.755l2.266,4.429.836-.558-1.43-4.01s.665-1.152-.418-1.673" transform="translate(-234.125 -140.855)" fill="#8a8a8a"/>
        <path id="Path_7642" data-name="Path 7642" d="M350.624,212.755l2.266,4.429.836-.558-1.43-4.01s.665-1.152-.418-1.673" transform="translate(-234.125 -140.855)" fill="none" stroke="#000" stroke-linecap="round" stroke-linejoin="round" stroke-width="1"/>
        <path id="Path_7643" data-name="Path 7643" d="M371.034,221.869h-4.194a1.745,1.745,0,0,1-1.744-1.744V186.947h8.347v32.514a2.409,2.409,0,0,1-2.409,2.409" transform="translate(-243.788 -124.832)" fill="#dedede"/>
        <path id="Path_7644" data-name="Path 7644" d="M371.034,221.869h-4.194a1.745,1.745,0,0,1-1.744-1.744V186.947h8.347v32.514A2.409,2.409,0,0,1,371.034,221.869Z" transform="translate(-243.788 -124.832)" fill="none" stroke="#000" stroke-linecap="round" stroke-linejoin="round" stroke-width="1"/>
        <rect id="Rectangle_834" data-name="Rectangle 834" width="36.626" height="5.962" transform="translate(93.029 62.937)"/>
        <rect id="Rectangle_835" data-name="Rectangle 835" width="36.626" height="5.962" transform="translate(93.029 62.937)" fill="none" stroke="#000" stroke-linecap="round" stroke-linejoin="round" stroke-width="1"/>
        <path id="Path_7645" data-name="Path 7645" d="M314.3,192.908H274.748a.914.914,0,0,1-.914-.914V187.86a.914.914,0,0,1,.914-.914H314.3a.249.249,0,0,1,.249.249v5.464a.249.249,0,0,1-.249.249" transform="translate(-182.849 -124.831)" fill="#fff"/>
        <path id="Path_7646" data-name="Path 7646" d="M314.3,192.908H274.748a.914.914,0,0,1-.914-.914V187.86a.914.914,0,0,1,.914-.914H314.3a.249.249,0,0,1,.249.249v5.464A.249.249,0,0,1,314.3,192.908Z" transform="translate(-182.849 -124.831)" fill="none" stroke="#000" stroke-linecap="round" stroke-linejoin="round" stroke-width="1"/>
        <path id="Path_7647" data-name="Path 7647" d="M377.474,192.908h-9.03v-5.962h9.03a.249.249,0,0,1,.249.249v5.464a.249.249,0,0,1-.249.249" transform="translate(-246.024 -124.831)" fill="#dedede"/>
        <path id="Path_7648" data-name="Path 7648" d="M377.474,192.908h-9.03v-5.962h9.03a.249.249,0,0,1,.249.249v5.464A.249.249,0,0,1,377.474,192.908Z" transform="translate(-246.024 -124.831)" fill="none" stroke="#000" stroke-linecap="round" stroke-linejoin="round" stroke-width="1"/>
        <path id="Path_7649" data-name="Path 7649" d="M235.848,337.683l-5.694,23.754a.906.906,0,0,0,.882,1.117H265.42a.906.906,0,0,0,.891-1.073l-4.4-23.458Z" transform="translate(-153.666 -225.484)" fill="#dedede"/>
        <path id="Path_7650" data-name="Path 7650" d="M235.848,337.683l-5.694,23.754a.906.906,0,0,0,.882,1.117H265.42a.906.906,0,0,0,.891-1.073l-4.4-23.458Z" transform="translate(-153.666 -225.484)" fill="none" stroke="#000" stroke-linecap="round" stroke-linejoin="round" stroke-width="1"/>
        <path id="Path_7651" data-name="Path 7651" d="M247.4,337.833l-11.556-.151-5.694,23.754a.907.907,0,0,0,.882,1.118h17.876a1,1,0,0,0,.994-1.1Z" transform="translate(-153.666 -225.483)" fill="#fff"/>
        <path id="Path_7652" data-name="Path 7652" d="M247.4,337.833l-11.556-.151-5.694,23.754a.907.907,0,0,0,.882,1.118h17.876a1,1,0,0,0,.994-1.1Z" transform="translate(-153.666 -225.483)" fill="none" stroke="#000" stroke-linecap="round" stroke-linejoin="round" stroke-width="1"/>
        <path id="Path_7653" data-name="Path 7653" d="M260.989,344.267a22.941,22.941,0,0,0,12.275-3.529l-.509-2.715-26.064-.341-.324,1.353a22.9,22.9,0,0,0,14.622,5.232" transform="translate(-164.509 -225.483)"/>
        <path id="Path_7654" data-name="Path 7654" d="M260.989,344.267a22.941,22.941,0,0,0,12.275-3.529l-.509-2.715-26.064-.341-.324,1.353A22.9,22.9,0,0,0,260.989,344.267Z" transform="translate(-164.509 -225.483)" fill="none" stroke="#000" stroke-linecap="round" stroke-linejoin="round" stroke-width="1"/>
        <path id="Path_7655" data-name="Path 7655" d="M218.087,291.026a22.768,22.768,0,0,0,45.392,0Z" transform="translate(-145.625 -194.329)" fill="#dedede"/>
        <path id="Path_7656" data-name="Path 7656" d="M218.087,291.026a22.768,22.768,0,0,0,45.392,0Z" transform="translate(-145.625 -194.329)" fill="none" stroke="#000" stroke-linecap="round" stroke-linejoin="round" stroke-width="1"/>
        <path id="Path_7657" data-name="Path 7657" d="M230.974,309.8c4.162-3.41,7.1-10.477,7.4-18.77H218.087a22.323,22.323,0,0,0,12.887,18.77" transform="translate(-145.625 -194.329)" fill="#fff"/>
        <path id="Path_7658" data-name="Path 7658" d="M230.974,309.8c4.162-3.41,7.1-10.477,7.4-18.77H218.087A22.323,22.323,0,0,0,230.974,309.8Z" transform="translate(-145.625 -194.329)" fill="none" stroke="#000" stroke-linecap="round" stroke-linejoin="round" stroke-width="1"/>
        <path id="Path_7659" data-name="Path 7659" d="M217.948,286.743H263.6V284.25a.914.914,0,0,0-.914-.914h-43.5a1.246,1.246,0,0,0-1.246,1.246Z" transform="translate(-145.532 -189.194)" fill="#fff"/>
        <path id="Path_7660" data-name="Path 7660" d="M217.948,286.743H263.6V284.25a.914.914,0,0,0-.914-.914h-43.5a1.246,1.246,0,0,0-1.246,1.246Z" transform="translate(-145.532 -189.194)" fill="none" stroke="#000" stroke-linecap="round" stroke-linejoin="round" stroke-width="1"/>
        <path id="Path_7661" data-name="Path 7661" d="M217.948,291.494h45.376l.279-1.7H217.948Z" transform="translate(-145.532 -193.504)"/>
        <path id="Path_7662" data-name="Path 7662" d="M217.948,291.494h45.376l.279-1.7H217.948Z" transform="translate(-145.532 -193.504)" fill="none" stroke="#000" stroke-linecap="round" stroke-linejoin="round" stroke-width="1"/>
        <rect id="Rectangle_836" data-name="Rectangle 836" width="45.655" height="1.704" transform="translate(72.416 95.845)" fill="#fff"/>
        <rect id="Rectangle_837" data-name="Rectangle 837" width="45.655" height="1.704" transform="translate(72.416 95.845)" fill="none" stroke="#000" stroke-linecap="round" stroke-linejoin="round" stroke-width="1"/>
      </g>
    </g>
    <g id="Group_1181" data-name="Group 1181">
      <g id="Group_1180" data-name="Group 1180" clip-path="url(#clip-path)">
        <path id="Path_7663" data-name="Path 7663" d="M404.888,246.426c-2.22,0-4.02,2.344-4.02,5.235s1.8,5.235,4.02,5.235h9.329V246.426Z" transform="translate(-267.675 -164.548)" fill="#fff"/>
        <path id="Path_7664" data-name="Path 7664" d="M404.888,246.426c-2.22,0-4.02,2.344-4.02,5.235s1.8,5.235,4.02,5.235h9.329V246.426Z" transform="translate(-267.675 -164.548)" fill="none" stroke="#000" stroke-linecap="round" stroke-linejoin="round" stroke-width="1"/>
        <path id="Path_7665" data-name="Path 7665" d="M436.984,251.661c0,2.891-1.8,5.235-4.02,5.235s-4.02-2.344-4.02-5.235,1.8-5.235,4.02-5.235,4.02,2.344,4.02,5.235" transform="translate(-286.422 -164.548)" fill="#fff"/>
        <ellipse id="Ellipse_101" data-name="Ellipse 101" cx="4.02" cy="5.235" rx="4.02" ry="5.235" transform="translate(142.522 81.878)" fill="none" stroke="#000" stroke-linecap="round" stroke-linejoin="round" stroke-width="1"/>
        <path id="Path_7666" data-name="Path 7666" d="M439.883,259.177a1.189,1.189,0,1,1-1.149-1.5,1.357,1.357,0,0,1,1.149,1.5" transform="translate(-292.193 -172.063)"/>
        <ellipse id="Ellipse_102" data-name="Ellipse 102" cx="1.149" cy="1.496" rx="1.149" ry="1.496" transform="translate(145.393 85.618)" fill="none" stroke="#000" stroke-linecap="round" stroke-linejoin="round" stroke-width="1"/>
        <path id="Path_7667" data-name="Path 7667" d="M447.159,259.683h-7.785a.831.831,0,1,0,0,1.661h7.785Z" transform="translate(-292.832 -173.4)" fill="#8a8a8a"/>
        <path id="Path_7668" data-name="Path 7668" d="M447.159,259.683h-7.785a.831.831,0,1,0,0,1.661h7.785Z" transform="translate(-292.832 -173.4)" fill="none" stroke="#000" stroke-linecap="round" stroke-linejoin="round" stroke-width="1"/>
      </g>
    </g>
    <g id="Group_1183" data-name="Group 1183">
      <g id="Group_1182" data-name="Group 1182" clip-path="url(#clip-path)">
        <path id="Path_7669" data-name="Path 7669" d="M250.835,90.594a19.81,19.81,0,0,0-.687,4.7v4.123a30.438,30.438,0,0,0,8.7,2.061c4.7.344,11.795-2.519,11.795-2.519s-.916-3.206-1.947-6.3-9.39-4.466-13.742-4.466-4.123,2.4-4.123,2.4" transform="translate(-167.033 -58.887)"/>
        <path id="Path_7670" data-name="Path 7670" d="M250.835,90.594a19.81,19.81,0,0,0-.687,4.7v4.123a30.438,30.438,0,0,0,8.7,2.061c4.7.344,11.795-2.519,11.795-2.519s-.916-3.206-1.947-6.3-9.39-4.466-13.742-4.466S250.835,90.594,250.835,90.594Z" transform="translate(-167.033 -58.887)" fill="none" stroke="#000" stroke-linecap="round" stroke-linejoin="round" stroke-width="1"/>
        <path id="Path_7671" data-name="Path 7671" d="M166.061,225.565s-9.532,2.926-14.833,6.342-6.243,6.6-6.949,8.362a9.468,9.468,0,0,0-.706,3.18,44.939,44.939,0,0,0-4.122,10.129c-1.767,6.242-3.887,20.73-4.594,22.614a45.411,45.411,0,0,1-4.829,7.774c-1.649,2.238-.707,3.3,1.531,3.769s5.418.471,6.36-.824,1.413-4.947,1.531-8.245a32.3,32.3,0,0,1,1.413-7.3s5.536-9.894,8.009-15.312,4.712-9.658,4.712-9.658,9.54-1.767,14.369-2.238,13.427.824,19.787-.589,9.423-1.884,11.307-6.6-.334-10.675-.579-11.521-3.543-1.671-4.486-1.671H169.838Z" transform="translate(-86.267 -149.426)" fill="#fff"/>
        <path id="Path_7672" data-name="Path 7672" d="M166.061,225.565s-9.532,2.926-14.833,6.342-6.243,6.6-6.949,8.362a9.468,9.468,0,0,0-.706,3.18,44.939,44.939,0,0,0-4.122,10.129c-1.767,6.242-3.887,20.73-4.594,22.614a45.411,45.411,0,0,1-4.829,7.774c-1.649,2.238-.707,3.3,1.531,3.769s5.418.471,6.36-.824,1.413-4.947,1.531-8.245a32.3,32.3,0,0,1,1.413-7.3s5.536-9.894,8.009-15.312,4.712-9.658,4.712-9.658,9.54-1.767,14.369-2.238,13.427.824,19.787-.589,9.423-1.884,11.307-6.6-.334-10.675-.579-11.521-3.543-1.671-4.486-1.671H169.838Z" transform="translate(-86.267 -149.426)" fill="none" stroke="#000" stroke-linecap="round" stroke-linejoin="round" stroke-width="1"/>
        <path id="Path_7673" data-name="Path 7673" d="M265.361,225.451c-.245-.846-3.543-1.671-4.486-1.671H236.73l-3.777,1.785s-1.475.453-3.583,1.209c2.323.714,7.537,3,8.538,9.373a47.724,47.724,0,0,1,.682,7.908c4.824.074,11.107.609,16.043-.488,6.36-1.413,9.423-1.885,11.307-6.6s-.333-10.675-.579-11.521" transform="translate(-153.159 -149.426)"/>
        <path id="Path_7674" data-name="Path 7674" d="M265.361,225.451c-.245-.846-3.543-1.671-4.486-1.671H236.73l-3.777,1.785s-1.475.453-3.583,1.209c2.323.714,7.537,3,8.538,9.373a47.724,47.724,0,0,1,.682,7.908c4.824.074,11.107.609,16.043-.488,6.36-1.413,9.423-1.885,11.307-6.6S265.607,226.3,265.361,225.451Z" transform="translate(-153.159 -149.426)" fill="none" stroke="#000" stroke-linecap="round" stroke-linejoin="round" stroke-width="1"/>
        <path id="Path_7675" data-name="Path 7675" d="M253.293,237.959s3.887,1.885,4.711,5.889" transform="translate(-169.133 -158.894)" fill="none" stroke="#fff" stroke-linecap="round" stroke-linejoin="round" stroke-width="1"/>
        <path id="Path_7676" data-name="Path 7676" d="M140.227,372.38a8.082,8.082,0,0,1-4.632-.777,29.289,29.289,0,0,1-.738,3.3,45.383,45.383,0,0,1-4.829,7.774c-1.649,2.238-.707,3.3,1.531,3.769s5.418.471,6.36-.825,1.413-4.947,1.531-8.245a26.4,26.4,0,0,1,.777-4.993" transform="translate(-86.267 -248.133)"/>
        <path id="Path_7677" data-name="Path 7677" d="M140.227,372.38a8.082,8.082,0,0,1-4.632-.777,29.289,29.289,0,0,1-.738,3.3,45.383,45.383,0,0,1-4.829,7.774c-1.649,2.238-.707,3.3,1.531,3.769s5.418.471,6.36-.825,1.413-4.947,1.531-8.245A26.4,26.4,0,0,1,140.227,372.38Z" transform="translate(-86.267 -248.133)" fill="none" stroke="#000" stroke-linecap="round" stroke-linejoin="round" stroke-width="1"/>
        <path id="Path_7678" data-name="Path 7678" d="M226.884,107.833a5.9,5.9,0,0,1,.115,2.634c-.344.8-3.665.916-4.7,1.031s-6.757.115-7.9,5.611-2.52,11.337-3.207,14.543-2.061,6.069-2.061,7.444,2.061,2.748,4.008,2.634,2.291-1.146,2.863-2.977S218.524,132,218.524,132s1.718,3.321,3.092,4.467,1.374,1.947,1.374,3.435a6.424,6.424,0,0,1-1.031,3.436c-.458.687-2.519,4.58-2.519,4.58s8.818,3.436,17.063,3.321a41.977,41.977,0,0,0,15.345-3.436,59.942,59.942,0,0,0-2.634-7.672c-1.374-2.977.687-11.91,1.374-17.292s1.145-6.528.114-8.589-3.55-3.092-6.756-3.321-5.841-.343-6.642-.687-1.031-2.748-1.031-2.748Z" transform="translate(-139.647 -71.775)" fill="#fff"/>
        <path id="Path_7679" data-name="Path 7679" d="M226.884,107.833a5.9,5.9,0,0,1,.115,2.634c-.344.8-3.665.916-4.7,1.031s-6.757.115-7.9,5.611-2.52,11.337-3.207,14.543-2.061,6.069-2.061,7.444,2.061,2.748,4.008,2.634,2.291-1.146,2.863-2.977S218.524,132,218.524,132s1.718,3.321,3.092,4.467,1.374,1.947,1.374,3.435a6.424,6.424,0,0,1-1.031,3.436c-.458.687-2.519,4.58-2.519,4.58s8.818,3.436,17.063,3.321a41.977,41.977,0,0,0,15.345-3.436,59.942,59.942,0,0,0-2.634-7.672c-1.374-2.977.687-11.91,1.374-17.292s1.145-6.528.114-8.589-3.55-3.092-6.756-3.321-5.841-.343-6.642-.687-1.031-2.748-1.031-2.748Z" transform="translate(-139.647 -71.775)" fill="none" stroke="#000" stroke-linecap="round" stroke-linejoin="round" stroke-width="1"/>
        <line id="Line_399" data-name="Line 399" x2="0.411" y2="2.055" transform="translate(88.765 39.428)" fill="none" stroke="#000" stroke-linecap="round" stroke-linejoin="round" stroke-width="1"/>
        <line id="Line_400" data-name="Line 400" x2="3.835" y2="1.507" transform="translate(85.477 41.209)" fill="none" stroke="#000" stroke-linecap="round" stroke-linejoin="round" stroke-width="1"/>
        <line id="Line_401" data-name="Line 401" x1="3.835" y2="1.37" transform="translate(95.887 41.483)" fill="none" stroke="#000" stroke-linecap="round" stroke-linejoin="round" stroke-width="1"/>
        <path id="Path_7680" data-name="Path 7680" d="M266.657,146.864c-.693-1.5-.512-4.52-.074-7.833-2.485-.61-5.711-2.027-6.613-5.313-1.331-4.847.906-13.842,1.5-16.049l-.077-.007-1.2-.083c-.709,2.7-3.043,11.088-5.226,13.635a9.107,9.107,0,0,1-11.323,2.069c-3.811-2.287-3.484-7.077-2.939-9.908a22.488,22.488,0,0,1,2.143-5.478c-.467.085-.978.147-1.462.194-.8,2.014-2.6,6.531-3.839,9.421-1.633,3.811-2.287,5.335-2.287,7.948a12.232,12.232,0,0,0,.559,3.662l.153-.388s1.718,3.321,3.092,4.466,1.374,1.947,1.374,3.436a6.424,6.424,0,0,1-1.031,3.435c-.458.687-2.519,4.581-2.519,4.581s8.818,3.435,17.063,3.321a41.981,41.981,0,0,0,15.345-3.436,59.942,59.942,0,0,0-2.634-7.673" transform="translate(-157.089 -78.512)" fill="#fbe551"/>
        <path id="Path_7681" data-name="Path 7681" d="M266.657,146.864c-.693-1.5-.512-4.52-.074-7.833-2.485-.61-5.711-2.027-6.613-5.313-1.331-4.847.906-13.842,1.5-16.049l-.077-.007-1.2-.083c-.709,2.7-3.043,11.088-5.226,13.635a9.107,9.107,0,0,1-11.323,2.069c-3.811-2.287-3.484-7.077-2.939-9.908a22.488,22.488,0,0,1,2.143-5.478c-.467.085-.978.147-1.462.194-.8,2.014-2.6,6.531-3.839,9.421-1.633,3.811-2.287,5.335-2.287,7.948a12.232,12.232,0,0,0,.559,3.662l.153-.388s1.718,3.321,3.092,4.466,1.374,1.947,1.374,3.436a6.424,6.424,0,0,1-1.031,3.435c-.458.687-2.519,4.581-2.519,4.581s8.818,3.435,17.063,3.321a41.981,41.981,0,0,0,15.345-3.436A59.942,59.942,0,0,0,266.657,146.864Z" transform="translate(-157.089 -78.512)" fill="none" stroke="#000" stroke-linecap="round" stroke-linejoin="round" stroke-width="1"/>
        <path id="Path_7682" data-name="Path 7682" d="M296.841,206.188c.33.111.659.214.986.307" transform="translate(-198.212 -137.679)" fill="none" stroke="#000" stroke-linecap="round" stroke-linejoin="round" stroke-width="1"/>
        <path id="Path_7683" data-name="Path 7683" d="M270.973,193.678a49.422,49.422,0,0,0,7.132,3.62" transform="translate(-180.939 -129.326)" fill="none" stroke="#000" stroke-linecap="round" stroke-linejoin="round" stroke-width="1"/>
        <path id="Path_7684" data-name="Path 7684" d="M267.7,195.316s2.4,1.415,4.464,2.5" transform="translate(-178.751 -130.42)" fill="none" stroke="#000" stroke-linecap="round" stroke-linejoin="round" stroke-width="1"/>
        <path id="Path_7685" data-name="Path 7685" d="M251.307,68.133s3.092,5.611,6.871,6.757c1.942.588,4.237-1.489,5.268-2.748s2.52-5.5,3.092-8.474-1.26-8.359-5.84-10.879-7.215-2.4-9.39,4.7,0,10.65,0,10.65" transform="translate(-167.161 -34.25)" fill="#fff"/>
        <path id="Path_7686" data-name="Path 7686" d="M251.307,68.133s3.092,5.611,6.871,6.757c1.942.588,4.237-1.489,5.268-2.748s2.52-5.5,3.092-8.474-1.26-8.359-5.84-10.879-7.215-2.4-9.39,4.7S251.307,68.133,251.307,68.133Z" transform="translate(-167.161 -34.25)" fill="none" stroke="#000" stroke-linecap="round" stroke-linejoin="round" stroke-width="1"/>
        <path id="Path_7688" data-name="Path 7688" d="M268.76,107.831a2.106,2.106,0,0,0,3.206-1.031" transform="translate(-179.461 -71.314)" fill="none" stroke="#000" stroke-linecap="round" stroke-linejoin="round" stroke-width="1"/>
        <path id="Path_7693" data-name="Path 7693" d="M213.476,179.576l-.391,2.894s-4.223,2.894-5.084,4.067-.939,3.207-.86,4.536a3.178,3.178,0,0,0,2.894,2.972c1.721.078,3.207-.939,4.3-3.989s1.955-5.631,1.955-5.631a2.5,2.5,0,0,0,.782-1.173,5.385,5.385,0,0,0,.235-2.268,4.766,4.766,0,0,1-2.19-.939c-.7-.7-1.173-1.408-1.642-.469" transform="translate(-138.3 -119.607)" fill="#fff"/>
        <path id="Path_7694" data-name="Path 7694" d="M213.476,179.576l-.391,2.894s-4.223,2.894-5.084,4.067-.939,3.207-.86,4.536a3.178,3.178,0,0,0,2.894,2.972c1.721.078,3.207-.939,4.3-3.989s1.955-5.631,1.955-5.631a2.5,2.5,0,0,0,.782-1.173,5.385,5.385,0,0,0,.235-2.268,4.766,4.766,0,0,1-2.19-.939C214.414,179.341,213.945,178.637,213.476,179.576Z" transform="translate(-138.3 -119.607)" fill="none" stroke="#000" stroke-linecap="round" stroke-linejoin="round" stroke-width="1"/>
        <path id="Path_7695" data-name="Path 7695" d="M225.042,189.194a2.9,2.9,0,0,0,.469,1.955" transform="translate(-150.257 -126.332)" fill="none" stroke="#000" stroke-linecap="round" stroke-linejoin="round" stroke-width="1"/>
        <rect id="Rectangle_840" data-name="Rectangle 840" width="11.732" height="1.721" transform="translate(81.902 54.181)" fill="#fff"/>
        <rect id="Rectangle_841" data-name="Rectangle 841" width="11.732" height="1.721" transform="translate(81.902 54.181)" fill="none" stroke="#000" stroke-linecap="round" stroke-linejoin="round" stroke-width="1"/>
        <rect id="Rectangle_842" data-name="Rectangle 842" width="4.301" height="1.721" transform="translate(81.902 54.181)" fill="#ffe551"/>
        <rect id="Rectangle_843" data-name="Rectangle 843" width="4.301" height="1.721" transform="translate(81.902 54.181)" fill="#ffb9f1" stroke="#000" stroke-linecap="round" stroke-linejoin="round" stroke-width="1"/>
        <path id="Path_7696" data-name="Path 7696" d="M226,170.253a21.175,21.175,0,0,0,3.363-1.8c1.017-.626,1.72-.626,2.033-1.173s.156-.469-1.1-.235-3.6.7-3.6.7a9.557,9.557,0,0,1,1.721-1.252c.782-.391,3.285-1.877,3.519-2.5a1.152,1.152,0,0,0-.156-1.095v-.548c0-.313-.391-.626-.391-.626v-.391c0-.391-2.033-.86-3.441-.86s-4.458.782-4.927,1.329,0,1.955,0,1.955.156.626,0,.86a1.285,1.285,0,0,0-.235,1.251c.235.548.86.939.7,1.33s-.626.782,0,1.251,1.017.626,1.095.86a1.868,1.868,0,0,0,.548.861" transform="translate(-148.709 -107.157)" fill="#fff"/>
        <path id="Path_7697" data-name="Path 7697" d="M226,170.253a21.175,21.175,0,0,0,3.363-1.8c1.017-.626,1.72-.626,2.033-1.173s.156-.469-1.1-.235-3.6.7-3.6.7a9.557,9.557,0,0,1,1.721-1.252c.782-.391,3.285-1.877,3.519-2.5a1.152,1.152,0,0,0-.156-1.095v-.548c0-.313-.391-.626-.391-.626v-.391c0-.391-2.033-.86-3.441-.86s-4.458.782-4.927,1.329,0,1.955,0,1.955.156.626,0,.86a1.285,1.285,0,0,0-.235,1.251c.235.548.86.939.7,1.33s-.626.782,0,1.251,1.017.626,1.095.86a1.868,1.868,0,0,0,.548.861" transform="translate(-148.709 -107.157)" fill="none" stroke="#000" stroke-linecap="round" stroke-linejoin="round" stroke-width="1"/>
        <path id="Path_7698" data-name="Path 7698" d="M234.863,164.243a31.028,31.028,0,0,0-6.961,1.564" transform="translate(-152.179 -109.671)" fill="none" stroke="#000" stroke-linecap="round" stroke-linejoin="round" stroke-width="1"/>
        <path id="Path_7699" data-name="Path 7699" d="M236.511,167.774a43.383,43.383,0,0,0-6.726,2.738" transform="translate(-153.436 -112.029)" fill="none" stroke="#000" stroke-linecap="round" stroke-linejoin="round" stroke-width="1"/>
        <path id="Path_7700" data-name="Path 7700" d="M236.488,243.585s-1.413-1.178-6.6-2.473-23.556,4.122-29.21,8.245c-5.066,3.694-4.829,4.947-4.711,7.656s7.3,33.686,7.3,33.686-5.889,5.064-7.42,5.771-4.24,1.885-4.24,2.474,1.06,1.3,5.654,1.3,9.893-.471,11.542-.471,3.18-.942,2.356-3.534a49.013,49.013,0,0,1-1.531-10.483c0-2.238-.354-8.951-.118-14.84s0-11.189-1.531-13.545c0,0,12.956-.236,20.73-1.3s10.836-2.827,12.014-7.656" transform="translate(-127.947 -160.868)"/>
        <path id="Path_7701" data-name="Path 7701" d="M236.488,243.585s-1.413-1.178-6.6-2.473-23.556,4.122-29.21,8.245c-5.066,3.694-4.829,4.947-4.711,7.656s7.3,33.686,7.3,33.686-5.889,5.064-7.42,5.771-4.24,1.885-4.24,2.474,1.06,1.3,5.654,1.3,9.893-.471,11.542-.471,3.18-.942,2.356-3.534a49.013,49.013,0,0,1-1.531-10.483c0-2.238-.354-8.951-.118-14.84s0-11.189-1.531-13.545c0,0,12.956-.236,20.73-1.3s10.836-2.827,12.014-7.656" transform="translate(-127.947 -160.868)" fill="none" stroke="#000" stroke-linecap="round" stroke-linejoin="round" stroke-width="1"/>
        <path id="Path_7702" data-name="Path 7702" d="M280.887,242.137s5.506-1.561,9.614-.74a12.1,12.1,0,0,1,7.478,4.848" transform="translate(-187.559 -161.031)" fill="none" stroke="#fff" stroke-linecap="round" stroke-linejoin="round" stroke-width="1"/>
        <path id="Path_7703" data-name="Path 7703" d="M329.353,244.654a5.674,5.674,0,0,1,1.064.961" transform="translate(-219.921 -163.365)" fill="none" stroke="#fff" stroke-linecap="round" stroke-linejoin="round" stroke-width="1"/>
        <path id="Path_7704" data-name="Path 7704" d="M312.318,240.792a9.413,9.413,0,0,1,4.716.7" transform="translate(-208.546 -160.75)" fill="none" stroke="#fff" stroke-linecap="round" stroke-linejoin="round" stroke-width="1"/>
        <path id="Path_7705" data-name="Path 7705" d="M219.889,244.353c-7.151,1.632-15.669,4.718-19.206,7.3-5.066,3.694-4.829,4.947-4.711,7.656s7.3,33.686,7.3,33.686-5.889,5.064-7.42,5.771-4.24,1.885-4.24,2.473,1.06,1.3,5.654,1.3,9.893-.471,11.542-.471,3.18-.942,2.356-3.534a48.994,48.994,0,0,1-1.531-10.483c0-2.238-.353-8.951-.118-14.84s0-11.189-1.531-13.545c0,0,10.822-.2,18.619-1.04.683-9.526-3.693-13-6.715-14.267" transform="translate(-127.947 -163.164)" fill="#fff"/>
        <path id="Path_7706" data-name="Path 7706" d="M219.889,244.353c-7.151,1.632-15.669,4.718-19.206,7.3-5.066,3.694-4.829,4.947-4.711,7.656s7.3,33.686,7.3,33.686-5.889,5.064-7.42,5.771-4.24,1.885-4.24,2.473,1.06,1.3,5.654,1.3,9.893-.471,11.542-.471,3.18-.942,2.356-3.534a48.994,48.994,0,0,1-1.531-10.483c0-2.238-.353-8.951-.118-14.84s0-11.189-1.531-13.545c0,0,10.822-.2,18.619-1.04C227.287,249.094,222.911,245.616,219.889,244.353Z" transform="translate(-127.947 -163.164)" fill="none" stroke="#000" stroke-linecap="round" stroke-linejoin="round" stroke-width="1"/>
        <path id="Path_7707" data-name="Path 7707" d="M202.462,379.295c.5,2.163.811,3.517.811,3.517s-5.889,5.065-7.42,5.771-4.24,1.885-4.24,2.473,1.06,1.3,5.654,1.3,9.893-.471,11.542-.471,3.18-.942,2.356-3.534a49.57,49.57,0,0,1-1.5-9.481,16.875,16.875,0,0,1-7.2.428" transform="translate(-127.947 -252.984)"/>
        <path id="Path_7708" data-name="Path 7708" d="M202.462,379.295c.5,2.163.811,3.517.811,3.517s-5.889,5.065-7.42,5.771-4.24,1.885-4.24,2.473,1.06,1.3,5.654,1.3,9.893-.471,11.542-.471,3.18-.942,2.356-3.534a49.57,49.57,0,0,1-1.5-9.481A16.875,16.875,0,0,1,202.462,379.295Z" transform="translate(-127.947 -252.984)" fill="none" stroke="#000" stroke-linecap="round" stroke-linejoin="round" stroke-width="1"/>
        <path id="Path_7709" data-name="Path 7709" d="M258.9,55.979c-.1-1.778-1.255-.941-1.673-1.882s.628-1.464.523-3.765-1.882-2.51-2.928-3.451.209-1.569.314-3.137-1.255-2.51-2.091-3.242-.732-1.569-.209-3.765-1.569-4.078-2.614-4.6a1.846,1.846,0,0,1-.986-.984c-.26-2.166-1.616-3.239-3.668-3.906-1.54-.5-3.124.02-4.63-.44a7.536,7.536,0,0,1-1.878-1.1,9.374,9.374,0,0,0-11.791,1.508c-2.138,2.4-2.852,5.723-4.5,8.479a8.389,8.389,0,0,0-1.388,2.885c-.158,1.033.188,2.122-.126,3.12-.384,1.223-1.634,1.949-2.312,3.037a3.655,3.655,0,0,0-.457,2.706,3.986,3.986,0,0,1,.289,2c-.251.814-1.239,1.208-1.544,2-.53,1.382,1.3,2.811.868,4.228a12.773,12.773,0,0,1-.806,1.395,2.512,2.512,0,0,0,.42,2.451,7.4,7.4,0,0,0,1.991,1.661c.335-2.51,2.94-4.092,5.417-4.621a13.632,13.632,0,0,0,3.7-.983,2.2,2.2,0,0,0,1.108-2.849,12.283,12.283,0,0,1-.279-2.075c-.188-1.414,1.665-2.842.85-4.013a6.417,6.417,0,0,1-.484-.592c-.639-1.2,1.944-2.2,1.538-3.5-.123-.392-.512-.679-.561-1.088-.054-.454.325-.828.651-1.148a9.906,9.906,0,0,0,2.781-5.225,4.713,4.713,0,0,0,3.7,4.27c.7.134,1.623.282,1.714.986a2.257,2.257,0,0,1-.285,1,2.075,2.075,0,0,0,.772,2.354,3.07,3.07,0,0,1,.822.584c.629.834-.525,1.915-.522,2.959,0,1.332,1.776,1.916,2.315,3.134.524,1.183-.216,2.752.582,3.769.218.278.007.5.1.728.156.392.108.118.472.482,1.208,1.208,2.636.406,3.928,1.04.017.008,1.133-.008,1.15,0,1.373.65,2.576-.2,4.054.06a9.667,9.667,0,0,1,1.666.639c2.687,1.326,2.228,2.542,2.228,2.542s1.882-1.882,1.778-3.66" transform="translate(-144.986 -16.207)"/>
        <path id="Path_7710" data-name="Path 7710" d="M258.9,55.979c-.1-1.778-1.255-.941-1.673-1.882s.628-1.464.523-3.765-1.882-2.51-2.928-3.451.209-1.569.314-3.137-1.255-2.51-2.091-3.242-.732-1.569-.209-3.765-1.569-4.078-2.614-4.6a1.846,1.846,0,0,1-.986-.984c-.26-2.166-1.616-3.239-3.668-3.906-1.54-.5-3.124.02-4.63-.44a7.536,7.536,0,0,1-1.878-1.1,9.374,9.374,0,0,0-11.791,1.508c-2.138,2.4-2.852,5.723-4.5,8.479a8.389,8.389,0,0,0-1.388,2.885c-.158,1.033.188,2.122-.126,3.12-.384,1.223-1.634,1.949-2.312,3.037a3.655,3.655,0,0,0-.457,2.706,3.986,3.986,0,0,1,.289,2c-.251.814-1.239,1.208-1.544,2-.53,1.382,1.3,2.811.868,4.228a12.773,12.773,0,0,1-.806,1.395,2.512,2.512,0,0,0,.42,2.451,7.4,7.4,0,0,0,1.991,1.661c.335-2.51,2.94-4.092,5.417-4.621a13.632,13.632,0,0,0,3.7-.983,2.2,2.2,0,0,0,1.108-2.849,12.283,12.283,0,0,1-.279-2.075c-.188-1.414,1.665-2.842.85-4.013a6.417,6.417,0,0,1-.484-.592c-.639-1.2,1.944-2.2,1.538-3.5-.123-.392-.512-.679-.561-1.088-.054-.454.325-.828.651-1.148a9.906,9.906,0,0,0,2.781-5.225,4.713,4.713,0,0,0,3.7,4.27c.7.134,1.623.282,1.714.986a2.257,2.257,0,0,1-.285,1,2.075,2.075,0,0,0,.772,2.354,3.07,3.07,0,0,1,.822.584c.629.834-.525,1.915-.522,2.959,0,1.332,1.776,1.916,2.315,3.134.524,1.183-.216,2.752.582,3.769.218.278.007.5.1.728.156.392.108.118.472.482,1.208,1.208,2.636.406,3.928,1.04.017.008,1.133-.008,1.15,0,1.373.65,2.576-.2,4.054.06a9.667,9.667,0,0,1,1.666.639c2.687,1.326,2.228,2.542,2.228,2.542S259.007,57.757,258.9,55.979Z" transform="translate(-144.986 -16.207)" fill="none" stroke="#000" stroke-linecap="round" stroke-linejoin="round" stroke-width="1"/>
        <path id="Path_7711" data-name="Path 7711" d="M314.989,129.282s1.095,15.095,1.251,16.894.313,5.475,2.268,6.961,3.441,1.486,4.067.548,1.017-3.52,1.017-7.039a143.283,143.283,0,0,0-1.33-18.77c-.63-3.551-.688-6.325-2.722-7.42a8.3,8.3,0,0,0-5.96-.314" transform="translate(-209.39 -79.95)" fill="#fff"/>
        <path id="Path_7712" data-name="Path 7712" d="M314.989,129.282s1.095,15.095,1.251,16.894.313,5.475,2.268,6.961,3.441,1.486,4.067.548,1.017-3.52,1.017-7.039a143.283,143.283,0,0,0-1.33-18.77c-.63-3.551-.688-6.325-2.722-7.42a8.3,8.3,0,0,0-5.96-.314" transform="translate(-209.39 -79.95)" fill="none" stroke="#000" stroke-linecap="round" stroke-linejoin="round" stroke-width="1"/>
        <path id="Path_7713" data-name="Path 7713" d="M297.336,174.75l.946,2.762s8.477,5.216,9.549,6.2,1.544,2.963,1.726,4.282a3.179,3.179,0,0,1-2.26,3.478c-1.673.411-2.848-.649-5-3.076-1.738-1.966-6.785-8.342-6.785-8.342s-.429-.154-1-1a5.385,5.385,0,0,1-.671-2.179,4.766,4.766,0,0,0,1.966-1.346c.554-.827.877-1.609,1.52-.78" transform="translate(-196.215 -116.451)" fill="#fff"/>
        <path id="Path_7714" data-name="Path 7714" d="M297.336,174.75l.946,2.762s8.477,5.216,9.549,6.2,1.544,2.963,1.726,4.282a3.179,3.179,0,0,1-2.26,3.478c-1.673.411-2.848-.649-5-3.076-1.738-1.966-6.785-8.342-6.785-8.342s-.429-.154-1-1a5.385,5.385,0,0,1-.671-2.179,4.766,4.766,0,0,0,1.966-1.346C296.37,174.7,296.693,173.921,297.336,174.75Z" transform="translate(-196.215 -116.451)" fill="none" stroke="#000" stroke-linecap="round" stroke-linejoin="round" stroke-width="1"/>
        <path id="Path_7715" data-name="Path 7715" d="M307.028,183.776a2.9,2.9,0,0,1-.08,2.009" transform="translate(-204.961 -122.714)" fill="#fff"/>
        <path id="Path_7716" data-name="Path 7716" d="M307.028,183.776a2.9,2.9,0,0,1-.08,2.009" transform="translate(-204.961 -122.714)" fill="none" stroke="#000" stroke-linecap="round" stroke-linejoin="round" stroke-width="1"/>
        <path id="Path_7717" data-name="Path 7717" d="M285.426,167.162a21.179,21.179,0,0,1-3.649-1.11c-1.119-.416-1.809-.279-2.223-.756s-.245-.43,1.028-.443,3.666-.009,3.666-.009a9.564,9.564,0,0,0-1.931-.893c-.843-.232-3.587-1.2-3.939-1.771a1.153,1.153,0,0,1-.059-1.1l-.106-.537c-.061-.307.262-.69.262-.69l-.076-.384c-.076-.383,1.827-1.239,3.208-1.513s4.525-.1,5.092.346.38,1.918.38,1.918-.032.644.167.844a1.285,1.285,0,0,1,.474,1.182c-.124.583-.662,1.088-.432,1.441s.766.645.243,1.227-.876.811-.907,1.057a1.871,1.871,0,0,1-.37.951" transform="translate(-185.768 -105.383)" fill="#fff"/>
        <path id="Path_7718" data-name="Path 7718" d="M285.426,167.162a21.179,21.179,0,0,1-3.649-1.11c-1.119-.416-1.809-.279-2.223-.756s-.245-.43,1.028-.443,3.666-.009,3.666-.009a9.564,9.564,0,0,0-1.931-.893c-.843-.232-3.587-1.2-3.939-1.771a1.153,1.153,0,0,1-.059-1.1l-.106-.537c-.061-.307.262-.69.262-.69l-.076-.384c-.076-.383,1.827-1.239,3.208-1.513s4.525-.1,5.092.346.38,1.918.38,1.918-.032.644.167.844a1.285,1.285,0,0,1,.474,1.182c-.124.583-.662,1.088-.432,1.441s.766.645.243,1.227-.876.811-.907,1.057a1.871,1.871,0,0,1-.37.951" transform="translate(-185.768 -105.383)" fill="none" stroke="#000" stroke-linecap="round" stroke-linejoin="round" stroke-width="1"/>
        <path id="Path_7719" data-name="Path 7719" d="M279.017,163.661a31.039,31.039,0,0,1,7.132.181" transform="translate(-186.31 -109.196)" fill="none" stroke="#000" stroke-linecap="round" stroke-linejoin="round" stroke-width="1"/>
        <path id="Path_7720" data-name="Path 7720" d="M278.549,167.616a43.387,43.387,0,0,1,7.13,1.377" transform="translate(-185.998 -111.924)" fill="none" stroke="#000" stroke-linecap="round" stroke-linejoin="round" stroke-width="1"/>
      </g>
    </g>
    <g id="Group_1185" data-name="Group 1185">
      <g id="Group_1184" data-name="Group 1184" clip-path="url(#clip-path)">
        <path id="Path_7721" data-name="Path 7721" d="M308.066,79.834l16.485-18.526h-.067a3.891,3.891,0,0,1-3.891-3.891v-8a3.891,3.891,0,0,1,3.891-3.891h34.774a3.891,3.891,0,0,1,3.891,3.891v8a3.891,3.891,0,0,1-3.891,3.891H328.173Z" transform="translate(-205.707 -30.397)" fill="#fff"/>
        <path id="Path_7722" data-name="Path 7722" d="M308.066,79.834l16.485-18.526h-.067a3.891,3.891,0,0,1-3.891-3.891v-8a3.891,3.891,0,0,1,3.891-3.891h34.774a3.891,3.891,0,0,1,3.891,3.891v8a3.891,3.891,0,0,1-3.891,3.891H328.173Z" transform="translate(-205.707 -30.397)" fill="none" stroke="#000" stroke-linecap="round" stroke-linejoin="round" stroke-width="1"/>
        <path id="Path_7723" data-name="Path 7723" d="M366.8,60.073a4.587,4.587,0,0,0-.9-.091,4.286,4.286,0,0,0-2.26.617,6,6,0,0,1-4.039.362,4.524,4.524,0,0,1-1.082-.454,4.324,4.324,0,0,0-2.1-.525c-1.995,0-3.612,1.253-3.612,2.8s1.617,2.8,3.612,2.8a4.347,4.347,0,0,0,2.044-.493,5.7,5.7,0,0,1,2.551-.73,5.9,5.9,0,0,1,1.709.214,4.663,4.663,0,0,1,1.045.466,4.317,4.317,0,0,0,2.131.542,4.613,4.613,0,0,0,.9-.091v.024l23.181-1.476a1.045,1.045,0,0,0,.024-2.08Z" transform="translate(-235.584 -40.052)" fill="none" stroke="#000" stroke-linecap="round" stroke-linejoin="round" stroke-width="1"/>
        <path id="Path_7724" data-name="Path 7724" d="M435.444,63.546l-14.591-1.185v4.192l14.566-.928a1.045,1.045,0,0,0,.024-2.08" transform="translate(-281.019 -41.641)" fill="#fbe551"/>
        <path id="Path_7725" data-name="Path 7725" d="M435.444,63.546l-14.591-1.185v4.192l14.566-.928a1.045,1.045,0,0,0,.024-2.08Z" transform="translate(-281.019 -41.641)" fill="none" stroke="#000" stroke-linecap="round" stroke-linejoin="round" stroke-width="1"/>
        <path id="Path_7726" data-name="Path 7726" d="M397.891,67.206h-3.428a1.16,1.16,0,0,1-1.16-1.16v-.059a1.16,1.16,0,0,1,1.16-1.16h3.428a1.16,1.16,0,0,1,1.16,1.16v.059a1.16,1.16,0,0,1-1.16,1.16" transform="translate(-262.623 -43.288)" fill="#b1b1b1"/>
        <rect id="Rectangle_845" data-name="Rectangle 845" width="5.747" height="2.378" rx="1.189" transform="translate(130.68 21.54)" fill="none" stroke="#000" stroke-linecap="round" stroke-linejoin="round" stroke-width="1"/>
        <line id="Line_402" data-name="Line 402" y2="1.442" transform="translate(132.943 22.038)" fill="none" stroke="#000" stroke-linecap="round" stroke-linejoin="round" stroke-width="1"/>
        <line id="Line_403" data-name="Line 403" y2="1.442" transform="translate(134.163 22.038)" fill="none" stroke="#000" stroke-linecap="round" stroke-linejoin="round" stroke-width="1"/>
      </g>
    </g>
  </g>
</svg>
