<svg xmlns="http://www.w3.org/2000/svg" width="1135.494" height="1139.048" viewBox="0 0 1135.494 1139.048">
  <path id="Path_8603" data-name="Path 8603" d="M840.8,376.2c27,116.7,16.7,238,6.8,356.1h19.2C882.9,539,895.2,318,756.2,162.9c-62-69.2-148-105.5-237.3-124.8C412.1,14.9,300.8,6.5,191.7,2,127.8-.6,63.9-.6,0,1.6v19c149.2-5.3,298.9,2,446.3,23.9,92.3,13.7,187.3,36.9,260.8,97.6C778.1,200.7,820.3,287.9,840.8,376.2Z" transform="matrix(0.695, -0.719, 0.719, 0.695, 0.002, 630.35)" fill="#fbe551"/>
</svg>
