<svg xmlns="http://www.w3.org/2000/svg" width="1420.418" height="1501.279" viewBox="0 0 1420.418 1501.279">
  <g id="Group_1544" data-name="Group 1544" transform="translate(402.614 1891.267) rotate(-124)">
    <path id="Path_8603" data-name="Path 8603" d="M1142.64,483.937c36.693-158.594,22.7-323.44,9.241-483.937h26.093c21.88,262.693,38.6,563.03-150.3,773.81-84.257,94.042-201.131,143.374-322.489,169.6-145.14,31.529-296.4,42.944-444.662,49.06-86.84,3.533-173.679,3.533-260.519.544V967.195c202.762,7.2,406.2-2.718,606.518-32.48C731.953,916.1,861.057,884.568,960.943,802.077,1057.431,722.44,1114.781,603.936,1142.64,483.937Z" transform="matrix(0.695, 0.719, -0.719, 0.695, 715.883, 237.72)" fill="#fbe551"/>
    <path id="Path_8604" data-name="Path 8604" d="M1142.64,483.937c36.693-158.594,22.7-323.44,9.241-483.937h26.093c21.88,262.693,38.6,563.03-150.3,773.81-84.257,94.042-201.131,143.374-322.489,169.6-145.14,31.529-296.4,42.944-444.662,49.06-86.84,3.533-173.679,3.533-260.519.544V967.195c202.762,7.2,406.2-2.718,606.518-32.48C731.953,916.1,861.057,884.568,960.943,802.077,1057.431,722.44,1114.781,603.936,1142.64,483.937Z" transform="matrix(0.695, 0.719, -0.719, 0.695, 720.761, 125.984)" fill="#fbe551"/>
    <path id="Path_8605" data-name="Path 8605" d="M1142.64,483.937c36.693-158.594,22.7-323.44,9.241-483.937h26.093c21.88,262.693,38.6,563.03-150.3,773.81-84.257,94.042-201.131,143.374-322.489,169.6-145.14,31.529-296.4,42.944-444.662,49.06-86.84,3.533-173.679,3.533-260.519.544V967.195c202.762,7.2,406.2-2.718,606.518-32.48C731.953,916.1,861.057,884.568,960.943,802.077,1057.431,722.44,1114.781,603.936,1142.64,483.937Z" transform="matrix(0.695, 0.719, -0.719, 0.695, 719.992, 0)" fill="#fbe551"/>
  </g>
</svg>
