<svg xmlns="http://www.w3.org/2000/svg" width="1906.343" height="1320.849" viewBox="0 0 1906.343 1320.849">
  <path id="_68-shape" data-name="68-shape" d="M31.855,587.047c69.055-141.887,223.326-211.782,370.25-243.056,94.032-20.15,190.372-27.5,285.454-41.349,98.44-14.483,195.83-34.632,292.59-57.93,212.411-51.634,529.188-64.558,738.87-126.267,52.473-15.322-3.617-85.515,49.276-100,34.632-9.445,96.131-35.682,125.1-1.049,35.052,41.769-10.7,179.038-22.878,230.252-25.4,107.045-58.35,212.831-92.143,317.567-66.326,205.9-143.147,408.241-223.745,608.9-22.878,57.091-52.263,114.811-114.181,136.43-74.3,26.237-157.839-3.568-230.042-22.668Q909.73,1208.539,608.85,1128.989c-161.2-42.608-355.138-67.8-489.469-174C4.15,863.475-33.211,720.748,31.855,587.047Z" transform="translate(1906.363 1320.869) rotate(180)" fill="#fbe551"/>
</svg>
