<svg xmlns="http://www.w3.org/2000/svg" width="1035.961" height="934.247" viewBox="0 0 1035.961 934.247">
  <g id="_94-lines" data-name="94-lines" transform="matrix(-0.966, 0.259, -0.259, -0.966, 1035.961, 707.444)">
    <path id="Path_8263" data-name="Path 8263" d="M840.8,376.2c27,116.7,16.7,238,6.8,356.1h19.2C882.9,539,895.2,318,756.2,162.9c-62-69.2-148-105.5-237.3-124.8C412.1,14.9,300.8,6.5,191.7,2,127.8-.6,63.9-.6,0,1.6v19c149.2-5.3,298.9,2,446.3,23.9,92.3,13.7,187.3,36.9,260.8,97.6C778.1,200.7,820.3,287.9,840.8,376.2Z" fill="#fbe551"/>
    <path id="Path_8264" data-name="Path 8264" d="M745.7,476.1c19.4,84,19.5,170.4,14.4,256.3h18.8c8.8-166.2-2.2-340.7-117.6-469.6-62-69.2-148-105.5-237.3-124.8-106.9-23.2-218.2-31.6-327.2-36-32.4-1.4-64.6-2-96.8-2v19.1c117.6.1,235.1,8,351.2,25.3C443.5,158.1,538.5,181.3,612,242,683,300.6,725.2,387.8,745.7,476.1Z" fill="#fbe551"/>
    <path id="Path_8265" data-name="Path 8265" d="M662,732.4h18.3c-2.7-131.7-28.9-261.3-119.8-362.8-62-69.2-148-105.5-237.3-124.8C217.7,221.9,107.7,213.4,0,208.9v18.9a2362.12,2362.12,0,0,1,250.6,23.3c92.3,13.7,187.3,36.9,260.8,97.6,71,58.6,113.2,145.8,133.6,234.2C656.4,632.1,661,682.1,662,732.4Z" fill="#fbe551"/>
  </g>
</svg>
