<svg xmlns="http://www.w3.org/2000/svg" width="1643.401" height="1331.764" viewBox="0 0 1643.401 1331.764">
  <path id="_68-shape" data-name="68-shape" d="M23.984,441.894c51.98-106.8,168.1-159.415,278.7-182.956,70.781-15.167,143.3-20.7,214.87-31.125,74.1-10.9,147.407-26.069,220.242-43.606,159.889-38.866,398.337-48.6,556.172-95.045,39.5-11.533-2.723-64.37,37.091-75.271,26.069-7.11,72.361-26.859,94.164-.79,26.385,31.441-8.058,134.768-17.221,173.318-19.117,80.576-43.922,160.2-69.359,239.043-49.926,154.991-107.751,307.3-168.42,458.337-17.221,42.974-39.34,86.422-85.948,102.7-55.93,19.749-118.81-2.686-173.16-17.063q-226.325-59.721-452.808-119.6C336.967,817.759,190.982,798.8,89.867,718.856,3.128,649.971-24.994,542.536,23.984,441.894Z" transform="matrix(0.966, -0.259, 0.259, 0.966, -0.025, 371.382)" fill="#fff"/>
</svg>
