<svg id="Group_2626" data-name="Group 2626" xmlns="http://www.w3.org/2000/svg" xmlns:xlink="http://www.w3.org/1999/xlink" width="113.194" height="143.759" viewBox="0 0 113.194 143.759">
  <defs>
    <clipPath id="clip-path">
      <rect id="Rectangle_141" data-name="Rectangle 141" width="113.194" height="143.759" fill="none"/>
    </clipPath>
    <clipPath id="clip-path-3">
      <rect id="Rectangle_139" data-name="Rectangle 139" width="31.635" height="5.893" fill="none"/>
    </clipPath>
  </defs>
  <g id="Group_208" data-name="Group 208" clip-path="url(#clip-path)">
    <g id="Group_207" data-name="Group 207">
      <g id="Group_206" data-name="Group 206" clip-path="url(#clip-path)">
        <path id="Path_5639" data-name="Path 5639" d="M47.651,24.323c-1.568-1.621-1.3-4.46-1.173-6.511A24.423,24.423,0,0,0,45,6.826,8.769,8.769,0,0,0,39.949,1.8a14.053,14.053,0,0,0-7.571-.2,9.1,9.1,0,0,0-6.4,5.33,18.081,18.081,0,0,0-1.142,5.176,27.968,27.968,0,0,0,.076,4.719c.247,3.645.247,6.086-1.112,7.491s-4.078,5.545-1.73,9.808c1.683,3.056,7.971,2.365,11.4,1.73a12.334,12.334,0,0,1,4.517,0c3.425.636,9.713,1.327,11.4-1.73,2.348-4.263-.371-8.4-1.73-9.808" transform="translate(-10.886 -0.609)"/>
        <path id="Path_5640" data-name="Path 5640" d="M38.137,230.9H26.71a39.781,39.781,0,0,0,.272,4.124c1.281,3.444,6.626,18.017,6.084,20.047a4.893,4.893,0,0,1-2.189,3.1,10.122,10.122,0,0,0,7.259,0,9.9,9.9,0,0,1-1-4.509c.132-2.733.514-4.646.73-7.885a24.51,24.51,0,0,0-.154-5.283c-.126-1.451-.854-2.893-.644-4.327a49.148,49.148,0,0,1,1.067-5.266" transform="translate(-13.748 -118.852)" fill="#fff"/>
        <path id="Path_5641" data-name="Path 5641" d="M38.137,230.9H26.71a39.781,39.781,0,0,0,.272,4.124c1.281,3.444,6.626,18.017,6.084,20.047a4.893,4.893,0,0,1-2.189,3.1,10.122,10.122,0,0,0,7.259,0,9.9,9.9,0,0,1-1-4.509c.132-2.733.514-4.646.73-7.885a24.51,24.51,0,0,0-.154-5.283c-.126-1.451-.854-2.893-.644-4.327A49.148,49.148,0,0,1,38.137,230.9Z" transform="translate(-13.748 -118.852)" fill="none" stroke="#231f20" stroke-width="0.5"/>
        <path id="Path_5642" data-name="Path 5642" d="M29.551,242.17a15.176,15.176,0,0,0,4.984.5,24.7,24.7,0,0,0,3.309-.882c-.041-.41-.088-.814-.13-1.291-.126-1.451-.854-2.893-.644-4.327a49.148,49.148,0,0,1,1.067-5.266H26.71a39.765,39.765,0,0,0,.272,4.124c.471,1.267,1.493,4.041,2.569,7.142" transform="translate(-13.748 -118.852)" fill="#fff"/>
        <path id="Path_5643" data-name="Path 5643" d="M29.551,242.17a15.176,15.176,0,0,0,4.984.5,24.7,24.7,0,0,0,3.309-.882c-.041-.41-.088-.814-.13-1.291-.126-1.451-.854-2.893-.644-4.327a49.148,49.148,0,0,1,1.067-5.266H26.71a39.765,39.765,0,0,0,.272,4.124C27.453,236.295,28.475,239.069,29.551,242.17Z" transform="translate(-13.748 -118.852)" fill="none" stroke="#231f20" stroke-width="0.5"/>
        <path id="Path_5644" data-name="Path 5644" d="M52.117,230.9H63.544a39.782,39.782,0,0,1-.272,4.124c-1.281,3.444-6.626,18.017-6.084,20.047a4.893,4.893,0,0,0,2.189,3.1,10.122,10.122,0,0,1-7.259,0,9.9,9.9,0,0,0,1-4.509c-.132-2.733-.514-4.646-.73-7.885a24.478,24.478,0,0,1,.154-5.283c.126-1.451.854-2.893.644-4.327a49.148,49.148,0,0,0-1.067-5.266" transform="translate(-26.826 -118.852)" fill="#fff"/>
        <path id="Path_5645" data-name="Path 5645" d="M52.117,230.9H63.544a39.782,39.782,0,0,1-.272,4.124c-1.281,3.444-6.626,18.017-6.084,20.047a4.893,4.893,0,0,0,2.189,3.1,10.122,10.122,0,0,1-7.259,0,9.9,9.9,0,0,0,1-4.509c-.132-2.733-.514-4.646-.73-7.885a24.478,24.478,0,0,1,.154-5.283c.126-1.451.854-2.893.644-4.327A49.148,49.148,0,0,0,52.117,230.9Z" transform="translate(-26.826 -118.852)" fill="none" stroke="#231f20" stroke-width="0.5"/>
        <path id="Path_5646" data-name="Path 5646" d="M52.539,240.5c-.035.409-.076.765-.112,1.117-.064.063.718.322,1.187.476,2.437.795,3.516.958,6.092.1.443-.147.807-.505,1.22-.667.991-2.837,1.906-5.32,2.344-6.5a39.645,39.645,0,0,0,.272-4.124H52.116a49.028,49.028,0,0,1,1.067,5.266c.209,1.434-.518,2.876-.644,4.327" transform="translate(-26.825 -118.852)" fill="#fff"/>
        <path id="Path_5647" data-name="Path 5647" d="M52.539,240.5c-.035.409-.076.765-.112,1.117-.064.063.718.322,1.187.476,2.437.795,3.516.958,6.092.1.443-.147.807-.505,1.22-.667.991-2.837,1.906-5.32,2.344-6.5a39.645,39.645,0,0,0,.272-4.124H52.116a49.028,49.028,0,0,1,1.067,5.266C53.392,237.6,52.665,239.046,52.539,240.5Z" transform="translate(-26.825 -118.852)" fill="none" stroke="#231f20" stroke-width="0.5"/>
        <path id="Path_5648" data-name="Path 5648" d="M45.275,135.7c-2.457,2.693-10.674.679-13.909.912H27.749c-3.235-.233-11.451,1.781-13.909-.912,0,0-6.233,5.837-4.274,14.179s7.566,19.722,7.566,21.592-1.075,6.319-1,9.815S19.984,191.6,19.984,191.6a8.663,8.663,0,0,0,8.711-.109s.5-5.442.384-10.05-.038-8.659,0-11.281c.012-.794.245-25,.478-25s.468,24.206.48,25c.038,2.622.115,6.674,0,11.281s.384,10.05.384,10.05a8.663,8.663,0,0,0,8.711.109s3.772-6.822,3.849-10.317-1-7.944-1-9.815,5.608-13.25,7.567-21.592S45.275,135.7,45.275,135.7" transform="translate(-4.728 -69.847)"/>
        <g id="Group_205" data-name="Group 205" transform="translate(8.972 65.851)" opacity="0.45" style="mix-blend-mode: multiply;isolation: isolate">
          <g id="Group_204" data-name="Group 204">
            <g id="Group_203" data-name="Group 203" clip-path="url(#clip-path-3)">
              <path id="Path_5649" data-name="Path 5649" d="M21.013,139.111c3.767,3.263,8.432,2.137,13.045,2.364,4.528.222,8.607.3,12.81-1.45,1.664-.692,2.38-2.828,3.255-4.269l-.06-.06c-2.457,2.693-10.674.679-13.909.912H32.538c-3.235-.233-11.452,1.781-13.909-.912,0,0-.057.056-.14.142,1.138.778,1.393,2.292,2.524,3.272" transform="translate(-18.489 -135.697)" fill="#2e445c"/>
            </g>
          </g>
        </g>
        <path id="Path_5650" data-name="Path 5650" d="M22.6,191.7c-2.518-5.123-3.878-10.212-2.957-16.013.789-4.967.318-14.4-2.819-18.423a18.007,18.007,0,0,1-3.691-6.684,23.65,23.65,0,0,1,.461-14.366c-1.136,1.193-5.747,6.589-4.024,13.927,1.959,8.342,7.567,19.722,7.567,21.592s-1.075,6.319-1,9.815,3.849,10.317,3.849,10.317a8.835,8.835,0,0,0,3.28,1.071c-.262-.442-.488-.873-.666-1.236" transform="translate(-4.728 -70.114)" fill="#001423"/>
        <path id="Path_5651" data-name="Path 5651" d="M64.842,191.7c2.518-5.123,3.878-10.212,2.957-16.013-.789-4.967-.318-14.4,2.819-18.423a18,18,0,0,0,3.691-6.684,23.65,23.65,0,0,0-.461-14.366c1.136,1.193,5.748,6.589,4.024,13.927-1.959,8.342-7.566,19.722-7.566,21.592s1.075,6.319,1,9.815-3.849,10.317-3.849,10.317a8.84,8.84,0,0,1-3.281,1.071c.262-.442.488-.873.666-1.236" transform="translate(-33.033 -70.114)"/>
        <path id="Path_5652" data-name="Path 5652" d="M50.619,145.051c.254-.363.614-1.847-.365-.715a9.82,9.82,0,0,1-1.939,1.529,3.361,3.361,0,0,1-3.649,0,9.791,9.791,0,0,1-1.939-1.529c-.979-1.132-.619.351-.365.715a31.4,31.4,0,0,0,2.317,2.959,5.966,5.966,0,0,1,.141,2.99c-2.151,7.557-.167,19.8-.691,23.709a17.106,17.106,0,0,0-.2,3.31c.079,1.3.36,4.011.453,5.313a89.28,89.28,0,0,1,.328,9.767,21.544,21.544,0,0,1-.227,3.2,8.718,8.718,0,0,0,1.145-.578s.5-5.442.384-10.05-.038-8.659,0-11.281c.012-.795.245-25,.478-25h0v.043a.013.013,0,1,1,.02,0v-.043h0c.234,0,.467,24.207.478,25,.038,2.621.115,6.673,0,11.281s.384,10.05.384,10.05a8.748,8.748,0,0,0,1.145.578,21.549,21.549,0,0,1-.227-3.2,89.161,89.161,0,0,1,.328-9.767c.093-1.3.374-4.01.453-5.313a17.183,17.183,0,0,0-.2-3.31c-.525-3.91,1.459-16.152-.692-23.709a6.016,6.016,0,0,1,.148-3.019,31.523,31.523,0,0,0,2.29-2.93" transform="translate(-21.661 -74.078)"/>
        <path id="Path_5653" data-name="Path 5653" d="M47.446,44.921c-.914-.278-.318-5.243-.318-5.243l-3.019.437-3.019-.437s.6,4.965-.318,5.243-3.336,1.072-3.336,1.072,1.072,12.1,6.673,12.1,6.674-12.1,6.674-12.1-2.423-.794-3.337-1.072" transform="translate(-19.269 -20.423)" fill="#fff"/>
        <path id="Path_5654" data-name="Path 5654" d="M47.446,44.921c-.914-.278-.318-5.243-.318-5.243l-3.019.437-3.019-.437s.6,4.965-.318,5.243-3.336,1.072-3.336,1.072,1.072,12.1,6.673,12.1,6.674-12.1,6.674-12.1S48.36,45.2,47.446,44.921Z" transform="translate(-19.269 -20.423)" fill="none" stroke="#231f20" stroke-width="0.5"/>
        <path id="Path_5655" data-name="Path 5655" d="M51.357,45.422c-.6-.194-1.212-.389-1.579-.5-.914-.278-.318-5.243-.318-5.243l-3.019.437-3.019-.437s.6,4.965-.318,5.243c-.277.084-.693.216-1.137.359,3.193,2.174,6.329,1.429,9.39.142" transform="translate(-21.601 -20.423)" fill="#fff"/>
        <path id="Path_5656" data-name="Path 5656" d="M51.357,45.422c-.6-.194-1.212-.389-1.579-.5-.914-.278-.318-5.243-.318-5.243l-3.019.437-3.019-.437s.6,4.965-.318,5.243c-.277.084-.693.216-1.137.359C45.16,47.454,48.3,46.709,51.357,45.422Z" transform="translate(-21.601 -20.423)" fill="none" stroke="#231f20" stroke-width="0.5"/>
        <path id="Path_5657" data-name="Path 5657" d="M17.274,52.815s-3.337.238-4.826,1.132S7.263,58.773,4.88,64.2A88.213,88.213,0,0,0,.292,78.019c-.238,1.37.536,6.018,2.324,10.725s4.766,9.235,5,10.963.04,4.846.437,6.316,3.762,7.488,4.647,6.2c.4-.591-1.629-4.489-1.708-5.363s-.556-4.25-.2-3.5a19.93,19.93,0,0,1,1.629,2.9c.437,1.271,1.747,1.192,1.469-.318a13.069,13.069,0,0,0-2.621-5.044c-1.033-1.152-2.287-5.839-2.514-10.606s-.408-10.407,0-12.314,5.811-10.328,6.129-13.267,2.383-6.872,2.383-11.9" transform="translate(-0.129 -27.185)" fill="#fff"/>
        <path id="Path_5658" data-name="Path 5658" d="M17.274,52.815s-3.337.238-4.826,1.132S7.263,58.773,4.88,64.2A88.213,88.213,0,0,0,.292,78.019c-.238,1.37.536,6.018,2.324,10.725s4.766,9.235,5,10.963.04,4.846.437,6.316,3.762,7.488,4.647,6.2c.4-.591-1.629-4.489-1.708-5.363s-.556-4.25-.2-3.5a19.93,19.93,0,0,1,1.629,2.9c.437,1.271,1.747,1.192,1.469-.318a13.069,13.069,0,0,0-2.621-5.044c-1.033-1.152-2.287-5.839-2.514-10.606s-.408-10.407,0-12.314,5.811-10.328,6.129-13.267S17.274,57.84,17.274,52.815Z" transform="translate(-0.129 -27.185)" fill="none" stroke="#231f20" stroke-width="0.5"/>
        <path id="Path_5659" data-name="Path 5659" d="M67.044,52.815s3.337.238,4.826,1.132,5.184,4.826,7.567,10.249a88.214,88.214,0,0,1,4.588,13.823c.238,1.37-.536,6.018-2.324,10.725s-4.766,9.235-5,10.963-.04,4.846-.437,6.316-3.568,7.359-4.648,6.2c-.487-.525,1.629-4.489,1.708-5.363s.556-4.25.2-3.5a19.93,19.93,0,0,0-1.629,2.9c-.437,1.271-1.747,1.192-1.469-.318a13.069,13.069,0,0,1,2.621-5.044c1.033-1.152,2.287-5.839,2.514-10.606s.408-10.407,0-12.314-5.811-10.328-6.129-13.267-2.383-6.872-2.383-11.9" transform="translate(-34.509 -27.185)" fill="#fff"/>
        <path id="Path_5660" data-name="Path 5660" d="M67.044,52.815s3.337.238,4.826,1.132,5.184,4.826,7.567,10.249a88.214,88.214,0,0,1,4.588,13.823c.238,1.37-.536,6.018-2.324,10.725s-4.766,9.235-5,10.963-.04,4.846-.437,6.316-3.568,7.359-4.648,6.2c-.487-.525,1.629-4.489,1.708-5.363s.556-4.25.2-3.5a19.93,19.93,0,0,0-1.629,2.9c-.437,1.271-1.747,1.192-1.469-.318a13.069,13.069,0,0,1,2.621-5.044c1.033-1.152,2.287-5.839,2.514-10.606s.408-10.407,0-12.314-5.811-10.328-6.129-13.267S67.044,57.84,67.044,52.815Z" transform="translate(-34.509 -27.185)" fill="none" stroke="#231f20" stroke-width="0.5"/>
        <path id="Path_5661" data-name="Path 5661" d="M49.143,77.909a54.387,54.387,0,0,0-3-6.291,2.744,2.744,0,0,1,.279-2.735c2.312-3.336-.857-6.818-.857-6.818L42.942,59.88c-1.43-1.191.1-7.258.1-7.258a31.282,31.282,0,0,0-3.878-.628,19.4,19.4,0,0,1-2.515,5.091,3.766,3.766,0,0,1-6.239,0,19.388,19.388,0,0,1-2.514-5.091,31.282,31.282,0,0,0-3.878.628s1.527,6.067.1,7.258l-2.621,2.185s-3.169,3.482-.857,6.818a2.744,2.744,0,0,1,.279,2.735,54.387,54.387,0,0,0-3,6.291c-1.584,4.335-1.156,8.9,0,15,0,0,4.93,4.032,15.616,4.032S49.143,92.91,49.143,92.91c1.156-6.1,1.584-10.665,0-15" transform="translate(-8.687 -26.762)" fill="#fbe551"/>
        <path id="Path_5662" data-name="Path 5662" d="M49.145,78.441a54.628,54.628,0,0,0-2.989-6.295,2.668,2.668,0,0,1,.243-2.679c2.373-3.352-.824-6.87-.824-6.87l-2.613-2.185c-1.425-1.191.1-7.258.1-7.258-.195-.046-.387-.087-.579-.127-.56,1.133-.783,5.048-.949,6.449-.2,1.643,2.438,3.083,2.65,4.665.324,2.417-1.524,3.912-3.691,4.426a12.988,12.988,0,0,1-5.473-.462,3.6,3.6,0,0,0-3.027,0,12.988,12.988,0,0,1-5.473.462c-2.167-.514-4.015-2.01-3.691-4.426.212-1.582,2.845-3.022,2.65-4.665-.166-1.4-.39-5.316-.95-6.449-.192.04-.385.081-.579.127,0,0,1.525,6.066.1,7.258L21.437,62.6s-3.2,3.518-.824,6.87a2.667,2.667,0,0,1,.243,2.679,54.554,54.554,0,0,0-2.989,6.295c-1.579,4.335-1.153,8.9,0,15,0,0,4.912,4.032,15.56,4.032h.158c10.647,0,15.56-4.032,15.56-4.032,1.153-6.1,1.579-10.665,0-15M39.284,92.561a11.359,11.359,0,0,1-5.766,1.328,11.4,11.4,0,0,1-5.789-1.328c-3.53-2.684-5.154-10.607-3.611-14.633A12.127,12.127,0,0,1,28.549,72a10.042,10.042,0,0,1,7.521-1,9.1,9.1,0,0,1,5.565,4.368,15.131,15.131,0,0,1,1.26,2.559c1.542,4.026-.082,11.949-3.611,14.633" transform="translate(-8.666 -27.295)" fill="#fbe551"/>
        <path id="Path_5663" data-name="Path 5663" d="M50.773,10.851c-.017-1.879-6.7-2.3-6.794-2.308H43.97c-.1.006-6.777.429-6.795,2.308-.017,1.845.24,6.167.36,7.632.112,1.37.246,5.752,5.637,7.036a6.8,6.8,0,0,0,1.493.026c5.5-1.234,5.636-5.682,5.749-7.062.12-1.466.377-5.787.36-7.632" transform="translate(-19.134 -4.397)" fill="#fff"/>
        <path id="Path_5664" data-name="Path 5664" d="M50.773,10.851c-.017-1.879-6.7-2.3-6.794-2.308H43.97c-.1.006-6.777.429-6.795,2.308-.017,1.845.24,6.167.36,7.632.112,1.37.246,5.752,5.637,7.036a6.8,6.8,0,0,0,1.493.026c5.5-1.234,5.636-5.682,5.749-7.062C50.533,17.018,50.791,12.7,50.773,10.851Z" transform="translate(-19.134 -4.397)" fill="none" stroke="#231f20" stroke-width="0.5"/>
        <path id="Path_5665" data-name="Path 5665" d="M53.776,6.063s.048,6.452,6.015,7.131c0,0,1.923-6.71-6.015-7.131" transform="translate(-27.68 -3.121)"/>
        <path id="Path_5666" data-name="Path 5666" d="M28.8,279.492s-6.863,3.294-9.683,5.637c-2.612,2.171,2.005,3.516,7.3,1.5a23.353,23.353,0,0,1,3.106-.946,26.813,26.813,0,0,0,3.906-1.1c1.534-.733-.551-4.712-.551-4.712s-1.508,1.487-4.081-.383" transform="translate(-9.454 -143.861)" fill="#fbe551"/>
        <path id="Path_5667" data-name="Path 5667" d="M29.94,284.994c-2.162.506-4.348,1.049-6.513,1.518a3.984,3.984,0,0,1-3.309-.625c-.365.257-.707.511-1,.753-2.612,2.171,2.006,3.516,7.3,1.5a23.281,23.281,0,0,1,3.106-.946,26.813,26.813,0,0,0,3.906-1.1c1.029-.492.43-2.439-.075-3.671a5.465,5.465,0,0,1-3.419,2.568" transform="translate(-9.454 -145.371)"/>
        <path id="Path_5668" data-name="Path 5668" d="M57.051,279.492s6.863,3.294,9.683,5.637c2.612,2.171-2.005,3.516-7.3,1.5a23.353,23.353,0,0,0-3.106-.946,26.813,26.813,0,0,1-3.906-1.1c-1.534-.733.551-4.712.551-4.712s1.508,1.487,4.081-.383" transform="translate(-26.691 -143.861)" fill="#fbe551"/>
        <path id="Path_5669" data-name="Path 5669" d="M66.734,286.917c-.258-.214-.558-.438-.875-.665-.743,1.628-4.629.515-6.188.049-4.982-1.489-5.434-1.519-7.28-3.336-.476,1.229-.931,2.95.029,3.409a26.866,26.866,0,0,0,3.906,1.1,23.355,23.355,0,0,1,3.106.945c5.3,2.016,9.916.67,7.3-1.5" transform="translate(-26.691 -145.649)"/>
        <path id="Path_5676" data-name="Path 5676" d="M57.986,27.212a.258.258,0,1,1-.255-.3.28.28,0,0,1,.255.3" transform="translate(-29.584 -13.852)" fill="#fff"/>
        <path id="Path_5679" data-name="Path 5679" d="M51.256,37.089c.153.3.01.558-.339.456a3.642,3.642,0,0,1-.746-.435,1.34,1.34,0,0,0-.961-.121c-.463.1-.867.358-1.339.42-.128.017-.3-.02-.308-.15a.233.233,0,0,1,.033-.109A2.642,2.642,0,0,1,49.5,35.856a2.125,2.125,0,0,1,1.753,1.233" transform="translate(-24.482 -18.456)"/>
        <path id="Path_5680" data-name="Path 5680" d="M38.337,4.622c-2.251,1.731-3.947,4.088-2.67,7.346,1.518-.441,2.443-1.26,4.524-3.864a10.179,10.179,0,0,1-1.358,2.934c6.174-1.681,7.88-5.89,8.236-7.025-3.534-1.208-6.423-1.166-8.731.609" transform="translate(-18.132 -1.64)"/>
        <path id="Path_5681" data-name="Path 5681" d="M181.006,32.906a3.08,3.08,0,0,0,3.053-3.639,20.314,20.314,0,0,0-2.89-6.423c-3.359-5.488.549-16.616-6.795-21.58a11.988,11.988,0,0,0-10.709,0c-7.344,4.964-3.436,16.092-6.795,21.58a20.315,20.315,0,0,0-2.89,6.423,3.08,3.08,0,0,0,3.053,3.639Z" transform="translate(-79.227 0)"/>
        <path id="Path_5682" data-name="Path 5682" d="M160.107,155.054s4.509,22.314,3.971,24.386a32.723,32.723,0,0,0-1.965,7.532c-.561,4.412,1.685,10.334,2.487,15.067a103.331,103.331,0,0,1,1.443,12.242,4.991,4.991,0,0,0,1.976.988,2.151,2.151,0,0,0,2.131-.758s.609-15.5,1.029-25.261c.078-1.806-.78-7.828-.643-8.855.883-6.578.8-23.094.321-26.463s-10.749,1.123-10.749,1.123" transform="translate(-82.411 -78.587)" fill="#fff"/>
        <path id="Path_5683" data-name="Path 5683" d="M160.107,155.054s4.509,22.314,3.971,24.386a32.723,32.723,0,0,0-1.965,7.532c-.561,4.412,1.685,10.334,2.487,15.067a103.331,103.331,0,0,1,1.443,12.242,4.991,4.991,0,0,0,1.976.988,2.151,2.151,0,0,0,2.131-.758s.609-15.5,1.029-25.261c.078-1.806-.78-7.828-.643-8.855.883-6.578.8-23.094.321-26.463S160.107,155.054,160.107,155.054Z" transform="translate(-82.411 -78.587)" fill="none" stroke="#231f20" stroke-width="0.5"/>
        <path id="Path_5684" data-name="Path 5684" d="M164.15,162.366a40.409,40.409,0,0,0,7.058.933c-.021-4.288-.151-7.967-.351-9.368-.481-3.369-10.749,1.123-10.749,1.123s.524,2.643,1.192,6.186a12.662,12.662,0,0,0,2.85,1.126" transform="translate(-82.411 -78.587)" fill="#fff"/>
        <path id="Path_5685" data-name="Path 5685" d="M164.15,162.366a40.409,40.409,0,0,0,7.058.933c-.021-4.288-.151-7.967-.351-9.368-.481-3.369-10.749,1.123-10.749,1.123s.524,2.643,1.192,6.186A12.662,12.662,0,0,0,164.15,162.366Z" transform="translate(-82.411 -78.587)" fill="none" stroke="#231f20" stroke-width="0.5"/>
        <path id="Path_5686" data-name="Path 5686" d="M197.536,155.054s-4.446,22.627-3.971,24.386a31.909,31.909,0,0,1,1.966,7.532c.561,4.412-1.685,10.334-2.487,15.067a103.329,103.329,0,0,0-1.443,12.242,2.985,2.985,0,0,1-1.714,1.379,2.9,2.9,0,0,1-2.412-1.149c0-.012-.652-16.571-.988-25.338-.079-2.058.774-7.646.622-8.779-.883-6.578-.8-23.094-.321-26.463s10.749,1.123,10.749,1.123" transform="translate(-95.961 -78.587)" fill="#fff"/>
        <path id="Path_5687" data-name="Path 5687" d="M197.536,155.054s-4.446,22.627-3.971,24.386a31.909,31.909,0,0,1,1.966,7.532c.561,4.412-1.685,10.334-2.487,15.067a103.329,103.329,0,0,0-1.443,12.242,2.985,2.985,0,0,1-1.714,1.379,2.9,2.9,0,0,1-2.412-1.149c0-.012-.652-16.571-.988-25.338-.079-2.058.774-7.646.622-8.779-.883-6.578-.8-23.094-.321-26.463S197.536,155.054,197.536,155.054Z" transform="translate(-95.961 -78.587)" fill="none" stroke="#231f20" stroke-width="0.5"/>
        <path id="Path_5688" data-name="Path 5688" d="M188.175,215.615c-.171-3.417-.894-15.634-.8-24.278a74.442,74.442,0,0,1,.948-10.19c-.017-4.358-1.18-7.8-.62-13.683a36.833,36.833,0,0,0-.722-13.314,1.287,1.287,0,0,0-.2.539c-.481,3.369-.562,19.885.321,26.463.152,1.133-.7,6.721-.622,8.779.336,8.767.988,25.326.989,25.338a2.528,2.528,0,0,0,.757.691,1.583,1.583,0,0,1-.057-.345" transform="translate(-95.961 -79.344)" fill="#fff"/>
        <path id="Path_5689" data-name="Path 5689" d="M188.175,215.615c-.171-3.417-.894-15.634-.8-24.278a74.442,74.442,0,0,1,.948-10.19c-.017-4.358-1.18-7.8-.62-13.683a36.833,36.833,0,0,0-.722-13.314,1.287,1.287,0,0,0-.2.539c-.481,3.369-.562,19.885.321,26.463.152,1.133-.7,6.721-.622,8.779.336,8.767.988,25.326.989,25.338a2.528,2.528,0,0,0,.757.691A1.583,1.583,0,0,1,188.175,215.615Z" transform="translate(-95.961 -79.344)" fill="none" stroke="#231f20" stroke-width="0.5"/>
        <path id="Path_5690" data-name="Path 5690" d="M179.237,215.615c.171-3.417.894-15.634.8-24.278a74.392,74.392,0,0,0-.947-10.19c.017-4.358,1.18-7.8.62-13.683a36.833,36.833,0,0,1,.722-13.314,1.294,1.294,0,0,1,.2.539c.481,3.369.561,19.885-.321,26.463-.152,1.133.7,6.721.622,8.779-.336,8.767-.988,25.326-.989,25.338a2.528,2.528,0,0,1-.757.691,1.581,1.581,0,0,0,.057-.345" transform="translate(-92.179 -79.344)" fill="#fff"/>
        <path id="Path_5691" data-name="Path 5691" d="M179.237,215.615c.171-3.417.894-15.634.8-24.278a74.392,74.392,0,0,0-.947-10.19c.017-4.358,1.18-7.8.62-13.683a36.833,36.833,0,0,1,.722-13.314,1.294,1.294,0,0,1,.2.539c.481,3.369.561,19.885-.321,26.463-.152,1.133.7,6.721.622,8.779-.336,8.767-.988,25.326-.989,25.338a2.528,2.528,0,0,1-.757.691A1.581,1.581,0,0,0,179.237,215.615Z" transform="translate(-92.179 -79.344)" fill="none" stroke="#231f20" stroke-width="0.5"/>
        <path id="Path_5692" data-name="Path 5692" d="M196.339,161.291c.674-3.569,1.2-6.237,1.2-6.237s-10.268-4.492-10.749-1.123c-.2,1.407-.331,5.11-.351,9.423,3.509-.066,6.594-1.414,9.9-2.063" transform="translate(-95.965 -78.587)" fill="#fff"/>
        <path id="Path_5693" data-name="Path 5693" d="M196.339,161.291c.674-3.569,1.2-6.237,1.2-6.237s-10.268-4.492-10.749-1.123c-.2,1.407-.331,5.11-.351,9.423C189.949,163.288,193.034,161.94,196.339,161.291Z" transform="translate(-95.965 -78.587)" fill="none" stroke="#231f20" stroke-width="0.5"/>
        <path id="Path_5694" data-name="Path 5694" d="M161.154,279.3s-6.93,3.326-9.777,5.692c-2.637,2.192,2.025,3.551,7.374,1.516a23.565,23.565,0,0,1,3.136-.955,27.091,27.091,0,0,0,3.944-1.109c1.549-.74-.557-4.757-.557-4.757s-1.523,1.5-4.12-.387" transform="translate(-77.526 -143.762)" fill="#fbe551"/>
        <path id="Path_5695" data-name="Path 5695" d="M162.3,284.854c-2.183.511-4.391,1.059-6.577,1.532a4.024,4.024,0,0,1-3.341-.631c-.369.26-.714.516-1.008.76-2.637,2.192,2.025,3.55,7.375,1.516a23.576,23.576,0,0,1,3.136-.955,27.07,27.07,0,0,0,3.944-1.108c1.038-.5.435-2.462-.076-3.706a5.517,5.517,0,0,1-3.452,2.592" transform="translate(-77.526 -145.287)"/>
        <path id="Path_5696" data-name="Path 5696" d="M191.527,279.3s6.93,3.326,9.777,5.692c2.637,2.192-2.025,3.551-7.374,1.516a23.586,23.586,0,0,0-3.136-.955,27.092,27.092,0,0,1-3.944-1.109c-1.549-.74.557-4.757.557-4.757s1.523,1.5,4.12-.387" transform="translate(-95.883 -143.762)" fill="#fbe551"/>
        <path id="Path_5697" data-name="Path 5697" d="M201.3,286.8c-.26-.216-.563-.442-.883-.671-.751,1.644-4.674.52-6.248.05-5.031-1.5-5.488-1.534-7.351-3.369-.48,1.241-.94,2.98.029,3.443a27.074,27.074,0,0,0,3.944,1.108,23.5,23.5,0,0,1,3.136.955c5.35,2.035,10.012.676,7.374-1.516" transform="translate(-95.883 -145.566)"/>
        <path id="Path_5698" data-name="Path 5698" d="M183.091,113.025l-7.754.542,0,.007,0-.007-7.754-.542s.481,3.309-1.083,5.415c0,0,4.987,3.429,8.837,3.369h.006c3.851.06,8.837-3.369,8.837-3.369-1.565-2.106-1.083-5.415-1.083-5.415" transform="translate(-85.698 -58.177)" fill="#fff"/>
        <path id="Path_5699" data-name="Path 5699" d="M183.091,113.025l-7.754.542,0,.007,0-.007-7.754-.542s.481,3.309-1.083,5.415c0,0,4.987,3.429,8.837,3.369h.006c3.851.06,8.837-3.369,8.837-3.369C182.61,116.334,183.091,113.025,183.091,113.025Z" transform="translate(-85.698 -58.177)" fill="none" stroke="#231f20" stroke-width="0.5"/>
        <path id="Path_5700" data-name="Path 5700" d="M180.64,123.694a25.037,25.037,0,0,0-5.272-6.974,6.593,6.593,0,0,1-1.238.936,10.092,10.092,0,0,1-10.473,0,6.593,6.593,0,0,1-1.238-.936,25.037,25.037,0,0,0-5.272,6.974c-1.956,4.047-3.32,13.916-3.152,16.186,0,0,8.5,2.612,14.527,1.713,0,0-.092-6.7.372-7,.465.3.373,7,.373,7,6.028.9,14.526-1.713,14.526-1.713.167-2.27-1.2-12.139-3.152-16.186" transform="translate(-79.257 -60.078)"/>
        <path id="Path_5701" data-name="Path 5701" d="M182.1,143.781a3.8,3.8,0,0,0,1.081-.725,7.376,7.376,0,0,0,1.332-1.76,10.372,10.372,0,0,1-3.546.722c-2-.017-3.545-.219-4.82-1.284a6.27,6.27,0,0,0,2.405,2.688c-.234,1.541-1.135,4.011-1.257,5.365a38.358,38.358,0,0,1-.771,5.344,20.009,20.009,0,0,0,3.405-.179s-.089-6.554.36-6.979h.013c.448.426.359,6.979.359,6.979a20.015,20.015,0,0,0,3.406.179,38.356,38.356,0,0,1-.771-5.344c-.113-1.252-.894-3.463-1.2-5.008" transform="translate(-90.667 -72.44)"/>
        <path id="Path_5702" data-name="Path 5702" d="M180.64,123.694a25.037,25.037,0,0,0-5.272-6.974,6.593,6.593,0,0,1-1.238.936,10.152,10.152,0,0,1-10.473,0,6.593,6.593,0,0,1-1.238-.936,25.037,25.037,0,0,0-5.272,6.974c-1.956,4.047-3.32,13.916-3.152,16.186,0,0,1.423.437,3.516.892a25.056,25.056,0,0,1-.018-10.22c.872-4.131,2.327-5.908,6.337-7.056a10.157,10.157,0,0,0,1.1-.389,10.321,10.321,0,0,1,7.933,0,10.157,10.157,0,0,0,1.1.389c4.01,1.148,5.465,2.925,6.337,7.056a25.056,25.056,0,0,1-.018,10.22c2.093-.455,3.516-.892,3.516-.892.167-2.27-1.2-12.139-3.152-16.186" transform="translate(-79.257 -60.078)"/>
        <path id="Path_5703" data-name="Path 5703" d="M179.419,36.779l-2.908.261-2.908-.261s3.041,7.21-4.063,7.4c-.171,0-.578.216-.76.213,0,0,.511,9.535,7.731,9.535s7.8-9.618,7.8-9.618c-.164,0-.618-.125-.772-.128-7.173-.154-4.117-7.4-4.117-7.4" transform="translate(-86.875 -18.931)" fill="#fff"/>
        <path id="Path_5704" data-name="Path 5704" d="M179.419,36.779l-2.908.261-2.908-.261s3.041,7.21-4.063,7.4c-.171,0-.578.216-.76.213,0,0,.511,9.535,7.731,9.535s7.8-9.618,7.8-9.618c-.164,0-.618-.125-.772-.128C176.362,44.025,179.419,36.779,179.419,36.779Z" transform="translate(-86.875 -18.931)" fill="none" stroke="#231f20" stroke-width="0.5"/>
        <path id="Path_5705" data-name="Path 5705" d="M177.978,42.854c.978.609,2.45,1.084,5.276.5.145-.03,1.17-.362,1.31-.439-2.1-2.114-.411-6.136-.411-6.136l-2.908.261-2.908-.261s1.659,3.947-.359,6.075" transform="translate(-91.609 -18.931)" fill="#fff"/>
        <path id="Path_5706" data-name="Path 5706" d="M177.978,42.854c.978.609,2.45,1.084,5.276.5.145-.03,1.17-.362,1.31-.439-2.1-2.114-.411-6.136-.411-6.136l-2.908.261-2.908-.261S180,40.726,177.978,42.854Z" transform="translate(-91.609 -18.931)" fill="none" stroke="#231f20" stroke-width="0.5"/>
        <path id="Path_5707" data-name="Path 5707" d="M152.821,52.028s-2.093.384-3.8.663c-1.277.209-2.31,1-4.582,4.623s-7.216,14.487-7.96,17.4,5.012,5.217,9.673,10.425a20.939,20.939,0,0,0,2.021,2.26c.852.75,1.653.121,2.35-.124a2.033,2.033,0,0,1,1.685.093c.455.483,1.159,1.2,1.4,1.2.706,0-.013-1.1-.592-1.739a3.093,3.093,0,0,0-1.376-.788,5.353,5.353,0,0,1,1.621.671c.728.643,1.019,1.779,1.47,1.694.585-.109-.022-2.139-.664-2.612a6.979,6.979,0,0,0-1.809-.85,4.291,4.291,0,0,1,2,.8c.558.594.861,2.037,1.559,1.931.51-.077.093-2.041-.754-2.791a8.972,8.972,0,0,0-1.642-1.073,7.8,7.8,0,0,1,1.638.943c.46.429,1.237,2.133,1.685,1.809.326-.237.148-1.625-.881-2.566-1.364-1.248-1.9-1.546-2.566-1.468-.972.113-3.26,1.63-3.75,1.443a86.13,86.13,0,0,1-7.548-8.2c-.353-.7,5.087-10.16,6.431-12.824.214-.426.12-.44.329-.012a10.585,10.585,0,0,1,.651,3.2s5.778-10.115,3.418-14.116" transform="translate(-70.216 -26.78)" fill="#fff"/>
        <path id="Path_5708" data-name="Path 5708" d="M152.821,52.028s-2.093.384-3.8.663c-1.277.209-2.31,1-4.582,4.623s-7.216,14.487-7.96,17.4,5.012,5.217,9.673,10.425a20.939,20.939,0,0,0,2.021,2.26c.852.75,1.653.121,2.35-.124a2.033,2.033,0,0,1,1.685.093c.455.483,1.159,1.2,1.4,1.2.706,0-.013-1.1-.592-1.739a3.093,3.093,0,0,0-1.376-.788,5.353,5.353,0,0,1,1.621.671c.728.643,1.019,1.779,1.47,1.694.585-.109-.022-2.139-.664-2.612a6.979,6.979,0,0,0-1.809-.85,4.291,4.291,0,0,1,2,.8c.558.594.861,2.037,1.559,1.931.51-.077.093-2.041-.754-2.791a8.972,8.972,0,0,0-1.642-1.073,7.8,7.8,0,0,1,1.638.943c.46.429,1.237,2.133,1.685,1.809.326-.237.148-1.625-.881-2.566-1.364-1.248-1.9-1.546-2.566-1.468-.972.113-3.26,1.63-3.75,1.443a86.13,86.13,0,0,1-7.548-8.2c-.353-.7,5.087-10.16,6.431-12.824.214-.426.12-.44.329-.012a10.585,10.585,0,0,1,.651,3.2S155.181,56.03,152.821,52.028Z" transform="translate(-70.216 -26.78)" fill="none" stroke="#231f20" stroke-width="0.5"/>
        <path id="Path_5709" data-name="Path 5709" d="M194.99,52.028a26.139,26.139,0,0,1,3.7.663c1.246.349,2.311,1,4.582,4.623s7.216,14.487,7.96,17.4-5.012,5.217-9.673,10.425a20.938,20.938,0,0,1-2.021,2.26c-.852.75-1.653.121-2.35-.124a2.034,2.034,0,0,0-1.685.093c-.455.483-1.159,1.2-1.4,1.2-.706,0,.013-1.1.593-1.739a3.09,3.09,0,0,1,1.376-.788,5.354,5.354,0,0,0-1.621.671c-.728.643-1.018,1.779-1.47,1.694-.585-.109.022-2.139.665-2.612a6.972,6.972,0,0,1,1.808-.85,4.289,4.289,0,0,0-2,.8c-.558.594-.861,2.037-1.559,1.931-.51-.077-.093-2.041.754-2.791a8.968,8.968,0,0,1,1.643-1.073,7.817,7.817,0,0,0-1.639.943c-.46.429-1.236,2.133-1.685,1.809-.327-.237-.148-1.625.881-2.566,1.364-1.248,1.9-1.546,2.566-1.468.972.113,3.261,1.63,3.75,1.443a86.131,86.131,0,0,0,7.548-8.2c.353-.7-5.086-10.16-6.43-12.824-.214-.426-.12-.44-.329-.012a10.575,10.575,0,0,0-.652,3.2S192.63,56.03,194.99,52.028" transform="translate(-98.221 -26.78)" fill="#fff"/>
        <path id="Path_5710" data-name="Path 5710" d="M194.99,52.028a26.139,26.139,0,0,1,3.7.663c1.246.349,2.311,1,4.582,4.623s7.216,14.487,7.96,17.4-5.012,5.217-9.673,10.425a20.938,20.938,0,0,1-2.021,2.26c-.852.75-1.653.121-2.35-.124a2.034,2.034,0,0,0-1.685.093c-.455.483-1.159,1.2-1.4,1.2-.706,0,.013-1.1.593-1.739a3.09,3.09,0,0,1,1.376-.788,5.354,5.354,0,0,0-1.621.671c-.728.643-1.018,1.779-1.47,1.694-.585-.109.022-2.139.665-2.612a6.972,6.972,0,0,1,1.808-.85,4.289,4.289,0,0,0-2,.8c-.558.594-.861,2.037-1.559,1.931-.51-.077-.093-2.041.754-2.791a8.968,8.968,0,0,1,1.643-1.073,7.817,7.817,0,0,0-1.639.943c-.46.429-1.236,2.133-1.685,1.809-.327-.237-.148-1.625.881-2.566,1.364-1.248,1.9-1.546,2.566-1.468.972.113,3.261,1.63,3.75,1.443a86.131,86.131,0,0,0,7.548-8.2c.353-.7-5.086-10.16-6.43-12.824-.214-.426-.12-.44-.329-.012a10.575,10.575,0,0,0-.652,3.2S192.63,56.03,194.99,52.028Z" transform="translate(-98.221 -26.78)" fill="none" stroke="#231f20" stroke-width="0.5"/>
        <path id="Path_5711" data-name="Path 5711" d="M180.2,51.55l-2.335-.442c.075,7.349-4.566,7.065-4.566,7.065s-4.641.284-4.566-7.065l-2.335.442s-.687,11.7-3.854,13.273c0,0,2.518,12.211,3,16.332a39.848,39.848,0,0,0,15.515,0c.479-4.121,3-16.332,3-16.332C180.892,63.252,180.2,51.55,180.2,51.55" transform="translate(-83.668 -26.306)" fill="#fbe551"/>
        <path id="Path_5712" data-name="Path 5712" d="M162.654,79.239c-.035.02-.069.046-.1.064l.019.095c.029-.052.057-.1.085-.159" transform="translate(-83.668 -40.786)" fill="#addef1"/>
        <path id="Path_5713" data-name="Path 5713" d="M206.742,79.4l.019-.1c-.036-.018-.069-.044-.1-.064.028.055.057.106.086.159" transform="translate(-106.371 -40.786)" fill="#addef1"/>
        <path id="Path_5714" data-name="Path 5714" d="M179.145,59.106s5.223.315,5.247-7.869l-.681-.129c.075,7.349-4.566,7.065-4.566,7.065s-4.641.284-4.566-7.065l-.681.129c.025,8.184,5.247,7.869,5.247,7.869" transform="translate(-89.509 -26.306)" fill="#fbe551"/>
        <path id="Path_5715" data-name="Path 5715" d="M182.083,73.539s.481,4.252-1.533,5.1c-.942.4-4.231.14-5.6-.139a8.463,8.463,0,0,0-3.382,0c-1.344.274-4.575.52-5.505.127-2.012-.849-1.536-5.094-1.536-5.094a5.081,5.081,0,0,1-1.972,2.83s2.518,12.211,3,16.332c0,0,.842.166,2.132.344-.538-2.375-.688-4.933-1.027-7.212-.228-1.535-.408-4.063,1.516-4.671a66.61,66.61,0,0,1,10.273.008c1.925.609,1.745,3.135,1.516,4.671-.34,2.278-.49,4.836-1.028,7.211,1.29-.177,2.132-.343,2.132-.343.479-4.121,3-16.332,3-16.332a5.092,5.092,0,0,1-1.975-2.838" transform="translate(-83.668 -37.852)" fill="#fbe551"/>
        <path id="Path_5716" data-name="Path 5716" d="M184.394,12.312c-.1-.581-5.948-3-5.948-3s-5.851,2.418-5.948,3a63.336,63.336,0,0,0,.517,8.175c.3,1.349,2.369,5.356,5.431,5.356s5.136-4.007,5.431-5.356a63.338,63.338,0,0,0,.517-8.175" transform="translate(-88.78 -4.794)" fill="#fff"/>
        <path id="Path_5717" data-name="Path 5717" d="M184.394,12.312c-.1-.581-5.948-3-5.948-3s-5.851,2.418-5.948,3a63.336,63.336,0,0,0,.517,8.175c.3,1.349,2.369,5.356,5.431,5.356s5.136-4.007,5.431-5.356A63.338,63.338,0,0,0,184.394,12.312Z" transform="translate(-88.78 -4.794)" fill="none" stroke="#231f20" stroke-width="0.5"/>
        <path id="Path_5718" data-name="Path 5718" d="M187.016,5.492s.049,6.446,6.01,7.125c0,0,1.921-6.7-6.01-7.125" transform="translate(-96.261 -2.827)"/>
        <path id="Path_5720" data-name="Path 5720" d="M179.443,26.1a.258.258,0,1,1-.255-.3.28.28,0,0,1,.255.3" transform="translate(-92.101 -13.279)" fill="#fff"/>
        <path id="Path_5722" data-name="Path 5722" d="M191.2,26.1a.258.258,0,1,1-.255-.3.28.28,0,0,1,.255.3" transform="translate(-98.15 -13.279)" fill="#fff"/>
        <path id="Path_5724" data-name="Path 5724" d="M183.977,35.271a360.913,360.913,0,0,0-2.647,0c-.255.181-.974-.133-.974-.133a5.606,5.606,0,0,0,.742.924,2.12,2.12,0,0,0,3.11,0,5.571,5.571,0,0,0,.742-.924s-.719.315-.973.133" transform="translate(-92.833 -18.032)"/>
        <path id="Path_5729" data-name="Path 5729" d="M170.929,4.053c-2.25,1.73-3.944,4.085-2.669,7.34,1.517-.441,2.442-1.259,4.52-3.861a10.175,10.175,0,0,1-1.357,2.932c6.169-1.681,7.874-5.885,8.229-7.02-3.531-1.207-6.418-1.165-8.723.609" transform="translate(-86.382 -1.347)"/>
      </g>
    </g>
  </g>
</svg>
