<svg id="Group_1190" data-name="Group 1190" xmlns="http://www.w3.org/2000/svg" xmlns:xlink="http://www.w3.org/1999/xlink" width="47.497" height="138.666" viewBox="0 0 47.497 138.666">
  <defs>
    <clipPath id="clip-path">
      <rect id="Rectangle_849" data-name="Rectangle 849" width="47.497" height="138.667" fill="none"/>
    </clipPath>
  </defs>
  <g id="Group_1189" data-name="Group 1189" clip-path="url(#clip-path)">
    <path id="Path_7795" data-name="Path 7795" d="M59.562,393.856c0,1.294-6.82,2.343-15.233,2.343S29.1,395.151,29.1,393.856s6.82-2.343,15.233-2.343,15.233,1.049,15.233,2.343" transform="translate(-19.139 -257.533)"/>
    <path id="Path_7796" data-name="Path 7796" d="M39.362,20.159s-1.043.721-3.755-.636-2.573-4.029-1.158-4.991,1.7-1.5-.165-2.661-.392-4.864,2.845-6.039,4.379-1.214,7.079-.237,6.918,6.322,7.263,9.816-2.709,5.577-6.347,6.156a7.091,7.091,0,0,1-5.762-1.407" transform="translate(-22.007 -3.225)"/>
    <path id="Path_7797" data-name="Path 7797" d="M43.467,21.522a7.062,7.062,0,0,1-4.459-1.48c-.357.157-1.515.458-3.807-.689a3.688,3.688,0,0,1-2.239-2.965,2.58,2.58,0,0,1,1.061-2.32c.65-.441,1.081-.806,1.074-1.147-.007-.32-.4-.711-1.233-1.228a2.018,2.018,0,0,1-.886-2.047,5.653,5.653,0,0,1,3.763-4.3c3.259-1.183,4.469-1.223,7.2-.237s7.014,6.308,7.376,9.96c.381,3.854-3.1,5.8-6.491,6.342a8.59,8.59,0,0,1-1.355.11m-4.433-1.856a.17.17,0,0,1,.116.045,6.992,6.992,0,0,0,5.619,1.363c3.234-.515,6.562-2.353,6.2-5.971-.344-3.478-4.556-8.733-7.151-9.672-2.659-.961-3.765-.924-6.962.237a5.3,5.3,0,0,0-3.54,4.012,1.693,1.693,0,0,0,.725,1.721c.968.6,1.386,1.052,1.4,1.511.01.5-.461.919-1.224,1.437a2.238,2.238,0,0,0-.913,2.014,3.358,3.358,0,0,0,2.051,2.682c2.562,1.282,3.574.654,3.583.647a.173.173,0,0,1,.1-.028" transform="translate(-21.678 -2.903)"/>
    <path id="Path_7798" data-name="Path 7798" d="M46.865,61.873a13.429,13.429,0,0,1,1.287,2.3,11.919,11.919,0,0,1,.417,2.809s-4.743.481-5.913,1.65-1.957,4.179-2.185,4.59-4.686,2.173-5.808,4.792a6.126,6.126,0,0,0,.845,5.94,7.939,7.939,0,0,0,1.418,1.4l.1.562s8.826,3.414,18.026,1.17a15.941,15.941,0,0,0,1.887-3.854c.58-1.955,1.447-4.968,1.447-4.968s2.9-4.937,2.727-7.673a5.311,5.311,0,0,0-3.457-4.482,15.067,15.067,0,0,0-2.041-.738,37.531,37.531,0,0,1-3.748-5.924c-.446-1.275-5,2.426-5,2.426" transform="translate(-22.51 -38.928)" fill="#fff"/>
    <path id="Path_7799" data-name="Path 7799" d="M48.135,87.69a35.587,35.587,0,0,1-11.5-1.939.171.171,0,0,1-.107-.129l-.088-.5a8.2,8.2,0,0,1-1.4-1.4,6.293,6.293,0,0,1-.867-6.113c.838-1.955,3.479-3.443,4.9-4.242a6,6,0,0,0,.92-.569c.048-.087.146-.371.26-.7a11.54,11.54,0,0,1,1.952-3.925c1.09-1.088,5-1.584,5.856-1.682a10.918,10.918,0,0,0-.4-2.6A13.35,13.35,0,0,0,46.4,61.646a.171.171,0,0,1,.033-.231c.382-.31,3.765-3.026,4.895-2.7a.538.538,0,0,1,.374.354,37.817,37.817,0,0,0,3.685,5.84,1.62,1.62,0,0,0,.346.108,7.757,7.757,0,0,1,1.672.616,5.5,5.5,0,0,1,3.552,4.625c.17,2.7-2.515,7.366-2.739,7.751-.077.268-.889,3.088-1.441,4.949a15.933,15.933,0,0,1-1.91,3.9.173.173,0,0,1-.1.069,28.023,28.023,0,0,1-6.632.762M36.852,85.465c.95.345,9.243,3.2,17.769,1.146a15.754,15.754,0,0,0,1.828-3.752c.58-1.955,1.446-4.967,1.446-4.967a.169.169,0,0,1,.017-.04c.028-.049,2.871-4.923,2.7-7.576a5.19,5.19,0,0,0-3.362-4.339,7.478,7.478,0,0,0-1.6-.591,1.641,1.641,0,0,1-.451-.155,35.316,35.316,0,0,1-3.819-6.013.2.2,0,0,0-.145-.137c-.706-.2-3.056,1.414-4.463,2.541a12.588,12.588,0,0,1,1.217,2.2,11.907,11.907,0,0,1,.427,2.863.171.171,0,0,1-.154.176c-.047,0-4.7.489-5.81,1.6a11.52,11.52,0,0,0-1.87,3.794,6.553,6.553,0,0,1-.286.757c-.082.149-.364.312-1.049.7-1.384.78-3.959,2.231-4.751,4.078a5.939,5.939,0,0,0,.822,5.768A7.8,7.8,0,0,0,36.7,84.891a.172.172,0,0,1,.068.109Z" transform="translate(-22.186 -38.603)"/>
    <path id="Path_7800" data-name="Path 7800" d="M30.915,84.071A18.428,18.428,0,0,0,26.808,85.1c-2.053.8-2.966,2.738-4.107,3.422s-7.871,3.764-9.126,4.9,3.65,4.563,4.563,3.993S25.9,91.143,25.9,91.143l5.59-5.247" transform="translate(-8.796 -55.301)" fill="#fff"/>
    <path id="Path_7801" data-name="Path 7801" d="M17.541,97.318c-1.049,0-3.275-1.458-4.217-2.7-.677-.893-.48-1.389-.2-1.647a48.436,48.436,0,0,1,6.666-3.657c1.139-.564,2.123-1.05,2.487-1.269a6.227,6.227,0,0,0,1.256-1.181,7.6,7.6,0,0,1,2.876-2.254,18.763,18.763,0,0,1,4.15-1.037.171.171,0,0,1,.038.34,18.4,18.4,0,0,0-4.063,1.016,7.324,7.324,0,0,0-2.746,2.164,6.53,6.53,0,0,1-1.335,1.245c-.376.226-1.318.692-2.511,1.282a48.969,48.969,0,0,0-6.587,3.6c-.324.294-.049.808.239,1.187,1.056,1.395,3.605,2.854,4.119,2.533.892-.558,7.67-6.2,7.738-6.26l5.582-5.241a.171.171,0,0,1,.234.25L25.68,90.939c-.287.24-6.871,5.724-7.783,6.294a.664.664,0,0,1-.356.085" transform="translate(-8.463 -54.972)"/>
    <path id="Path_7802" data-name="Path 7802" d="M76.17,59.447c-.446-1.275-5,2.426-5,2.426a13.429,13.429,0,0,1,1.287,2.3c.026.07.05.147.073.226a32.9,32.9,0,0,0,6.727.117,35.765,35.765,0,0,1-3.087-5.065" transform="translate(-46.815 -38.928)"/>
    <path id="Path_7803" data-name="Path 7803" d="M76.554,64.49c-1.636,0-3.312-.14-4.371-.25a.171.171,0,0,1-.146-.123c-.022-.075-.044-.148-.069-.215A13.323,13.323,0,0,0,70.7,61.646a.171.171,0,0,1,.033-.231c.382-.31,3.765-3.026,4.895-2.7a.538.538,0,0,1,.375.354,35.3,35.3,0,0,0,3.065,5.023.171.171,0,0,1-.117.268,18.76,18.76,0,0,1-2.4.133m-4.223-.579a33.959,33.959,0,0,0,6.292.14,33.562,33.562,0,0,1-2.944-4.873.2.2,0,0,0-.145-.137c-.7-.2-3.056,1.413-4.463,2.541a12.576,12.576,0,0,1,1.217,2.2c.015.041.029.083.043.127" transform="translate(-46.486 -38.603)"/>
    <path id="Path_7804" data-name="Path 7804" d="M34.662,89.459a6.127,6.127,0,0,0,.844,5.94,7.934,7.934,0,0,0,1.418,1.4l.1.561s8.825,3.415,18.026,1.171a15.941,15.941,0,0,0,1.887-3.854c.252-.848.557-1.895.822-2.809-1.678-.436-4.677-1.506-4.747-3.593-.085-2.542,2.341-9.629,2.942-11.341a1.317,1.317,0,0,1-.342-.119,1.446,1.446,0,0,1-.2-.235l-.206.007s-1.281,2.7-2.175,4.912-3.192,5.834-5.985,6.734-6.308-.515-5.081-2.411,6.608-7.4,6.608-7.4-.553.056-1.328.177l-6.77,6.063c-.228.411-4.686,2.173-5.808,4.792" transform="translate(-22.51 -50.377)" fill="#fbe551"/>
    <path id="Path_7805" data-name="Path 7805" d="M48.134,99.134a35.6,35.6,0,0,1-11.5-1.939.171.171,0,0,1-.107-.13l-.088-.495a8.231,8.231,0,0,1-1.4-1.4,6.294,6.294,0,0,1-.866-6.113c.838-1.955,3.479-3.443,4.9-4.242a6.077,6.077,0,0,0,.92-.569.143.143,0,0,1,.033-.041l6.77-6.063a.174.174,0,0,1,.088-.041c.771-.12,1.332-.177,1.337-.178a.168.168,0,0,1,.171.1.17.17,0,0,1-.032.194c-.054.055-5.383,5.513-6.587,7.373a1.056,1.056,0,0,0,.012,1.319c.7.911,2.931,1.463,4.873.836,2.694-.868,4.991-4.444,5.879-6.635s2.166-4.894,2.179-4.921a.171.171,0,0,1,.149-.1l.206-.007a.165.165,0,0,1,.141.066,1.629,1.629,0,0,0,.168.2,1.34,1.34,0,0,0,.287.093.173.173,0,0,1,.108.085.171.171,0,0,1,.01.138c-.5,1.438-3.018,8.738-2.932,11.279.065,1.959,2.922,2.992,4.619,3.433a.171.171,0,0,1,.106.081.173.173,0,0,1,.016.132c-.266.914-.571,1.962-.823,2.81a15.919,15.919,0,0,1-1.91,3.9.174.174,0,0,1-.1.069,28.057,28.057,0,0,1-6.632.762M36.852,96.909c.95.345,9.243,3.2,17.769,1.146A15.729,15.729,0,0,0,56.449,94.3c.236-.8.52-1.768.773-2.64-1.8-.49-4.634-1.594-4.7-3.708-.082-2.468,2.116-9.008,2.891-11.231a.913.913,0,0,1-.21-.089.837.837,0,0,1-.2-.207h-.015c-.234.5-1.338,2.861-2.126,4.809S49.8,87.1,46.771,88.071c-1.93.621-4.383.176-5.25-.954a1.4,1.4,0,0,1-.028-1.712,80.957,80.957,0,0,1,6.293-7.081c-.213.027-.485.064-.793.112L40.277,84.45a4.1,4.1,0,0,1-1.03.668c-1.384.78-3.959,2.231-4.751,4.079a5.94,5.94,0,0,0,.822,5.768A7.879,7.879,0,0,0,36.7,96.336a.172.172,0,0,1,.068.108ZM34.338,89.13h0Z" transform="translate(-22.186 -50.047)"/>
    <path id="Path_7806" data-name="Path 7806" d="M66.6,131.942a5.523,5.523,0,0,1-10.034-1.576" transform="translate(-37.21 -85.753)" fill="#ffe551"/>
    <path id="Path_7807" data-name="Path 7807" d="M61.595,134.373a5.724,5.724,0,0,1-5.522-4.294.171.171,0,0,1,.332-.084,5.352,5.352,0,0,0,9.723,1.527.171.171,0,0,1,.29.182,5.691,5.691,0,0,1-4.634,2.667c-.063,0-.126,0-.189,0" transform="translate(-36.881 -85.424)"/>
    <path id="Path_7808" data-name="Path 7808" d="M43.519,135.926a2.927,2.927,0,0,1-1.838-.457.171.171,0,0,1,.22-.262c.015.012.91.707,3.247.173a.171.171,0,0,1,.076.333,7.673,7.673,0,0,1-1.706.212" transform="translate(-27.378 -88.912)"/>
    <path id="Path_7809" data-name="Path 7809" d="M56.926,43.741a.171.171,0,0,1-.1-.313,4.794,4.794,0,0,1,3.306-.667.171.171,0,1,1-.062.337,4.529,4.529,0,0,0-3.053.613.17.17,0,0,1-.1.029" transform="translate(-37.332 -28.082)"/>
    <path id="Path_7810" data-name="Path 7810" d="M46.068,29.684a14.943,14.943,0,0,0,.054,5.683c.339,1.529,1.156,2.06,1.315,3.339a6.583,6.583,0,0,0,2.2,4.017c1.2.894,2.9,3.055,4.405,2.538a17.025,17.025,0,0,0,4.785-3.547,7.162,7.162,0,0,0,1.352-4.95c-.421-2.088-1.046-3.351-5.79-5.528s-7.332-3.338-8.323-1.553" transform="translate(-30.139 -18.951)" fill="#fff"/>
    <path id="Path_7811" data-name="Path 7811" d="M53.247,45.194c-1.073,0-2.178-1.006-3.092-1.838-.339-.308-.659-.6-.944-.813a6.737,6.737,0,0,1-2.268-4.132,4.042,4.042,0,0,0-.587-1.543,6.277,6.277,0,0,1-.726-1.779,15.281,15.281,0,0,1-.054-5.757.175.175,0,0,1,.018-.047c1.08-1.944,3.889-.655,8.544,1.481,4.716,2.164,5.441,3.441,5.886,5.649A7.325,7.325,0,0,1,58.641,41.5a17.251,17.251,0,0,1-4.867,3.606,1.6,1.6,0,0,1-.528.088M45.906,29.429a14.918,14.918,0,0,0,.059,5.586,5.907,5.907,0,0,0,.692,1.688,4.373,4.373,0,0,1,.626,1.666,6.452,6.452,0,0,0,2.133,3.9c.3.223.625.52.97.834,1.049.955,2.238,2.037,3.278,1.68a17.1,17.1,0,0,0,4.7-3.487,6.952,6.952,0,0,0,1.321-4.814c-.384-1.908-.864-3.19-5.693-5.406s-7.194-3.212-8.089-1.648" transform="translate(-29.815 -18.635)"/>
    <path id="Path_7814" data-name="Path 7814" d="M59.631,66.459a2.088,2.088,0,0,1-.394-.033.171.171,0,0,1,.071-.335,1.879,1.879,0,0,0,2.058-1.049.171.171,0,0,1,.308.149,2.174,2.174,0,0,1-2.044,1.268" transform="translate(-38.877 -42.721)"/>
    <path id="Path_7819" data-name="Path 7819" d="M52.729,184.556a14.911,14.911,0,0,1,.749-3.009c.559-1.478,3.66-6.421,7.5-6.443a9.463,9.463,0,0,1,1.622.423l-2.9-3.147s-7.906,6.773-11.57,7.48c-6.431,1.241-7.338-2.566-7.338-2.566a8.488,8.488,0,0,1,.292,1.8c0,.618,5.064,5.175,6.257,7,1.266,1.933,2.639,2.893,3.336,2.976a14.691,14.691,0,0,0,2.046-4.515" transform="translate(-26.838 -113.389)" fill="#ffe551"/>
    <path id="Path_7820" data-name="Path 7820" d="M50.355,188.912h-.02c-.762-.091-2.17-1.085-3.458-3.052a37.385,37.385,0,0,0-3.533-3.9c-1.953-1.994-2.749-2.841-2.751-3.186a10.188,10.188,0,0,0-.261-1.68c-.017-.052-.025-.083-.026-.086a.171.171,0,0,1,.327-.1c0,.005.016.045.039.131.206.614,1.469,3.413,7.1,2.326,3.578-.69,11.412-7.375,11.491-7.442a.172.172,0,0,1,.237.014l2.9,3.147a.171.171,0,0,1-.18.279,9.263,9.263,0,0,0-1.531-.42.059.059,0,0,1-.035.005h0c-3.775.023-6.82,4.943-7.346,6.333a11.275,11.275,0,0,0-.644,2.461c-.032.2-.06.381-.1.53a11.987,11.987,0,0,1-1.636,3.824,7.928,7.928,0,0,0-.422.723.171.171,0,0,1-.154.1m-9.5-10.858c.026.2.052.433.078.7a20.349,20.349,0,0,0,2.654,2.964,37.292,37.292,0,0,1,3.575,3.955,6.627,6.627,0,0,0,3.1,2.878c.109-.206.236-.409.38-.639a11.687,11.687,0,0,0,1.595-3.727c.034-.134.06-.295.092-.5a11.717,11.717,0,0,1,.662-2.529c.543-1.436,3.7-6.517,7.647-6.554a3.415,3.415,0,0,1,1.077.235l-2.35-2.552c-1.063.9-8.067,6.745-11.523,7.411-4.273.825-6.178-.573-6.986-1.644M52.4,184.226h0Z" transform="translate(-26.509 -113.06)"/>
    <path id="Path_7821" data-name="Path 7821" d="M39.13,151.179a23.462,23.462,0,0,0-1.257,5.533,14.84,14.84,0,0,0,.934,6.824c1.093,2.15,3.5,4.157,7.766,3.262s12.387-8.021,12.387-8.021-.168-7.918-1.584-10.834S39.13,151.179,39.13,151.179Z" transform="translate(-24.878 -99.444)" fill="#fff"/>
    <path id="Path_7822" data-name="Path 7822" d="M44.253,166.86a6.407,6.407,0,0,1-5.926-3.574,15.022,15.022,0,0,1-.952-6.916,23.821,23.821,0,0,1,1.267-5.579.171.171,0,0,1,.32.12,23.5,23.5,0,0,0-1.246,5.487,14.651,14.651,0,0,0,.916,6.733c.658,1.294,2.71,4.193,7.579,3.172,4.147-.87,7.3-5.582,7.331-5.63a.171.171,0,1,1,.285.189c-.131.2-3.261,4.877-7.546,5.776a9.886,9.886,0,0,1-2.027.222" transform="translate(-24.55 -99.115)"/>
    <path id="Path_7823" data-name="Path 7823" d="M47.332,168.175c0,.423-.125.765-.278.765s-.278-.343-.278-.765.125-.765.278-.765.278.343.278.765" transform="translate(-30.769 -110.121)" fill="#fff"/>
    <path id="Path_7824" data-name="Path 7824" d="M46.725,168.783c-.31,0-.449-.47-.449-.936s.139-.936.449-.936.449.47.449.936-.139.936-.449.936m.029-.335h0Zm-.029-1.166a1.545,1.545,0,0,0,0,1.129,1.54,1.54,0,0,0,0-1.129" transform="translate(-30.44 -109.792)"/>
    <path id="Path_7825" data-name="Path 7825" d="M3.856,114.63a6.889,6.889,0,0,0-3.08,3.308c-.8,2.167.228,3.422,2.053,3.878s4.9-.684,5.475-.8,1.369-1.939-.456-4.449-3.993-1.939-3.993-1.939" transform="translate(-0.33 -75.366)" fill="#fff"/>
    <path id="Path_7826" data-name="Path 7826" d="M3.486,121.759a4.269,4.269,0,0,1-1.029-.112,3.208,3.208,0,0,1-2.177-1.484,3.153,3.153,0,0,1,0-2.619,6.989,6.989,0,0,1,3.164-3.4.19.19,0,0,1,.033-.012c.093-.025,2.3-.571,4.175,2,1.55,2.131,1.155,3.615,1,4.019a1.033,1.033,0,0,1-.647.7c-.1.02-.3.079-.553.154a15.263,15.263,0,0,1-3.969.755m.1-7.3a6.736,6.736,0,0,0-2.98,3.206A2.832,2.832,0,0,0,.583,120a2.884,2.884,0,0,0,1.957,1.312c1.434.359,3.719-.315,4.818-.639.271-.08.467-.138.583-.161s.275-.181.395-.487c.142-.363.492-1.7-.956-3.693-1.664-2.288-3.578-1.927-3.794-1.878" transform="translate(0 -75.031)"/>
    <path id="Path_7827" data-name="Path 7827" d="M65.857,129.494a4.6,4.6,0,0,0-2.18,1.574,5.73,5.73,0,0,0-1.392,4.056c.182,1.453,1.453,2.845,2.784,2.3a5.1,5.1,0,0,0,3.209-3.208c.666-1.877.121-5.509-2.421-4.722" transform="translate(-40.951 -85.107)" fill="#fff"/>
    <path id="Path_7828" data-name="Path 7828" d="M64.139,137.389a1.83,1.83,0,0,1-.931-.266,3.174,3.174,0,0,1-1.424-2.306,5.775,5.775,0,0,1,1.425-4.18A4.739,4.739,0,0,1,65.477,129a1.873,1.873,0,0,1,2.021.441c.964,1,1.094,3.138.61,4.5a5.293,5.293,0,0,1-3.305,3.31,1.747,1.747,0,0,1-.665.134m2.061-8.161a2.105,2.105,0,0,0-.623.1h0a4.478,4.478,0,0,0-2.09,1.512,5.453,5.453,0,0,0-1.36,3.932,2.861,2.861,0,0,0,1.256,2.053,1.425,1.425,0,0,0,1.294.11,4.916,4.916,0,0,0,3.112-3.107c.441-1.241.329-3.251-.535-4.151a1.408,1.408,0,0,0-1.052-.453m-.673-.061h0Z" transform="translate(-40.62 -84.78)"/>
    <path id="Path_7829" data-name="Path 7829" d="M71.109,130.252a9.486,9.486,0,0,1-.242,3.148c-.424,1.574-.666,3.027-.181,3.39s2.179.182,3.087-.3,2.058-1.544,2.058-2.6c0-1.211-1.574-.848-1.574-.848a4.838,4.838,0,0,0,.424-4.238c-.968-2.058-3.693-1.09-5.085,0" transform="translate(-45.78 -83.928)" fill="#fff"/>
    <path id="Path_7830" data-name="Path 7830" d="M71.268,136.822a1.79,1.79,0,0,1-1.014-.226c-.485-.364-.448-1.465.119-3.571a9.39,9.39,0,0,0,.237-3.084.172.172,0,0,1,.151-.19.175.175,0,0,1,.189.151,9.569,9.569,0,0,1-.247,3.212c-.661,2.455-.437,3.064-.244,3.209a4,4,0,0,0,2.9-.317c.791-.422,1.968-1.423,1.968-2.452a.649.649,0,0,0-.222-.544,1.635,1.635,0,0,0-1.143-.137.171.171,0,0,1-.182-.259,4.7,4.7,0,0,0,.413-4.073,1.8,1.8,0,0,0-1.248-1.046,4.8,4.8,0,0,0-3.576,1.108.171.171,0,0,1-.211-.269,5.075,5.075,0,0,1,3.867-1.172,2.125,2.125,0,0,1,1.478,1.234,4.766,4.766,0,0,1-.261,4.095,1.59,1.59,0,0,1,1.077.251.982.982,0,0,1,.351.812c0,1.18-1.285,2.293-2.149,2.754a5.329,5.329,0,0,1-2.256.515" transform="translate(-45.45 -83.598)"/>
    <path id="Path_7831" data-name="Path 7831" d="M82.155,145.272s1.513.121,1.513,1.211" transform="translate(-54.041 -95.558)" fill="#fff"/>
    <path id="Path_7832" data-name="Path 7832" d="M83.339,146.325a.171.171,0,0,1-.171-.171c0-.918-1.343-1.039-1.356-1.04a.171.171,0,0,1,.027-.341c.578.047,1.671.395,1.671,1.382a.171.171,0,0,1-.171.171" transform="translate(-53.711 -95.229)"/>
    <path id="Path_7833" data-name="Path 7833" d="M86.121,144.387a.554.554,0,0,1-.605.545" transform="translate(-56.252 -94.976)" fill="#fff"/>
    <path id="Path_7834" data-name="Path 7834" d="M85.187,144.774a.171.171,0,1,1,0-.342.38.38,0,0,0,.435-.374.171.171,0,0,1,.342,0,.727.727,0,0,1-.777.716" transform="translate(-55.923 -94.647)"/>
    <path id="Path_7835" data-name="Path 7835" d="M77.2,142.823c.409-.514,1.423-1.408,2.16-1.257.761.156.56.922.14,1.317" transform="translate(-50.783 -93.11)" fill="#fff"/>
    <path id="Path_7836" data-name="Path 7836" d="M79.173,142.725a.171.171,0,0,1-.117-.3.864.864,0,0,0,.3-.756A.417.417,0,0,0,79,141.4c-.609-.126-1.549.64-1.992,1.2a.171.171,0,1,1-.267-.213c.319-.4,1.43-1.5,2.328-1.318a.75.75,0,0,1,.623.511,1.2,1.2,0,0,1-.4,1.1.171.171,0,0,1-.117.047" transform="translate(-50.453 -92.78)"/>
    <path id="Path_7837" data-name="Path 7837" d="M40.3,122.933a11,11,0,0,0-1.513-3.269,11.767,11.767,0,0,0-4.359-3.027c-1.244-.541-1.517-.484-1.517-.484-4.923-1.461-7.069,2.3-6.709,3.3.324.9,2.077,4.335,3.528,5.491a3.938,3.938,0,0,1,.707,1.282c.257,1.027.128,3.018,2.761,4.366s3.35.931,5.468-.032c2.633-1.2,2.482-4.54,1.634-7.628" transform="translate(-17.209 -76.186)" fill="#fff"/>
    <path id="Path_7838" data-name="Path 7838" d="M35.576,131.3a6.216,6.216,0,0,1-2.787-.878,4.708,4.708,0,0,1-2.745-3.931c-.033-.2-.064-.388-.1-.545a3.643,3.643,0,0,0-.664-1.2c-1.451-1.171-3.216-4.58-3.565-5.554a2.766,2.766,0,0,1,.939-2.317c.659-.7,2.556-2.209,5.95-1.214a4.472,4.472,0,0,1,1.567.5,11.87,11.87,0,0,1,4.429,3.084,11.174,11.174,0,0,1,1.539,3.324c1.125,4.1.527,6.8-1.729,7.828l-.212.1a6.333,6.333,0,0,1-2.618.81m-5.123-15.628A4.793,4.793,0,0,0,26.9,117.1a2.466,2.466,0,0,0-.865,1.966c.343.954,2.069,4.3,3.473,5.415a.167.167,0,0,1,.03.03,4.02,4.02,0,0,1,.736,1.344c.042.171.074.366.108.573a4.36,4.36,0,0,0,2.563,3.683c2.469,1.264,3.188.937,5.107.061l.213-.1c2.63-1.2,2.289-4.7,1.54-7.427a10.811,10.811,0,0,0-1.488-3.214,11.526,11.526,0,0,0-4.288-2.97A4.211,4.211,0,0,0,32.6,116a.118.118,0,0,1-.071-.005,7.3,7.3,0,0,0-2.078-.323" transform="translate(-16.88 -75.861)"/>
    <path id="Path_7839" data-name="Path 7839" d="M13.362,92.718A6.016,6.016,0,0,0,8.411,98.51c.079,4.692,4.712,5.616,8.44,4.833,0,0,2.55-.756,3.408-1.785a3.436,3.436,0,0,0,.31-4.036c-.858-1.544-1.544-1.029-2.231-2.4s-1.544-3.087-4.976-2.4" transform="translate(-5.532 -60.886)" fill="#fff"/>
    <path id="Path_7840" data-name="Path 7840" d="M14.162,103.439A7.183,7.183,0,0,1,9.68,102.1a4.852,4.852,0,0,1-1.77-3.916A6.2,6.2,0,0,1,13,92.224c3.562-.712,4.486,1.141,5.163,2.493a2.3,2.3,0,0,0,.973,1.058,3.268,3.268,0,0,1,1.254,1.337,3.593,3.593,0,0,1-.329,4.228c-.881,1.057-3.385,1.808-3.491,1.84a11.722,11.722,0,0,1-2.407.259m-1.1-10.88a5.854,5.854,0,0,0-4.814,5.622,4.524,4.524,0,0,0,1.641,3.653c1.491,1.19,3.955,1.569,6.592,1.014.011,0,2.5-.75,3.312-1.727a3.265,3.265,0,0,0,.292-3.843,2.938,2.938,0,0,0-1.14-1.216,2.649,2.649,0,0,1-1.094-1.193c-.7-1.392-1.486-2.97-4.79-2.311" transform="translate(-5.203 -60.56)"/>
    <path id="Path_7841" data-name="Path 7841" d="M16.487,116.774s-1.611-.26-1.611.557.7,1.168,1.518,1.285a1.4,1.4,0,0,0,1.285-.584" transform="translate(-9.785 -76.787)" fill="#fff"/>
    <path id="Path_7842" data-name="Path 7842" d="M16.251,118.469a1.489,1.489,0,0,1-.209-.015c-1.377-.2-1.666-.9-1.666-1.454a.64.64,0,0,1,.228-.5,2.375,2.375,0,0,1,1.582-.224.171.171,0,0,1-.055.338,2.077,2.077,0,0,0-1.305.147.3.3,0,0,0-.108.242c0,.61.462.985,1.371,1.115a1.218,1.218,0,0,0,1.119-.51.171.171,0,1,1,.285.19,1.591,1.591,0,0,1-1.242.674" transform="translate(-9.456 -76.455)"/>
    <path id="Path_7843" data-name="Path 7843" d="M25.736,118.271a2.522,2.522,0,0,0-2.7-.54c-1.8.54-.99,1.98-.72,2.79s2.25,2.52,3.33,3.24a5.8,5.8,0,0,0,4.589.81c1.44-.54,2.52-4.59,2.52-6.209s-.18-2.7-.63-3.24a.919.919,0,0,0-1.35-.18c-.45.27-.81.18-1.17.63s-.72.54-.36,1.08.63.27.99.72.45.36-.36,1.08a12.68,12.68,0,0,0-1.62,1.89Z" transform="translate(-14.406 -75.466)" fill="#fff"/>
    <path id="Path_7844" data-name="Path 7844" d="M28.681,124.612a6.832,6.832,0,0,1-3.457-1.041c-1.026-.684-3.1-2.43-3.4-3.328-.031-.093-.069-.195-.11-.3a2.452,2.452,0,0,1-.182-1.89,1.719,1.719,0,0,1,1.125-.815,2.692,2.692,0,0,1,2.869.581L27.9,119.76a12.066,12.066,0,0,1,1.54-1.769l.03-.027a2.9,2.9,0,0,0,.537-.532,1.047,1.047,0,0,0-.121-.157c-.032-.038-.068-.08-.106-.129a.719.719,0,0,0-.39-.261,1.047,1.047,0,0,1-.609-.471.676.676,0,0,1,.137-1.028,3.229,3.229,0,0,0,.231-.254,1.406,1.406,0,0,1,.772-.485,2,2,0,0,0,.443-.185,1.086,1.086,0,0,1,1.569.217c.463.556.67,1.589.67,3.349,0,1.553-1.049,5.777-2.631,6.37a3.677,3.677,0,0,1-1.288.213m-4.994-7.193a3.235,3.235,0,0,0-.928.145,1.382,1.382,0,0,0-.916.639,2.18,2.18,0,0,0,.2,1.617c.042.112.082.218.115.315.243.729,2.117,2.388,3.262,3.151a5.633,5.633,0,0,0,4.434.792c1.294-.485,2.409-4.354,2.409-6.049,0-1.652-.188-2.647-.59-3.13a.749.749,0,0,0-1.13-.143,2.3,2.3,0,0,1-.515.218,1.079,1.079,0,0,0-.609.373,3.475,3.475,0,0,1-.255.28c-.239.243-.3.3-.1.6a.721.721,0,0,0,.439.337,1.05,1.05,0,0,1,.542.37l.1.122c.369.437.244.549-.45,1.166l-.03.027a12.552,12.552,0,0,0-1.593,1.859.172.172,0,0,1-.249.035l-2.519-2.07a.159.159,0,0,1-.023-.023,2.122,2.122,0,0,0-1.591-.631" transform="translate(-14.078 -75.134)"/>
    <path id="Path_7845" data-name="Path 7845" d="M35.659,110.366a.171.171,0,1,1,0-.342c.439,0,1.019-.622,1.206-.862a.171.171,0,0,1,.27.21c-.079.1-.793.994-1.476.994" transform="translate(-23.344 -71.762)"/>
    <path id="Path_7851" data-name="Path 7851" d="M37.111,118.414c0,.176-.468.351-.41.937s.41.878.82.7-.059-.937-.059-.937Z" transform="translate(-24.138 -77.892)" fill="#fff"/>
    <path id="Path_7852" data-name="Path 7852" d="M36.961,119.929a.636.636,0,0,1-.326-.089,1.023,1.023,0,0,1-.433-.819,1.047,1.047,0,0,1,.329-.873.668.668,0,0,0,.083-.1.159.159,0,0,1,.13-.157.175.175,0,0,1,.191.1l.351.7a1.365,1.365,0,0,1,.22.9.429.429,0,0,1-.247.27.759.759,0,0,1-.3.064m-.2-1.523a.687.687,0,0,0-.218.582.713.713,0,0,0,.267.558.335.335,0,0,0,.315,0,.087.087,0,0,0,.056-.059,1.076,1.076,0,0,0-.193-.631Z" transform="translate(-23.81 -77.545)"/>
    <path id="Path_7853" data-name="Path 7853" d="M42.477,112.344a21.444,21.444,0,0,1-3.222.067c-.94-.134-1.678.537-1.611,1.141s-.067,1.544.47,1.813a4.122,4.122,0,0,0,1.746.134c.268,0,.94-.738.94-.738a7.49,7.49,0,0,0,2.081.738c1.88.537,3.491,1.074,4.162-.336s-.2-2.283-1.342-2.819a6.107,6.107,0,0,0-3.222,0" transform="translate(-24.759 -73.742)" fill="#fff"/>
    <path id="Path_7854" data-name="Path 7854" d="M45.192,115.9a9.6,9.6,0,0,1-2.441-.5l-.247-.07a12.584,12.584,0,0,1-2-.685c-.253.266-.7.692-.971.692-.05,0-.123,0-.213.011a3.418,3.418,0,0,1-1.609-.163c-.5-.252-.522-.912-.539-1.494,0-.161-.009-.316-.024-.453a1.094,1.094,0,0,1,.365-.891,1.723,1.723,0,0,1,1.44-.438,21.033,21.033,0,0,0,3.17-.067,6.116,6.116,0,0,1,3.324.014,2.805,2.805,0,0,1,1.576,1.467,2.021,2.021,0,0,1-.152,1.581,1.678,1.678,0,0,1-1.675.992m-4.6-1.59a9.249,9.249,0,0,0,2.007.7l.247.071c1.943.559,3.162.842,3.714-.316a1.7,1.7,0,0,0,.139-1.318,2.489,2.489,0,0,0-1.4-1.273,5.979,5.979,0,0,0-3.107.011l-.028,0a21.219,21.219,0,0,1-3.261.066,1.378,1.378,0,0,0-1.154.345.759.759,0,0,0-.264.608c.016.145.021.31.026.48.014.487.03,1.038.35,1.2a3.225,3.225,0,0,0,1.434.128c.1-.006.18-.011.235-.011a2.739,2.739,0,0,0,.813-.682.17.17,0,0,1,.123-.056.174.174,0,0,1,.125.05m1.557-2.3h0Z" transform="translate(-24.43 -73.412)"/>
    <path id="Path_7855" data-name="Path 7855" d="M39.464,117.172a.17.17,0,0,1-.138-.07,3.767,3.767,0,0,1-.206-2.3.171.171,0,0,1,.336.064A3.382,3.382,0,0,0,39.6,116.9a.171.171,0,0,1-.138.272" transform="translate(-25.672 -75.424)"/>
    <path id="Path_7856" data-name="Path 7856" d="M41.508,117.231a.171.171,0,0,1-.127-.057c-.571-.635-.2-2.2-.156-2.381a.171.171,0,0,1,.332.083c-.108.432-.3,1.645.078,2.069a.171.171,0,0,1-.127.285" transform="translate(-27.012 -75.425)"/>
    <path id="Path_7857" data-name="Path 7857" d="M43.505,117.69a.171.171,0,0,1-.154-.1,3.626,3.626,0,0,1,.091-2.3.171.171,0,0,1,.322.116,3.357,3.357,0,0,0-.1,2.04.171.171,0,0,1-.154.245" transform="translate(-28.405 -75.761)"/>
    <path id="Path_7858" data-name="Path 7858" d="M71.744,85.23l2.968,16.592a35.062,35.062,0,0,0-4.991,2.158c-3.912,1.888-8.384,3.941-9.847,4.182s-2.7-.135-3.1.135-.944,2.158,2.293,2.833,15.783-2.7,18.751-3.238,3.1-1.753,3.237-2.968-.809-18.616-1.619-21.584a4.974,4.974,0,0,0-5.4-3.912" transform="translate(-37.141 -52.243)" fill="#fff"/>
    <path id="Path_7859" data-name="Path 7859" d="M59.829,111.06a5.665,5.665,0,0,1-1.128-.092c-2.117-.441-2.606-1.4-2.709-1.926a1.264,1.264,0,0,1,.355-1.216,2.214,2.214,0,0,1,1.22-.109,8.742,8.742,0,0,0,1.95-.052c1.159-.191,4.549-1.632,9.8-4.167a43.211,43.211,0,0,1,4.871-2.124L71.248,84.93a.171.171,0,1,1,.337-.06l2.967,16.592a.172.172,0,0,1-.127.2,35.988,35.988,0,0,0-4.958,2.146c-5.357,2.586-8.686,4-9.894,4.2a8.974,8.974,0,0,1-2.025.056,2.313,2.313,0,0,0-1.011.052.949.949,0,0,0-.209.866c.086.447.519,1.256,2.442,1.657,2.412.5,10.33-1.336,15.062-2.434,1.617-.375,2.894-.672,3.624-.8,2.842-.517,2.967-1.635,3.1-2.818.134-1.209-.8-18.555-1.614-21.52a4.814,4.814,0,0,0-5.223-3.786.163.163,0,0,1-.179-.163.171.171,0,0,1,.163-.179,5.167,5.167,0,0,1,5.569,4.038c.813,2.983,1.758,20.432,1.624,21.648-.14,1.256-.284,2.555-3.377,3.117-.721.131-2,.427-3.608.8-4.448,1.032-10.893,2.528-14.081,2.528" transform="translate(-36.813 -51.913)"/>
    <path id="Path_7860" data-name="Path 7860" d="M43.154,141.472s2.359-2.636,4.477-2.571,4.7,3.085,5.088,3.984.45.771.45.771a6.508,6.508,0,0,1,1.993-1.054c.77-.128,1.924-.487,1.731.99s-1.185,1.463-1.634,1.848-.835,1.513-2,1.513c-.605,0-1.133-.739-1.877-.908a9.166,9.166,0,0,1-2.9-1.555s-.385,3.018-3.146,3.082a4.427,4.427,0,0,1-4.623-3.788" transform="translate(-26.781 -91.367)" fill="#fff"/>
    <path id="Path_7861" data-name="Path 7861" d="M44.887,147.415a4.606,4.606,0,0,1-4.671-3.942.171.171,0,0,1,.152-.188.173.173,0,0,1,.189.152A4.269,4.269,0,0,0,45,147.072c2.584-.06,2.976-2.9,2.98-2.932a.171.171,0,0,1,.276-.112,9.045,9.045,0,0,0,2.834,1.521,3,3,0,0,1,1,.513,1.684,1.684,0,0,0,.834.391,1.839,1.839,0,0,0,1.486-1,2.862,2.862,0,0,1,.4-.476,2.1,2.1,0,0,1,.475-.278,1.628,1.628,0,0,0,1.1-1.463.931.931,0,0,0-.139-.794c-.232-.219-.731-.126-1.172-.044l-.222.04a6.373,6.373,0,0,0-1.917,1.021h0a.167.167,0,0,1-.121.042c-.125,0-.241-.069-.589-.88-.4-.942-2.958-3.82-4.936-3.88-2.007-.076-4.322,2.489-4.345,2.515a.171.171,0,1,1-.255-.228c.1-.11,2.425-2.687,4.61-2.629,2.249.068,4.875,3.236,5.241,4.088a4.831,4.831,0,0,0,.3.619,6.039,6.039,0,0,1,1.955-1c.069-.011.142-.025.216-.039.522-.1,1.113-.206,1.47.133a1.209,1.209,0,0,1,.243,1.087,1.957,1.957,0,0,1-1.293,1.727,1.846,1.846,0,0,0-.4.228,2.672,2.672,0,0,0-.347.418,2.167,2.167,0,0,1-1.762,1.136,1.9,1.9,0,0,1-1.028-.451,2.7,2.7,0,0,0-.887-.461,8.587,8.587,0,0,1-2.75-1.419,3.505,3.505,0,0,1-3.256,2.951h-.125" transform="translate(-26.453 -91.038)"/>
    <path id="Path_7862" data-name="Path 7862" d="M83.418,154.088a.171.171,0,0,1-.1-.309c.118-.087.728-.516,1.119-.409a.4.4,0,0,1,.271.238.171.171,0,0,1-.315.135.061.061,0,0,0-.046-.043c-.173-.047-.594.183-.826.354a.171.171,0,0,1-.1.033" transform="translate(-54.759 -100.874)"/>
    <path id="Path_7863" data-name="Path 7863" d="M83.347,152.12a.171.171,0,0,1-.072-.326,1.93,1.93,0,0,1,1.636.009.171.171,0,0,1-.176.294,1.6,1.6,0,0,0-1.317.009.174.174,0,0,1-.072.016" transform="translate(-54.712 -99.725)"/>
    <path id="Path_7864" data-name="Path 7864" d="M84.948,150.356a.172.172,0,0,1-.111-.041c-.312-.267-1.013-.157-1.258-.093a.171.171,0,0,1-.088-.331c.043-.011,1.056-.275,1.568.164a.171.171,0,0,1-.111.3" transform="translate(-54.836 -98.539)"/>
    <path id="Path_7865" data-name="Path 7865" d="M45.393,10.352S46.439,13.7,49.142,14.2s5.933-.666,6.676.594,2.112,3.783,3.531,4.319c0,0-1.182,3.075-.4,5.385s3.861,3.724,4.235,4.412-1.232,1.559-1.558,5.774,1.167,6.967,2.964,8.308,4.9-.164,4.9-.164a1.95,1.95,0,0,1-.8-3.009c1.333-2.03,7.165-2.225,7.366-6.669s-1.832-5.894-1.618-6.485,3.452-1.517,2.616-5.576-6.827-5.142-7.466-6.756C67.893,10.063,66.2,4.506,61.912,2.148c-2.881-1.584-9.58-2.735-12.119.117A7.575,7.575,0,0,0,47.9,4.9" transform="translate(-29.859 -0.342)"/>
    <path id="Path_7866" data-name="Path 7866" d="M66.166,43.375a3.307,3.307,0,0,1-2.013-.593c-1.048-.782-3.441-3.173-3.032-8.458a11.306,11.306,0,0,1,1.312-4.779c.255-.5.363-.721.266-.9a4.641,4.641,0,0,0-1.016-.861c-1.071-.786-2.69-1.975-3.23-3.578A9.261,9.261,0,0,1,58.8,18.86c-1.3-.615-2.522-2.713-3.264-3.987l-.2-.339c-.378-.642-1.626-.557-3.071-.46a14.358,14.358,0,0,1-3.488-.052C46.01,13.516,44.944,10.2,44.9,10.06a.171.171,0,0,1,.327-.1c.01.033,1.049,3.259,3.616,3.727a14.11,14.11,0,0,0,3.4.047c1.557-.105,2.9-.2,3.389.628l.2.34c.748,1.285,2,3.435,3.245,3.905a.171.171,0,0,1,.1.221c-.012.03-1.15,3.046-.4,5.269.506,1.5,2.01,2.6,3.109,3.411A4.32,4.32,0,0,1,63,28.481c.187.345.008.693-.263,1.22a11,11,0,0,0-1.275,4.649c-.4,5.116,1.893,7.41,2.9,8.158,1.373,1.025,3.607.277,4.417-.049a2.308,2.308,0,0,1-.963-1.228,2.212,2.212,0,0,1,.4-1.853,6.738,6.738,0,0,1,2.82-1.839c2.06-.946,4.395-2.019,4.518-4.743a9.38,9.38,0,0,0-1.281-5.532c-.262-.465-.421-.747-.328-1,.068-.188.286-.346.617-.586a4.318,4.318,0,0,0,1.992-4.9c-.509-2.469-2.99-3.8-4.983-4.877-1.237-.666-2.214-1.192-2.475-1.85-.193-.487-.385-.991-.582-1.5-1.53-4-3.263-8.531-7.01-10.59C58.7.414,52.05-.726,49.591,2.035A7.5,7.5,0,0,0,47.732,4.6.171.171,0,0,1,47.4,4.51,7.623,7.623,0,0,1,49.348,1.8c2.669-3,9.539-1.668,12.318-.14,3.856,2.12,5.614,6.714,7.164,10.767.2.513.388,1.015.58,1.5.215.542,1.19,1.067,2.319,1.675,2.056,1.106,4.614,2.483,5.155,5.109a4.618,4.618,0,0,1-2.126,5.243,1.961,1.961,0,0,0-.5.425c-.039.11.12.392.3.719a9.693,9.693,0,0,1,1.325,5.715c-.133,2.934-2.674,4.1-4.717,5.039A6.567,6.567,0,0,0,68.5,39.565a1.891,1.891,0,0,0-.356,1.569,2.183,2.183,0,0,0,1.085,1.191.171.171,0,0,1,0,.309,7.941,7.941,0,0,1-3.063.741" transform="translate(-29.53 0)"/>
    <path id="Path_7867" data-name="Path 7867" d="M44.925,155.209a46.237,46.237,0,0,1-6.338-1.721c-1.308-.6-2.867-1.459-3.069-2.113s-.252-1.258-.4-1.861a19.16,19.16,0,0,0-.755-2.213c-.252-.6.1-1.157.453-.6a7.036,7.036,0,0,0,1.66,1.761c.4.2,1.761,1.056,1.761,1.056s-.151-.252-.4-.654-.956-.5-1.459-.905a1.111,1.111,0,0,1-.293-1.414c.21-.458.9.659,1.9,1.112s1.509.4,2.113,1.006l2.364,2.364,1.811,1.459" transform="translate(-22.547 -96.322)" fill="#fff"/>
    <path id="Path_7868" data-name="Path 7868" d="M44.6,155.051a46.037,46.037,0,0,1-6.41-1.737c-1.318-.608-2.935-1.487-3.16-2.218a9.379,9.379,0,0,1-.254-1.127c-.047-.256-.09-.5-.151-.743a19.116,19.116,0,0,0-.747-2.189c-.179-.428-.106-.89.162-1.03.074-.039.337-.134.593.268a6.941,6.941,0,0,0,1.592,1.7c.227.114.741.424,1.158.681l-.021-.035a1.518,1.518,0,0,0-.667-.436,3.565,3.565,0,0,1-.754-.426,1.282,1.282,0,0,1-.342-1.619.33.33,0,0,1,.231-.2c.222-.048.45.149.794.448a4.732,4.732,0,0,0,1.1.78,8.794,8.794,0,0,0,.884.335,2.813,2.813,0,0,1,1.28.706l2.364,2.365,1.8,1.447a.171.171,0,1,1-.215.266l-1.811-1.459-2.378-2.377a2.48,2.48,0,0,0-1.146-.624,8.972,8.972,0,0,1-.916-.347,5,5,0,0,1-1.188-.834,1.942,1.942,0,0,0-.5-.371.98.98,0,0,0,.259,1.217,3.232,3.232,0,0,0,.683.382,1.752,1.752,0,0,1,.814.566c.253.4.4.656.4.656a.171.171,0,0,1-.238.233c-.013-.009-1.355-.853-1.746-1.048a7.145,7.145,0,0,1-1.728-1.822c-.078-.123-.136-.149-.147-.149a.134.134,0,0,0-.041.061.728.728,0,0,0,.038.534,19.517,19.517,0,0,1,.762,2.237c.064.256.111.515.156.766A9.209,9.209,0,0,0,35.354,151c.145.47,1.23,1.2,2.977,2.008a46.382,46.382,0,0,0,6.269,1.705.174.174,0,0,1,.165.175.169.169,0,0,1-.168.167" transform="translate(-22.219 -95.993)"/>
    <path id="Path_7869" data-name="Path 7869" d="M37.633,154.108a.178.178,0,0,1-.062-.011,4.048,4.048,0,0,1-1.267-.844,5.642,5.642,0,0,1-.937-1.3.171.171,0,1,1,.306-.153,5.384,5.384,0,0,0,.873,1.213,3.769,3.769,0,0,0,1.148.766.171.171,0,0,1-.062.331" transform="translate(-23.252 -99.789)"/>
    <path id="Path_7870" data-name="Path 7870" d="M38.347,158.4a.172.172,0,0,1-.082-.021,3.119,3.119,0,0,1-1.435-1.291.171.171,0,0,1,.316-.133,2.9,2.9,0,0,0,1.283,1.124.171.171,0,0,1-.082.321" transform="translate(-24.219 -103.173)"/>
    <path id="Path_7871" data-name="Path 7871" d="M16.788,124.93a7.294,7.294,0,0,1,3.058.581c1.286.65.827.973,2.089,1.653s1.748.582,1.36,1.262-1.651,0-1.651,0a10.293,10.293,0,0,0,1.262,1.068c.583.389,2.719,1.166,2.234,1.651a7.894,7.894,0,0,1-3.69,1.554c-.874-.1-2.719-2.234-3.69-3.3s-1.068-1.748-1.457-2.04" transform="translate(-10.723 -82.176)" fill="#fff"/>
    <path id="Path_7872" data-name="Path 7872" d="M21.226,132.545a1.11,1.11,0,0,1-.125-.007c-.792-.088-2.11-1.485-3.506-3.034l-.292-.323a7.332,7.332,0,0,1-1.038-1.463,1.8,1.8,0,0,0-.395-.554.171.171,0,1,1,.2-.274,2.027,2.027,0,0,1,.487.659,7.041,7.041,0,0,0,.993,1.4l.293.324c.9.993,2.561,2.842,3.29,2.923a7.938,7.938,0,0,0,3.55-1.5c.023-.023.022-.033.021-.04-.04-.244-.969-.7-1.467-.945a7.722,7.722,0,0,1-.76-.4,10.284,10.284,0,0,1-1.289-1.09.171.171,0,0,1,.2-.272c.011.006,1.125.585,1.421.066.107-.186.116-.266.1-.3-.027-.084-.252-.184-.537-.312-.229-.1-.514-.23-.86-.415a3.047,3.047,0,0,1-1.076-.868,2.607,2.607,0,0,0-1.009-.783,7.182,7.182,0,0,0-2.973-.563.159.159,0,0,1-.178-.164.172.172,0,0,1,.165-.178,7.386,7.386,0,0,1,3.141.6,2.928,2.928,0,0,1,1.119.871,2.723,2.723,0,0,0,.975.784c.334.18.613.3.837.4.4.181.648.29.723.518a.744.744,0,0,1-.132.576.932.932,0,0,1-1.069.355,6.822,6.822,0,0,0,.627.486,7.731,7.731,0,0,0,.721.38c.928.456,1.59.809,1.655,1.2a.375.375,0,0,1-.116.338,8.3,8.3,0,0,1-3.705,1.609" transform="translate(-10.395 -81.847)"/>
    <path id="Path_7873" data-name="Path 7873" d="M32.432,139.46a.172.172,0,0,1-.037,0,10.759,10.759,0,0,1-2.428-.782c-.429-.322-2.039-1.5-2.039-1.5l.2-.276s1.611,1.182,2.041,1.5a10.615,10.615,0,0,0,2.3.721.171.171,0,0,1-.037.338" transform="translate(-18.371 -90.049)"/>
    <path id="Path_7874" data-name="Path 7874" d="M30.066,141.794h-.012a4.75,4.75,0,0,1-2.014-.483,21.1,21.1,0,0,0-2.113-1.369.171.171,0,0,1,.174-.295,21.29,21.29,0,0,1,2.182,1.422,4.7,4.7,0,0,0,1.8.383.171.171,0,0,1-.012.342" transform="translate(-16.999 -91.843)"/>
    <path id="Path_7875" data-name="Path 7875" d="M27.741,143.6a.172.172,0,0,1-.073-.016,8.92,8.92,0,0,1-2.871-2.035.171.171,0,0,1,.285-.19,8.816,8.816,0,0,0,2.732,1.915.171.171,0,0,1-.072.326" transform="translate(-16.292 -92.936)"/>
    <path id="Path_7876" data-name="Path 7876" d="M29.2,133.108a.171.171,0,0,1-.1-.032c-.007,0-.661-.474-1.252-.99a.171.171,0,0,1,.225-.258c.578.505,1.219.965,1.226.969a.171.171,0,0,1-.1.31" transform="translate(-18.28 -86.687)"/>
    <path id="Path_7877" data-name="Path 7877" d="M71.819,283.744a42.162,42.162,0,0,0-2.3-4.107,7.321,7.321,0,0,0,.147-1.2,6.655,6.655,0,0,1,1.013-1.276c-.027.715-.044,1.194-.044,1.194s.568,2.3,1.187,5.386" transform="translate(-45.727 -182.315)"/>
    <path id="Path_7878" data-name="Path 7878" d="M71.49,283.587a.171.171,0,0,1-.153-.095,42.369,42.369,0,0,0-2.292-4.088.171.171,0,0,1-.025-.129,7.216,7.216,0,0,0,.144-1.158c0-.1,0-.206,1.056-1.4a.171.171,0,0,1,.3.12l-.043,1.17c.062.252.6,2.477,1.183,5.37a.17.17,0,0,1-.112.2.168.168,0,0,1-.056.01m-2.122-4.313c.163.25.82,1.285,1.7,2.957-.508-2.426-.931-4.141-.936-4.161a.167.167,0,0,1,0-.047l.027-.714a5.773,5.773,0,0,0-.653.822,7.086,7.086,0,0,1-.138,1.142" transform="translate(-45.398 -181.986)"/>
    <path id="Path_7879" data-name="Path 7879" d="M67.343,338.925a1.453,1.453,0,0,1-1.509.777,77.059,77.059,0,0,0-2.118-8.939,80.252,80.252,0,0,1,3.627,8.162" transform="translate(-41.912 -217.573)"/>
    <path id="Path_7880" data-name="Path 7880" d="M65.709,339.558a1.4,1.4,0,0,1-.232-.018.171.171,0,0,1-.141-.151,74.163,74.163,0,0,0-2.113-8.91.171.171,0,0,1,.319-.12,72.775,72.775,0,0,1,3.64,8.2.17.17,0,0,1-.013.114,1.588,1.588,0,0,1-1.459.888m-.049-.345a1.236,1.236,0,0,0,1.173-.64,59.9,59.9,0,0,0-2.775-6.341,67.776,67.776,0,0,1,1.6,6.981" transform="translate(-41.583 -217.243)"/>
    <path id="Path_7881" data-name="Path 7881" d="M64.718,361.368c-.524,1.228-4.11,2.478-4.565,3.3a3.509,3.509,0,0,1-.311.459,4.8,4.8,0,0,1-2.522,1.735c-.243.045-.555.082-.894.113-1.225.12-2.806.171-2.806.171s-1.608.133-1.858-.1-.424-.63.212-.893c.383-.157,1.225-.537,1.937-.9h.007a0,0,0,0,0,0,0,5.924,5.924,0,0,0,1.064-.647,47.59,47.59,0,0,0,2.666-4.688s.524-1.225.171-4.521a1.453,1.453,0,0,0,1.509-.777c.062.267.127.537.2.8a11.426,11.426,0,0,0,2.573-.291,11.024,11.024,0,0,0,1.061,3.234c.588.623,2.077,1.783,1.554,3.011" transform="translate(-33.899 -233.261)" fill="#fff"/>
    <path id="Path_7882" data-name="Path 7882" d="M52.388,367.028a1.992,1.992,0,0,1-1.072-.186.72.72,0,0,1-.273-.642c.041-.224.221-.4.536-.534.369-.152,1.21-.53,1.924-.9l.023-.01a5.248,5.248,0,0,0,1.015-.615,41.159,41.159,0,0,0,2.629-4.64s.495-1.231.153-4.424a.171.171,0,0,1,.2-.187,1.271,1.271,0,0,0,1.327-.683.171.171,0,0,1,.32.037c.051.222.1.447.163.668a11.054,11.054,0,0,0,2.4-.285.169.169,0,0,1,.131.02.173.173,0,0,1,.077.108,11.137,11.137,0,0,0,1.018,3.153c.083.089.185.187.3.3.711.693,1.786,1.741,1.292,2.9-.317.745-1.559,1.431-2.761,2.094a6.258,6.258,0,0,0-1.812,1.221,3.742,3.742,0,0,1-.328.483,4.962,4.962,0,0,1-2.625,1.8c-.234.043-.54.081-.908.115-1.215.119-2.8.171-2.816.172-.215.018-.561.041-.908.041m1.249-1.944c-.719.368-1.557.745-1.927.9-.194.081-.312.18-.33.279a.416.416,0,0,0,.169.331,4.939,4.939,0,0,0,1.727.054c.025,0,1.6-.053,2.8-.171.359-.032.654-.07.879-.111a4.671,4.671,0,0,0,2.418-1.672,3.393,3.393,0,0,0,.3-.438A5.841,5.841,0,0,1,61.62,362.9c1.1-.605,2.34-1.292,2.611-1.928.4-.944-.571-1.894-1.215-2.522-.115-.113-.219-.214-.305-.305A11.229,11.229,0,0,1,61.646,355a11.708,11.708,0,0,1-2.437.256.184.184,0,0,1-.175-.126c-.038-.139-.074-.28-.108-.422a1.586,1.586,0,0,1-1.243.539c.31,3.149-.183,4.35-.2,4.4A43.772,43.772,0,0,1,54.77,364.4a5.84,5.84,0,0,1-1.087.665.18.18,0,0,1-.047.022m10.752-4.045h0Z" transform="translate(-33.57 -232.932)"/>
    <path id="Path_7883" data-name="Path 7883" d="M54.975,183.753a41.271,41.271,0,0,0-1.177,5.38c-.25,2.187-2.97,6.82-4.8,9.948a57.012,57.012,0,0,0-4.8,13.066c-.007.031-.014.058-.021.089-.171-.517-.39-1.187-.626-1.961v0c-.2-.722,4.671-15.109,6.564-16.868l3.059-7.864a7.7,7.7,0,0,0,1.8-1.786Z" transform="translate(-28.64 -120.871)"/>
    <path id="Path_7884" data-name="Path 7884" d="M43.85,212.085a.171.171,0,0,1-.163-.117c-.166-.5-.387-1.177-.627-1.965a.159.159,0,0,1-.007-.04c-.131-1.135,4.714-15.138,6.589-16.978l3.046-7.829a.168.168,0,0,1,.06-.077,7.539,7.539,0,0,0,1.763-1.747.179.179,0,0,1,.278,0,.172.172,0,0,1,.029.151,41.378,41.378,0,0,0-1.172,5.351c-.252,2.205-2.976,6.859-4.779,9.939l-.044.077a56.826,56.826,0,0,0-4.785,13.014l-.021.091a.171.171,0,0,1-.158.134H43.85m-.458-2.167c.153.5.3.957.426,1.35a57.606,57.606,0,0,1,4.709-12.6l.044-.077c1.788-3.055,4.49-7.671,4.734-9.8a36.55,36.55,0,0,1,.964-4.614,8.054,8.054,0,0,1-1.283,1.15l-3.041,7.816a.175.175,0,0,1-.043.063c-1.963,1.824-6.612,16.073-6.514,16.7a.1.1,0,0,1,0,.01" transform="translate(-28.318 -120.549)"/>
    <path id="Path_7885" data-name="Path 7885" d="M46.254,196.837c-1.892,1.759-6.762,16.145-6.564,16.868a42.509,42.509,0,0,1-2-9.572c-.16-4.753.955-9.951,1-11.081.031-.883-.01-2.5-.055-3.973a9.4,9.4,0,0,0,10.674-.106Z" transform="translate(-24.785 -124.305)"/>
    <path id="Path_7886" data-name="Path 7886" d="M39.364,213.549a.174.174,0,0,1-.165-.123,42.592,42.592,0,0,1-2-9.616,52.9,52.9,0,0,1,.771-9.354c.121-.8.217-1.438.229-1.739.031-.877-.01-2.495-.055-3.961a.171.171,0,0,1,.273-.143,9.233,9.233,0,0,0,10.472-.107.171.171,0,0,1,.259.2l-3.059,7.864a.173.173,0,0,1-.043.063c-1.963,1.824-6.612,16.073-6.514,16.7a.169.169,0,0,1-.118.207.157.157,0,0,1-.047.007m-.871-24.462c.04,1.375.073,2.823.044,3.642-.012.32-.1.932-.232,1.777a52.6,52.6,0,0,0-.767,9.292,39.864,39.864,0,0,0,1.773,8.813c.754-3.219,4.8-14.557,6.469-16.2l2.849-7.322a9.637,9.637,0,0,1-10.136,0m7.433,7.421h0Z" transform="translate(-24.457 -123.975)"/>
    <path id="Path_7887" data-name="Path 7887" d="M75.093,361.141c-.859.835-1.694,2.4-2.481,2.987a3.039,3.039,0,0,0-.329.291c-.725.719-1.571,1.992-2.327,2.3a9.686,9.686,0,0,1-3.381.2c-.407-.068-2,.39-1.865-.26a.963.963,0,0,1,.376-.493c.527-.435,1.441-.856,1.653-1.513a3.51,3.51,0,0,1,.137-.339c.6-1.3,2.594-4.678,2.491-5.475-.1-.77-.712-2.44-1.177-4.233a11.429,11.429,0,0,0,2.573-.291,3.784,3.784,0,0,0,1.862-.934,13.619,13.619,0,0,0,.411,1.786c.352.876,2.57,2.012,3,2.885a3.026,3.026,0,0,1-.945,3.1" transform="translate(-42.56 -232.445)" fill="#fff"/>
    <path id="Path_7888" data-name="Path 7888" d="M64.933,366.847a.842.842,0,0,1-.631-.185.407.407,0,0,1-.088-.376,1.1,1.1,0,0,1,.437-.591c.152-.126.331-.247.52-.375.442-.3.942-.639,1.077-1.057a3.613,3.613,0,0,1,.144-.357c.176-.381.459-.918.787-1.54.7-1.326,1.757-3.329,1.69-3.844a15.625,15.625,0,0,0-.535-2.005c-.2-.668-.435-1.425-.638-2.206a.171.171,0,0,1,.03-.148.192.192,0,0,1,.164-.066,11.142,11.142,0,0,0,2.5-.286,3.563,3.563,0,0,0,1.777-.885.171.171,0,0,1,.294.085,12.1,12.1,0,0,0,.4,1.754,5.109,5.109,0,0,0,1.471,1.414,5.554,5.554,0,0,1,1.525,1.459c.49.991-.113,2.454-.978,3.3a11.421,11.421,0,0,0-1.141,1.415,7.861,7.861,0,0,1-1.357,1.587,2.834,2.834,0,0,0-.31.276c-.231.228-.471.511-.727.811a5.434,5.434,0,0,1-1.658,1.523,9.84,9.84,0,0,1-3.473.205,2.986,2.986,0,0,0-.56.037,6.454,6.454,0,0,1-.726.059m3.15-12.409c.187.7.394,1.376.578,1.98a15.43,15.43,0,0,1,.548,2.063c.074.575-.7,2.106-1.727,4.046-.326.617-.607,1.151-.779,1.522a3.275,3.275,0,0,0-.129.319,2.8,2.8,0,0,1-1.211,1.235c-.182.124-.355.241-.5.357a.815.815,0,0,0-.318.4c-.011.054,0,.069.006.074.117.128.733.056,1.064.017a2.774,2.774,0,0,1,.656-.035,9.492,9.492,0,0,0,3.289-.185,5.283,5.283,0,0,0,1.525-1.427c.26-.305.505-.594.745-.832a3.214,3.214,0,0,1,.347-.307,7.692,7.692,0,0,0,1.285-1.514,11.731,11.731,0,0,1,1.179-1.458,2.848,2.848,0,0,0,.911-2.9,5.569,5.569,0,0,0-1.427-1.339,5.077,5.077,0,0,1-1.58-1.558,10.9,10.9,0,0,1-.362-1.515,4.379,4.379,0,0,1-1.711.765,11.357,11.357,0,0,1-2.393.294m6.681,6.374h0Z" transform="translate(-42.232 -232.116)"/>
    <path id="Path_7889" data-name="Path 7889" d="M67.8,184.189c.1,5.482-3.867,7.765-4.014,8.172a51.116,51.116,0,0,1-3.73,7.6c-1.167,1.687-5.349,6.078-7.3,8.278a6.655,6.655,0,0,0-1.013,1.276,7.321,7.321,0,0,1-.147,1.2,42.162,42.162,0,0,1,2.3,4.107c.342.684.708,1.448,1.085,2.283,1.831,4.052,1.56,8.011,1.79,10.02.164,1.441.688,4.979,1.1,7.193v0a3.784,3.784,0,0,1-1.862.934,11.431,11.431,0,0,1-2.573.291c-.072-.264-.137-.534-.2-.8a80.251,80.251,0,0,0-3.627-8.162v0c-2.06-4.284-4.233-8.651-4.284-8.911-.1-.483-2.214-3.473-2.83-4.986s.151-4.63.842-7.926c.007-.031.014-.058.021-.089a57.012,57.012,0,0,1,4.8-13.066c1.831-3.128,4.551-7.761,4.8-9.948a41.271,41.271,0,0,1,1.177-5.38l1.478-1.516c.356-.13.968-.284,1.464-.482,0,.236.3.458.665.147.394-.335,3.076-2.04,3.076-2.04s.086.027.236.065a5.437,5.437,0,0,0,.9.144c1.656,1.448,5.746,6.6,5.838,11.6" transform="translate(-27.809 -113.392)"/>
    <path id="Path_7890" data-name="Path 7890" d="M53.142,235.387a.193.193,0,0,1-.2-.126c-.072-.266-.138-.538-.2-.807a74.758,74.758,0,0,0-3.615-8.126.213.213,0,0,1-.008-.021c-.772-1.6-1.558-3.219-2.244-4.626-1.459-2.994-2.013-4.141-2.046-4.309a13.64,13.64,0,0,0-.981-1.7,27.189,27.189,0,0,1-1.84-3.256c-.573-1.41-.01-4.057.642-7.122l.212-.994a57.255,57.255,0,0,1,4.824-13.115l.044-.077c1.788-3.055,4.49-7.671,4.734-9.8a41.661,41.661,0,0,1,1.183-5.408.172.172,0,0,1,.042-.072l1.478-1.516a.17.17,0,0,1,.064-.041c.355-.129.964-.282,1.459-.48a.17.17,0,0,1,.158.016.172.172,0,0,1,.076.14c0,.021.06-.158.143-.121.051.023.239.141.239.141.4-.34,2.986-1.984,3.1-2.054a.169.169,0,0,1,.143-.018s.085.026.226.062a5.2,5.2,0,0,0,.869.139.17.17,0,0,1,.1.042c1.808,1.58,5.8,6.727,5.9,11.723a9.839,9.839,0,0,1-3.659,7.886,3.12,3.12,0,0,0-.369.353,51.008,51.008,0,0,1-3.748,7.634c-.826,1.194-3.1,3.683-5.115,5.877-.83.906-1.615,1.763-2.194,2.417a8.783,8.783,0,0,0-.969,1.183,7.046,7.046,0,0,1-.138,1.142,44.412,44.412,0,0,1,2.275,4.065c.38.758.745,1.528,1.088,2.289a22.3,22.3,0,0,1,1.7,8.484c.03.616.056,1.148.106,1.586.17,1.491.7,5.027,1.1,7.182a.235.235,0,0,1,0,.035.173.173,0,0,1-.046.116,3.886,3.886,0,0,1-1.946.984,11.5,11.5,0,0,1-2.578.3m-3.7-9.19a72.57,72.57,0,0,1,3.632,8.181c.051.222.1.447.163.667a11.054,11.054,0,0,0,2.4-.285,3.7,3.7,0,0,0,1.721-.826c-.4-2.139-.917-5.637-1.087-7.119-.051-.449-.078-.986-.108-1.608a21.994,21.994,0,0,0-1.668-8.361c-.341-.756-.7-1.522-1.082-2.276a42.516,42.516,0,0,0-2.292-4.088.171.171,0,0,1-.026-.129,7.175,7.175,0,0,0,.144-1.158c0-.1,0-.206,1.056-1.4.581-.656,1.366-1.514,2.2-2.421,2-2.187,4.273-4.666,5.086-5.841a51.749,51.749,0,0,0,3.71-7.561c.04-.111.163-.223.461-.487a9.52,9.52,0,0,0,3.544-7.623c-.091-4.935-4.193-10.058-5.738-11.435a5.436,5.436,0,0,1-.868-.144c-.07-.017-.126-.033-.167-.044-.413.263-2.646,1.688-2.992,1.984-.27.232-.426.235-.627.144a.585.585,0,0,1-.246-.2c-.419.166-.959.292-1.271.407l-1.421,1.457a40.8,40.8,0,0,0-1.16,5.31c-.252,2.2-2.976,6.859-4.779,9.938l-.044.077A56.831,56.831,0,0,0,43.2,204.373l-.212.993c-.614,2.885-1.193,5.609-.659,6.922a26.99,26.99,0,0,0,1.814,3.2,10.551,10.551,0,0,1,1.026,1.812c.048.183.961,2.057,2.018,4.227.688,1.411,1.478,3.034,2.253,4.644a.22.22,0,0,1,.008.021m8.1,7.794h0Z" transform="translate(-27.476 -113.063)"/>
  </g>
</svg>
