<svg id="Group_2654" data-name="Group 2654" xmlns="http://www.w3.org/2000/svg" xmlns:xlink="http://www.w3.org/1999/xlink" width="136.141" height="150.196" viewBox="0 0 136.141 150.196">
  <defs>
    <clipPath id="clip-path">
      <rect id="Rectangle_144" data-name="Rectangle 144" width="136.141" height="150.196" fill="none"/>
    </clipPath>
  </defs>
  <g id="Group_214" data-name="Group 214" clip-path="url(#clip-path)">
    <path id="Path_5854" data-name="Path 5854" d="M79.448,143.205l-1.274,3.243s-17.259,6.834-24.788,11.468-8.224,8.8-6.719,12.278,15.754,31.97,15.754,31.97l.463,1.39-1.042,2.78s-6.719,3.359-8.572,4.17-3.359,1.39-2.2,2.9,6.6,1.39,8.34,1.043a35.688,35.688,0,0,1,7.066-.811c1.853.116,5.444.695,4.981-2.085s-1.274-5.792-1.506-7.066S65.9,190.35,65.316,185.832s-.988-10.79-2.61-13.222-2.718-3.921-2.718-3.921,6.439-.943,12.047-1.853a105.274,105.274,0,0,0,16.912-4.055s9.151-3.128,14.363-3.475,9.614-2.2,11.12-5.56.695-9.846-2.78-13.321-3.938-3.475-3.938-3.475a32.717,32.717,0,0,1-13.668,4.17,39.464,39.464,0,0,1-12.626-1.043Z" transform="translate(-22.347 -66.502)" fill="#ffe551"/>
    <path id="Path_5855" data-name="Path 5855" d="M79.448,143.205l-1.274,3.243s-17.259,6.834-24.788,11.468-8.224,8.8-6.719,12.278,15.754,31.97,15.754,31.97l.463,1.39-1.042,2.78s-6.719,3.359-8.572,4.17-3.359,1.39-2.2,2.9,6.6,1.39,8.34,1.043a35.688,35.688,0,0,1,7.066-.811c1.853.116,5.444.695,4.981-2.085s-1.274-5.792-1.506-7.066S65.9,190.35,65.316,185.832s-.988-10.79-2.61-13.222-2.718-3.921-2.718-3.921,6.439-.943,12.047-1.853a105.274,105.274,0,0,0,16.912-4.055s9.151-3.128,14.363-3.475,9.614-2.2,11.12-5.56.695-9.846-2.78-13.321-3.938-3.475-3.938-3.475a32.717,32.717,0,0,1-13.668,4.17,39.464,39.464,0,0,1-12.626-1.043Z" transform="translate(-22.347 -66.502)" fill="none" stroke="#000" stroke-width="1"/>
    <path id="Path_5856" data-name="Path 5856" d="M70.858,273.435c1.853.116,5.444.695,4.98-2.085s-1.274-5.792-1.506-7.066c-.075-.411-.523-2.029-1.116-4.18a19.286,19.286,0,0,1-7.02.65l.606,1.214.463,1.39-1.042,2.78s-6.719,3.359-8.572,4.17-3.359,1.39-2.2,2.9,6.6,1.39,8.341,1.042a35.714,35.714,0,0,1,7.066-.811" transform="translate(-26.73 -126.305)" fill="#fff"/>
    <path id="Path_5857" data-name="Path 5857" d="M70.858,273.435c1.853.116,5.444.695,4.98-2.085s-1.274-5.792-1.506-7.066c-.075-.411-.523-2.029-1.116-4.18a19.286,19.286,0,0,1-7.02.65l.606,1.214.463,1.39-1.042,2.78s-6.719,3.359-8.572,4.17-3.359,1.39-2.2,2.9,6.6,1.39,8.341,1.042A35.714,35.714,0,0,1,70.858,273.435Z" transform="translate(-26.73 -126.305)" fill="none" stroke="#000" stroke-width="1"/>
    <path id="Path_5858" data-name="Path 5858" d="M74.44,267.316l-3.466.165-1.39-1.738c-.927-1.158-2.317.116-2.317.116l-1.042,2.78s-6.719,3.359-8.572,4.17-3.359,1.39-2.2,2.9,6.6,1.39,8.34,1.042a35.721,35.721,0,0,1,7.066-.811c1.853.116,5.444.695,4.981-2.085-.408-2.448-1.085-5.073-1.4-6.536" transform="translate(-26.73 -128.807)" fill="#fff"/>
    <path id="Path_5859" data-name="Path 5859" d="M74.44,267.316l-3.466.165-1.39-1.738c-.927-1.158-2.317.116-2.317.116l-1.042,2.78s-6.719,3.359-8.572,4.17-3.359,1.39-2.2,2.9,6.6,1.39,8.34,1.042a35.721,35.721,0,0,1,7.066-.811c1.853.116,5.444.695,4.981-2.085C75.431,271.4,74.754,268.779,74.44,267.316Z" transform="translate(-26.73 -128.807)" fill="none" stroke="#000" stroke-width="1"/>
    <line id="Line_135" data-name="Line 135" x2="6.418" y2="4.883" transform="translate(62.845 82.828)" fill="#fff"/>
    <line id="Line_136" data-name="Line 136" x2="6.418" y2="4.883" transform="translate(62.845 82.828)" fill="none" stroke="#000" stroke-width="1"/>
    <path id="Path_5860" data-name="Path 5860" d="M73.01,80.031S67.3,75.85,64.1,73.479A39.393,39.393,0,0,1,58.655,68.6l2.511-7.115-7.813.419s-2.233,5.441-.977,6.7l3.488,3.488S65.491,82.966,68,85.2s7.534,2.372,7.534,2.372l-1.953-7.395Z" transform="translate(-25.248 -29.854)" fill="#fff"/>
    <path id="Path_5861" data-name="Path 5861" d="M73.01,80.031S67.3,75.85,64.1,73.479A39.393,39.393,0,0,1,58.655,68.6l2.511-7.115-7.813.419s-2.233,5.441-.977,6.7l3.488,3.488S65.491,82.966,68,85.2s7.534,2.372,7.534,2.372l-1.953-7.395Z" transform="translate(-25.248 -29.854)" fill="none" stroke="#000" stroke-width="1"/>
    <path id="Path_5862" data-name="Path 5862" d="M89.977,49.784S85.691,50.71,85,53.027,86.85,63.568,87.892,66a20.986,20.986,0,0,1,1.274,3.591s-.348,5.444,1.158,8.456,7.3,3.938,7.3,3.938l2.2,3.823-1.506,9.614s9.035,3.128,17.027,1.39a19.322,19.322,0,0,0,11.7-7.645l-6.37-5.56s-.232-12.973-.579-19.112-.695-11.815-3.243-14.248-10.193-1.506-10.888-1.622-2.433-1.969-3.243-3.823-2.433-6.255-2.433-6.255-2.548.695-3.012,2.432a13.726,13.726,0,0,1-3.823,5.56c-1.506,1.274-3.475,3.243-3.475,3.243" transform="translate(-41.216 -18.719)" fill="#fff"/>
    <path id="Path_5863" data-name="Path 5863" d="M89.977,49.784S85.691,50.71,85,53.027,86.85,63.568,87.892,66a20.986,20.986,0,0,1,1.274,3.591s-.348,5.444,1.158,8.456,7.3,3.938,7.3,3.938l2.2,3.823-1.506,9.614s9.035,3.128,17.027,1.39a19.322,19.322,0,0,0,11.7-7.645l-6.37-5.56s-.232-12.973-.579-19.112-.695-11.815-3.243-14.248-10.193-1.506-10.888-1.622-2.433-1.969-3.243-3.823-2.433-6.255-2.433-6.255-2.548.695-3.012,2.432a13.726,13.726,0,0,1-3.823,5.56C91.946,47.815,89.977,49.784,89.977,49.784Z" transform="translate(-41.216 -18.719)" fill="none" stroke="#000" stroke-width="1"/>
    <path id="Path_5864" data-name="Path 5864" d="M106.865,46.647s.417,1.669-1.253,4.729a26.831,26.831,0,0,1-2.5,4.034l-2.365-3.617s5.425-4.452,6.121-5.147" transform="translate(-48.921 -22.651)"/>
    <path id="Path_5865" data-name="Path 5865" d="M106.865,46.647s.417,1.669-1.253,4.729a26.831,26.831,0,0,1-2.5,4.034l-2.365-3.617S106.169,47.342,106.865,46.647Z" transform="translate(-48.921 -22.651)" fill="none" stroke="#000" stroke-linecap="round" stroke-width="1"/>
    <path id="Path_5866" data-name="Path 5866" d="M124.135,77.517a7.067,7.067,0,0,1-7.815-1.065c-3.707-3.475-4.17-13.089-4.17-15.29,0-1.619.063-2.8.1-3.308-.587.015-1.1.038-1.509.055-.123,2.415-.721,13.932-1.135,17.038-.463,3.475-4.75,5.212-8.109,4.286a6.726,6.726,0,0,1-5.328-7.066c0-3.823,1.39-14.479,1.39-14.479l-1.274.231S94.427,71.124,93.617,73.9a25.286,25.286,0,0,0-.767,4.285c.142.467.188.7.188.7S92.69,84.329,94.2,87.34s7.3,3.938,7.3,3.938l.435.756c.539.565,2.437,1.692,8.831.982,7.026-.781,11.9-3.447,13.683-4.962-.071-3.085-.177-7.122-.308-10.537" transform="translate(-45.087 -28.012)"/>
    <path id="Path_5867" data-name="Path 5867" d="M124.135,77.517a7.067,7.067,0,0,1-7.815-1.065c-3.707-3.475-4.17-13.089-4.17-15.29,0-1.619.063-2.8.1-3.308-.587.015-1.1.038-1.509.055-.123,2.415-.721,13.932-1.135,17.038-.463,3.475-4.75,5.212-8.109,4.286a6.726,6.726,0,0,1-5.328-7.066c0-3.823,1.39-14.479,1.39-14.479l-1.274.231S94.427,71.124,93.617,73.9a25.286,25.286,0,0,0-.767,4.285c.142.467.188.7.188.7S92.69,84.329,94.2,87.34s7.3,3.938,7.3,3.938l.435.756c.539.565,2.437,1.692,8.831.982,7.026-.781,11.9-3.447,13.683-4.962C124.372,84.97,124.266,80.932,124.135,77.517Z" transform="translate(-45.087 -28.012)" fill="none" stroke="#000" stroke-width="1"/>
    <path id="Path_5868" data-name="Path 5868" d="M125.017,125.885s1.349.9,5.844,1.574" transform="translate(-60.707 -61.129)" fill="#fff"/>
    <path id="Path_5869" data-name="Path 5869" d="M125.017,125.885s1.349.9,5.844,1.574" transform="translate(-60.707 -61.129)" fill="none" stroke="#000" stroke-width="1"/>
    <path id="Path_5870" data-name="Path 5870" d="M122.395,118.932a11.056,11.056,0,0,0,9.889-1.349" transform="translate(-59.434 -57.098)" fill="none" stroke="#fff" stroke-width="1"/>
    <path id="Path_5871" data-name="Path 5871" d="M111.454,6.567S114,2.977,117.825,4.6s8.572,12.858,7.992,17.723-6.255,5.675-9.846,4.4-2.78-6.95-3.359-10.425-1.158-9.73-1.158-9.73" transform="translate(-54.121 -2.029)"/>
    <path id="Path_5872" data-name="Path 5872" d="M111.454,6.567S114,2.977,117.825,4.6s8.572,12.858,7.992,17.723-6.255,5.675-9.846,4.4-2.78-6.95-3.359-10.425S111.454,6.567,111.454,6.567Z" transform="translate(-54.121 -2.029)" fill="none" stroke="#000" stroke-width="1"/>
    <path id="Path_5873" data-name="Path 5873" d="M135.5,59.126s5.12-2.288,8.711,1.3a24.716,24.716,0,0,1,5.1,7.3l9.382,12.149s1.969-8.026,1.506-10.574-3.011-4.981-3.475-6.139.811-5.792.811-5.792,7.414.116,7.761.116,1.39,3.011,1.158,5.1a6.078,6.078,0,0,1-2.2,3.591A145.572,145.572,0,0,1,165.3,83.781c-.231,7.066-3.734,7.229-7.166,5.185-6.376-3.8-9.4-8.265-11.947-10.466a28.728,28.728,0,0,1-3.707-3.707" transform="translate(-65.799 -27.859)" fill="#fff"/>
    <path id="Path_5874" data-name="Path 5874" d="M135.5,59.126s5.12-2.288,8.711,1.3a24.716,24.716,0,0,1,5.1,7.3l9.382,12.149s1.969-8.026,1.506-10.574-3.011-4.981-3.475-6.139.811-5.792.811-5.792,7.414.116,7.761.116,1.39,3.011,1.158,5.1a6.078,6.078,0,0,1-2.2,3.591A145.572,145.572,0,0,1,165.3,83.781c-.231,7.066-3.734,7.229-7.166,5.185-6.376-3.8-9.4-8.265-11.947-10.466a28.728,28.728,0,0,1-3.707-3.707" transform="translate(-65.799 -27.859)" fill="none" stroke="#000" stroke-width="1"/>
    <line id="Line_137" data-name="Line 137" x1="2.201" y2="2.201" transform="translate(75.519 46.239)" fill="none" stroke="#000" stroke-width="1"/>
    <line id="Line_138" data-name="Line 138" y1="3.012" x2="5.444" transform="translate(59.649 33.265)" fill="none" stroke="#000" stroke-width="1"/>
    <path id="Path_5875" data-name="Path 5875" d="M101.546,58.588a8.042,8.042,0,0,1,2.085,5.907" transform="translate(-49.31 -28.45)" fill="none" stroke="#000" stroke-width="1"/>
    <path id="Path_5876" data-name="Path 5876" d="M148.648,152.356a12.083,12.083,0,0,0-7.445.613c-4.518,2.2-11.583,11-12.858,13.784s.347,7.066,1.042,8.456,11.236,23.167,13.437,26.989a32.767,32.767,0,0,1,2.979,8.352,2.273,2.273,0,0,0-.663.567l-.232,4.749a9.851,9.851,0,0,1-3.475,3.475c-2.085,1.042-3.359,3.243-1.39,3.938s8.687.579,10.309.116,3.591-.463,3.591-1.853,0-6.371-.463-8.108-1.043-1.738-1.043-1.738h-.511c-.212-2.047-1.083-10.454-1.689-16.217a47.492,47.492,0,0,0-5.329-17.144,45.913,45.913,0,0,0-4.633-6.6s-1.042-.811,1.158-1.621,11-3.823,12.742-8.224c1.52-3.851.557-6.284.293-6.832" transform="translate(-62.094 -73.833)" fill="#ffe551"/>
    <path id="Path_5877" data-name="Path 5877" d="M148.648,152.356a12.083,12.083,0,0,0-7.445.613c-4.518,2.2-11.583,11-12.858,13.784s.347,7.066,1.042,8.456,11.236,23.167,13.437,26.989a32.767,32.767,0,0,1,2.979,8.352,2.273,2.273,0,0,0-.663.567l-.232,4.749a9.851,9.851,0,0,1-3.475,3.475c-2.085,1.042-3.359,3.243-1.39,3.938s8.687.579,10.309.116,3.591-.463,3.591-1.853,0-6.371-.463-8.108-1.043-1.738-1.043-1.738h-.511c-.212-2.047-1.083-10.454-1.689-16.217a47.492,47.492,0,0,0-5.329-17.144,45.913,45.913,0,0,0-4.633-6.6s-1.042-.811,1.158-1.621,11-3.823,12.742-8.224c1.52-3.851.557-6.284.293-6.832" transform="translate(-62.094 -73.833)" fill="none" stroke="#000" stroke-width="1"/>
    <path id="Path_5878" data-name="Path 5878" d="M160.92,276.239c1.622-.463,3.591-.463,3.591-1.853s0-6.371-.463-8.108-1.043-1.738-1.043-1.738h-.511l-.38-3.671a19.482,19.482,0,0,1-6.351.147c.262.92.466,1.747.609,2.378a2.268,2.268,0,0,0-.663.567l-.231,4.749A9.855,9.855,0,0,1,152,272.185c-2.085,1.042-3.359,3.243-1.39,3.938s8.688.579,10.309.116" transform="translate(-72.66 -126.676)" fill="#fff"/>
    <path id="Path_5879" data-name="Path 5879" d="M160.92,276.239c1.622-.463,3.591-.463,3.591-1.853s0-6.371-.463-8.108-1.043-1.738-1.043-1.738h-.511l-.38-3.671a19.482,19.482,0,0,1-6.351.147c.262.92.466,1.747.609,2.378a2.268,2.268,0,0,0-.663.567l-.231,4.749A9.855,9.855,0,0,1,152,272.185c-2.085,1.042-3.359,3.243-1.39,3.938S159.3,276.7,160.92,276.239Z" transform="translate(-72.66 -126.676)" fill="none" stroke="#000" stroke-width="1"/>
    <path id="Path_5880" data-name="Path 5880" d="M160.92,277.955c1.622-.464,3.591-.464,3.591-1.853s0-6.371-.463-8.108-1.043-1.738-1.043-1.738H161.5s-1.738-1.853-2.433-1.853a14.247,14.247,0,0,0-2.7.707,2.268,2.268,0,0,0-.663.567l-.231,4.749A9.855,9.855,0,0,1,152,273.9c-2.085,1.042-3.359,3.243-1.39,3.938s8.688.579,10.309.116" transform="translate(-72.66 -128.392)" fill="#fff"/>
    <path id="Path_5881" data-name="Path 5881" d="M160.92,277.955c1.622-.464,3.591-.464,3.591-1.853s0-6.371-.463-8.108-1.043-1.738-1.043-1.738H161.5s-1.738-1.853-2.433-1.853a14.247,14.247,0,0,0-2.7.707,2.268,2.268,0,0,0-.663.567l-.231,4.749A9.855,9.855,0,0,1,152,273.9c-2.085,1.042-3.359,3.243-1.39,3.938S159.3,278.418,160.92,277.955Z" transform="translate(-72.66 -128.392)" fill="none" stroke="#000" stroke-width="1"/>
    <path id="Path_5882" data-name="Path 5882" d="M13.139,54.238c0,4.972-2.829,9-6.319,9S.5,59.21.5,54.238s2.83-9,6.319-9,6.319,4.03,6.319,9" transform="translate(-0.243 -21.966)"/>
    <ellipse id="Ellipse_23" data-name="Ellipse 23" cx="6.319" cy="9.002" rx="6.319" ry="9.002" transform="translate(0.257 23.27)" fill="none" stroke="#000" stroke-linecap="round" stroke-width="1"/>
    <path id="Path_5883" data-name="Path 5883" d="M15.225,54.238c0,4.972-2.829,9-6.319,9s-6.319-4.03-6.319-9,2.829-9,6.319-9,6.319,4.03,6.319,9" transform="translate(-1.256 -21.966)" fill="#fff"/>
    <ellipse id="Ellipse_24" data-name="Ellipse 24" cx="6.319" cy="9.002" rx="6.319" ry="9.002" transform="translate(1.33 23.27)" fill="none" stroke="#000" stroke-width="1"/>
    <path id="Path_5884" data-name="Path 5884" d="M14.942,61.036c0,.994-.566,1.8-1.264,1.8s-1.264-.806-1.264-1.8.566-1.8,1.264-1.8,1.264.806,1.264,1.8" transform="translate(-6.028 -28.765)" fill="#fff"/>
    <ellipse id="Ellipse_25" data-name="Ellipse 25" cx="1.264" cy="1.8" rx="1.264" ry="1.8" transform="translate(6.386 30.472)" fill="none" stroke="#000" stroke-width="1"/>
    <path id="Path_5885" data-name="Path 5885" d="M22.5,50.515c0,7.15-4.069,12.946-9.088,12.946s-9.088-5.8-9.088-12.946S8.4,37.569,13.416,37.569s9.088,5.8,9.088,12.946" transform="translate(-2.102 -18.243)"/>
    <path id="Path_5886" data-name="Path 5886" d="M22.5,50.515c0,7.15-4.069,12.946-9.088,12.946s-9.088-5.8-9.088-12.946S8.4,37.569,13.416,37.569,22.5,43.365,22.5,50.515Z" transform="translate(-2.102 -18.243)" fill="none" stroke="#000" stroke-linecap="round" stroke-width="1"/>
    <path id="Path_5887" data-name="Path 5887" d="M25.5,50.515c0,7.15-4.069,12.946-9.088,12.946s-9.088-5.8-9.088-12.946S11.4,37.569,16.416,37.569s9.088,5.8,9.088,12.946" transform="translate(-3.558 -18.243)" fill="#fff"/>
    <path id="Path_5888" data-name="Path 5888" d="M25.5,50.515c0,7.15-4.069,12.946-9.088,12.946s-9.088-5.8-9.088-12.946S11.4,37.569,16.416,37.569,25.5,43.365,25.5,50.515Z" transform="translate(-3.558 -18.243)" fill="none" stroke="#000" stroke-width="1"/>
    <path id="Path_5889" data-name="Path 5889" d="M192.752,62.461H151.013c-1.156-1.55-3.125-2.058-2.557-2.058h44.3a1.029,1.029,0,1,1,0,2.058" transform="translate(-72.041 -29.331)"/>
    <path id="Path_5890" data-name="Path 5890" d="M58.407,60.526a3.99,3.99,0,0,1,1.021-.028A1.019,1.019,0,0,0,59,60.4H22.69a1.029,1.029,0,1,0,0,2.058H55a6,6,0,0,1,3.408-1.935" transform="translate(-10.518 -29.332)"/>
    <path id="Path_5891" data-name="Path 5891" d="M242.5,50.515c0,7.15-4.069,12.946-9.088,12.946s-9.088-5.8-9.088-12.946,4.068-12.946,9.088-12.946,9.088,5.8,9.088,12.946" transform="translate(-108.932 -18.243)"/>
    <path id="Path_5892" data-name="Path 5892" d="M242.5,50.515c0,7.15-4.069,12.946-9.088,12.946s-9.088-5.8-9.088-12.946,4.068-12.946,9.088-12.946S242.5,43.365,242.5,50.515Z" transform="translate(-108.932 -18.243)" fill="none" stroke="#000" stroke-width="1"/>
    <path id="Path_5893" data-name="Path 5893" d="M245.5,50.515c0,7.15-4.069,12.946-9.088,12.946s-9.088-5.8-9.088-12.946,4.068-12.946,9.088-12.946,9.088,5.8,9.088,12.946" transform="translate(-110.389 -18.243)" fill="#fff"/>
    <path id="Path_5894" data-name="Path 5894" d="M245.5,50.515c0,7.15-4.069,12.946-9.088,12.946s-9.088-5.8-9.088-12.946,4.068-12.946,9.088-12.946S245.5,43.365,245.5,50.515Z" transform="translate(-110.389 -18.243)" fill="none" stroke="#000" stroke-width="1"/>
    <path id="Path_5895" data-name="Path 5895" d="M250.139,54.238c0,4.972-2.829,9-6.319,9s-6.319-4.03-6.319-9,2.83-9,6.319-9,6.319,4.03,6.319,9" transform="translate(-115.328 -21.966)"/>
    <ellipse id="Ellipse_26" data-name="Ellipse 26" cx="6.319" cy="9.002" rx="6.319" ry="9.002" transform="translate(122.171 23.27)" fill="none" stroke="#000" stroke-width="1"/>
    <path id="Path_5896" data-name="Path 5896" d="M252.225,54.238c0,4.972-2.829,9-6.319,9s-6.32-4.03-6.32-9,2.829-9,6.32-9,6.319,4.03,6.319,9" transform="translate(-116.341 -21.966)" fill="#fff"/>
    <ellipse id="Ellipse_27" data-name="Ellipse 27" cx="6.319" cy="9.002" rx="6.319" ry="9.002" transform="translate(123.244 23.27)" fill="none" stroke="#000" stroke-width="1"/>
    <path id="Path_5897" data-name="Path 5897" d="M251.942,61.036c0,.994-.566,1.8-1.264,1.8s-1.264-.806-1.264-1.8.566-1.8,1.264-1.8,1.264.806,1.264,1.8" transform="translate(-121.114 -28.765)"/>
    <ellipse id="Ellipse_28" data-name="Ellipse 28" cx="1.264" cy="1.8" rx="1.264" ry="1.8" transform="translate(128.3 30.472)" fill="none" stroke="#000" stroke-linecap="round" stroke-width="1"/>
    <path id="Path_5898" data-name="Path 5898" d="M57.714,56.131s-5.133,1.141-5.26,1.521a2.416,2.416,0,0,0,.57,2.028c.57.507,6.4-.19,6.908-.38s.254-1.648.19-2.472-2.408-.7-2.408-.7" transform="translate(-25.45 -27.254)" fill="#fff"/>
    <path id="Path_5899" data-name="Path 5899" d="M57.714,56.131s-5.133,1.141-5.26,1.521a2.416,2.416,0,0,0,.57,2.028c.57.507,6.4-.19,6.908-.38s.254-1.648.19-2.472S57.714,56.131,57.714,56.131Z" transform="translate(-25.45 -27.254)" fill="none" stroke="#000" stroke-width="1"/>
    <path id="Path_5900" data-name="Path 5900" d="M60.967,65.5s3.357-6.061,3.357-6.758-3.612-2.662-3.866-3.359-1.2,0-.824,1.267a6.1,6.1,0,0,0,.951,1.965l.57.634s-3.359,2.281-4.246,3.866,2.345,2.408,2.345,2.408" transform="translate(-27.56 -26.76)" fill="#fff"/>
    <path id="Path_5901" data-name="Path 5901" d="M60.967,65.5s3.357-6.061,3.357-6.758-3.612-2.662-3.866-3.359-1.2,0-.824,1.267a6.1,6.1,0,0,0,.951,1.965l.57.634s-3.359,2.281-4.246,3.866,2.345,2.408,2.345,2.408" transform="translate(-27.56 -26.76)" fill="none" stroke="#000" stroke-width="1"/>
    <path id="Path_5902" data-name="Path 5902" d="M180.563,54.751s6.006,0,6.42.695l.415.695s0,2.085-.518,2.2a38.934,38.934,0,0,1-6.524.116c-1.346-.232-.517-2.78-.517-3.475s.725-.231.725-.231" transform="translate(-87.206 -26.513)" fill="#fff"/>
    <path id="Path_5903" data-name="Path 5903" d="M180.563,54.751s6.006,0,6.42.695l.415.695s0,2.085-.518,2.2a38.934,38.934,0,0,1-6.524.116c-1.346-.232-.517-2.78-.517-3.475S180.563,54.751,180.563,54.751Z" transform="translate(-87.206 -26.513)" fill="none" stroke="#000" stroke-width="1"/>
    <path id="Path_5904" data-name="Path 5904" d="M179.42,61.4a26.789,26.789,0,0,0-1.8-2.708c-.463-.463-1.853-1.506-1.853-1.506s2.78-.695,2.78-1.506-1.39-.695-1.969-.231-2.665.347-2.665,1.274-.462,3.243.233,4.17a35.807,35.807,0,0,0,3.474,3.243" transform="translate(-84.377 -26.751)" fill="#fff"/>
    <path id="Path_5905" data-name="Path 5905" d="M179.42,61.4a26.789,26.789,0,0,0-1.8-2.708c-.463-.463-1.853-1.506-1.853-1.506s2.78-.695,2.78-1.506-1.39-.695-1.969-.231-2.665.347-2.665,1.274-.462,3.243.233,4.17a35.807,35.807,0,0,0,3.474,3.243" transform="translate(-84.377 -26.751)" fill="none" stroke="#000" stroke-width="1"/>
    <path id="Path_5906" data-name="Path 5906" d="M79.789,6.827a10.871,10.871,0,0,0-1.3,6.6c.7,4.518,1.158,8.224,1.158,8.224a10.514,10.514,0,0,0,.811,4.749c1.042,2.317,4.518,6.139,5.907,6.139s3.591-.927,5.792-2.2,4.17-4.749,4.17-5.56v-2.2s2.085-1.506,2.317-3.011a21.229,21.229,0,0,0,.116-3.591A15.976,15.976,0,0,0,96.675,6.71C94.011,2.424,88.129,2.3,83.933,3.351a6.793,6.793,0,0,0-4.144,3.475" transform="translate(-38.068 -1.361)" fill="#fff"/>
    <path id="Path_5907" data-name="Path 5907" d="M79.789,6.827a10.871,10.871,0,0,0-1.3,6.6c.7,4.518,1.158,8.224,1.158,8.224a10.514,10.514,0,0,0,.811,4.749c1.042,2.317,4.518,6.139,5.907,6.139s3.591-.927,5.792-2.2,4.17-4.749,4.17-5.56v-2.2s2.085-1.506,2.317-3.011a21.229,21.229,0,0,0,.116-3.591A15.976,15.976,0,0,0,96.675,6.71C94.011,2.424,88.129,2.3,83.933,3.351A6.793,6.793,0,0,0,79.789,6.827Z" transform="translate(-38.068 -1.361)" fill="none" stroke="#000" stroke-linecap="round" stroke-width="1"/>
    <path id="Path_5908" data-name="Path 5908" d="M84.505,1.167a5.542,5.542,0,0,0-4.158,4.542,17.008,17.008,0,0,1-.8,1.84l.081.013s.116-.579,1.043-.232,1.274,1.274,4.286.811,5.908-2.432,6.95-1.621.695,3.938.579,5.907,2.664,1.621,2.664,1.621.463,2.665,1.39,2.085,1.158-3.012,2.78-1.274c0,0,1.337-6.484-1.327-10.77S88.7.118,84.505,1.167" transform="translate(-38.627 -0.243)"/>
    <path id="Path_5909" data-name="Path 5909" d="M84.505,1.167a5.542,5.542,0,0,0-4.158,4.542,17.008,17.008,0,0,1-.8,1.84l.081.013s.116-.579,1.043-.232,1.274,1.274,4.286.811,5.908-2.432,6.95-1.621.695,3.938.579,5.907,2.664,1.621,2.664,1.621.463,2.665,1.39,2.085,1.158-3.012,2.78-1.274c0,0,1.337-6.484-1.327-10.77S88.7.118,84.505,1.167Z" transform="translate(-38.627 -0.243)" fill="none" stroke="#000" stroke-linecap="round" stroke-width="1"/>
    <path id="Path_5913" data-name="Path 5913" d="M92.673,49.985a.892.892,0,0,1-.564,1.1c-.409.075-.819-.3-.918-.833a.893.893,0,0,1,.564-1.1c.409-.075.82.3.918.833" transform="translate(-44.272 -23.863)"/>
    <path id="Path_5916" data-name="Path 5916" d="M69.976,14.322c2.922-2.023,4.7-.586,4.7-.586s-5.154,1.71-5.154,5.081" transform="translate(-33.761 -6.43)" fill="none" stroke="#000" stroke-width="1"/>
    <path id="Path_5917" data-name="Path 5917" d="M73.3,30.517s-2.925-2.239-3.05-.74c-.093,1.11,3.05.74,3.05.74" transform="translate(-34.11 -14.208)" fill="#fff"/>
    <path id="Path_5918" data-name="Path 5918" d="M73.3,30.517s-2.925-2.239-3.05-.74C70.154,30.887,73.3,30.517,73.3,30.517Z" transform="translate(-34.11 -14.208)" fill="none" stroke="#000" stroke-linecap="round" stroke-width="1"/>
    <path id="Path_5919" data-name="Path 5919" d="M73.185,35.117s-2.773.093-3.143,1.479,3.143-1.479,3.143-1.479" transform="translate(-33.999 -17.053)" fill="#fff"/>
    <path id="Path_5920" data-name="Path 5920" d="M73.185,35.117s-2.773.093-3.143,1.479S73.185,35.117,73.185,35.117Z" transform="translate(-33.999 -17.053)" fill="none" stroke="#000" stroke-linecap="round" stroke-width="1"/>
  </g>
</svg>
