<svg id="Group_2625" data-name="Group 2625" xmlns="http://www.w3.org/2000/svg" xmlns:xlink="http://www.w3.org/1999/xlink" width="74.68" height="141.596" viewBox="0 0 74.68 141.596">
  <defs>
    <clipPath id="clip-path">
      <rect id="Rectangle_802" data-name="Rectangle 802" width="74.679" height="141.596" fill="none"/>
    </clipPath>
  </defs>
  <g id="Group_1163" data-name="Group 1163" clip-path="url(#clip-path)">
    <path id="Path_7556" data-name="Path 7556" d="M113.5,225.675c1.62,6.34-.234,12.1-2.92,17.738a136.393,136.393,0,0,0-5.523,12.969,8.357,8.357,0,0,0-.3,4.326c1.277,7.522,1.434,15.125,1.685,22.721-.4.648-1.044.578-1.677.6a31.91,31.91,0,0,0-5.75.572c-.989-5.747-2.008-11.489-2.957-17.243-.574-3.482-1.233-6.967-1.5-10.478-.236-3.132.594-6.229,1.137-9.316.467-2.654,1.141-5.273,1.371-7.968a7.814,7.814,0,0,0,.047-1.176c-.031-.463.126-1.1-.5-1.239-.492-.114-.762.394-.987.755-1.091,1.746-2.148,3.513-3.227,5.267q-4.045,6.577-8.1,13.146a2.128,2.128,0,0,0-.435,1.494c1.129,8.3.87,16.647.884,24.987,0,1.219.136,2.439.223,3.657.043.606-.123,1.046-.788,1.159l-6.015.213c-.78-.1-.845-.68-.893-1.293-.8-10.218-2.562-20.326-3.463-30.532a4.249,4.249,0,0,1,.33-2.142c.412-.941.756-1.912,1.129-2.87.793-.182.993.354,1.126.947.089.4-.082,1,.6.95.509-.034.712-.493.807-.937.154-.719.286-1.445.389-2.173.347-2.466,1.652-4.516,2.692-6.781a2.631,2.631,0,0,1,.493,2c-.008.588-.028,1.178-.005,1.765a.87.87,0,0,0,.756.946c.518.041.564-.474.657-.835.489-1.912.979-3.893.277-5.792-1.1-2.963-.488-5.886-.169-8.836l1.825-3.757a25.884,25.884,0,0,1,6.8.527c3.656,1.055,7.361,2.089,11.209,1.6,4.076-.521,7.928-1.7,10.775-4.968" transform="translate(-52.039 -159.146)"/>
    <path id="Path_7557" data-name="Path 7557" d="M101.971,126.615c-2.847,3.269-6.7,4.447-10.775,4.968-3.848.492-7.554-.541-11.209-1.6a25.847,25.847,0,0,0-6.8-.526c-.247-.855.4-1.352.784-1.952.792-1.22,1.8-2.289,2.12-3.808a9.038,9.038,0,0,0-3.285-9.3,3.2,3.2,0,0,0-2.79-1.676c-1.052-.389-2.267-.286-3.222-.907a5.867,5.867,0,0,0-5.018-.826c-.852.094-.9-.647-1.1-1.139-.975-2.393-1.9-4.8-2.85-7.209a12.294,12.294,0,0,1-.387-3.811c.456-1.636.218-3.56,1.934-4.675.482-.084.812.114.768.6a6.854,6.854,0,0,0,.613,2.528c.482,1.705,2.393,3.218,3.709,3.031,1.689-.24,2.635-1.508,2.784-3.733.023-.336-.037-.695.269-.95a25.476,25.476,0,0,1,.358,12.89,2.9,2.9,0,0,0,1.7-1.861,12.318,12.318,0,0,0,.6-4.047c.152-4.4-.519-8.822.29-13.209a2.87,2.87,0,0,0,.889-1.588,1.056,1.056,0,0,0,1.178-.451l-.013.006c1.567-.292,3.13-.605,4.7-.868.934-.156,1.945.052,2.758-.63,2.314.154,4.541-.609,6.839-.656a3.774,3.774,0,0,1,1.577.138c.279,2.385,1.261,4.64,1.3,7.069l-.034.548c-.248.068-.263.273-.282.476-.882.29-1.753.621-2.649.861-1.055.282-1.171.692-.339,1.417a8.283,8.283,0,0,1,3.015,6.692c-.012.629.169,1.26.189,1.892.025.778.4.751.962.531.771-.3,1.1-1.085,1.727-1.544,1.975,2.5,3.163,5.461,4.724,8.2.626,2.1,0,4.293.5,6.4.114.478-.169,1.173.64,1.276.673.085.672-.581.973-.924s.034-1.219.778-1a1.979,1.979,0,0,1,1.442,1.128,3.017,3.017,0,0,1,.213,2.289c-.66,1.186-.046,2.009.4,2.94-.011,1,.9,2,.008,3" transform="translate(-40.509 -60.086)" fill="#ffe551"/>
    <path id="Path_7558" data-name="Path 7558" d="M39.475,25.791c-.813.682-1.824.474-2.758.63-1.572.263-3.135.576-4.7.868.009-.3.522-.812.269-.775-1.659.248-1.31-1.261-1.861-1.959.095-.33.2-.657.282-.99a2.631,2.631,0,1,0-4.905-1.9c-.246.457-.437.943-.654,1.416.753-4.3-1.246-7.72-3.369-11.11a4.7,4.7,0,0,1-.788-2.2c-.057-1.038-.467-1.156-1.4-.9a37.511,37.511,0,0,0-12.976,6.4A5.482,5.482,0,0,0,4.934,17a4.26,4.26,0,0,0,3.2-1.365c.251-.216.452-.853.9-.413.427.424.17.905-.247,1.267a4.456,4.456,0,0,1-3.456,1.353c-1.264-.151-1.587.532-1.577,1.511a62.818,62.818,0,0,0,.087,6.767c-.463-.04-.639.2-.608.632.156.953.3,1.908.473,2.857s.381,1.9.606,3.007a3.985,3.985,0,0,1-2.95-2.4A14.958,14.958,0,0,1,.039,22.631c.263-4.407,1.5-8.68,1.972-13.075C2.209,7.719,3.8,6.2,5.188,4.886,9.9.418,15.531-.815,21.774.5a4.874,4.874,0,0,1,3.5,2.221c.212.376.505.4.855.418,3.381.2,5.289,2.277,6.481,5.189,1.409,3.443,2.7,6.936,4.157,10.358,1,2.339,1.456,4.875,2.711,7.109" transform="translate(0 0)"/>
    <path id="Path_7559" data-name="Path 7559" d="M12.671,47.063a62.971,62.971,0,0,1-.087-6.767c-.01-.979.143-2.851,1.406-2.7,1.339.16-.883.613.109-.25.416-.362,4.191-.757,3.764-1.181-.444-.44,1.941.168,1.689.384-.9.775-4.408,1.491-5.781,1.394A5.485,5.485,0,0,1,15.447,36.2a37.5,37.5,0,0,1,12.976-6.4c.936-.255,1.346-.137,1.4.9a4.692,4.692,0,0,0,.788,2.2c2.124,3.39,4.122,6.812,3.37,11.11.216-.473.407-.959.653-1.416a2.631,2.631,0,1,1,4.905,1.9c-.082.333-.188.66-.282.99a6.149,6.149,0,0,1-2.228,2.378c-1.264.518-3.224-.078-3.476,2.523.686-1.164,1.112-.8,1.48-.123.049.5-.1,1.021.218,1.477l.533,3.849c-.027.031-.081.07-.075.09a1.218,1.218,0,0,0,.1.2l.038.6c-.307.255-.247.613-.269.95-.149,2.225-1.1,3.493-2.784,3.733-1.316.187-3.228-1.326-3.709-3.031a6.85,6.85,0,0,1-.613-2.528c.045-.491-.285-.689-.768-.6-.746-.711-1.493-.178-2.188.059-3.428,1.17-6.645,1.335-9.289-1.713-.08-.092-.272-.087-.411-.127L13.746,50.3c-.045-.229.153-.586-.312-.6l.012.017c.072-.29.174-.6-.307-.6l.008.012a3.472,3.472,0,0,0-.476-2.069m6.389-1.786L20.3,46.736c-.252.347-2.156-1.653-1.256-1.446.266.734-2.341,1.1-1.666.837-.488-.45,2.1-.735,1.679-.849m9.735-3.6c.572.181.142.805.473,1.083.215-.478.044-1.011.279-1.535.124-.276-.312-1.152-.552-1.176-.76-.075-1.458-.546-2.247-.358-1.06-.128,4.206-.637,3.555,0-.845.825.244-.051,1.094,1.029.683.867-4.726,3.691-3.859,3.013,1.1-.457.7-1.33,1.258-2.057m-15.961.044c0-.118.238-2.086.234-2.2-.329-1.086,2.648-.127,1.622.482-1.384-.236-1.5.565-1.3,1.606.1.525.205,1.048.309,1.572.558.486.766,2.192,1.935.556.534.387,1.083.512,1.532-.083s-2.032,2.772-2.672,2.1c-.04-.338-.229-.848-.594-.859m4.312,3.252c-.781,1.259-.107,2.507.052,3.756.007.055.335.07.513.1.921.023,1.845.011,2.763.081.739.056,1.474.581,2.2-.03,1.308-.922.972-3.534-.573-4.455-.108-.152-.212-.434-.325-.438-1.369-.042-2.739-.072-4.107-.041-.685.016-.416.645-.527,1.024m12.43-9.724a8.087,8.087,0,0,1-5.4-2.228c-.214-.193-.491-.621-.833-.208a.816.816,0,0,0,.045.96c.92,1.5-1.732-.91.083-1.832" transform="translate(-8.837 -20.939)" fill="#fefdfd"/>
    <path id="Path_7561" data-name="Path 7561" d="M176.014,120.292c-.446-.931-1.06-1.754-.4-2.94a3.017,3.017,0,0,0-.213-2.289,1.98,1.98,0,0,0-1.442-1.128c-.745-.223-.49.666-.779,1s-.3,1.009-.973.924c-.808-.1-.525-.8-.639-1.276-.5-2.107.123-4.3-.5-6.4a8.661,8.661,0,0,0,1.155-4.309c-.468-5.312-1.462-10.539-2.454-15.766-.12-.634-.488-.855-1.189-.631a23.241,23.241,0,0,0-4.827,1.631c-.04-2.429-1.022-4.684-1.3-7.069,3.126-.513,6.239-1.138,9.383-1.5,2.378-.274,3.539.714,3.979,3.029a40,40,0,0,1,.787,6.817c.057,3.578.02,7.158.034,10.737a44.41,44.41,0,0,0,.713,8.88c.633,3.087.187,6.337-.164,9.506-.08.722-.573.83-1.167.791" transform="translate(-114.559 -56.76)" fill="#fefdfd"/>
    <path id="Path_7562" data-name="Path 7562" d="M176.014,120.292c-.446-.931-1.06-1.754-.4-2.94a3.017,3.017,0,0,0-.213-2.289,1.98,1.98,0,0,0-1.442-1.128c-.745-.223-.49.666-.779,1s-.3,1.009-.973.924c-.808-.1-.525-.8-.639-1.276-.5-2.107.123-4.3-.5-6.4a8.661,8.661,0,0,0,1.155-4.309c-.468-5.312-1.462-10.539-2.454-15.766-.12-.634-.488-.855-1.189-.631a23.241,23.241,0,0,0-4.827,1.631c-.04-2.429-1.022-4.684-1.3-7.069,3.126-.513,6.239-1.138,9.383-1.5,2.378-.274,3.539.714,3.979,3.029a40,40,0,0,1,.787,6.817c.057,3.578.02,7.158.034,10.737a44.41,44.41,0,0,0,.713,8.88c.633,3.087.187,6.337-.164,9.506C177.1,120.223,176.608,120.331,176.014,120.292Z" transform="translate(-114.559 -56.76)" fill="none" stroke="#000" stroke-miterlimit="10" stroke-width="0.5"/>
    <path id="Path_7563" data-name="Path 7563" d="M72.143,172.1a5.867,5.867,0,0,1,5.018.826c.955.621,2.17.519,3.222.908a5.394,5.394,0,0,0,.764,2.132c.267,2.115,1,4.121.954,6.333-.092,4.011-.2,8.021-.371,12.03-.318,2.95-.927,5.873.169,8.836.7,1.9.212,3.879-.277,5.792-.092.361-.138.877-.657.835a.869.869,0,0,1-.756-.946c-.023-.588,0-1.177.005-1.765a2.63,2.63,0,0,0-.493-2c-1.04,2.264-2.346,4.315-2.692,6.78-.1.728-.235,1.454-.389,2.173-.095.444-.3.9-.807.937-.682.046-.511-.552-.6-.95-.132-.593-.333-1.129-1.126-.947-.2-1.054-.375-2.114-.61-3.16-.79-3.525.783-6.543,2.268-9.469a9.683,9.683,0,0,0,.9-5.242c-.29-4.773-1.2-9.5-1.137-14.3.022-1.626-.856-2.981-1.46-4.413L72.143,172.1" transform="translate(-50.875 -121.195)" fill="#fefdfd"/>
    <path id="Path_7564" data-name="Path 7564" d="M72.143,172.1a5.867,5.867,0,0,1,5.018.826c.955.621,2.17.519,3.222.908a5.394,5.394,0,0,0,.764,2.132c.267,2.115,1,4.121.954,6.333-.092,4.011-.2,8.021-.371,12.03-.318,2.95-.927,5.873.169,8.836.7,1.9.212,3.879-.277,5.792-.092.361-.138.877-.657.835a.869.869,0,0,1-.756-.946c-.023-.588,0-1.177.005-1.765a2.63,2.63,0,0,0-.493-2c-1.04,2.264-2.346,4.315-2.692,6.78-.1.728-.235,1.454-.389,2.173-.095.444-.3.9-.807.937-.682.046-.511-.552-.6-.95-.132-.593-.333-1.129-1.126-.947-.2-1.054-.375-2.114-.61-3.16-.79-3.525.783-6.543,2.268-9.469a9.683,9.683,0,0,0,.9-5.242c-.29-4.773-1.2-9.5-1.137-14.3.022-1.626-.856-2.981-1.46-4.413Z" transform="translate(-50.875 -121.195)" fill="none" stroke="#000" stroke-miterlimit="10" stroke-width="0.5"/>
    <path id="Path_7565" data-name="Path 7565" d="M37.854,128.139l1.924,4.391a29.453,29.453,0,0,1-8.6-.516,6.94,6.94,0,0,1-5.553-6.555,33.5,33.5,0,0,1,.083-6.3c.263-3.2-.057-6.252-1.981-8.96a.643.643,0,0,1-.159-.671c.139.04.331.035.411.127,2.644,3.047,5.862,2.883,9.289,1.713.7-.237,1.442-.77,2.189-.059-1.715,1.115-1.477,3.039-1.934,4.675-1.258-.5-2.509-.108-3.762.029l-.141-.056.12.077c.1.522.242,1.041.288,1.568.248,2.838,1.374,3.481,3.882,2.193.946,2.4,1.875,4.816,2.85,7.209.2.491.244,1.233,1.1,1.139M32.1,115.175c-.037.264.142.231.259.233.175,0,.426.06.424-.222,0-.157-.042-.427-.287-.362-.161.042-.279.242-.4.351" transform="translate(-16.586 -77.236)"/>
    <path id="Path_7566" data-name="Path 7566" d="M74.074,446.815a.875.875,0,0,1,.081.765,1.558,1.558,0,0,0-.149.406c-.2,2.854-.2,2.854-2.984,3.518a.933.933,0,0,0-.259.132,15.567,15.567,0,0,1-9.51,2c-1.435-.092-2.967-.181-3.485-1.971a2.574,2.574,0,0,1,1.454-2.2,3.835,3.835,0,0,0,.493-.313c2.084-1.622,4.214-2.518,6.557-.294-.5-.852-.5-.852-2.5-1.808.541-.374,1.114-.026,1.63-.161.065.368.347.3.594.293a.668.668,0,0,0,.77.435c-.12-.469-.473-.405-.791-.411-.074-.349-.35-.289-.595-.293l-.781-.536c1.375-.32,2.353.511,3.449.812a.638.638,0,0,0,.635.426c.023,0,.067-.093.054-.117a.556.556,0,0,0-.706-.287c-.7-1.284-2.207-.925-3.32-1.568.693-.87,1.153-1.859,2.2-2.317,1.159.024,2.326-.007,3.175,1.02a2.211,2.211,0,0,0,2.946.689c.991.214.3,1.416,1.042,1.776m-6.692,1.124c-.029-.029-.058-.079-.088-.08s-.063.047-.094.073c.029.029.057.08.087.081s.062-.047.1-.075" transform="translate(-40.738 -312.636)"/>
    <path id="Path_7567" data-name="Path 7567" d="M142.795,447.945a4.187,4.187,0,0,1,4.636-1.482c-.6-.621-1.426-.142-2.15-.632,1.417-.812,2.732-.063,4.03-.047.083.338.315.364.6.287-.068.372.168.484.466.528.023,0,.095-.159.091-.161-.188-.119-.382-.23-.576-.341-.116-.269-.352-.291-.6-.291-.749-.839-1.835-.425-3.1-.833,2.034-.759,3.466.063,4.992.811-.889-1.1-1.512-1.313-4.316-1.529-.027-.774.68-1.277.748-2.007.681-.022,1.363-.051,2.046-.065,1.291-.027,2.521-.032,3.219,1.427.373.778.978.3,1.453-.067,1.014.563.452,1.568.645,2.358a5.588,5.588,0,0,1,.033,2.429,22.941,22.941,0,0,0-2.178,1.187,12.076,12.076,0,0,1-9.626,2.3c-1.315-.267-1.914-.781-1.973-2.045.021-.238.122-.368.381-.281q.145-.362.292-.724l.045-.05.573-.3-.029.032.3-.507" transform="translate(-99.6 -311.823)"/>
    <path id="Path_7568" data-name="Path 7568" d="M159.111,422.757a31.913,31.913,0,0,1,5.75-.573c.632-.022,1.277.049,1.677-.6.456,1.155.968,2.308.03,3.475a47.962,47.962,0,0,1-6.539.63,2.638,2.638,0,0,1-.918-2.934" transform="translate(-112.138 -297.302)"/>
    <path id="Path_7569" data-name="Path 7569" d="M140.094,464.494c.059,1.264.658,1.778,1.973,2.045a12.074,12.074,0,0,0,9.626-2.3,22.941,22.941,0,0,1,2.178-1.186,1.845,1.845,0,0,1-1.491,2.5,7.112,7.112,0,0,0-1.82.916,11.6,11.6,0,0,1-8.719,1.384c-2.2-.435-2.737-1.526-1.747-3.357" transform="translate(-98.457 -326.545)" fill="#ffe551"/>
    <path id="Path_7570" data-name="Path 7570" d="M94.8,439.794a2.211,2.211,0,0,1-2.946-.689c-.849-1.027-2.016-1-3.175-1.021q-.02-.99-.042-1.979l6.015-.213a5.981,5.981,0,0,1,.166,3.467l-.018.435" transform="translate(-62.508 -307.391)" fill="#fefdfd"/>
    <path id="Path_7571" data-name="Path 7571" d="M94.8,439.794a2.211,2.211,0,0,1-2.946-.689c-.849-1.027-2.016-1-3.175-1.021q-.02-.99-.042-1.979l6.015-.213a5.981,5.981,0,0,1,.166,3.467Z" transform="translate(-62.508 -307.391)" fill="none" stroke="#000" stroke-miterlimit="10" stroke-width="0.5"/>
    <path id="Path_7572" data-name="Path 7572" d="M162.456,434a47.917,47.917,0,0,0,6.539-.631c-.178,1.343.386,2.628.3,3.963-.476.37-1.081.845-1.454.066-.7-1.46-1.929-1.454-3.219-1.427-.682.014-1.364.044-2.046.065q-.062-1.019-.125-2.037" transform="translate(-114.564 -305.614)" fill="#fefdfd"/>
    <path id="Path_7573" data-name="Path 7573" d="M162.456,434a47.917,47.917,0,0,0,6.539-.631c-.178,1.343.386,2.628.3,3.963-.476.37-1.081.845-1.454.066-.7-1.46-1.929-1.454-3.219-1.427-.682.014-1.364.044-2.046.065Q162.519,435.021,162.456,434Z" transform="translate(-114.564 -305.614)" fill="none" stroke="#000" stroke-miterlimit="10" stroke-width="0.5"/>
    <path id="Path_7574" data-name="Path 7574" d="M57.551,461.832c.518,1.79,2.05,1.878,3.485,1.971a15.567,15.567,0,0,0,9.51-2,.942.942,0,0,1,.259-.132c2.782-.664,2.78-.664,2.984-3.518a1.544,1.544,0,0,1,.149-.406c.042,4.16,1.079,3.822-3.809,5.1-2.753.72-5.419,1.767-8.336,1.513-.878-.077-1.757-.165-2.628-.3-1.262-.2-1.967-.839-1.614-2.227" transform="translate(-40.521 -322.803)" fill="#ffe551"/>
    <path id="Path_7575" data-name="Path 7575" d="M238.36,174.337A7.291,7.291,0,0,1,235,176.563c-.1-2.644-2.059-.327-2.893-1.195.951-1.159,2.439-1.5,3.592-2.341.274-.2.618-.223.7.157.226,1.059.95,1.233,1.963,1.153" transform="translate(-163.681 -121.919)" fill="#ffe551"/>
    <path id="Path_7576" data-name="Path 7576" d="M235.038,205.833c-1.613-.341-2.9-.583-4.173-.892-.882-.214-2.068-.228-1.45-1.75.164-.4-.284-.57-.54-.765-.368-.28-.907-.34-1.266-1.034a20.329,20.329,0,0,1,4.046,1.03.338.338,0,0,1,.164.583c-1.02.983.044,1.031.577,1.259a4.972,4.972,0,0,1,2.641,1.569" transform="translate(-160.51 -142.022)" fill="#ffe551"/>
    <path id="Path_7577" data-name="Path 7577" d="M228.394,152.22c-.867,1.251-1.641,2.422-2.478,3.546-.266.357-.648,1.123-1.074.03-.328-.841-.689-.317-1.04.045-.208.213-.509.388-.758.1-.187-.215.017-.456.159-.644q.836-1.108,1.691-2.2a1.406,1.406,0,0,1,.317-.271c1.343,1.358,1.895-.876,3.183-.605" transform="translate(-157.238 -107.329)" fill="#ffe551"/>
    <path id="Path_7578" data-name="Path 7578" d="M109.545,448.088l.018-.435c1.594.157.738,1.449,1.024,2.212-.742-.361-.051-1.563-1.042-1.777" transform="translate(-77.251 -315.685)"/>
    <path id="Path_7579" data-name="Path 7579" d="M11.541,88.608a3.472,3.472,0,0,1,.476,2.069c-.658-.255-.194-1.357-1.084-1.437-.031-.436.145-.672.608-.632" transform="translate(-7.707 -62.483)"/>
    <path id="Path_7580" data-name="Path 7580" d="M15.579,97.582c.465.01.266.367.312.6-.372-.059-.317-.34-.312-.6" transform="translate(-10.982 -68.815)"/>
    <path id="Path_7581" data-name="Path 7581" d="M145.745,461.743l-.3.507c-.107-.289.1-.4.3-.507" transform="translate(-102.55 -325.621)" fill="#59415b"/>
    <path id="Path_7582" data-name="Path 7582" d="M144.248,463.267l-.573.3c.134-.209.267-.422.573-.3" transform="translate(-101.32 -326.67)" fill="#59415b"/>
    <path id="Path_7583" data-name="Path 7583" d="M14.557,95.6c.481.007.38.312.308.6a.484.484,0,0,1-.308-.6" transform="translate(-10.256 -67.414)"/>
    <path id="Path_7584" data-name="Path 7584" d="M142.683,464.531q-.147.362-.292.724c-.166-.348.053-.54.292-.724" transform="translate(-100.373 -327.587)" fill="#59415b"/>
    <path id="Path_7587" data-name="Path 7587" d="M158.147,113.574c3.569,2.516,3.4,5.859,2.092,9.454-.625.458-.956,1.239-1.728,1.544-.559.221-.937.248-.962-.531-.02-.632-.2-1.263-.189-1.892a8.282,8.282,0,0,0-3.015-6.691c-.832-.725-.716-1.135.339-1.417.9-.24,1.767-.57,2.649-.861l.813.4" transform="translate(-108.457 -79.814)"/>
    <path id="Path_7588" data-name="Path 7588" d="M90.206,104.349l-.038-.6-.024-.288q-.267-1.925-.533-3.849a2.493,2.493,0,0,1,.366.233c1.15,1.047,1.148,1.048,1.577-.073a.234.234,0,0,1,.1-.105c.887-.5.533-1.368.613-2.106l.887.562c-.81,4.386-.138,8.807-.291,13.209a12.319,12.319,0,0,1-.6,4.047,2.9,2.9,0,0,1-1.7,1.861,25.471,25.471,0,0,0-.358-12.89" transform="translate(-63.194 -68.8)"/>
    <path id="Path_7589" data-name="Path 7589" d="M44.633,130.862c1.253-.137,2.5-.531,3.762-.029a12.293,12.293,0,0,0,.387,3.811c-2.508,1.287-3.634.644-3.882-2.194-.046-.527-.19-1.045-.288-1.568Zm2.257,2.408a.566.566,0,0,0-.52-.6.637.637,0,0,0-.8.632c-.033.37.226.513.557.513a.7.7,0,0,0,.764-.549" transform="translate(-31.46 -92.089)"/>
    <path id="Path_7590" data-name="Path 7590" d="M97.407,88.063,96.52,87.5l.008.008-.3-.305.01.01-.3-.3.009.008-.3-1.244A6.147,6.147,0,0,0,97.869,83.3c.55.7.2,2.206,1.861,1.959.253-.037-.26.472-.269.775l.013-.006c-.439.031-.983-.216-1.178.451a2.872,2.872,0,0,1-.889,1.588" transform="translate(-67.446 -58.74)"/>
    <path id="Path_7591" data-name="Path 7591" d="M102.887,180.223l-2.026.456a5.386,5.386,0,0,1-.763-2.132,3.2,3.2,0,0,1,2.79,1.676" transform="translate(-70.588 -125.91)"/>
    <path id="Path_7592" data-name="Path 7592" d="M166.606,112.437l-.813-.4c.019-.2.035-.408.282-.476.65,0,.519.479.531.871" transform="translate(-116.917 -78.676)"/>
    <path id="Path_7593" data-name="Path 7593" d="M104.645,92.951c.195-.667.739-.421,1.178-.451a1.056,1.056,0,0,1-1.178.451" transform="translate(-73.796 -65.217)"/>
    <path id="Path_7594" data-name="Path 7594" d="M35.862,90.438c1.545.922,1.88,3.533.573,4.456-.909-1.947-3.542-1.975-4.967-.051-.178-.034-.506-.048-.513-.1-.159-1.248-.833-2.5-.052-3.756a5.441,5.441,0,0,0,1.408.312c1.229-.056,2.641.539,3.551-.857" transform="translate(-21.532 -63.777)"/>
    <path id="Path_7598" data-name="Path 7598" d="M91.744,96.133c-.081.738.274,1.6-.613,2.106a.23.23,0,0,0-.1.105c-.429,1.121-.427,1.12-1.577.073a2.478,2.478,0,0,0-.366-.234c-.319-.456-.169-.981-.218-1.477.357-1.192,1.31-1.2,2.292-1.156l-.009-.008.3.3-.01-.01.3.3Zm-.9.919c-.122-.34-.33-.649-.808-.584-.311.042-.572.232-.54.567a.8.8,0,0,0,.75.754c.413.031.562-.3.6-.736" transform="translate(-62.67 -67.372)"/>
    <path id="Path_7599" data-name="Path 7599" d="M36.747,89.262c-.911,1.4-2.322.8-3.551.857a5.441,5.441,0,0,1-1.408-.312c.111-.378-.158-1.008.526-1.023,1.369-.031,2.739,0,4.108.041.113,0,.217.285.325.438" transform="translate(-22.417 -62.601)" fill="#fefdfd"/>
    <path id="Path_7600" data-name="Path 7600" d="M33.7,101.967c1.425-1.923,4.057-1.9,4.967.051-.73.611-1.465.086-2.2.029-.918-.07-1.841-.057-2.763-.081" transform="translate(-23.768 -70.902)" fill="#ffe551"/>
    <path id="Path_7602" data-name="Path 7602" d="M87.621,92.609c-.983-.049-1.935-.037-2.292,1.156-.368-.677-.794-1.042-1.48.123.253-2.6,2.213-2,3.476-2.523l.3,1.244" transform="translate(-59.13 -64.431)"/>
    <path id="Path_7603" data-name="Path 7603" d="M60.754,63.508" transform="translate(-42.844 -44.755)"/>
    <path id="Path_7609" data-name="Path 7609" d="M91.237,117.574l.024.289a1.209,1.209,0,0,1-.1-.2c-.006-.02.048-.06.075-.09" transform="translate(-64.287 -82.913)" fill="#da5171"/>
    <path id="Path_7610" data-name="Path 7610" d="M52.613,127.829c.116-.109.235-.309.4-.351.244-.065.286.2.287.362,0,.283-.249.225-.424.222-.116,0-.3.03-.259-.233" transform="translate(-37.099 -89.89)"/>
    <path id="Path_7611" data-name="Path 7611" d="M44.324,131.41l-.12-.077.141.056-.021.021" transform="translate(-31.173 -92.616)"/>
    <path id="Path_7612" data-name="Path 7612" d="M92.586,456.435a.556.556,0,0,1,.706.287c.013.025-.032.116-.055.118a.638.638,0,0,1-.635-.426l-.017.022" transform="translate(-65.292 -321.857)" fill="#fefdfd"/>
    <path id="Path_7613" data-name="Path 7613" d="M85.612,456.431c.318.006.671-.058.791.411a.668.668,0,0,1-.77-.435Z" transform="translate(-60.374 -321.858)" fill="#fefdfd"/>
    <path id="Path_7614" data-name="Path 7614" d="M84.209,455.706c-.247,0-.529.075-.594-.293l-.022.024c.245,0,.521-.057.6.293l.021-.024" transform="translate(-58.95 -321.157)" fill="#fefdfd"/>
    <path id="Path_7615" data-name="Path 7615" d="M89.943,458.775c-.032.027-.065.075-.094.074s-.058-.052-.087-.081c.031-.026.063-.074.094-.073s.059.051.088.08" transform="translate(-63.3 -323.472)" fill="#fefdfd"/>
    <path id="Path_7616" data-name="Path 7616" d="M170.591,455.414c.193.111.388.222.576.341,0,0-.068.165-.091.161-.3-.043-.534-.156-.466-.527Z" transform="translate(-120.301 -321.14)" fill="#fefdfd"/>
    <path id="Path_7617" data-name="Path 7617" d="M169.18,454.7c-.282.077-.515.05-.6-.287l-.019.022c.246,0,.482.022.6.291l.019-.025" transform="translate(-118.871 -320.453)" fill="#fefdfd"/>
    <path id="Path_7618" data-name="Path 7618" d="M49.173,138.235a.7.7,0,0,1-.764.549c-.332,0-.59-.143-.557-.513a.637.637,0,0,1,.8-.632.566.566,0,0,1,.52.6" transform="translate(-33.743 -97.055)"/>
    <path id="Path_7619" data-name="Path 7619" d="M97.92,96.86l-.3-.3.3.3" transform="translate(-68.838 -68.091)" fill="#5c1e1b"/>
    <path id="Path_7620" data-name="Path 7620" d="M96.92,95.861l-.3-.3.3.3" transform="translate(-68.133 -67.386)" fill="#5c1e1b"/>
    <path id="Path_7622" data-name="Path 7622" d="M92.334,99.259c-.035.44-.184.767-.6.736a.8.8,0,0,1-.75-.754c-.032-.335.229-.524.54-.567.477-.065.685.244.808.584" transform="translate(-64.162 -69.579)"/>
  </g>
</svg>
