<svg id="Group_1188" data-name="Group 1188" xmlns="http://www.w3.org/2000/svg" xmlns:xlink="http://www.w3.org/1999/xlink" width="42.666" height="137.15" viewBox="0 0 42.666 137.15">
  <defs>
    <clipPath id="clip-path">
      <rect id="Rectangle_848" data-name="Rectangle 848" width="42.667" height="137.151" fill="none"/>
    </clipPath>
  </defs>
  <g id="Group_1187" data-name="Group 1187" clip-path="url(#clip-path)">
    <path id="Path_7727" data-name="Path 7727" d="M33.731,393.791c0,1.28-6.746,2.318-15.068,2.318s-15.068-1.038-15.068-2.318,6.746-2.318,15.068-2.318,15.068,1.038,15.068,2.318" transform="translate(-2.378 -258.958)"/>
    <path id="Path_7728" data-name="Path 7728" d="M13.171,19.954s-1.031.713-3.715-.629-2.546-3.985-1.145-4.937,1.684-1.488-.163-2.633S7.76,6.944,10.962,5.781s4.332-1.2,7-.235,6.843,6.253,7.185,9.709-2.68,5.517-6.279,6.09a7.014,7.014,0,0,1-5.7-1.392" transform="translate(-4.848 -3.217)"/>
    <path id="Path_7729" data-name="Path 7729" d="M17.226,21.3a6.983,6.983,0,0,1-4.41-1.464c-.353.155-1.5.454-3.766-.681a3.649,3.649,0,0,1-2.215-2.933,2.551,2.551,0,0,1,1.05-2.3c.642-.437,1.069-.8,1.062-1.135-.007-.317-.394-.7-1.22-1.214A2,2,0,0,1,6.851,9.55,5.592,5.592,0,0,1,10.574,5.3c3.224-1.17,4.421-1.209,7.117-.235s6.939,6.24,7.3,9.852c.377,3.812-3.069,5.74-6.42,6.273a8.5,8.5,0,0,1-1.341.108M12.84,19.462a.168.168,0,0,1,.115.045,6.913,6.913,0,0,0,5.558,1.349c3.2-.509,6.491-2.328,6.137-5.906-.34-3.44-4.507-8.639-7.074-9.567-2.63-.951-3.724-.914-6.887.235a5.24,5.24,0,0,0-3.5,3.968,1.676,1.676,0,0,0,.718,1.7c.958.593,1.371,1.04,1.38,1.495.01.492-.456.909-1.211,1.422a2.214,2.214,0,0,0-.9,1.992A3.321,3.321,0,0,0,9.2,18.849c2.534,1.268,3.535.647,3.544.64a.17.17,0,0,1,.094-.028" transform="translate(-4.517 -2.893)"/>
    <path id="Path_7730" data-name="Path 7730" d="M46.945,289.833a41.7,41.7,0,0,0-2.278-4.062,7.241,7.241,0,0,0,.146-1.185,6.585,6.585,0,0,1,1-1.263c-.027.707-.044,1.181-.044,1.181s.562,2.271,1.175,5.328" transform="translate(-29.547 -187.418)"/>
    <path id="Path_7731" data-name="Path 7731" d="M46.614,289.673a.169.169,0,0,1-.151-.094,41.914,41.914,0,0,0-2.268-4.044.169.169,0,0,1-.025-.127,7.137,7.137,0,0,0,.143-1.145c0-.1,0-.2,1.044-1.381a.169.169,0,0,1,.3.119l-.043,1.157c.061.249.6,2.45,1.17,5.312a.169.169,0,0,1-.111.193.166.166,0,0,1-.055.009m-2.1-4.266c.161.248.811,1.271,1.686,2.925-.5-2.4-.921-4.1-.926-4.116a.165.165,0,0,1,0-.046l.026-.706a5.709,5.709,0,0,0-.646.813,7.008,7.008,0,0,1-.136,1.13" transform="translate(-29.216 -187.088)"/>
    <path id="Path_7732" data-name="Path 7732" d="M42.455,345a1.437,1.437,0,0,1-1.493.768,76.227,76.227,0,0,0-2.1-8.842A79.377,79.377,0,0,1,42.455,345" transform="translate(-25.71 -222.874)"/>
    <path id="Path_7733" data-name="Path 7733" d="M40.833,345.62a1.384,1.384,0,0,1-.23-.018.169.169,0,0,1-.14-.149,73.358,73.358,0,0,0-2.09-8.814.169.169,0,0,1,.315-.119,71.981,71.981,0,0,1,3.6,8.109.168.168,0,0,1-.013.112,1.57,1.57,0,0,1-1.443.878m-.049-.341a1.223,1.223,0,0,0,1.161-.633,59.257,59.257,0,0,0-2.745-6.272,67.038,67.038,0,0,1,1.584,6.905" transform="translate(-25.38 -222.544)"/>
    <path id="Path_7734" data-name="Path 7734" d="M39.725,367.456c-.518,1.215-4.065,2.451-4.516,3.263a3.473,3.473,0,0,1-.308.454,4.745,4.745,0,0,1-2.495,1.716c-.24.044-.548.081-.883.112-1.212.118-2.776.169-2.776.169s-1.591.132-1.838-.1-.42-.623.21-.884c.379-.156,1.212-.531,1.916-.894h.007a0,0,0,0,0,0,0,5.859,5.859,0,0,0,1.053-.64,47.076,47.076,0,0,0,2.637-4.637s.518-1.212.169-4.472a1.437,1.437,0,0,0,1.493-.768c.061.264.125.531.2.792a11.307,11.307,0,0,0,2.546-.288,10.919,10.919,0,0,0,1.049,3.2c.582.616,2.055,1.764,1.537,2.979" transform="translate(-17.652 -238.651)" fill="#fff"/>
    <path id="Path_7735" data-name="Path 7735" d="M27.523,373.049a1.97,1.97,0,0,1-1.061-.184.712.712,0,0,1-.27-.635c.04-.221.219-.4.53-.528.365-.15,1.2-.524,1.9-.888l.022-.01a5.19,5.19,0,0,0,1-.609,40.71,40.71,0,0,0,2.6-4.589s.489-1.218.152-4.376a.169.169,0,0,1,.052-.141.171.171,0,0,1,.144-.044,1.258,1.258,0,0,0,1.313-.676.169.169,0,0,1,.317.037c.05.22.1.442.161.66a10.931,10.931,0,0,0,2.375-.282.168.168,0,0,1,.13.02.17.17,0,0,1,.076.107,11.04,11.04,0,0,0,1.007,3.119c.083.088.183.185.293.292.7.686,1.766,1.722,1.277,2.87-.314.737-1.543,1.415-2.731,2.071a6.2,6.2,0,0,0-1.792,1.207,3.7,3.7,0,0,1-.324.478,4.906,4.906,0,0,1-2.6,1.777c-.232.042-.534.081-.9.114-1.2.117-2.77.169-2.786.17-.212.018-.555.041-.9.041m1.236-1.923c-.711.364-1.54.737-1.906.888-.192.08-.308.178-.326.276a.411.411,0,0,0,.168.328,4.887,4.887,0,0,0,1.708.053c.024,0,1.581-.052,2.773-.169.355-.032.647-.069.87-.11a4.623,4.623,0,0,0,2.392-1.654,3.32,3.32,0,0,0,.294-.433,5.776,5.776,0,0,1,1.924-1.338c1.085-.6,2.315-1.278,2.583-1.907.4-.934-.565-1.873-1.2-2.494-.114-.111-.217-.212-.3-.3a11.119,11.119,0,0,1-1.053-3.111,11.581,11.581,0,0,1-2.41.253.181.181,0,0,1-.172-.125c-.037-.138-.073-.277-.107-.417a1.569,1.569,0,0,1-1.229.533c.307,3.115-.181,4.3-.2,4.353a43.243,43.243,0,0,1-2.68,4.7,5.778,5.778,0,0,1-1.075.657.178.178,0,0,1-.046.022m10.635-4h0Z" transform="translate(-17.321 -238.32)"/>
    <path id="Path_7736" data-name="Path 7736" d="M22.9,148.38a4.691,4.691,0,0,1,2.613-.565c.339.017.931.1,1.581.2a14.668,14.668,0,0,1-1.324-4.438,20.189,20.189,0,0,1,1.422-5.155c-9.1,2.221-17.829-1.158-17.829-1.158s-.206,1.148-.308,2.512a14.339,14.339,0,0,0-3.185,10.138,10.28,10.28,0,0,1,.521,1.269c.213.65.095.88-.223.647v.017c.081.206.166.443.24.7.02.064.034.122.047.176.088.227.186.494.271.785a1.645,1.645,0,0,1,.091.535,7.153,7.153,0,0,0,2.326,2.918,9.3,9.3,0,0,0,10.558-.1,7.62,7.62,0,0,0,1.784-1.767h0l1.462-1.5c-.4.149-.673.247-.738.267l.907-.44.467-.477,1.3-1.327a2.726,2.726,0,0,0-.278.146c-.389.251-1.083.914-1.32,1s-.728-.213-.267-.789a16.334,16.334,0,0,1,2.485-1.835l-1.655.372s-.545.416-.856.667a.967.967,0,0,1-1.114.118c-.325-.23.843-1.066,1.073-1.313A18.285,18.285,0,0,1,25.718,149s-1.442-.112-1.76-.1a2.651,2.651,0,0,0-1.181.437c-.389.254-.931.829-1.344.366s.687-.9,1.473-1.327M8.83,147.754c-.038.416-.193.745-.342.731s-.244-.362-.207-.779.19-.745.342-.731.244.362.207.779" transform="translate(-3.855 -90.8)" fill="#fff"/>
    <path id="Path_7737" data-name="Path 7737" d="M22.9,148.38a4.691,4.691,0,0,1,2.613-.565c.339.017.931.1,1.581.2a14.668,14.668,0,0,1-1.324-4.438,20.189,20.189,0,0,1,1.422-5.155c-9.1,2.221-17.829-1.158-17.829-1.158s-.206,1.148-.308,2.512a14.339,14.339,0,0,0-3.185,10.138,10.28,10.28,0,0,1,.521,1.269c.213.65.095.88-.223.647v.017c.081.206.166.443.24.7.02.064.034.122.047.176.088.227.186.494.271.785a1.645,1.645,0,0,1,.091.535,7.153,7.153,0,0,0,2.326,2.918,9.3,9.3,0,0,0,10.558-.1,7.62,7.62,0,0,0,1.784-1.767h0l1.462-1.5c-.4.149-.673.247-.738.267l.907-.44.467-.477,1.3-1.327a2.726,2.726,0,0,0-.278.146c-.389.251-1.083.914-1.32,1s-.728-.213-.267-.789a16.334,16.334,0,0,1,2.485-1.835l-1.655.372s-.545.416-.856.667a.967.967,0,0,1-1.114.118c-.325-.23.843-1.066,1.073-1.313A18.285,18.285,0,0,1,25.718,149s-1.442-.112-1.76-.1a2.651,2.651,0,0,0-1.181.437c-.389.254-.931.829-1.344.366S22.119,148.807,22.9,148.38ZM8.83,147.754c-.038.416-.193.745-.342.731s-.244-.362-.207-.779.19-.745.342-.731S8.867,147.338,8.83,147.754Z" transform="translate(-3.855 -90.8)" fill="none" stroke="#000" stroke-linecap="round" stroke-linejoin="round" stroke-width="1"/>
    <path id="Path_7738" data-name="Path 7738" d="M34.879,124.085a12.516,12.516,0,0,1-.769,3.209.01.01,0,0,0,0,.007c-9.1,2.221-17.829-1.158-17.829-1.158q-.01-.223,0-.487c.037-1.665.515-4.235,1.594-4.272,1.195-.041,8.876-1.814,13.073-.359s3.9,2.024,3.933,3.06" transform="translate(-10.765 -79.679)" fill="#fff"/>
    <path id="Path_7739" data-name="Path 7739" d="M27.256,127.895a35.2,35.2,0,0,1-11.37-1.918.17.17,0,0,1-.108-.15q-.011-.23,0-.5c.039-1.758.54-4.393,1.758-4.435.24-.008.791-.1,1.489-.205,2.69-.425,8.286-1.309,11.646-.144,3.842,1.332,4.028,1.948,4.043,3.01,0,.066,0,.134,0,.2h0A11.793,11.793,0,0,1,33.947,127c0,.006-.005.014-.009.023a.169.169,0,0,1-.122.116,27.706,27.706,0,0,1-6.56.754m-11.144-2.2c1.01.365,9.156,3.145,17.536,1.134a11.6,11.6,0,0,0,.73-3.067c0-.072,0-.143,0-.211-.012-.83-.019-1.378-3.815-2.694-3.279-1.137-8.819-.262-11.482.158-.737.117-1.27.2-1.53.21-.828.029-1.387,2.154-1.431,4.107,0,.13-.006.251,0,.364" transform="translate(-10.433 -79.354)"/>
    <path id="Path_7740" data-name="Path 7740" d="M58.657,171.906c-.149-.037-.234-.064-.234-.064s-2.654,1.686-3.043,2.017c-.359.308-.809.071-.812-.162l-.3-.074-.352-.081,1.3-1.327a2.685,2.685,0,0,0-.278.146c-.389.25-1.083.914-1.32,1s-.728-.213-.267-.789a16.335,16.335,0,0,1,2.485-1.835l-1.655.372s-.545.416-.856.667a.967.967,0,0,1-1.114.118c-.325-.23.843-1.066,1.073-1.313a18.286,18.286,0,0,1,2.762-.971s-1.442-.112-1.76-.1a2.651,2.651,0,0,0-1.181.437c-.389.254-.931.829-1.344.366s.687-.9,1.473-1.327a4.691,4.691,0,0,1,2.613-.565c.339.017.931.1,1.581.2.342.853.7,1.737,1.005,2.6.041.115.078.227.118.339l.03.091c.027.085.058.169.085.254" transform="translate(-34.174 -111.405)" fill="#fff"/>
    <path id="Path_7741" data-name="Path 7741" d="M54.673,173.844a.71.71,0,0,1-.288-.061.543.543,0,0,1-.287-.277l-.554-.131a.169.169,0,0,1-.118-.229.652.652,0,0,1-.088.041.536.536,0,0,1-.586-.2c-.079-.109-.224-.411.129-.853a10.047,10.047,0,0,1,1.732-1.356l-.7.157c-.117.089-.556.427-.824.642a1.139,1.139,0,0,1-1.315.126.3.3,0,0,1-.13-.232c-.013-.288.363-.632.895-1.086.123-.105.228-.194.28-.25a8.428,8.428,0,0,1,1.943-.752c-.356-.022-.684-.037-.81-.033a2.514,2.514,0,0,0-1.1.41c-.067.044-.139.1-.214.154-.361.27-.906.678-1.348.182a.461.461,0,0,1-.125-.4c.072-.379.646-.673,1.252-.983.133-.068.266-.136.391-.2a4.877,4.877,0,0,1,2.7-.586c.308.016.83.082,1.6.2a.168.168,0,0,1,.131.1l.029.073c.333.831.678,1.691.979,2.536l.235.689a.169.169,0,0,1-.2.216c-.07-.017-.126-.033-.167-.044-.409.261-2.617,1.67-2.959,1.962a.738.738,0,0,1-.487.187m-.76-.73.365.088a.169.169,0,0,1,.129.162c0,.02.035.074.117.111a.385.385,0,0,0,.416-.074c.394-.336,2.954-1.963,3.063-2.032a.174.174,0,0,1,.068-.025l-.137-.4c-.3-.833-.637-1.684-.967-2.507-.7-.108-1.19-.169-1.468-.183a4.56,4.56,0,0,0-2.524.545c-.127.069-.262.138-.4.208-.436.223-1.033.528-1.074.745,0,.015-.009.051.046.113.2.225.438.112.892-.228.082-.061.16-.12.233-.167a2.789,2.789,0,0,1,1.269-.464c.322-.013,1.719.094,1.778.1a.169.169,0,0,1,.034.331,16.531,16.531,0,0,0-2.687.926c-.06.065-.169.157-.306.275-.2.173-.73.622-.773.795a.82.82,0,0,0,.892-.124c.313-.251.86-.67.86-.67a.172.172,0,0,1,.066-.03l1.655-.372a.169.169,0,0,1,.127.308,14.989,14.989,0,0,0-2.443,1.8c-.147.183-.19.345-.119.443a.2.2,0,0,0,.2.081,4.266,4.266,0,0,0,.638-.478,7.977,7.977,0,0,1,.65-.5,2.854,2.854,0,0,1,.3-.156A.169.169,0,0,1,55,172Z" transform="translate(-33.844 -111.074)"/>
    <path id="Path_7742" data-name="Path 7742" d="M30,189.914a40.824,40.824,0,0,0-1.164,5.321c-.247,2.163-2.938,6.746-4.749,9.84A56.393,56.393,0,0,0,19.335,218c-.007.03-.014.058-.02.088-.169-.511-.386-1.175-.619-1.94v0c-.2-.714,4.621-14.945,6.492-16.685l3.026-7.779A7.62,7.62,0,0,0,30,189.914Z" transform="translate(-12.363 -125.628)"/>
    <path id="Path_7743" data-name="Path 7743" d="M18.992,217.934a.17.17,0,0,1-.161-.116c-.164-.5-.383-1.164-.62-1.943a.157.157,0,0,1-.007-.039c-.13-1.122,4.663-14.974,6.517-16.794l3.013-7.744a.166.166,0,0,1,.06-.077,7.456,7.456,0,0,0,1.744-1.728.177.177,0,0,1,.275,0,.171.171,0,0,1,.029.149,40.928,40.928,0,0,0-1.159,5.293c-.249,2.181-2.944,6.785-4.727,9.831l-.044.076a56.21,56.21,0,0,0-4.733,12.873l-.021.09a.169.169,0,0,1-.157.132h-.008m-.453-2.143c.151.5.3.946.421,1.335a56.982,56.982,0,0,1,4.658-12.459l.044-.076c1.769-3.022,4.442-7.588,4.683-9.7a36.153,36.153,0,0,1,.954-4.564,7.966,7.966,0,0,1-1.269,1.138L25.023,199.2a.173.173,0,0,1-.043.063c-1.941,1.8-6.54,15.9-6.443,16.521a.1.1,0,0,1,0,.009" transform="translate(-12.04 -125.304)"/>
    <path id="Path_7744" data-name="Path 7744" d="M21.313,202.913c-1.872,1.74-6.689,15.971-6.492,16.685a42.03,42.03,0,0,1-1.973-9.468c-.159-4.7.944-9.844.988-10.961.03-.873-.01-2.474-.054-3.93a9.3,9.3,0,0,0,10.558-.1Z" transform="translate(-8.488 -129.081)"/>
    <path id="Path_7745" data-name="Path 7745" d="M14.492,219.438a.172.172,0,0,1-.163-.122,42.13,42.13,0,0,1-1.981-9.512,52.327,52.327,0,0,1,.762-9.253c.12-.795.214-1.423.226-1.72.03-.868-.01-2.468-.054-3.918a.169.169,0,0,1,.27-.141,9.133,9.133,0,0,0,10.359-.106.169.169,0,0,1,.256.2l-3.026,7.779a.171.171,0,0,1-.043.062c-1.941,1.8-6.54,15.9-6.443,16.521a.167.167,0,0,1-.116.2.155.155,0,0,1-.046.007m-.862-24.2c.04,1.36.072,2.792.044,3.6-.012.317-.1.921-.23,1.758a52.03,52.03,0,0,0-.759,9.191,39.433,39.433,0,0,0,1.754,8.718c.746-3.185,4.743-14.4,6.4-16.025l2.818-7.243a9.532,9.532,0,0,1-10.026,0m7.353,7.341h0Z" transform="translate(-8.157 -128.75)"/>
    <path id="Path_7746" data-name="Path 7746" d="M33.281,75.517c-.653,1.425-1.286,2.5-1.286,2.5s-.274.955-.616,2.136c-.115.4-.24.819-.362,1.242l-.051.173c-.1.339-.2.674-.288.988-.041.129-.074.254-.112.376a15.69,15.69,0,0,1-1.865,3.8.01.01,0,0,0,0,.007c-9.1,2.221-17.829-1.158-17.829-1.158l-.1-.555a7.739,7.739,0,0,1-1.4-1.388,6.062,6.062,0,0,1-.833-5.876c1.107-2.59,5.518-4.333,5.744-4.739s1-3.385,2.16-4.539c.762-.762,3.057-1.232,4.536-1.459.1-.017.2-.03.288-.044s.166-.024.24-.034.135-.017.2-.027a.094.094,0,0,0,.03,0c.064-.007.129-.017.183-.024h.007c.054-.007.1-.014.146-.02.142-.014.223-.024.223-.024a12.316,12.316,0,0,0-.383-2.7.526.526,0,0,0-.027-.078c-.007-.017-.014-.034-.02-.054a9.681,9.681,0,0,0-.751-1.435.56.56,0,0,0-.051-.085c-.037-.061-.071-.118-.108-.173-.047-.074-.088-.139-.129-.2-.129-.2-.217-.325-.217-.325s3.554-2.887,4.658-2.65h.007c.03.01.061.017.085.027,0,0,.007,0,.014.007a.289.289,0,0,1,.074.051.21.21,0,0,1,.047.047s.007.007.007.01a.159.159,0,0,1,.02.03.33.33,0,0,1,.037.078,5,5,0,0,0,.244.548c.071.139.152.288.24.447.037.068.078.139.118.21.406.711.948,1.571,1.466,2.356.586.89,1.141,1.686,1.435,2.065a.026.026,0,0,0,.014.014q.066.086.112.142a.531.531,0,0,0,.078.078,1.25,1.25,0,0,0,.339.115,7.774,7.774,0,0,1,1.679.613c.078.037.162.081.247.125h0a5.108,5.108,0,0,1,3.168,4.309,12.431,12.431,0,0,1-1.412,5.088" transform="translate(-5.355 -39.123)" fill="#fff"/>
    <path id="Path_7747" data-name="Path 7747" d="M21.853,87.335a35.2,35.2,0,0,1-11.37-1.919.17.17,0,0,1-.106-.128l-.086-.489A8,8,0,0,1,8.908,83.42a6.229,6.229,0,0,1-.855-6.047c.827-1.934,3.441-3.406,4.845-4.2a5.966,5.966,0,0,0,.909-.562c.046-.084.142-.361.253-.682a11.4,11.4,0,0,1,1.933-3.891c.819-.819,3.252-1.3,4.63-1.506.072-.013.148-.024.221-.034l.068-.01.15-.021.177-.025.107-.015a.2.2,0,0,1,.041-.005c.039,0,.078-.009.114-.014l.065-.009q.087-.01.145-.019l.075-.008a11.334,11.334,0,0,0-.367-2.493.432.432,0,0,0-.023-.066c-.009-.022-.017-.043-.025-.066a9.587,9.587,0,0,0-.735-1.4.571.571,0,0,0-.042-.072l-.029-.047c-.028-.046-.054-.09-.083-.131l-.02-.031c-.04-.063-.075-.118-.11-.171-.127-.2-.213-.32-.214-.321a.17.17,0,0,1,.032-.228c.369-.3,3.63-2.914,4.788-2.687a.189.189,0,0,1,.037.007,1.024,1.024,0,0,1,.1.032.185.185,0,0,1,.027.015.425.425,0,0,1,.114.079.244.244,0,0,1,.059.06l.01.014a.238.238,0,0,1,.027.042.451.451,0,0,1,.053.108,4.785,4.785,0,0,0,.237.534c.069.136.15.283.237.441.037.067.077.137.117.208.368.643.886,1.477,1.46,2.347.561.853,1.118,1.654,1.422,2.047a.149.149,0,0,1,.02.022q.064.084.109.138c.023.025.035.039.045.048a1.375,1.375,0,0,0,.281.088l.067.017a7.819,7.819,0,0,1,1.646.608c.073.035.153.077.234.119l.019.008a5.262,5.262,0,0,1,3.26,4.449,12.7,12.7,0,0,1-1.427,5.169c-.6,1.314-1.2,2.348-1.283,2.5-.041.144-.3,1.035-.61,2.116l-.142.487c-.072.248-.147.5-.22.755l-.339,1.162c-.024.076-.045.148-.065.218l-.047.159A15.745,15.745,0,0,1,28.522,86.5a.17.17,0,0,1-.109.084,27.706,27.706,0,0,1-6.56.754m-11.159-2.2c.94.342,9.144,3.169,17.578,1.133a15.773,15.773,0,0,0,1.808-3.71l.046-.156c.021-.073.043-.147.066-.222l.337-1.158c.073-.254.147-.508.22-.756l.142-.486c.342-1.181.616-2.135.616-2.136a.179.179,0,0,1,.017-.039c.006-.011.637-1.086,1.279-2.486h0a12.4,12.4,0,0,0,1.4-5.006,4.943,4.943,0,0,0-3.06-4.161l-.021-.009c-.083-.043-.166-.086-.242-.123a7.507,7.507,0,0,0-1.582-.585l-.066-.017a1.346,1.346,0,0,1-.386-.136.5.5,0,0,1-.1-.093c-.048-.057-.085-.1-.127-.159l-.019-.022h0c-.308-.4-.874-1.211-1.443-2.076s-1.1-1.716-1.471-2.365c-.041-.072-.082-.144-.12-.212-.089-.16-.171-.311-.242-.451a5.033,5.033,0,0,1-.253-.57.314.314,0,0,0-.015-.035l.131-.109-.141.089-.008-.009h0a.131.131,0,0,1-.018-.021.235.235,0,0,0-.052-.037l-.01,0L24.908,59l-.01,0c-.8-.172-3.336,1.675-4.394,2.519.036.053.08.121.131.2.035.053.071.11.113.175s.075.117.107.169l.02.033a.639.639,0,0,1,.058.1,9.776,9.776,0,0,1,.758,1.449l.02.052a.745.745,0,0,1,.034.1,12.267,12.267,0,0,1,.387,2.733.169.169,0,0,1-.148.173s-.083.01-.228.024c-.031.005-.084.013-.14.02l-.067.008-.126.016h0a.4.4,0,0,1-.048,0,.734.734,0,0,1-.091.015l-.171.024-.155.021-.064.009c-.07.01-.142.021-.215.033-2.278.349-3.9.864-4.445,1.412a11.391,11.391,0,0,0-1.852,3.762,6.61,6.61,0,0,1-.279.739c-.082.148-.36.308-1.037.689-1.369.771-3.918,2.206-4.7,4.035a5.878,5.878,0,0,0,.81,5.706,7.635,7.635,0,0,0,1.37,1.354.17.17,0,0,1,.068.108Z" transform="translate(-5.031 -38.795)"/>
    <path id="Path_7748" data-name="Path 7748" d="M49.988,59.4c-.441-1.262-4.946,2.4-4.946,2.4a13.6,13.6,0,0,1,1.252,2.22,19,19,0,0,0,5.411-.873,1.954,1.954,0,0,0,.352-.183,24.7,24.7,0,0,1-2.07-3.563" transform="translate(-29.795 -39.121)"/>
    <path id="Path_7749" data-name="Path 7749" d="M45.964,63.866a.169.169,0,0,1-.158-.108,13.549,13.549,0,0,0-1.234-2.184.169.169,0,0,1,.032-.228c.378-.307,3.722-2.993,4.841-2.674a.532.532,0,0,1,.371.35,23.507,23.507,0,0,0,2.051,3.526.169.169,0,0,1-.049.235,2.116,2.116,0,0,1-.383.2,18.965,18.965,0,0,1-5.466.884h-.006m-1.025-2.355a13.472,13.472,0,0,1,1.137,2.012,18.36,18.36,0,0,0,5.237-.856,1.663,1.663,0,0,0,.174-.081A24.892,24.892,0,0,1,49.5,59.133.194.194,0,0,0,49.354,59c-.694-.2-3.022,1.4-4.415,2.513" transform="translate(-29.465 -38.794)"/>
    <path id="Path_7750" data-name="Path 7750" d="M31.379,91.665c-.115.4-.241.819-.363,1.242l-.05.173c-.1.339-.2.674-.288.988-.04.129-.074.254-.111.376a15.685,15.685,0,0,1-1.865,3.8.01.01,0,0,0,0,.007C19.6,100.476,10.869,97.1,10.869,97.1l-.1-.555a7.739,7.739,0,0,1-1.4-1.388,6.062,6.062,0,0,1-.833-5.876c1.107-2.59,5.518-4.333,5.744-4.739l6.7-6c.1-.017.2-.03.288-.044s.166-.024.24-.034.135-.017.2-.027a.094.094,0,0,0,.03,0c.064-.007.129-.017.183-.024h.007c.054-.007.1-.014.146-.02.142-.014.223-.024.223-.024a91.192,91.192,0,0,0-6.536,7.322c-1.212,1.875,2.265,3.273,5.027,2.383s5.037-4.475,5.92-6.658c.494-1.222,1.107-2.6,1.553-3.568.352-.772.6-1.293.6-1.293l.2-.007a.027.027,0,0,0,.014.014q.065.086.112.142a.518.518,0,0,0,.078.078,1.25,1.25,0,0,0,.339.115c-.118.335-.308.883-.535,1.561-.914,2.742-2.444,7.643-2.376,9.661.041,1.283,1.208,2.18,2.485,2.776a13.01,13.01,0,0,0,2.211.775" transform="translate(-5.356 -50.634)" fill="#fbe551"/>
    <path id="Path_7751" data-name="Path 7751" d="M21.853,98.844a35.2,35.2,0,0,1-11.37-1.919.17.17,0,0,1-.106-.128l-.086-.489a8,8,0,0,1-1.383-1.379,6.229,6.229,0,0,1-.855-6.047c.827-1.934,3.441-3.406,4.845-4.2a5.947,5.947,0,0,0,.909-.562.149.149,0,0,1,.033-.04l6.7-6a.168.168,0,0,1,.084-.041c.076-.013.152-.024.224-.035l.068-.01.15-.021.177-.025.107-.015a.2.2,0,0,1,.041-.005c.039,0,.078-.009.114-.014l.065-.009q.087-.01.145-.019c.15-.015.229-.024.231-.025a.169.169,0,0,1,.142.286,91.5,91.5,0,0,0-6.515,7.3,1.045,1.045,0,0,0,.013,1.3c.691.9,2.9,1.446,4.82.827,2.667-.859,4.939-4.394,5.815-6.561.577-1.427,1.281-2.975,1.557-3.575.352-.772.6-1.295.6-1.295a.169.169,0,0,1,.147-.1l.2-.007a.169.169,0,0,1,.132.056.174.174,0,0,1,.021.023q.064.084.109.138c.023.025.035.039.045.048a1.375,1.375,0,0,0,.281.088.169.169,0,0,1,.118.221c-.118.334-.308.882-.534,1.558-.912,2.738-2.433,7.627-2.367,9.6.032,1.019.835,1.9,2.387,2.628a12.617,12.617,0,0,0,2.181.765.17.17,0,0,1,.1.08.167.167,0,0,1,.015.131l-.142.486c-.072.248-.147.5-.22.755l-.339,1.162c-.024.076-.045.148-.065.218l-.047.159a15.745,15.745,0,0,1-1.881,3.842.17.17,0,0,1-.109.084,27.705,27.705,0,0,1-6.56.754m-11.159-2.2c.94.342,9.144,3.169,17.578,1.133a15.773,15.773,0,0,0,1.808-3.71l.046-.156c.021-.073.043-.147.066-.222l.337-1.158c.073-.254.147-.508.22-.756l.093-.32a12.713,12.713,0,0,1-2.071-.741c-1.676-.783-2.545-1.767-2.582-2.924-.065-1.926,1.261-6.349,2.385-9.72.192-.572.357-1.053.475-1.391a.83.83,0,0,1-.209-.088.5.5,0,0,1-.1-.093c-.034-.04-.062-.075-.091-.112h-.016c-.086.182-.29.62-.554,1.2-.275.6-.977,2.141-1.551,3.561C25.755,83.06,23.5,86.936,20.5,87.9c-1.908.615-4.335.175-5.193-.943a1.387,1.387,0,0,1-.028-1.693,80.458,80.458,0,0,1,6.223-7l-.086.01h0a.4.4,0,0,1-.048,0,.734.734,0,0,1-.091.015l-.171.024-.155.021-.064.009-.168.025-6.643,5.951a4.064,4.064,0,0,1-1.018.659c-1.369.771-3.918,2.206-4.7,4.035a5.878,5.878,0,0,0,.81,5.706,7.613,7.613,0,0,0,1.37,1.354.17.17,0,0,1,.068.108Z" transform="translate(-5.031 -50.304)"/>
    <path id="Path_7752" data-name="Path 7752" d="M40.366,131.884a5.464,5.464,0,0,1-9.925-1.558" transform="translate(-20.137 -86.21)" fill="#fbe551"/>
    <path id="Path_7753" data-name="Path 7753" d="M35.408,134.284a5.662,5.662,0,0,1-5.462-4.248.169.169,0,1,1,.328-.083,5.294,5.294,0,0,0,9.618,1.51.169.169,0,1,1,.287.18,5.628,5.628,0,0,1-4.584,2.638c-.062,0-.124,0-.186,0" transform="translate(-19.806 -85.879)"/>
    <path id="Path_7754" data-name="Path 7754" d="M17.371,135.878a2.893,2.893,0,0,1-1.817-.452.169.169,0,0,1,.218-.259c.009.008.892.7,3.212.172a.169.169,0,1,1,.075.33,7.587,7.587,0,0,1-1.687.21" transform="translate(-10.249 -89.386)"/>
    <path id="Path_7755" data-name="Path 7755" d="M30.8,43.689a.169.169,0,0,1-.1-.309,4.74,4.74,0,0,1,3.27-.659.169.169,0,1,1-.061.333,4.486,4.486,0,0,0-3.019.607.169.169,0,0,1-.095.029" transform="translate(-20.259 -28.214)"/>
    <path id="Path_7756" data-name="Path 7756" d="M19.938,29.635a14.781,14.781,0,0,0,.053,5.622c.335,1.512,1.143,2.037,1.3,3.3a6.512,6.512,0,0,0,2.177,3.973c1.185.884,2.873,3.022,4.358,2.511a16.841,16.841,0,0,0,4.734-3.508,7.084,7.084,0,0,0,1.338-4.9c-.416-2.065-1.035-3.315-5.727-5.468s-7.252-3.3-8.233-1.536" transform="translate(-13.026 -19.031)" fill="#fff"/>
    <path id="Path_7757" data-name="Path 7757" d="M27.034,44.972c-1.062,0-2.155-1-3.059-1.818-.335-.3-.651-.593-.934-.8A6.663,6.663,0,0,1,20.8,38.262a4,4,0,0,0-.58-1.526,6.206,6.206,0,0,1-.718-1.761,15.116,15.116,0,0,1-.053-5.694.164.164,0,0,1,.018-.046c1.068-1.924,3.847-.648,8.451,1.464,4.665,2.141,5.383,3.4,5.823,5.588a7.247,7.247,0,0,1-1.368,5.03,17.073,17.073,0,0,1-4.814,3.567,1.588,1.588,0,0,1-.522.087m-7.262-15.6A14.753,14.753,0,0,0,19.83,34.9a5.826,5.826,0,0,0,.684,1.671,4.325,4.325,0,0,1,.619,1.648,6.379,6.379,0,0,0,2.11,3.858c.3.221.618.514.959.825,1.038.945,2.215,2.015,3.242,1.662A16.908,16.908,0,0,0,32.1,41.116a6.875,6.875,0,0,0,1.307-4.761c-.38-1.887-.855-3.156-5.632-5.347s-7.115-3.177-8-1.631" transform="translate(-12.7 -18.713)"/>
    <path id="Path_7760" data-name="Path 7760" d="M33.5,66.4a2.065,2.065,0,0,1-.389-.032.169.169,0,0,1-.13-.2.172.172,0,0,1,.2-.131A1.859,1.859,0,0,0,35.214,65a.169.169,0,0,1,.3.147A2.151,2.151,0,0,1,33.5,66.4" transform="translate(-21.812 -42.935)"/>
    <path id="Path_7765" data-name="Path 7765" d="M62.7,175.238a5.384,5.384,0,0,1-.887-.142c-.149-.037-.234-.064-.234-.064s-2.654,1.686-3.043,2.017c-.358.308-.809.071-.812-.162-.491.2-.941.366-1.293.494l.169-.173.467-.477,1.3-1.327,2.119-2.17a5.6,5.6,0,0,0,1.1,1.178c.1.081.2.162.311.244s.261.183.406.271a3.384,3.384,0,0,1,.4.311" transform="translate(-37.327 -114.594)" fill="#fff"/>
    <path id="Path_7766" data-name="Path 7766" d="M56.1,177.219a.169.169,0,0,1-.121-.288l4.052-4.146a.169.169,0,0,1,.264.028,5.521,5.521,0,0,0,1.062,1.138c.1.079.195.158.3.237s.253.178.394.263a3.538,3.538,0,0,1,.427.329.169.169,0,0,1-.125.3,5.5,5.5,0,0,1-.916-.147c-.069-.017-.125-.033-.165-.044-.409.26-2.617,1.67-2.96,1.962a.726.726,0,0,1-.776.126.585.585,0,0,1-.244-.2c-.431.17-.823.318-1.138.433a.175.175,0,0,1-.058.01m1.293-.833a.167.167,0,0,1,.093.028.17.17,0,0,1,.076.138c0,.02.035.074.116.111a.384.384,0,0,0,.416-.074c.394-.336,2.954-1.963,3.063-2.032a.169.169,0,0,1,.142-.019s.083.026.224.062c.05.013.121.03.208.047-.094-.061-.184-.124-.271-.187-.114-.083-.218-.167-.319-.25a6.246,6.246,0,0,1-1.01-1.045l-3.377,3.457c.183-.07.376-.146.577-.226a.167.167,0,0,1,.063-.012" transform="translate(-36.996 -114.263)"/>
    <path id="Path_7767" data-name="Path 7767" d="M50.131,367.218c-.85.826-1.676,2.37-2.454,2.955a3.006,3.006,0,0,0-.325.288c-.718.711-1.554,1.97-2.3,2.271a9.58,9.58,0,0,1-3.344.193c-.4-.068-1.98.386-1.845-.257a.952.952,0,0,1,.372-.487c.521-.43,1.425-.846,1.635-1.5a3.47,3.47,0,0,1,.135-.335c.6-1.29,2.566-4.627,2.464-5.416-.095-.762-.7-2.413-1.164-4.187a11.308,11.308,0,0,0,2.546-.288,3.743,3.743,0,0,0,1.841-.924A13.476,13.476,0,0,0,48.1,361.3c.349.867,2.542,1.99,2.969,2.854a2.993,2.993,0,0,1-.934,3.063" transform="translate(-26.362 -237.831)" fill="#fff"/>
    <path id="Path_7768" data-name="Path 7768" d="M40.076,372.857a.833.833,0,0,1-.624-.183.4.4,0,0,1-.087-.372,1.084,1.084,0,0,1,.432-.584c.15-.124.327-.244.515-.371.437-.3.932-.632,1.066-1.045a3.572,3.572,0,0,1,.142-.353c.174-.376.454-.908.779-1.523.692-1.311,1.738-3.293,1.672-3.8a15.453,15.453,0,0,0-.529-1.984c-.2-.661-.43-1.41-.631-2.182a.169.169,0,0,1,.03-.146.19.19,0,0,1,.162-.066,11.019,11.019,0,0,0,2.477-.283,3.524,3.524,0,0,0,1.758-.875.169.169,0,0,1,.29.084,11.966,11.966,0,0,0,.4,1.735,5.054,5.054,0,0,0,1.455,1.4,5.493,5.493,0,0,1,1.508,1.443c.484.98-.112,2.427-.968,3.259a11.3,11.3,0,0,0-1.128,1.4,7.775,7.775,0,0,1-1.342,1.57,2.8,2.8,0,0,0-.307.272c-.228.226-.466.506-.719.8a5.375,5.375,0,0,1-1.64,1.507,9.73,9.73,0,0,1-3.436.2,2.952,2.952,0,0,0-.553.037,6.4,6.4,0,0,1-.718.058m3.116-12.274c.185.692.389,1.361.572,1.959a15.264,15.264,0,0,1,.542,2.04c.073.569-.7,2.083-1.708,4-.322.611-.6,1.138-.77,1.506a3.245,3.245,0,0,0-.128.316,2.766,2.766,0,0,1-1.2,1.222c-.18.123-.351.238-.49.353a.807.807,0,0,0-.315.392c-.011.054,0,.068.006.073.116.127.725.055,1.053.017a2.743,2.743,0,0,1,.649-.035,9.39,9.39,0,0,0,3.253-.183,5.225,5.225,0,0,0,1.509-1.412c.257-.3.5-.587.737-.823a3.175,3.175,0,0,1,.343-.3,7.61,7.61,0,0,0,1.271-1.5,11.6,11.6,0,0,1,1.166-1.442,2.817,2.817,0,0,0,.9-2.867,5.509,5.509,0,0,0-1.411-1.325,5.022,5.022,0,0,1-1.563-1.541,10.776,10.776,0,0,1-.358-1.5,4.332,4.332,0,0,1-1.692.757,11.238,11.238,0,0,1-2.367.291m6.609,6.3h0Z" transform="translate(-26.032 -237.5)"/>
    <path id="Path_7769" data-name="Path 7769" d="M60.446,177.434a1.278,1.278,0,0,1-.163.186,16.276,16.276,0,0,1-4,2.045c-.491.2-.941.366-1.293.494-.4.149-.674.247-.738.267l.907-.44.819-.4.623-.3,3.655-1.764Z" transform="translate(-35.885 -117.372)" fill="#ffe551"/>
    <path id="Path_7770" data-name="Path 7770" d="M53.917,180.265a.169.169,0,0,1-.074-.322l6.2-2.992a.169.169,0,0,1,.213.249,1.428,1.428,0,0,1-.184.211,16.347,16.347,0,0,1-4.059,2.079c-.492.2-.944.367-1.3.5-.4.15-.68.249-.745.27a.165.165,0,0,1-.051.008" transform="translate(-35.554 -117.041)"/>
    <path id="Path_7771" data-name="Path 7771" d="M42.673,190.222c.1,5.423-3.825,7.681-3.971,8.083a50.564,50.564,0,0,1-3.69,7.518c-1.154,1.669-5.291,6.012-7.217,8.188a6.583,6.583,0,0,0-1,1.263,7.241,7.241,0,0,1-.146,1.185,41.711,41.711,0,0,1,2.278,4.062c.339.677.7,1.432,1.073,2.258,1.811,4.008,1.544,7.924,1.77,9.911.162,1.425.68,4.925,1.087,7.115v0a3.743,3.743,0,0,1-1.841.924,11.309,11.309,0,0,1-2.546.288c-.071-.261-.135-.528-.2-.792a79.38,79.38,0,0,0-3.588-8.073v0c-2.038-4.238-4.187-8.557-4.238-8.815-.1-.477-2.19-3.436-2.8-4.932s.149-4.58.833-7.84c.007-.03.014-.058.02-.088a56.394,56.394,0,0,1,4.753-12.924c1.811-3.094,4.5-7.677,4.749-9.84a40.824,40.824,0,0,1,1.164-5.321l1.462-1.5c.352-.129.8-.3,1.293-.494,0,.234.454.471.812.162.389-.332,3.043-2.017,3.043-2.017s.085.027.234.064a5.377,5.377,0,0,0,.887.142c1.638,1.432,5.683,6.53,5.775,11.472" transform="translate(-11.528 -118.106)"/>
    <path id="Path_7772" data-name="Path 7772" d="M28.17,240.86a.191.191,0,0,1-.2-.125c-.071-.263-.136-.532-.2-.8A73.952,73.952,0,0,0,24.2,231.9a.213.213,0,0,1-.008-.02c-.763-1.587-1.542-3.185-2.219-4.576-1.443-2.962-1.991-4.1-2.024-4.262a13.491,13.491,0,0,0-.97-1.68,26.9,26.9,0,0,1-1.82-3.221c-.567-1.395-.01-4.013.635-7.045l.21-.983a56.634,56.634,0,0,1,4.772-12.973l.044-.076c1.769-3.021,4.442-7.588,4.683-9.7a41.211,41.211,0,0,1,1.17-5.349.17.17,0,0,1,.041-.071l1.462-1.5a.167.167,0,0,1,.063-.041c.351-.128.8-.3,1.288-.492a.168.168,0,0,1,.157.016.17.17,0,0,1,.075.138c0,.02.035.074.116.111a.386.386,0,0,0,.416-.074c.394-.336,2.954-1.963,3.063-2.032a.167.167,0,0,1,.142-.018s.084.026.223.061a5.143,5.143,0,0,0,.859.138.168.168,0,0,1,.1.041c1.789,1.563,5.741,6.654,5.833,11.6a9.733,9.733,0,0,1-3.619,7.8,3.085,3.085,0,0,0-.365.349,50.457,50.457,0,0,1-3.707,7.551c-.817,1.181-3.071,3.643-5.06,5.814-.821.9-1.6,1.744-2.17,2.391a8.689,8.689,0,0,0-.959,1.171,6.971,6.971,0,0,1-.136,1.13,43.932,43.932,0,0,1,2.25,4.021c.375.75.737,1.512,1.076,2.264a22.057,22.057,0,0,1,1.679,8.392c.029.609.055,1.135.1,1.569.168,1.475.69,4.973,1.085,7.1a.232.232,0,0,1,0,.034.171.171,0,0,1-.045.115,3.844,3.844,0,0,1-1.925.974,11.371,11.371,0,0,1-2.55.292m-3.66-9.091a71.782,71.782,0,0,1,3.592,8.092c.051.219.1.442.161.66a10.933,10.933,0,0,0,2.375-.282,3.659,3.659,0,0,0,1.7-.817c-.392-2.116-.908-5.575-1.075-7.042-.051-.444-.077-.975-.107-1.591a21.756,21.756,0,0,0-1.65-8.27c-.337-.748-.7-1.506-1.07-2.252a42.057,42.057,0,0,0-2.267-4.044.169.169,0,0,1-.025-.127,7.1,7.1,0,0,0,.143-1.145c0-.1,0-.2,1.045-1.381.574-.649,1.351-1.5,2.174-2.395,1.981-2.163,4.227-4.615,5.03-5.778a51.19,51.19,0,0,0,3.67-7.479c.04-.11.161-.22.456-.482a9.417,9.417,0,0,0,3.505-7.541c-.09-4.881-4.148-9.949-5.676-11.311a5.376,5.376,0,0,1-.859-.142c-.069-.017-.125-.033-.165-.044-.409.261-2.617,1.67-2.96,1.962a.726.726,0,0,1-.776.126.579.579,0,0,1-.243-.2c-.414.163-.793.306-1.1.419l-1.406,1.441a40.363,40.363,0,0,0-1.147,5.253c-.249,2.181-2.944,6.784-4.727,9.831l-.044.076a56.216,56.216,0,0,0-4.733,12.873l-.21.982c-.607,2.854-1.18,5.549-.652,6.847a26.7,26.7,0,0,0,1.794,3.169,10.435,10.435,0,0,1,1.014,1.792c.047.181.951,2.035,2,4.182.68,1.4,1.462,3,2.228,4.594a.22.22,0,0,1,.008.021m8.011,7.71h0Z" transform="translate(-11.193 -117.775)"/>
    <path id="Path_7773" data-name="Path 7773" d="M63.011,359.524l0,0v0Z" transform="translate(-41.679 -237.824)" fill="#ffe551"/>
    <path id="Path_7774" data-name="Path 7774" d="M62.677,359.366a.174.174,0,0,1-.065-.013.169.169,0,0,1-.1-.156.17.17,0,0,1,.327-.068.169.169,0,0,1-.035.184l0,0a.17.17,0,0,1-.12.049" transform="translate(-41.349 -237.493)"/>
    <path id="Path_7775" data-name="Path 7775" d="M73.945,104.9c-2.39,2.474-9.505,6.784-9.505,6.784s-1.662.819-2.353,1.195a4.614,4.614,0,0,1-2.542.487,5.385,5.385,0,0,1-.887-.142c-.149-.037-.233-.064-.233-.064s-2.654,1.686-3.043,2.017c-.359.308-.809.071-.812-.162a.261.261,0,0,1,.007-.051,1.376,1.376,0,0,1,.311-.322c.7-.64,2.376-1.919,2.481-2-.088.03-1.5.572-2.16.89a2.687,2.687,0,0,0-.278.146c-.389.25-1.083.914-1.32,1s-.728-.213-.267-.789a16.335,16.335,0,0,1,2.485-1.835l-1.655.372s-.545.416-.856.667a.967.967,0,0,1-1.114.118c-.325-.23.843-1.066,1.073-1.313a18.285,18.285,0,0,1,2.762-.971s-1.442-.112-1.76-.1a2.651,2.651,0,0,0-1.181.437c-.389.254-.931.829-1.344.366s.687-.9,1.472-1.327a4.693,4.693,0,0,1,2.613-.565c.338.017.931.1,1.581.2,1.34.217,2.911.528,2.911.528a14.548,14.548,0,0,0,3.439-2.112c1.71-1.412,6.455-7.4,6.455-7.4S64.7,93.4,64.453,93.011c-.074-.112-.366-.589-.742-1.219-.487-.8-1.114-1.841-1.611-2.678-.49-.809-.856-1.422-.856-1.422L59.7,79.769q.33-.036.64-.051h0c5.159-.288,6.123,2.854,7.494,4.8A26.148,26.148,0,0,1,69.8,87.95c.474.958.864,1.828,1.181,2.447.684,1.334,5.362,9.955,5.623,10.663s-.27,1.368-2.664,3.839" transform="translate(-34.175 -52.721)" fill="#fff"/>
    <path id="Path_7776" data-name="Path 7776" d="M54.673,115.161a.711.711,0,0,1-.288-.061.486.486,0,0,1-.316-.415.41.41,0,0,1,.009-.083c.021-.078.062-.155.367-.42.364-.331.985-.832,1.561-1.285-.383.156-.785.326-1.055.455a2.6,2.6,0,0,0-.259.135,7.68,7.68,0,0,0-.617.48,3.49,3.49,0,0,1-.738.536.536.536,0,0,1-.586-.2c-.079-.109-.224-.411.129-.853a10.052,10.052,0,0,1,1.732-1.356l-.7.157c-.117.09-.557.427-.824.642a1.139,1.139,0,0,1-1.316.126.3.3,0,0,1-.129-.232c-.013-.288.362-.632.894-1.086.123-.105.228-.193.28-.25a8.433,8.433,0,0,1,1.943-.752c-.356-.022-.684-.037-.81-.033a2.517,2.517,0,0,0-1.1.41c-.067.044-.138.1-.214.154-.361.27-.905.678-1.348.182a.46.46,0,0,1-.125-.4c.072-.379.645-.673,1.252-.983.133-.068.266-.136.391-.2a4.874,4.874,0,0,1,2.7-.586c.307.016.83.082,1.6.2,1.195.193,2.586.464,2.867.519a14.633,14.633,0,0,0,3.349-2.066,83.082,83.082,0,0,0,6.35-7.271c-.693-.948-5.464-7.48-5.7-7.849-.079-.118-.386-.622-.744-1.223-.487-.8-1.114-1.841-1.612-2.678-.49-.809-.856-1.422-.856-1.422a.173.173,0,0,1-.021-.054L59.2,79.471a.169.169,0,0,1,.148-.2q.335-.037.65-.052c4.471-.247,5.893,2.064,7.033,3.922.208.339.4.659.611.953a26.652,26.652,0,0,1,1.98,3.452c.225.456.432.892.62,1.29.207.438.393.831.56,1.155.23.448.924,1.745,1.729,3.247,1.659,3.1,3.725,6.955,3.9,7.435.3.8-.245,1.479-2.7,4.015-2.377,2.462-9.248,6.634-9.539,6.811-.029.015-1.68.829-2.359,1.2a4.809,4.809,0,0,1-2.636.507,5.528,5.528,0,0,1-.916-.147c-.069-.017-.125-.033-.165-.044-.409.26-2.617,1.67-2.96,1.962a.738.738,0,0,1-.487.187m-.261-.479a.179.179,0,0,0,.112.109.385.385,0,0,0,.416-.074c.394-.336,2.954-1.963,3.063-2.032a.168.168,0,0,1,.142-.019s.084.026.224.062a5.14,5.14,0,0,0,.859.137,4.477,4.477,0,0,0,2.448-.467c.685-.373,2.342-1.19,2.358-1.2.058-.036,7.111-4.319,9.458-6.749,2.3-2.373,2.857-3.043,2.627-3.662-.169-.458-2.315-4.466-3.883-7.392-.805-1.5-1.5-2.8-1.732-3.253-.168-.327-.355-.723-.564-1.164-.188-.4-.394-.831-.618-1.285a26.288,26.288,0,0,0-1.954-3.407c-.213-.3-.412-.627-.623-.97-1.151-1.874-2.454-4-6.724-3.761-.149.007-.3.018-.451.032l1.5,7.713c.073.123.409.683.841,1.395.5.837,1.124,1.879,1.611,2.678.4.667.672,1.114.738,1.213.246.383,5.712,7.863,5.767,7.939a.169.169,0,0,1,0,.2c-.194.245-4.776,6.015-6.48,7.422a14.556,14.556,0,0,1-3.484,2.139.166.166,0,0,1-.1.009c-.016,0-1.584-.313-2.905-.527-.746-.117-1.272-.183-1.562-.2a4.559,4.559,0,0,0-2.524.545c-.127.069-.263.138-.4.208-.436.223-1.033.528-1.074.745,0,.015-.009.051.046.114.2.225.437.112.892-.228.082-.061.16-.119.233-.167a2.788,2.788,0,0,1,1.268-.464c.322-.014,1.719.094,1.778.1a.169.169,0,0,1,.034.331,16.524,16.524,0,0,0-2.686.926c-.06.065-.169.157-.307.275-.2.173-.729.623-.773.795a.82.82,0,0,0,.892-.124c.313-.252.86-.67.86-.67a.172.172,0,0,1,.066-.03l1.655-.372a.169.169,0,0,1,.127.308,15,15,0,0,0-2.443,1.8c-.146.183-.19.345-.119.443a.2.2,0,0,0,.2.081,4.281,4.281,0,0,0,.638-.478,7.98,7.98,0,0,1,.649-.5,2.91,2.91,0,0,1,.3-.156c.67-.321,2.075-.861,2.177-.9a.169.169,0,0,1,.159.293l-.044.034c-1.146.882-2.008,1.577-2.427,1.958a2.391,2.391,0,0,0-.258.246" transform="translate(-33.844 -52.391)"/>
    <path id="Path_7777" data-name="Path 7777" d="M19.266,10.2s1.035,3.315,3.708,3.8,5.869-.658,6.6.587,2.089,3.742,3.493,4.272c0,0-1.169,3.042-.4,5.326s3.819,3.684,4.189,4.364-1.219,1.543-1.541,5.711,1.155,6.892,2.932,8.218,4.846-.162,4.846-.162a1.929,1.929,0,0,1-.793-2.976c1.319-2.008,7.088-2.2,7.287-6.6s-1.812-5.83-1.6-6.415,3.415-1.5,2.587-5.515-6.754-5.087-7.385-6.683c-1.68-4.249-3.233-9.671-7.525-12.02C32.8.548,26.156-.645,23.618,2.2a7.493,7.493,0,0,0-1.876,2.6" transform="translate(-12.744 -0.317)"/>
    <path id="Path_7778" data-name="Path 7778" d="M39.809,42.892a3.269,3.269,0,0,1-1.991-.587c-1.036-.774-3.4-3.138-3-8.367a11.185,11.185,0,0,1,1.3-4.727c.252-.49.359-.714.264-.89a4.591,4.591,0,0,0-1.005-.852c-1.06-.778-2.661-1.953-3.2-3.539a9.163,9.163,0,0,1,.346-5.288c-1.286-.609-2.5-2.685-3.229-3.945l-.2-.334c-.375-.635-1.609-.551-3.038-.455a14.2,14.2,0,0,1-3.45-.051c-2.742-.5-3.8-3.78-3.839-3.919a.169.169,0,0,1,.323-.1c.01.032,1.038,3.223,3.577,3.687a13.957,13.957,0,0,0,3.366.047c1.541-.1,2.872-.194,3.352.621l.2.336c.74,1.271,1.979,3.4,3.21,3.864a.17.17,0,0,1,.1.219c-.012.03-1.137,3.013-.4,5.212.5,1.484,1.988,2.577,3.075,3.374a4.286,4.286,0,0,1,1.1.963c.185.341.008.685-.26,1.207a10.882,10.882,0,0,0-1.261,4.6c-.391,5.061,1.873,7.329,2.864,8.069,1.357,1.014,3.568.274,4.369-.049a2.286,2.286,0,0,1-.953-1.214,2.189,2.189,0,0,1,.394-1.833,6.664,6.664,0,0,1,2.79-1.819c2.037-.936,4.347-2,4.469-4.692a9.275,9.275,0,0,0-1.267-5.472c-.26-.46-.416-.739-.324-.993.067-.185.283-.342.61-.58a4.272,4.272,0,0,0,1.971-4.844c-.5-2.442-2.957-3.763-4.929-4.824-1.224-.659-2.19-1.179-2.448-1.831-.215-.544-.428-1.107-.645-1.68-1.46-3.86-3.116-8.235-6.8-10.254C32.562.477,25.942-.84,23.413,2a7.417,7.417,0,0,0-1.839,2.535.169.169,0,1,1-.327-.086,7.541,7.541,0,0,1,1.926-2.686C25.805-1.2,32.644.136,35.416,1.653c3.8,2.078,5.477,6.515,6.958,10.431.216.571.429,1.133.643,1.675s1.177,1.056,2.294,1.657c2.034,1.094,4.564,2.456,5.1,5.054a4.569,4.569,0,0,1-2.1,5.186,1.924,1.924,0,0,0-.49.421c-.039.108.118.388.3.712a9.587,9.587,0,0,1,1.31,5.653c-.132,2.9-2.646,4.057-4.666,4.985a6.5,6.5,0,0,0-2.648,1.7,1.87,1.87,0,0,0-.351,1.554,2.146,2.146,0,0,0,1.073,1.176.169.169,0,0,1,0,.306,7.855,7.855,0,0,1-3.03.733" transform="translate(-12.413 0)"/>
    <path id="Path_7779" data-name="Path 7779" d="M6.915,178.76a7.615,7.615,0,0,1-.325-.887l-.02-.061c-.088-.294-.166-.589-.234-.877-.024-.1-.047-.206-.071-.308-.007-.03-.014-.064-.02-.095a.1.1,0,0,0-.007-.03c-.054-.271-.1-.538-.142-.8-.058-.362-.1-.718-.129-1.066a10.226,10.226,0,0,1,.521,1.269c.213.65.095.88-.223.647v.017c.081.206.166.443.24.7.02.064.034.122.047.176.088.227.186.494.271.785a1.656,1.656,0,0,1,.091.535" transform="translate(-3.947 -115.52)" fill="#fff"/>
    <path id="Path_7780" data-name="Path 7780" d="M6.585,178.6a.169.169,0,0,1-.155-.1,7.738,7.738,0,0,1-.332-.907l-.018-.055c-.087-.291-.167-.589-.238-.892l-.092-.4a.166.166,0,0,1,0-.037c-.055-.255-.108-.531-.147-.809-.061-.383-.1-.736-.13-1.077a.169.169,0,0,1,.321-.088,10.423,10.423,0,0,1,.53,1.291c.161.492.156.78-.018.906a.274.274,0,0,1-.1.045c.05.14.095.279.135.415.018.058.032.113.045.165.072.188.18.477.274.8a1.8,1.8,0,0,1,.1.592.169.169,0,0,1-.139.157l-.03,0M6.067,176.1l.029.017a1.4,1.4,0,0,0-.1-.5c-.013-.04-.027-.08-.04-.118.033.2.071.407.11.6" transform="translate(-3.617 -115.189)"/>
    <path id="Path_7781" data-name="Path 7781" d="M13.61,166.732c-.038.416-.193.745-.342.731s-.244-.362-.207-.779.19-.745.342-.731.244.362.207.779" transform="translate(-8.634 -109.777)" fill="#fff"/>
    <path id="Path_7782" data-name="Path 7782" d="M12.946,167.3h-.024c-.086-.008-.244-.065-.323-.364a1.8,1.8,0,0,1-.037-.6c.041-.46.216-.914.525-.885.087.008.244.065.323.364a1.806,1.806,0,0,1,.037.6,1.3,1.3,0,0,1-.306.81.3.3,0,0,1-.2.076m.034-.328h0Zm.075-1.153a1.533,1.533,0,0,0-.1,1.113,1.231,1.231,0,0,0,.156-.547h0a1.227,1.227,0,0,0-.056-.566" transform="translate(-8.304 -109.446)"/>
    <path id="Path_7783" data-name="Path 7783" d="M4.693,180.693a5.119,5.119,0,0,0-.978,1.107c-.114.339.924,1.408,1.478,1.9s.769.3.421-.463a10.046,10.046,0,0,0-.754-1.351Z" transform="translate(-2.452 -119.528)" fill="#fff"/>
    <path id="Path_7784" data-name="Path 7784" d="M5.334,183.8a1.074,1.074,0,0,1-.579-.311c-.175-.155-1.71-1.532-1.526-2.078a4.742,4.742,0,0,1,1.026-1.179.169.169,0,0,1,.28.1l.16,1.151a10.264,10.264,0,0,1,.746,1.342c.222.484.242.784.063.917a.28.28,0,0,1-.171.055m-1.089-3.1a3.482,3.482,0,0,0-.695.817c-.038.194.67,1.045,1.429,1.716a1.144,1.144,0,0,0,.308.214,1.412,1.412,0,0,0-.153-.48,10,10,0,0,0-.74-1.325.169.169,0,0,1-.028-.073Z" transform="translate(-2.126 -119.197)"/>
    <path id="Path_7785" data-name="Path 7785" d="M5.264,180.613a.158.158,0,0,1-.007.058v0c-.037.23-.25.173-.565-.2a10.571,10.571,0,0,1-.883-1.2c-.237-.383-.393-.731-.318-.88.007-.01.014-.024.023-.037a2.639,2.639,0,0,1,.555-.531c.078-.058.153-.115.224-.166.054-.041.108-.078.152-.108.1-.074.169-.118.169-.118v1.2s.027.054.071.152c.054.115.129.288.217.5s.186.494.271.785a1.656,1.656,0,0,1,.091.535" transform="translate(-2.297 -117.372)" fill="#fff"/>
    <path id="Path_7786" data-name="Path 7786" d="M4.8,180.648c-.16,0-.349-.129-.573-.392a10.671,10.671,0,0,1-.9-1.223c-.416-.671-.392-.91-.326-1.044a.636.636,0,0,1,.04-.064,2.625,2.625,0,0,1,.586-.563l.092-.068c.047-.035.093-.07.137-.1s.1-.075.149-.106c.108-.079.179-.125.179-.125a.169.169,0,0,1,.262.142v1.163c.013.027.032.068.057.122.053.114.129.29.219.51.075.192.183.482.277.8a1.814,1.814,0,0,1,.1.587.3.3,0,0,1-.019.116h0a.291.291,0,0,1-.2.236.279.279,0,0,1-.077.01m-.692-3.22-.051.037c-.046.033-.089.065-.134.1l-.09.068a2.251,2.251,0,0,0-.511.484c-.016.024-.058.172.294.74a10.353,10.353,0,0,0,.868,1.181,1.155,1.155,0,0,0,.274.254l.006-.015s-.005,0-.005,0a1.449,1.449,0,0,0-.085-.476c-.09-.309-.195-.589-.266-.773-.086-.211-.159-.38-.212-.494-.042-.095-.068-.147-.069-.148a.17.17,0,0,1-.018-.076Z" transform="translate(-1.964 -117.041)"/>
    <path id="Path_7787" data-name="Path 7787" d="M4.317,177.847c-.02.1-.078.139-.162.115a.938.938,0,0,1-.4-.325c-.108-.129-.237-.288-.369-.464-.169-.217-.342-.464-.491-.694-.25-.4-.419-.768-.342-.924a1.494,1.494,0,0,1,.328-.362,8.926,8.926,0,0,1,.792-.6v1.2s.135.271.294.68a.181.181,0,0,1,.017.037c0,.01.007.017.01.027.081.207.166.443.24.7.02.064.034.122.047.176a1.051,1.051,0,0,1,.037.433" transform="translate(-1.675 -115.493)" fill="#fff"/>
    <path id="Path_7788" data-name="Path 7788" d="M3.867,177.807a.334.334,0,0,1-.09-.013,1.072,1.072,0,0,1-.487-.379c-.11-.131-.241-.292-.375-.472-.2-.26-.383-.526-.5-.7-.441-.709-.419-.956-.351-1.092a1.58,1.58,0,0,1,.369-.414,9.034,9.034,0,0,1,.809-.612.169.169,0,0,1,.263.141v1.162c.042.088.155.328.283.658a.193.193,0,0,1,.024.058q.147.371.248.717c.018.058.032.113.045.165a1.239,1.239,0,0,1,.043.528.315.315,0,0,1-.14.216.273.273,0,0,1-.143.04m-.7-3.219c-.153.111-.348.258-.511.4a1.4,1.4,0,0,0-.29.312s-.043.149.335.757c.155.24.326.482.48.679.132.176.259.332.365.459a1.061,1.061,0,0,0,.275.253,1.072,1.072,0,0,0-.041-.328c-.016-.063-.027-.111-.044-.165-.066-.224-.145-.454-.237-.686l-.013-.035c-.168-.427-.3-.694-.3-.7a.168.168,0,0,1-.018-.076Z" transform="translate(-1.342 -115.163)"/>
    <path id="Path_7789" data-name="Path 7789" d="M3.876,173.9l-.01-.01s-.007,0-.01-.007a1.781,1.781,0,0,1-.227-.213c-.088-.1-.19-.217-.3-.345-.186-.23-.393-.5-.569-.755-.271-.406-.467-.789-.389-.951a5.049,5.049,0,0,1,1.093-.992l.034,1.2s.03.058.078.156a10.228,10.228,0,0,1,.521,1.269c.213.65.095.88-.223.647" transform="translate(-1.559 -112.867)" fill="#fff"/>
    <path id="Path_7790" data-name="Path 7790" d="M3.749,173.826a.524.524,0,0,1-.3-.122l-.018-.016a.165.165,0,0,1-.024-.021,1.657,1.657,0,0,1-.228-.215c-.091-.1-.194-.221-.3-.351-.23-.284-.424-.542-.579-.768-.484-.726-.47-.98-.4-1.12a4.692,4.692,0,0,1,1.148-1.057.169.169,0,0,1,.267.133l.032,1.163c.014.027.036.07.063.126a10.377,10.377,0,0,1,.529,1.29c.161.492.156.78-.018.906a.27.27,0,0,1-.162.052m-.094-.388a.548.548,0,0,0,.052.033,1.4,1.4,0,0,0-.1-.5,10.041,10.041,0,0,0-.512-1.247c-.046-.094-.075-.15-.076-.151A.17.17,0,0,1,3,171.5l-.025-.878a3.406,3.406,0,0,0-.779.734c0,.006-.042.159.376.787.149.217.337.468.56.742.1.124.205.242.292.338a1.6,1.6,0,0,0,.2.19A.155.155,0,0,1,3.654,173.437Z" transform="translate(-1.227 -112.537)"/>
    <path id="Path_7791" data-name="Path 7791" d="M2.379,166.453s-.589-.253-.842-.084a7.341,7.341,0,0,0-.968,1.6c-.168.336-.042.589.5.336a1.809,1.809,0,0,0,.8-.8l.379.084Z" transform="translate(-0.331 -110.014)" fill="#fff"/>
    <path id="Path_7792" data-name="Path 7792" d="M.374,168.247A.37.37,0,0,1,.1,168.14a.492.492,0,0,1-.009-.577A5.588,5.588,0,0,1,1.112,165.9c.313-.208.89.022,1,.069a.169.169,0,0,1,.1.174l-.126,1.136a.169.169,0,0,1-.2.147l-.255-.057a1.939,1.939,0,0,1-.816.76,1.093,1.093,0,0,1-.44.118m1.065-2.1a.261.261,0,0,0-.139.029,5.477,5.477,0,0,0-.91,1.534.3.3,0,0,0-.048.194.6.6,0,0,0,.331-.086,1.652,1.652,0,0,0,.717-.717.17.17,0,0,1,.19-.094l.195.043.091-.818a1.469,1.469,0,0,0-.426-.085" transform="translate(0 -109.685)"/>
    <path id="Path_7793" data-name="Path 7793" d="M13.61,166.732c-.038.416-.193.745-.342.731s-.244-.362-.207-.779.19-.745.342-.731.244.362.207.779" transform="translate(-8.634 -109.777)" fill="#fff"/>
    <path id="Path_7794" data-name="Path 7794" d="M12.946,167.3h-.024c-.086-.008-.244-.065-.323-.364a1.8,1.8,0,0,1-.037-.6c.041-.46.216-.914.525-.885.087.008.244.065.323.364a1.806,1.806,0,0,1,.037.6,1.3,1.3,0,0,1-.306.81.3.3,0,0,1-.2.076m.034-.328h0Zm.075-1.153a1.533,1.533,0,0,0-.1,1.113,1.231,1.231,0,0,0,.156-.547h0a1.227,1.227,0,0,0-.056-.566" transform="translate(-8.304 -109.446)"/>
  </g>
</svg>
