<svg xmlns="http://www.w3.org/2000/svg" width="94.172" height="80.041" viewBox="0 0 94.172 80.041">
  <g id="Group_2916" data-name="Group 2916" transform="translate(-355.828 -1904)">
    <g id="Group_54" data-name="Group 54" transform="translate(189 334)">
      <circle id="Ellipse_2" data-name="Ellipse 2" cx="37" cy="37" r="37" transform="translate(187 1570)" fill="#fbe551"/>
    </g>
    <g id="_20539695321621228231" data-name="20539695321621228231" transform="translate(357 1929.934)">
      <path id="Path_12771" data-name="Path 12771" d="M107.289,125.769c4.537-3.448,7.9-6.316,10.744-10.672l2.289,3.415-5.843,5.373a1.952,1.952,0,1,0,2.642,2.874l7.076-6.506a1.952,1.952,0,0,0,.3-2.524l-4.936-7.364a1.95,1.95,0,0,0-.292-.341,2.6,2.6,0,0,0-.717-.534c-.271-.137-.551-.275-.835-.414a6.04,6.04,0,0,1-3.024.808h0a6.049,6.049,0,0,1-5.948-4.963l-.018,0-7.695-.55-2.608-6.211a2.51,2.51,0,0,1-3,2.546l-.18-.036,2.652,6.317a1.952,1.952,0,0,0,1.661,1.191l6.4.458a11.332,11.332,0,0,1-4.12,7.5l-4.718-4.093a3.05,3.05,0,0,0-4.073.068l-6.72,6.233,4.988-.919a3.6,3.6,0,0,1,1.386.015l7.522,1.554-.032.566-7.6-1.571a3.043,3.043,0,0,0-1.17-.013l-11.227,2.069L78.913,124.9a3.605,3.605,0,0,1-1.1,1.782l14.123-2.6,7.9,1.632,4.507.931a3.04,3.04,0,0,0,2.535-.616A2.753,2.753,0,0,0,107.289,125.769Z" transform="translate(-58.829 -74.209)" fill="none" stroke="#000" stroke-width="2"/>
      <circle id="Ellipse_122" data-name="Ellipse 122" cx="5.49" cy="5.49" r="5.49" transform="matrix(0.995, -0.1, 0.1, 0.995, 49.858, 24.709)" fill="none" stroke="#000" stroke-width="2"/>
      <path id="Path_12772" data-name="Path 12772" d="M102.039,211.3a3.039,3.039,0,0,0,2.073-.814l.551-.511-4.335.8A3.046,3.046,0,0,0,102.039,211.3Z" transform="translate(-75.849 -158.745)" fill="none" stroke="#000" stroke-width="2"/>
      <path id="Path_12773" data-name="Path 12773" d="M80.648,10.7a2.441,2.441,0,0,1,.323.254l.006.006a5.49,5.49,0,1,0-5.728-3.786l0,0Z" transform="translate(-56.689)" fill="none" stroke="#000" stroke-width="2"/>
      <path id="Path_12774" data-name="Path 12774" d="M10.23,27.3,4.437,36.157a3.042,3.042,0,0,0-.744,2.6l2.521,13.8L.312,64.582a3.05,3.05,0,1,0,5.476,2.686l6.344-12.931a3.051,3.051,0,0,0,.262-1.891l-1.249-6.836,5.767,7.235L13.642,65.271a3.05,3.05,0,1,0,5.9,1.553L23.2,52.916a3.051,3.051,0,0,0-.565-2.677l-6.394-8.021,6.346-9.7a41.545,41.545,0,0,1,2.182,6.223,1.953,1.953,0,0,0,1.5,1.41L36.706,42.22a1.952,1.952,0,0,0,.762-3.829l-9.254-1.84c-.815-2.8-2.37-7.3-4.3-8.9a1.886,1.886,0,0,0-.259-.206l-5.363-3.507-2.527-1.652c-.053-.035-.107-.066-.161-.094-3.871-2.4-8.326,2.467-8.833,3.044a1.951,1.951,0,0,0-.453,1.642l.775,4.2,2.672-4.085Z" transform="translate(0 -16.275)" fill="none" stroke="#000" stroke-width="2"/>
    </g>
  </g>
</svg>
