<svg xmlns="http://www.w3.org/2000/svg" width="94" height="94.866" viewBox="0 0 94 94.866">
  <g id="Group_2917" data-name="Group 2917" transform="translate(-356 -2039)">
    <g id="Group_54" data-name="Group 54" transform="translate(189 469)">
      <circle id="Ellipse_2" data-name="Ellipse 2" cx="37" cy="37" r="37" transform="translate(187 1570)" fill="#fbe551"/>
    </g>
    <g id="_9268978121595601828" data-name="9268978121595601828" transform="translate(354 2065)">
      <path id="Path_12775" data-name="Path 12775" d="M3,9.077V47.154a5.092,5.092,0,0,0,5.077,5.077H63.924A5.092,5.092,0,0,0,69,47.154V9.077A5.092,5.092,0,0,0,63.924,4H8.077A5.092,5.092,0,0,0,3,9.077Z" transform="translate(0)" fill="none" stroke="#000" stroke-linecap="round" stroke-linejoin="round" stroke-width="2"/>
      <line id="Line_495" data-name="Line 495" x2="35.445" transform="translate(18.191 67.801)" fill="none" stroke="#000" stroke-linecap="round" stroke-linejoin="round" stroke-width="2"/>
      <path id="Path_12776" data-name="Path 12776" d="M15.769,23c0,5.331-1.777,11.677-4.569,15.231" transform="translate(12.616 29.231)" fill="none" stroke="#000" stroke-linecap="round" stroke-linejoin="round" stroke-width="2"/>
      <path id="Path_12777" data-name="Path 12777" d="M23.569,38.231C20.777,34.677,19,28.331,19,23" transform="translate(24.616 29.231)" fill="none" stroke="#000" stroke-linecap="round" stroke-linejoin="round" stroke-width="2"/>
      <path id="Path_12778" data-name="Path 12778" d="M17.154,10A10.154,10.154,0,1,0,27.308,20.154" transform="translate(6.154 9.231)" fill="none" stroke="#000" stroke-linecap="round" stroke-linejoin="round" stroke-width="2"/>
      <path id="Path_12779" data-name="Path 12779" d="M12,9V19.154H22.154A10.184,10.184,0,0,0,12,9Z" transform="translate(13.846 7.692)" fill="none" stroke="#000" stroke-linecap="round" stroke-linejoin="round" stroke-width="2"/>
      <line id="Line_496" data-name="Line 496" x2="12.152" transform="translate(46.546 24.254)" fill="none" stroke="#000" stroke-linecap="round" stroke-linejoin="round" stroke-width="2"/>
      <line id="Line_497" data-name="Line 497" x2="5.064" transform="translate(53.635 32.356)" fill="none" stroke="#000" stroke-linecap="round" stroke-linejoin="round" stroke-width="2"/>
    </g>
  </g>
</svg>
