<svg xmlns="http://www.w3.org/2000/svg" width="973.367" height="560.734" viewBox="0 0 973.367 560.734">
  <g id="_89-lines" data-name="89-lines" transform="translate(84.791 -0.03) rotate(20)">
    <path id="Path_8266" data-name="Path 8266" d="M957.134,241.8c-58.39-28.355-121.562-44.512-185.852-46.652a434.971,434.971,0,0,0-94.91,7.383c-36.316,6.848-71.92,18.19-108.744,21.614-33.366,3.21-64.8-2.354-95.927-14.873-29.2-11.663-57.068-27.071-86.975-36.915-65.918-21.614-130.819.107-196.33,11.663-37.231,6.527-76.7,9.416-112.813-4.494-31.026-11.984-58.39-35.738-68.665-69.658C5.6,105.373-1.22,107.3.1,111.793c16.581,54.891,71.106,81.856,122.579,84.638,72.123,3.852,140.584-30.5,212.707-26.322,65.613,3.745,118.917,50.29,183,60.349,68.97,10.807,136.617-21.507,204.875-26.964,78.939-6.206,158.59,9.737,230.408,44.512C957.642,250.146,961.2,243.725,957.134,241.8Z" transform="translate(0 -0.708)" fill="#fbe551"/>
    <path id="Path_8267" data-name="Path 8267" d="M943.85,203.687c-58.044-32.746-123.1-52-189.584-54.577-33.546-1.339-66.888,2.163-99.722,8.856-37.1,7.62-74.105,18.227-112.225,18.433-66.99.309-117.613-44.28-177.792-66.831-29.988-11.224-60.484-13.387-92-8.135-36.6,6.076-71.666,19.771-108.566,24.2-39.34,4.737-78.07-2.574-106.329-32.334C33.544,68.068,19.82,34.5,7.114,2.369,5.487-1.853-1.324,0,.4,4.223c20.534,51.8,46.659,110.6,105.11,125.836,72.174,18.845,140.18-29.76,212.049-24.3,64.55,4.84,114.767,53.547,175.556,71.053,71.869,20.6,143.23-13.9,214.59-19.668,80.713-6.59,162.137,12.872,232.685,52.724C944.257,212.028,947.814,205.952,943.85,203.687Z" transform="translate(0.013 0)" fill="#fbe551"/>
  </g>
</svg>
