<svg xmlns="http://www.w3.org/2000/svg" width="773.809" height="1156.477" viewBox="0 0 773.809 1156.477">
  <g id="_93-lines" data-name="93-lines" transform="matrix(-0.259, -0.966, 0.966, -0.259, 273.996, 1156.491)">
    <path id="Path_8258" data-name="Path 8258" d="M643.533,0C624.962,46.152,582,81.425,530.35,83.4,475.517,85.491,427.058,49.119,407.059,0H386.4c20.768,60,78.9,104.831,143.95,102.633C591.886,100.655,644.631,56.7,663.971,0Z" transform="translate(38.197)" fill="#fbe551"/>
    <path id="Path_8259" data-name="Path 8259" d="M740.414,0C714.371,94.5,657.341,195.816,546.8,188.454,448.668,181.861,344.826,96.59,321.97,0H302.3c21.647,106.919,136.808,201.091,244.5,207.684C668.329,215.046,732.5,103.842,760.194,0Z" transform="translate(29.883)" fill="#fbe551"/>
    <path id="Path_8260" data-name="Path 8260" d="M832.34,0C806.407,155.159,703.114,309.328,526.857,292.3,368.842,277.022,267.2,143.291,227.2,0h-20c42.086,156.807,156.148,301.746,329.327,312.3,81.865,4.945,159-27.911,215.046-87.249C810.033,163.18,839.043,82.744,851.789,0Z" transform="translate(20.482)" fill="#fbe551"/>
    <path id="Path_8261" data-name="Path 8261" d="M936.449,0c-22.2,203.289-163.29,395.479-381.853,407.676C317.682,420.972,174.5,203.289,118.9,0h-20c45.383,171.861,141.643,343.393,317.46,406.687,168.345,60.657,355.48-19.23,453.828-162.411C919.966,171.861,947.547,86.92,956.008,0Z" transform="translate(9.776)" fill="#fbe551"/>
    <path id="Path_8262" data-name="Path 8262" d="M1039.188,0c-26.372,199.772-119.446,412.841-325.262,479.431C512.505,544.593,287.35,439.543,155.817,286.472A612.448,612.448,0,0,1,18.679,3.3,8.013,8.013,0,0,0,17.361,0H2.416a9.44,9.44,0,0,0-2.2,8.351c37.691,196.7,173.839,369.985,355.48,454.487C457.343,510.2,575.47,531.957,686.015,507.013c102.523-23.076,190.1-89.227,251.858-172.85C1009.738,236.8,1043.913,118.786,1058.637,0Z" transform="translate(0)" fill="#fbe551"/>
  </g>
</svg>
