<svg xmlns="http://www.w3.org/2000/svg" width="952.708" height="578.88" viewBox="0 0 952.708 578.88">
  <path id="_71-shape" data-name="71-shape" d="M914.1,207.1C868.4,119.9,786.6,42.3,685,33.1c-54.4-4.9-108.4,9.5-161.9,17.3-53.3,7.8-101,1.1-151.8-15.7C324.2,19.2,276.2-.5,225.8,0,179.9.4,136,19.5,106.4,54.9c-1.6,1.9-3.1,3.9-4.6,5.8C40.3,93.4,2.3,164.5.1,236.6-2.7,328.8,46.6,414.4,120,467.9c35.4,25.8,77.1,43.4,120.4,50,50.7,7.7,100.9-1.7,150.6-11.7,51.5-10.4,105.1-21.7,156.6-5,46.2,15,85.7,45.5,130.6,63.8,89.4,36.5,183.9-2.1,236.7-79.9C971.6,401.7,958.8,292.6,914.1,207.1Z" transform="translate(0.013 0.009)" fill="#fff5cc"/>
</svg>
