<svg id="Group_1192" data-name="Group 1192" xmlns="http://www.w3.org/2000/svg" xmlns:xlink="http://www.w3.org/1999/xlink" width="64.001" height="135.863" viewBox="0 0 64.001 135.863">
  <defs>
    <clipPath id="clip-path">
      <rect id="Rectangle_850" data-name="Rectangle 850" width="64.001" height="135.864" fill="none"/>
    </clipPath>
  </defs>
  <g id="Group_1191" data-name="Group 1191" clip-path="url(#clip-path)">
    <path id="Path_7891" data-name="Path 7891" d="M37.232,188.134s.414,19.518.207,21.174a35.766,35.766,0,0,0-.414,7.244c.207,2.9.753,11.645.753,11.645a29.236,29.236,0,0,0-1.366,2.98c-.869,2.111-4.843,3.477-4.1,5.712s2.98,2.236,5.34,1.242a6.9,6.9,0,0,0,3.849-3.6c.869-1.49,2.236-1.739,2.608-3.353s-.448-2.527-.345-4.6,1.019-7.442,1.433-10.96-.1-6.105.1-8.071,1.242-17.035,1.242-17.346-9.313-2.07-9.313-2.07" transform="translate(-17.69 -103.289)" fill="#fff"/>
    <path id="Path_7892" data-name="Path 7892" d="M37.232,188.134s.414,19.518.207,21.174a35.766,35.766,0,0,0-.414,7.244c.207,2.9.753,11.645.753,11.645a29.236,29.236,0,0,0-1.366,2.98c-.869,2.111-4.843,3.477-4.1,5.712s2.98,2.236,5.34,1.242a6.9,6.9,0,0,0,3.849-3.6c.869-1.49,2.236-1.739,2.608-3.353s-.448-2.527-.345-4.6,1.019-7.442,1.433-10.96-.1-6.105.1-8.071,1.242-17.035,1.242-17.346S37.232,188.134,37.232,188.134Z" transform="translate(-17.69 -103.289)" fill="none" stroke="#000" stroke-linecap="round" stroke-linejoin="round" stroke-width="1"/>
    <path id="Path_7893" data-name="Path 7893" d="M41.5,281.719c.869-1.49,2.235-1.739,2.608-3.353.234-1.012-.3-2.779-.419-4.149a5.537,5.537,0,0,1-2.493,1.708s-.49-1.9-1.962-1.839a1.347,1.347,0,0,0-1.458,1.3,29.153,29.153,0,0,0-1.366,2.981c-.869,2.111-4.843,3.477-4.1,5.712s2.981,2.235,5.34,1.242a6.9,6.9,0,0,0,3.85-3.6" transform="translate(-17.69 -150.478)" fill="#fff"/>
    <path id="Path_7894" data-name="Path 7894" d="M41.5,281.719c.869-1.49,2.235-1.739,2.608-3.353.234-1.012-.3-2.779-.419-4.149a5.537,5.537,0,0,1-2.493,1.708s-.49-1.9-1.962-1.839a1.347,1.347,0,0,0-1.458,1.3,29.153,29.153,0,0,0-1.366,2.981c-.869,2.111-4.843,3.477-4.1,5.712s2.981,2.235,5.34,1.242A6.9,6.9,0,0,0,41.5,281.719Z" transform="translate(-17.69 -150.478)" fill="none" stroke="#000" stroke-linecap="round" stroke-linejoin="round" stroke-width="1"/>
    <path id="Path_7895" data-name="Path 7895" d="M41.506,284.944c-1.226,1.839-1.839,3.494-5.026,4.291a3.481,3.481,0,0,1-4.13-1.864,1.691,1.691,0,0,0-.034,1.191c.745,2.235,2.98,2.235,5.34,1.242a6.9,6.9,0,0,0,3.85-3.6c.869-1.49,2.235-1.739,2.608-3.353a4.51,4.51,0,0,0,.09-.6,11.846,11.846,0,0,0-2.7,2.693" transform="translate(-17.691 -154.961)" fill="#fff"/>
    <path id="Path_7896" data-name="Path 7896" d="M41.506,284.944c-1.226,1.839-1.839,3.494-5.026,4.291a3.481,3.481,0,0,1-4.13-1.864,1.691,1.691,0,0,0-.034,1.191c.745,2.235,2.98,2.235,5.34,1.242a6.9,6.9,0,0,0,3.85-3.6c.869-1.49,2.235-1.739,2.608-3.353a4.51,4.51,0,0,0,.09-.6A11.846,11.846,0,0,0,41.506,284.944Z" transform="translate(-17.691 -154.961)" fill="none" stroke="#000" stroke-linecap="round" stroke-linejoin="round" stroke-width="1"/>
    <path id="Path_7897" data-name="Path 7897" d="M87.658,188.134s-.414,19.518-.207,21.174a35.767,35.767,0,0,1,.414,7.244c-.207,2.9-.753,11.806-.753,11.806a29.156,29.156,0,0,1,1.366,2.981c.869,2.111,4.843,3.477,4.1,5.712s-2.98,2.236-5.34,1.242a6.9,6.9,0,0,1-3.849-3.6c-.869-1.49-2.236-1.739-2.608-3.353s.248-3.726.124-6.209-.8-5.99-1.213-9.508.1-6.105-.1-8.071-1.242-17.035-1.242-17.346,9.313-2.07,9.313-2.07" transform="translate(-43.013 -103.289)" fill="#fff"/>
    <path id="Path_7898" data-name="Path 7898" d="M87.658,188.134s-.414,19.518-.207,21.174a35.767,35.767,0,0,1,.414,7.244c-.207,2.9-.753,11.806-.753,11.806a29.156,29.156,0,0,1,1.366,2.981c.869,2.111,4.843,3.477,4.1,5.712s-2.98,2.236-5.34,1.242a6.9,6.9,0,0,1-3.849-3.6c-.869-1.49-2.236-1.739-2.608-3.353s.248-3.726.124-6.209-.8-5.99-1.213-9.508.1-6.105-.1-8.071-1.242-17.035-1.242-17.346S87.658,188.134,87.658,188.134Z" transform="translate(-43.013 -103.289)" fill="none" stroke="#000" stroke-linecap="round" stroke-linejoin="round" stroke-width="1"/>
    <path id="Path_7899" data-name="Path 7899" d="M86.2,282.075c-.869-1.49-2.235-1.739-2.608-3.353a12.316,12.316,0,0,1,.042-3.588,3.6,3.6,0,0,0,2.87,1.148s.49-1.9,1.961-1.839a1.348,1.348,0,0,1,1.459,1.3,29.156,29.156,0,0,1,1.366,2.981c.869,2.111,4.843,3.477,4.1,5.712s-2.98,2.235-5.339,1.242a6.9,6.9,0,0,1-3.85-3.6" transform="translate(-45.829 -150.673)" fill="#fff"/>
    <path id="Path_7900" data-name="Path 7900" d="M86.2,282.075c-.869-1.49-2.235-1.739-2.608-3.353a12.316,12.316,0,0,1,.042-3.588,3.6,3.6,0,0,0,2.87,1.148s.49-1.9,1.961-1.839a1.348,1.348,0,0,1,1.459,1.3,29.156,29.156,0,0,1,1.366,2.981c.869,2.111,4.843,3.477,4.1,5.712s-2.98,2.235-5.339,1.242A6.9,6.9,0,0,1,86.2,282.075Z" transform="translate(-45.829 -150.673)" fill="none" stroke="#000" stroke-linecap="round" stroke-linejoin="round" stroke-width="1"/>
    <path id="Path_7901" data-name="Path 7901" d="M86.239,285.3c1.226,1.839,1.839,3.494,5.026,4.291a3.481,3.481,0,0,0,4.13-1.864,1.691,1.691,0,0,1,.034,1.191c-.745,2.235-2.98,2.235-5.34,1.242a6.9,6.9,0,0,1-3.849-3.6c-.869-1.49-2.236-1.739-2.608-3.353a4.509,4.509,0,0,1-.09-.6,11.846,11.846,0,0,1,2.7,2.693" transform="translate(-45.867 -155.157)" fill="#fff"/>
    <path id="Path_7902" data-name="Path 7902" d="M86.239,285.3c1.226,1.839,1.839,3.494,5.026,4.291a3.481,3.481,0,0,0,4.13-1.864,1.691,1.691,0,0,1,.034,1.191c-.745,2.235-2.98,2.235-5.34,1.242a6.9,6.9,0,0,1-3.849-3.6c-.869-1.49-2.236-1.739-2.608-3.353a4.509,4.509,0,0,1-.09-.6A11.846,11.846,0,0,1,86.239,285.3Z" transform="translate(-45.867 -155.157)" fill="none" stroke="#000" stroke-linecap="round" stroke-linejoin="round" stroke-width="1"/>
    <path id="Path_7903" data-name="Path 7903" d="M56.018,9.527s-.612-5.095.408-6.929S62.879-.05,65.664.9s3.668,5.231,4.144,6.657,8.151,5.366,8.288,8.627-2.31,6.318-3.464,6.657-1.9.271-1.495,1.426,2.242,2.581.543,4.891-3.464,2.717-3.6,3.464a10.1,10.1,0,0,0-.068,1.9s-4.483-2.446-6.929-2.446-6.657.408-8.083.272-6.182-2.514-5.367-6.25,3.8-4.755,4.008-6.25S56.018,9.527,56.018,9.527" transform="translate(-27.198 -0.275)"/>
    <path id="Path_7904" data-name="Path 7904" d="M56.018,9.527s-.612-5.095.408-6.929S62.879-.05,65.664.9s3.668,5.231,4.144,6.657,8.151,5.366,8.288,8.627-2.31,6.318-3.464,6.657-1.9.271-1.495,1.426,2.242,2.581.543,4.891-3.464,2.717-3.6,3.464a10.1,10.1,0,0,0-.068,1.9s-4.483-2.446-6.929-2.446-6.657.408-8.083.272-6.182-2.514-5.367-6.25,3.8-4.755,4.008-6.25S56.018,9.527,56.018,9.527Z" transform="translate(-27.198 -0.275)" fill="none" stroke="#000" stroke-linecap="round" stroke-linejoin="round" stroke-width="1"/>
    <path id="Path_7905" data-name="Path 7905" d="M71.915,13.129s-.408-1.426.408-2.038A1.682,1.682,0,0,1,74.7,11.5a3,3,0,0,1,.2,1.562Z" transform="translate(-39.427 -5.914)" fill="#fff"/>
    <path id="Path_7906" data-name="Path 7906" d="M71.915,13.129s-.408-1.426.408-2.038A1.682,1.682,0,0,1,74.7,11.5a3,3,0,0,1,.2,1.562Z" transform="translate(-39.427 -5.914)" fill="none" stroke="#000" stroke-linecap="round" stroke-linejoin="round" stroke-width="1"/>
    <path id="Path_7907" data-name="Path 7907" d="M33.681,154.175l-4.346,14.073a46.26,46.26,0,0,0,9.416,3.932c6,1.863,8.486,1.449,8.486,1.449l.621-2.07,1.035,2.277a39.442,39.442,0,0,0,7.14-.828,56.026,56.026,0,0,0,10.037-3.726l-3.622-14.8s-17.695,2.277-28.767-.31" transform="translate(-16.105 -84.645)"/>
    <path id="Path_7908" data-name="Path 7908" d="M33.681,154.175l-4.346,14.073a46.26,46.26,0,0,0,9.416,3.932c6,1.863,8.486,1.449,8.486,1.449l.621-2.07,1.035,2.277a39.442,39.442,0,0,0,7.14-.828,56.026,56.026,0,0,0,10.037-3.726l-3.622-14.8S44.754,156.762,33.681,154.175Z" transform="translate(-16.105 -84.645)" fill="none" stroke="#000" stroke-linecap="round" stroke-linejoin="round" stroke-width="1"/>
    <path id="Path_7909" data-name="Path 7909" d="M30.68,167.524l3.363-13.267-.363-.082-4.346,14.073a46.274,46.274,0,0,0,9.416,3.933c6,1.863,8.486,1.449,8.486,1.449l.621-2.07c-5.484.31-17.177-4.036-17.177-4.036" transform="translate(-16.105 -84.645)" fill="#fff"/>
    <path id="Path_7910" data-name="Path 7910" d="M30.68,167.524l3.363-13.267-.363-.082-4.346,14.073a46.274,46.274,0,0,0,9.416,3.933c6,1.863,8.486,1.449,8.486,1.449l.621-2.07C42.373,171.87,30.68,167.524,30.68,167.524Z" transform="translate(-16.105 -84.645)" fill="none" stroke="#000" stroke-linecap="round" stroke-linejoin="round" stroke-width="1"/>
    <path id="Path_7911" data-name="Path 7911" d="M83.076,155.079l4.095,13.237a35.7,35.7,0,0,1-16.764,3.622l1.035,2.277a39.421,39.421,0,0,0,7.14-.828,56.038,56.038,0,0,0,10.037-3.725L85,154.864s-.706.091-1.922.215" transform="translate(-38.655 -85.023)" fill="#fff"/>
    <path id="Path_7912" data-name="Path 7912" d="M83.076,155.079l4.095,13.237a35.7,35.7,0,0,1-16.764,3.622l1.035,2.277a39.421,39.421,0,0,0,7.14-.828,56.038,56.038,0,0,0,10.037-3.725L85,154.864S84.292,154.955,83.076,155.079Z" transform="translate(-38.655 -85.023)" fill="none" stroke="#000" stroke-linecap="round" stroke-linejoin="round" stroke-width="1"/>
    <line id="Line_404" data-name="Line 404" y1="11.072" x2="0.207" transform="translate(31.752 75.842)" fill="none" stroke="#000" stroke-linecap="round" stroke-linejoin="round" stroke-width="1"/>
    <path id="Path_7913" data-name="Path 7913" d="M29.672,67.189a36.536,36.536,0,0,0-6.589.34c-1.834.476-15.012,1.9-15.012,1.9s-7.46,5.663-6.713,6.207,3.045-.161,9.158-.161,9.442-.2,9.442-.2,1.359,11.684,1.427,12.77-1.631,9.578-2.106,12.431a34.885,34.885,0,0,1-2.229,6.762s4.131,2.953,11.6,3.02a175.657,175.657,0,0,0,19.224-1.494s-5.3-20.787-5.23-21.806,1.087-10.189,1.087-10.189,15.556,1.087,18.681.476,1.836-2.024,1.7-2.65c-.331-1.5-2.038-2.581-2.65-3.261s-4.483,0-6.046-.2-7.132-.951-8.831-1.426A29.478,29.478,0,0,0,40.269,68c-3.261-.408-4.347-.476-4.347-.476Z" transform="translate(-0.717 -36.878)" fill="#fff"/>
    <path id="Path_7914" data-name="Path 7914" d="M29.672,67.189a36.536,36.536,0,0,0-6.589.34c-1.834.476-15.012,1.9-15.012,1.9s-7.46,5.663-6.713,6.207,3.045-.161,9.158-.161,9.442-.2,9.442-.2,1.359,11.684,1.427,12.77-1.631,9.578-2.106,12.431a34.885,34.885,0,0,1-2.229,6.762s4.131,2.953,11.6,3.02a175.657,175.657,0,0,0,19.224-1.494s-5.3-20.787-5.23-21.806,1.087-10.189,1.087-10.189,15.556,1.087,18.681.476,1.836-2.024,1.7-2.65c-.331-1.5-2.038-2.581-2.65-3.261s-4.483,0-6.046-.2-7.132-.951-8.831-1.426A29.478,29.478,0,0,0,40.269,68c-3.261-.408-4.347-.476-4.347-.476Z" transform="translate(-0.717 -36.878)" fill="none" stroke="#000" stroke-linecap="round" stroke-linejoin="round" stroke-width="1"/>
    <path id="Path_7915" data-name="Path 7915" d="M59.582,69.7A29.5,29.5,0,0,0,53.265,68c-3.261-.407-4.347-.475-4.347-.475l-6.25-.34a36.536,36.536,0,0,0-6.589.34c-1.181.306-7.061,1.006-11.1,1.466l2.538,6.45c3.548-.057,5.44-.173,5.44-.173s1.359,11.684,1.426,12.771-1.63,9.578-2.106,12.431a34.885,34.885,0,0,1-2.229,6.762s4.131,2.952,11.6,3.02a175.622,175.622,0,0,0,19.224-1.495s-5.3-20.786-5.23-21.805S56.73,76.767,56.73,76.767s2.085.146,4.878.3l1.4-6.711c-1.427-.227-2.744-.463-3.429-.654" transform="translate(-13.712 -36.878)" fill="#fbe551"/>
    <path id="Path_7916" data-name="Path 7916" d="M59.582,69.7A29.5,29.5,0,0,0,53.265,68c-3.261-.407-4.347-.475-4.347-.475l-6.25-.34a36.536,36.536,0,0,0-6.589.34c-1.181.306-7.061,1.006-11.1,1.466l2.538,6.45c3.548-.057,5.44-.173,5.44-.173s1.359,11.684,1.426,12.771-1.63,9.578-2.106,12.431a34.885,34.885,0,0,1-2.229,6.762s4.131,2.952,11.6,3.02a175.622,175.622,0,0,0,19.224-1.495s-5.3-20.786-5.23-21.805S56.73,76.767,56.73,76.767s2.085.146,4.878.3l1.4-6.711C61.584,70.13,60.268,69.894,59.582,69.7Z" transform="translate(-13.712 -36.878)" fill="none" stroke="#000" stroke-linecap="round" stroke-linejoin="round" stroke-width="1"/>
    <path id="Path_7917" data-name="Path 7917" d="M58.354,72.128a8.288,8.288,0,0,0,2.822,7.212" transform="translate(-32.006 -39.6)" fill="none" stroke="#000" stroke-linecap="round" stroke-linejoin="round" stroke-width="1"/>
    <path id="Path_7918" data-name="Path 7918" d="M79.376,73.692a19.708,19.708,0,0,1-2.352,3.528" transform="translate(-42.288 -40.458)" fill="none" stroke="#000" stroke-linecap="round" stroke-linejoin="round" stroke-width="1"/>
    <path id="Path_7919" data-name="Path 7919" d="M56.089,71.954a18.046,18.046,0,0,0,1.176,8.153" transform="translate(-30.76 -39.504)" fill="none" stroke="#000" stroke-linecap="round" stroke-linejoin="round" stroke-width="1"/>
    <path id="Path_7920" data-name="Path 7920" d="M63.923,58.023l-1.223,5.5s1.7,2.649,3.736,2.649S70.92,64,70.987,63.322a38.559,38.559,0,0,0-.679-4.416s-5.027,0-6.385-.883" transform="translate(-34.424 -31.856)" fill="#fff"/>
    <path id="Path_7921" data-name="Path 7921" d="M63.923,58.023l-1.223,5.5s1.7,2.649,3.736,2.649S70.92,64,70.987,63.322a38.559,38.559,0,0,0-.679-4.416S65.281,58.906,63.923,58.023Z" transform="translate(-34.424 -31.856)" fill="none" stroke="#000" stroke-linecap="round" stroke-linejoin="round" stroke-width="1"/>
    <path id="Path_7922" data-name="Path 7922" d="M69.113,60.474l-4.907,1.758,1.087-4.089Z" transform="translate(-35.25 -31.921)"/>
    <path id="Path_7923" data-name="Path 7923" d="M69.113,60.474l-4.907,1.758,1.087-4.089Z" transform="translate(-35.25 -31.921)" fill="none" stroke="#000" stroke-linecap="round" stroke-linejoin="round" stroke-width="1"/>
    <path id="Path_7924" data-name="Path 7924" d="M49.624,62.3c.406.471,1.832.446,1.638.817a.979.979,0,0,1-1.156.551c-.653-.1-1.067-.916-1.067-.916s.179-.924.585-.452" transform="translate(-26.923 -34.133)" fill="#fff"/>
    <path id="Path_7925" data-name="Path 7925" d="M49.624,62.3c.406.471,1.832.446,1.638.817a.979.979,0,0,1-1.156.551c-.653-.1-1.067-.916-1.067-.916S49.218,61.833,49.624,62.3Z" transform="translate(-26.923 -34.133)" fill="none" stroke="#000" stroke-linecap="round" stroke-linejoin="round" stroke-width="1"/>
    <path id="Path_7926" data-name="Path 7926" d="M6.092,62.612a6.859,6.859,0,0,0,2.6-2.188,38.739,38.739,0,0,0,2.3-4c.5-.874,4.534-5.448,5.453-6.486.128.473.325,1.2.563,2.063.426,1.548.811,1.468,1.193,2.147a12.955,12.955,0,0,0,1.558,2.337c.6.641.909.88,1.3.747.137-.047.034-.329-.155-.673a1.686,1.686,0,0,0,1.033.522c.488-.018.443-.129.443-.129a1.767,1.767,0,0,0,.7,0,.341.341,0,0,0,.3-.357.774.774,0,0,0,.807.06c.4-.241-.619-1.129-1.089-2.085s-.834-2.607-1.577-3.529-1.811-2.572-2.608-3.5a1.52,1.52,0,0,0-1.633-.61,3.259,3.259,0,0,0-1.494.43c-.955.47-5.952,5.024-8.686,6.823s-5.66,6.182-5.91,7.355S-.054,64.426.916,64.5a2.011,2.011,0,0,0,.7-.081" transform="translate(-0.274 -25.739)" fill="#fff"/>
    <path id="Path_7927" data-name="Path 7927" d="M6.092,62.612a6.859,6.859,0,0,0,2.6-2.188,38.739,38.739,0,0,0,2.3-4c.5-.874,4.534-5.448,5.453-6.486.128.473.325,1.2.563,2.063.426,1.548.811,1.468,1.193,2.147a12.955,12.955,0,0,0,1.558,2.337c.6.641.909.88,1.3.747.137-.047.034-.329-.155-.673a1.686,1.686,0,0,0,1.033.522c.488-.018.443-.129.443-.129a1.767,1.767,0,0,0,.7,0,.341.341,0,0,0,.3-.357.774.774,0,0,0,.807.06c.4-.241-.619-1.129-1.089-2.085s-.834-2.607-1.577-3.529-1.811-2.572-2.608-3.5a1.52,1.52,0,0,0-1.633-.61,3.259,3.259,0,0,0-1.494.43c-.955.47-5.952,5.024-8.686,6.823s-5.66,6.182-5.91,7.355S-.054,64.426.916,64.5a2.011,2.011,0,0,0,.7-.081" transform="translate(-0.274 -25.739)" fill="none" stroke="#000" stroke-linecap="round" stroke-linejoin="round" stroke-width="1"/>
    <path id="Path_7928" data-name="Path 7928" d="M46.493,64.608a18.37,18.37,0,0,1-1-1.612c-.19-.426-.939-1.844-1.073-2.171" transform="translate(-24.387 -33.394)" fill="none" stroke="#000" stroke-linecap="round" stroke-linejoin="round" stroke-width="1"/>
    <path id="Path_7929" data-name="Path 7929" d="M48.554,63.481s-.791-1.353-1.114-2.106a18.212,18.212,0,0,0-1.09-1.95" transform="translate(-25.447 -32.625)" fill="none" stroke="#000" stroke-linecap="round" stroke-linejoin="round" stroke-width="1"/>
    <line id="Line_405" data-name="Line 405" x1="1.504" y1="2.662" transform="translate(18.892 27.853)" fill="none" stroke="#000" stroke-linecap="round" stroke-linejoin="round" stroke-width="1"/>
    <path id="Path_7930" data-name="Path 7930" d="M89.52,63.208c-.406.471-1.832.446-1.638.817a.979.979,0,0,0,1.156.551c.654-.1,1.067-.916,1.067-.916s-.179-.924-.585-.452" transform="translate(-48.239 -34.629)" fill="#fff"/>
    <path id="Path_7931" data-name="Path 7931" d="M89.52,63.208c-.406.471-1.832.446-1.638.817a.979.979,0,0,0,1.156.551c.654-.1,1.067-.916,1.067-.916S89.925,62.737,89.52,63.208Z" transform="translate(-48.239 -34.629)" fill="none" stroke="#000" stroke-linecap="round" stroke-linejoin="round" stroke-width="1"/>
    <path id="Path_7932" data-name="Path 7932" d="M112.009,65.4c.969-.073-.025-1.785-.275-2.958s-3.177-5.556-5.911-7.355-7.73-6.353-8.686-6.822a3.258,3.258,0,0,0-1.494-.43,1.519,1.519,0,0,0-1.633.609c-.8.926-1.865,2.576-2.608,3.5s-1.107,2.574-1.577,3.529-1.486,1.844-1.09,2.085a.775.775,0,0,0,.808-.06.34.34,0,0,0,.3.357,1.769,1.769,0,0,0,.7,0s-.046.112.442.129a1.688,1.688,0,0,0,1.033-.522c-.189.344-.292.626-.155.673.389.133.7-.106,1.3-.747a12.95,12.95,0,0,0,1.558-2.337c.382-.678.767-.6,1.193-2.147.238-.865.435-1.59.563-2.063.92,1.038,4.956,5.613,5.453,6.486a38.671,38.671,0,0,0,2.3,4,6.836,6.836,0,0,0,1.56,1.567" transform="translate(-48.668 -26.235)" fill="#fff"/>
    <path id="Path_7933" data-name="Path 7933" d="M112.009,65.4c.969-.073-.025-1.785-.275-2.958s-3.177-5.556-5.911-7.355-7.73-6.353-8.686-6.822a3.258,3.258,0,0,0-1.494-.43,1.519,1.519,0,0,0-1.633.609c-.8.926-1.865,2.576-2.608,3.5s-1.107,2.574-1.577,3.529-1.486,1.844-1.09,2.085a.775.775,0,0,0,.808-.06.34.34,0,0,0,.3.357,1.769,1.769,0,0,0,.7,0s-.046.112.442.129a1.688,1.688,0,0,0,1.033-.522c-.189.344-.292.626-.155.673.389.133.7-.106,1.3-.747a12.95,12.95,0,0,0,1.558-2.337c.382-.678.767-.6,1.193-2.147.238-.865.435-1.59.563-2.063.92,1.038,4.956,5.613,5.453,6.486a38.671,38.671,0,0,0,2.3,4,6.836,6.836,0,0,0,1.56,1.567" transform="translate(-48.668 -26.235)" fill="none" stroke="#000" stroke-linecap="round" stroke-linejoin="round" stroke-width="1"/>
    <path id="Path_7934" data-name="Path 7934" d="M92.857,65.512a18.369,18.369,0,0,0,1-1.612c.19-.426.939-1.844,1.073-2.171" transform="translate(-50.98 -33.89)" fill="#fff"/>
    <path id="Path_7935" data-name="Path 7935" d="M92.857,65.512a18.369,18.369,0,0,0,1-1.612c.19-.426.939-1.844,1.073-2.171" transform="translate(-50.98 -33.89)" fill="none" stroke="#000" stroke-linecap="round" stroke-linejoin="round" stroke-width="1"/>
    <path id="Path_7936" data-name="Path 7936" d="M90.636,64.385s.791-1.353,1.114-2.106a18.235,18.235,0,0,1,1.09-1.95" transform="translate(-49.761 -33.122)" fill="#fff"/>
    <path id="Path_7937" data-name="Path 7937" d="M90.636,64.385s.791-1.353,1.114-2.106a18.235,18.235,0,0,1,1.09-1.95" transform="translate(-49.761 -33.122)" fill="none" stroke="#000" stroke-linecap="round" stroke-linejoin="round" stroke-width="1"/>
    <line id="Line_406" data-name="Line 406" y1="2.73" x2="1.462" transform="translate(43.629 28.26)" fill="none" stroke="#000" stroke-linecap="round" stroke-linejoin="round" stroke-width="1"/>
    <path id="Path_7938" data-name="Path 7938" d="M88.6,40.419s1.223-1.087,1.495.543-2.242,3.193-2.242,3.193Z" transform="translate(-48.234 -21.996)" fill="#fff"/>
    <path id="Path_7939" data-name="Path 7939" d="M88.6,40.419s1.223-1.087,1.495.543-2.242,3.193-2.242,3.193Z" transform="translate(-48.234 -21.996)" fill="none" stroke="#000" stroke-linecap="round" stroke-linejoin="round" stroke-width="1"/>
    <path id="Path_7940" data-name="Path 7940" d="M62.413,15.213a6.888,6.888,0,0,0-4.144,4.823c-.815,3.668-.34,8.9.475,10.529s2.989,6.045,5.5,6.453,6.046-3.125,6.929-6.182S73.145,20.647,71.99,18s-6.589-5.027-9.578-2.785" transform="translate(-31.758 -7.862)" fill="#fff"/>
    <path id="Path_7941" data-name="Path 7941" d="M62.413,15.213a6.888,6.888,0,0,0-4.144,4.823c-.815,3.668-.34,8.9.475,10.529s2.989,6.045,5.5,6.453,6.046-3.125,6.929-6.182S73.145,20.647,71.99,18,65.4,12.971,62.413,15.213Z" transform="translate(-31.758 -7.862)" fill="none" stroke="#000" stroke-linecap="round" stroke-linejoin="round" stroke-width="1"/>
    <path id="Path_7943" data-name="Path 7943" d="M67.671,50.943a5.352,5.352,0,0,0,2.989,1.223,3.738,3.738,0,0,0,2.581-1.155" transform="translate(-37.153 -27.969)" fill="none" stroke="#000" stroke-linecap="round" stroke-linejoin="round" stroke-width="1"/>
    <path id="Path_7948" data-name="Path 7948" d="M62.416,15.213a6.888,6.888,0,0,0-4.144,4.823,20.572,20.572,0,0,0-.42,4.214,6.493,6.493,0,0,0,1.3-2.787c.271-1.766,1.97-4.959,6.793-5.027A5.492,5.492,0,0,1,71.791,21.8c-.068,1.223-.475,1.63-.068,2.717.125.335.3.734.472,1.127.381-2.937.483-6.079-.2-7.648-1.155-2.65-6.589-5.027-9.578-2.785" transform="translate(-31.762 -7.862)"/>
    <path id="Path_7949" data-name="Path 7949" d="M62.416,15.213a6.888,6.888,0,0,0-4.144,4.823,20.572,20.572,0,0,0-.42,4.214,6.493,6.493,0,0,0,1.3-2.787c.271-1.766,1.97-4.959,6.793-5.027A5.492,5.492,0,0,1,71.791,21.8c-.068,1.223-.475,1.63-.068,2.717.125.335.3.734.472,1.127.381-2.937.483-6.079-.2-7.648C70.84,15.349,65.406,12.971,62.416,15.213Z" transform="translate(-31.762 -7.862)" fill="none" stroke="#000" stroke-linecap="round" stroke-linejoin="round" stroke-width="1"/>
    <path id="Path_7950" data-name="Path 7950" d="M55.826,38.964s-.815-1.426-1.562.271,2.106,3.736,2.106,3.736Z" transform="translate(-29.724 -21.084)" fill="#fff"/>
    <path id="Path_7951" data-name="Path 7951" d="M55.826,38.964s-.815-1.426-1.562.271,2.106,3.736,2.106,3.736Z" transform="translate(-29.724 -21.084)" fill="none" stroke="#000" stroke-linecap="round" stroke-linejoin="round" stroke-width="1"/>
  </g>
</svg>
