<svg xmlns="http://www.w3.org/2000/svg" xmlns:xlink="http://www.w3.org/1999/xlink" width="142.189" height="150.23" viewBox="0 0 142.189 150.23">
  <defs>
    <clipPath id="clip-path">
      <rect id="Rectangle_143" data-name="Rectangle 143" width="142.189" height="150.23" fill="none"/>
    </clipPath>
  </defs>
  <g id="Group_212" data-name="Group 212" clip-path="url(#clip-path)">
    <path id="Path_5828" data-name="Path 5828" d="M176.467,108.2a29.436,29.436,0,0,1,6.02,5.2c3.421,3.694,5.336,14.915,1.505,17.1s-6.157-2.052-6.157,1.232,3.694,5.2-.411,8.62-12.862,3.147-13.957-2.873,3.831-9.715,4.652-13.683-.273-11.767.547-14.777,3.284-3.147,7.8-.821" transform="translate(-94.966 -61.988)"/>
    <path id="Path_5829" data-name="Path 5829" d="M176.467,108.2a29.436,29.436,0,0,1,6.02,5.2c3.421,3.694,5.336,14.915,1.505,17.1s-6.157-2.052-6.157,1.232,3.694,5.2-.411,8.62-12.862,3.147-13.957-2.873,3.831-9.715,4.652-13.683-.273-11.767.547-14.777S171.952,105.878,176.467,108.2Z" transform="translate(-94.966 -61.988)" fill="none" stroke="#000" stroke-linecap="round" stroke-linejoin="round" stroke-width="1"/>
    <path id="Path_5830" data-name="Path 5830" d="M40.811,20.8s-1.038-.858-1.6-.858-.8.7-1.6,1.326-2,.936-1.278,1.248a2.3,2.3,0,0,0,2.317-.39c.639-.546.639-.234,1.118-.156l.479.078Z" transform="translate(-21.002 -11.599)" fill="none" stroke="#000" stroke-linecap="round" stroke-linejoin="round" stroke-width="1"/>
    <path id="Path_5831" data-name="Path 5831" d="M40.975,26.117s-2.156-.39-2.316.234a1.251,1.251,0,0,0,.4,1.4,1.587,1.587,0,0,0,1.118.156Z" transform="translate(-22.445 -15.117)" fill="none" stroke="#000" stroke-linecap="round" stroke-linejoin="round" stroke-width="1"/>
    <path id="Path_5832" data-name="Path 5832" d="M37.066,27.962s-1.2.468-.879,1.326S37.865,30.3,37.865,30.3l.479-1.014A2.66,2.66,0,0,1,37.066,27.962Z" transform="translate(-21.011 -16.26)" fill="none" stroke="#000" stroke-linecap="round" stroke-linejoin="round" stroke-width="1"/>
    <path id="Path_5833" data-name="Path 5833" d="M36.17,31.876a1.419,1.419,0,0,0-.16,1.014c.16.468,1.118.858,1.118.858l.639-1.17S36.25,32.188,36.17,31.876Z" transform="translate(-20.914 -18.536)" fill="none" stroke="#000" stroke-linecap="round" stroke-linejoin="round" stroke-width="1"/>
    <path id="Path_5834" data-name="Path 5834" d="M35.545,34.3s-.559.312-.32.78a1.348,1.348,0,0,0,.959.546l.479-.468S35.625,34.611,35.545,34.3Z" transform="translate(-20.449 -19.945)" fill="none" stroke="#000" stroke-linecap="round" stroke-linejoin="round" stroke-width="1"/>
    <path id="Path_5835" data-name="Path 5835" d="M94.48,57.651s-5.336-3.831-7.526-5.062-7.115-2.053-7.115-2.053L67.387,41.368S60,35.9,56.3,33.843s-9.989-6.294-9.989-6.294l-3.558-5.062L38.79,29.327l6.7,1.5s12.451,11.083,15.6,13.957a21.154,21.154,0,0,0,5.473,3.831s6.157,6.157,8.757,8.21a21.424,21.424,0,0,0,3.831,2.6,65.113,65.113,0,0,1-.821,8.073c-.547,2.189-1.368,3.968-2.6,4.379a6.479,6.479,0,0,1-1.642.41s-.821,8.073,1.916,12.452,8.757,4.241,10.4,4.241,5.337-4.926,5.337-4.926a23.55,23.55,0,0,0,5.336-2.873c1.505-1.368,4.028-7.292,4.028-7.292a37.6,37.6,0,0,0,8.7,1.135c4.516,0,10.81-2.326,10.81-2.326s8.62,0,12.725-1.231,14.777-4.926,14.777-4.926a25.922,25.922,0,0,0,6.842.958c3.01-.137,5.61-.411,6.431-.821a2.341,2.341,0,0,0,1.095-1.231,1.065,1.065,0,0,0,.821-.411,10.618,10.618,0,0,0,.547-.958s.684,0,.684-.547-2.052-1.368-2.052-1.368,2.326-.821,1.368-1.095-9.031-.411-9.031-.411-.274-.684.821-.958,2.873-1.5,2.052-1.642l-.821-.137a9.422,9.422,0,0,1-2.463.821,4.6,4.6,0,0,0-2.326.958c-.547.411-3.421,3.284-3.421,3.284a42.775,42.775,0,0,1-9.167,1.095c-5.61.137-7.526,0-11.083.684s-7.252,1.5-7.252,1.5l-9.715.547a39.446,39.446,0,0,1-4.789-.411,11.374,11.374,0,0,1-5.336-3.284A56.567,56.567,0,0,0,95.437,58.2Z" transform="translate(-22.557 -13.076)" fill="#fff"/>
    <path id="Path_5836" data-name="Path 5836" d="M94.48,57.651s-5.336-3.831-7.526-5.062-7.115-2.053-7.115-2.053L67.387,41.368S60,35.9,56.3,33.843s-9.989-6.294-9.989-6.294l-3.558-5.062L38.79,29.327l6.7,1.5s12.451,11.083,15.6,13.957a21.154,21.154,0,0,0,5.473,3.831s6.157,6.157,8.757,8.21a21.424,21.424,0,0,0,3.831,2.6,65.113,65.113,0,0,1-.821,8.073c-.547,2.189-1.368,3.968-2.6,4.379a6.479,6.479,0,0,1-1.642.41s-.821,8.073,1.916,12.452,8.757,4.241,10.4,4.241,5.337-4.926,5.337-4.926a23.55,23.55,0,0,0,5.336-2.873c1.505-1.368,4.028-7.292,4.028-7.292a37.6,37.6,0,0,0,8.7,1.135c4.516,0,10.81-2.326,10.81-2.326s8.62,0,12.725-1.231,14.777-4.926,14.777-4.926a25.922,25.922,0,0,0,6.842.958c3.01-.137,5.61-.411,6.431-.821a2.341,2.341,0,0,0,1.095-1.231,1.065,1.065,0,0,0,.821-.411,10.618,10.618,0,0,0,.547-.958s.684,0,.684-.547-2.052-1.368-2.052-1.368,2.326-.821,1.368-1.095-9.031-.411-9.031-.411-.274-.684.821-.958,2.873-1.5,2.052-1.642l-.821-.137a9.422,9.422,0,0,1-2.463.821,4.6,4.6,0,0,0-2.326.958c-.547.411-3.421,3.284-3.421,3.284a42.775,42.775,0,0,1-9.167,1.095c-5.61.137-7.526,0-11.083.684s-7.252,1.5-7.252,1.5l-9.715.547a39.446,39.446,0,0,1-4.789-.411,11.374,11.374,0,0,1-5.336-3.284A56.567,56.567,0,0,0,95.437,58.2Z" transform="translate(-22.557 -13.076)" fill="none" stroke="#000" stroke-linecap="round" stroke-linejoin="round" stroke-width="1"/>
    <line id="Line_127" data-name="Line 127" x1="3.694" y2="0.137" transform="translate(136.232 49.09)" fill="none" stroke="#000" stroke-linecap="round" stroke-linejoin="round" stroke-width="1"/>
    <line id="Line_128" data-name="Line 128" x1="5.199" y1="0.274" transform="translate(136.096 50.732)" fill="none" stroke="#000" stroke-linecap="round" stroke-linejoin="round" stroke-width="1"/>
    <line id="Line_129" data-name="Line 129" x1="3.284" y2="0.137" transform="translate(136.643 52.374)" fill="none" stroke="#000" stroke-linecap="round" stroke-linejoin="round" stroke-width="1"/>
    <line id="Line_130" data-name="Line 130" x2="0.411" y2="4.379" transform="translate(136.232 48.68)" fill="none" stroke="#000" stroke-linecap="round" stroke-linejoin="round" stroke-width="1"/>
    <path id="Path_5837" data-name="Path 5837" d="M311.434,116a6.116,6.116,0,0,1-.274,1.505c-.274.958-3.284,1.094-3.284,1.094" transform="translate(-179.032 -67.452)" fill="none" stroke="#000" stroke-linecap="round" stroke-linejoin="round" stroke-width="1"/>
    <line id="Line_131" data-name="Line 131" y1="2.052" x2="7.663" transform="translate(98.057 57.574)" fill="none" stroke="#000" stroke-linecap="round" stroke-linejoin="round" stroke-width="1"/>
    <line id="Line_132" data-name="Line 132" y1="2.423" x2="1.172" transform="translate(78.55 58.395)" fill="none" stroke="#000" stroke-linecap="round" stroke-linejoin="round" stroke-width="1"/>
    <line id="Line_133" data-name="Line 133" x2="2.6" y2="1.642" transform="translate(56.598 46.354)" fill="none" stroke="#000" stroke-linecap="round" stroke-linejoin="round" stroke-width="1"/>
    <line id="Line_134" data-name="Line 134" x2="0.547" y2="3.694" transform="translate(58.924 45.259)" fill="none" stroke="#000" stroke-linecap="round" stroke-linejoin="round" stroke-width="1"/>
    <path id="Path_5838" data-name="Path 5838" d="M169.815,96.737s.821-2.052,1.915-4.379,2.6-2.189,3.147-1.915,2.6.958,3.147.411,3.284-4.926,3.284-4.926,1.368,0,1.779-.684l-1.095-2.873a2.867,2.867,0,0,0,.821-1.642V78.539s.547-3.01.547-3.694-2.737-1.505-5.473-.274-10.4,4.378-11.22,6.294a26.024,26.024,0,0,0-1.095,6.157s-.411,1.779-1.231,4.379" transform="translate(-95.566 -42.994)" fill="#fff"/>
    <path id="Path_5839" data-name="Path 5839" d="M169.815,96.737s.821-2.052,1.915-4.379,2.6-2.189,3.147-1.915,2.6.958,3.147.411,3.284-4.926,3.284-4.926,1.368,0,1.779-.684l-1.095-2.873a2.867,2.867,0,0,0,.821-1.642V78.539s.547-3.01.547-3.694-2.737-1.505-5.473-.274-10.4,4.378-11.22,6.294a26.024,26.024,0,0,0-1.095,6.157s-.411,1.779-1.231,4.379" transform="translate(-95.566 -42.994)" fill="none" stroke="#000" stroke-linecap="round" stroke-linejoin="round" stroke-width="1"/>
    <path id="Path_5840" data-name="Path 5840" d="M168.276,74s-.411-3.421-2.189-2.6-1.505,3.421-.958,4.241,1.505.684-.274,1.779-3.421,1.779-4.652,0-3.421-5.473-.821-9.852,8.346-7.936,13.272-7.526,4.789,2.326,4.789,2.326a4.044,4.044,0,0,1,5.747,1.5c2.326,3.694,1.368,5.747.411,5.747s-1.368-1.094-1.368-1.094-.684,1.368-1.368,1.642a5.284,5.284,0,0,1-1.642.274l-.411-2.737s-4.1-.684-4.652.958-.821,3.694-2.463,4.515a8.6,8.6,0,0,1-3.421.821" transform="translate(-91.975 -34.895)"/>
    <path id="Path_5841" data-name="Path 5841" d="M168.276,74s-.411-3.421-2.189-2.6-1.505,3.421-.958,4.241,1.505.684-.274,1.779-3.421,1.779-4.652,0-3.421-5.473-.821-9.852,8.346-7.936,13.272-7.526,4.789,2.326,4.789,2.326a4.044,4.044,0,0,1,5.747,1.5c2.326,3.694,1.368,5.747.411,5.747s-1.368-1.094-1.368-1.094-.684,1.368-1.368,1.642a5.284,5.284,0,0,1-1.642.274l-.411-2.737s-4.1-.684-4.652.958-.821,3.694-2.463,4.515A8.6,8.6,0,0,1,168.276,74Z" transform="translate(-91.975 -34.895)" fill="none" stroke="#000" stroke-linecap="round" stroke-linejoin="round" stroke-width="1"/>
    <path id="Path_5844" data-name="Path 5844" d="M196.057,102.917a1.892,1.892,0,0,0,1.779,1.232" transform="translate(-114.009 -59.847)" fill="none" stroke="#000" stroke-linecap="round" stroke-linejoin="round" stroke-width="1"/>
    <path id="Path_5845" data-name="Path 5845" d="M184.765,109.007l-3.421-3.147.547,4.379a2.072,2.072,0,0,1,2.873-1.232" transform="translate(-105.453 -61.558)"/>
    <path id="Path_5846" data-name="Path 5846" d="M184.765,109.007l-3.421-3.147.547,4.379A2.072,2.072,0,0,1,184.765,109.007Z" transform="translate(-105.453 -61.558)" fill="none" stroke="#000" stroke-linecap="round" stroke-linejoin="round" stroke-width="1"/>
    <path id="Path_5847" data-name="Path 5847" d="M51.826,59.506l-1.232-.137a16.643,16.643,0,0,0-7.115-4.1c-4.242-1.094-10.672.411-10.672.411S25.691,51.707,21.039,48.7s-9.714-5.747-9.714-5.747,5.062-10.4,5.883-15.872,1.916-9.031,2.6-10.262,1.368-2.6,1.368-2.6,2.737,1.095,3.694.137.547-4.379.684-5.473.411-4.1.411-5.337V1.764S26.787.259,25.691.533a4.3,4.3,0,0,0-2.326,2.053c-.547.821-3.01,6.294-4.789,9.167S11.461,23.246,8.041,29.267,2.294,42.95,1.062,45.686s-.136,5.337.411,5.747S8.588,58.685,14.2,62.106s8.757,5.884,10.536,6.568,6.841,4.379,7.388,6.294-2.189,12.041-.137,18.745,2.6,11.357,2.463,13.957S32.4,113.417,32.4,118.343s2.463,13.819,2.737,15.325A83.842,83.842,0,0,1,36.5,142.7c0,1.916-.547,6.294-.274,6.841s3.695.958,4.789.684a11.64,11.64,0,0,1,3.01-.547c1.095,0,3.831.411,5.473.411s3.147.137,3.284-.411-1.368-1.232-1.916-1.368-3.968-1.368-5.61-3.284-3.421-3.694-3.831-4.789.411-14.5.958-19.019,1.231-9.578,1.5-10.81a48.9,48.9,0,0,0,2.19-8.894c.684-5.062,1.779-18.882,1.915-19.977a31.9,31.9,0,0,1,.821-3.421s8.073-1.5,9.989-1.5,4.652-.137,6.02-.821,1.642-2.873.137-4.516-6.294-3.831-7.936-6.7a26.7,26.7,0,0,0-2.737-4.1Z" transform="translate(-0.291 -0.29)" fill="#fff"/>
    <path id="Path_5848" data-name="Path 5848" d="M51.826,59.506l-1.232-.137a16.643,16.643,0,0,0-7.115-4.1c-4.242-1.094-10.672.411-10.672.411S25.691,51.707,21.039,48.7s-9.714-5.747-9.714-5.747,5.062-10.4,5.883-15.872,1.916-9.031,2.6-10.262,1.368-2.6,1.368-2.6,2.737,1.095,3.694.137.547-4.379.684-5.473.411-4.1.411-5.337V1.764S26.787.259,25.691.533a4.3,4.3,0,0,0-2.326,2.053c-.547.821-3.01,6.294-4.789,9.167S11.461,23.246,8.041,29.267,2.294,42.95,1.062,45.686s-.136,5.337.411,5.747S8.588,58.685,14.2,62.106s8.757,5.884,10.536,6.568,6.841,4.379,7.388,6.294-2.189,12.041-.137,18.745,2.6,11.357,2.463,13.957S32.4,113.417,32.4,118.343s2.463,13.819,2.737,15.325A83.842,83.842,0,0,1,36.5,142.7c0,1.916-.547,6.294-.274,6.841s3.695.958,4.789.684a11.64,11.64,0,0,1,3.01-.547c1.095,0,3.831.411,5.473.411s3.147.137,3.284-.411-1.368-1.232-1.916-1.368-3.968-1.368-5.61-3.284-3.421-3.694-3.831-4.789.411-14.5.958-19.019,1.231-9.578,1.5-10.81a48.9,48.9,0,0,0,2.19-8.894c.684-5.062,1.779-18.882,1.915-19.977a31.9,31.9,0,0,1,.821-3.421s8.073-1.5,9.989-1.5,4.652-.137,6.02-.821,1.642-2.873.137-4.516-6.294-3.831-7.936-6.7a26.7,26.7,0,0,0-2.737-4.1Z" transform="translate(-0.291 -0.29)" fill="none" stroke="#000" stroke-linecap="round" stroke-linejoin="round" stroke-width="1"/>
    <path id="Path_5849" data-name="Path 5849" d="M51.055,87.909l-.46-.051a16.643,16.643,0,0,0-7.115-4.1c-4.242-1.095-10.673.411-10.673.411S25.691,80.2,21.039,77.185s-9.715-5.747-9.715-5.747,5.062-10.4,5.884-15.872c.185-1.237.385-2.371.591-3.407a18.606,18.606,0,0,0-4.887-2.669c-1.693,2.8-3.448,5.76-4.871,8.265-3.421,6.02-5.747,13.683-6.978,16.42s-.137,5.336.411,5.747S8.588,87.173,14.2,90.594s8.757,5.884,10.536,6.568,6.841,4.379,7.388,6.294S29.933,115.5,31.985,122.2s2.6,11.357,2.463,13.957S32.4,141.905,32.4,146.831s2.463,13.819,2.737,15.325c.04.217.1.522.164.887a10.049,10.049,0,0,0,6.14-.355c.2-4.509.624-10.307.948-12.983.547-4.516,1.232-9.578,1.505-10.81A48.923,48.923,0,0,0,46.079,130c.684-5.063,1.779-18.882,1.915-19.977a31.873,31.873,0,0,1,.821-3.421s1.126-.21,2.636-.473c-3.736-6.956-1.493-15.123-.4-18.222" transform="translate(-0.291 -28.779)"/>
    <path id="Path_5850" data-name="Path 5850" d="M51.055,87.909l-.46-.051a16.643,16.643,0,0,0-7.115-4.1c-4.242-1.095-10.673.411-10.673.411S25.691,80.2,21.039,77.185s-9.715-5.747-9.715-5.747,5.062-10.4,5.884-15.872c.185-1.237.385-2.371.591-3.407a18.606,18.606,0,0,0-4.887-2.669c-1.693,2.8-3.448,5.76-4.871,8.265-3.421,6.02-5.747,13.683-6.978,16.42s-.137,5.336.411,5.747S8.588,87.173,14.2,90.594s8.757,5.884,10.536,6.568,6.841,4.379,7.388,6.294S29.933,115.5,31.985,122.2s2.6,11.357,2.463,13.957S32.4,141.905,32.4,146.831s2.463,13.819,2.737,15.325c.04.217.1.522.164.887a10.049,10.049,0,0,0,6.14-.355c.2-4.509.624-10.307.948-12.983.547-4.516,1.232-9.578,1.505-10.81A48.923,48.923,0,0,0,46.079,130c.684-5.063,1.779-18.882,1.915-19.977a31.873,31.873,0,0,1,.821-3.421s1.126-.21,2.636-.473C47.716,99.174,49.959,91.007,51.055,87.909Z" transform="translate(-0.291 -28.779)" fill="none" stroke="#000" stroke-linecap="round" stroke-linejoin="round" stroke-width="1"/>
    <path id="Path_5851" data-name="Path 5851" d="M147.939,123.079c2.061-5.116,1.181-6.245,1.181-8.052,0-2.737.137-7.663.137-7.663l-.161-.242q-.2-.181-.4-.359a23.841,23.841,0,0,1-1.082,5.8c-.958,2.737-3.284,4.379-6.978,1.779s-1.094-6.841-1.094-6.841,1.449-4.59,1.4-6.506c-.467-.325-.969-.671-1.478-1.018.035,1.735-.123,5.161-1.7,7.524-2.189,3.284-4.652,5.336-7.252,4.926a11.438,11.438,0,0,1-3.078-.93c-.064.407-.133.772-.206,1.067-.547,2.19-1.368,3.968-2.6,4.379a6.47,6.47,0,0,1-1.641.411s-.821,8.073,1.915,12.451,8.757,4.242,10.4,4.242,5.336-4.926,5.336-4.926a23.541,23.541,0,0,0,5.337-2.873,9.427,9.427,0,0,0,1.966-3.168" transform="translate(-71.45 -58.137)" fill="#ffe551"/>
    <path id="Path_5852" data-name="Path 5852" d="M147.939,123.079c2.061-5.116,1.181-6.245,1.181-8.052,0-2.737.137-7.663.137-7.663l-.161-.242q-.2-.181-.4-.359a23.841,23.841,0,0,1-1.082,5.8c-.958,2.737-3.284,4.379-6.978,1.779s-1.094-6.841-1.094-6.841,1.449-4.59,1.4-6.506c-.467-.325-.969-.671-1.478-1.018.035,1.735-.123,5.161-1.7,7.524-2.189,3.284-4.652,5.336-7.252,4.926a11.438,11.438,0,0,1-3.078-.93c-.064.407-.133.772-.206,1.067-.547,2.19-1.368,3.968-2.6,4.379a6.47,6.47,0,0,1-1.641.411s-.821,8.073,1.915,12.451,8.757,4.242,10.4,4.242,5.336-4.926,5.336-4.926a23.541,23.541,0,0,0,5.337-2.873A9.427,9.427,0,0,0,147.939,123.079Z" transform="translate(-71.45 -58.137)" fill="none" stroke="#000" stroke-linecap="round" stroke-linejoin="round" stroke-width="1"/>
    <path id="Path_5853" data-name="Path 5853" d="M136.878,142.806a5.053,5.053,0,0,0,3.968,4.652" transform="translate(-79.596 -83.043)" fill="none" stroke="#000" stroke-linecap="round" stroke-linejoin="round" stroke-width="1"/>
  </g>
</svg>
