<svg xmlns="http://www.w3.org/2000/svg" xmlns:xlink="http://www.w3.org/1999/xlink" width="149.273" height="166.377" viewBox="0 0 149.273 166.377">
  <defs>
    <clipPath id="clip-path">
      <rect id="Rectangle_1586" data-name="Rectangle 1586" width="149.273" height="166.376" transform="translate(88.512 6.413)" fill="none"/>
    </clipPath>
  </defs>
  <g id="Group_2624" data-name="Group 2624" transform="translate(-88.512 -6.414)" clip-path="url(#clip-path)">
    <path id="Path_11965" data-name="Path 11965" d="M277.489,33.254c.3,3.713-1.592,7.024-1.954,10.625-.111,1.106-.683,2.286.481,3.012a2.681,2.681,0,0,0,3.118-.533c1.743-1.385,3.389-2.891,5.084-4.336,3.714-3.168,6.607-2.307,8.023,2.446.591,1.981.883,4.055,1.544,6.01a2.762,2.762,0,0,0,2.768,2.225c1.336-.083,1.9-1.187,2.238-2.214.64-1.958.957-4.022,1.6-5.981,1.649-5.063,4.484-5.823,8.461-2.344a58.037,58.037,0,0,0,4.66,4.086c2.3,1.609,3.47.853,3.38-1.993-.114-3.673-2.306-7-1.737-10.774.92-.146,1.866-.388,2.367.759.572,6.046.442,12.2,4.08,17.608,2.133,3.17-.055,5.715-2.04,8.058-3.494,4.123-6.133,8.507-4.753,14.245L314.795,74c-2.867-.165-3.305,1.513-2.906,3.828l.024-.039c-.878.051-.687.43-.271.879-1.6,2.022-.167,5.531-3.323,6.794a19.964,19.964,0,0,1,.42-3.776c1.017-3.35.129-5.2-3.026-7.308-3.937-2.636-7.528.258-11.065-.745-3.141-.89-5.576.022-8.533,1.108-4.925,1.806-1.7,5.361-2.646,7.917-2.474-.648-2.175-3.2-3.278-4.784-.254-5.118-2.378-9.648-4.65-14.077a60.517,60.517,0,0,0-4.059-5.9c-1.8-2.664-2.111-5.144.5-7.661,3.223-3.1.668-7.635,2.458-11.212.675-1.349.626-3.061.908-4.608.334-1.082,1.148-1.287,2.139-1.169m43.049,20.972a3.019,3.019,0,0,0-2.1-2.945c-4.559-1.813-8.177-4.88-11.684-8.182-1.917-1.8-3.535-1.171-4.348,1.21-.824,2.41-1.375,4.913-2.187,7.327a3.879,3.879,0,0,1-3.856,3.016,4.24,4.24,0,0,1-4.26-3.22c-.616-1.974-.859-4.065-1.468-6.043-.93-3.019-2.383-4.551-5.4-1.767a36.915,36.915,0,0,1-10.1,7.158c-3.5,1.527-3.749,4.011-1.4,6.876,3.161,3.861,5.752,7.9,6.589,13.053.562,3.464,2.953,4.34,5.987,2.068a7.694,7.694,0,0,1,7.7-1.117,7.437,7.437,0,0,0,5.157-.119,7.475,7.475,0,0,1,6.789,1.029c3.874,2.4,5.641,1.818,6.472-2.406a25.2,25.2,0,0,1,5.963-11.793C319.4,57.2,320.6,56,320.538,54.226" transform="translate(-132.523 -10.144)"/>
    <path id="Path_11966" data-name="Path 11966" d="M237.57,132.45c6.986-2.613,10.514-7.363,11.076-15.086,1.228-16.906,1.283-33.811,1.091-50.732-.067-5.883-.348-11.765-.529-17.648.165-.683.636-.833,1.255-.723,1.723,6.674.612,13.5.994,20.253.568,10.02.427,20.1.143,30.141-.216,7.645-.944,15.29-1.777,22.9-.736,6.714-5.478,10.117-11.3,12.356l-.949-1.46" transform="translate(-131.233 -10.74)"/>
    <path id="Path_11967" data-name="Path 11967" d="M345.237,49.388c-.928.884-.755,2.046-.742,3.139.218,20.406-.453,40.815.664,61.219.458,8.359,2.392,15.4,10.939,18.85a1.031,1.031,0,0,1-.629,1.315c-7.707-2.674-11.3-8.329-11.821-16.246-1.544-23.378-.961-46.777-.751-70.171l2.34,1.894" transform="translate(-135.402 -10.71)"/>
    <path id="Path_11968" data-name="Path 11968" d="M286.476,118.42c1.5.553,1.5,1.878,1.614,3.14,1.287,14.393.907,28.821.849,43.241a8.8,8.8,0,0,1-.633,2.27l-2.491-.238c1.267-15.787,2.514-31.575-1.22-47.234a1.62,1.62,0,0,1,1.88-1.179" transform="translate(-133.099 -13.525)"/>
    <path id="Path_11969" data-name="Path 11969" d="M306.444,167c-1.092-1.921-.73-4.032-.729-6.071.006-14.453-.293-28.914,1.012-43.338l2.7,2.62c-2.282,5.74-1.481,11.855-1.851,17.77-.6,9.544-.288,19.144-.363,28.72l-.768.3" transform="translate(-133.935 -13.493)"/>
    <path id="Path_11970" data-name="Path 11970" d="M218.924,199.166c.018.334.036.669.054,1l-.652-.41q.292-.3.6-.593" transform="translate(-130.469 -16.731)"/>
    <path id="Path_11971" data-name="Path 11971" d="M307.429,118.139l-2.7-2.62c-6.486-.15-13.1-3.393-19.413.8a1.621,1.621,0,0,0-1.881,1.179c-6.011,5.925-9.845,7.355-14.5,4.654-4.462-2.591-6.188-7.235-7.521-11.962-.17-.6.027-1.4-.3-1.857-5.866-8.143-6.077-17.254-5.6-26.854a20.254,20.254,0,0,1,5.292-13.231c4.248-4.713,11.038-3.409,12.863,2.687a15.972,15.972,0,0,0,5.933,8.22c1.1,1.589.8,4.137,3.279,4.787.477,2.32,1,4.633,1.422,6.962.488,2.7,1.621,5.14,4.493,5.516,3.572.469,3.18-2.8,3.791-4.953.467-1.644,1.158-3.045,3.1-3.118a3.835,3.835,0,0,1,3.784,2.439,14.854,14.854,0,0,1,.951,2.7c.317,1.284.63,2.634,2.19,2.756,1.806.142,2.37-1.343,2.853-2.709.794-2.251,1.516-4.527,2.269-6.793,3.156-1.264,1.72-4.772,3.324-6.8.09-.293.18-.585.27-.878l-.024.039a3.816,3.816,0,0,0,2.906-3.828l.013.151a70.221,70.221,0,0,1,3.544-6.627c2.792-4.148,7.507-4.576,10.45-.989,7.34,8.945,9.748,19.058,6.771,30.309a13.03,13.03,0,0,1-2.077,4.775c-3.375,4.214-6.212,8.284-7.121,14.082-.953,6.073-9.8,8.173-14.786,4.3-1.25-.972-2.386-2.09-3.575-3.14m-22.06-17.1c1.158-2.54.274-4.363-2-5.7.353-2.8-5.079-2.207-3.354-6.1,1.76-3.973-.559-5.448-4.311-5.436l.067.069c-1.252-1.818-3.865-4.017-3.485-5.378.933-3.335-.1-5.794-1.525-8.415-.094-.173-.521-.164-.75-.227-1.614.355-.055,3.024-2.267,3-.98-1.138-.557-2.337-.395-3.61.306-2.411-2.239-1.391-2.242-1.146-.034,2.963-2.792,2.776-4.256,4.04-.749.645-.7,1.464-.368,2.762.686,2.657,1.582,6.208-3.411,6.786,2.372,2.3,5.04,4.181,3.485,7.156-1.2,2.3-1.384-2.045-2.873-.982-.192,1.269-.9,2.824.725,3.386,4.559,1.573.012,7.277,4.18,8.95a2.173,2.173,0,0,1-.257.874c-1.954,2.96-.147,4.874,1.847,6.744l-.062-.075c-.471,2.64-.09,4.324,3.323,3.939a3.83,3.83,0,0,1,4.534,3.583,2.352,2.352,0,0,1-1.9-.444c-1.061-.8-2.138-1.479-3.488-.762a1.132,1.132,0,0,0-.368,1.664c.693,1.178,1.2,2.8,3.193,1.88a1.139,1.139,0,0,1,1.6.4c2.934,4.213,4,4.247,7.4.261-.851-1.273-3.467-.068-3.552-2.824,2.437.7,3.613-1.29,5.3-3.04.315,1.647.52,2.722.84,4.4,3.64-4.023,9.459-5.973,5.707-13.45,2.6,1.544,3.859,3.535,6.227,2.027.4-.252,1.61,2.9,3.934,2.93-.6.688-.756,1.01-1.007,1.129a3.807,3.807,0,0,1-3.244-.072c-.562-.24-1.277-.664-1.634.1a2.33,2.33,0,0,0-.006,1.8c.978,1.927,6.6,2.141,7.859.361,1.1-1.551,5.918-1.39,6.7.292,1.741,3.738,4.978,6.048,8.128,8.342,1.912,1.392,4.663,1.584,5.971-.5.763-1.22-.183-2.9,2.555-1.979,1.48.5,2.139-1.711,1.75-3.07-.475-1.659-1.774-.8-2.708-.278-.766.431-1.3,1.552-2.466.525.392-2.24,2.005-3.131,4.015-3.3,1.924-.167,2.784-1.628,2.3-2.858-.723-1.826-1.977-.347-3.039.219-1.85.986-3.721,1.37-6.206-.847,3.967-.268,6.882-.694,5.558-5.245-.432-1.483.863-3.161,3.567-3.583-1.273,2.947-2.45,6.792,1.17,6.81,6.257.031.771-5.165,1.968-7.385,2-.482,1.8,3.081,3.6,1.525,1.656-1.429-.088-2.229-1.053-3.3-2.1-2.34-1.044-5.208,2.015-5.325,1.034-.039,1.636.485,1.506-.934-.112-1.217.514-2.685-.733-3.545-.783-.54-1.474.011-1.783.916-.25.73-.494,1.734-1.523.912a2.2,2.2,0,0,1-.53-1.724,6.079,6.079,0,0,1,2.595-4.4c1.155-.835.855-2.765.049-2.474-4.323,1.558-1.951-1.6-2.106-2.782-.548-4.156-3.115-7.005-6.031-9.653-.791-.257-1.2-.178-.655.743.075,1.442.935,3.037-.582,4.2-2.008-.427-.442-3.345-3-3.367-1.3,2.7-4.413,5.081-1.262,8.637.58.656.7,1.719-.437,1.688-3.011-.083-1.628,3.049-3.139,3.986l.061-.065c-3.964-.408-4.219,2.335-4.066,5.076a36.209,36.209,0,0,0,1.151,5.538l.049-.055c-4.776-.85-5.965.206-7.178,6.441-1.413-.214-2.373-2.605-4.382-.429-1.59,1.723-4.687.712-5.445-.735-1.872-3.574-3.864-1.192-5.832-.765-1.518.329-2.09,2.495-4,2.172" transform="translate(-131.938 -11.421)" fill="#e5c00a"/>
    <path id="Path_11972" data-name="Path 11972" d="M240.054,83.948c-2.386-.384-3.855-2.421-5.684-3.864-.566-.447-1.074-1.4-.175-2.007a1.738,1.738,0,0,1,1.667.243c1.651,1.814,3.022,2.18,4.918.122.735-.8,6.034,3.829,5.968,5.257-.043.94-.575,1.5-1.553.963-.825-.454-1.516-1.366-2.361-1.506-.81-.134-1.74.465-2.78.792" transform="translate(-131.079 -11.92)"/>
    <path id="Path_11973" data-name="Path 11973" d="M233.628,113.844c5.066-3.043,4.477-11.655,12.97-8.945-4.375,2.9-4.9,9.923-12.97,8.945" transform="translate(-131.076 -12.968)"/>
    <path id="Path_11974" data-name="Path 11974" d="M233.065,94.8c10.968-2.193,10.968-2.193,13.629.75-4.942-1.656-9.164,5.068-13.629-.75" transform="translate(-131.054 -12.526)"/>
    <path id="Path_11975" data-name="Path 11975" d="M345.757,94c3.982-.9,6.827-5.841,10.411-.119.171.273.868.234,1.326.307,1.111.176,2.845-1.54,3.223.31s-1.871,1.775-3.1,2.1c-2.183.589-4.471,1.824-6.187-1.256-1.075-1.929-3.226,1.119-5.674-1.347" transform="translate(-135.527 -12.444)"/>
    <path id="Path_11976" data-name="Path 11976" d="M361.286,77.34c-3.4,2.533-4.179,7.267-9.1,4.659-.769-.407-1.129.07-1.662.328-.945.46-1.635,2.681-2.852,1-.813-1.124.836-2.2,1.638-3.107,1.542-1.743,2.849-3.916,5.807-1.664,1.616,1.229,2.75-1.784,6.168-1.22" transform="translate(-135.594 -11.892)"/>
    <path id="Path_11977" data-name="Path 11977" d="M356.122,113.258c-2.7,2.372-5.618-.6-5.336-1.52,1.2-3.909-2.462-3.657-4-5.222,5.053-2.087,8.4.175,8.075,5.115a1.33,1.33,0,0,0,1.273,1.621Z" transform="translate(-135.568 -13.022)"/>
    <path id="Path_11978" data-name="Path 11978" d="M356.521,113.557l.114-.106-.129.112.014-.007" transform="translate(-135.954 -13.329)" fill="#b1896a"/>
    <path id="Path_11979" data-name="Path 11979" d="M316.518,75.689a3.815,3.815,0,0,1-2.907,3.828c-.4-2.314.039-3.993,2.907-3.828" transform="translate(-134.246 -11.829)" fill="#f0d3b9"/>
    <path id="Path_11980" data-name="Path 11980" d="M313.616,79.635l-.27.878c-.417-.448-.608-.827.27-.878" transform="translate(-134.227 -11.986)" fill="#f0d3b9"/>
    <path id="Path_11981" data-name="Path 11981" d="M315.081,83.956c1.511-.938.129-4.07,3.139-3.987,1.138.031,1.017-1.032.436-1.688-3.15-3.556-.04-5.94,1.262-8.637,2.563.022,1,2.94,3,3.367,1.517-1.157.657-2.752.582-4.2q.328-.373.655-.748c2.914,2.653,5.482,5.5,6.031,9.658.156,1.181-2.217,4.34,2.106,2.782.806-.29,1.105,1.638-.049,2.474a6.086,6.086,0,0,0-2.6,4.4,2.212,2.212,0,0,0,.53,1.724c1.03.821,1.274-.182,1.524-.913.309-.9,1-1.455,1.783-.915,1.247.859.62,2.328.732,3.545.132,1.418-.471.9-1.5.934-3.059.117-4.115,2.984-2.015,5.324.965,1.076,2.709,1.875,1.053,3.305-1.8,1.555-1.6-2.007-3.6-1.526-1.2,2.219,4.29,7.416-1.968,7.385-3.619-.018-2.443-3.863-1.17-6.81-2.7.422-4,2.1-3.568,3.583,1.324,4.551-1.59,4.976-5.557,5.244,2.484,2.217,4.356,1.834,6.206.848,1.061-.566,2.316-2.046,3.039-.219.487,1.229-.373,2.69-2.3,2.857-2.01.175-3.623,1.064-4.015,3.3,1.162,1.027,1.7-.093,2.466-.524.934-.526,2.233-1.382,2.707.278.389,1.358-.269,3.568-1.749,3.07-2.738-.923-1.791.76-2.554,1.978-1.308,2.088-4.06,1.9-5.971.5-3.15-2.294-6.387-4.6-8.129-8.342-.783-1.681-5.6-1.843-6.7-.292-1.264,1.78-6.883,1.566-7.859-.36a2.334,2.334,0,0,1,0-1.8c.357-.766,1.073-.343,1.634-.1a3.8,3.8,0,0,0,3.244.073c.252-.119.407-.443,1.007-1.129-2.324-.03-3.539-3.182-3.934-2.931-2.368,1.508-3.628-.482-6.227-2.027,3.751,7.478-2.068,9.427-5.708,13.45-.32-1.676-.524-2.75-.839-4.4-1.689,1.75-2.865,3.737-5.3,3.039.086,2.756,2.7,1.551,3.552,2.824-3.392,3.987-4.462,3.952-7.4-.261a1.138,1.138,0,0,0-1.6-.4c-1.994.922-2.5-.7-3.193-1.88a1.132,1.132,0,0,1,.368-1.664c1.35-.718,2.427-.036,3.488.761a2.348,2.348,0,0,0,1.9.444,3.832,3.832,0,0,0-4.535-3.583c-3.412.386-3.792-1.3-3.321-3.938,3.359-.847,6.444,4.284,10.987.01-4.637.453-6.766-.518-5.664-4.886.351-1.391-.958-3.144-4.844-3.7,5.246,4.393.995,6.14-.418,8.652-1.995-1.869-3.8-3.784-1.847-6.744a2.164,2.164,0,0,0,.256-.874c-4.168-1.673.379-7.376-4.179-8.949-1.629-.562-.917-2.118-.725-3.387,1.489-1.062,1.67,3.285,2.873.982,1.555-2.975-1.113-4.859-3.485-7.156,4.993-.577,4.1-4.127,3.41-6.785-.334-1.3-.38-2.117.368-2.763,1.465-1.263,4.223-1.077,4.257-4.04,0-.245,2.549-1.266,2.242,1.147-.162,1.272-.586,2.471.395,3.609,2.213.022.653-2.647,2.267-3,.229.063.656.055.75.228,1.427,2.621,2.458,5.08,1.525,8.414-.381,1.362,2.233,3.561,3.484,5.378-4.773-.308-8.626,2.933-13.336,2.961,2.13,1.343,4.565.5,6.1,1.819-2.9,4.592,3.311,3.748,3.084,6.834,2.185-2.516.067-4.114-.076-5.841-.339-4.1,1.076-4.4,4.193-2.972.563,1.783-1.781,2.417-1.736,4.05,2.005.91,3.233.207,3.615-1.682.266-1.316.006-2.64-1.944-2.3q.016-1.468.033-2.935c3.751-.012,6.07,1.463,4.31,5.435-1.725,3.893,3.707,3.3,3.354,6.1l.052-.037c-3.669.3-3.065,2.891-2.778,5.262.135,1.116,1.73,2.231.1,3.323-2.086,1.4-.424,1.982.567,2.472,1.414.7,2.707.266,3.94-.747,2-1.645-.338-2.731-.4-4.095l.526-.48c1.909.323,2.481-1.842,4-2.171,1.967-.427,3.96-2.81,5.832.764.758,1.447,3.855,2.457,5.445.735,2.009-2.176,2.969.216,4.382.43,1.213-6.236,2.4-7.291,7.178-6.442-.59,4.3,2.325,7.858,2.364,12.17,1.247-2.867,1.893-5.863,5.89-7.072-6.4-1.27-6.4-1.27-5.077-6.5-.148-.041-.339-.165-.436-.112-.939.505-1.862,1.04-2.79,1.567a36.017,36.017,0,0,1-1.151-5.539c-.153-2.74.1-5.484,4.066-5.076.486.767-.224,2.576.851,2.407,6.06-.952,2.314,3.529,2.941,5.407.275.821-1.422,2.1.532,3.825-.9-3.3,6.717-1.863,2.636-6.594,1.671-1.713,4.448-.369,6.25-2.482-4.921,1.157-8.527-3.347-13.271-2.5m-38.865,22.726c3.692-8.826,3.555-11.442-1.4-14.005,4.26,5.791.56,6.556-4,7.079,4.414.535,3.911,4.377,5.4,6.926m32.3-11.12c1.464,3.594-1.156,5.4-2.653,7.637a1.814,1.814,0,0,0,.57,2.817,3.156,3.156,0,0,0,4.325-.136c1.413-1.234.374-1.636-.718-2.27-1.317-.766-.009-1.566.275-2.319.762-2.031.976-3.947-1.8-5.728m19.839-17.387c-2.371,1.492-4.816.549-8.134.778l7.751,6.189c-1.265-3.133-.577-4.851.383-6.967m-58.594.619c-2.51,1-4.741-.19-7.819-.568a18.525,18.525,0,0,1,2.452,6.087c.858-2.91,4.079-2.8,5.367-5.52m37.764,32.158c2.4-.036,4.639-1.253,7.179,1.014-2.186-4.9-4.245-5.01-7.179-1.014m18.922-19.863c-.258,2.834-1.971,4.37-4.975,5.341,2.377,1.506,3.911,1.161,5.185-.188,1.449-1.536,1.461-3.266-.209-5.153m-62.11-.012c-1.547,1.975-1.6,3.835.081,5.413,1.337,1.254,2.871,1.371,5.39-.263-3.75-.52-5-2.38-5.471-5.15m19.41,18.941a8.54,8.54,0,0,0-1.805-1.549,4.082,4.082,0,0,0-4.779.657,1.37,1.37,0,0,0-.307,1.231c1.134,1.99,2.38-.447,3.665.02a2.56,2.56,0,0,0,3.228-.359m13.763-2.571c2.3,1.922,3.852,1.48,5.137.072,1.5-1.642,1.687-3.438-.46-6.189-.083,3.677-1.269,5.611-4.677,6.117M319.192,74.97c3.488,3.392,5.4,2.949,7.153-1.662a7.772,7.772,0,0,1-7.153,1.662m-2.6,41.1c-.973-1.448-2.9.205-3.835-1.386-.4-.682-.511-2.824-2.053-1.125-.816.9-.15,2.2.717,2.947,1.822,1.576,3.624,1.778,5.171-.437" transform="translate(-132.009 -11.515)" fill="#ffe551"/>
    <path id="Path_11982" data-name="Path 11982" d="M284.491,96.578c2.275,1.335,3.158,3.158,2,5.7l-.523.477c-3.638-1.344-2.1-3.877-1.427-6.212Z" transform="translate(-133.061 -12.657)" fill="#ffe551"/>
    <path id="Path_11983" data-name="Path 11983" d="M326.238,68.822c-.545-.92-.136-1,.655-.745q-.327.37-.655.745" transform="translate(-134.742 -11.522)" fill="#b1896a"/>
    <path id="Path_11984" data-name="Path 11984" d="M288.173,77.977c6.127,4.088,11.491,3.569,17.976.234-2.963,5.1-6.908,4.486-10.219,4.664-2.863.155-5.923-.43-7.757-4.9" transform="translate(-133.241 -11.92)"/>
    <path id="Path_11985" data-name="Path 11985" d="M317.476,84.621c4.744-.85,8.351,3.653,13.271,2.5-1.8,2.114-4.578.768-6.249,2.481,4.081,4.732-3.535,3.293-2.636,6.6-1.954-1.722-.257-3-.532-3.826-.627-1.878,3.119-6.359-2.941-5.408-1.075.169-.365-1.639-.851-2.406l-.061.065" transform="translate(-134.404 -12.18)" fill="#e5c00a"/>
    <path id="Path_11986" data-name="Path 11986" d="M276.03,87.435c-3.116-1.427-4.533-1.125-4.193,2.972.142,1.728,2.261,3.325.075,5.841.227-3.085-5.986-2.241-3.084-6.834-1.536-1.316-3.971-.475-6.1-1.819,4.708-.028,8.563-3.269,13.335-2.96L276,84.567q-.016,1.468-.033,2.935Z" transform="translate(-132.231 -12.182)" fill="#e5c00a"/>
    <path id="Path_11987" data-name="Path 11987" d="M314.5,95.545c.928-.526,1.851-1.062,2.79-1.567.1-.053.289.071.436.113-1.318,5.227-1.318,5.227,5.078,6.5-4,1.209-4.644,4.205-5.891,7.073-.039-4.313-2.953-7.875-2.364-12.171l-.049.056" transform="translate(-134.285 -12.555)" fill="#e5c00a"/>
    <path id="Path_11988" data-name="Path 11988" d="M276.782,107.711c-1.488-2.549-.985-6.391-5.4-6.927,4.556-.522,8.256-1.288,4-7.078,4.958,2.563,5.1,5.179,1.4,14.005" transform="translate(-132.575 -12.545)" fill="#e5c00a"/>
    <path id="Path_11989" data-name="Path 11989" d="M310.508,96.71c2.773,1.78,2.56,3.7,1.8,5.727-.282.754-1.591,1.554-.274,2.319,1.092.635,2.131,1.037.717,2.271a3.157,3.157,0,0,1-4.325.136,1.816,1.816,0,0,1-.57-2.818c1.5-2.241,4.119-4.042,2.653-7.636" transform="translate(-134.005 -12.664)" fill="#e5c00a"/>
    <path id="Path_11990" data-name="Path 11990" d="M284.428,96.541c-.677,2.335-2.211,4.868,1.426,6.212.062,1.366,2.4,2.451.4,4.1-1.233,1.014-2.527,1.447-3.939.748-.992-.49-2.654-1.077-.569-2.472,1.634-1.093.038-2.208-.1-3.323-.287-2.371-.892-4.959,2.777-5.262" transform="translate(-132.946 -12.657)" fill="#e5c00a"/>
    <path id="Path_11991" data-name="Path 11991" d="M264.539,109.214c1.413-2.512,5.664-4.259.418-8.652,3.885.557,5.194,2.311,4.844,3.7-1.1,4.368,1.027,5.338,5.664,4.885-4.543,4.274-7.628-.856-10.987-.009l.061.074" transform="translate(-132.301 -12.817)" fill="#e5c00a"/>
    <path id="Path_11992" data-name="Path 11992" d="M330.959,78.6c-.96,2.116-1.647,3.835-.382,6.967l-7.752-6.189c3.319-.229,5.763.714,8.134-.778" transform="translate(-134.617 -11.945)" fill="#e5c00a"/>
    <path id="Path_11993" data-name="Path 11993" d="M269.956,79.226c-1.288,2.717-4.51,2.61-5.367,5.52a18.514,18.514,0,0,0-2.452-6.087c3.078.377,5.309,1.565,7.819.568" transform="translate(-132.208 -11.947)" fill="#e5c00a"/>
    <path id="Path_11994" data-name="Path 11994" d="M309.6,112.619c2.936-4,4.995-3.882,7.179,1.014-2.54-2.267-4.781-1.051-7.179-1.014" transform="translate(-134.092 -13.183)" fill="#e5c00a"/>
    <path id="Path_11995" data-name="Path 11995" d="M329.1,92.052c1.671,1.887,1.658,3.618.209,5.154-1.273,1.348-2.807,1.694-5.185.187,3-.971,4.717-2.506,4.975-5.341" transform="translate(-134.668 -12.479)" fill="#e5c00a"/>
    <path id="Path_11996" data-name="Path 11996" d="M264.583,92.04c.474,2.771,1.722,4.63,5.471,5.15-2.519,1.634-4.053,1.517-5.39.264-1.683-1.579-1.628-3.439-.081-5.414" transform="translate(-132.258 -12.479)" fill="#e5c00a"/>
    <path id="Path_11997" data-name="Path 11997" d="M284.557,111.68a2.561,2.561,0,0,1-3.229.359c-1.285-.467-2.529,1.97-3.664-.02a1.368,1.368,0,0,1,.307-1.231,4.081,4.081,0,0,1,4.779-.657,8.55,8.55,0,0,1,1.806,1.549" transform="translate(-132.822 -13.178)" fill="#e5c00a"/>
    <path id="Path_11998" data-name="Path 11998" d="M299.176,108.834c3.407-.506,4.594-2.44,4.677-6.117,2.146,2.751,1.956,4.547.46,6.189-1.286,1.408-2.84,1.85-5.137-.072" transform="translate(-133.678 -12.902)" fill="#e5c00a"/>
    <path id="Path_11999" data-name="Path 11999" d="M321.757,75.2a7.774,7.774,0,0,0,7.153-1.663c-1.749,4.611-3.665,5.055-7.153,1.663" transform="translate(-134.574 -11.744)" fill="#e5c00a"/>
    <path id="Path_12000" data-name="Path 12000" d="M318.792,117.938c-1.547,2.215-3.35,2.013-5.171.437-.867-.75-1.534-2.047-.717-2.947,1.542-1.7,1.653.443,2.053,1.125.933,1.591,2.863-.062,3.835,1.386" transform="translate(-134.208 -13.382)" fill="#e5c00a"/>
    <path id="Path_12001" data-name="Path 12001" d="M276.442,87.62c1.95-.337,2.211.986,1.945,2.3-.381,1.889-1.61,2.592-3.615,1.682-.045-1.633,2.3-2.265,1.736-4.05l-.066.066" transform="translate(-132.709 -12.301)" fill="#e5c00a"/>
  </g>
</svg>
