<svg id="Group_2779" data-name="Group 2779" xmlns="http://www.w3.org/2000/svg" xmlns:xlink="http://www.w3.org/1999/xlink" width="472.895" height="428.723" viewBox="0 0 472.895 428.723">
  <defs>
    <clipPath id="clip-path">
      <rect id="Rectangle_1645" data-name="Rectangle 1645" width="472.895" height="428.723" fill="none"/>
    </clipPath>
    <clipPath id="clip-path-3">
      <rect id="Rectangle_1626" data-name="Rectangle 1626" width="469.504" height="385.147" transform="translate(0 42.784)" fill="none"/>
    </clipPath>
    <clipPath id="clip-path-5">
      <rect id="Rectangle_1628" data-name="Rectangle 1628" width="108.218" height="34.607" transform="translate(89.956)" fill="none"/>
    </clipPath>
    <clipPath id="clip-path-6">
      <rect id="Rectangle_1629" data-name="Rectangle 1629" width="66.219" height="21.176" transform="translate(41.464 4.048)" fill="none"/>
    </clipPath>
    <clipPath id="clip-path-7">
      <rect id="Rectangle_1630" data-name="Rectangle 1630" width="66.218" height="21.175" transform="translate(399.544 94.06)" fill="none"/>
    </clipPath>
    <clipPath id="clip-path-9">
      <rect id="Rectangle_1632" data-name="Rectangle 1632" width="156.699" height="156.699" transform="translate(221.9 12.997)" fill="none"/>
    </clipPath>
    <clipPath id="clip-path-10">
      <rect id="Rectangle_1633" data-name="Rectangle 1633" width="104.097" height="104.097" transform="translate(28.281 152.131)" fill="none"/>
    </clipPath>
    <clipPath id="clip-path-11">
      <rect id="Rectangle_1634" data-name="Rectangle 1634" width="104.097" height="104.097" transform="translate(366.798 152.131)" fill="none"/>
    </clipPath>
  </defs>
  <g id="Group_2778" data-name="Group 2778" clip-path="url(#clip-path)">
    <g id="Group_2749" data-name="Group 2749">
      <g id="Group_2748" data-name="Group 2748" clip-path="url(#clip-path)">
        <path id="Path_12537" data-name="Path 12537" d="M103,400.766s67.21,44.22,148.885,19.823,137.263-98.8,183.887-157.9,44.385-131.31-3.386-175.637S336.7,79.219,259.12,62.649,163.394,29.891,89.26,58.295-20.493,187.788,12.149,276.971,103,400.766,103,400.766" fill="#fbe551"/>
        <g id="Group_2747" data-name="Group 2747" opacity="0.7">
          <g id="Group_2746" data-name="Group 2746">
            <g id="Group_2745" data-name="Group 2745" clip-path="url(#clip-path-3)">
              <path id="Path_12538" data-name="Path 12538" d="M103,400.766s67.21,44.22,148.885,19.823,137.263-98.8,183.887-157.9,44.385-131.31-3.386-175.637S336.7,79.219,259.12,62.649,163.394,29.891,89.26,58.295-20.493,187.788,12.149,276.971,103,400.766,103,400.766" fill="#fff"/>
            </g>
          </g>
        </g>
      </g>
    </g>
    <g id="Group_2760" data-name="Group 2760">
      <g id="Group_2759" data-name="Group 2759" clip-path="url(#clip-path)">
        <path id="Path_12539" data-name="Path 12539" d="M194.6,28.2c-4.7-2.562-6.834-.427-8.542-2.562s4.7-7.689-8.116-13.241c0,0-.853-11.959-18.365-12.386S146.762,11.97,142.063,14.96s-5.979-1.709-10.677,1.281-2.563,8.97-6.407,9.824-8.97-3.844-13.668-.854-4.7,5.552-6.833,5.552-6.407-1.709-8.97,0-5.552,3.844-5.552,3.844H198.015S199.3,30.763,194.6,28.2" fill="#fbe551"/>
        <g id="Group_2752" data-name="Group 2752" opacity="0.5">
          <g id="Group_2751" data-name="Group 2751">
            <g id="Group_2750" data-name="Group 2750" clip-path="url(#clip-path-5)">
              <path id="Path_12540" data-name="Path 12540" d="M194.6,28.2c-4.7-2.562-6.834-.427-8.542-2.562s4.7-7.689-8.116-13.241c0,0-.853-11.959-18.365-12.386S146.762,11.97,142.063,14.96s-5.979-1.709-10.677,1.281-2.563,8.97-6.407,9.824-8.97-3.844-13.668-.854-4.7,5.552-6.833,5.552-6.407-1.709-8.97,0-5.552,3.844-5.552,3.844H198.015S199.3,30.763,194.6,28.2" fill="#fff"/>
            </g>
          </g>
        </g>
        <path id="Path_12541" data-name="Path 12541" d="M105.494,21.3c-2.875-1.568-4.182-.261-5.227-1.568s2.875-4.7-4.966-8.1c0,0-.522-7.317-11.237-7.579S76.223,11.373,73.348,13.2s-3.659-1.045-6.534.784S65.246,19.475,62.894,20s-5.488-2.352-8.363-.522-2.875,3.4-4.181,3.4-3.921-1.045-5.489,0-3.4,2.352-3.4,2.352h66.121s.784-2.352-2.091-3.92" fill="#fbe551"/>
        <g id="Group_2755" data-name="Group 2755" opacity="0.5">
          <g id="Group_2754" data-name="Group 2754">
            <g id="Group_2753" data-name="Group 2753" clip-path="url(#clip-path-6)">
              <path id="Path_12542" data-name="Path 12542" d="M105.494,21.3c-2.875-1.568-4.182-.261-5.227-1.568s2.875-4.7-4.966-8.1c0,0-.522-7.317-11.237-7.579S76.223,11.373,73.348,13.2s-3.659-1.045-6.534.784S65.246,19.475,62.894,20s-5.488-2.352-8.363-.522-2.875,3.4-4.181,3.4-3.921-1.045-5.489,0-3.4,2.352-3.4,2.352h66.121s.784-2.352-2.091-3.92" fill="#fff"/>
            </g>
          </g>
        </g>
        <path id="Path_12543" data-name="Path 12543" d="M463.574,111.315c-2.875-1.568-4.181-.261-5.227-1.568s2.875-4.7-4.966-8.1c0,0-.522-7.317-11.237-7.579s-7.841,7.318-10.716,9.147-3.658-1.045-6.533.784-1.569,5.489-3.921,6.011-5.488-2.352-8.363-.522-2.875,3.4-4.181,3.4-3.921-1.045-5.489,0-3.4,2.352-3.4,2.352h66.121s.784-2.352-2.091-3.92" fill="#fbe551"/>
        <g id="Group_2758" data-name="Group 2758" opacity="0.5">
          <g id="Group_2757" data-name="Group 2757">
            <g id="Group_2756" data-name="Group 2756" clip-path="url(#clip-path-7)">
              <path id="Path_12544" data-name="Path 12544" d="M463.574,111.315c-2.875-1.568-4.181-.261-5.227-1.568s2.875-4.7-4.966-8.1c0,0-.522-7.317-11.237-7.579s-7.841,7.318-10.716,9.147-3.658-1.045-6.533.784-1.569,5.489-3.921,6.011-5.488-2.352-8.363-.522-2.875,3.4-4.181,3.4-3.921-1.045-5.489,0-3.4,2.352-3.4,2.352h66.121s.784-2.352-2.091-3.92" fill="#fff"/>
            </g>
          </g>
        </g>
      </g>
    </g>
    <g id="Group_2771" data-name="Group 2771">
      <g id="Group_2770" data-name="Group 2770" clip-path="url(#clip-path)">
        <path id="Path_12545" data-name="Path 12545" d="M239.483,140.72s40.309,3.988,60.739,28.976c0,0,21.585-28.948,60.353-28.355a78.35,78.35,0,1,0-121.1-.554Z" fill="#fbe551"/>
        <g id="Group_2763" data-name="Group 2763" opacity="0.5">
          <g id="Group_2762" data-name="Group 2762">
            <g id="Group_2761" data-name="Group 2761" clip-path="url(#clip-path-9)">
              <path id="Path_12546" data-name="Path 12546" d="M239.483,140.72s40.309,3.988,60.739,28.976c0,0,21.585-28.948,60.353-28.355a78.35,78.35,0,1,0-121.1-.554Z" fill="#fbe551"/>
            </g>
          </g>
        </g>
        <path id="Path_12547" data-name="Path 12547" d="M298.889,18.521,297.528,427.47h6.8Z" fill="#828282"/>
        <path id="Path_12548" data-name="Path 12548" d="M300.93,162.08s13.607-24.493,38.1-31.977c0,0-25.853,6.123-38.78,27.214Z" fill="#828282"/>
        <path id="Path_12549" data-name="Path 12549" d="M299.446,93.344S314.537,68.188,339.03,60.7c0,0-26.657,7.671-39.584,28.762Z" fill="#828282"/>
        <path id="Path_12550" data-name="Path 12550" d="M299.975,129.125S314.537,102.888,339.03,95.4c0,0-26.48,7.343-39.408,28.434Z" fill="#828282"/>
        <path id="Path_12551" data-name="Path 12551" d="M298.913,110.371s-13.13-24.492-36.764-31.976c0,0,24.947,6.123,37.42,27.214Z" fill="#828282"/>
        <path id="Path_12552" data-name="Path 12552" d="M298.913,144.39s-13.13-24.493-36.764-31.977c0,0,24.947,6.123,37.42,27.214Z" fill="#828282"/>
        <path id="Path_12553" data-name="Path 12553" d="M39.962,236.979s26.778,2.649,40.35,19.249c0,0,14.338-19.23,40.093-18.836a52.05,52.05,0,1,0-80.451-.368Z" fill="#fbe551"/>
        <path id="Path_12554" data-name="Path 12554" d="M39.962,236.979s26.778,2.649,40.35,19.249c0,0,14.338-19.23,40.093-18.836a52.05,52.05,0,1,0-80.451-.368Z" fill="#fbe551"/>
        <g id="Group_2766" data-name="Group 2766" opacity="0.5">
          <g id="Group_2765" data-name="Group 2765">
            <g id="Group_2764" data-name="Group 2764" clip-path="url(#clip-path-10)">
              <path id="Path_12555" data-name="Path 12555" d="M39.962,236.979s26.778,2.649,40.35,19.249c0,0,14.338-19.23,40.093-18.836a52.05,52.05,0,1,0-80.451-.368Z" fill="#fff"/>
            </g>
          </g>
        </g>
        <path id="Path_12556" data-name="Path 12556" d="M79.426,155.8l-.9,271.669h4.52Z" fill="#828282"/>
        <path id="Path_12557" data-name="Path 12557" d="M80.782,251.168s9.04-16.271,25.311-21.243c0,0-17.175,4.068-25.763,18.079Z" fill="#828282"/>
        <path id="Path_12558" data-name="Path 12558" d="M79.8,205.507s10.025-16.711,26.3-21.683c0,0-17.708,5.1-26.3,19.107Z" fill="#828282"/>
        <path id="Path_12559" data-name="Path 12559" d="M80.147,229.276s9.674-17.43,25.945-22.4c0,0-17.592,4.878-26.179,18.889Z" fill="#828282"/>
        <path id="Path_12560" data-name="Path 12560" d="M79.442,216.818s-8.723-16.271-24.423-21.243c0,0,16.573,4.068,24.859,18.079Z" fill="#828282"/>
        <path id="Path_12561" data-name="Path 12561" d="M79.442,239.417s-8.723-16.271-24.423-21.243c0,0,16.573,4.068,24.859,18.079Z" fill="#828282"/>
        <path id="Path_12562" data-name="Path 12562" d="M378.478,236.979s26.778,2.649,40.35,19.249c0,0,14.339-19.23,40.093-18.836a52.05,52.05,0,1,0-80.451-.368Z" fill="#fbe551"/>
        <g id="Group_2769" data-name="Group 2769" opacity="0.3">
          <g id="Group_2768" data-name="Group 2768">
            <g id="Group_2767" data-name="Group 2767" clip-path="url(#clip-path-11)">
              <path id="Path_12563" data-name="Path 12563" d="M378.478,236.979s26.778,2.649,40.35,19.249c0,0,14.339-19.23,40.093-18.836a52.05,52.05,0,1,0-80.451-.368Z" fill="#fff"/>
            </g>
          </g>
        </g>
        <path id="Path_12564" data-name="Path 12564" d="M417.942,155.8l-.9,271.669h4.52Z" fill="#828282"/>
        <path id="Path_12565" data-name="Path 12565" d="M419.3,251.168s9.039-16.271,25.311-21.243c0,0-17.175,4.068-25.763,18.079Z" fill="#828282"/>
        <path id="Path_12566" data-name="Path 12566" d="M418.313,205.507s10.025-16.711,26.3-21.683c0,0-17.708,5.1-26.3,19.107Z" fill="#828282"/>
        <path id="Path_12567" data-name="Path 12567" d="M418.664,229.276s9.674-17.43,25.945-22.4c0,0-17.592,4.878-26.179,18.889Z" fill="#828282"/>
        <path id="Path_12568" data-name="Path 12568" d="M417.958,216.818s-8.723-16.271-24.423-21.243c0,0,16.573,4.068,24.859,18.079Z" fill="#828282"/>
        <path id="Path_12569" data-name="Path 12569" d="M417.958,239.417s-8.723-16.271-24.423-21.243c0,0,16.573,4.068,24.859,18.079Z" fill="#828282"/>
      </g>
    </g>
    <g id="Group_2773" data-name="Group 2773">
      <g id="Group_2772" data-name="Group 2772" clip-path="url(#clip-path)">
        <path id="Path_12570" data-name="Path 12570" d="M143.215,361.365a62.827,62.827,0,0,1-.7,48.872l-7.162,16.208a5,5,0,0,0-.32,1.025h6.662l5.836-13.209a72.837,72.837,0,0,0,.816-56.657L135.278,325.57a6.937,6.937,0,0,1,6.423-9.557h29.778c2.748,0,4.977,2.857,4.977.109a4.978,4.978,0,0,0-4.977-4.978H145.79a16.866,16.866,0,0,0-14.02,7.47c-3.144,4.678-3.749,5.5-1.621,10.717Z" fill="#a2a2a2"/>
        <rect id="Rectangle_1636" data-name="Rectangle 1636" width="3.947" height="142.712" transform="translate(167.531 284.394)" fill="#a2a2a2"/>
        <rect id="Rectangle_1637" data-name="Rectangle 1637" width="3.947" height="142.712" transform="translate(451.948 284.394)" fill="#a2a2a2"/>
        <rect id="Rectangle_1638" data-name="Rectangle 1638" width="288.126" height="20.721" transform="translate(165.558 274.527)" fill="#bdbdbd"/>
        <rect id="Rectangle_1639" data-name="Rectangle 1639" width="288.126" height="20.722" transform="translate(165.558 299.194)" fill="#bdbdbd"/>
        <rect id="Rectangle_1640" data-name="Rectangle 1640" width="309.457" height="6.907" transform="translate(144.227 347.545)" fill="#bdbdbd"/>
        <rect id="Rectangle_1641" data-name="Rectangle 1641" width="49.217" height="6.907" transform="translate(404.467 347.545)" fill="#878787"/>
        <path id="Path_12571" data-name="Path 12571" d="M411.161,325.57a6.937,6.937,0,0,1,6.424-9.557h36.09v-4.869h-32a16.867,16.867,0,0,0-14.02,7.47c-3.143,4.678-3.749,5.5-1.621,10.717L419.1,361.365a62.831,62.831,0,0,1-.7,48.872l-7.162,16.208a4.939,4.939,0,0,0-.321,1.025h6.662l5.837-13.209a72.837,72.837,0,0,0,.815-56.657Z" fill="#a2a2a2"/>
      </g>
    </g>
    <g id="Group_2775" data-name="Group 2775">
      <g id="Group_2774" data-name="Group 2774" clip-path="url(#clip-path)">
        <path id="Path_12572" data-name="Path 12572" d="M273.47,84.511s.308.055.82.18c2.286.561,8.644,2.532,9.975,7.356,1.629,5.907-5.5,10.8-6.314,11.813s-10.591-14.868-11.61-15.479,1.222-6.925,7.129-3.87" fill="#c7c7c7"/>
        <path id="Path_12573" data-name="Path 12573" d="M273.47,84.511s.308.055.82.18c2.286.561,8.644,2.532,9.975,7.356,1.629,5.907-5.5,10.8-6.314,11.813s-10.591-14.868-11.61-15.479S267.563,81.456,273.47,84.511Z" fill="none" stroke="#898989" stroke-linecap="round" stroke-linejoin="round" stroke-width="1"/>
        <path id="Path_12574" data-name="Path 12574" d="M281.2,402.971l2,5.167s-4.167,1.666-3,2.666a32.438,32.438,0,0,0,3,2.167s1.5,11.667,1.5,12.333a3.184,3.184,0,0,0,1.167,2.334c.666.333,8.666-.334,13.333-1.667s21.167-8.667,23.5-10.333,8-6.667,8.167-8.167.5-3-1-3.167-13.834,2-18.834,2a25.069,25.069,0,0,1-9.5-1.666c-.5-.334-1.5-5-2.5-5.334s-3.833.5-3.833.5l-.833-3-14.334,3.834Z" fill="#fff"/>
        <path id="Path_12575" data-name="Path 12575" d="M281.2,402.971l2,5.167s-4.167,1.666-3,2.666a32.438,32.438,0,0,0,3,2.167s1.5,11.667,1.5,12.333a3.184,3.184,0,0,0,1.167,2.334c.666.333,8.666-.334,13.333-1.667s21.167-8.667,23.5-10.333,8-6.667,8.167-8.167.5-3-1-3.167-13.834,2-18.834,2a25.069,25.069,0,0,1-9.5-1.666c-.5-.334-1.5-5-2.5-5.334s-3.833.5-3.833.5l-.833-3-14.334,3.834Z" fill="none" stroke="#263238" stroke-linecap="round" stroke-linejoin="round" stroke-width="1"/>
        <path id="Path_12576" data-name="Path 12576" d="M295.7,406.971c-1,1.5-7.667,3.167-9.333,2.167a6.778,6.778,0,0,0-3.167-1s-4.167,1.666-3,2.666a32.438,32.438,0,0,0,3,2.167s1.5,11.667,1.5,12.333a3.184,3.184,0,0,0,1.167,2.334c.666.333,8.666-.334,13.333-1.667s21.167-8.667,23.5-10.333,8-6.667,8.167-8.167.5-3-1-3.167-13.834,2-18.834,2a25.069,25.069,0,0,1-9.5-1.666c-.5-.334-1.5-5-2.5-5.334s-3.833.5-3.833.5c-.667.667,1.5,5.667.5,7.167" fill="#fff"/>
        <path id="Path_12577" data-name="Path 12577" d="M295.7,406.971c-1,1.5-7.667,3.167-9.333,2.167a6.778,6.778,0,0,0-3.167-1s-4.167,1.666-3,2.666a32.438,32.438,0,0,0,3,2.167s1.5,11.667,1.5,12.333a3.184,3.184,0,0,0,1.167,2.334c.666.333,8.666-.334,13.333-1.667s21.167-8.667,23.5-10.333,8-6.667,8.167-8.167.5-3-1-3.167-13.834,2-18.834,2a25.069,25.069,0,0,1-9.5-1.666c-.5-.334-1.5-5-2.5-5.334s-3.833.5-3.833.5C294.536,400.471,296.7,405.471,295.7,406.971Z" fill="none" stroke="#263238" stroke-linecap="round" stroke-linejoin="round" stroke-width="1"/>
        <path id="Path_12578" data-name="Path 12578" d="M320.2,412.8c-4.833,3.333-11.333,5-21,7.167-7.447,1.669-12.7,2.742-14.732,3.147.139,1.176.232,2.02.232,2.186a3.181,3.181,0,0,0,1.167,2.333c.666.334,8.666-.333,13.333-1.666s21.167-8.667,23.5-10.334,8-6.666,8.167-8.166.5-3-1-3.167c-1.334,1.833-4.834,5.167-9.667,8.5" fill="#fff"/>
        <path id="Path_12579" data-name="Path 12579" d="M320.2,412.8c-4.833,3.333-11.333,5-21,7.167-7.447,1.669-12.7,2.742-14.732,3.147.139,1.176.232,2.02.232,2.186a3.181,3.181,0,0,0,1.167,2.333c.666.334,8.666-.333,13.333-1.666s21.167-8.667,23.5-10.334,8-6.666,8.167-8.166.5-3-1-3.167C328.536,406.138,325.036,409.472,320.2,412.8Z" fill="none" stroke="#263238" stroke-linecap="round" stroke-linejoin="round" stroke-width="1"/>
        <path id="Path_12580" data-name="Path 12580" d="M278.7,398.638s0,4.5,2.5,5,12.167-2.167,14-3.833-1.167-6.167-1.167-6.167l-15.666,3.833Z" fill="#263238"/>
        <path id="Path_12581" data-name="Path 12581" d="M278.7,398.638s0,4.5,2.5,5,12.167-2.167,14-3.833-1.167-6.167-1.167-6.167l-15.666,3.833Z" fill="none" stroke="#263238" stroke-linecap="round" stroke-linejoin="round" stroke-width="1"/>
        <path id="Path_12582" data-name="Path 12582" d="M175.795,387.041l-3.51,4.763s0-2.006-1.5-1.254-2.506,2.006-3.634,4.513-6.643,9.776-6.142,11.656,11.782,7.646,14.915,10.9,7.145,5.89,10.654,6.141,15.793.376,17.422-.376,1.253-2.883.5-4.512-8.773-5.139-9.651-5.891-6.266-10.027-6.517-11.28,2.005-5.515.752-6.643a1.656,1.656,0,0,0-2.256-.251l2.005-3.384Z" fill="#fff"/>
        <path id="Path_12583" data-name="Path 12583" d="M175.795,387.041l-3.51,4.763s0-2.006-1.5-1.254-2.506,2.006-3.634,4.513-6.643,9.776-6.142,11.656,11.782,7.646,14.915,10.9,7.145,5.89,10.654,6.141,15.793.376,17.422-.376,1.253-2.883.5-4.512-8.773-5.139-9.651-5.891-6.266-10.027-6.517-11.28,2.005-5.515.752-6.643a1.656,1.656,0,0,0-2.256-.251l2.005-3.384Z" fill="none" stroke="#263238" stroke-linecap="round" stroke-linejoin="round" stroke-width="1"/>
        <path id="Path_12584" data-name="Path 12584" d="M170.782,390.55c-1.5.752-2.507,2.005-3.635,4.512s-6.643,9.777-6.141,11.657,11.781,7.645,14.915,10.9,7.144,5.891,10.654,6.142,15.792.376,17.422-.376,1.253-2.883.5-4.512-8.774-5.139-9.651-5.891-6.267-10.027-6.518-11.281,2.006-5.515.752-6.643a1.655,1.655,0,0,0-2.256-.25s0,2.757-1,2.882-5.264,1.128-8.648.126-4.888-6.017-4.888-6.017l-.075-.575c-.128-.526-.477-1.154-1.429-.678" fill="#fff"/>
        <path id="Path_12585" data-name="Path 12585" d="M170.782,390.55c-1.5.752-2.507,2.005-3.635,4.512s-6.643,9.777-6.141,11.657,11.781,7.645,14.915,10.9,7.144,5.891,10.654,6.142,15.792.376,17.422-.376,1.253-2.883.5-4.512-8.774-5.139-9.651-5.891-6.267-10.027-6.518-11.281,2.006-5.515.752-6.643a1.655,1.655,0,0,0-2.256-.25s0,2.757-1,2.882-5.264,1.128-8.648.126-4.888-6.017-4.888-6.017l-.075-.575C172.083,390.7,171.734,390.074,170.782,390.55Z" fill="none" stroke="#263238" stroke-linecap="round" stroke-linejoin="round" stroke-width="1"/>
        <path id="Path_12586" data-name="Path 12586" d="M187.953,420.632c-4.136-1.253-11.782-7.52-14.79-11.155s-9.651-7.52-9.651-7.52l-.536-.025c-1.234,2.065-2.193,3.955-1.971,4.787.5,1.88,11.782,7.646,14.915,10.9s7.145,5.891,10.654,6.141,15.793.377,17.422-.376a2.211,2.211,0,0,0,1.1-2.549l-.226.043c-2.131.376-12.785,1-16.921-.251" fill="#fff"/>
        <path id="Path_12587" data-name="Path 12587" d="M187.953,420.632c-4.136-1.253-11.782-7.52-14.79-11.155s-9.651-7.52-9.651-7.52l-.536-.025c-1.234,2.065-2.193,3.955-1.971,4.787.5,1.88,11.782,7.646,14.915,10.9s7.145,5.891,10.654,6.141,15.793.377,17.422-.376a2.211,2.211,0,0,0,1.1-2.549l-.226.043C202.743,421.259,192.089,421.885,187.953,420.632Z" fill="none" stroke="#263238" stroke-linecap="round" stroke-linejoin="round" stroke-width="1"/>
        <path id="Path_12588" data-name="Path 12588" d="M178.037,380.3l-2.861,5.2a2.246,2.246,0,0,0,.883,3.05l9.561,5.268a2.246,2.246,0,0,0,3.11-1l2.64-5.52Z" fill="#263238"/>
        <path id="Path_12589" data-name="Path 12589" d="M178.037,380.3l-2.861,5.2a2.246,2.246,0,0,0,.883,3.05l9.561,5.268a2.246,2.246,0,0,0,3.11-1l2.64-5.52Z" fill="none" stroke="#263238" stroke-linecap="round" stroke-linejoin="round" stroke-width="1"/>
        <path id="Path_12590" data-name="Path 12590" d="M201.7,255.638s-5.333,18.667-4,27.333,2.667,16.667,2.667,20-4.667,38-7.667,44-18.333,30-17.333,33.667,16.666,9,19.666,9.667,6.667-1.667,9.334-5,18.333-30.334,23.666-41,8.334-17.667,9.334-20a57.654,57.654,0,0,0,2-6s16.333,23.333,20,34.666,10.333,34.334,11,38.667,3.333,7,8.333,7,16.667-2,17.333-6.333-4-43.667-4.666-52.667-6.334-26-11.334-39S269.7,276.3,269.7,276.3l-1.333-14.667-61.334-6Z" fill="#fbe551"/>
        <path id="Path_12591" data-name="Path 12591" d="M201.7,255.638s-5.333,18.667-4,27.333,2.667,16.667,2.667,20-4.667,38-7.667,44-18.333,30-17.333,33.667,16.666,9,19.666,9.667,6.667-1.667,9.334-5,18.333-30.334,23.666-41,8.334-17.667,9.334-20a57.654,57.654,0,0,0,2-6s16.333,23.333,20,34.666,10.333,34.334,11,38.667,3.333,7,8.333,7,16.667-2,17.333-6.333-4-43.667-4.666-52.667-6.334-26-11.334-39S269.7,276.3,269.7,276.3l-1.333-14.667-61.334-6Z" fill="none" stroke="#263238" stroke-linecap="round" stroke-linejoin="round" stroke-width="1"/>
        <path id="Path_12592" data-name="Path 12592" d="M239.37,318.3l4-17,14.667-12.667" fill="none" stroke="#263238" stroke-linecap="round" stroke-linejoin="round" stroke-width="1"/>
        <path id="Path_12593" data-name="Path 12593" d="M262.26,293.719c.76-.441,1.374-.812,1.777-1.081" fill="none" stroke="#263238" stroke-linecap="round" stroke-linejoin="round" stroke-width="1"/>
        <path id="Path_12594" data-name="Path 12594" d="M246.37,302.3s7.1-3.713,12.435-6.645" fill="none" stroke="#263238" stroke-linecap="round" stroke-linejoin="round" stroke-width="1"/>
        <path id="Path_12595" data-name="Path 12595" d="M216.7,263.638s2.667,11-5.333,17.667" fill="none" stroke="#263238" stroke-linecap="round" stroke-linejoin="round" stroke-width="1"/>
        <path id="Path_12596" data-name="Path 12596" d="M202.7,248.3s-2.667,7.333-1.333,9,26.666,7,43.666,6.667,22.667-1,23.334-2.334,1-8,1-8-12.667,3-31,.667a296.376,296.376,0,0,1-29.334-5s-5.666-2-6.333-1" fill="#263238"/>
        <path id="Path_12597" data-name="Path 12597" d="M202.7,248.3s-2.667,7.333-1.333,9,26.666,7,43.666,6.667,22.667-1,23.334-2.334,1-8,1-8-12.667,3-31,.667a296.376,296.376,0,0,1-29.334-5S203.37,247.3,202.7,248.3Z" fill="none" stroke="#263238" stroke-linecap="round" stroke-linejoin="round" stroke-width="1"/>
        <path id="Path_12598" data-name="Path 12598" d="M211.088,184.075s-15.8,24.512-15.8,28.705,15.8,19.352,16.772,20.319,6.128-14.836,6.128-27.415a84.137,84.137,0,0,0-4.193-24.512Z" fill="#fbe551"/>
        <path id="Path_12599" data-name="Path 12599" d="M211.088,184.075s-15.8,24.512-15.8,28.705,15.8,19.352,16.772,20.319,6.128-14.836,6.128-27.415a84.137,84.137,0,0,0-4.193-24.512Z" fill="none" stroke="#263238" stroke-linecap="round" stroke-linejoin="round" stroke-width="1"/>
        <path id="Path_12600" data-name="Path 12600" d="M219.2,160.721s-9,14-9.5,19.5,0,29-.25,36-8.75,30-8.75,33.5,18.5,8.75,40.75,9.25,30.5-3.25,32.25-6.5-.25-17-.5-24,.5-23.5.75-30.5-2.75-17.5-7-23.5a81.385,81.385,0,0,1-7.5-14,243.554,243.554,0,0,0-24.75-4.25c-11.75-1.25-15.5,4.5-15.5,4.5" fill="#fbe551"/>
        <path id="Path_12601" data-name="Path 12601" d="M219.2,160.721s-9,14-9.5,19.5,0,29-.25,36-8.75,30-8.75,33.5,18.5,8.75,40.75,9.25,30.5-3.25,32.25-6.5-.25-17-.5-24,.5-23.5.75-30.5-2.75-17.5-7-23.5a81.385,81.385,0,0,1-7.5-14,243.554,243.554,0,0,0-24.75-4.25C222.953,154.971,219.2,160.721,219.2,160.721Z" fill="none" stroke="#263238" stroke-linecap="round" stroke-linejoin="round" stroke-width="1"/>
        <path id="Path_12602" data-name="Path 12602" d="M253.959,232.2a67.5,67.5,0,0,1-7.064,11.449,28.122,28.122,0,0,1-8.039,6.577l2.923,2.192s8.77-5.359,15.59-20.218Z" fill="#263238"/>
        <path id="Path_12603" data-name="Path 12603" d="M253.959,232.2a67.5,67.5,0,0,1-7.064,11.449,28.122,28.122,0,0,1-8.039,6.577l2.923,2.192s8.77-5.359,15.59-20.218Z" fill="none" stroke="#263238" stroke-linecap="round" stroke-linejoin="round" stroke-width="1"/>
        <path id="Path_12604" data-name="Path 12604" d="M272.656,90.214s5.907,6.721,6.925,11-.2,8.758.407,10.592,4.888,5.906,4.277,7.943-3.258,3.259-3.258,3.259-.2,11.2-1.833,14.664-6.518,4.888-8.962,4.888-5.092-.2-5.092-.2-3.055,5.7-4.684,9.776.611,10.591,1.222,12.22,1.833,3.056.407,3.463-3.666-2.037-9.98-5.907-18.738-12.22-18.738-12.22,5.295-6.314,5.906-11.813-1.222-16.294,3.463-29.329S257.991,89.6,261.861,88.992s9.98,0,10.8,1.222" fill="#fff"/>
        <path id="Path_12605" data-name="Path 12605" d="M272.656,90.214s5.907,6.721,6.925,11-.2,8.758.407,10.592,4.888,5.906,4.277,7.943-3.258,3.259-3.258,3.259-.2,11.2-1.833,14.664-6.518,4.888-8.962,4.888-5.092-.2-5.092-.2-3.055,5.7-4.684,9.776.611,10.591,1.222,12.22,1.833,3.056.407,3.463-3.666-2.037-9.98-5.907-18.738-12.22-18.738-12.22,5.295-6.314,5.906-11.813-1.222-16.294,3.463-29.329S257.991,89.6,261.861,88.992,271.841,88.992,272.656,90.214Z" fill="none" stroke="#263238" stroke-linecap="round" stroke-linejoin="round" stroke-width="1"/>
        <path id="Path_12606" data-name="Path 12606" d="M265.12,142.355,258.6,139.1s-3.869,9.369-4.073,10.8" fill="none" stroke="#263238" stroke-linecap="round" stroke-linejoin="round" stroke-width="1"/>
        <line id="Line_487" data-name="Line 487" y1="4.073" x2="2.648" transform="translate(246.382 143.577)" fill="none" stroke="#263238" stroke-linecap="round" stroke-linejoin="round" stroke-width="1"/>
        <path id="Path_12607" data-name="Path 12607" d="M277.544,116.285s-1.222,2.851-5.5,3.87" fill="none" stroke="#263238" stroke-linecap="round" stroke-linejoin="round" stroke-width="1"/>
        <path id="Path_12608" data-name="Path 12608" d="M271.638,106.305s2.443-3.462,5.5-1.426" fill="none" stroke="#263238" stroke-linecap="round" stroke-linejoin="round" stroke-width="1"/>
        <path id="Path_12609" data-name="Path 12609" d="M279.784,129.523a15.062,15.062,0,0,1-5.092-.611,13.062,13.062,0,0,1-4.888-3.259s1.018,6.11,3.055,6.721,6.925-2.851,6.925-2.851" fill="#263238"/>
        <path id="Path_12610" data-name="Path 12610" d="M279.784,129.523a15.062,15.062,0,0,1-5.092-.611,13.062,13.062,0,0,1-4.888-3.259s1.018,6.11,3.055,6.721S279.784,129.523,279.784,129.523Z" fill="none" stroke="#263238" stroke-linecap="round" stroke-linejoin="round" stroke-width="1"/>
        <path id="Path_12611" data-name="Path 12611" d="M271.23,124.432a9.45,9.45,0,0,0-3.87,3.462" fill="none" stroke="#263238" stroke-linecap="round" stroke-linejoin="round" stroke-width="1"/>
        <path id="Path_12612" data-name="Path 12612" d="M276.729,112.109c0,1.181-.456,2.139-1.018,2.139s-1.019-.958-1.019-2.139.456-2.139,1.019-2.139,1.018.958,1.018,2.139" fill="#263238"/>
        <path id="Path_12613" data-name="Path 12613" d="M271.841,90.418s-.611,7.332-3.666,11.813-9.369,8.147-11,18.534a127.569,127.569,0,0,0-1.019,22.4s-5.295,1.629-16.9-.611-19.553-4.278-20.978-11,1.629-15.886,5.906-23.626,5.3-17.923,11.406-23.219,24.848-3.87,29.94-3.055S274.9,84.1,275.1,86.344s-3.259,4.074-3.259,4.074" fill="#c7c7c7"/>
        <path id="Path_12614" data-name="Path 12614" d="M271.841,90.418s-.611,7.332-3.666,11.813-9.369,8.147-11,18.534a127.569,127.569,0,0,0-1.019,22.4s-5.295,1.629-16.9-.611-19.553-4.278-20.978-11,1.629-15.886,5.906-23.626,5.3-17.923,11.406-23.219,24.848-3.87,29.94-3.055S274.9,84.1,275.1,86.344,271.841,90.418,271.841,90.418Z" fill="none" stroke="#898989" stroke-linecap="round" stroke-linejoin="round" stroke-width="1"/>
        <path id="Path_12615" data-name="Path 12615" d="M243.287,138.164c.213,1.763.436,2.877.436,2.877" fill="none" stroke="#898989" stroke-linecap="round" stroke-linejoin="round" stroke-width="1"/>
        <path id="Path_12616" data-name="Path 12616" d="M261.966,85.5s-3.812,4.9-3.267,10.347-4.085,14.431-8.441,19.06-7.352,12.253-7.352,17.154c0,.368,0,.731.013,1.089" fill="none" stroke="#898989" stroke-linecap="round" stroke-linejoin="round" stroke-width="1"/>
        <path id="Path_12617" data-name="Path 12617" d="M249.736,87.679a5.5,5.5,0,0,1,1.339-2.457" fill="none" stroke="#898989" stroke-linecap="round" stroke-linejoin="round" stroke-width="1"/>
        <path id="Path_12618" data-name="Path 12618" d="M233.1,139.407s-5.99-5.718.272-15.248,12.253-13.07,14.432-20.966A49.138,49.138,0,0,0,249.139,92.3" fill="none" stroke="#898989" stroke-linecap="round" stroke-linejoin="round" stroke-width="1"/>
        <path id="Path_12619" data-name="Path 12619" d="M235.952,93.3a9.958,9.958,0,0,0-1.759,4.993c0,5.173-4.084,14.7-5.718,16.609s-10.347,10.619-7.624,19.333" fill="none" stroke="#898989" stroke-linecap="round" stroke-linejoin="round" stroke-width="1"/>
        <path id="Path_12620" data-name="Path 12620" d="M241.817,86.584a35.526,35.526,0,0,0-2.622,2.564" fill="none" stroke="#898989" stroke-linecap="round" stroke-linejoin="round" stroke-width="1"/>
        <path id="Path_12621" data-name="Path 12621" d="M262.879,168.425s-6.518-3.87-14.257-12.628S230.7,142.966,227.44,142.966s-4.481.814-6.111,4.481-5.295,10.183-5.092,12.831,2.648,3.462,5.092,3.055,5.907-2.037,12.832-1.426,17.923,5.907,21.386,7.129,6.925,2.648,8.147,0" fill="#263238"/>
        <path id="Path_12622" data-name="Path 12622" d="M262.879,168.425s-6.518-3.87-14.257-12.628S230.7,142.966,227.44,142.966s-4.481.814-6.111,4.481-5.295,10.183-5.092,12.831,2.648,3.462,5.092,3.055,5.907-2.037,12.832-1.426,17.923,5.907,21.386,7.129,6.925,2.648,8.147,0" fill="none" stroke="#263238" stroke-linecap="round" stroke-linejoin="round" stroke-width="1"/>
        <path id="Path_12623" data-name="Path 12623" d="M301.773,197.337s3.654-6.118,4.208-8.748a7.106,7.106,0,0,1,5.148-4.789,6.545,6.545,0,0,1,3.128,1,4.025,4.025,0,0,1,4.789,1.135c2.27,2.463.5,4.456.5,4.456s2.934,1.717-.249,7.807-13.924,8.139-15.114,7.972-2.409-8.83-2.409-8.83" fill="#fff"/>
        <path id="Path_12624" data-name="Path 12624" d="M301.773,197.337s3.654-6.118,4.208-8.748a7.106,7.106,0,0,1,5.148-4.789,6.545,6.545,0,0,1,3.128,1,4.025,4.025,0,0,1,4.789,1.135c2.27,2.463.5,4.456.5,4.456s2.934,1.717-.249,7.807-13.924,8.139-15.114,7.972S301.773,197.337,301.773,197.337Z" fill="none" stroke="#263238" stroke-linecap="round" stroke-linejoin="round" stroke-width="1"/>
        <path id="Path_12625" data-name="Path 12625" d="M293.081,198.084l8.377-3.351a1.292,1.292,0,0,1,1.717.829l3.076,10.277a1.29,1.29,0,0,1-.757,1.569l-7.209,2.884Z" fill="#263238"/>
        <path id="Path_12626" data-name="Path 12626" d="M293.081,198.084l8.377-3.351a1.292,1.292,0,0,1,1.717.829l3.076,10.277a1.29,1.29,0,0,1-.757,1.569l-7.209,2.884Z" fill="none" stroke="#263238" stroke-linecap="round" stroke-linejoin="round" stroke-width="1"/>
        <path id="Path_12627" data-name="Path 12627" d="M223.045,171.511s-3.4,10.353-2.38,15.723,10.935,45.4,13.51,49.025,5.536,1.8,8.858,2.076,43.848-13.206,49.079-16.583,8.554-3.1,8.277-7.807-1.274-13.619-7.308-15.861-13.343,1.966-19.377,3.737-15.807,4.236-15.807,4.236-1.163-23.779-3.128-29.093a15.98,15.98,0,0,0-9.3-9.606" fill="#fbe551"/>
        <path id="Path_12628" data-name="Path 12628" d="M223.045,171.511s-3.4,10.353-2.38,15.723,10.935,45.4,13.51,49.025,5.536,1.8,8.858,2.076,43.848-13.206,49.079-16.583,8.554-3.1,8.277-7.807-1.274-13.619-7.308-15.861-13.343,1.966-19.377,3.737-15.807,4.236-15.807,4.236-1.163-23.779-3.128-29.093a15.98,15.98,0,0,0-9.3-9.606" fill="none" stroke="#263238" stroke-linecap="round" stroke-linejoin="round" stroke-width="1"/>
        <path id="Path_12629" data-name="Path 12629" d="M248.2,217.607c1.331-3.018,3.371-6.718,6.076-8.975" fill="none" stroke="#263238" stroke-linecap="round" stroke-linejoin="round" stroke-width="1"/>
        <path id="Path_12630" data-name="Path 12630" d="M246.354,222.556s.324-1.135.959-2.8" fill="none" stroke="#263238" stroke-linecap="round" stroke-linejoin="round" stroke-width="1"/>
        <path id="Path_12631" data-name="Path 12631" d="M247.9,212.784s4.318-6.865,8.083-7.087" fill="none" stroke="#263238" stroke-linecap="round" stroke-linejoin="round" stroke-width="1"/>
      </g>
    </g>
    <g id="Group_2777" data-name="Group 2777">
      <g id="Group_2776" data-name="Group 2776" clip-path="url(#clip-path)">
        <path id="Path_12632" data-name="Path 12632" d="M17.729,390.944c2.1-.3,6.087-2.9,6.09-2.9.041-.027-2.51-2.108-2.686-2.221-2.038-1.305-6.742-2.63-8.834-.907a3.209,3.209,0,0,0-.069,4.773c1.36,1.346,3.71,1.515,5.5,1.257" fill="#263238"/>
        <path id="Path_12633" data-name="Path 12633" d="M56.6,371.16c.049,0-.93-3.142-1.015-3.334-.979-2.213-4.172-5.913-6.868-5.629a3.207,3.207,0,0,0-2.69,3.942c.391,1.873,2.258,3.31,3.893,4.082,1.918.906,6.676.939,6.68.939" fill="#263238"/>
        <path id="Path_12634" data-name="Path 12634" d="M61.678,424.2c.927,1.153,1.77,2.238,2.526,3.237h1.91c-.961-1.232-2.08-2.627-3.345-4.133-.735-.879-1.539-1.8-2.372-2.745a30.614,30.614,0,0,0,2.116-2.911,20.6,20.6,0,0,0,5.635.4c.131,1.121.248,2.213.341,3.244.217,2.332.351,4.4.439,6.149h1.549c-.126-1.781-.309-3.9-.584-6.294-.128-1.139-.288-2.353-.464-3.6.438-.134,4.009-1.248,5.32-2.409,1.189-1.053,2.411-2.725,2.281-4.4a2.818,2.818,0,0,0-3.239-2.664c-2.344.423-4.129,4.33-4.411,6.438-.017.125-.046,1.494-.051,2.358-.075-.508-.141-1-.225-1.525-.157-1.034-.344-2.062-.542-3.168q-.171-.8-.347-1.608c-.1-.54-.282-1.1-.422-1.651-.353-1.277-.771-2.555-1.222-3.832.9-.14,4.113-.684,5.454-1.549s2.8-2.329,2.922-4.005a2.82,2.82,0,0,0-2.8-3.125c-2.381.063-4.737,3.655-5.335,5.7-.038.127-.3,1.64-.432,2.474-.276-.766-.549-1.532-.854-2.3-.881-2.21-1.841-4.421-2.79-6.63-.291-.677-.572-1.354-.857-2.031.323-.047,4.15-.61,5.652-1.579,1.335-.861,2.8-2.329,2.921-4.006a2.818,2.818,0,0,0-2.8-3.124c-2.381.063-4.737,3.655-5.335,5.7-.045.154-.423,2.331-.492,2.889-.626-1.491-1.236-2.984-1.778-4.479a49.8,49.8,0,0,1-1.827-6.174c.15-.021,4.147-.592,5.685-1.584,1.335-.861,2.8-2.328,2.922-4.005a2.819,2.819,0,0,0-2.8-3.125c-2.381.063-4.736,3.655-5.335,5.7-.039.134-.328,1.792-.448,2.584l-.136,0a36.3,36.3,0,0,1-.688-6.438c-.036-1.19,0-2.329.053-3.436.755-.03,4.2-.2,5.688-.945,1.422-.709,3.036-2.007,3.344-3.66a2.818,2.818,0,0,0-2.438-3.413c-2.374-.2-5.11,3.112-5.928,5.075-.045.107-.378,1.242-.608,2.072.033-.5.058-1.015.1-1.493.15-1.8.4-3.429.63-4.875.138-.821.279-1.561.419-2.251.726-.416,3.63-2.129,4.588-3.445.934-1.285,1.768-3.181,1.28-4.79a2.819,2.819,0,0,0-3.737-1.9c-2.2.917-3.1,5.117-2.922,7.236.016.184.585,3.02.623,3l.044-.025c-.148.662-.3,1.373-.447,2.154-.264,1.443-.548,3.077-.738,4.875a50.13,50.13,0,0,0-.338,5.832,36.732,36.732,0,0,0,.553,6.512c0,.025.012.051.017.076-.325-.617-1.293-2.313-1.382-2.434-1.255-1.717-4.691-4.3-6.952-3.547a2.818,2.818,0,0,0-1.571,3.889c.687,1.535,2.56,2.42,4.108,2.776,1.745.4,5.552-.372,5.855-.434a49.868,49.868,0,0,0,1.744,6.424c.415,1.227.87,2.449,1.343,3.668-.3-.525-.57-.991-.614-1.053-1.256-1.716-4.691-4.295-6.952-3.546a2.818,2.818,0,0,0-1.572,3.889c.687,1.535,2.56,2.419,4.108,2.776,1.571.362,4.829-.233,5.69-.4.186.466.367.933.555,1.4.9,2.233,1.81,4.456,2.634,6.665.292.778.549,1.555.811,2.331-.266-.465-.494-.855-.534-.911-1.256-1.717-4.691-4.3-6.952-3.547a2.819,2.819,0,0,0-1.572,3.89c.687,1.534,2.56,2.419,4.108,2.775,1.5.345,4.512-.177,5.535-.372.243.8.488,1.607.688,2.4.124.542.281,1.055.375,1.607l.312,1.615c.16,1.034.332,2.1.463,3.113.1.7.175,1.376.256,2.054-.28-.778-.862-2.29-.924-2.41a10.952,10.952,0,0,0-3.851-3.959,3.4,3.4,0,0,0-.335-.527,2.818,2.818,0,0,0-4.172-.435c-1.722,1.646-1.055,5.889-.127,7.8.054.113.785,1.271,1.258,1.995-.342-.383-.671-.759-1.029-1.149-.7-.775-1.425-1.529-2.2-2.343l-1.176-1.15c-.384-.393-.841-.758-1.263-1.143-1-.871-2.053-1.706-3.133-2.523.677-.617,3.053-2.839,3.694-4.3s1.048-3.485.227-4.952A2.818,2.818,0,0,0,51,401.431c-1.951,1.366-1.934,5.661-1.307,7.694.039.127.653,1.534,1.005,2.3-.654-.486-1.3-.975-1.98-1.445-1.955-1.358-3.975-2.672-5.985-3.991-.616-.4-1.224-.814-1.835-1.221.244-.217,3.124-2.8,3.843-4.435.638-1.455,1.047-3.485.227-4.953a2.82,2.82,0,0,0-4.058-1.062c-1.951,1.367-1.935,5.662-1.308,7.694.048.153.934,2.178,1.184,2.681-1.345-.9-2.677-1.807-3.954-2.755A49.755,49.755,0,0,1,31.9,397.8c.114-.1,3.133-2.782,3.869-4.458.638-1.454,1.047-3.485.227-4.952a2.818,2.818,0,0,0-4.058-1.062c-1.951,1.366-1.935,5.661-1.308,7.693.041.134.715,1.678,1.053,2.4l-.112.078a36.391,36.391,0,0,1-4.126-4.991c-.686-.972-1.288-1.94-1.851-2.9.613-.442,3.394-2.491,4.223-3.926.794-1.376,1.424-3.349.77-4.9a2.819,2.819,0,0,0-3.917-1.5c-2.089,1.143-2.544,5.415-2.145,7.5.022.113.371,1.243.637,2.063-.248-.435-.512-.879-.742-1.3-.864-1.58-1.559-3.08-2.164-4.414-.337-.761-.627-1.456-.892-2.109.376-.747,1.853-3.778,1.926-5.4.071-1.587-.279-3.628-1.574-4.7a2.818,2.818,0,0,0-4.168.472c-1.327,1.978.237,5.978,1.555,7.648.114.144,2.153,2.2,2.174,2.157l.022-.045c.243.634.509,1.31.816,2.043.576,1.349,1.24,2.869,2.074,4.474a50.108,50.108,0,0,0,2.935,5.05,36.8,36.8,0,0,0,4.053,5.127c.018.018.039.035.057.054-.612-.336-2.354-1.216-2.495-1.268-2-.739-6.283-.995-7.755.877a2.819,2.819,0,0,0,.834,4.111c1.42.9,3.47.605,4.958.048,1.678-.627,4.426-3.373,4.644-3.592a49.871,49.871,0,0,0,5,4.4c1.022.794,2.077,1.563,3.143,2.319-.538-.273-1.021-.513-1.093-.54-1.994-.739-6.282-.994-7.755.878a2.819,2.819,0,0,0,.835,4.111c1.42.9,3.47.605,4.958.049,1.509-.565,3.9-2.859,4.524-3.474.412.285.82.576,1.234.86,1.983,1.365,3.968,2.718,5.874,4.105.672.488,1.316.994,1.962,1.5-.479-.242-.884-.442-.948-.466-1.995-.739-6.283-1-7.755.877a2.818,2.818,0,0,0,.835,4.111c1.419.9,3.469.605,4.957.049,1.441-.539,3.666-2.637,4.411-3.364.646.535,1.294,1.071,1.9,1.619.4.384.817.725,1.2,1.133l1.151,1.175c.7.775,1.436,1.569,2.1,2.342.469.533.905,1.051,1.347,1.57-.663-.494-1.982-1.433-2.1-1.5-1.86-1.033-6.059-1.935-7.8-.308a2.819,2.819,0,0,0,.2,4.19c1.267,1.105,3.338,1.124,4.893.8,1.712-.358,4.732-2.551,5.107-2.828.727.863,1.427,1.709,2.074,2.518" fill="#263238"/>
        <path id="Path_12635" data-name="Path 12635" d="M439.59,392.275c-2.1-.3-6.087-2.9-6.09-2.9-.041-.027,2.51-2.108,2.686-2.221,2.038-1.305,6.742-2.63,8.833-.907a3.207,3.207,0,0,1,.07,4.772c-1.36,1.347-3.71,1.516-5.5,1.258" fill="#263238"/>
        <path id="Path_12636" data-name="Path 12636" d="M401.657,372.491c-.049,0,.931-3.142,1.015-3.334.979-2.213,4.173-5.913,6.868-5.629a3.207,3.207,0,0,1,2.69,3.942c-.391,1.873-2.258,3.31-3.893,4.082-1.918.906-6.676.939-6.68.939" fill="#263238"/>
        <path id="Path_12637" data-name="Path 12637" d="M397.279,424.132c-.927,1.153-1.77,2.238-2.527,3.237h-1.909c.961-1.232,2.08-2.627,3.345-4.133.735-.879,1.539-1.8,2.372-2.745a30.612,30.612,0,0,1-2.116-2.911,20.6,20.6,0,0,1-5.635.4c-.131,1.121-.248,2.213-.341,3.244-.217,2.332-.352,4.4-.439,6.149H388.48c.126-1.781.309-3.9.584-6.294.128-1.139.288-2.353.464-3.6-.438-.134-4.009-1.248-5.32-2.409-1.189-1.053-2.411-2.725-2.281-4.4A2.818,2.818,0,0,1,385.166,408c2.344.423,4.129,4.33,4.411,6.438.017.125.046,1.494.051,2.358.075-.508.141-1,.224-1.525.158-1.034.345-2.062.543-3.168q.171-.8.347-1.608c.1-.54.282-1.1.422-1.651.353-1.277.771-2.555,1.222-3.832-.9-.14-4.113-.684-5.454-1.549s-2.8-2.329-2.922-4.005a2.819,2.819,0,0,1,2.8-3.125c2.381.063,4.737,3.655,5.335,5.7.038.127.3,1.64.431,2.474.277-.766.55-1.532.855-2.3.881-2.21,1.841-4.421,2.79-6.63.291-.677.572-1.354.857-2.031-.323-.047-4.15-.61-5.652-1.579-1.335-.861-2.8-2.329-2.922-4.006a2.82,2.82,0,0,1,2.8-3.124c2.381.063,4.737,3.655,5.335,5.7.045.154.423,2.331.492,2.889.626-1.491,1.236-2.984,1.778-4.479a49.8,49.8,0,0,0,1.827-6.174c-.15-.021-4.147-.592-5.685-1.584-1.336-.861-2.8-2.328-2.922-4.005a2.819,2.819,0,0,1,2.8-3.125c2.381.063,4.736,3.655,5.335,5.7.039.134.328,1.792.447,2.584l.136,0a36.3,36.3,0,0,0,.689-6.438c.036-1.19,0-2.329-.053-3.436-.755-.03-4.205-.2-5.689-.945-1.421-.709-3.035-2.007-3.343-3.66a2.818,2.818,0,0,1,2.438-3.413c2.374-.2,5.11,3.112,5.928,5.075.045.107.378,1.242.608,2.072-.033-.5-.058-1.015-.1-1.493-.15-1.8-.4-3.429-.63-4.875-.138-.821-.279-1.561-.419-2.251-.726-.416-3.63-2.129-4.588-3.445-.934-1.285-1.768-3.181-1.28-4.79a2.818,2.818,0,0,1,3.736-1.9c2.2.917,3.1,5.117,2.923,7.236-.016.184-.585,3.02-.623,3l-.044-.025c.148.662.3,1.373.447,2.154.263,1.443.548,3.077.738,4.875a50.13,50.13,0,0,1,.338,5.832,36.825,36.825,0,0,1-.553,6.512c0,.025-.012.051-.017.076.325-.617,1.293-2.313,1.382-2.434,1.255-1.717,4.691-4.3,6.952-3.547a2.819,2.819,0,0,1,1.571,3.889c-.687,1.535-2.56,2.42-4.108,2.776-1.745.4-5.552-.372-5.855-.434a50.032,50.032,0,0,1-1.744,6.424c-.415,1.227-.871,2.449-1.343,3.668.3-.525.569-.991.614-1.053,1.256-1.716,4.691-4.295,6.952-3.546a2.819,2.819,0,0,1,1.572,3.889c-.687,1.535-2.56,2.419-4.108,2.776-1.571.362-4.829-.233-5.69-.4-.186.466-.367.933-.555,1.4-.9,2.233-1.81,4.457-2.635,6.665-.291.778-.549,1.555-.81,2.331.266-.465.494-.855.534-.911,1.256-1.717,4.691-4.3,6.952-3.547a2.819,2.819,0,0,1,1.572,3.89c-.687,1.534-2.56,2.419-4.108,2.775-1.5.345-4.512-.177-5.535-.372-.243.8-.488,1.607-.688,2.4-.124.542-.281,1.055-.375,1.607l-.312,1.615c-.16,1.034-.332,2.1-.463,3.113-.1.7-.175,1.376-.257,2.054.281-.778.863-2.29.925-2.41a10.952,10.952,0,0,1,3.851-3.959,3.4,3.4,0,0,1,.335-.527,2.818,2.818,0,0,1,4.172-.435c1.722,1.646,1.055,5.889.127,7.8-.055.113-.785,1.271-1.258,1.995.342-.383.671-.759,1.028-1.149.7-.775,1.425-1.529,2.2-2.343l1.176-1.15c.384-.393.84-.758,1.263-1.143,1-.871,2.053-1.706,3.133-2.523-.677-.617-3.053-2.839-3.694-4.3s-1.048-3.485-.227-4.952a2.817,2.817,0,0,1,4.057-1.062c1.952,1.366,1.935,5.661,1.308,7.694-.039.127-.653,1.534-1.005,2.3.654-.486,1.3-.975,1.98-1.445,1.954-1.358,3.975-2.672,5.985-3.991.616-.4,1.224-.814,1.835-1.221-.244-.217-3.124-2.8-3.843-4.435-.638-1.455-1.047-3.485-.227-4.953a2.82,2.82,0,0,1,4.058-1.062c1.951,1.367,1.934,5.662,1.308,7.694-.048.153-.934,2.178-1.184,2.681,1.345-.9,2.677-1.807,3.954-2.755a49.754,49.754,0,0,0,4.93-4.141c-.114-.1-3.133-2.782-3.869-4.458-.638-1.454-1.047-3.485-.227-4.952a2.818,2.818,0,0,1,4.058-1.062c1.951,1.366,1.934,5.661,1.308,7.693-.041.134-.715,1.678-1.053,2.4l.111.078a36.245,36.245,0,0,0,4.126-4.991c.687-.972,1.288-1.94,1.852-2.9-.613-.442-3.394-2.491-4.223-3.926-.794-1.376-1.424-3.349-.77-4.9a2.819,2.819,0,0,1,3.917-1.5c2.089,1.143,2.544,5.415,2.145,7.5-.022.113-.371,1.243-.637,2.063.248-.435.512-.879.741-1.3.865-1.58,1.56-3.08,2.164-4.414.338-.761.628-1.456.893-2.109-.376-.747-1.853-3.778-1.926-5.4-.071-1.587.279-3.628,1.574-4.7a2.818,2.818,0,0,1,4.168.472c1.327,1.978-.237,5.978-1.555,7.648-.114.144-2.154,2.2-2.174,2.157l-.022-.045c-.243.634-.51,1.31-.816,2.043-.576,1.349-1.24,2.869-2.074,4.474a49.941,49.941,0,0,1-2.936,5.05,36.717,36.717,0,0,1-4.052,5.127c-.018.018-.039.035-.057.054.611-.336,2.354-1.216,2.495-1.268,1.995-.739,6.282-.995,7.755.877a2.818,2.818,0,0,1-.835,4.111c-1.419.9-3.469.605-4.957.049-1.678-.628-4.426-3.374-4.644-3.593a49.871,49.871,0,0,1-5,4.4c-1.022.794-2.077,1.563-3.143,2.319.538-.273,1.021-.513,1.093-.54,1.994-.739,6.282-.994,7.754.878a2.818,2.818,0,0,1-.834,4.111c-1.42.9-3.47.605-4.958.049-1.509-.565-3.9-2.859-4.524-3.474-.412.285-.821.576-1.234.86-1.983,1.365-3.968,2.718-5.874,4.105-.672.488-1.316.994-1.962,1.5.478-.242.884-.442.948-.466,1.995-.739,6.282-.995,7.755.877a2.818,2.818,0,0,1-.835,4.111c-1.419.9-3.469.605-4.957.049-1.441-.539-3.666-2.637-4.411-3.364-.646.535-1.294,1.071-1.9,1.619-.4.384-.817.725-1.2,1.133l-1.151,1.175c-.7.775-1.436,1.569-2.1,2.342-.469.533-.9,1.051-1.347,1.57.663-.494,1.982-1.433,2.1-1.5,1.859-1.033,6.059-1.935,7.8-.308a2.819,2.819,0,0,1-.2,4.19c-1.267,1.1-3.338,1.124-4.893.8-1.712-.358-4.732-2.551-5.107-2.828-.727.863-1.427,1.709-2.074,2.518" fill="#263238"/>
        <line id="Line_488" data-name="Line 488" x2="465" transform="translate(6.895 427.723)" fill="none" stroke="#263238" stroke-linecap="round" stroke-linejoin="round" stroke-width="2"/>
      </g>
    </g>
  </g>
</svg>
