<svg xmlns="http://www.w3.org/2000/svg" width="2315.76" height="1618.147" viewBox="0 0 2315.76 1618.147">
  <path id="_71-shape" data-name="71-shape" d="M2052.138,464.944C1949.544,269.183,1765.905,94.974,1537.817,74.32c-122.126-11-243.354,21.327-363.46,38.838-119.657,17.511-226.741,2.469-340.786-35.246C727.834,43.115,620.076-1.111,506.93.012c-103.044.9-201.6,43.777-268.049,123.249-3.592,4.265-6.959,8.755-10.327,13.021C90.489,209.691,5.18,369.308.241,531.17c-6.286,206.986,104.391,399.155,269.171,519.26,79.472,57.92,173.087,97.432,270.294,112.248,113.82,17.286,226.517-3.816,338.092-26.266,115.616-23.348,235.946-48.716,351.561-11.225,103.717,33.675,192.393,102.146,293.192,143.229,200.7,81.941,412.849-4.714,531.383-179.373C2181.224,901.814,2152.488,656.888,2052.138,464.944Z" transform="translate(0.015 334.588) rotate(-9)" fill="#fbe551"/>
</svg>
