<svg xmlns="http://www.w3.org/2000/svg" width="1411.479" height="1506.602" viewBox="0 0 1411.479 1506.602">
  <g id="_94-lines" data-name="94-lines" transform="translate(1411.476 422.513) rotate(115)">
    <path id="Path_8263" data-name="Path 8263" d="M1147.719,513.526c36.856,159.3,22.8,324.878,9.282,486.088h26.209c21.977-263.861,38.767-565.533-150.973-777.249C947.605,127.9,830.212,78.354,708.315,52.009,562.53,20.34,410.6,8.874,261.677,2.731,174.451-.818,87.226-.818,0,2.185V28.121c203.663-7.235,408.008,2.73,609.214,32.624,125.992,18.7,255.67,50.37,356,133.227C1062.131,273.963,1119.736,392.994,1147.719,513.526Z" fill="#fbe551"/>
    <path id="Path_8264" data-name="Path 8264" d="M1017.9,613.388c26.482,114.663,26.618,232.6,19.657,349.858h25.663c12.012-226.868-3-465.066-160.528-641.019-84.632-94.46-202.025-144.011-323.922-170.356C432.852,120.2,280.924,108.736,132.135,102.73,87.908,100.819,43.954,100,0,100v26.072c160.528.137,320.919,10.92,479.4,34.535,125.992,18.7,255.67,50.37,356,133.227C932.317,373.825,989.921,492.856,1017.9,613.388Z" transform="translate(0 36.504)" fill="#fbe551"/>
    <path id="Path_8265" data-name="Path 8265" d="M903.651,923.494h24.98C924.946,743.719,889.182,566.811,765.1,428.261,680.468,333.8,563.076,284.25,441.178,257.9,297.167,226.645,147.014,215.043,0,208.9v25.8A3224.368,3224.368,0,0,1,342.077,266.5c125.992,18.7,255.671,50.37,356,133.227,96.917,79.991,154.522,199.022,182.368,319.69C896.007,786.581,902.286,854.833,903.651,923.494Z" transform="translate(0 76.256)" fill="#fbe551"/>
  </g>
</svg>
