<svg id="Group_3293" data-name="Group 3293" xmlns="http://www.w3.org/2000/svg" xmlns:xlink="http://www.w3.org/1999/xlink" width="949.497" height="768.145" viewBox="0 0 949.497 768.145">
  <defs>
    <clipPath id="clip-path">
      <rect id="Rectangle_1844" data-name="Rectangle 1844" width="949.497" height="768.145" fill="none"/>
    </clipPath>
  </defs>
  <g id="Group_3292" data-name="Group 3292" clip-path="url(#clip-path)">
    <path id="Path_13013" data-name="Path 13013" d="M700.326,260.361c6.267,20.655,9.124,41.249,3.7,62.87-4.39,17.507-1.094,35.525.427,53.282a54.411,54.411,0,0,1-.832,15.519c-2.018,9.99-7.471,17.118-17.5,20.243-16.06,2.015-31.88.225-47.61-2.989-13.269-2.923-18.989-11.658-20.07-24.748-.359-4.335.444-9.465-3.525-13.2-.611,6.29-1.226,12.4-1.793,18.506-1.111,11.936-3.388,14.711-14.879,17.973-2.363.672-4.746,1.279-7.121,1.915a254.659,254.659,0,0,1-41.9.926c-5.453-1.48-11.021-2.619-16.916-6.751.849,14.256,1.546,27.208,2.4,40.15,4.594,69.343,5.17,138.758,4.012,208.214-.085,5.078-1.791,6.117-6.449,6.059-18.849-.234-37.7-.061-56.554-.158-1.762-.009-4.338,1.209-5.182-1.315-.679-2.03,1.005-3.76,2.369-5.142,6.008-6.087,13.853-8.857,21.861-10.359,6.9-1.294,7.563-4.19,6.166-10.383-15.745-69.847-31.293-139.739-43.307-210.356-1.309-7.693-2.447-15.415-4.519-23.109C442.4,483.3,430.7,568.827,419.032,654.344c-4.644-1-2.822-6.132-5.408-8.434-4.542-38-2.329-76.186-3.14-114.288-.529-24.76-1.118-49.564-5.012-74.052-3.94-24.774-6.786-49.552-5.766-74.67,3.331-2.171,9.73,3.1,10.845-4.177,2.391-15.591,5.711-31.065,6.177-46.91,1.534-3.87,1.264-7.923,1.211-11.956,1.794-8.869,1.808-17.851,1.7-26.842.474-1.5,1.294-2.987.079-4.515a46.266,46.266,0,0,0,.135-14.65c1.182-16.779-.581-33.321-3.992-49.731l-5.155-19.989c42.448-2.77,84.131.922,124.619,14.728.843,12.9-.862,25.681-2.113,38.458-.393,4.032-.051,5.921,4.527,6.16,13.324.7,26.62,2.362,39.941,2.56,27.978.417,55.967.186,83.951.127,13.168-.027,26.133-1.623,38.694-5.8" transform="translate(195.384 99.416)" fill="#202d58"/>
    <path id="Path_13014" data-name="Path 13014" d="M98.134,592.013c-3.307-12.7-2.545-25.789-3.709-38.7,1.619-11.266,3-22.573,4.9-33.79,4.332-25.5,7.654-50.977,1.739-76.722a165.286,165.286,0,0,1-2.91-17.553c-2.409-20.3,3.918-38.65,12.876-56.382,6.217-12.306,10.666-25.244,10.508-39.106a586.774,586.774,0,0,1,6.783-93.288c5.664,2.234,11.7,2.013,17.559,2.11,25.706.423,51.206,5.6,76.979,3.63,14.03-1.072,28.175-2.42,40.025-11.435a239.08,239.08,0,0,1,4,75.326c-2.936,27.887-2.944,55.185,6.122,82.186a96.33,96.33,0,0,1,2.746,52.759,169.084,169.084,0,0,0-3.157,61.2c1.505,11.03,2.782,22.09,4.37,33.107,3.38,23.447,1.7,46.377-6.629,68.679-6.549,8.9-10.717,19.656-22.549,26.339,10.2.448,18.223,1.428,25.733,4.8,1.637,5.441-4.351,10.084-1.641,15.638-18.135,5.755-36.588,5.532-54.9,1.7-7.894-1.651-9.292-9.079-8.8-16.1.393-5.685-.369-9.688-6.428-12.228-5.959-2.5-9.771-10.956-14.775-11.446-4.624-.453-8.136,8.713-13.853,11.747-2.954,1.569-5.925,3.111-10.964,5.752,8.687.646,15.348.569,21.523,2.962,4.923,1.908,10.13,3.794,9.655,10.5-.441,6.242-5.285,7.842-10.349,8.808a145.746,145.746,0,0,1-45.808,1.261,21.4,21.4,0,0,1-10.82-4.464c-3.19-5.615-3.589-11.722-2.814-17.914.411-3.276-.247-5.455-3.234-7.361-9.341-5.955-14.7-14.959-18.494-25.11-.905-2.426-.728-5.535-3.682-6.9" transform="translate(46.181 112.869)" fill="#2bbfd5"/>
    <path id="Path_13015" data-name="Path 13015" d="M216.549,672.722c-2.71-5.554,3.277-10.2,1.639-15.64q-1.59-15.568-3.182-31.137c8.331-22.3,10.01-45.231,6.629-68.679-1.589-11.016-2.866-22.077-4.37-33.107a169.076,169.076,0,0,1,3.155-61.194,96.314,96.314,0,0,0-2.746-52.759c-9.065-27-9.058-54.3-6.122-82.188a239.17,239.17,0,0,0-3.994-75.326,40.046,40.046,0,0,0,3.6-15.812q.713-19.66,1.424-39.319c26.358,10.5,50.031.082,73.815-9.475,19.27-4.168,38.245-1.54,57.158,2.494,3.976,29.613-2.6,58.961-2.278,88.494.1,9.15-.683,18.335-1.5,27.466-3,33.571-6.425,67.107-9.253,100.691C323.7,488.248,320.91,569.578,311.583,650.4c-.371,3.2-.226,5.079,3.693,5.487,12.1,1.26,23.755,4.543,35.2,8.586,2.03,2.5,5.74,3.535,6.317,7.291q-64.958.109-129.916.25c-3.444.01-6.887.463-10.33.709M270.62,454.486c-.2,1.72-.482,3.435-.591,5.163-2.451,39.076-6.218,78.03-10.927,116.9-2.95,24.352-6.019,48.69-8.864,73.053-.253,2.164-2.728,5.764,2.022,6.4a147.026,147.026,0,0,1,31.944,7.631c-.351-5.888-.609-10.57-.914-15.248-1.194-18.3-2.534-36.585-3.581-54.889q-3.989-69.762-7.773-139.535V441.114a20.243,20.243,0,0,0-1.315,13.372" transform="translate(101.512 90.956)" fill="#202d59"/>
    <path id="Path_13016" data-name="Path 13016" d="M157,236.572a586.6,586.6,0,0,0-6.783,93.288c.158,13.86-4.292,26.8-10.508,39.106-8.958,17.732-15.285,36.086-12.876,56.382a165.4,165.4,0,0,0,2.91,17.553c5.915,25.745,2.592,51.217-1.739,76.722-1.9,11.217-3.285,22.522-4.9,33.79-3.169-46.5-5.178-93.081-9.587-139.5-2.646-27.853-5.586-55.669-9.362-83.458-2.517.817-2.076,2.822-2.219,4.427-8.622,96.8-18.694,193.464-28.678,290.13-.823,7.959,1,11.111,9.027,12.554,8.124,1.459,16.17,4.423,22.268,10.791-1.732,2.52-3.9,1.428-5.672,1.44-15.872.1-31.747-.046-47.618.137-4.111.048-5.94-.652-6.421-5.459-8.826-88.262-13.625-176.549-2.9-265.017,3.968-32.718-.228-65.393-.466-98.088-.124-16.852-.837-33.705.5-50.542a796.834,796.834,0,0,0,108.172-.25L157,236.572" transform="translate(17.502 112.771)" fill="#212e59"/>
    <path id="Path_13017" data-name="Path 13017" d="M657,284.7c-12.56,4.181-25.526,5.778-38.694,5.8-27.984.06-55.973.29-83.951-.127-13.321-.2-26.617-1.86-39.941-2.56-4.577-.24-4.92-2.128-4.527-6.16,1.251-12.778,2.956-25.557,2.116-38.461a204.566,204.566,0,0,0,1.934-28.06c.079-13.71-3.237-26.866-5.863-40.148,2.4-.87,2.81-3.419,4.271-5.082,47.844,3.376,95.679,3.943,143.39-1.68,20.911-2.466,41.715-5.924,61.168-14.711,16.157,17.239,18.484,37.356,5.548,56.694-7.578,11.33-12.5,22.914-13.787,36.792-1.784,19.175-14.858,30.361-31.665,37.7" transform="translate(238.707 75.079)" fill="#089ea9"/>
    <path id="Path_13018" data-name="Path 13018" d="M111.84,20.094c4.856,2.841,7.474,7.742,10.992,12.206,8.859-6.942,18.194-11.837,29.977-9.463a36.664,36.664,0,0,1,24.034,15.9c15.5,22.792,9.886,56.545-12.12,73.19-9.966,4.093-20.4,4.256-30.913,3.662-11.013-2.953-11.013-2.953-11.159,5.584-9.368-1.785-18.235-.84-25.657,5.664-2.825,2.475-6.387,5.454-2.235,9.822-8.593,12.124-13.357,25.8-15.89,40.277-2.117,12.112-3.825,24.3-5.715,36.448-12.032,4.318-24.254,7.274-37.006,3.644-7.444-2.119-14.035-6.443-22.157-7.194-5.507-.508-7.152-5.426-5.568-10.861a54.48,54.48,0,0,1,10.035-19.62C-2.994,162.933-5.012,152.462,8.6,129.292A195.318,195.318,0,0,1,34.512,95.015c2.983-3.2,3.484-5.968,1.931-9.893-3.02-7.633-7.2-14.624-11.189-21.739C17.528,49.607,19.632,29.867,30,18.206c.666-.748,1.377-2.314,2.782-.748,1.3,2.47-1.212,3.456-2.119,4.909C20.374,38.843,21.97,57.153,35.82,72.62c0-4.344.006-7.958,0-11.572-.022-10.7.648-21.319,4.281-31.507C45.362,14.784,54.965,8.181,70.53,8.668c3.45.107,6.884.721,10.321,1.1,3.339.64,6.473,2.439,10.045,1.82l-.11-.07c.31,1.863,1.763,1.392,2.957,1.447l.191.158c3.814,6.156,10.992,6.349,16.633,9.258.024.013.832-1.492,1.273-2.289m-100,178.933c-.149,4.576,2.458,7.139,5.912,8.789,2.31,1.1,3.869.268,3.148-2.715-1.791-7.4.511-14.078,3.647-20.6.6-1.246,2-2.591.176-3.761-1.464-.937-2.866-.1-3.9,1.063a39.7,39.7,0,0,0-8.987,17.229" transform="translate(0 4.227)" fill="#202d59"/>
    <path id="Path_13019" data-name="Path 13019" d="M361.985,87.855l36.15,6.759c25.838,23.362,54.2,41.779,90.082,44.778,9.121.762,18.341.317,27.511.427-2.737,1-5.426,2.144-8.212,2.965-16.6,4.883-33.789,5.65-50.873,7.116l-29.429-1.136c-4.9-.633-9.992-.618-14.639-2.05-6.565-2.025-7.307,1.19-7.693,6.349-.88,11.82-2.135,23.612-3.237,35.413-7.089-4.013-14.088-8.748-22.217-9.829-18.965-2.521-36.176-9.292-52.207-19.452l.144.082-1.33-1.06c-5.516-4.991-11.718-6-19.062-4.673-13.543,2.448-27.234,4.073-40.863,6.04l-12.2,1.69-4.055.739a1.032,1.032,0,0,0-1.051.089c-15.725,1.211-31.46,2.287-47.168,3.674a66.619,66.619,0,0,1-37.82-7.624c-12.051-6.333-22.951-14.379-34.359-21.669a10.589,10.589,0,0,0-5.453-3.854c-1.8-1.641-3.5-3.422-5.423-4.9-11.3-8.671-22.647-17.285-32.982-27.131L90.42,87.371c14.395.776,28.464,3.86,42.656,6.058,10.479,2.807,20.968,5.575,31.431,8.431,10.292,2.81,20.65,4.884,31.4,3.47L242.84,99.16c18.258-3.1,36.506-6.254,54.776-9.281,5.109-.847,10.278-1.331,15.416-1.98,2.536,5.876.919,11.586-.578,17.351a26.026,26.026,0,0,0,18.655,32.163,15.884,15.884,0,0,0,20.262-13.917,26.006,26.006,0,0,0-1.051-11c-2.926-8.528-3.385-16.9,1.227-25.04l10.438.4" transform="translate(41.865 42.731)" fill="#212d58"/>
    <path id="Path_13020" data-name="Path 13020" d="M413.081,143.372c-9.174-.109-18.395.338-27.514-.424-35.884-3-64.245-21.417-90.082-44.779,20.277-7.1,41.3-9.506,62.636-10a243.014,243.014,0,0,1,32.572,6.567c12.111,3.246,24.616,5.231,37.276,2.528,18.191.987,35.785-3.569,53.642-5.7,2.759-.329,3.5-2.381,4.847-4.059,2.808-3.5,6.786-4.826,10.948-5.784,14.624-2.849,29.2-1.427,43.767.52,3.187,2.077,7.468,2.68,8.665,7.356.627,2.442,3.292,1.651,5.143,1.838,9.083.913,18.176,1.742,27.262,2.6-.874,2.8-1.8,5.59-2.612,8.41-4.326,15.049-3.234,28.689,10.261,39.064-6.148.466-12.294,1.194-18.45,1.312-4.987.1-6.421,1.626-5.033,6.707,3.054,11.178,5.554,22.507,8.281,33.778a65.891,65.891,0,0,0-10.27,1.316,323.087,323.087,0,0,0-50.5,17.321c-4.764,2.116-7.664,2.38-10.166-3.411-5.42-12.55-13.236-23.657-21.726-34.433-5.362-6.807-13.132-11.464-16.883-19.574,1.03-2.913,2.061-5.827,3.65-10.324-5.125,2.533-9.825,1.224-13.423,4.451a2.294,2.294,0,0,0-1.228.025l-41.064,4.7" transform="translate(144.515 39.177)" fill="#ec5ea5"/>
    <path id="Path_13021" data-name="Path 13021" d="M497.311,165.8c-13.5-10.374-14.587-24.016-10.261-39.064.812-2.82,1.738-5.606,2.612-8.41,4.981-9.947,9.926-19.91,14.953-29.832,2.077-4.1,1.564-8.171.125-12.248-7.651-21.675-3.06-32.935,17.649-43.113,2-.98,4.068-1.808,6.1-2.7q35.825,1.579,71.656,3.154c-1.614,11.3,1.026,22.084,4,32.827-5.365,4.494-1.191,9.138-.216,13.734.417,6.418,3.922,11.6,7.039,16.85,5.362,9.036,10.876,17.966,13.373,27.837,3.321-6.43,1.656-13.083-.82-19.513-4.1-10.659-11.03-19.693-17.442-29,.67-2.384-3.6-4.411-.5-6.97,1.514-.179,1.428,1.492,2.332,2.016,3.1,7.374,7.993,13.665,12.365,20.256,6.65,10.026,10.549,20.7,8.827,32.928-2.755,10.5-9.481,18.488-16.608,26.221a38.628,38.628,0,0,1-18.442,4.793c-11.4.308-20.878,4.621-29.049,12.8-17.34,17.357-42.26,17.85-60.794,1.622a20.577,20.577,0,0,0-6.9-4.177m-.6-47.335c1.312-3.62,3.316-7.094,2.588-11.2-2.442,3.44-4.732,6.838-5.392,11a42.214,42.214,0,0,0-5.757,24.565c.323,6.123,1.278,12.21,7.3,15.818a2.521,2.521,0,0,0,.252.631c.064.085.292.049.445.067l-.812-.569a80.708,80.708,0,0,1,1.373-40.314" transform="translate(237.098 14.881)" fill="#212d58"/>
    <path id="Path_13022" data-name="Path 13022" d="M501.075,126.275a20.568,20.568,0,0,1,6.9,4.177c18.535,16.228,43.454,15.735,60.794-1.622,8.171-8.178,17.644-12.49,29.049-12.8a38.609,38.609,0,0,0,18.442-4.792l26.349,4.14a136.3,136.3,0,0,1,32.049,32.371c5.727,8.1,13.594,14.172,21.383,20.24a70.008,70.008,0,0,1,6.238,6.2c-19.453,8.787-40.257,12.246-61.168,14.711-47.711,5.623-95.547,5.055-143.391,1.681.031-3.714.454-7.475.012-11.131-.825-6.833-3.9-11.771-11.862-11.38-2.725-11.269-5.225-22.6-8.279-33.778-1.388-5.079.045-6.607,5.033-6.7,6.156-.121,12.3-.849,18.45-1.313" transform="translate(233.333 54.404)" fill="#f4b613"/>
    <path id="Path_13023" data-name="Path 13023" d="M463.233,300.384c.106,8.99.092,17.972-1.7,26.841-10.925-.232-16.624,6.631-20.192,15.609a116.392,116.392,0,0,1-17.592,30.733c-4.047,4.993-8.142,10.114-6.948,17.281-9.5,1.264-19.17-.293-28.618,1.775l-4.166.1-14.842-.2c.174-6.147.347-12.261-1.407-18.3-3.091-10.641-10.65-16.724-20.924-18.514-11.105-1.933-20.865,1-27.326,11.582-1.732,2.835-.747,6.972-4.428,8.692a339.909,339.909,0,0,1-4.692-59c4.478,3.65,3.024,9.369,4.81,13.985,3.313,8.562,10.272,13.253,18.348,10.708a50.641,50.641,0,0,0,20.741-12.612c5.052-5.109,8.373-11.481,7.7-19.361a91.657,91.657,0,0,0-11.457-37.215c-8.166-14.58-17.386-17.844-33.57-13.774,1.779-12.462,6.256-24.105,10.823-35.721.481.1,1.136.036,1.416.328,12.389,12.946,26.445,24.327,35.891,40.013,4.192,6.964,13.973,9.281,21.842,6.553,7.91-2.744,11.853-8.684,12.268-17.5.678-14.38-7.791-24.291-17.115-33.049-11.4-10.7-23.331-21.283-40.005-23.27l5.155-7.862,23.276.438c9.109,12.1,22.312,14.334,35.806,12.9a84.01,84.01,0,0,0,34.191-11.24c5.584,4.874,9.179,11.061,11.814,17.879-5.285-1.383-10.726-2.564-16.091-1.532-21.009,4.04-25.652,11.642-20.953,30.611a48.346,48.346,0,0,0,15.056,25.116c10.858,9.421,21.194,19.193,28.441,31.792-2.823,5.158.076,6.211,4.451,6.206m-32.55,13.707c-.063-10.294-2.2-19.791-8.378-28.069-6.655-8.911-18.96-11.825-29.333-7.063-10.243,4.7-18.143,16.5-15.448,25.313,3.8,12.434,3.943,24.1-2.636,35.581a22.6,22.6,0,0,0-2.153,6.3c-2.448,10.992,4.353,21.7,14.807,22.275a29.638,29.638,0,0,0,17.549-5.069c17.94-11.56,23.489-29.548,25.591-49.273" transform="translate(151.79 92.05)" fill="#2cc0d6"/>
    <path id="Path_13024" data-name="Path 13024" d="M362.622,326.257c9.448-2.068,19.121-.509,28.618-1.773l10.59-.308,15.909-.272c-1.02,25.119,1.826,49.9,5.766,74.67,3.894,24.488,4.484,49.293,5.012,74.053.812,38.1-1.4,76.287,3.14,114.287q-11.992-.047-23.983-.092c-.472-2.68-.9-5.368-1.421-8.041-5.678-29.363-10.054-58.982-17.187-88.062-4.9-29.455-9.908-58.893-14.658-88.371-4.083-25.338-7.87-50.724-11.787-76.089" transform="translate(177.349 158.413)" fill="#f6ae92"/>
    <path id="Path_13025" data-name="Path 13025" d="M362.907,325.416l14.845.2c-3.283,32.715-6.65,65.421-9.82,98.146-2.292,23.642-4.23,47.32-6.5,70.966-2.926,30.519-6.025,61.022-9.049,91.532l-24.985-.1c-1.559-37.818-2.91-75.648-2.788-113.5.1-31.921.829-63.84,1.086-95.759.134-16.569-1.132-33.089-2.53-49.591,9.7-1.01,19.54.112,29.186-1.836l10.555-.052" transform="translate(158.053 159.153)" fill="#f8af93"/>
    <path id="Path_13026" data-name="Path 13026" d="M282.781,123.832c-4.613,8.141-4.155,16.512-1.229,25.04a26.005,26.005,0,0,1,1.051,11,15.884,15.884,0,0,1-20.262,13.917,26.026,26.026,0,0,1-18.655-32.163c1.5-5.764,3.114-11.475.576-17.351-1.385-9.664-6.2-19-2.624-29.178.34-.966-.941-2.689-1.766-3.851-8.595-12.117-12.106-25.964-13.5-40.428-1.592-16.53,8.273-30.666,25.855-34.783a106.508,106.508,0,0,1,48.676-.448c10.6,2.467,15.982,9.277,15.457,18.048-.074,1.227.074,2.883-.631,3.595-10.22,10.3-3.184,23.877-6.827,35.38-4.938,14.569-12.6,26.759-28.2,31.9-4.661,1.535-1.6,4.16-1.042,6.454q1.367,3.92,2.735,7.84l.38,5.029" transform="translate(110.633 6.351)" fill="#2bbfd5"/>
    <path id="Path_13027" data-name="Path 13027" d="M411.239,133.2c-12.66,2.7-25.165.718-37.276-2.527A242.876,242.876,0,0,0,341.39,124.1c-6.194-8.482-8.473-17.763-5.691-28.059.9-3.343.137-6.032-2-8.9-5.562-7.451-5.125-15.224.088-22.729,6.811-9.8,16.106-16.667,26.651-21.958,4.034-2.024,7.143-3.7,3.569-9.252-2.807-4.359-.067-8.55,3.557-11.7,3.438-2.987,7.694-4.574,11.89-5.941,4.391-1.431,10.461-.04,10.291-7.617a1.751,1.751,0,1,1,3.3,1.126c-2.129,4.329.435,7.6,2.3,11.046,1.589,2.928,2.807,6.363,1.553,9.28-2.438,5.666.342,7.426,4.591,10.636C428.842,60.7,437.521,88.4,423.838,119.883c-2.561,5.9-7.588,9.642-12.6,13.317M337.891,87.149c.311-11.061,2.6-19.616,7.174-27.534-12.432,9.228-14.356,15.591-7.174,27.534m34.758-64.008c-5.373,3.2-5.283,6.79-2.986,10.879.6,1.063,1.325,2.193,2.8,1.695a1.87,1.87,0,0,0,1.191-2.852c-1.22-2.846-1.017-5.959-1-9.722" transform="translate(161.247 3.235)" fill="#212e59"/>
    <path id="Path_13028" data-name="Path 13028" d="M227.247,126.839l-46.931,6.169c-10.751,1.413-21.111-.66-31.4-3.47-10.464-2.858-20.953-5.624-31.43-8.428q1.155-3.694,2.305-7.395c1.985-3.118,3.846-6.326,5.985-9.334,3.3-4.635,4.969-9.161,2.846-15.1a17.856,17.856,0,0,1,2.149-16.334l1.76,1.431c-1.571,5.335-3.5,10.66-.381,17.084,3.325-7.676,3.52-14.977,3.921-22.239.155-.368.311-.733.468-1.1l-.375,1.19q-1.068,1.052-2.138,2.1-.882-.7-1.766-1.4c8-14.974,19.333-26.946,34.131-35.044,16.713-9.143,35.3-2.859,44.127,14.042,4.044,7.74,6.132,16.085,7.477,24.678,2.78,17.766,3.33,35.925,9.256,53.144" transform="translate(57.458 15.052)" fill="#f4b613"/>
    <path id="Path_13029" data-name="Path 13029" d="M423.429,76.859a39.513,39.513,0,0,1-1.263-5.021c-.756-6.263-2.235-11.589-8.817-14.857a12.169,12.169,0,0,1-6.789-13.023c.867-6.2,5.207-9.451,10.611-11.26,3.945-1.318,8.136-1.893,12.593-2.883-2.234-4.552-1.885-8.8,2.658-12.155,5.9-4.356,12.745-5.916,18.8-2.114,6.535,4.1,10.217,2.424,14.62-2.755,2.826-3.325,6.689-5.922,10.443-8.279,16.043-10.068,31.573-2.7,33.964,16.295.541,4.3,1.706,6.61,5.755,8.815,6.705,3.65,8.911,10.388,7.831,17.869C522.812,54.6,519.786,60.52,511.8,61.5c-3.386.414-4,1.675-3.8,4.67.231,3.45-.046,6.933-.1,10.4-28.126,9.007-56.272,11.9-84.468.289" transform="translate(198.77 0)" fill="#212e59"/>
    <path id="Path_13030" data-name="Path 13030" d="M560.014,341.623c15.731,3.213,31.552,5,47.612,2.989q.337,17.453.938,34.9c1.1,32.471-2.341,64.779-5.088,97.094-.8,9.374-1.534,18.756-2.043,28.149-.241,4.455-.877,68.547-6.558,67.51a73.669,73.669,0,0,0-27.362.1c-5.006.983-6.2-62.261-5.976-66.876,1.352-27.185,1.756-54.463,6.5-81.347,1.514-8.58-.277-16.84-.984-25.1-1.644-19.2-4.609-38.283-7.037-57.414" transform="translate(273.889 167.079)" fill="#f8af93"/>
    <path id="Path_13031" data-name="Path 13031" d="M500.637,342.849a254.83,254.83,0,0,0,41.9-.925c-1.206,34.134-2.336,68.273-3.651,102.405-.828,21.5-2.042,42.988-2.828,64.492-.159,4.355.1,59.194-3.927,58.826a70.955,70.955,0,0,0-22.859,1.766c-7.611,1.823-10.312-54.734-10.209-60.872.192-11.642-.217-23.292-.2-34.938.06-31.966.1-63.933.39-95.9.106-11.622.9-23.237,1.382-34.856" transform="translate(243.982 167.226)" fill="#f8af93"/>
    <path id="Path_13032" data-name="Path 13032" d="M149.048,251.676a796.859,796.859,0,0,1-108.174.25c-2.795-3.282-2.7-7.334-2.788-11.243-.383-17.806,1.471-35.447,4.16-53.016,13.521-1.112,26.394,2.141,39.2,5.822,5.268,2.013,10.55,3.979,15.8,6.049,15.125,5.97,30.332,10.231,46.215,2.587-.015,7.191.1,14.383-.082,21.569-.241,9.783.229,19.371,5.67,27.981" transform="translate(18.603 91.675)" fill="#089ea9"/>
    <path id="Path_13033" data-name="Path 13033" d="M103.438,97.058c10.336,9.844,21.681,18.459,32.983,27.129,1.927,1.479,3.621,3.26,5.417,4.9-9.908,3.495-20.339,5.9-28.529,13.056A134.114,134.114,0,0,1,94.223,155.9c-14.454,7.014-29.817,11.726-44.7,17.663q-.2-1.115-.4-2.226c1.89-12.152,3.6-24.336,5.715-36.447,2.531-14.48,7.295-28.154,15.884-40.279a187.523,187.523,0,0,0,32.711,2.447" transform="translate(24.027 46.272)" fill="#089ea9"/>
    <path id="Path_13034" data-name="Path 13034" d="M613.818,523.107c-16.362,0-32.727-.189-49.083.109-5.259.1-6.7-1.678-6.814-6.789-.49-21.146-.651-21.161,20.613-22.058,10.428-.439,20.789-.812,28.087-10.148,1.285-1.644,3.62-2.579,5.62-3.532,6.659-3.173,10.888-1.109,11.07,6.236.128,5.215,2.116,6.11,6.647,6.052,7.158-.089,14.337-.261,21.465,1.248,10.9,2.307,19.495,14.344,18.208,25.43-.517,4.452-3.517,3.4-5.986,3.411-16.609.077-33.218.04-49.827.04" transform="translate(272.802 234.388)" fill="#ec5ea5"/>
    <path id="Path_13035" data-name="Path 13035" d="M56.941,153.431c14.88-5.937,30.245-10.648,44.7-17.66-10.9,26.6-18.447,53.945-18.2,82.992-12.811-3.681-25.682-6.935-39.2-5.822-8.107-3.248-11.229-9.688-10.026-17.8,2.46-16.581,6.11-32.748,22.729-41.713" transform="translate(16.61 66.402)" fill="#f4b613"/>
    <path id="Path_13036" data-name="Path 13036" d="M585.793,44.759,514.136,41.6c.515-4.907.63-9.895,1.629-14.7,1.634-7.861,6.568-13.384,14.23-15.7A77.681,77.681,0,0,1,572.38,9.92c8.574,2.177,13.437,7.487,14.023,15.964.35,5.057,2.575,6.062,6.856,6.285,10.1.527,20.2,1.358,30.291,2.1,3.047.225,6.8.8,7,4.156.24,4-4.132,3.821-6.775,4.082-10.31,1.016-20.665,1.593-31,2.335l-6.975-.082M546.4,34.813c2.771-1.416,7.828,1.806,8.115-2.268.341-4.813-4.624-6.4-9.013-6.647-4.143-.232-7.049,2.509-6.705,6.168.477,5.067,5.2,1.1,7.6,2.747" transform="translate(251.451 3.702)" fill="#ec5ea5"/>
    <path id="Path_13037" data-name="Path 13037" d="M418.748,51.71c28.2,11.615,56.342,8.719,84.468-.289,6.74,5.477,4.78,11.57,1.453,17.937-2.722,5.209-6.775,9.063-11.472,12.379-.463.436-.923.876-1.385,1.315l.144-.116c-20.35,6.808-40.8,4.819-61.28.721-14.566-7.378-17.771-15.96-11.929-31.947" transform="translate(203.451 25.149)" fill="#f4b613"/>
    <path id="Path_13038" data-name="Path 13038" d="M525,518.578c-6.938,0-13.893-.295-20.81.1-5.209.3-7.262-2.435-7.931-6.783a40.168,40.168,0,0,1,1.845-19.036c1.053-3.158,3.164-4.153,6.177-4.15,10.9.006,21.833-.554,32.688.125,11.8.74,20.286,17.465,14.685,27.648-1.239,2.256-3.157,2.074-5.1,2.083-7.186.034-14.373.013-21.559.015" transform="translate(242.497 238.911)" fill="#ec5ea5"/>
    <path id="Path_13039" data-name="Path 13039" d="M337,500.517l24.985.1c1.8,17.674,1.8,17.718-15.78,17.659-12.118-.042-24.235-.229-36.353-.351-.575-3.755-4.286-4.795-6.309-7.29,2.508-5.641,7.855-6.958,13.019-8.51,6.69-2.01,13.606-1.321,20.438-1.61" transform="translate(148.454 244.79)" fill="#ec5ea5"/>
    <path id="Path_13040" data-name="Path 13040" d="M97.377,473.369c2.954,1.368,2.777,4.478,3.682,6.9,3.79,10.151,9.153,19.155,18.494,25.11,2.987,1.906,3.645,4.085,3.234,7.361-.774,6.192-.375,12.3,2.814,17.914-1.48.092-2.962.252-4.443.267-18.408.2-18.4.194-20.685-18.411C99,500.5,97.483,488.488,96.028,476.471c-.147-1.211-.082-2.5,1.349-3.1" transform="translate(46.938 231.513)" fill="#212e59"/>
    <path id="Path_13041" data-name="Path 13041" d="M380.383,435.928c7.13,29.08,11.508,58.7,17.185,88.064.517,2.671.949,5.359,1.421,8.039-5.049.022-9.679,1.712-14.261,3.586-2.692-33.175-3.547-66.431-4.345-99.689" transform="translate(186.036 213.201)" fill="#212e59"/>
    <path id="Path_13042" data-name="Path 13042" d="M384.968,504.054c4.583-1.875,9.211-3.563,14.261-3.586l23.983.092c2.588,2.3.764,7.439,5.408,8.436.521,9.237.521,9.237-8.945,9.235-10.849,0-21.7.019-32.547-.009-7.978-.021-8.753-1.257-5.261-8.309.98-1.979,2.064-3.907,3.1-5.86" transform="translate(185.796 244.766)" fill="#ec5ea5"/>
    <path id="Path_13043" data-name="Path 13043" d="M425.854,73.306c20.478,4.1,40.93,6.087,61.28-.721-1.386,5.791-6.439,8.908-9.718,13.321-14.569-1.945-29.143-3.365-43.768-.517-2.729-3.946-6.491-7.222-7.794-12.084" transform="translate(208.275 35.5)" fill="#212e59"/>
    <path id="Path_13044" data-name="Path 13044" d="M596.9,123.988l-26.349-4.14c7.127-7.733,13.853-15.719,16.606-26.22,10.2,7.889,12,18.475,9.743,30.359" transform="translate(279.043 45.792)" fill="#ec5ea5"/>
    <path id="Path_13045" data-name="Path 13045" d="M135.751,87.862q-1.153,3.7-2.305,7.393c-14.194-2.2-28.263-5.285-42.658-6.059q-2.971-1.921-5.94-3.848l7.4-1.559c10.5-.582,20.929.707,31.387,1.22l12.118,2.853" transform="translate(41.497 40.907)" fill="#089ea9"/>
    <path id="Path_13046" data-name="Path 13046" d="M262.6,91.379c-.557-2.293-3.62-4.918,1.042-6.454,15.6-5.139,23.258-17.328,28.2-31.9.022,13.082-1.882,25.31-14.495,32.792-2.068,1.228-1.742,3.377-2.146,5.259q-6.3.154-12.6.3" transform="translate(127.697 25.935)" fill="#f6ae92"/>
    <path id="Path_13047" data-name="Path 13047" d="M562.419,32.543l6.975.082c1.576,12.538,4.229,25.054.792,37.7-.905-.526-.819-2.2-2.333-2.018l.049.088c.365-1.47.347-2.747-1.55-3.078l.071.057c-2.978-10.742-5.618-21.525-4-32.827" transform="translate(274.825 15.916)" fill="#f6ae92"/>
    <path id="Path_13048" data-name="Path 13048" d="M121.2,87.767c-10.458-.512-20.887-1.8-31.385-1.221q.036-2.441.063-4.881c10.52.6,20.95.433,30.916-3.662l.407,9.764" transform="translate(43.927 38.149)" fill="#f6ae92"/>
    <path id="Path_13049" data-name="Path 13049" d="M65.006,9.643c-9.426-2.205-18.862-2.753-28.4-.529-1.377.322-3.906,2.068-4.147-1.5C48.111,1.657,63.1,4.706,77.87,10.908l-.018,2.8-2.944-.116.11.07c-2.572-3.248-6.531-3.039-10.013-4.021" transform="translate(15.877 2.154)" fill="#212e59"/>
    <path id="Path_13050" data-name="Path 13050" d="M80.989,19.576c-.442.8-1.249,2.3-1.273,2.289-5.642-2.908-12.821-3.1-16.633-9.258L65.927,9.7c5.661,2.314,10.925,5.233,15.062,9.874" transform="translate(30.852 4.745)" fill="#212e59"/>
    <path id="Path_13051" data-name="Path 13051" d="M262.108,78.881q6.3-.147,12.6-.3.23,3.833.466,7.67-5.164.232-10.33.469l-2.734-7.84" transform="translate(128.19 38.432)" fill="#212e59"/>
    <path id="Path_13052" data-name="Path 13052" d="M263.944,84.2q5.166-.235,10.33-.469.243,2.953.487,5.9l-10.438-.4q-.187-2.515-.378-5.029" transform="translate(129.088 40.952)" fill="#f6ae92"/>
    <path id="Path_13053" data-name="Path 13053" d="M33.453,10.228c-3.8.987-5.435,6.61-10.494,4.88,2.33-4.114,6.165-6.181,10.427-7.67l.067,2.791" transform="translate(11.229 3.637)" fill="#202d59"/>
    <path id="Path_13054" data-name="Path 13054" d="M30.028,10.682l-.067-2.791a3.854,3.854,0,0,1,3.822-1.337c1.866,4.211-2.421,2.826-3.755,4.128" transform="translate(14.653 3.183)" fill="#212e59"/>
    <path id="Path_13055" data-name="Path 13055" d="M65.993,10.157q-1.423,1.452-2.844,2.905l-.191-.156a4.169,4.169,0,0,0-.013-1.333l.018-2.8,3.03,1.385" transform="translate(30.785 4.29)" fill="#202d59"/>
    <path id="Path_13056" data-name="Path 13056" d="M23.73,12.536c2.24,2.408.6,2.874-1.546,3.088-1.55-2.064-.071-2.61,1.546-3.088" transform="translate(10.529 6.131)" fill="#202d59"/>
    <path id="Path_13057" data-name="Path 13057" d="M126.4,60.057q.746-1.463,1.489-2.926.88.7,1.765,1.394-.748,1.481-1.494,2.963l-1.76-1.431" transform="translate(61.822 27.941)" fill="#f4b613"/>
    <path id="Path_13058" data-name="Path 13058" d="M466.91,73.095l1.385-1.315c-.141.776-.393,1.435-1.385,1.315" transform="translate(228.354 35.106)" fill="#212e59"/>
    <path id="Path_13059" data-name="Path 13059" d="M410.169,224.173c-2.636-6.82-6.23-13.007-11.813-17.881q-.9-1.123-1.79-2.248c1.028-16.255,2.249-32.489,5.4-48.508,5.633,9.469,10.491,19.339,17.258,28.2,15.567,20.381,28.744,23.944,51.817,13.032,16.751-7.922,32.982-16.815,49.023-26.071,8.433-4.866,8.468-4.805,12.769,3.3,2.625,13.283,5.941,26.439,5.863,40.148a204.562,204.562,0,0,1-1.934,28.06c-40.491-13.8-82.175-17.5-124.622-14.727q-.985-1.653-1.972-3.3" transform="translate(193.951 76.069)" fill="#ec5ea5"/>
    <path id="Path_13060" data-name="Path 13060" d="M421.982,222.083c3.412,16.41,5.176,32.952,3.992,49.729-4.835-7.448-10.255-14.322-17.79-19.322-9.15-6.072-15.3-14.58-19.294-24.7-5.052-12.8.06-20.089,13.784-20.347,6.847-.128,11.016,2.867,14.091,8.748,1.138,2.174.63,6.534,5.216,5.891" transform="translate(189.264 101.454)" fill="#2bbfd5"/>
    <path id="Path_13061" data-name="Path 13061" d="M425.544,225.557c-4.586.643-4.079-3.717-5.216-5.891-3.075-5.882-7.244-8.876-14.091-8.748-13.725.258-18.837,7.544-13.784,20.347,3.994,10.12,10.144,18.627,19.294,24.7,7.535,5,12.955,11.874,17.79,19.322a46.2,46.2,0,0,1-.135,14.653q-2.265-.844-4.528-1.692c-7.249-12.6-17.585-22.37-28.443-31.792a48.355,48.355,0,0,1-15.056-25.116c-4.7-18.969-.057-26.571,20.953-30.611,5.365-1.032,10.806.149,16.091,1.532l1.972,3.306,5.155,19.991" transform="translate(185.701 97.98)" fill="#68e7f3"/>
    <path id="Path_13062" data-name="Path 13062" d="M404.905,340.694,389,340.967c-.794-5,2.1-8.778,5.033-11.908,8.489-9.051,14-19.581,17.858-31.25,1.486-4.487,4.095-8.659,10.036-8.2-.465,15.845-3.785,31.321-6.177,46.91-1.115,7.277-7.512,2.006-10.845,4.177" transform="translate(190.184 141.623)" fill="#2bbfd5"/>
    <path id="Path_13063" data-name="Path 13063" d="M425.431,293.525c-5.941-.457-8.552,3.715-10.036,8.2-3.861,11.668-9.369,22.2-17.858,31.248-2.936,3.132-5.827,6.908-5.035,11.91l-10.59.307c-1.2-7.167,2.9-12.288,6.947-17.282a116.384,116.384,0,0,0,17.592-30.732c3.568-8.979,9.267-15.841,20.192-15.608.054,4.032.323,8.086-1.211,11.956" transform="translate(186.68 137.705)" fill="#68e7f3"/>
    <path id="Path_13064" data-name="Path 13064" d="M410.4,259.374q2.265.847,4.528,1.692c1.215,1.526.4,3.017-.077,4.515-4.375,0-7.276-1.048-4.451-6.206" transform="translate(200.17 126.853)" fill="#2bbfd5"/>
    <path id="Path_13065" data-name="Path 13065" d="M114.777,276.9c-5.441-8.61-5.912-18.2-5.67-27.981.177-7.186.067-14.379.082-21.568-.146-3.209-.15-6.433-.466-9.625a132.083,132.083,0,0,1,3.449-44.934c5.122,2.758,7.745,6.859,8.588,12.812,1.264,8.961,4.125,17.629,12.541,22.558,28.824,16.877,68.052,3.523,79.917-22.652,2.275-5.018,4.81-9.625,8.613-13.554a16.272,16.272,0,0,0,1.66-1.949c-1.281-1.477-1.955,0-2.792.709-2.327.417-2.67-.707-1.6-2.375a118.274,118.274,0,0,1,6.684-9.759c4.914-6.211,10.074-12.236,12.017-20.2a1.031,1.031,0,0,1,1.051-.091c1.505,11.064-6.324,18.377-10.872,27.055,10.927-6.1,16.116-15.232,14.925-27.792l12.2-1.692c2.417,11.362,5.128,22.625,6.454,34.244,1.98,17.391.319,34.648-.337,51.96q-.708,19.658-1.422,39.318a40.034,40.034,0,0,1-3.6,15.813c-11.852,9.015-25.995,10.362-40.025,11.435C190.4,290.6,164.9,285.428,139.192,285c-5.862-.1-11.9.124-17.561-2.11q-3.424-3-6.854-5.992" transform="translate(52.874 66.448)" fill="#ec5ea5"/>
    <path id="Path_13066" data-name="Path 13066" d="M212.945,224.227c.654-17.312,2.317-34.569.334-51.96-1.324-11.619-4.034-22.883-6.452-34.244,13.627-1.966,27.317-3.592,40.86-6.038,7.344-1.327,13.545-.32,19.062,4.673.162.7.173,1.6,1.328,1.06l-.143-.082c-.728,2.913,1.069,5.236,1.954,7.715,8.041,22.551,14.618,45.447,16.873,69.4-23.784,9.557-47.457,19.974-73.815,9.475" transform="translate(101.153 64.29)" fill="#fcfcfc"/>
    <path id="Path_13067" data-name="Path 13067" d="M266.745,212.721c-2.254-23.953-8.832-46.849-16.874-69.4-.883-2.478-2.68-4.8-1.952-7.715,16.031,10.161,33.242,16.931,52.207,19.452,8.129,1.081,15.126,5.816,22.217,9.829,10.645,9.381,13.046,22.114,13.79,35.257.551,9.7-2.481,12.918-12.23,15.071-18.913-4.032-37.887-6.661-57.158-2.493" transform="translate(121.168 66.321)" fill="#f4b613"/>
    <path id="Path_13068" data-name="Path 13068" d="M251.419,370.156c-.439.185-.879.368-1.316.541a20.273,20.273,0,0,1,1.316-13.381Z" transform="translate(122.029 174.754)" fill="#ec5ea5"/>
    <path id="Path_13069" data-name="Path 13069" d="M531.061,191.685c-4.3-8.1-4.336-8.163-12.77-3.3-16.042,9.256-32.271,18.149-49.023,26.071-23.072,10.913-36.25,7.349-51.815-13.032-6.769-8.863-11.627-18.733-17.261-28.2q1.371-26.879,2.746-53.76a2.265,2.265,0,0,1,1.228-.024c3.608,1.376,4.92,6.571,9.773,5.871,3.749,8.108,11.521,12.766,16.882,19.574,8.489,10.778,16.307,21.883,21.727,34.432,2.5,5.791,5.4,5.53,10.166,3.413a323.248,323.248,0,0,1,50.5-17.322c3.437-.889,6.836-.971,10.269-1.315,7.962-.393,11.037,4.545,11.862,11.378.442,3.656.019,7.417-.012,11.129-1.461,1.663-1.866,4.213-4.271,5.082" transform="translate(195.723 58.38)" fill="#f6ae92"/>
    <path id="Path_13070" data-name="Path 13070" d="M95.845,85.331q2.968,1.925,5.94,3.848-2.41,6.609-4.819,13.224a187.217,187.217,0,0,1-32.712-2.447c-4.147-4.364-.584-7.344,2.241-9.819,7.42-6.5,16.288-7.451,25.657-5.666l3.693.859" transform="translate(30.5 40.924)" fill="#f6ae92"/>
    <path id="Path_13071" data-name="Path 13071" d="M86.061,87.489l-3.693-.859c.144-8.535.144-8.535,11.159-5.583q-.036,2.439-.067,4.881l-7.4,1.561" transform="translate(40.284 38.767)" fill="#f7f8f9"/>
    <path id="Path_13072" data-name="Path 13072" d="M54.329,7.922c3.481.981,7.441.773,10.013,4.021-3.572.618-6.707-1.179-10.045-1.821.015-.733.024-1.465.033-2.2" transform="translate(26.555 3.874)" fill="#f6ae92"/>
    <path id="Path_13073" data-name="Path 13073" d="M63.913,10.691a4.169,4.169,0,0,1,.013,1.333c-1.2-.057-2.648.414-2.957-1.449l2.944.116" transform="translate(29.818 5.172)" fill="#f6ae92"/>
    <path id="Path_13074" data-name="Path 13074" d="M435.826,119.433q-1.374,26.882-2.744,53.762c-3.151,16.016-4.372,32.25-5.4,48.508l-19.239.045-.268-.408-.229.405-1.948.508-28.394.009a.9.9,0,0,0-.552-.529l-.2-.383-.174.393-17.208.544q-11.637-.219-23.279-.436-1.094-12.45-2.184-24.9-.532-11.141-1.066-22.284,1.365-20.221,2.728-40.443c17.086-1.467,34.273-2.232,50.874-7.116,2.786-.819,5.475-1.969,8.212-2.965l41.067-4.7" transform="translate(162.835 58.412)" fill="#f5b613"/>
    <path id="Path_13075" data-name="Path 13075" d="M223.073,179.549c-3.808,3.927-6.342,8.532-8.617,13.551-11.865,26.175-51.093,39.53-79.917,22.652-8.416-4.927-11.277-13.6-12.541-22.556-.843-5.953-3.465-10.054-8.589-12.812-4.656-5.155-9.858-10.508-7.03-18.109,5.125-13.772,6.339-28.763,13.311-41.922,11.408,7.291,22.308,15.336,34.357,21.669a66.619,66.619,0,0,0,37.82,7.624c15.708-1.386,31.443-2.463,47.168-3.674-1.942,7.964-7.1,13.99-12.015,20.2a118.013,118.013,0,0,0-6.684,9.759c-1.068,1.668-.725,2.791,1.6,2.374q.57.623,1.138,1.243m-107.755-5.986c2.013-6.78-1.494-10.894-3.72-15.413-1.231,5.468-1.8,10.748,3.72,15.413" transform="translate(51.635 58.861)" fill="#f4b613"/>
    <path id="Path_13076" data-name="Path 13076" d="M138.465,121.618c-6.972,13.159-8.185,28.149-13.309,41.922-2.828,7.6,2.374,12.953,7.028,18.109a132.114,132.114,0,0,0-3.447,44.933c.317,3.193.32,6.416.468,9.625-15.884,7.645-31.092,3.383-46.218-2.587-5.243-2.07-10.528-4.037-15.793-6.05-.252-29.047,7.292-56.387,18.2-82.992a134.1,134.1,0,0,0,19.088-13.756c8.188-7.152,18.621-9.561,28.529-13.058a10.581,10.581,0,0,1,5.459,3.854" transform="translate(32.859 57.595)" fill="#fcfcfc"/>
    <path id="Path_13077" data-name="Path 13077" d="M348.452,129.736q-1.365,20.221-2.728,40.443c-6.175,7.17-5.8,14.949,1.066,22.284q1.092,12.452,2.184,24.9-2.573,3.929-5.149,7.859c-4.442,4.482-5.752,10.925-9.794,15.661-11.665-22.772-21.115-46.449-26.637-71.428-2.39-10.808,3.094-20.816,7.119-30.672,1.4-3.437,3-6.795,4.509-10.188l29.429,1.136" transform="translate(150.055 62.895)" fill="#f6ae92"/>
    <path id="Path_13078" data-name="Path 13078" d="M203.534,137c1.191,12.56-4,21.694-14.926,27.792,4.549-8.678,12.376-15.991,10.872-27.055l4.055-.737" transform="translate(92.243 67.004)" fill="#f4b613"/>
    <path id="Path_13079" data-name="Path 13079" d="M248.4,136.008c-1.156.539-1.166-.357-1.33-1.06l1.33,1.06" transform="translate(120.834 66)" fill="#f4b613"/>
    <path id="Path_13080" data-name="Path 13080" d="M412.633,126.752c-4.853.7-6.165-4.5-9.773-5.871,3.6-3.228,8.3-1.919,13.423-4.452-1.59,4.5-2.619,7.411-3.65,10.324" transform="translate(197.029 56.942)" fill="#f7f8f9"/>
    <path id="Path_13081" data-name="Path 13081" d="M566.953,61.24c6.412,9.311,13.336,18.345,17.442,29,2.476,6.43,4.14,13.083.82,19.513-2.5-9.871-8.011-18.8-13.373-27.837-3.118-5.253-6.622-10.432-7.04-16.855q1.076-1.916,2.152-3.825" transform="translate(276.23 29.951)" fill="#f7f8f9"/>
    <path id="Path_13082" data-name="Path 13082" d="M494.373,129.8c-6.025-3.61-6.979-9.7-7.3-15.818a42.215,42.215,0,0,1,5.757-24.564l2.8.2a80.724,80.724,0,0,0-1.373,40.314Z" transform="translate(238.178 43.731)" fill="#ec5ea5"/>
    <path id="Path_13083" data-name="Path 13083" d="M567.763,64.511q-1.077,1.912-2.152,3.825c-.975-4.589-5.148-9.235.217-13.729l-.071-.057c-1.434,2.009-1.26,3.207,1.55,3.078l-.049-.088c-3.091,2.56,1.173,4.586.5,6.97" transform="translate(275.42 26.68)" fill="#f6ae92"/>
    <path id="Path_13084" data-name="Path 13084" d="M493.716,93.227l-2.8-.2c.66-4.166,2.95-7.564,5.392-11,.728,4.108-1.276,7.582-2.588,11.2" transform="translate(240.093 40.116)" fill="#f7f8f9"/>
    <path id="Path_13085" data-name="Path 13085" d="M491.873,116.664l.812.569c-.153-.019-.381.018-.445-.068a2.486,2.486,0,0,1-.252-.63l-.115.13" transform="translate(240.563 56.994)" fill="#ec5ea5"/>
    <path id="Path_13086" data-name="Path 13086" d="M410.362,285.031c-2.1,19.726-7.651,37.714-25.591,49.273a29.626,29.626,0,0,1-17.549,5.067c-10.455-.578-17.255-11.281-14.807-22.274a22.6,22.6,0,0,1,2.153-6.3c6.579-11.481,6.44-23.148,2.636-35.581-2.7-8.809,5.2-20.61,15.448-25.313,10.373-4.762,22.679-1.848,29.333,7.063,6.181,8.278,8.315,17.775,8.378,28.069m-10.559.475c-.124-7.973-1.614-13.851-4.956-19.115-4.481-7.058-10.531-9.421-17.486-6.829-7.475,2.786-10.8,8.522-9.1,16.987,2.488,12.388,2.45,24.381-2.927,36.156-2.046,4.482-3.766,10.468.219,13.872,4.6,3.931,10.312.908,15.087-1.911a18.428,18.428,0,0,0,3.961-3.307c9.457-10.1,14.721-21.977,15.206-35.854" transform="translate(172.113 121.11)" fill="#68e7f3"/>
    <path id="Path_13087" data-name="Path 13087" d="M326.572,209.15c4.041-4.735,5.352-11.177,9.794-15.659,16.672,1.988,28.6,12.566,40,23.271,9.326,8.757,17.794,18.669,17.117,33.047-.415,8.814-4.36,14.754-12.27,17.5-7.868,2.729-17.648.411-21.842-6.552-9.445-15.686-23.5-27.067-35.89-40.013-.28-.293-.935-.226-1.416-.328q2.254-5.631,4.506-11.263m56.439,37.913c.524-4.647-1.718-8.3-4.006-11.811-7.774-11.92-19.219-19.708-30.982-27.11-4.655-2.929-9.353-4.275-12.857,1.307-3.248,5.176-1.078,9.357,3.51,12.656,10.376,7.459,18.986,16.493,24.936,27.92a25.413,25.413,0,0,0,2.656,3.545c2.89,3.738,6.765,5.353,11.123,3.59,4.3-1.741,6.269-5.426,5.618-10.1" transform="translate(157.514 94.632)" fill="#68e7f3"/>
    <path id="Path_13088" data-name="Path 13088" d="M310.461,294.361c-.835-7.191.77-14.221,1.4-21.315,2.286.543,2.761,2.664,3.7,4.333,4.272,7.554,7.617,15.427,8.934,24.113.646,4.265,2.89,7.643,7.836,7.122,9.82-1.038,20.491-13.168,19.041-22.909-1.77-11.884-4.2-23.834-11.36-34.019-4.63-6.588-11.274-8.5-18.81-5.663-2.065.777-4.149,1.511-6.223,2.265-.6-4.281.6-8.26,2.055-12.2,16.183-4.07,25.4-.8,33.57,13.775a91.673,91.673,0,0,1,11.457,37.215c.673,7.88-2.648,14.252-7.7,19.361a50.641,50.641,0,0,1-20.741,12.612c-8.078,2.545-15.035-2.146-18.348-10.708-1.785-4.616-.334-10.336-4.81-13.985" transform="translate(151.724 114.675)" fill="#68e7f3"/>
    <path id="Path_13089" data-name="Path 13089" d="M321.7,339.156c-3.586.767-5.526-.472-5.973-4.317-.533-4.585-1.447-9.127-2.195-13.686,3.684-1.72,2.7-5.857,4.432-8.693,6.46-10.578,16.22-13.513,27.326-11.581,10.275,1.79,17.833,7.873,20.925,18.514,1.753,6.035,1.58,12.149,1.407,18.295l-10.555.052c.074-3.206.4-6.43.17-9.612-.755-10.315-6.857-16.81-15.833-17.148-10.377-.392-14.745,3.578-16.94,15.23-.817,4.335-1.836,8.632-2.764,12.946" transform="translate(153.341 146.881)" fill="#68e7f3"/>
    <path id="Path_13090" data-name="Path 13090" d="M350.76,188.7q8.6-.27,17.2-.545l.38-.007a.907.907,0,0,1,.554.527c9.466,4.51,18.931,4.3,28.394-.007.648-.168,1.3-.34,1.939-.508-.006,0,.506,0,.506,0q9.62-.02,19.239-.045.889,1.123,1.785,2.247A84,84,0,0,1,386.566,201.6c-13.494,1.434-26.7-.8-35.806-12.9" transform="translate(171.548 92.001)" fill="#68e7f3"/>
    <path id="Path_13091" data-name="Path 13091" d="M319.018,335.665c.928-4.314,1.946-8.611,2.764-12.946,2.195-11.652,6.562-15.622,16.94-15.23,8.976.338,15.078,6.833,15.833,17.148.234,3.182-.1,6.406-.17,9.612-9.649,1.948-19.488.827-29.189,1.836l-6.178-.42" transform="translate(156.024 150.372)" fill="#2cc0d6"/>
    <path id="Path_13092" data-name="Path 13092" d="M336.57,69.741c-7.183-11.944-5.259-18.307,7.173-27.534-4.57,7.919-6.862,16.474-7.173,27.534" transform="translate(162.57 20.642)" fill="#f7f8f9"/>
    <path id="Path_13093" data-name="Path 13093" d="M360.012,17.713c-.013,3.763-.216,6.877,1,9.722a1.87,1.87,0,0,1-1.191,2.852c-1.473.5-2.2-.631-2.8-1.695-2.3-4.089-2.387-7.679,2.986-10.879" transform="translate(173.884 8.663)" fill="#f7f8f9"/>
    <path id="Path_13094" data-name="Path 13094" d="M128.26,61.751q.746-1.483,1.494-2.963l2.138-2.1L131.8,56.6c-.4,7.262-.6,14.563-3.921,22.238-3.12-6.422-1.191-11.747.381-17.083" transform="translate(61.727 27.68)" fill="#f7f8f9"/>
    <path id="Path_13095" data-name="Path 13095" d="M130.056,57.046l.375-1.188q-.235.547-.468,1.1l.092.091" transform="translate(63.562 27.319)" fill="#f7f8f9"/>
    <path id="Path_13096" data-name="Path 13096" d="M538.309,28.8c-2.4-1.647-7.127,2.32-7.6-2.747-.344-3.659,2.563-6.4,6.705-6.168,4.39.247,9.354,1.835,9.013,6.647-.287,4.074-5.344.852-8.115,2.268" transform="translate(259.542 9.717)" fill="#212e59"/>
    <path id="Path_13097" data-name="Path 13097" d="M566.739,57.627c-2.81.13-2.984-1.068-1.55-3.076,1.9.331,1.915,1.607,1.55,3.076" transform="translate(275.988 26.68)" fill="#212d58"/>
    <path id="Path_13098" data-name="Path 13098" d="M183.718,159.712c.838-.707,1.514-2.186,2.794-.709a16.215,16.215,0,0,1-1.662,1.949c-.372-.411-.752-.826-1.132-1.24" transform="translate(89.852 77.455)" fill="#f4b613"/>
    <path id="Path_13099" data-name="Path 13099" d="M314.461,244.911c2.076-.753,4.157-1.488,6.224-2.265,7.535-2.834,14.179-.925,18.809,5.663,7.158,10.185,9.591,22.135,11.362,34.019,1.45,9.74-9.222,21.872-19.041,22.908-4.947.523-7.191-2.856-7.837-7.121-1.318-8.686-4.662-16.559-8.934-24.113-.944-1.669-1.419-3.79-3.7-4.333a76.542,76.542,0,0,1,3.121-24.759" transform="translate(152.242 118.051)" fill="#2cc0d6"/>
    <path id="Path_13100" data-name="Path 13100" d="M335.448,178.807c-6.871-7.335-7.243-15.114-1.066-22.284q.532,11.141,1.066,22.284" transform="translate(161.398 76.551)" fill="#f7f8f9"/>
    <path id="Path_13101" data-name="Path 13101" d="M391.331,188.483c-9.463,4.309-18.928,4.518-28.392.009l28.392-.009" transform="translate(177.504 92.182)" fill="#2cc0d6"/>
    <path id="Path_13102" data-name="Path 13102" d="M383.814,188.277l-.506,0c.007,0,.238-.4.238-.4Z" transform="translate(187.466 91.883)" fill="#f6ae92"/>
    <path id="Path_13103" data-name="Path 13103" d="M362.692,188.259s-.387.009-.381.01.183-.393.183-.393Z" transform="translate(177.197 91.885)" fill="#f6ae92"/>
    <path id="Path_13104" data-name="Path 13104" d="M113.609,161.148c-5.518-4.665-4.951-9.946-3.72-15.413,2.226,4.519,5.733,8.634,3.72,15.413" transform="translate(53.343 71.275)" fill="#f7f8f9"/>
    <path id="Path_13105" data-name="Path 13105" d="M396.115,281.923c-.485,13.877-5.749,25.758-15.206,35.854a18.428,18.428,0,0,1-3.961,3.307c-4.775,2.819-10.488,5.842-15.087,1.911-3.985-3.4-2.265-9.39-.219-13.872,5.377-11.776,5.416-23.769,2.927-36.156-1.7-8.465,1.629-14.2,9.1-16.987,6.956-2.592,13.006-.229,17.486,6.829,3.341,5.264,4.832,11.143,4.956,19.115" transform="translate(175.8 124.693)" fill="#2cc0d6"/>
    <path id="Path_13106" data-name="Path 13106" d="M379.218,243.085c.651,4.671-1.319,8.357-5.618,10.1-4.359,1.763-8.233.147-11.123-3.59a25.412,25.412,0,0,1-2.656-3.545c-5.95-11.427-14.56-20.461-24.936-27.92-4.588-3.3-6.757-7.48-3.51-12.656,3.5-5.583,8.2-4.236,12.857-1.307,11.762,7.4,23.207,15.19,30.982,27.11,2.287,3.507,4.53,7.164,4.006,11.811" transform="translate(161.307 98.61)" fill="#2cc0d6"/>
  </g>
</svg>
